<svg id="Layer_1" data-name="Layer 1" xmlns="http://www.w3.org/2000/svg" xmlns:xlink="http://www.w3.org/1999/xlink" viewBox="0 0 540 1096"><defs><style>.cls-1,.cls-9{fill:#f2f2f2;}.cls-10,.cls-12,.cls-2,.cls-7{fill:#fff;}.cls-2,.cls-6{stroke:#ccc;stroke-width:3.44px;}.cls-2,.cls-3,.cls-5,.cls-6{stroke-miterlimit:3.2;}.cls-3,.cls-5,.cls-6{fill:#ccc;}.cls-3,.cls-4,.cls-5{stroke:#fff;}.cls-3,.cls-5{stroke-width:3.2px;}.cls-3{fill-rule:evenodd;}.cls-4{fill:none;stroke-width:4.41px;}.cls-8{fill:url(#linear-gradient);}.cls-10,.cls-11,.cls-12,.cls-14,.cls-15,.cls-16,.cls-9{stroke-miterlimit:10;}.cls-9{stroke:url(#linear-gradient-2);}.cls-10{stroke:url(#linear-gradient-3);}.cls-11,.cls-14,.cls-15,.cls-16{fill:#e6e6e6;}.cls-11{stroke:#000;}.cls-12{stroke:url(#linear-gradient-4);}.cls-13{fill:#22b573;}.cls-14{stroke:url(#linear-gradient-5);}.cls-15{stroke:url(#linear-gradient-6);}.cls-16{stroke:url(#linear-gradient-7);}.cls-17{fill:url(#linear-gradient-8);}</style><linearGradient id="linear-gradient" x1="230" y1="933" x2="310" y2="933" gradientUnits="userSpaceOnUse"><stop offset="0" stop-color="#0071bc"/><stop offset="1" stop-color="#1b1464"/></linearGradient><linearGradient id="linear-gradient-2" x1="68.5" y1="350" x2="469.5" y2="350" xlink:href="#linear-gradient"/><linearGradient id="linear-gradient-3" x1="85.5" y1="350" x2="110.5" y2="350" xlink:href="#linear-gradient"/><linearGradient id="linear-gradient-4" x1="85.5" y1="414" x2="110.5" y2="414" xlink:href="#linear-gradient"/><linearGradient id="linear-gradient-5" x1="68.5" y1="526" x2="470.5" y2="526" xlink:href="#linear-gradient"/><linearGradient id="linear-gradient-6" x1="68.5" y1="638" x2="253.5" y2="638" xlink:href="#linear-gradient"/><linearGradient id="linear-gradient-7" x1="68.5" y1="750" x2="253.5" y2="750" xlink:href="#linear-gradient"/><linearGradient id="linear-gradient-8" x1="85" y1="750" x2="94" y2="750" xlink:href="#linear-gradient"/></defs><g id="Layer_2" data-name="Layer 2"><g id="Layer_1-2" data-name="Layer 1-2"><rect class="cls-1" x="21" y="117" width="495" height="32"/><path d="M61.82,1.65c-14.46,1.83-30.91,8.78-39.7,17C14.07,26.35,6.21,43,3.66,58c-1.29,8.77-1.83,150-1.47,497.86l.55,485.65,4.75,12.25c2.56,6.58,7.32,15.36,10.43,19.21,6.77,8.6,23,17.55,36.58,20.48,6.77,1.46,71.7,2,214.75,2,220.23,0,215.47.19,233.93-9.14,9.34-4.94,20.86-18.48,25.8-30.92l4.21-10.23.55-218.23c.37-190.78.73-218,3.1-218,4.21,0,4-134.44,0-136.08-2.19-.74-2.73-4.94-2.73-22.13,0-17.57.54-21,2.73-21,2.38,0,2.74-4.94,2.74-32.92,0-27.8-.36-32.92-2.74-32.92-2.19,0-2.73-20.3-3.1-156-.55-146.69-.73-156.39-4-165.17-8.6-24-27.08-37.5-56-41C455.46-.55,80.66-.55,61.82,1.65ZM517.19,556.09V995.85h-496v-879h495Z"/><rect id="rect4151" class="cls-2" x="204.69" y="1070.35" width="129" height="10" rx="3.2"/><path id="path4179" class="cls-3" d="M257.53,1033.81l11.28-13.49L280,1033.81l-4.35-4.59v11.13h-14v-10.91Z"/><g id="g4187"><path id="path4181" class="cls-4" d="M101.24,1039.41c15.06,0,18.46-3.22,18.46-8.71,0-5.84-8.38-7.34-16.61-7.44"/><path id="path4185" class="cls-4" d="M107.19,1019.07l-5.22,4.28,5.29,4.34"/></g><g id="g4197"><rect id="rect4193" class="cls-5" x="409.69" y="1021.35" width="18" height="13" rx="2.4"/><rect id="rect4195" class="cls-5" x="415.69" y="1026.35" width="18" height="13" rx="2.4"/></g><rect id="rect4138" class="cls-2" x="207.69" y="54.35" width="129" height="10" rx="3.2"/><circle id="path4155" class="cls-6" cx="89.35" cy="60.92" r="3.36"/><path d="M499.19,130v2h1v2h-1v3h-18v-7h18m1.2-3H481a1.8,1.8,0,0,0-1.81,1.8v8.4A1.8,1.8,0,0,0,481,139h19.34a1.83,1.83,0,0,0,1.86-1.78h0V137H502a2.45,2.45,0,0,0,1.24-1v-5.46c-.33-.49-.73-.88-1.23-.54h.23v-1.18a1.8,1.8,0,0,0-1.77-1.82h0Zm-6.2,4h-12v5h12Z"/><path d="M470.19,130.44a12.45,12.45,0,0,0-16.87,0,.44.44,0,0,0,0,.61h0l.92.91a.43.43,0,0,0,.6,0,10.29,10.29,0,0,1,13.86,0,.43.43,0,0,0,.6,0l.91-.91a.41.41,0,0,0,0-.58h0Zm-8.43,5a1.71,1.71,0,1,0,1.71,1.71h0a1.71,1.71,0,0,0-1.67-1.71Zm5.43-2.41a8.22,8.22,0,0,0-10.86,0,.44.44,0,0,0,0,.61h0l.93.91a.42.42,0,0,0,.59,0,6,6,0,0,1,7.86,0,.42.42,0,0,0,.59,0l.92-.91a.42.42,0,0,0,0-.59Z"/><path d="M435.78,134h-1.19a.37.37,0,0,0-.4.35v4.29a.38.38,0,0,0,.39.36h1.2a.38.38,0,0,0,.41-.35h0v-4.29A.4.4,0,0,0,435.78,134Zm-3,2h-1.19a.38.38,0,0,0-.4.38h0v2.24a.38.38,0,0,0,.4.38h1.19a.4.4,0,0,0,.41-.37h0v-2.24a.39.39,0,0,0-.4-.38Zm6-5h-1.19a.4.4,0,0,0-.4.4h0v7.18a.4.4,0,0,0,.39.41h1.2a.41.41,0,0,0,.41-.41h0v-7.18a.41.41,0,0,0-.41-.41Zm3-2h-1.19a.38.38,0,0,0-.4.38h0v9.23a.39.39,0,0,0,.39.39h1.2a.4.4,0,0,0,.41-.39h0v-9.23A.42.42,0,0,0,441.78,129Zm3-2h-1.19a.38.38,0,0,0-.4.38h0v11.24a.38.38,0,0,0,.4.38h1.19a.4.4,0,0,0,.41-.37h0V127.38a.39.39,0,0,0-.4-.38Z"/><path d="M47.19,140h-2V128l-2,1.24v-1.91l2-1.33h2Z"/><path d="M50.19,130h2v2h-2Zm0,8h2v2h-2Z"/><path d="M58.19,140h-2V128l-2,1.24v-1.91l2-1.33h2Z"/><path d="M65.19,140h-2V128l-2,1.24v-1.91l2-1.33h2Z"/><path d="M41.19,140h-2V128l-2,1.24v-1.91l2-1.33h2Z"/></g></g><circle class="cls-1" cx="460" cy="189" r="24"/><path d="M308.19,180.65h2.46l3.22,10.3,3.21-10.3h2.46l-4.68,14.19h-2Z"/><path d="M321.13,180.65h2.33V183h-2.33Zm0,4.06h2.33v10.13h-2.33Z"/><path d="M332.09,184.71h2.37l-3.81,10.13H329l-3.81-10.13h2.37l2.28,6.79Z"/><path d="M337.82,194.46a3.6,3.6,0,0,1-1.55-1.54,5.24,5.24,0,0,1-.54-2.47v-1.14a5.75,5.75,0,0,1,.52-2.57,3.55,3.55,0,0,1,1.49-1.62,4.71,4.71,0,0,1,2.36-.56,3.8,3.8,0,0,1,2.22.65,4.1,4.1,0,0,1,1.41,1.88,8.18,8.18,0,0,1,.48,3v.66h-6.89V189H342v-.1a2.87,2.87,0,0,0-.59-1.65,1.69,1.69,0,0,0-1.34-.59,2,2,0,0,0-1.63.66,2.72,2.72,0,0,0-.58,1.87v1.29a2.17,2.17,0,0,0,2.38,2.39,3,3,0,0,0,1.14-.22,3.25,3.25,0,0,0,1-.61l1.53,1.43a6,6,0,0,1-1.74,1.12,5.13,5.13,0,0,1-1.94.39A5.18,5.18,0,0,1,337.82,194.46Z"/><path d="M346.75,180.65h2.33v14.19h-2.33Zm1.05,10.44,5-6.38h2.59l-7.44,9Zm2.38-1.79,1.74-1.33,3.94,6.87h-2.63Z"/><path d="M365,194.34a4.51,4.51,0,0,1-1.79-1.83,5.81,5.81,0,0,1-.63-2.75v-4a5.81,5.81,0,0,1,.63-2.75,4.51,4.51,0,0,1,1.79-1.83,5.79,5.79,0,0,1,5.33,0,4.45,4.45,0,0,1,1.79,1.83,5.81,5.81,0,0,1,.63,2.75v4a5.81,5.81,0,0,1-.63,2.75,4.45,4.45,0,0,1-1.79,1.83,5.79,5.79,0,0,1-5.33,0Zm4.08-2a2.42,2.42,0,0,0,.94-1,3.24,3.24,0,0,0,.33-1.49v-4.16a3.25,3.25,0,0,0-.33-1.5,2.33,2.33,0,0,0-.94-1,3,3,0,0,0-2.83,0,2.33,2.33,0,0,0-.94,1,3.25,3.25,0,0,0-.33,1.5v4.16a3.24,3.24,0,0,0,.33,1.49,2.42,2.42,0,0,0,.94,1,3,3,0,0,0,2.83,0Z"/><path d="M375.61,180.65h2.33v14.19h-2.33Zm3.19,13.89a2.71,2.71,0,0,1-1-1.29l.14-2.21a2.25,2.25,0,0,0,.2,1,1.49,1.49,0,0,0,.6.62,2,2,0,0,0,.95.21,1.71,1.71,0,0,0,1.35-.54,2.36,2.36,0,0,0,.47-1.56v-1.9a2.45,2.45,0,0,0-.47-1.59,1.69,1.69,0,0,0-1.35-.56,2,2,0,0,0-.95.21,1.44,1.44,0,0,0-.6.62,2.27,2.27,0,0,0-.2,1l-.21-2.1a3.49,3.49,0,0,1,1.14-1.38,2.74,2.74,0,0,1,1.57-.48,3.31,3.31,0,0,1,1.84.5,3.13,3.13,0,0,1,1.17,1.46,6.14,6.14,0,0,1,.4,2.32v1.91a5.82,5.82,0,0,1-.41,2.29,3.06,3.06,0,0,1-1.18,1.45,3.37,3.37,0,0,1-1.87.5A2.8,2.8,0,0,1,378.8,194.54Z"/><path d="M388.28,194.46a3.55,3.55,0,0,1-1.55-1.54,5.24,5.24,0,0,1-.54-2.47v-1.14a5.89,5.89,0,0,1,.51-2.57,3.63,3.63,0,0,1,1.5-1.62,4.71,4.71,0,0,1,2.36-.56,3.8,3.8,0,0,1,2.22.65,4,4,0,0,1,1.4,1.88,8,8,0,0,1,.49,3v.66h-6.89V189h4.72v-.1a2.81,2.81,0,0,0-.6-1.65,1.65,1.65,0,0,0-1.33-.59,2,2,0,0,0-1.63.66,2.72,2.72,0,0,0-.58,1.87v1.29a2.16,2.16,0,0,0,2.38,2.39,3,3,0,0,0,1.14-.22,3.37,3.37,0,0,0,1-.61l1.52,1.43a5.78,5.78,0,0,1-1.73,1.12,5.13,5.13,0,0,1-1.94.39A5.18,5.18,0,0,1,388.28,194.46Z"/><path d="M397.21,184.71h2.43v10.13h-2.43Zm5.07,2.22a2.2,2.2,0,0,0-.8-.13,1.76,1.76,0,0,0-1.36.52,2.06,2.06,0,0,0-.48,1.45l-.21-2.29a3.74,3.74,0,0,1,1.15-1.42,2.66,2.66,0,0,1,1.56-.5,3.51,3.51,0,0,1,1.2.2,2.63,2.63,0,0,1,.94.59l-1.43,2A1.53,1.53,0,0,0,402.28,186.93Z"/><path d="M407.22,194.47a3.39,3.39,0,0,1-1.46-1.51,5.13,5.13,0,0,1-.51-2.38v-1.65a5,5,0,0,1,.51-2.36,3.41,3.41,0,0,1,1.46-1.5,5.49,5.49,0,0,1,4.62,0,3.49,3.49,0,0,1,1.47,1.5,5.17,5.17,0,0,1,.5,2.36v1.68a5.17,5.17,0,0,1-.5,2.36,3.44,3.44,0,0,1-1.47,1.5,5.39,5.39,0,0,1-4.62,0Zm3.75-2.28a2.25,2.25,0,0,0,.5-1.58v-1.68a2.27,2.27,0,0,0-.5-1.58,1.85,1.85,0,0,0-1.44-.55,1.82,1.82,0,0,0-1.43.55,2.27,2.27,0,0,0-.51,1.58v1.68a2.3,2.3,0,0,0,.5,1.58,2.13,2.13,0,0,0,2.88,0Z"/><path d="M416.38,180.65h2.32V183h-2.32Zm0,4.06h2.32v10.13h-2.32Z"/><path d="M54.14,180.14H83.86A1.14,1.14,0,0,0,85,179v-2.86A1.14,1.14,0,0,0,83.86,175H54.14A1.14,1.14,0,0,0,53,176.14V179A1.14,1.14,0,0,0,54.14,180.14Zm0,11.43H83.86A1.14,1.14,0,0,0,85,190.43v-2.86a1.14,1.14,0,0,0-1.14-1.14H54.14A1.14,1.14,0,0,0,53,187.57v2.86A1.14,1.14,0,0,0,54.14,191.57Zm0,11.43H83.86A1.14,1.14,0,0,0,85,201.86V199a1.14,1.14,0,0,0-1.14-1.14H54.14A1.14,1.14,0,0,0,53,199v2.86A1.14,1.14,0,0,0,54.14,203Z"/><path d="M64.23,292.65h2.7v14.19H64.74V296l.1.63-3.11,8.43H59.86l-3.11-8.24.1-.82v10.83H54.66V292.65h2.7l3.43,9.47Z"/><path d="M71.85,306.46a3.57,3.57,0,0,1-1.56-1.54,5.36,5.36,0,0,1-.53-2.47v-1.14a5.89,5.89,0,0,1,.51-2.57,3.61,3.61,0,0,1,1.49-1.62,4.76,4.76,0,0,1,2.36-.56,3.76,3.76,0,0,1,2.22.65,4,4,0,0,1,1.41,1.88,8.18,8.18,0,0,1,.48,3v.66H71.35V301h4.72v-.1a3,3,0,0,0-.6-1.65,1.67,1.67,0,0,0-1.34-.59,2.06,2.06,0,0,0-1.63.66,2.77,2.77,0,0,0-.57,1.87v1.29a2.36,2.36,0,0,0,.62,1.77,2.4,2.4,0,0,0,1.76.62,3.08,3.08,0,0,0,1.14-.22,3.37,3.37,0,0,0,1-.61L78,305.48a5.78,5.78,0,0,1-1.73,1.12,5.49,5.49,0,0,1-4.39-.14Z"/><path d="M80,296.71h4.77v2H80Zm1.64,9.5a3,3,0,0,1-.59-2V293.76h2.33v10.13a1,1,0,0,0,.15.57.51.51,0,0,0,.43.2h.81v2.23H83.51A2.35,2.35,0,0,1,81.63,306.21Z"/><path d="M87.3,292.65h2.33v14.19H87.3Zm6,8.05a1.9,1.9,0,0,0-.49-1.4,2.15,2.15,0,0,0-2.71,0,1.74,1.74,0,0,0-.47,1.3l-.2-2.1a3.64,3.64,0,0,1,1.15-1.41,2.79,2.79,0,0,1,1.65-.49,3.07,3.07,0,0,1,2.51,1.08,4.64,4.64,0,0,1,.9,3.05v6.15H93.3Z"/><path d="M100.14,306.47A3.39,3.39,0,0,1,98.68,305a5.13,5.13,0,0,1-.5-2.38v-1.65a5,5,0,0,1,.5-2.36,3.41,3.41,0,0,1,1.46-1.5,5.49,5.49,0,0,1,4.62,0,3.49,3.49,0,0,1,1.47,1.5,5.17,5.17,0,0,1,.5,2.36v1.68a5.17,5.17,0,0,1-.5,2.36,3.44,3.44,0,0,1-1.47,1.5,5.39,5.39,0,0,1-4.62,0Zm3.75-2.28a2.26,2.26,0,0,0,.51-1.58v-1.68a2.27,2.27,0,0,0-.51-1.58,1.85,1.85,0,0,0-1.44-.55,1.83,1.83,0,0,0-1.43.55,2.27,2.27,0,0,0-.51,1.58v1.68a2.3,2.3,0,0,0,.5,1.58,2.13,2.13,0,0,0,2.88,0Z"/><path d="M110.66,306.51a3.14,3.14,0,0,1-1.18-1.46,5.84,5.84,0,0,1-.41-2.3v-1.93a6.12,6.12,0,0,1,.4-2.31,3.21,3.21,0,0,1,1.17-1.47,3.33,3.33,0,0,1,1.84-.5,2.72,2.72,0,0,1,1.57.48,3.46,3.46,0,0,1,1.14,1.35l-.21,2.16a2.31,2.31,0,0,0-.2-1,1.44,1.44,0,0,0-.6-.62,1.86,1.86,0,0,0-1-.22,1.65,1.65,0,0,0-1.34.57,2.35,2.35,0,0,0-.48,1.58v1.91a2.31,2.31,0,0,0,.48,1.56,1.66,1.66,0,0,0,1.34.55,1.86,1.86,0,0,0,1-.22,1.41,1.41,0,0,0,.6-.63,2.25,2.25,0,0,0,.2-1l.14,2.22a2.76,2.76,0,0,1-1,1.28,2.72,2.72,0,0,1-1.62.48A3.41,3.41,0,0,1,110.66,306.51ZM115,292.65h2.34v14.19H115Z"/><path d="M127.19,306.47a3.39,3.39,0,0,1-1.46-1.51,5.13,5.13,0,0,1-.5-2.38v-1.65a5,5,0,0,1,.5-2.36,3.41,3.41,0,0,1,1.46-1.5,4.92,4.92,0,0,1,2.31-.51,4.86,4.86,0,0,1,2.31.51,3.49,3.49,0,0,1,1.47,1.5,5.17,5.17,0,0,1,.5,2.36v1.68a5.17,5.17,0,0,1-.5,2.36,3.44,3.44,0,0,1-1.47,1.5,4.75,4.75,0,0,1-2.31.52A4.8,4.8,0,0,1,127.19,306.47Zm3.75-2.28a2.26,2.26,0,0,0,.51-1.58v-1.68a2.27,2.27,0,0,0-.51-1.58,2.15,2.15,0,0,0-2.87,0,2.27,2.27,0,0,0-.51,1.58v1.68a2.3,2.3,0,0,0,.5,1.58,2.13,2.13,0,0,0,2.88,0Z"/><path d="M135.64,296.71h5.26v2h-5.26Zm1.07-1.38a2.91,2.91,0,0,1,.62-2,2.5,2.5,0,0,1,1.91-.66h1.66v2.13h-1.28a.5.5,0,0,0-.43.22,1,1,0,0,0-.15.56v11.28h-2.33Z"/><path d="M148.13,296.71h2.33V311h-2.33Zm3.19,9.83a2.71,2.71,0,0,1-1-1.29l.14-2.21a2.12,2.12,0,0,0,.21,1,1.41,1.41,0,0,0,.59.62,2,2,0,0,0,1,.21,1.71,1.71,0,0,0,1.35-.54,2.31,2.31,0,0,0,.48-1.56v-1.9a2.4,2.4,0,0,0-.48-1.59,1.69,1.69,0,0,0-1.35-.56,2,2,0,0,0-1,.21,1.36,1.36,0,0,0-.59.62,2.13,2.13,0,0,0-.21,1l-.2-2.1a3.39,3.39,0,0,1,1.13-1.38,2.77,2.77,0,0,1,1.57-.48,3.31,3.31,0,0,1,1.84.5,3.13,3.13,0,0,1,1.17,1.46,6,6,0,0,1,.4,2.32v1.91A5.82,5.82,0,0,1,156,305a3.06,3.06,0,0,1-1.18,1.45,3.35,3.35,0,0,1-1.87.5A2.8,2.8,0,0,1,151.32,306.54Z"/><path d="M159.39,306.21a3,3,0,0,1-.87-2.35,2.79,2.79,0,0,1,.88-2.26,4,4,0,0,1,2.63-.75h2.72l.13,1.82H162a1.56,1.56,0,0,0-1,.29,1.1,1.1,0,0,0-.34.9,1.07,1.07,0,0,0,.45.94,2.42,2.42,0,0,0,1.35.31,4.27,4.27,0,0,0,1.66-.25.79.79,0,0,0,.54-.76l.21,1.45a1.84,1.84,0,0,1-.59.8,2.91,2.91,0,0,1-1,.48A4.67,4.67,0,0,1,162,307,3.8,3.8,0,0,1,159.39,306.21Zm5.27-5.79a1.73,1.73,0,0,0-.5-1.32,2,2,0,0,0-1.42-.47,3.79,3.79,0,0,0-2.17.7L159,298a3.71,3.71,0,0,1,1.56-1.08,5.68,5.68,0,0,1,2.15-.39,4.93,4.93,0,0,1,2.2.45,3.06,3.06,0,0,1,1.4,1.28,4,4,0,0,1,.49,2v6.51h-2.16Z"/><path d="M168.28,296.71h2.28l3.26,8.81-1.4,2.15Zm9.17,0L173,309.22a3.11,3.11,0,0,1-.62,1.1,2.13,2.13,0,0,1-.93.58,4.87,4.87,0,0,1-1.37.17h-.5v-2.25h.5a1.38,1.38,0,0,0,.8-.21,1.41,1.41,0,0,0,.51-.69l3.75-11.21Z"/><path d="M179,296.71h2.33v10.13H179Zm6,4.14a2.18,2.18,0,0,0-.48-1.52,1.74,1.74,0,0,0-1.37-.53,1.62,1.62,0,0,0-1.8,1.78l-.21-2.1a3.68,3.68,0,0,1,1.18-1.43,2.85,2.85,0,0,1,1.63-.49,3.24,3.24,0,0,1,1.82.5,3.05,3.05,0,0,1,1.16,1.46,6.14,6.14,0,0,1,.4,2.32v6H185Zm6,0a2.14,2.14,0,0,0-.49-1.52,1.78,1.78,0,0,0-1.39-.53,1.69,1.69,0,0,0-1.31.51,2.1,2.1,0,0,0-.46,1.46l-.45-2.15a3.8,3.8,0,0,1,1.25-1.52,3,3,0,0,1,1.73-.54,3.44,3.44,0,0,1,1.87.5,3.15,3.15,0,0,1,1.18,1.46,6,6,0,0,1,.4,2.32v6H191Z"/><path d="M197.94,306.46a3.55,3.55,0,0,1-1.55-1.54,5.24,5.24,0,0,1-.54-2.47v-1.14a5.89,5.89,0,0,1,.51-2.57,3.63,3.63,0,0,1,1.5-1.62,4.71,4.71,0,0,1,2.36-.56,3.8,3.8,0,0,1,2.22.65,4,4,0,0,1,1.4,1.88,8,8,0,0,1,.49,3v.66h-6.89V301h4.72v-.1a2.81,2.81,0,0,0-.6-1.65,1.65,1.65,0,0,0-1.33-.59,2,2,0,0,0-1.63.66,2.72,2.72,0,0,0-.58,1.87v1.29a2.16,2.16,0,0,0,2.38,2.39,3,3,0,0,0,1.14-.22,3.37,3.37,0,0,0,1-.61l1.52,1.43a5.78,5.78,0,0,1-1.73,1.12,5.13,5.13,0,0,1-1.94.39A5.18,5.18,0,0,1,197.94,306.46Z"/><path d="M206.87,296.71h2.33v10.13h-2.33Zm6,4a1.9,1.9,0,0,0-.49-1.4,1.81,1.81,0,0,0-3.18,1.28l-.2-2.1a3.64,3.64,0,0,1,1.15-1.43,2.79,2.79,0,0,1,1.65-.49,3.07,3.07,0,0,1,2.51,1.08,4.64,4.64,0,0,1,.9,3.05v6.15h-2.34Z"/><path d="M217.26,296.71H222v2h-4.76Zm1.64,9.5a2.93,2.93,0,0,1-.6-2V293.76h2.34v10.13a1,1,0,0,0,.14.57.51.51,0,0,0,.43.2H222v2.23h-1.25A2.34,2.34,0,0,1,218.9,306.21Z"/><path d="M194.86,231h2.38l7.46,19.87h-3.51L196.05,236l-5.14,14.8h-3.52Zm-4,13h10.46v3.13H190.91Z"/><path d="M209,250.37a4.42,4.42,0,0,1-1.66-2,8.2,8.2,0,0,1-.57-3.22v-2.71a8.42,8.42,0,0,1,.56-3.23,4.42,4.42,0,0,1,1.64-2.06,4.65,4.65,0,0,1,2.58-.7,3.8,3.8,0,0,1,2.19.67,4.8,4.8,0,0,1,1.59,1.89l-.28,3a3.15,3.15,0,0,0-.29-1.4,2,2,0,0,0-.84-.87,2.68,2.68,0,0,0-1.32-.3,2.34,2.34,0,0,0-1.89.79,3.33,3.33,0,0,0-.67,2.22v2.68a3.23,3.23,0,0,0,.67,2.18,2.39,2.39,0,0,0,1.89.77,2.58,2.58,0,0,0,1.32-.31,2,2,0,0,0,.84-.88,3.06,3.06,0,0,0,.29-1.38l.19,3.12a4,4,0,0,1-1.36,1.78,3.79,3.79,0,0,1-2.27.68A4.67,4.67,0,0,1,209,250.37ZM215,231h3.26v19.87H215Z"/><path d="M224.07,250.37a4.34,4.34,0,0,1-1.65-2,8.2,8.2,0,0,1-.57-3.22v-2.71a8.23,8.23,0,0,1,.56-3.23,4.41,4.41,0,0,1,1.63-2.06,4.69,4.69,0,0,1,2.58-.7,3.8,3.8,0,0,1,2.19.67,4.9,4.9,0,0,1,1.6,1.89l-.29,3a3.15,3.15,0,0,0-.29-1.4,2,2,0,0,0-.83-.87,2.75,2.75,0,0,0-1.33-.3,2.31,2.31,0,0,0-1.88.79,3.33,3.33,0,0,0-.67,2.22v2.68a3.23,3.23,0,0,0,.67,2.18,2.36,2.36,0,0,0,1.88.77,2.64,2.64,0,0,0,1.33-.31,2,2,0,0,0,.83-.88,3.06,3.06,0,0,0,.29-1.38l.19,3.12A3.88,3.88,0,0,1,229,250.4a3.76,3.76,0,0,1-2.26.68A4.71,4.71,0,0,1,224.07,250.37Zm6.05-19.4h3.27v19.87h-3.27Z"/><path d="M243.78,236.65h6.67v2.86h-6.67ZM246.07,250a4.17,4.17,0,0,1-.83-2.81V232.52h3.27V246.7a1.37,1.37,0,0,0,.2.8.7.7,0,0,0,.6.28h1.14v3.13H248.7A3.3,3.3,0,0,1,246.07,250Z"/><path d="M256.35,250.33a4.83,4.83,0,0,1-2.05-2.12,7.29,7.29,0,0,1-.71-3.34v-2.31a7.12,7.12,0,0,1,.71-3.3,4.71,4.71,0,0,1,2.05-2.09,7.63,7.63,0,0,1,6.47,0,4.76,4.76,0,0,1,2.05,2.09,7.12,7.12,0,0,1,.7,3.3v2.35a7.2,7.2,0,0,1-.7,3.32,4.94,4.94,0,0,1-2.05,2.1,7.63,7.63,0,0,1-6.47,0Zm5.24-3.2a3.15,3.15,0,0,0,.71-2.22v-2.35a3.12,3.12,0,0,0-.71-2.2,2.57,2.57,0,0,0-2-.78,2.6,2.6,0,0,0-2,.78,3.16,3.16,0,0,0-.71,2.2v2.35a3.2,3.2,0,0,0,.71,2.22,3,3,0,0,0,4,0Z"/><path d="M285.35,231h2.46l3.94,14.42,3-14.42h3.37l-4.71,19.87h-3.19L286.67,237l-3.76,13.89h-3.19L275,231h3.38l3,14.42Z"/><path d="M300.34,250a4.19,4.19,0,0,1-1.22-3.3,4,4,0,0,1,1.23-3.16,5.56,5.56,0,0,1,3.69-1.05h3.8L308,245h-4a2.23,2.23,0,0,0-1.46.41,1.59,1.59,0,0,0-.48,1.26,1.49,1.49,0,0,0,.62,1.32,3.38,3.38,0,0,0,1.9.43,5.9,5.9,0,0,0,2.32-.34,1.12,1.12,0,0,0,.76-1.07l.29,2a2.44,2.44,0,0,1-.82,1.12,3.88,3.88,0,0,1-1.4.67,6.69,6.69,0,0,1-1.79.23A5.32,5.32,0,0,1,300.34,250Zm7.38-8.11A2.41,2.41,0,0,0,307,240a2.86,2.86,0,0,0-2-.65,5.23,5.23,0,0,0-3,1l-2.17-1.83A5.4,5.4,0,0,1,302,237a8,8,0,0,1,3-.54,7.06,7.06,0,0,1,3.09.62,4.49,4.49,0,0,1,2,1.81,5.62,5.62,0,0,1,.67,2.85v9.11h-3Z"/><path d="M318,246.67a1.13,1.13,0,0,0,.26.8,1,1,0,0,0,.74.28h1v3.14h-1.77a3.27,3.27,0,0,1-2.55-1,3.9,3.9,0,0,1-.91-2.77V231H318Z"/><path d="M326.08,246.67a1.13,1.13,0,0,0,.26.8.94.94,0,0,0,.74.28h1v3.14h-1.78a3.3,3.3,0,0,1-2.55-1,4,4,0,0,1-.91-2.77V231h3.27Z"/><path d="M333.44,250.31a5,5,0,0,1-2.18-2.17,7.33,7.33,0,0,1-.75-3.45v-1.6a8.18,8.18,0,0,1,.72-3.59,5.07,5.07,0,0,1,2.09-2.27,6.6,6.6,0,0,1,3.3-.78,5.24,5.24,0,0,1,3.11.91,5.58,5.58,0,0,1,2,2.63,11.4,11.4,0,0,1,.68,4.16v.93h-9.64v-2.4h6.6v-.15a4.1,4.1,0,0,0-.83-2.31,2.34,2.34,0,0,0-1.88-.82,2.89,2.89,0,0,0-2.28.92,3.86,3.86,0,0,0-.81,2.62v1.81a3,3,0,0,0,3.34,3.35,4.41,4.41,0,0,0,1.59-.31,4.78,4.78,0,0,0,1.42-.86l2.13,2a7.86,7.86,0,0,1-2.43,1.57,7,7,0,0,1-2.71.55A7.39,7.39,0,0,1,333.44,250.31Z"/><path d="M344.84,236.65h6.67v2.86h-6.67Zm2.3,13.31a4.12,4.12,0,0,1-.84-2.81V232.52h3.27V246.7a1.29,1.29,0,0,0,.21.8.67.67,0,0,0,.6.28h1.13v3.13h-1.75A3.28,3.28,0,0,1,347.14,250Z"/><path class="cls-7" d="M379.7,433.31a3.6,3.6,0,0,1-.95-2.67v-5.81a3.62,3.62,0,0,1,1-2.68,4.53,4.53,0,0,1,5.55,0,3.6,3.6,0,0,1,1,2.68v5.81a3.62,3.62,0,0,1-1,2.68,4.52,4.52,0,0,1-5.56,0Zm4-1.55a2.21,2.21,0,0,0,.4-1.43v-5.19a2.21,2.21,0,0,0-.4-1.43,1.79,1.79,0,0,0-2.48,0,2.28,2.28,0,0,0-.39,1.43v5.19a2.28,2.28,0,0,0,.39,1.43,1.79,1.79,0,0,0,2.48,0Z"/><path class="cls-7" d="M395.46,423l-3.09,11.18h-2.26l3-10.77h-2.72v1.88h-2.1v-3.89h7.13Z"/><path class="cls-7" d="M403.16,436.56h-2L407,419.85h2Z"/><path class="cls-7" d="M414,432.28l4.42-5.86a4,4,0,0,0,.53-.93,2.55,2.55,0,0,0,.19-.89v0a1.28,1.28,0,0,0-.39-1,1.62,1.62,0,0,0-1.11-.35,1.51,1.51,0,0,0-1.13.43,2,2,0,0,0-.51,1.21h-2.16a4.81,4.81,0,0,1,.61-2,3.39,3.39,0,0,1,1.3-1.25,3.88,3.88,0,0,1,1.87-.43,4.62,4.62,0,0,1,2,.39,2.8,2.8,0,0,1,1.26,1.14,3.5,3.5,0,0,1,.44,1.8h0a4.45,4.45,0,0,1-.3,1.57,5.7,5.7,0,0,1-.81,1.49l-3.43,4.5h4.61v2H414Z"/><path class="cls-7" d="M422.82,430.3l4.11-8.93h2.28l-4,8.82h6v2h-8.39Zm5.33-3.68h2.07v7.53h-2.07Z"/><circle class="cls-8" cx="270" cy="933" r="40"/><path class="cls-7" d="M270,909a24,24,0,1,0,24,24A24,24,0,0,0,270,909Zm13.94,26.71a1.17,1.17,0,0,1-1.17,1.16h-8.9v8.9a1.17,1.17,0,0,1-1.16,1.17h-5.42a1.17,1.17,0,0,1-1.16-1.17v-8.9h-8.9a1.17,1.17,0,0,1-1.17-1.16v-5.42a1.17,1.17,0,0,1,1.17-1.16h8.9v-8.9a1.17,1.17,0,0,1,1.16-1.17h5.42a1.17,1.17,0,0,1,1.16,1.17v8.9h8.9a1.17,1.17,0,0,1,1.17,1.16Z"/><rect class="cls-9" x="69" y="326" width="400" height="48" rx="8"/><path d="M127.58,342.48h1.27v12.78h-1.27Zm1.06,11.6h3.5a3.68,3.68,0,0,0,2.37-.61,2.09,2.09,0,0,0,.74-1.72v0a2.87,2.87,0,0,0-.27-1.3,1.87,1.87,0,0,0-.87-.84,3.42,3.42,0,0,0-1.53-.3h-3.94v-1.18h3.94a2.76,2.76,0,0,0,1.88-.55,2.44,2.44,0,0,0-.06-3.34,3.21,3.21,0,0,0-2.06-.56h-3.7v-1.18h4a4.57,4.57,0,0,1,2.07.42,2.75,2.75,0,0,1,1.25,1.2,3.79,3.79,0,0,1,.41,1.84,3,3,0,0,1-.25,1.23,2.64,2.64,0,0,1-.78,1,2.9,2.9,0,0,1-1.3.55,2.83,2.83,0,0,1,1.34.55,2.79,2.79,0,0,1,.86,1.09,3.29,3.29,0,0,1,.3,1.4v0a3.55,3.55,0,0,1-.46,1.83,3.1,3.1,0,0,1-1.31,1.22,4.28,4.28,0,0,1-2,.43h-4.13Z"/><path d="M139.46,354.65a2.57,2.57,0,0,1-.87-2.08,2.51,2.51,0,0,1,.8-2,3.34,3.34,0,0,1,2.27-.71h3l.13,1.18h-3.15a2,2,0,0,0-1.36.4,1.39,1.39,0,0,0-.48,1.13,1.36,1.36,0,0,0,.61,1.2,2.92,2.92,0,0,0,1.7.43A5.44,5.44,0,0,0,144,354c.44-.16.66-.38.66-.67l.18,1.2a2.33,2.33,0,0,1-.7.48,3.81,3.81,0,0,1-1,.32,6.36,6.36,0,0,1-1.19.1A3.73,3.73,0,0,1,139.46,354.65Zm5.16-5.17a2.35,2.35,0,0,0-.6-1.72,2.21,2.21,0,0,0-1.68-.61,4,4,0,0,0-1.28.21,3.55,3.55,0,0,0-1.1.6l-.93-.64a3.55,3.55,0,0,1,1.37-1,5,5,0,0,1,1.89-.35,4.31,4.31,0,0,1,1.94.41,2.71,2.71,0,0,1,1.23,1.16,3.7,3.7,0,0,1,.42,1.83v5.86h-1.26Z"/><path d="M148.61,346.14h1.26v9.12h-1.26Zm6.06,3.59a2.6,2.6,0,0,0-.64-1.88,2.37,2.37,0,0,0-1.79-.67,2.41,2.41,0,0,0-1.75.6,2.21,2.21,0,0,0-.62,1.68l-.18-1.76a2.9,2.9,0,0,1,1.28-1.29,4,4,0,0,1,1.85-.41,2.83,2.83,0,0,1,2.3,1,4.15,4.15,0,0,1,.82,2.74v5.54h-1.27Z"/><path d="M158.66,342.48h1.27v12.78h-1.27Zm.91,9.67,5.17-6h1.5l-6.92,7.78Zm2.58-1.83.74-1.2,3.79,6.14h-1.53Z"/><path d="M172.31,346.14h4.11v1.09h-4.11Zm1.45,8.55a2.74,2.74,0,0,1-.51-1.8v-9.41h1.27v9.42a1.35,1.35,0,0,0,.26.91,1,1,0,0,0,.78.32h.86v1.17h-1A2,2,0,0,1,173.76,354.69Z"/><path d="M178.88,346.14h1.27v9.12h-1.27Zm4.67,1.19a3,3,0,0,0-1-.15,2.49,2.49,0,0,0-1.78.61,2.26,2.26,0,0,0-.63,1.7l-.19-1.76a3.62,3.62,0,0,1,3.1-1.73,3.39,3.39,0,0,1,1.13.19,2.47,2.47,0,0,1,.88.53l-.82,1A1.78,1.78,0,0,0,183.55,347.33Z"/><path d="M187,354.65a2.57,2.57,0,0,1-.87-2.08,2.51,2.51,0,0,1,.8-2,3.34,3.34,0,0,1,2.27-.71h3l.13,1.18h-3.15a2,2,0,0,0-1.36.4,1.39,1.39,0,0,0-.48,1.13,1.36,1.36,0,0,0,.61,1.2,2.92,2.92,0,0,0,1.7.43,5.44,5.44,0,0,0,1.82-.24c.44-.16.66-.38.66-.67l.18,1.2a2.33,2.33,0,0,1-.7.48,3.81,3.81,0,0,1-1,.32,6.36,6.36,0,0,1-1.19.1A3.73,3.73,0,0,1,187,354.65Zm5.16-5.17a2.35,2.35,0,0,0-.6-1.72,2.21,2.21,0,0,0-1.68-.61,4,4,0,0,0-1.28.21,3.55,3.55,0,0,0-1.1.6l-.93-.64a3.55,3.55,0,0,1,1.37-1,5,5,0,0,1,1.89-.35,4.31,4.31,0,0,1,1.94.41,2.71,2.71,0,0,1,1.23,1.16,3.7,3.7,0,0,1,.42,1.83v5.86h-1.26Z"/><path d="M196.15,346.14h1.26v9.12h-1.26Zm6.06,3.59a2.6,2.6,0,0,0-.64-1.88,2.37,2.37,0,0,0-1.79-.67,2.41,2.41,0,0,0-1.75.6,2.21,2.21,0,0,0-.62,1.68l-.18-1.76a2.9,2.9,0,0,1,1.28-1.29,4,4,0,0,1,1.85-.41,2.83,2.83,0,0,1,2.3,1,4.15,4.15,0,0,1,.82,2.74v5.54h-1.27Z"/><path d="M207.91,355.25a5.84,5.84,0,0,1-1.3-.43,4.65,4.65,0,0,1-1.07-.68l.73-.88a6.59,6.59,0,0,0,1.55.77,4.5,4.5,0,0,0,1.52.28,3.78,3.78,0,0,0,2-.45,1.41,1.41,0,0,0,.72-1.26,1.13,1.13,0,0,0-.35-.9,1.84,1.84,0,0,0-.87-.4,13.31,13.31,0,0,0-1.47-.18h-.18l-.18,0h-.14a7.56,7.56,0,0,1-1.51-.26,1.92,1.92,0,0,1-1.43-2.06,2.59,2.59,0,0,1,.43-1.49,2.65,2.65,0,0,1,1.25-.94,5.27,5.27,0,0,1,2-.33,6.11,6.11,0,0,1,1.2.12,6,6,0,0,1,1.14.35,5.1,5.1,0,0,1,1,.54l-.73.87a5.77,5.77,0,0,0-1.35-.59,5,5,0,0,0-1.32-.2,3.16,3.16,0,0,0-1.79.43,1.37,1.37,0,0,0-.63,1.21,1,1,0,0,0,.34.81,1.91,1.91,0,0,0,.87.36c.35.06.83.1,1.44.14H210a7.78,7.78,0,0,1,1.63.23,2.25,2.25,0,0,1,1.13.73,2.38,2.38,0,0,1,.46,1.58,2.46,2.46,0,0,1-.46,1.51,2.86,2.86,0,0,1-1.33.95,6.09,6.09,0,0,1-2.12.33A7.46,7.46,0,0,1,207.91,355.25Z"/><path d="M214.83,346.14h4.56v1.09h-4.56Zm1-1.24a2.71,2.71,0,0,1,.52-1.82,2,2,0,0,1,1.58-.6h1.49v1.18h-1.28a1,1,0,0,0-.79.3,1.4,1.4,0,0,0-.26.92v10.38H215.8Z"/><path d="M222.55,354.91a3.17,3.17,0,0,1-1.37-1.39,4.88,4.88,0,0,1-.47-2.22v-1a5.42,5.42,0,0,1,.45-2.32,3.27,3.27,0,0,1,1.32-1.45,4,4,0,0,1,2.07-.51,3.67,3.67,0,0,1,1.95.5,3.17,3.17,0,0,1,1.24,1.43,5.59,5.59,0,0,1,.42,2.28v1h-6.59v-1.14H227V350a3.13,3.13,0,0,0-.64-2.09,2.23,2.23,0,0,0-1.8-.75,2.51,2.51,0,0,0-2,.78,3.26,3.26,0,0,0-.69,2.22v1.16a2.87,2.87,0,0,0,.74,2.12,2.78,2.78,0,0,0,2.08.75A3.08,3.08,0,0,0,226,354a3.46,3.46,0,0,0,1.11-.75l.86.83a5.06,5.06,0,0,1-1.51,1,4.74,4.74,0,0,1-3.87-.13Z"/><path d="M230.62,346.14h1.27v9.12h-1.27Zm4.67,1.19a3,3,0,0,0-1-.15,2.51,2.51,0,0,0-1.78.61,2.26,2.26,0,0,0-.63,1.7l-.18-1.76a3.47,3.47,0,0,1,1.31-1.27,3.63,3.63,0,0,1,1.78-.46,3.35,3.35,0,0,1,1.13.19,2.38,2.38,0,0,1,.88.53l-.81,1A1.9,1.9,0,0,0,235.29,347.33Z"/><circle class="cls-10" cx="98" cy="350" r="12"/><rect class="cls-11" x="69" y="390" width="400" height="48" rx="8"/><path d="M127.58,406.48h1.27v12.78h-1.27Zm.92,6.64h4.09a2.5,2.5,0,0,0,1.32-.34,2.27,2.27,0,0,0,.88-1,3.06,3.06,0,0,0,.32-1.42,3.18,3.18,0,0,0-.32-1.44,2.27,2.27,0,0,0-.88-1,2.5,2.5,0,0,0-1.32-.34H128.5v-1.18h4a4,4,0,0,1,2,.49,3.36,3.36,0,0,1,1.35,1.37,4.29,4.29,0,0,1,.48,2.06,4.18,4.18,0,0,1-.48,2,3.45,3.45,0,0,1-1.35,1.38,4.09,4.09,0,0,1-2,.48h-4Z"/><path d="M138.61,418.65a2.57,2.57,0,0,1-.88-2.08,2.51,2.51,0,0,1,.81-2,3.32,3.32,0,0,1,2.27-.71h3L144,415h-3.14a2,2,0,0,0-1.36.4,1.53,1.53,0,0,0,.12,2.33,2.94,2.94,0,0,0,1.7.43,5.46,5.46,0,0,0,1.83-.24c.44-.16.65-.38.65-.67l.19,1.2a2.47,2.47,0,0,1-.7.48,3.89,3.89,0,0,1-1,.32,6.25,6.25,0,0,1-1.18.1A3.71,3.71,0,0,1,138.61,418.65Zm5.15-5.17a2.39,2.39,0,0,0-.59-1.72,2.24,2.24,0,0,0-1.68-.61,4,4,0,0,0-1.28.21,3.72,3.72,0,0,0-1.11.6l-.92-.64a3.48,3.48,0,0,1,1.37-1,4.92,4.92,0,0,1,1.88-.35,4.32,4.32,0,0,1,1.95.41,2.71,2.71,0,0,1,1.23,1.16,3.7,3.7,0,0,1,.42,1.83v5.86h-1.27Z"/><path d="M146.52,410.14h1.3l3,8.46-.66,1.41Zm8.08,0-3.89,11.26a2.62,2.62,0,0,1-.55,1,2,2,0,0,1-.84.53,4.37,4.37,0,0,1-1.23.16h-.36v-1.2h.36a1.82,1.82,0,0,0,1.12-.32,2.44,2.44,0,0,0,.71-1.1l3.38-10.31Z"/><path d="M161,406.48h1.26v12.78H161ZM163.25,419a2.26,2.26,0,0,1-1.09-1.2l.12-1.91a2.6,2.6,0,0,0,.28,1.15,2.38,2.38,0,0,0,.81.89,2.19,2.19,0,0,0,1.23.34,2.27,2.27,0,0,0,1.77-.68,2.74,2.74,0,0,0,.62-1.91v-2a2.81,2.81,0,0,0-.62-1.94,2.51,2.51,0,0,0-3-.36,2.36,2.36,0,0,0-.81.88,2.48,2.48,0,0,0-.28,1.12l-.18-1.76a2.82,2.82,0,0,1,1.26-1.27,4,4,0,0,1,1.83-.4,3.07,3.07,0,0,1,1.66.44,2.71,2.71,0,0,1,1.05,1.27,5.08,5.08,0,0,1,.36,2v2a5,5,0,0,1-.37,2,2.79,2.79,0,0,1-1.08,1.26,3.24,3.24,0,0,1-1.71.43A4.24,4.24,0,0,1,163.25,419Z"/><path d="M169.49,410.14h1.3l3,8.46-.66,1.41Zm8.08,0-3.89,11.26a2.62,2.62,0,0,1-.55,1,1.92,1.92,0,0,1-.85.53,4.27,4.27,0,0,1-1.23.16h-.36v-1.2h.36a1.8,1.8,0,0,0,1.12-.32,2.44,2.44,0,0,0,.72-1.1l3.37-10.31Z"/><path d="M185.47,419a2.82,2.82,0,0,1-1.32-1.32,4.93,4.93,0,0,1-.43-2.2v-1.51a4.69,4.69,0,0,1,.44-2.17,2.87,2.87,0,0,1,1.31-1.31,4.91,4.91,0,0,1,2.19-.44,5.3,5.3,0,0,1,1.37.17,3.72,3.72,0,0,1,1.09.48,3.44,3.44,0,0,1,.85.81l-.94.84a3,3,0,0,0-1.05-.84,3,3,0,0,0-1.29-.28,2.73,2.73,0,0,0-2,.68,2.83,2.83,0,0,0-.68,2.06v1.51a2.89,2.89,0,0,0,.68,2.09,2.73,2.73,0,0,0,2,.69,3.33,3.33,0,0,0,1.36-.26,3.24,3.24,0,0,0,1.1-.8l.82.81a3.23,3.23,0,0,1-.85.8,3.46,3.46,0,0,1-1.09.47,5.31,5.31,0,0,1-1.37.16A4.77,4.77,0,0,1,185.47,419Z"/><path d="M193,410.14h1.26v9.12H193Zm4.66,1.19a3,3,0,0,0-1-.15,2.51,2.51,0,0,0-1.78.61,2.26,2.26,0,0,0-.63,1.7l-.18-1.76a3.47,3.47,0,0,1,1.31-1.27,3.63,3.63,0,0,1,1.78-.46,3.35,3.35,0,0,1,1.13.19,2.38,2.38,0,0,1,.88.53l-.81,1A1.9,1.9,0,0,0,197.61,411.33Z"/><path d="M202,418.91a3.17,3.17,0,0,1-1.37-1.39,4.88,4.88,0,0,1-.47-2.22v-1a5.42,5.42,0,0,1,.45-2.32,3.21,3.21,0,0,1,1.32-1.45A4,4,0,0,1,204,410a3.67,3.67,0,0,1,1.95.5,3.17,3.17,0,0,1,1.24,1.43,5.59,5.59,0,0,1,.42,2.28v1h-6.59v-1.14h5.41V414a3.12,3.12,0,0,0-.63-2.09,2.25,2.25,0,0,0-1.8-.75,2.5,2.5,0,0,0-2,.78,3.26,3.26,0,0,0-.69,2.22v1.16a2.9,2.9,0,0,0,.73,2.12,2.81,2.81,0,0,0,2.09.75,3.08,3.08,0,0,0,1.25-.26,3.42,3.42,0,0,0,1.1-.75l.86.83a4.82,4.82,0,0,1-1.51,1,4.72,4.72,0,0,1-3.86-.13Z"/><path d="M211.29,419a2.68,2.68,0,0,1-1.08-1.26,4.84,4.84,0,0,1-.37-2v-2a5.08,5.08,0,0,1,.36-2,2.71,2.71,0,0,1,1.05-1.27,3,3,0,0,1,1.66-.44,4.11,4.11,0,0,1,1.83.4,2.92,2.92,0,0,1,1.26,1.27l-.18,1.76a2.49,2.49,0,0,0-.28-1.13,2.18,2.18,0,0,0-.81-.87,2.51,2.51,0,0,0-3,.36,2.76,2.76,0,0,0-.63,1.94v2a2.7,2.7,0,0,0,.63,1.91,2.54,2.54,0,0,0,3,.34,2.28,2.28,0,0,0,.8-.89,2.48,2.48,0,0,0,.29-1.15l.12,1.91a2.26,2.26,0,0,1-1.09,1.2,4.28,4.28,0,0,1-1.86.36A3.18,3.18,0,0,1,211.29,419Zm4.53-12.48h1.26v12.78h-1.26Z"/><path d="M220.07,406.48h1.26v1.27h-1.26Zm0,3.66h1.26v9.12h-1.26Z"/><path d="M223.62,410.14h4.11v1.09h-4.11Zm1.45,8.55a2.74,2.74,0,0,1-.51-1.8v-9.41h1.27v9.42a1.35,1.35,0,0,0,.26.91,1,1,0,0,0,.78.32h.86v1.17h-1A2,2,0,0,1,225.07,418.69Z"/><path d="M236.51,419a2.84,2.84,0,0,1-1.31-1.32,4.92,4.92,0,0,1-.44-2.2v-1.51a4.82,4.82,0,0,1,.44-2.17,2.94,2.94,0,0,1,1.32-1.31,4.88,4.88,0,0,1,2.19-.44,5.22,5.22,0,0,1,1.36.17,3.78,3.78,0,0,1,1.1.48,3.63,3.63,0,0,1,.85.81l-.94.84a3.08,3.08,0,0,0-1.06-.84,3,3,0,0,0-1.28-.28,2.77,2.77,0,0,0-2,.68,2.82,2.82,0,0,0-.67,2.06v1.51a2.89,2.89,0,0,0,.68,2.09,2.71,2.71,0,0,0,2,.69,3.15,3.15,0,0,0,2.46-1.06l.82.81a3.39,3.39,0,0,1-.85.8,3.52,3.52,0,0,1-1.1.47,5.23,5.23,0,0,1-1.36.16A4.82,4.82,0,0,1,236.51,419Z"/><path d="M244.43,418.65a2.57,2.57,0,0,1-.88-2.08,2.51,2.51,0,0,1,.81-2,3.32,3.32,0,0,1,2.27-.71h3l.13,1.18h-3.15a2,2,0,0,0-1.36.4,1.53,1.53,0,0,0,.12,2.33,3,3,0,0,0,1.7.43,5.46,5.46,0,0,0,1.83-.24c.44-.16.65-.38.65-.67l.19,1.2a2.47,2.47,0,0,1-.7.48,3.89,3.89,0,0,1-1,.32,6.25,6.25,0,0,1-1.18.1A3.71,3.71,0,0,1,244.43,418.65Zm5.15-5.17a2.35,2.35,0,0,0-.59-1.72,2.24,2.24,0,0,0-1.68-.61,4,4,0,0,0-1.28.21,3.72,3.72,0,0,0-1.11.6l-.92-.64a3.48,3.48,0,0,1,1.37-1,4.92,4.92,0,0,1,1.88-.35,4.32,4.32,0,0,1,1.95.41,2.71,2.71,0,0,1,1.23,1.16,3.7,3.7,0,0,1,.42,1.83v5.86h-1.27Z"/><path d="M253.57,410.14h1.27v9.12h-1.27Zm4.67,1.19a3,3,0,0,0-1-.15,2.49,2.49,0,0,0-1.78.61,2.26,2.26,0,0,0-.63,1.7l-.19-1.76a3.62,3.62,0,0,1,3.1-1.73,3.39,3.39,0,0,1,1.13.19,2.47,2.47,0,0,1,.88.53l-.82,1A1.78,1.78,0,0,0,258.24,411.33Z"/><path d="M262.27,419a2.75,2.75,0,0,1-1.09-1.26,5,5,0,0,1-.36-2v-2a5.08,5.08,0,0,1,.36-2,2.71,2.71,0,0,1,1.05-1.27,3,3,0,0,1,1.65-.44,4.12,4.12,0,0,1,1.84.4,2.92,2.92,0,0,1,1.26,1.27l-.19,1.76a2.47,2.47,0,0,0-.27-1.13,2.43,2.43,0,0,0-3.81-.51,2.76,2.76,0,0,0-.63,1.94v2a2.7,2.7,0,0,0,.63,1.91,2.23,2.23,0,0,0,1.76.68,2.19,2.19,0,0,0,1.23-.34,2.38,2.38,0,0,0,.81-.89,2.47,2.47,0,0,0,.28-1.15l.13,1.91a2.3,2.3,0,0,1-1.09,1.2,4.28,4.28,0,0,1-1.86.36A3.18,3.18,0,0,1,262.27,419Zm4.52-12.48h1.27v12.78h-1.27Z"/><circle class="cls-12" cx="98" cy="414" r="12"/><path class="cls-13" d="M110,350a12,12,0,1,1-12-12A12,12,0,0,1,110,350Zm-13.39,6.35,8.91-8.9a.77.77,0,0,0,0-1.09l-1.1-1.1a.77.77,0,0,0-1.09,0l-7.27,7.26-3.39-3.39a.77.77,0,0,0-1.09,0l-1.1,1.1a.77.77,0,0,0,0,1.09l5,5a.76.76,0,0,0,1.09,0Z"/><path d="M57.06,482.79a7.83,7.83,0,0,1-1.77-.59,6.82,6.82,0,0,1-1.51-1L55,479.37a5.9,5.9,0,0,0,1.84,1.05,6.45,6.45,0,0,0,2.17.35,4.16,4.16,0,0,0,2.21-.5,1.62,1.62,0,0,0,.78-1.44h0a1.46,1.46,0,0,0-.35-1,2,2,0,0,0-.92-.57,10.68,10.68,0,0,0-1.45-.33h-.12l-.17,0a14.07,14.07,0,0,1-2.35-.56,3.36,3.36,0,0,1-1.56-1.15,3.75,3.75,0,0,1-.64-2.35h0a4.27,4.27,0,0,1,.6-2.31A3.74,3.74,0,0,1,56.82,469a7,7,0,0,1,2.77-.5,7.25,7.25,0,0,1,1.53.17,7.55,7.55,0,0,1,1.5.5,8.46,8.46,0,0,1,1.43.81l-1.13,1.93a6.6,6.6,0,0,0-1.67-.89,4.94,4.94,0,0,0-1.66-.3,3.7,3.7,0,0,0-2.08.49,1.58,1.58,0,0,0-.74,1.39h0a1.46,1.46,0,0,0,.38,1.06,2.34,2.34,0,0,0,1,.58,14.87,14.87,0,0,0,1.6.38l.07,0h.08l.1,0,.11,0a12.63,12.63,0,0,1,2.2.63,3.44,3.44,0,0,1,1.48,1.2,3.69,3.69,0,0,1,.6,2.23v0a4,4,0,0,1-.63,2.28,3.87,3.87,0,0,1-1.81,1.44A7.49,7.49,0,0,1,59,483,9.68,9.68,0,0,1,57.06,482.79Z"/><path d="M68.58,482.46A3.57,3.57,0,0,1,67,480.92a5.36,5.36,0,0,1-.53-2.47v-1.14a5.89,5.89,0,0,1,.51-2.57,3.61,3.61,0,0,1,1.49-1.62,4.74,4.74,0,0,1,2.36-.56,3.76,3.76,0,0,1,2.22.65,4,4,0,0,1,1.41,1.88,8.18,8.18,0,0,1,.48,3v.66H68.08V477h4.71v-.1a3,3,0,0,0-.6-1.65,1.67,1.67,0,0,0-1.34-.59,2,2,0,0,0-1.63.66,2.77,2.77,0,0,0-.58,1.87v1.29a2.36,2.36,0,0,0,.63,1.77,2.4,2.4,0,0,0,1.76.62,3.08,3.08,0,0,0,1.14-.22,3.37,3.37,0,0,0,1-.61l1.52,1.43A5.78,5.78,0,0,1,73,482.6a5.49,5.49,0,0,1-4.39-.14Z"/><path d="M79.84,479.87a.85.85,0,0,0,.18.57.71.71,0,0,0,.53.2h.69v2.23H80a2.34,2.34,0,0,1-1.82-.7,2.83,2.83,0,0,1-.65-2V468.65h2.34Z"/><path d="M85.09,482.46a3.55,3.55,0,0,1-1.55-1.54,5.24,5.24,0,0,1-.54-2.47v-1.14a5.89,5.89,0,0,1,.51-2.57,3.58,3.58,0,0,1,1.5-1.62,4.71,4.71,0,0,1,2.36-.56,3.8,3.8,0,0,1,2.22.65,4,4,0,0,1,1.4,1.88,8,8,0,0,1,.49,3v.66H84.59V477h4.72v-.1a2.88,2.88,0,0,0-.6-1.65,1.65,1.65,0,0,0-1.33-.59,2.07,2.07,0,0,0-1.64.66,2.77,2.77,0,0,0-.57,1.87v1.29a2.16,2.16,0,0,0,2.38,2.39,3,3,0,0,0,1.14-.22,3.37,3.37,0,0,0,1-.61l1.52,1.43a5.78,5.78,0,0,1-1.73,1.12,5.49,5.49,0,0,1-4.39-.14Z"/><path d="M95.78,482.46a3.58,3.58,0,0,1-1.53-1.55,5.36,5.36,0,0,1-.53-2.47v-1.38a5.19,5.19,0,0,1,.53-2.43,3.5,3.5,0,0,1,1.53-1.54,5.19,5.19,0,0,1,2.43-.53,5.76,5.76,0,0,1,1.52.19,4.69,4.69,0,0,1,1.29.55,3.49,3.49,0,0,1,1,.88l-1.58,1.49a2.74,2.74,0,0,0-.93-.65,2.92,2.92,0,0,0-1.13-.22,2.06,2.06,0,0,0-2.27,2.26v1.38a2.31,2.31,0,0,0,.59,1.71,2.24,2.24,0,0,0,1.68.6,2.7,2.7,0,0,0,1.13-.24,2.63,2.63,0,0,0,.93-.69L102,481.4a3.45,3.45,0,0,1-1,.86,4.69,4.69,0,0,1-1.29.55,6.13,6.13,0,0,1-1.51.18A5.19,5.19,0,0,1,95.78,482.46Z"/><path d="M103.2,472.71H108v2H103.2Zm1.64,9.5a2.93,2.93,0,0,1-.6-2V469.76h2.33v10.13a1,1,0,0,0,.15.57.51.51,0,0,0,.43.2H108v2.23h-1.25A2.33,2.33,0,0,1,104.84,482.21Z"/><path d="M120,468.65h1.7l5.33,14.19h-2.51l-3.67-10.57-3.67,10.57H114.7Zm-2.82,9.26h7.47v2.24h-7.47Z"/><path d="M130.59,482.46a3.66,3.66,0,0,1-1.54-1.55,5.36,5.36,0,0,1-.52-2.47v-1.38a5.19,5.19,0,0,1,.52-2.43,3.58,3.58,0,0,1,1.54-1.54,5.18,5.18,0,0,1,2.42-.53,5.83,5.83,0,0,1,1.53.19,4.69,4.69,0,0,1,1.29.55,3.49,3.49,0,0,1,.95.88l-1.58,1.49a2.78,2.78,0,0,0-.94-.65,2.87,2.87,0,0,0-1.12-.22,2.07,2.07,0,0,0-2.28,2.26v1.38a2.35,2.35,0,0,0,.59,1.71,2.28,2.28,0,0,0,1.69.6,2.76,2.76,0,0,0,1.13-.24,2.63,2.63,0,0,0,.93-.69l1.58,1.58a3.45,3.45,0,0,1-1,.86,4.69,4.69,0,0,1-1.29.55A6.27,6.27,0,0,1,133,483,5.18,5.18,0,0,1,130.59,482.46Z"/><path d="M140.55,482.46a3.58,3.58,0,0,1-1.53-1.55,5.24,5.24,0,0,1-.53-2.47v-1.38a5.07,5.07,0,0,1,.53-2.43,3.5,3.5,0,0,1,1.53-1.54,5.18,5.18,0,0,1,2.42-.53,5.83,5.83,0,0,1,1.53.19,4.69,4.69,0,0,1,1.29.55,3.49,3.49,0,0,1,1,.88l-1.58,1.49a2.78,2.78,0,0,0-.94-.65,2.87,2.87,0,0,0-1.12-.22,2.07,2.07,0,0,0-2.28,2.26v1.38a2.35,2.35,0,0,0,.59,1.71,2.28,2.28,0,0,0,1.69.6,2.76,2.76,0,0,0,1.13-.24,2.63,2.63,0,0,0,.93-.69l1.58,1.58a3.45,3.45,0,0,1-1,.86,4.69,4.69,0,0,1-1.29.55A6.27,6.27,0,0,1,143,483,5.18,5.18,0,0,1,140.55,482.46Z"/><path d="M150.42,482.47A3.46,3.46,0,0,1,149,481a5.26,5.26,0,0,1-.5-2.38v-1.65a5.17,5.17,0,0,1,.5-2.36,3.49,3.49,0,0,1,1.47-1.5,5.49,5.49,0,0,1,4.62,0,3.41,3.41,0,0,1,1.46,1.5,5,5,0,0,1,.5,2.36v1.68a5,5,0,0,1-.5,2.36,3.36,3.36,0,0,1-1.46,1.5,5.39,5.39,0,0,1-4.62,0Zm3.74-2.28a2.26,2.26,0,0,0,.51-1.58v-1.68a2.27,2.27,0,0,0-.51-1.58,1.83,1.83,0,0,0-1.43-.55,1.85,1.85,0,0,0-1.44.55,2.27,2.27,0,0,0-.51,1.58v1.68a2.26,2.26,0,0,0,.51,1.58,2.12,2.12,0,0,0,2.87,0Z"/><path d="M161.73,478.87a1.91,1.91,0,0,0,.48,1.39,2.13,2.13,0,0,0,2.68,0,1.76,1.76,0,0,0,.47-1.33l.14,2.17a3,3,0,0,1-1,1.32,2.59,2.59,0,0,1-1.67.54,3.15,3.15,0,0,1-2.55-1.06,4.54,4.54,0,0,1-.9-3v-6.21h2.33Zm3.63-6.16h2.33v10.13h-2.33Z"/><path d="M170.52,472.71h2.33v10.13h-2.33Zm6,4a1.94,1.94,0,0,0-.49-1.4,1.84,1.84,0,0,0-1.39-.5,1.81,1.81,0,0,0-1.33.46,1.79,1.79,0,0,0-.47,1.32l-.2-2.1a3.57,3.57,0,0,1,1.16-1.43,2.74,2.74,0,0,1,1.64-.49,3.1,3.1,0,0,1,2.52,1.08,4.7,4.7,0,0,1,.89,3.05v6.15h-2.33Z"/><path d="M180.91,472.71h4.77v2h-4.77Zm1.64,9.5a2.93,2.93,0,0,1-.59-2V469.76h2.33v10.13a1,1,0,0,0,.15.57.5.5,0,0,0,.43.2h.81v2.23h-1.25A2.35,2.35,0,0,1,182.55,482.21Z"/><rect class="cls-14" x="69" y="502" width="401" height="48" rx="8"/><path d="M87.89,531a2.84,2.84,0,0,1-1.31-1.32,4.92,4.92,0,0,1-.44-2.2v-1.51a4.82,4.82,0,0,1,.44-2.17,2.89,2.89,0,0,1,1.32-1.31,4.88,4.88,0,0,1,2.19-.44,5.22,5.22,0,0,1,1.36.17,3.78,3.78,0,0,1,1.1.48,3.58,3.58,0,0,1,.84.81l-.94.84a3,3,0,0,0-1-.84,3,3,0,0,0-1.28-.28,2.77,2.77,0,0,0-2,.68,2.82,2.82,0,0,0-.67,2.06v1.51a2.89,2.89,0,0,0,.67,2.09,2.75,2.75,0,0,0,2,.69,3.18,3.18,0,0,0,2.46-1.06l.81.81a3.35,3.35,0,0,1-.84.8,3.52,3.52,0,0,1-1.1.47,5.23,5.23,0,0,1-1.36.16A4.82,4.82,0,0,1,87.89,531Z"/><path d="M95.37,518.48h1.27v12.78H95.37Zm6.07,7.25a2.64,2.64,0,0,0-.64-1.88,2.79,2.79,0,0,0-3.54-.07,2.17,2.17,0,0,0-.62,1.68l-.19-1.76a2.87,2.87,0,0,1,1.29-1.29,4,4,0,0,1,1.85-.41,2.83,2.83,0,0,1,2.3,1,4.15,4.15,0,0,1,.81,2.74v5.54h-1.26Z"/><path d="M105.87,530.65a2.54,2.54,0,0,1-.88-2.08,2.51,2.51,0,0,1,.8-2,3.34,3.34,0,0,1,2.27-.71h3l.13,1.18h-3.15a2.06,2.06,0,0,0-1.36.4,1.52,1.52,0,0,0,.13,2.33,2.92,2.92,0,0,0,1.7.43,5.54,5.54,0,0,0,1.83-.24c.43-.16.65-.38.65-.67l.18,1.2a2.33,2.33,0,0,1-.7.48,3.81,3.81,0,0,1-1,.32,6.36,6.36,0,0,1-1.19.1A3.68,3.68,0,0,1,105.87,530.65Zm5.15-5.17a2.35,2.35,0,0,0-.6-1.72,2.21,2.21,0,0,0-1.68-.61,4,4,0,0,0-1.28.21,3.55,3.55,0,0,0-1.1.6l-.93-.64a3.55,3.55,0,0,1,1.37-1,5,5,0,0,1,1.89-.35,4.31,4.31,0,0,1,1.94.41,2.71,2.71,0,0,1,1.23,1.16,3.7,3.7,0,0,1,.42,1.83v5.86H111Z"/><path d="M116.71,531.25a6.2,6.2,0,0,1-1.3-.43,4.58,4.58,0,0,1-1.06-.68l.73-.88a6.53,6.53,0,0,0,1.54.77,4.55,4.55,0,0,0,1.52.28,3.82,3.82,0,0,0,2-.45,1.41,1.41,0,0,0,.72-1.26,1.13,1.13,0,0,0-.35-.9,1.84,1.84,0,0,0-.88-.4,13.4,13.4,0,0,0-1.46-.18H118l-.18,0h-.14a7.67,7.67,0,0,1-1.52-.26,2.08,2.08,0,0,1-1-.66,2.13,2.13,0,0,1-.41-1.4,2.52,2.52,0,0,1,.43-1.49,2.67,2.67,0,0,1,1.24-.94,5.33,5.33,0,0,1,2-.33,6,6,0,0,1,1.19.12,6.38,6.38,0,0,1,1.15.35,5.4,5.4,0,0,1,1,.54l-.73.87a6,6,0,0,0-1.36-.59,5,5,0,0,0-1.32-.2,3.12,3.12,0,0,0-1.78.43,1.37,1.37,0,0,0-.63,1.21,1,1,0,0,0,.34.81,1.91,1.91,0,0,0,.87.36c.34.06.82.1,1.43.14h.26a7.78,7.78,0,0,1,1.63.23,2.29,2.29,0,0,1,1.13.73,2.44,2.44,0,0,1,.45,1.58,2.52,2.52,0,0,1-.45,1.51,2.89,2.89,0,0,1-1.34.95,6,6,0,0,1-2.12.33A7.46,7.46,0,0,1,116.71,531.25Z"/><path d="M125.91,530.91a3.2,3.2,0,0,1-1.36-1.39,4.76,4.76,0,0,1-.47-2.22v-1a5.42,5.42,0,0,1,.45-2.32,3.25,3.25,0,0,1,1.31-1.45,4,4,0,0,1,2.08-.51,3.67,3.67,0,0,1,2,.5,3.09,3.09,0,0,1,1.23,1.43,5.43,5.43,0,0,1,.43,2.28v1h-6.59v-1.14h5.41V526a3.07,3.07,0,0,0-.64-2.09,2.21,2.21,0,0,0-1.79-.75,2.5,2.5,0,0,0-2,.78,3.26,3.26,0,0,0-.7,2.22v1.16a2.91,2.91,0,0,0,.74,2.12,2.8,2.8,0,0,0,2.09.75,3.11,3.11,0,0,0,1.25-.26,3.42,3.42,0,0,0,1.1-.75l.86.83a4.94,4.94,0,0,1-1.51,1,4.46,4.46,0,0,1-1.7.35A4.55,4.55,0,0,1,125.91,530.91Z"/><path d="M139.9,526.09v1.18H134v-1.18Z"/><path d="M149,530.91a3.23,3.23,0,0,1-1.37-1.39,4.88,4.88,0,0,1-.47-2.22v-1a5.42,5.42,0,0,1,.45-2.32,3.27,3.27,0,0,1,1.32-1.45A4,4,0,0,1,151,522a3.67,3.67,0,0,1,1.95.5,3.17,3.17,0,0,1,1.24,1.43,5.59,5.59,0,0,1,.42,2.28v1h-6.59v-1.14h5.42V526a3.13,3.13,0,0,0-.64-2.09,2.23,2.23,0,0,0-1.8-.75,2.51,2.51,0,0,0-2,.78,3.26,3.26,0,0,0-.69,2.22v1.16a2.91,2.91,0,0,0,.74,2.12,2.78,2.78,0,0,0,2.08.75,3.08,3.08,0,0,0,1.25-.26,3.46,3.46,0,0,0,1.11-.75l.86.83a5.06,5.06,0,0,1-1.51,1,4.74,4.74,0,0,1-3.87-.13Z"/><path d="M157.11,522.14h1.26v9.12h-1.26Zm6.06,3.59a2.6,2.6,0,0,0-.64-1.88,2.37,2.37,0,0,0-1.79-.67,2.41,2.41,0,0,0-1.75.6,2.21,2.21,0,0,0-.62,1.68l-.18-1.76a2.9,2.9,0,0,1,1.28-1.29,4,4,0,0,1,1.85-.41,2.83,2.83,0,0,1,2.3,1,4.15,4.15,0,0,1,.82,2.74v5.54h-1.27Z"/><path d="M166.46,522.14h4.11v1.09h-4.11Zm1.45,8.55a2.74,2.74,0,0,1-.51-1.8v-9.41h1.26v9.42a1.35,1.35,0,0,0,.27.91,1,1,0,0,0,.78.32h.86v1.17h-1A2,2,0,0,1,167.91,530.69Z"/><path d="M174.6,530.91a3.2,3.2,0,0,1-1.36-1.39,4.76,4.76,0,0,1-.47-2.22v-1a5.42,5.42,0,0,1,.45-2.32,3.25,3.25,0,0,1,1.31-1.45,4,4,0,0,1,2.08-.51,3.67,3.67,0,0,1,1.95.5,3.09,3.09,0,0,1,1.23,1.43,5.43,5.43,0,0,1,.43,2.28v1h-6.59v-1.14H179V526a3.12,3.12,0,0,0-.63-2.09,2.25,2.25,0,0,0-1.8-.75,2.5,2.5,0,0,0-2,.78,3.26,3.26,0,0,0-.69,2.22v1.16a2.9,2.9,0,0,0,.73,2.12,2.81,2.81,0,0,0,2.09.75A3.08,3.08,0,0,0,178,530a3.42,3.42,0,0,0,1.1-.75l.86.83a4.94,4.94,0,0,1-1.51,1,4.46,4.46,0,0,1-1.7.35A4.55,4.55,0,0,1,174.6,530.91Z"/><path d="M182.68,522.14H184v9.12h-1.27Zm4.66,1.19a2.93,2.93,0,0,0-1-.15,2.48,2.48,0,0,0-1.78.61,2.26,2.26,0,0,0-.63,1.7l-.19-1.76a3.49,3.49,0,0,1,1.32-1.27,3.6,3.6,0,0,1,1.78-.46,3.39,3.39,0,0,1,1.13.19,2.47,2.47,0,0,1,.88.53l-.82,1A1.82,1.82,0,0,0,187.34,523.33Z"/><path d="M189.66,522.14h4.11v1.09h-4.11Zm1.45,8.55a2.74,2.74,0,0,1-.51-1.8v-9.41h1.27v9.42a1.35,1.35,0,0,0,.26.91,1,1,0,0,0,.78.32h.86v1.17h-1A2,2,0,0,1,191.11,530.69Z"/><path d="M196.67,530.65a2.57,2.57,0,0,1-.88-2.08,2.51,2.51,0,0,1,.81-2,3.34,3.34,0,0,1,2.27-.71h3L202,527h-3.15a2,2,0,0,0-1.36.4,1.39,1.39,0,0,0-.48,1.13,1.36,1.36,0,0,0,.61,1.2,2.92,2.92,0,0,0,1.7.43,5.44,5.44,0,0,0,1.82-.24c.44-.16.65-.38.65-.67l.19,1.2a2.47,2.47,0,0,1-.7.48,3.76,3.76,0,0,1-1,.32,6.25,6.25,0,0,1-1.18.1A3.73,3.73,0,0,1,196.67,530.65Zm5.15-5.17a2.35,2.35,0,0,0-.59-1.72,2.22,2.22,0,0,0-1.68-.61,4,4,0,0,0-1.28.21,3.55,3.55,0,0,0-1.1.6l-.93-.64a3.48,3.48,0,0,1,1.37-1,5,5,0,0,1,1.89-.35,4.31,4.31,0,0,1,1.94.41,2.71,2.71,0,0,1,1.23,1.16,3.7,3.7,0,0,1,.42,1.83v5.86h-1.27Z"/><path d="M206.08,518.48h1.26v1.27h-1.26Zm0,3.66h1.26v9.12h-1.26Z"/><path d="M210.33,522.14h1.27v9.12h-1.27Zm6.07,3.59a2.64,2.64,0,0,0-.64-1.88,2.79,2.79,0,0,0-3.54-.07,2.17,2.17,0,0,0-.62,1.68l-.19-1.76a2.92,2.92,0,0,1,1.29-1.29,4,4,0,0,1,1.85-.41,2.83,2.83,0,0,1,2.3,1,4.15,4.15,0,0,1,.81,2.74v5.54H216.4Z"/><path d="M220.39,522.14h1.26v9.12h-1.26Zm5.71,3.59a2.77,2.77,0,0,0-.58-1.88,2.06,2.06,0,0,0-1.64-.67,2.16,2.16,0,0,0-1.64.61,2.33,2.33,0,0,0-.59,1.7l-.18-1.76a2.92,2.92,0,0,1,1.19-1.32,3.57,3.57,0,0,1,1.73-.41,2.92,2.92,0,0,1,1.61.44,2.66,2.66,0,0,1,1,1.27,5.28,5.28,0,0,1,.35,2v5.54H226.1Zm5.71,0a2.77,2.77,0,0,0-.58-1.88,2.05,2.05,0,0,0-1.63-.67,2.12,2.12,0,0,0-1.65.65,2.66,2.66,0,0,0-.58,1.83l-.54-1.32a3.9,3.9,0,0,1,1.22-1.73,3,3,0,0,1,1.88-.61,3.19,3.19,0,0,1,1.7.44,2.77,2.77,0,0,1,1.08,1.27,4.91,4.91,0,0,1,.37,2v5.54h-1.27Z"/><path d="M237.38,530.91a3.17,3.17,0,0,1-1.37-1.39,4.88,4.88,0,0,1-.47-2.22v-1A5.42,5.42,0,0,1,236,524a3.21,3.21,0,0,1,1.32-1.45,4,4,0,0,1,2.07-.51,3.67,3.67,0,0,1,2,.5,3.17,3.17,0,0,1,1.24,1.43,5.59,5.59,0,0,1,.42,2.28v1H236.4v-1.14h5.41V526a3.12,3.12,0,0,0-.63-2.09,2.25,2.25,0,0,0-1.8-.75,2.5,2.5,0,0,0-2,.78,3.26,3.26,0,0,0-.69,2.22v1.16a2.87,2.87,0,0,0,.74,2.12,2.78,2.78,0,0,0,2.08.75,3.08,3.08,0,0,0,1.25-.26,3.42,3.42,0,0,0,1.1-.75l.86.83a4.82,4.82,0,0,1-1.51,1,4.72,4.72,0,0,1-3.86-.13Z"/><path d="M245.45,522.14h1.27v9.12h-1.27Zm6.07,3.59a2.6,2.6,0,0,0-.64-1.88,2.79,2.79,0,0,0-3.54-.07,2.21,2.21,0,0,0-.62,1.68l-.19-1.76a2.92,2.92,0,0,1,1.29-1.29,4,4,0,0,1,1.85-.41,2.83,2.83,0,0,1,2.3,1,4.15,4.15,0,0,1,.81,2.74v5.54h-1.26Z"/><path d="M254.8,522.14h4.12v1.09H254.8Zm1.46,8.55a2.74,2.74,0,0,1-.51-1.8v-9.41H257v9.42a1.41,1.41,0,0,0,.26.91,1,1,0,0,0,.79.32h.86v1.17h-1A2,2,0,0,1,256.26,530.69Z"/><path d="M58.62,580.65h1.7l5.34,14.19H63.15l-3.68-10.57L55.8,594.84H53.29Zm-2.82,9.26h7.47v2.24H55.8Z"/><path d="M69.18,594.46a3.58,3.58,0,0,1-1.53-1.55,5.36,5.36,0,0,1-.53-2.47v-1.38a5.19,5.19,0,0,1,.53-2.43,3.5,3.5,0,0,1,1.53-1.54,5.18,5.18,0,0,1,2.42-.53,5.83,5.83,0,0,1,1.53.19,4.69,4.69,0,0,1,1.29.55,3.49,3.49,0,0,1,1,.88l-1.58,1.49a2.78,2.78,0,0,0-.94-.65,2.83,2.83,0,0,0-1.12-.22,2.27,2.27,0,0,0-1.68.59,2.23,2.23,0,0,0-.59,1.67v1.38a2.31,2.31,0,0,0,.59,1.71,2.24,2.24,0,0,0,1.68.6,2.7,2.7,0,0,0,1.13-.24,2.63,2.63,0,0,0,.93-.69l1.58,1.58a3.45,3.45,0,0,1-1,.86,4.69,4.69,0,0,1-1.29.55,6.21,6.21,0,0,1-1.52.18A5.18,5.18,0,0,1,69.18,594.46Z"/><path d="M79.14,594.46a3.58,3.58,0,0,1-1.53-1.55,5.36,5.36,0,0,1-.53-2.47v-1.38a5.19,5.19,0,0,1,.53-2.43,3.5,3.5,0,0,1,1.53-1.54,5.18,5.18,0,0,1,2.42-.53,5.83,5.83,0,0,1,1.53.19,4.69,4.69,0,0,1,1.29.55,3.49,3.49,0,0,1,1,.88l-1.58,1.49a2.78,2.78,0,0,0-.94-.65,2.83,2.83,0,0,0-1.12-.22,2.27,2.27,0,0,0-1.68.59,2.23,2.23,0,0,0-.59,1.67v1.38a2.31,2.31,0,0,0,.59,1.71,2.24,2.24,0,0,0,1.68.6,2.7,2.7,0,0,0,1.13-.24,2.63,2.63,0,0,0,.93-.69l1.58,1.58a3.45,3.45,0,0,1-1,.86,4.69,4.69,0,0,1-1.29.55,6.21,6.21,0,0,1-1.52.18A5.18,5.18,0,0,1,79.14,594.46Z"/><path d="M89,594.47A3.39,3.39,0,0,1,87.55,593a5.13,5.13,0,0,1-.51-2.38v-1.65a5,5,0,0,1,.51-2.36,3.41,3.41,0,0,1,1.46-1.5,5.49,5.49,0,0,1,4.62,0,3.41,3.41,0,0,1,1.46,1.5,5,5,0,0,1,.51,2.36v1.68a5,5,0,0,1-.51,2.36,3.36,3.36,0,0,1-1.46,1.5,5.39,5.39,0,0,1-4.62,0Zm3.75-2.28a2.3,2.3,0,0,0,.5-1.58v-1.68a2.32,2.32,0,0,0-.5-1.58,2.16,2.16,0,0,0-2.88,0,2.32,2.32,0,0,0-.5,1.58v1.68a2.25,2.25,0,0,0,.5,1.58,2.13,2.13,0,0,0,2.88,0Z"/><path d="M100.32,590.87a1.91,1.91,0,0,0,.48,1.39,1.79,1.79,0,0,0,1.35.49,1.82,1.82,0,0,0,1.34-.46A1.8,1.8,0,0,0,104,591l.13,2.17a2.94,2.94,0,0,1-1,1.32,2.63,2.63,0,0,1-1.67.54,3.19,3.19,0,0,1-2.56-1.06,4.54,4.54,0,0,1-.9-3v-6.21h2.33Zm3.64-6.16h2.32v10.13H104Z"/><path d="M109.11,584.71h2.34v10.13h-2.34Zm6,4a1.9,1.9,0,0,0-.49-1.4,1.82,1.82,0,0,0-1.39-.5,1.78,1.78,0,0,0-1.32.46,1.75,1.75,0,0,0-.47,1.32l-.21-2.1a3.66,3.66,0,0,1,1.16-1.43,2.74,2.74,0,0,1,1.64-.49,3.09,3.09,0,0,1,2.52,1.08,4.64,4.64,0,0,1,.89,3.05v6.15h-2.33Z"/><path d="M119.5,584.71h4.77v2H119.5Zm1.64,9.5a3,3,0,0,1-.59-2V581.76h2.33v10.13a1,1,0,0,0,.15.57.51.51,0,0,0,.43.2h.81v2.23H123A2.36,2.36,0,0,1,121.14,594.21Z"/><path d="M132.18,584.71h2.33v10.13h-2.33Zm6,4a1.94,1.94,0,0,0-.49-1.4,1.84,1.84,0,0,0-1.39-.5,1.81,1.81,0,0,0-1.33.46,1.79,1.79,0,0,0-.47,1.32l-.2-2.1a3.57,3.57,0,0,1,1.16-1.43,2.74,2.74,0,0,1,1.64-.49,3.1,3.1,0,0,1,2.52,1.08,4.7,4.7,0,0,1,.89,3.05v6.15h-2.33Z"/><path d="M145.69,590.87a2,2,0,0,0,.47,1.39,1.79,1.79,0,0,0,1.35.49,1.82,1.82,0,0,0,1.34-.46,1.8,1.8,0,0,0,.47-1.33l.14,2.17a3,3,0,0,1-1,1.32,2.61,2.61,0,0,1-1.67.54,3.19,3.19,0,0,1-2.56-1.06,4.54,4.54,0,0,1-.9-3v-6.21h2.34Zm3.63-6.16h2.32v10.13h-2.32Z"/><path d="M154.47,584.71h2.34v10.13h-2.34Zm6,4.14a2.18,2.18,0,0,0-.48-1.52,1.74,1.74,0,0,0-1.37-.53,1.79,1.79,0,0,0-1.33.46,1.75,1.75,0,0,0-.47,1.32l-.21-2.1a3.68,3.68,0,0,1,1.18-1.43,2.83,2.83,0,0,1,1.63-.49,3.26,3.26,0,0,1,1.82.5,3.05,3.05,0,0,1,1.16,1.46,6.14,6.14,0,0,1,.4,2.32v6h-2.33Zm6,0a2.19,2.19,0,0,0-.49-1.52,1.78,1.78,0,0,0-1.39-.53,1.69,1.69,0,0,0-1.31.51,2.1,2.1,0,0,0-.46,1.46l-.45-2.15a3.72,3.72,0,0,1,1.25-1.52,3,3,0,0,1,1.72-.54,3.39,3.39,0,0,1,1.87.5,3.1,3.1,0,0,1,1.19,1.46,6,6,0,0,1,.4,2.32v6h-2.33Z"/><path d="M171.6,580.65h2.34v14.19H171.6Zm3.2,13.89a2.71,2.71,0,0,1-1-1.29l.14-2.21a2.25,2.25,0,0,0,.2,1,1.49,1.49,0,0,0,.6.62,2,2,0,0,0,.95.21,1.69,1.69,0,0,0,1.34-.54,2.31,2.31,0,0,0,.48-1.56v-1.9a2.4,2.4,0,0,0-.48-1.59,1.67,1.67,0,0,0-1.34-.56,2,2,0,0,0-.95.21,1.44,1.44,0,0,0-.6.62,2.27,2.27,0,0,0-.2,1l-.21-2.1a3.49,3.49,0,0,1,1.14-1.38,2.72,2.72,0,0,1,1.57-.48,3.33,3.33,0,0,1,1.84.5,3.13,3.13,0,0,1,1.17,1.46,6.14,6.14,0,0,1,.4,2.32v1.91a5.82,5.82,0,0,1-.41,2.29,3.08,3.08,0,0,1-1.19,1.45,3.32,3.32,0,0,1-1.86.5A2.8,2.8,0,0,1,174.8,594.54Z"/><path d="M184.28,594.46a3.5,3.5,0,0,1-1.55-1.54,5.24,5.24,0,0,1-.54-2.47v-1.14a5.89,5.89,0,0,1,.51-2.57,3.58,3.58,0,0,1,1.5-1.62,4.7,4.7,0,0,1,2.35-.56,3.81,3.81,0,0,1,2.23.65,4,4,0,0,1,1.4,1.88,8.17,8.17,0,0,1,.49,3v.66h-6.89V589h4.72v-.1a3,3,0,0,0-.6-1.65,1.67,1.67,0,0,0-1.34-.59,2.06,2.06,0,0,0-1.63.66,2.77,2.77,0,0,0-.57,1.87v1.29a2.16,2.16,0,0,0,2.38,2.39,3.08,3.08,0,0,0,1.14-.22,3.37,3.37,0,0,0,1-.61l1.52,1.43a5.78,5.78,0,0,1-1.73,1.12,5.49,5.49,0,0,1-4.39-.14Z"/><path d="M193.21,584.71h2.43v10.13h-2.43Zm5.06,2.22a2.11,2.11,0,0,0-.79-.13,1.76,1.76,0,0,0-1.36.52,2.06,2.06,0,0,0-.48,1.45l-.21-2.29a3.65,3.65,0,0,1,1.15-1.42,2.66,2.66,0,0,1,1.56-.5,3.51,3.51,0,0,1,1.2.2,2.63,2.63,0,0,1,.94.59l-1.43,2A1.56,1.56,0,0,0,198.27,586.93Z"/><rect class="cls-15" x="69" y="614" width="184" height="48" rx="8"/><path d="M103.24,643a3,3,0,0,1-1.32-1.2,3.69,3.69,0,0,1-.46-1.9v-.12a3.61,3.61,0,0,1,.46-1.83,3.22,3.22,0,0,1,1.3-1.26,3,3,0,0,1-1.11-1.16,3.41,3.41,0,0,1-.39-1.63v-.13a3.68,3.68,0,0,1,.43-1.84,2.77,2.77,0,0,1,1.23-1.16,5,5,0,0,1,3.91,0,2.82,2.82,0,0,1,1.23,1.16,3.79,3.79,0,0,1,.43,1.84v.13a3.41,3.41,0,0,1-.4,1.65,2.92,2.92,0,0,1-1.12,1.14,3.34,3.34,0,0,1,1.31,1.27,3.5,3.5,0,0,1,.47,1.82v.12a3.69,3.69,0,0,1-.46,1.9,3,3,0,0,1-1.32,1.2,5.56,5.56,0,0,1-4.19,0Zm3.49-1a2.1,2.1,0,0,0,.88-.84,2.74,2.74,0,0,0,.3-1.32v0a2.74,2.74,0,0,0-.3-1.32,2,2,0,0,0-.88-.84,3.5,3.5,0,0,0-2.79,0,2,2,0,0,0-.88.84,2.75,2.75,0,0,0-.3,1.33v0a2.67,2.67,0,0,0,.3,1.31,2,2,0,0,0,.88.84,3.62,3.62,0,0,0,2.79,0Zm-.1-6a1.92,1.92,0,0,0,.81-.81,2.73,2.73,0,0,0,.29-1.29v-.12a2.37,2.37,0,0,0-.29-1.2,1.79,1.79,0,0,0-.81-.75,3.36,3.36,0,0,0-2.59,0,1.76,1.76,0,0,0-.81.76,2.36,2.36,0,0,0-.29,1.19v.14a2.65,2.65,0,0,0,.29,1.27,1.92,1.92,0,0,0,.81.81,3.24,3.24,0,0,0,2.59,0Z"/><path d="M117.92,642.94a3,3,0,0,1-1.22-1.32,4.75,4.75,0,0,1-.41-2.09h0a7.19,7.19,0,0,1,.16-1.48,8.71,8.71,0,0,1,.49-1.55c0-.09.07-.17.11-.26l.12-.25,2.78-5.5h1.41l-3.26,6.37v-.31a1.74,1.74,0,0,1,.76-.65,2.71,2.71,0,0,1,1.13-.22,3.67,3.67,0,0,1,1.85.44,2.82,2.82,0,0,1,1.17,1.31,4.79,4.79,0,0,1,.4,2.06h0a5,5,0,0,1-.41,2.11,2.94,2.94,0,0,1-1.23,1.33,3.74,3.74,0,0,1-1.92.46A3.88,3.88,0,0,1,117.92,642.94Zm3.63-1.41a2.75,2.75,0,0,0,.6-1.89h0a3,3,0,0,0-.63-2,2.17,2.17,0,0,0-1.76-.73,1.93,1.93,0,0,0-1.63.73,3.17,3.17,0,0,0-.58,2h0a2.72,2.72,0,0,0,.6,1.88,2.49,2.49,0,0,0,3.4,0Z"/><path d="M132.27,643a3,3,0,0,1-1.32-1.2,3.69,3.69,0,0,1-.46-1.9v-.12a3.61,3.61,0,0,1,.46-1.83,3.22,3.22,0,0,1,1.3-1.26,3,3,0,0,1-1.11-1.16,3.41,3.41,0,0,1-.39-1.63v-.13a3.68,3.68,0,0,1,.43-1.84,2.77,2.77,0,0,1,1.23-1.16,5,5,0,0,1,3.91,0,2.82,2.82,0,0,1,1.23,1.16,3.79,3.79,0,0,1,.43,1.84v.13a3.3,3.3,0,0,1-.4,1.65,2.92,2.92,0,0,1-1.12,1.14,3.34,3.34,0,0,1,1.31,1.27,3.5,3.5,0,0,1,.47,1.82v.12a3.69,3.69,0,0,1-.46,1.9,3,3,0,0,1-1.32,1.2,5.56,5.56,0,0,1-4.19,0Zm3.49-1a2.1,2.1,0,0,0,.88-.84,2.74,2.74,0,0,0,.3-1.32v0a2.74,2.74,0,0,0-.3-1.32,2,2,0,0,0-.88-.84,3.5,3.5,0,0,0-2.79,0,2,2,0,0,0-.88.84,2.75,2.75,0,0,0-.3,1.33v0a2.67,2.67,0,0,0,.3,1.31,2,2,0,0,0,.88.84,3.62,3.62,0,0,0,2.79,0Zm-.1-6a1.92,1.92,0,0,0,.81-.81,2.73,2.73,0,0,0,.29-1.29v-.12a2.37,2.37,0,0,0-.29-1.2,1.79,1.79,0,0,0-.81-.75,3.36,3.36,0,0,0-2.59,0,1.76,1.76,0,0,0-.81.76,2.36,2.36,0,0,0-.29,1.19v.14a2.65,2.65,0,0,0,.29,1.27,1.92,1.92,0,0,0,.81.81,3.24,3.24,0,0,0,2.59,0Z"/><path d="M148.66,643.26H147.4V631.55L145.05,633v-1.33l1.82-1.21h1.79Z"/><path d="M161.45,636.91v.32a1.24,1.24,0,0,1-.72.59,3.65,3.65,0,0,1-1.25.19,3.24,3.24,0,0,1-1.75-.46,3,3,0,0,1-1.17-1.32,4.35,4.35,0,0,1-.41-2h0a4.89,4.89,0,0,1,.41-2.12,3,3,0,0,1,1.22-1.33,4.28,4.28,0,0,1,3.86,0,3.05,3.05,0,0,1,1.22,1.36,5.09,5.09,0,0,1,.41,2.13h0a7.14,7.14,0,0,1-.17,1.47,10.22,10.22,0,0,1-.5,1.54c0,.07-.07.15-.11.23a1.63,1.63,0,0,1-.11.23l-2.73,5.48h-1.4Zm0-.78a2.84,2.84,0,0,0,.6-1.93h0a2.88,2.88,0,0,0-.6-2,2.41,2.41,0,0,0-3.4,0,2.89,2.89,0,0,0-.6,2h0a2.84,2.84,0,0,0,.6,1.93,2.16,2.16,0,0,0,1.7.68A2.12,2.12,0,0,0,161.4,636.13Z"/><path d="M172.32,643a3,3,0,0,1-1.22-1.09,4.56,4.56,0,0,1-.63-1.74h1.27a2.19,2.19,0,0,0,.72,1.49,2.66,2.66,0,0,0,3.3-.09,2.44,2.44,0,0,0,.61-1.76V638a2.48,2.48,0,0,0-.52-1.68,1.83,1.83,0,0,0-1.46-.6,2.53,2.53,0,0,0-1.39.4,3.82,3.82,0,0,0-1.14,1.13h-1.11v-6.73h6.51v1.18H172v3.84a3.55,3.55,0,0,1,1.09-.75,3.27,3.27,0,0,1,1.29-.26,3.46,3.46,0,0,1,1.75.41,2.75,2.75,0,0,1,1.11,1.18,4.32,4.32,0,0,1,.37,1.88v1.86a4.11,4.11,0,0,1-.42,1.93A2.74,2.74,0,0,1,176,643a4.18,4.18,0,0,1-1.94.42A3.66,3.66,0,0,1,172.32,643Z"/><path d="M187,643a3.12,3.12,0,0,1-1.22-1.09,4.56,4.56,0,0,1-.63-1.74h1.27a2.27,2.27,0,0,0,.72,1.49,2.66,2.66,0,0,0,3.3-.09,2.4,2.4,0,0,0,.61-1.76V638a2.43,2.43,0,0,0-.52-1.68,1.81,1.81,0,0,0-1.46-.6,2.5,2.5,0,0,0-1.38.4,3.73,3.73,0,0,0-1.15,1.13h-1.1v-6.73h6.51v1.18h-5.25v3.84a3.47,3.47,0,0,1,1.1-.75,3.18,3.18,0,0,1,1.28-.26,3.43,3.43,0,0,1,1.75.41,2.64,2.64,0,0,1,1.11,1.18,4.32,4.32,0,0,1,.38,1.88v1.86a4.11,4.11,0,0,1-.42,1.93,2.81,2.81,0,0,1-1.24,1.22,4.12,4.12,0,0,1-1.94.42A3.72,3.72,0,0,1,187,643Z"/><path d="M201.11,642.94a3,3,0,0,1-1.22-1.32,4.75,4.75,0,0,1-.42-2.09h0a7.23,7.23,0,0,1,.17-1.48,8.67,8.67,0,0,1,.48-1.55l.12-.26.12-.25,2.78-5.5h1.41l-3.27,6.37v-.31a1.71,1.71,0,0,1,.75-.65,2.79,2.79,0,0,1,1.14-.22,3.7,3.7,0,0,1,1.85.44,2.82,2.82,0,0,1,1.17,1.31,4.79,4.79,0,0,1,.4,2.06h0a4.87,4.87,0,0,1-.42,2.11,2.87,2.87,0,0,1-1.22,1.33,3.78,3.78,0,0,1-1.93.46A3.84,3.84,0,0,1,201.11,642.94Zm3.62-1.41a2.7,2.7,0,0,0,.61-1.89h0a3,3,0,0,0-.63-2,2.17,2.17,0,0,0-1.76-.73,1.93,1.93,0,0,0-1.63.73,3.17,3.17,0,0,0-.58,2h0a2.72,2.72,0,0,0,.6,1.88,2.48,2.48,0,0,0,3.39,0Z"/><path d="M215.18,642.94a3,3,0,0,1-1.22-1.32,4.75,4.75,0,0,1-.41-2.09h0a7.19,7.19,0,0,1,.16-1.48,8,8,0,0,1,.49-1.55c0-.09.07-.17.11-.26l.12-.25,2.78-5.5h1.41l-3.26,6.37v-.31a1.74,1.74,0,0,1,.76-.65,2.71,2.71,0,0,1,1.13-.22,3.67,3.67,0,0,1,1.85.44,2.82,2.82,0,0,1,1.17,1.31,4.79,4.79,0,0,1,.4,2.06h0a5,5,0,0,1-.41,2.11,2.94,2.94,0,0,1-1.23,1.33,3.78,3.78,0,0,1-1.93.46A3.84,3.84,0,0,1,215.18,642.94Zm3.63-1.41a2.75,2.75,0,0,0,.6-1.89h0a3,3,0,0,0-.63-2,2.17,2.17,0,0,0-1.76-.73,1.93,1.93,0,0,0-1.63.73,3.17,3.17,0,0,0-.58,2h0a2.72,2.72,0,0,0,.6,1.88,2.18,2.18,0,0,0,1.69.67A2.21,2.21,0,0,0,218.81,641.53Z"/><path d="M54.66,692.65H57v14.19H54.66Zm1,0H64v2.23H55.63Zm0,6H62.9v2.23H55.63Zm0,5.93H64v2.23H55.63Z"/><path d="M66.42,696.71h2.33v10.13H66.42Zm6,4a1.93,1.93,0,0,0-.48-1.4,1.84,1.84,0,0,0-1.39-.5,1.81,1.81,0,0,0-1.33.46,1.79,1.79,0,0,0-.47,1.32l-.2-2.1a3.64,3.64,0,0,1,1.15-1.43,2.79,2.79,0,0,1,1.65-.49,3.07,3.07,0,0,1,2.51,1.08,4.64,4.64,0,0,1,.9,3.05v6.15H72.42Z"/><path d="M76.81,696.71h4.76v2H76.81Zm1.64,9.5a2.93,2.93,0,0,1-.6-2V693.76h2.34v10.13a1,1,0,0,0,.14.57.51.51,0,0,0,.43.2h.81v2.23H80.32A2.34,2.34,0,0,1,78.45,706.21Z"/><path d="M85.91,706.46a3.55,3.55,0,0,1-1.55-1.54,5.24,5.24,0,0,1-.54-2.47v-1.14a5.89,5.89,0,0,1,.51-2.57,3.58,3.58,0,0,1,1.5-1.62,4.71,4.71,0,0,1,2.36-.56,3.8,3.8,0,0,1,2.22.65,4,4,0,0,1,1.4,1.88,8,8,0,0,1,.49,3v.66H85.41V701h4.72v-.1a2.88,2.88,0,0,0-.6-1.65,1.65,1.65,0,0,0-1.33-.59,2.07,2.07,0,0,0-1.64.66A2.77,2.77,0,0,0,86,701.2v1.29a2.16,2.16,0,0,0,2.38,2.39,3,3,0,0,0,1.14-.22,3.37,3.37,0,0,0,1-.61L92,705.48a5.78,5.78,0,0,1-1.73,1.12,5.49,5.49,0,0,1-4.39-.14Z"/><path d="M94.84,696.71h2.43v10.13H94.84Zm5.06,2.22a2.11,2.11,0,0,0-.79-.13,1.76,1.76,0,0,0-1.36.52,2.06,2.06,0,0,0-.48,1.45l-.21-2.29a3.74,3.74,0,0,1,1.15-1.42,2.66,2.66,0,0,1,1.56-.5,3.51,3.51,0,0,1,1.2.2,2.63,2.63,0,0,1,.94.59l-1.43,2A1.56,1.56,0,0,0,99.9,698.93Z"/><path d="M109.12,706.21a3,3,0,0,1-.87-2.35,2.82,2.82,0,0,1,.88-2.26,4,4,0,0,1,2.64-.75h2.71l.14,1.82h-2.84a1.56,1.56,0,0,0-1,.29,1.1,1.1,0,0,0-.35.9,1.07,1.07,0,0,0,.45.94,2.46,2.46,0,0,0,1.36.31,4.25,4.25,0,0,0,1.65-.25.79.79,0,0,0,.55-.76l.2,1.45a1.74,1.74,0,0,1-.58.8,3,3,0,0,1-1,.48,4.72,4.72,0,0,1-1.28.16A3.82,3.82,0,0,1,109.12,706.21Zm5.28-5.79a1.7,1.7,0,0,0-.51-1.32,2,2,0,0,0-1.42-.47,3.86,3.86,0,0,0-2.17.7l-1.55-1.3a3.84,3.84,0,0,1,1.56-1.08,5.75,5.75,0,0,1,2.15-.39,5,5,0,0,1,2.21.45,3.11,3.11,0,0,1,1.4,1.28,4.1,4.1,0,0,1,.48,2v6.51H114.4Z"/><path d="M119.39,696.71h2.33v10.13h-2.33Zm6,4.14a2.18,2.18,0,0,0-.48-1.52,1.74,1.74,0,0,0-1.37-.53,1.62,1.62,0,0,0-1.8,1.78l-.2-2.1a3.58,3.58,0,0,1,1.17-1.43,2.85,2.85,0,0,1,1.63-.49,3.24,3.24,0,0,1,1.82.5,3.05,3.05,0,0,1,1.16,1.46,6,6,0,0,1,.4,2.32v6h-2.33Zm6,0a2.14,2.14,0,0,0-.49-1.52,1.77,1.77,0,0,0-1.39-.53,1.69,1.69,0,0,0-1.31.51,2.1,2.1,0,0,0-.46,1.46l-.45-2.15a3.88,3.88,0,0,1,1.25-1.52,3,3,0,0,1,1.73-.54,3.41,3.41,0,0,1,1.87.5,3.15,3.15,0,0,1,1.18,1.46,6,6,0,0,1,.4,2.32v6h-2.33Z"/><path d="M138.19,706.47a3.39,3.39,0,0,1-1.46-1.51,5.13,5.13,0,0,1-.51-2.38v-1.65a5,5,0,0,1,.51-2.36,3.41,3.41,0,0,1,1.46-1.5,5.49,5.49,0,0,1,4.62,0,3.41,3.41,0,0,1,1.46,1.5,5,5,0,0,1,.51,2.36v1.68a5,5,0,0,1-.51,2.36,3.36,3.36,0,0,1-1.46,1.5,5.39,5.39,0,0,1-4.62,0Zm3.75-2.28a2.3,2.3,0,0,0,.5-1.58v-1.68a2.32,2.32,0,0,0-.5-1.58,2.16,2.16,0,0,0-2.88,0,2.32,2.32,0,0,0-.5,1.58v1.68a2.25,2.25,0,0,0,.5,1.58,2.13,2.13,0,0,0,2.88,0Z"/><path d="M149.5,702.87a1.91,1.91,0,0,0,.48,1.39,1.79,1.79,0,0,0,1.35.49,1.82,1.82,0,0,0,1.34-.46,1.8,1.8,0,0,0,.47-1.33l.13,2.17a2.94,2.94,0,0,1-1,1.32,2.63,2.63,0,0,1-1.67.54,3.19,3.19,0,0,1-2.56-1.06,4.54,4.54,0,0,1-.9-3v-6.21h2.33Zm3.64-6.16h2.32v10.13h-2.32Z"/><path d="M158.29,696.71h2.34v10.13h-2.34Zm6,4a1.9,1.9,0,0,0-.49-1.4,1.84,1.84,0,0,0-1.39-.5,1.78,1.78,0,0,0-1.32.46,1.75,1.75,0,0,0-.47,1.32l-.21-2.1a3.66,3.66,0,0,1,1.16-1.43,2.74,2.74,0,0,1,1.64-.49,3.09,3.09,0,0,1,2.52,1.08,4.7,4.7,0,0,1,.89,3.05v6.15H164.3Z"/><path d="M168.68,696.71h4.77v2h-4.77Zm1.64,9.5a3,3,0,0,1-.59-2V693.76h2.33v10.13a1,1,0,0,0,.15.57.51.51,0,0,0,.43.2h.81v2.23H172.2A2.36,2.36,0,0,1,170.32,706.21Z"/><rect class="cls-16" x="69" y="726" width="184" height="48" rx="8"/><path d="M141.19,755.26h-1.27V743.55L137.58,745v-1.33l1.82-1.21h1.79Z"/><path d="M145.94,755a3,3,0,0,1-1.22-1.09,4.4,4.4,0,0,1-.63-1.74h1.27a2.19,2.19,0,0,0,.72,1.49,2.66,2.66,0,0,0,3.3-.09,2.44,2.44,0,0,0,.61-1.76V750a2.48,2.48,0,0,0-.52-1.68,1.83,1.83,0,0,0-1.46-.6,2.53,2.53,0,0,0-1.39.4,3.82,3.82,0,0,0-1.14,1.13h-1.11v-6.73h6.51v1.18h-5.24v3.84a3.55,3.55,0,0,1,1.09-.75,3.27,3.27,0,0,1,1.29-.26,3.46,3.46,0,0,1,1.75.41,2.75,2.75,0,0,1,1.11,1.18,4.32,4.32,0,0,1,.37,1.88v1.86a4.11,4.11,0,0,1-.42,1.93A2.74,2.74,0,0,1,149.6,755a4.18,4.18,0,0,1-1.94.42A3.66,3.66,0,0,1,145.94,755Z"/><path d="M153.89,753.82h1.44v2.23l-1.44,1.6Z"/><path d="M158.37,754.43a3.68,3.68,0,0,1-.93-2.67V746a3.66,3.66,0,1,1,7.3,0v5.81a3.69,3.69,0,0,1-.94,2.68,4.34,4.34,0,0,1-5.43,0Zm4.52-.85a2.6,2.6,0,0,0,.58-1.82V746a2.58,2.58,0,0,0-.58-1.82,2.34,2.34,0,0,0-1.8-.63,2.32,2.32,0,0,0-1.8.63,2.58,2.58,0,0,0-.58,1.82v5.81a2.6,2.6,0,0,0,.58,1.82,2.32,2.32,0,0,0,1.8.63A2.34,2.34,0,0,0,162.89,753.58Z"/><path d="M168,754.43a3.68,3.68,0,0,1-.93-2.67V746a3.66,3.66,0,1,1,7.3,0v5.81a3.69,3.69,0,0,1-.94,2.68,4.34,4.34,0,0,1-5.43,0Zm4.52-.85a2.6,2.6,0,0,0,.58-1.82V746a2.58,2.58,0,0,0-.58-1.82,2.34,2.34,0,0,0-1.8-.63,2.32,2.32,0,0,0-1.8.63,2.58,2.58,0,0,0-.58,1.82v5.81a2.6,2.6,0,0,0,.58,1.82,2.32,2.32,0,0,0,1.8.63A2.34,2.34,0,0,0,172.47,753.58Z"/><path d="M177.53,754.43a3.68,3.68,0,0,1-.93-2.67V746a3.66,3.66,0,1,1,7.3,0v5.81a3.69,3.69,0,0,1-.94,2.68,4.34,4.34,0,0,1-5.43,0Zm4.52-.85a2.6,2.6,0,0,0,.58-1.82V746a2.58,2.58,0,0,0-.58-1.82,2.34,2.34,0,0,0-1.8-.63,2.32,2.32,0,0,0-1.8.63,2.58,2.58,0,0,0-.58,1.82v5.81a2.6,2.6,0,0,0,.58,1.82,2.32,2.32,0,0,0,1.8.63A2.34,2.34,0,0,0,182.05,753.58Z"/><path class="cls-17" d="M91.54,749.29l-3.38-1a.92.92,0,0,1,.28-1.81h2a1.93,1.93,0,0,1,1.07.33.48.48,0,0,0,.61-.06l1.09-1.07a.5.5,0,0,0-.06-.76,4.38,4.38,0,0,0-2.7-.94v-1.5a.51.51,0,0,0-.5-.5H89a.5.5,0,0,0-.5.5V744h-.08A3.43,3.43,0,0,0,85,747.74a3.61,3.61,0,0,0,2.62,3l3.21.93a.93.93,0,0,1-.28,1.81h-2a1.91,1.91,0,0,1-1.07-.33.48.48,0,0,0-.61.06l-1.09,1.07a.5.5,0,0,0,.06.76,4.38,4.38,0,0,0,2.7.94v1.5a.5.5,0,0,0,.5.5h1a.51.51,0,0,0,.5-.5V756a3.51,3.51,0,0,0,3.3-2.27,3.43,3.43,0,0,0-2.26-4.43Z"/></svg>