<svg id="Layer_1" data-name="Layer 1" xmlns="http://www.w3.org/2000/svg" xmlns:xlink="http://www.w3.org/1999/xlink" viewBox="0 0 537 1078"><defs><style>.cls-1{isolation:isolate;}.cls-2{fill:#2e3192;}.cls-3{fill:#fff;}.cls-4{fill:#662d91;}.cls-5{fill:none;stroke:#2e3192;stroke-linecap:round;stroke-miterlimit:10;stroke-width:4px;opacity:0.16;}</style></defs><g id="Layer_2" data-name="Layer 2"><g id="Layer_1-2" data-name="Layer 1-2"><image class="cls-1" width="977" height="1960" transform="scale(0.55)" xlink:href="../../../../../../../design/assets/iphone.png"/><path d="M67,65H65V53l-2,1.24V52.33L65,51h2Z"/><path d="M74,65H72V53l-2,1.24V52.33L72,51h2Z"/><path d="M77,55h2v2H77Zm0,8h2v2H77Z"/><path d="M85,65H83V53l-2,1.24V52.33L83,51h2Z"/><path d="M92,65H90V53l-2,1.24V52.33L90,51h2Z"/><path d="M478,56v2h1v2h-1v3H460V56h18m.2-3H458.82A1.83,1.83,0,0,0,457,54.8v8.4a1.81,1.81,0,0,0,1.8,1.8h19.38A1.8,1.8,0,0,0,480,63.22V63h.53c.5-.25.9-.65.47-1.15v-5.4c.43-.5,0-.9-.47-.45H480V54.8A1.81,1.81,0,0,0,478.2,53ZM473,57H461v5h12Z"/><path d="M448.76,56a12.45,12.45,0,0,0-16.87,0,.45.45,0,0,0,0,.61h0l.92.91a.43.43,0,0,0,.6,0,10.29,10.29,0,0,1,13.86,0,.43.43,0,0,0,.6,0l.91-.91a.41.41,0,0,0,0-.58l0,0Zm-8.43,6A1.71,1.71,0,1,0,442,63.71h0A1.71,1.71,0,0,0,440.37,62Zm5.43-2.51a8.22,8.22,0,0,0-10.86,0,.44.44,0,0,0,0,.61h0l.93.91a.42.42,0,0,0,.59,0,6,6,0,0,1,7.86,0,.42.42,0,0,0,.59,0l.92-.91a.41.41,0,0,0,0-.59Z"/><path d="M413.6,60h-1.2a.39.39,0,0,0-.4.35v4.29a.38.38,0,0,0,.4.36h1.2a.38.38,0,0,0,.4-.36h0V60.35A.39.39,0,0,0,413.6,60Zm-3,2h-1.2a.39.39,0,0,0-.4.38h0v2.24a.39.39,0,0,0,.4.38h1.2a.39.39,0,0,0,.4-.38h0V62.38a.39.39,0,0,0-.4-.38Zm6-5h-1.2a.4.4,0,0,0-.4.41h0v7.18a.4.4,0,0,0,.4.41h1.2a.4.4,0,0,0,.4-.41h0V57.41a.4.4,0,0,0-.4-.41Zm3-2h-1.2a.4.4,0,0,0-.4.38v9.23a.39.39,0,0,0,.4.39h1.2a.39.39,0,0,0,.4-.39h0V55.38A.4.4,0,0,0,419.6,55Zm3-2h-1.2a.39.39,0,0,0-.4.38h0V64.62a.39.39,0,0,0,.4.38h1.2a.39.39,0,0,0,.4-.38h0V53.38a.39.39,0,0,0-.4-.38Z"/></g></g><path d="M217.49,124.56A5.77,5.77,0,0,1,215,122a8.9,8.9,0,0,1-.85-4.07v-5.54a9,9,0,0,1,.85-4.08,5.82,5.82,0,0,1,2.46-2.57,8,8,0,0,1,3.88-.89,6.73,6.73,0,0,1,3.35.82,6.62,6.62,0,0,1,2.44,2.38,10.32,10.32,0,0,1,1.34,3.77h-3.89a5.09,5.09,0,0,0-.67-1.71,3.35,3.35,0,0,0-1.11-1.08,2.86,2.86,0,0,0-1.46-.38,3.47,3.47,0,0,0-1.79.44,2.83,2.83,0,0,0-1.13,1.28,4.76,4.76,0,0,0-.39,2v5.54a4.71,4.71,0,0,0,.39,2,2.81,2.81,0,0,0,1.13,1.27,3.47,3.47,0,0,0,1.79.44,2.93,2.93,0,0,0,1.48-.37,3.09,3.09,0,0,0,1.11-1.08,4.86,4.86,0,0,0,.65-1.72h3.89a10.7,10.7,0,0,1-1.35,3.77,6.59,6.59,0,0,1-2.43,2.38,6.73,6.73,0,0,1-3.35.82A8,8,0,0,1,217.49,124.56Z"/><path d="M232.08,124.34A4.52,4.52,0,0,1,231,121a4,4,0,0,1,1.26-3.21,5.78,5.78,0,0,1,3.8-1.07h3.55l.19,2.9H236a2,2,0,0,0-1.27.34,1.26,1.26,0,0,0-.43,1,1.13,1.13,0,0,0,.54,1,3,3,0,0,0,1.61.34,5.55,5.55,0,0,0,2.24-.34,1.16,1.16,0,0,0,.73-1.09l.28,2.1a2,2,0,0,1-.7,1.32,4,4,0,0,1-1.56.81,7,7,0,0,1-2,.27A4.75,4.75,0,0,1,232.08,124.34Zm7.37-8.24a1.87,1.87,0,0,0-.66-1.54,2.86,2.86,0,0,0-1.86-.54,4.74,4.74,0,0,0-1.57.26A4.57,4.57,0,0,0,234,115l-2.33-2.32a5.67,5.67,0,0,1,2.25-1.54,8.5,8.5,0,0,1,3.09-.55,7.28,7.28,0,0,1,3.17.64,4.5,4.5,0,0,1,2,1.83,5.7,5.7,0,0,1,.69,2.89v9.26h-3.4Z"/><path d="M245.45,110.82h6.94v3.25h-6.94Zm2.33,13.52a4.16,4.16,0,0,1-.87-2.86V106.63h3.75v13.91a1.42,1.42,0,0,0,.2.81.7.7,0,0,0,.6.29h.93v3.66h-1.88A3.51,3.51,0,0,1,247.78,124.34Z"/><path d="M258.25,124.68a5.13,5.13,0,0,1-2.22-2.2,7.4,7.4,0,0,1-.76-3.49v-1.63a8.31,8.31,0,0,1,.73-3.65,5.06,5.06,0,0,1,2.13-2.3,6.73,6.73,0,0,1,3.38-.8,5.37,5.37,0,0,1,3.19,1,5.83,5.83,0,0,1,2,2.74,12.16,12.16,0,0,1,.69,4.34v.94H257.7V117H264l0-.33a3.38,3.38,0,0,0-.78-1.93,2.13,2.13,0,0,0-1.66-.68,2.65,2.65,0,0,0-2.09.82,3.32,3.32,0,0,0-.75,2.32V119a2.8,2.8,0,0,0,3.09,3.08,4.31,4.31,0,0,0,1.49-.27,4.37,4.37,0,0,0,1.34-.77l2.45,2.21a8.38,8.38,0,0,1-2.49,1.59,7.88,7.88,0,0,1-6.3-.2Z"/><path d="M272.47,124.71a4.64,4.64,0,0,1-1.63-2.14,8.89,8.89,0,0,1-.56-3.36V116.9a9.14,9.14,0,0,1,.56-3.4,4.56,4.56,0,0,1,1.63-2.15,4.48,4.48,0,0,1,2.58-.74,3.39,3.39,0,0,1,2.07.69,4.87,4.87,0,0,1,1.51,2l-.29,3.2a2.93,2.93,0,0,0-.24-1.25,1.79,1.79,0,0,0-.72-.79,2.26,2.26,0,0,0-1.14-.27,2,2,0,0,0-1.64.73,3.27,3.27,0,0,0-.58,2v2.29a3.11,3.11,0,0,0,.58,2,2,2,0,0,0,1.64.71,2.26,2.26,0,0,0,1.14-.27,1.77,1.77,0,0,0,.72-.76,2.78,2.78,0,0,0,.24-1.21l.2,3.29a3.85,3.85,0,0,1-1.34,1.83,3.62,3.62,0,0,1-2.15.64A4.47,4.47,0,0,1,272.47,124.71Zm.22,5.78a4.86,4.86,0,0,1-2.07-1.7l2.51-2.35a3.34,3.34,0,0,0,1.15.81,3.55,3.55,0,0,0,1.4.29,2.8,2.8,0,0,0,1.92-.66,2.24,2.24,0,0,0,.74-1.8V110.82h3.75v14a7.14,7.14,0,0,1-.75,3.4,5,5,0,0,1-2.17,2.16,7.45,7.45,0,0,1-3.45.73A7.32,7.32,0,0,1,272.69,130.49Z"/><path d="M288.18,124.71a4.93,4.93,0,0,1-2.09-2.15,7.38,7.38,0,0,1-.72-3.39v-2.35a7.23,7.23,0,0,1,.72-3.35,4.89,4.89,0,0,1,2.09-2.13,7.89,7.89,0,0,1,6.63,0,4.89,4.89,0,0,1,2.09,2.13,7.23,7.23,0,0,1,.72,3.35v2.39a7.25,7.25,0,0,1-.72,3.36,5,5,0,0,1-2.09,2.14,7.89,7.89,0,0,1-6.63,0Zm5.07-3.61a2.66,2.66,0,0,0,.63-1.89v-2.39a2.61,2.61,0,0,0-.63-1.87,2.3,2.3,0,0,0-1.77-.67,2.23,2.23,0,0,0-1.74.67,2.61,2.61,0,0,0-.62,1.87v2.39a2.7,2.7,0,0,0,.61,1.89,2.26,2.26,0,0,0,1.75.68A2.31,2.31,0,0,0,293.25,121.1Z"/><path d="M301,110.82h4v14.41h-4Zm7.31,3.6a2.81,2.81,0,0,0-.91-.14,2.19,2.19,0,0,0-1.76.74,3.16,3.16,0,0,0-.62,2.06l-.29-3.74a5.12,5.12,0,0,1,1.53-2,3.29,3.29,0,0,1,2.05-.72,4.32,4.32,0,0,1,1.61.29,3.45,3.45,0,0,1,1.25.84l-2.19,3.1A1.6,1.6,0,0,0,308.35,114.42Z"/><path d="M311.48,110.82H315l4.77,12.53-2.36,3.06Zm13.12,0-6.32,17.79a4.8,4.8,0,0,1-.88,1.56,3,3,0,0,1-1.3.82,6.19,6.19,0,0,1-1.91.25h-.83v-3.69h.83a1.79,1.79,0,0,0,1-.27,1.64,1.64,0,0,0,.61-.88l5.26-15.58Z"/><path class="cls-2" d="M33.38,949.8h470a0,0,0,0,1,0,0v56a40,40,0,0,1-40,40h-390a40,40,0,0,1-40-40v-56A0,0,0,0,1,33.38,949.8Z"/><path class="cls-3" d="M268.6,962.18a12,12,0,1,0,12,12A12,12,0,0,0,268.6,962.18Zm7,13.4a.58.58,0,0,1-.58.58h-4.52v4.22a.58.58,0,0,1-.58.58H267.2a.58.58,0,0,1-.58-.58v-4.52H262.1a.58.58,0,0,1-.58-.58v-2.74a.58.58,0,0,1,.58-.58h4.52v-4.22a.58.58,0,0,1,.58-.58h2.74a.58.58,0,0,1,.58.58v4.52H275a.58.58,0,0,1,.58.58Z"/><path class="cls-3" d="M245.09,1020.74a4,4,0,0,1-1.56-1.67,5.43,5.43,0,0,1-.56-2.51v-3.5a5.43,5.43,0,0,1,.56-2.51,4,4,0,0,1,1.56-1.67,4.46,4.46,0,0,1,2.33-.59,4.41,4.41,0,0,1,2,.46,4.33,4.33,0,0,1,1.55,1.34,5.08,5.08,0,0,1,.84,2H250a2.89,2.89,0,0,0-.56-1.07,2.78,2.78,0,0,0-.92-.72,2.46,2.46,0,0,0-1.09-.26,2.42,2.42,0,0,0-2.28,1.44,3.61,3.61,0,0,0-.33,1.59v3.5a3.64,3.64,0,0,0,.33,1.59,2.39,2.39,0,0,0,2.28,1.43,2.6,2.6,0,0,0,2-.94,2.77,2.77,0,0,0,.56-1.11h1.84a5,5,0,0,1-.85,2,4.32,4.32,0,0,1-1.55,1.33,4.38,4.38,0,0,1-2,.47A4.56,4.56,0,0,1,245.09,1020.74Z"/><path class="cls-3" d="M254.2,1012.07H256v9.13H254.2Zm4.42,1.73a2.17,2.17,0,0,0-.84-.15,1.63,1.63,0,0,0-1.79,1.77l-.18-1.76a3.4,3.4,0,0,1,1.09-1.27,2.55,2.55,0,0,1,1.47-.45,3.31,3.31,0,0,1,1.13.18,2.67,2.67,0,0,1,.89.53l-1.17,1.59A1.47,1.47,0,0,0,258.62,1013.8Z"/><path class="cls-3" d="M263.28,1020.85a3.12,3.12,0,0,1-1.37-1.39,4.85,4.85,0,0,1-.47-2.22v-1a5.41,5.41,0,0,1,.45-2.31,3.23,3.23,0,0,1,1.32-1.46,4.07,4.07,0,0,1,2.07-.5,3.3,3.3,0,0,1,2,.57,3.56,3.56,0,0,1,1.24,1.66,7.14,7.14,0,0,1,.42,2.59v.6h-6.15v-1.45h4.45a3,3,0,0,0-.58-1.73,1.59,1.59,0,0,0-1.33-.62,1.94,1.94,0,0,0-1.58.67,2.86,2.86,0,0,0-.55,1.89v1.16a2.38,2.38,0,0,0,.59,1.74,2.3,2.3,0,0,0,1.7.6,2.78,2.78,0,0,0,1.08-.22,3,3,0,0,0,1-.61l1.18,1.18a4.89,4.89,0,0,1-1.52,1,4.33,4.33,0,0,1-1.7.36A4.53,4.53,0,0,1,263.28,1020.85Z"/><path class="cls-3" d="M271.75,1020.63a2.6,2.6,0,0,1-.83-2.12,2.55,2.55,0,0,1,.76-2,3.41,3.41,0,0,1,2.31-.68h2.59l.13,1.44H274a1.57,1.57,0,0,0-1.05.31,1.24,1.24,0,0,0-.35,1,1.22,1.22,0,0,0,.46,1,2.45,2.45,0,0,0,1.41.33,4,4,0,0,0,1.53-.22.72.72,0,0,0,.5-.69l.19,1.29a2,2,0,0,1-.59.6,2.44,2.44,0,0,1-.8.36,4,4,0,0,1-1,.12A3.9,3.9,0,0,1,271.75,1020.63Zm4.75-5.22A1.92,1.92,0,0,0,276,1014a1.82,1.82,0,0,0-1.36-.5,3.52,3.52,0,0,0-1.07.17,3.13,3.13,0,0,0-.93.47l-1.31-.9a3.38,3.38,0,0,1,1.37-1,5,5,0,0,1,1.89-.35,4.44,4.44,0,0,1,1.94.4,2.82,2.82,0,0,1,1.23,1.16,3.75,3.75,0,0,1,.42,1.83v5.87H276.5Z"/><path class="cls-3" d="M280.23,1012.07h4.11v1.62h-4.11Zm1.46,8.56a2.71,2.71,0,0,1-.52-1.81v-9.4H283v9.42a.82.82,0,0,0,.14.51.41.41,0,0,0,.38.19h.86v1.7h-1A2,2,0,0,1,281.69,1020.63Z"/><path class="cls-3" d="M288.38,1020.85a3.17,3.17,0,0,1-1.37-1.39,4.85,4.85,0,0,1-.47-2.22v-1a5.41,5.41,0,0,1,.45-2.31,3.29,3.29,0,0,1,1.32-1.46,4.07,4.07,0,0,1,2.07-.5,3.3,3.3,0,0,1,1.95.57,3.56,3.56,0,0,1,1.24,1.66,7.13,7.13,0,0,1,.43,2.59v.6h-6.16v-1.45h4.45a3,3,0,0,0-.58-1.73,1.59,1.59,0,0,0-1.33-.62,1.91,1.91,0,0,0-1.57.67,2.81,2.81,0,0,0-.56,1.89v1.16a2.43,2.43,0,0,0,.59,1.74,2.3,2.3,0,0,0,1.7.6,2.78,2.78,0,0,0,1.08-.22,3,3,0,0,0,1-.61l1.18,1.18a4.89,4.89,0,0,1-1.52,1,4.33,4.33,0,0,1-1.7.36A4.53,4.53,0,0,1,288.38,1020.85Z"/><path class="cls-3" d="M58.39,1006.66h1.79v12.78H58.39Zm1.12,5.64H66.6v1.7H59.51Zm6.14-5.64h1.79v12.78H65.65Z"/><path class="cls-3" d="M71.9,1019.11a3.09,3.09,0,0,1-1.29-1.36,4.71,4.71,0,0,1-.44-2.15v-1.48a4.65,4.65,0,0,1,.44-2.13,3.15,3.15,0,0,1,1.29-1.34,4.71,4.71,0,0,1,4.06,0,3.15,3.15,0,0,1,1.29,1.34,4.79,4.79,0,0,1,.44,2.13v1.51a4.79,4.79,0,0,1-.44,2.13,3.12,3.12,0,0,1-1.29,1.35,4.71,4.71,0,0,1-4.06,0Zm3.48-1.83a2.38,2.38,0,0,0,.52-1.65v-1.51a2.38,2.38,0,0,0-.52-1.65,1.85,1.85,0,0,0-1.45-.58,1.88,1.88,0,0,0-1.46.58,2.43,2.43,0,0,0-.51,1.65v1.51a2.43,2.43,0,0,0,.51,1.65,1.85,1.85,0,0,0,1.46.59A1.82,1.82,0,0,0,75.38,1017.28Z"/><path class="cls-3" d="M80.24,1010.32H82v9.12H80.24Zm5.45,3.59a2.14,2.14,0,0,0-.48-1.49,1.7,1.7,0,0,0-1.34-.53,1.87,1.87,0,0,0-1.36.47,1.74,1.74,0,0,0-.48,1.31l-.18-1.76a3.2,3.2,0,0,1,1.1-1.27,2.68,2.68,0,0,1,1.51-.45,2.94,2.94,0,0,1,1.63.43,2.72,2.72,0,0,1,1,1.27,5.1,5.1,0,0,1,.36,2v5.53H85.69Zm5.45,0a2.1,2.1,0,0,0-.5-1.49,1.88,1.88,0,0,0-1.41-.53,1.63,1.63,0,0,0-1.29.51,2.06,2.06,0,0,0-.46,1.44l-.36-1.75a3.59,3.59,0,0,1,1.14-1.41,2.65,2.65,0,0,1,1.56-.49,3.09,3.09,0,0,1,1.68.43,2.8,2.8,0,0,1,1.07,1.27,5.1,5.1,0,0,1,.36,2v5.53H91.14Z"/><path class="cls-3" d="M97.23,1019.1a3.17,3.17,0,0,1-1.37-1.39,4.91,4.91,0,0,1-.47-2.22v-1a5.41,5.41,0,0,1,.45-2.31,3.24,3.24,0,0,1,1.32-1.46,4,4,0,0,1,2.07-.5,3.3,3.3,0,0,1,2,.57,3.58,3.58,0,0,1,1.24,1.65,7.17,7.17,0,0,1,.42,2.59v.6H96.69v-1.44h4.45a3.1,3.1,0,0,0-.58-1.74,1.62,1.62,0,0,0-1.33-.62,2,2,0,0,0-1.58.67,2.9,2.9,0,0,0-.55,1.89v1.16a2.39,2.39,0,0,0,.59,1.74,2.27,2.27,0,0,0,1.7.61,2.78,2.78,0,0,0,1.08-.22,3,3,0,0,0,1-.62l1.18,1.18a4.92,4.92,0,0,1-1.52,1,4.31,4.31,0,0,1-1.7.35A4.53,4.53,0,0,1,97.23,1019.1Z"/><path class="cls-3" d="M80.08,968.17,70,976.24v8.68a.87.87,0,0,0,.89.85l6.23,0a.88.88,0,0,0,.88-.86v-5.27a.85.85,0,0,1,.85-.85h3.3a.85.85,0,0,1,.85.85v5.27a.85.85,0,0,0,.83.88H84l6.15,0a.85.85,0,0,0,.85-.85v-8.71l-10.08-8.06a.69.69,0,0,0-.84,0Zm15.1,5.25L91,969.76v-7.35a.64.64,0,0,0-.64-.64H87.64a.64.64,0,0,0-.64.64v3.85l-4.22-3.69a2.71,2.71,0,0,0-3.56,0l-12.4,10.85a.67.67,0,0,0-.08.9h0L68,976a.57.57,0,0,0,.85.09h0l11.76-10.29a.58.58,0,0,1,.76,0l11.77,10.29A.57.57,0,0,0,94,976h0l1.28-1.65a.67.67,0,0,0-.09-.9Z"/><path class="cls-3" d="M337.48,1006.66h1.68v12.78h-1.75v-9.57l.09.56-3.15,7.24H333.1l-3.14-7.06.08-.74v9.57H328.3v-12.78H330l3.76,8.44Z"/><path class="cls-3" d="M343.72,1019.1a3.23,3.23,0,0,1-1.37-1.39,4.91,4.91,0,0,1-.47-2.22v-1a5.26,5.26,0,0,1,.46-2.31,3.22,3.22,0,0,1,1.31-1.46,4,4,0,0,1,2.07-.5,3.31,3.31,0,0,1,2,.57,3.57,3.57,0,0,1,1.23,1.65,7.16,7.16,0,0,1,.43,2.59v.6h-6.16v-1.44h4.45a3.1,3.1,0,0,0-.57-1.74,1.65,1.65,0,0,0-1.34-.62,1.94,1.94,0,0,0-1.57.67,2.84,2.84,0,0,0-.56,1.89v1.16a2.36,2.36,0,0,0,.6,1.74,2.23,2.23,0,0,0,1.69.61,2.71,2.71,0,0,0,1.08-.22,3,3,0,0,0,1-.62l1.18,1.18a4.92,4.92,0,0,1-1.52,1,4.28,4.28,0,0,1-1.7.35A4.53,4.53,0,0,1,343.72,1019.1Z"/><path class="cls-3" d="M353.51,1019.42a5.84,5.84,0,0,1-1.33-.48,5.11,5.11,0,0,1-1.13-.79l1.06-1.31a5.85,5.85,0,0,0,1.47.84,4,4,0,0,0,1.44.29,3.11,3.11,0,0,0,1.6-.33,1.1,1.1,0,0,0,.53-1,.77.77,0,0,0-.29-.66,1.57,1.57,0,0,0-.72-.3c-.29-.05-.69-.09-1.21-.13h-.44a7.13,7.13,0,0,1-1.51-.26,2,2,0,0,1-1-.71,2.35,2.35,0,0,1-.41-1.48,3,3,0,0,1,.4-1.61,2.34,2.34,0,0,1,1.17-1,5.12,5.12,0,0,1,2-.32,6.38,6.38,0,0,1,2.6.52,5.64,5.64,0,0,1,1.13.66l-1.08,1.3a5.93,5.93,0,0,0-1.35-.65,4,4,0,0,0-1.3-.22,2.46,2.46,0,0,0-1.37.31,1.06,1.06,0,0,0-.45.93.63.63,0,0,0,.26.56,1.52,1.52,0,0,0,.65.24c.26,0,.64.08,1.13.11h.33a7.67,7.67,0,0,1,1.63.25,2.18,2.18,0,0,1,1.13.77,2.61,2.61,0,0,1,.46,1.65,2.87,2.87,0,0,1-.43,1.63,2.54,2.54,0,0,1-1.27,1,5.9,5.9,0,0,1-2.13.32A7.23,7.23,0,0,1,353.51,1019.42Z"/><path class="cls-3" d="M362.84,1019.42a5.76,5.76,0,0,1-1.32-.48,5.17,5.17,0,0,1-1.14-.79l1.07-1.31a5.52,5.52,0,0,0,1.47.84,3.89,3.89,0,0,0,1.44.29,3,3,0,0,0,1.59-.33,1.08,1.08,0,0,0,.53-1,.74.74,0,0,0-.29-.66,1.57,1.57,0,0,0-.72-.3c-.28-.05-.69-.09-1.21-.13h-.44a7,7,0,0,1-1.5-.26,2,2,0,0,1-1-.71,2.35,2.35,0,0,1-.4-1.48,3,3,0,0,1,.39-1.61,2.36,2.36,0,0,1,1.18-1,5.06,5.06,0,0,1,2-.32,6.68,6.68,0,0,1,1.36.13,6.3,6.3,0,0,1,1.23.39,6,6,0,0,1,1.14.66l-1.09,1.3a5.56,5.56,0,0,0-1.35-.65,4,4,0,0,0-1.29-.22,2.42,2.42,0,0,0-1.37.31,1,1,0,0,0-.46.93.66.66,0,0,0,.26.56,1.52,1.52,0,0,0,.65.24c.27,0,.64.08,1.13.11H365a7.57,7.57,0,0,1,1.63.25,2.14,2.14,0,0,1,1.13.77,2.55,2.55,0,0,1,.46,1.65,3,3,0,0,1-.42,1.63,2.59,2.59,0,0,1-1.27,1,6,6,0,0,1-2.13.32A7.32,7.32,0,0,1,362.84,1019.42Z"/><path class="cls-3" d="M370.86,1018.88a2.62,2.62,0,0,1-.83-2.13,2.57,2.57,0,0,1,.76-2,3.41,3.41,0,0,1,2.31-.67h2.59l.13,1.44h-2.71a1.51,1.51,0,0,0-1.05.31,1.23,1.23,0,0,0-.35,1,1.19,1.19,0,0,0,.46,1,2.44,2.44,0,0,0,1.41.34,4.2,4.2,0,0,0,1.53-.22.73.73,0,0,0,.51-.69l.18,1.28a2.12,2.12,0,0,1-.58.61,2.6,2.6,0,0,1-.81.36,4.58,4.58,0,0,1-1,.11A3.91,3.91,0,0,1,370.86,1018.88Zm4.76-5.22a1.91,1.91,0,0,0-.48-1.39,1.82,1.82,0,0,0-1.36-.5,3.57,3.57,0,0,0-1.07.17,3.11,3.11,0,0,0-.93.46l-1.31-.89a3.57,3.57,0,0,1,1.37-1,5,5,0,0,1,1.89-.34,4.31,4.31,0,0,1,1.94.4,2.71,2.71,0,0,1,1.23,1.16,3.72,3.72,0,0,1,.42,1.83v5.86h-1.7Z"/><path class="cls-3" d="M381.23,1019.17a2.82,2.82,0,0,1-1.08-1.27,4.91,4.91,0,0,1-.37-2v-2a5,5,0,0,1,.36-2,2.71,2.71,0,0,1,1.05-1.27,3,3,0,0,1,1.66-.44,2.74,2.74,0,0,1,1.48.42,3.14,3.14,0,0,1,1.09,1.19l-.19,1.86a2.19,2.19,0,0,0-.21-1,1.43,1.43,0,0,0-.61-.63,2.07,2.07,0,0,0-1-.21,1.75,1.75,0,0,0-1.38.55,2.31,2.31,0,0,0-.49,1.56v2a2.21,2.21,0,0,0,.49,1.53,1.75,1.75,0,0,0,1.38.55,2,2,0,0,0,1-.23,1.45,1.45,0,0,0,.61-.64,2.29,2.29,0,0,0,.21-1l.12,1.93a2.5,2.5,0,0,1-.89,1.13,2.45,2.45,0,0,1-1.52.46A3.19,3.19,0,0,1,381.23,1019.17Zm0,3.6a3,3,0,0,1-1.26-1.08l1.21-1.1a2.48,2.48,0,0,0,.84.75,2.1,2.1,0,0,0,1,.26,2.14,2.14,0,0,0,1.59-.56,2.22,2.22,0,0,0,.56-1.61v-9.11H387v8.85a4.58,4.58,0,0,1-.46,2.15,3.11,3.11,0,0,1-1.34,1.37,4.46,4.46,0,0,1-2.12.46A4.35,4.35,0,0,1,381.26,1022.77Z"/><path class="cls-3" d="M391.32,1019.1a3.15,3.15,0,0,1-1.36-1.39,4.78,4.78,0,0,1-.48-2.22v-1a5.4,5.4,0,0,1,.46-2.31,3.22,3.22,0,0,1,1.31-1.46,4,4,0,0,1,2.08-.5,3.3,3.3,0,0,1,1.95.57,3.5,3.5,0,0,1,1.23,1.65,7,7,0,0,1,.43,2.59v.6h-6.15v-1.44h4.44a3.1,3.1,0,0,0-.57-1.74,1.63,1.63,0,0,0-1.33-.62,2,2,0,0,0-1.58.67,2.9,2.9,0,0,0-.56,1.89v1.16a2.36,2.36,0,0,0,.6,1.74,2.25,2.25,0,0,0,1.69.61,2.71,2.71,0,0,0,1.08-.22,3,3,0,0,0,1-.62l1.18,1.18a4.92,4.92,0,0,1-1.52,1,4.28,4.28,0,0,1-1.7.35A4.53,4.53,0,0,1,391.32,1019.1Z"/><path class="cls-3" d="M362.35,962.18c-7.57,0-13.71,5-13.71,11.15a9.94,9.94,0,0,0,3.05,7,13.77,13.77,0,0,1-2.93,5.13.42.42,0,0,0-.08.47.41.41,0,0,0,.39.25,12.26,12.26,0,0,0,7.53-2.75,16.32,16.32,0,0,0,5.75,1c7.58,0,13.72-5,13.72-11.14S369.93,962.18,362.35,962.18Z"/><path class="cls-3" d="M431.22,1006.66H433v12.78h-1.79Zm.92,6.12h4.09a1.89,1.89,0,0,0,1-.27,1.79,1.79,0,0,0,.68-.78,2.6,2.6,0,0,0,.24-1.15,2.67,2.67,0,0,0-.24-1.16,1.82,1.82,0,0,0-1.7-1h-4.09v-1.71h4a4.1,4.1,0,0,1,2,.49,3.39,3.39,0,0,1,1.35,1.38,4.64,4.64,0,0,1,0,4.11,3.4,3.4,0,0,1-1.35,1.36,4.1,4.1,0,0,1-2,.49h-4Z"/><path class="cls-3" d="M441.81,1010.32h1.79v9.12h-1.79Zm4.42,1.72a2.16,2.16,0,0,0-.83-.15,1.83,1.83,0,0,0-1.33.47,1.79,1.79,0,0,0-.47,1.31l-.18-1.76a3.32,3.32,0,0,1,1.09-1.27,2.61,2.61,0,0,1,1.48-.45,3.39,3.39,0,0,1,1.13.18,2.62,2.62,0,0,1,.88.53l-1.17,1.58A1.56,1.56,0,0,0,446.23,1012Z"/><path class="cls-3" d="M450.79,1019.11a3,3,0,0,1-1.29-1.36,4.71,4.71,0,0,1-.45-2.15v-1.48a4.65,4.65,0,0,1,.45-2.13,3,3,0,0,1,1.29-1.34,4.12,4.12,0,0,1,2-.46,4.17,4.17,0,0,1,2,.46,3.07,3.07,0,0,1,1.28,1.34,4.65,4.65,0,0,1,.45,2.13v1.51a4.65,4.65,0,0,1-.45,2.13,3,3,0,0,1-1.28,1.35,4.17,4.17,0,0,1-2,.46A4.12,4.12,0,0,1,450.79,1019.11Zm3.48-1.83a2.43,2.43,0,0,0,.51-1.65v-1.51a2.43,2.43,0,0,0-.51-1.65,2.12,2.12,0,0,0-2.91,0,2.43,2.43,0,0,0-.51,1.65v1.51a2.43,2.43,0,0,0,.51,1.65,2.09,2.09,0,0,0,2.91,0Z"/><path class="cls-3" d="M458.42,1010.32H463v1.53h-4.56Zm1-1.24a2.63,2.63,0,0,1,.56-1.82,2.23,2.23,0,0,1,1.72-.6H463v1.71H461.7a.44.44,0,0,0-.39.19,1,1,0,0,0-.13.5v10.38h-1.79Z"/><path class="cls-3" d="M465.09,1006.66h1.8v1.8h-1.8Zm0,3.66h1.8v9.12h-1.8Z"/><path class="cls-3" d="M471.4,1017.09a.78.78,0,0,0,.15.51.5.5,0,0,0,.41.18h.84v1.71h-1.05a2,2,0,0,1-1.58-.64,2.6,2.6,0,0,1-.56-1.78v-10.41h1.79Z"/><path class="cls-3" d="M476.4,1019.1a3.17,3.17,0,0,1-1.37-1.39,4.91,4.91,0,0,1-.47-2.22v-1a5.41,5.41,0,0,1,.45-2.31,3.18,3.18,0,0,1,1.32-1.46,4,4,0,0,1,2.07-.5,3.3,3.3,0,0,1,2,.57,3.58,3.58,0,0,1,1.24,1.65A7.17,7.17,0,0,1,482,1015v.6h-6.15v-1.44h4.45a3.18,3.18,0,0,0-.58-1.74,1.62,1.62,0,0,0-1.33-.62,2,2,0,0,0-1.58.67,2.9,2.9,0,0,0-.56,1.89v1.16a2.36,2.36,0,0,0,.6,1.74,2.27,2.27,0,0,0,1.7.61,2.78,2.78,0,0,0,1.08-.22,3,3,0,0,0,1-.62l1.18,1.18a5,5,0,0,1-1.53,1,4.23,4.23,0,0,1-1.69.35A4.48,4.48,0,0,1,476.4,1019.1Z"/><path class="cls-3" d="M456.36,974.18a6,6,0,1,0-6-6A6,6,0,0,0,456.36,974.18Zm4.34,1.59h-.78a7.8,7.8,0,0,1-6.84,0h-.78a6.3,6.3,0,0,0-6.3,6.3v2.45a2.25,2.25,0,0,0,2.25,2.25h16.5a2.25,2.25,0,0,0,2.25-2.25v-2.45A6.3,6.3,0,0,0,460.7,975.77Z"/><path class="cls-3" d="M135.24,1002.4h3.21v17h-3.21Zm1.4,14h5.44a2.55,2.55,0,0,0,1.71-.53,1.91,1.91,0,0,0,.6-1.5v0a2.17,2.17,0,0,0-.27-1.11,1.73,1.73,0,0,0-.79-.69,3,3,0,0,0-1.25-.24h-5.44v-3.1h5.44a2.16,2.16,0,0,0,1.54-.5,1.86,1.86,0,0,0,.55-1.42,1.6,1.6,0,0,0-.55-1.28,2.36,2.36,0,0,0-1.54-.45h-5.44v-3.1h5.55a6.54,6.54,0,0,1,2.82.55,3.93,3.93,0,0,1,1.78,1.58,4.79,4.79,0,0,1,.61,2.49,3.83,3.83,0,0,1-.39,1.76,3.14,3.14,0,0,1-1.14,1.26,4.7,4.7,0,0,1-1.81.67,4.49,4.49,0,0,1,1.93.69,3.49,3.49,0,0,1,1.22,1.39,4.58,4.58,0,0,1,.41,2v0a4.86,4.86,0,0,1-.61,2.51,4,4,0,0,1-1.8,1.59,6.71,6.71,0,0,1-2.83.54h-5.74Z"/><path class="cls-3" d="M150.49,1007.28h3.45v12.16h-3.45Zm6.27,3a2.57,2.57,0,0,0-.78-.11,1.9,1.9,0,0,0-1.51.62,2.64,2.64,0,0,0-.53,1.74l-.25-3.16a4.29,4.29,0,0,1,1.31-1.69,2.83,2.83,0,0,1,1.76-.61,3.77,3.77,0,0,1,1.38.24,3,3,0,0,1,1.07.71l-1.87,2.62A1.5,1.5,0,0,0,156.76,1010.31Z"/><path class="cls-3" d="M162.56,1019a4.17,4.17,0,0,1-1.79-1.81,6.2,6.2,0,0,1-.62-2.87v-2a6.06,6.06,0,0,1,.62-2.83,4.13,4.13,0,0,1,1.79-1.79,6.81,6.81,0,0,1,5.68,0,4.2,4.2,0,0,1,1.8,1.79,6.06,6.06,0,0,1,.61,2.83v2a6.08,6.08,0,0,1-.61,2.84,4.28,4.28,0,0,1-1.8,1.8,6.81,6.81,0,0,1-5.68,0Zm4.34-3a2.25,2.25,0,0,0,.54-1.6v-2a2.18,2.18,0,0,0-.54-1.58,2.3,2.3,0,0,0-3,0,2.22,2.22,0,0,0-.53,1.58v2a2.29,2.29,0,0,0,.53,1.6,2,2,0,0,0,1.5.56A2,2,0,0,0,166.9,1016Z"/><path class="cls-3" d="M172.06,1007.28h3.08l2.15,7.51,2.57-7.51h1.9l2.57,7.51,2.15-7.51h3.08l-3.75,12.16h-2.39l-2.61-7.93-2.61,7.93h-2.39Z"/><path class="cls-3" d="M194.21,1019.42a9.09,9.09,0,0,1-1.94-.56,6.81,6.81,0,0,1-1.59-.91l2-2.47a7.37,7.37,0,0,0,1.84.87,6.14,6.14,0,0,0,1.83.3,4.71,4.71,0,0,0,1.74-.25c.42-.17.62-.4.62-.7a.74.74,0,0,0-.27-.62,1.68,1.68,0,0,0-.69-.3,11.88,11.88,0,0,0-1.18-.15l-.43,0-.44-.05-.1,0h-.1a13.94,13.94,0,0,1-2.18-.43,2.9,2.9,0,0,1-1.39-1,3.44,3.44,0,0,1-.56-2.12,3.66,3.66,0,0,1,.58-2.09,3.62,3.62,0,0,1,1.7-1.32,7.19,7.19,0,0,1,2.7-.45,9.59,9.59,0,0,1,3.61.73,7.94,7.94,0,0,1,1.55.84l-1.91,2.33a8.31,8.31,0,0,0-1.66-.69,6.22,6.22,0,0,0-1.66-.24,4.11,4.11,0,0,0-1.52.22c-.36.15-.53.36-.53.62a.54.54,0,0,0,.28.48,2.17,2.17,0,0,0,.72.24c.28,0,.7.11,1.25.17l.21,0,.21,0h.21a15.19,15.19,0,0,1,2.31.42,3,3,0,0,1,1.51,1,3.51,3.51,0,0,1,.63,2.27,3.77,3.77,0,0,1-.61,2.17,3.72,3.72,0,0,1-1.78,1.37,7.42,7.42,0,0,1-2.82.48A11.29,11.29,0,0,1,194.21,1019.42Z"/><path class="cls-3" d="M206.33,1019a4.45,4.45,0,0,1-1.91-1.86,6.27,6.27,0,0,1-.65-3v-1.37a7,7,0,0,1,.62-3.08,4.38,4.38,0,0,1,1.83-2,6,6,0,0,1,2.9-.67,4.61,4.61,0,0,1,2.73.8,4.86,4.86,0,0,1,1.73,2.31,10.05,10.05,0,0,1,.59,3.67v.79h-8.32v-2.17h5.39l0-.28a2.93,2.93,0,0,0-.66-1.63,1.87,1.87,0,0,0-1.43-.57,2.34,2.34,0,0,0-1.8.69,2.82,2.82,0,0,0-.63,2v1.55a2.6,2.6,0,0,0,.69,1.92,2.71,2.71,0,0,0,2,.68,3.8,3.8,0,0,0,1.28-.23,3.84,3.84,0,0,0,1.15-.65l2.1,1.86a7,7,0,0,1-2.14,1.34,6.26,6.26,0,0,1-2.39.48A6.45,6.45,0,0,1,206.33,1019Z"/><circle class="cls-4" cx="174" cy="949.8" r="40"/><path class="cls-3" d="M158,949.56V936.8a3,3,0,0,1,3-3h12.76a3,3,0,0,1,2.12.88l13.24,13.24a3,3,0,0,1,0,4.24l-12.76,12.76a3,3,0,0,1-4.24,0l-13.24-13.24A3,3,0,0,1,158,949.56Zm7.63-11.21a3,3,0,1,0,3,3A3,3,0,0,0,165.63,938.35Z"/><path d="M161.36,188.57H164v14.2h-2.64Zm1.16,11.62H167a2.06,2.06,0,0,0,1.4-.44,1.59,1.59,0,0,0,.49-1.25v0a1.79,1.79,0,0,0-.22-.92A1.48,1.48,0,0,0,168,197a2.41,2.41,0,0,0-1-.2h-4.46V194.2H167a1.76,1.76,0,0,0,1.26-.42,1.55,1.55,0,0,0,.45-1.19,1.31,1.31,0,0,0-.45-1.06,1.9,1.9,0,0,0-1.26-.38h-4.46v-2.58h4.54a5.42,5.42,0,0,1,2.32.45,3.3,3.3,0,0,1,1.46,1.32,4,4,0,0,1,.5,2.08,3.18,3.18,0,0,1-.32,1.47,2.7,2.7,0,0,1-.94,1.05,3.68,3.68,0,0,1-1.48.55,3.73,3.73,0,0,1,1.59.58,2.93,2.93,0,0,1,1,1.15,3.92,3.92,0,0,1,.34,1.65v0A4,4,0,0,1,171,201a3.16,3.16,0,0,1-1.47,1.32,5.3,5.3,0,0,1-2.32.46h-4.71Z"/><path d="M175.57,202.4a3.51,3.51,0,0,1-1.47-1.51,5.18,5.18,0,0,1-.5-2.39v-1.65a5.08,5.08,0,0,1,.5-2.36,3.47,3.47,0,0,1,1.47-1.49,5.6,5.6,0,0,1,4.67,0,3.47,3.47,0,0,1,1.47,1.49,5.2,5.2,0,0,1,.5,2.36v1.68a5.19,5.19,0,0,1-.5,2.37,3.55,3.55,0,0,1-1.47,1.5,5.5,5.5,0,0,1-4.67,0Zm3.57-2.54a1.89,1.89,0,0,0,.44-1.33v-1.68a1.9,1.9,0,0,0-.44-1.32,1.65,1.65,0,0,0-1.25-.47,1.6,1.6,0,0,0-1.22.47,1.9,1.9,0,0,0-.44,1.32v1.68a1.93,1.93,0,0,0,.43,1.33,1.58,1.58,0,0,0,1.23.48A1.62,1.62,0,0,0,179.14,199.86Z"/><path d="M184.93,202.14a3.16,3.16,0,0,1-.79-2.36,2.76,2.76,0,0,1,.89-2.25,4,4,0,0,1,2.66-.76h2.5l.14,2H187.7a1.41,1.41,0,0,0-.89.24.89.89,0,0,0-.3.73.82.82,0,0,0,.38.74,2.13,2.13,0,0,0,1.13.24,3.68,3.68,0,0,0,1.57-.25.79.79,0,0,0,.52-.76l.2,1.48a1.35,1.35,0,0,1-.5.92,2.77,2.77,0,0,1-1.09.58,5.24,5.24,0,0,1-1.39.19A3.3,3.3,0,0,1,184.93,202.14Zm5.18-5.8a1.35,1.35,0,0,0-.46-1.08,2,2,0,0,0-1.31-.38,3.58,3.58,0,0,0-1.11.18,3.47,3.47,0,0,0-1,.52L184.63,194a3.93,3.93,0,0,1,1.57-1.08,5.87,5.87,0,0,1,2.18-.38,5.07,5.07,0,0,1,2.23.44,3.27,3.27,0,0,1,1.41,1.29,4.05,4.05,0,0,1,.48,2v6.51h-2.39Z"/><path d="M195.1,192.63h2.83v10.14H195.1Zm5.15,2.53a2.16,2.16,0,0,0-.65-.1,1.55,1.55,0,0,0-1.24.53,2.2,2.2,0,0,0-.43,1.45l-.2-2.64A3.48,3.48,0,0,1,198.8,193a2.3,2.3,0,0,1,1.45-.5,3,3,0,0,1,1.13.2,2.48,2.48,0,0,1,.88.59l-1.54,2.18A1.22,1.22,0,0,0,200.25,195.16Z"/><path d="M204.57,202.4a3.19,3.19,0,0,1-1.15-1.5,6.38,6.38,0,0,1-.4-2.37v-1.62a6.53,6.53,0,0,1,.4-2.39,3,3,0,0,1,3-2,2.43,2.43,0,0,1,1.46.48,3.39,3.39,0,0,1,1.06,1.37l-.2,2.25a2.09,2.09,0,0,0-.17-.88,1.24,1.24,0,0,0-.51-.55,1.55,1.55,0,0,0-.8-.19,1.38,1.38,0,0,0-1.15.51,2.26,2.26,0,0,0-.41,1.44v1.61a2.17,2.17,0,0,0,.41,1.41,1.4,1.4,0,0,0,1.15.5,1.66,1.66,0,0,0,.8-.19,1.21,1.21,0,0,0,.51-.54,2,2,0,0,0,.17-.85l.13,2.32a2.64,2.64,0,0,1-.94,1.28,2.55,2.55,0,0,1-1.51.46A3.16,3.16,0,0,1,204.57,202.4Zm4.13-13.83h2.63v14.2H208.7Z"/><path d="M229.36,194.83v2.77a5.92,5.92,0,0,1-.63,2.79,4.49,4.49,0,0,1-1.79,1.87,5.29,5.29,0,0,1-2.67.66,5.72,5.72,0,0,1-2.7-.62,4.45,4.45,0,0,1-1.81-1.76,5.3,5.3,0,0,1-.64-2.62v-4.19a5.92,5.92,0,0,1,.63-2.79,4.52,4.52,0,0,1,1.79-1.86,5.29,5.29,0,0,1,2.67-.66,5.16,5.16,0,0,1,2.31.53,4.74,4.74,0,0,1,1.76,1.48,5.33,5.33,0,0,1,1,2.21h-2.85a1.75,1.75,0,0,0-.47-.77,2.13,2.13,0,0,0-.78-.5,2.47,2.47,0,0,0-.93-.17,2.34,2.34,0,0,0-1.23.31,2,2,0,0,0-.83.89,2.83,2.83,0,0,0-.3,1.33v4.19a2.26,2.26,0,0,0,.3,1.17,2,2,0,0,0,.85.78,2.86,2.86,0,0,0,1.27.27,2.47,2.47,0,0,0,1.24-.3,2,2,0,0,0,.83-.86,2.94,2.94,0,0,0,.29-1.34v-.23h-2.12v-2.58Z"/><path d="M232.27,202.14a3.16,3.16,0,0,1-.8-2.36,2.79,2.79,0,0,1,.89-2.25,4,4,0,0,1,2.67-.76h2.5l.14,2H235a1.37,1.37,0,0,0-.89.24.89.89,0,0,0-.3.73.82.82,0,0,0,.37.74,2.15,2.15,0,0,0,1.14.24,3.71,3.71,0,0,0,1.57-.25.79.79,0,0,0,.51-.76l.21,1.48a1.39,1.39,0,0,1-.5.92,2.84,2.84,0,0,1-1.09.58,5.3,5.3,0,0,1-1.39.19A3.27,3.27,0,0,1,232.27,202.14Zm5.17-5.8a1.32,1.32,0,0,0-.46-1.08,2,2,0,0,0-1.3-.38,3.49,3.49,0,0,0-1.11.18,3.33,3.33,0,0,0-1,.52L232,194a4,4,0,0,1,1.58-1.08,5.82,5.82,0,0,1,2.17-.38,5,5,0,0,1,2.23.44,3.16,3.16,0,0,1,1.41,1.29,4,4,0,0,1,.49,2v6.51h-2.4Z"/><path d="M242.44,192.63h2.63v10.14h-2.63Zm5.81,4.29a2,2,0,0,0-.43-1.37,1.56,1.56,0,0,0-1.22-.49,1.49,1.49,0,0,0-1.13.42,1.61,1.61,0,0,0-.4,1.17l-.2-2.25A3.64,3.64,0,0,1,246,193a2.57,2.57,0,0,1,1.55-.48,3.19,3.19,0,0,1,1.82.51,3.28,3.28,0,0,1,1.15,1.52,6.54,6.54,0,0,1,.39,2.39v5.86h-2.64Zm5.82,0a2,2,0,0,0-.42-1.37,1.68,1.68,0,0,0-2.35,0,1.94,1.94,0,0,0-.41,1.31l-.49-2.34a3.66,3.66,0,0,1,1.23-1.49,2.85,2.85,0,0,1,1.67-.52,3.27,3.27,0,0,1,1.85.51,3.23,3.23,0,0,1,1.16,1.52,6.33,6.33,0,0,1,.4,2.39v5.86h-2.64Z"/><path d="M261.12,202.38a3.54,3.54,0,0,1-1.56-1.55,5.18,5.18,0,0,1-.54-2.45v-1.15a5.92,5.92,0,0,1,.51-2.57A3.58,3.58,0,0,1,261,193a4.79,4.79,0,0,1,2.38-.55,3.78,3.78,0,0,1,2.24.66,4.08,4.08,0,0,1,1.42,1.93,8.37,8.37,0,0,1,.49,3v.66h-6.83V197h4.42l0-.24a2.38,2.38,0,0,0-.54-1.35,1.5,1.5,0,0,0-1.17-.48,1.9,1.9,0,0,0-1.47.57,2.35,2.35,0,0,0-.53,1.63v1.29A2.18,2.18,0,0,0,262,200a2.23,2.23,0,0,0,1.6.56,2.91,2.91,0,0,0,1.05-.19,3.44,3.44,0,0,0,.95-.54l1.72,1.55a5.8,5.8,0,0,1-1.75,1.12,5.25,5.25,0,0,1-2,.4A5.2,5.2,0,0,1,261.12,202.38Z"/><path d="M271.94,202.75a7.25,7.25,0,0,1-1.58-.47,5.9,5.9,0,0,1-1.31-.75l1.62-2.06a6.52,6.52,0,0,0,1.51.72,4.93,4.93,0,0,0,1.5.26,3.91,3.91,0,0,0,1.44-.21c.34-.14.51-.34.51-.59a.63.63,0,0,0-.22-.51,1.36,1.36,0,0,0-.57-.25,7.18,7.18,0,0,0-1-.13l-.35,0-.37,0-.08,0H273a11.4,11.4,0,0,1-1.79-.36,2.32,2.32,0,0,1-1.14-.83,2.89,2.89,0,0,1-.46-1.77,3.06,3.06,0,0,1,.48-1.74,3,3,0,0,1,1.39-1.1,5.84,5.84,0,0,1,2.21-.37,7.83,7.83,0,0,1,1.52.15,9,9,0,0,1,1.45.45,7.39,7.39,0,0,1,1.27.7l-1.56,2a6.33,6.33,0,0,0-1.37-.58,5.15,5.15,0,0,0-1.36-.2,3.35,3.35,0,0,0-1.24.18c-.3.13-.45.3-.45.52a.45.45,0,0,0,.24.4,1.78,1.78,0,0,0,.59.2c.23,0,.57.09,1,.14l.17,0,.18,0h.17a12,12,0,0,1,1.89.35,2.49,2.49,0,0,1,1.25.86,3,3,0,0,1,.51,1.9,3,3,0,0,1-2,3,6.14,6.14,0,0,1-2.32.4A9.16,9.16,0,0,1,271.94,202.75Z"/><path d="M120,181h-4v4h4Zm-16,4v4h4v-4Zm8-4h-4v4h4Zm4,16v4h4v-4Zm-12-4v4h4v-4Zm24-12h-4v4h4Zm8,0h-4v4h4Zm-24,16h-4v4h4Zm24,12v-4h-4v4Zm0-8v-4h-4v4Zm-8,12h4v-4h-4Zm8-20v-4h-4v4Zm-24,20h4v-4h-4Zm-8,0h4v-4h-4Zm16,0h4v-4h-4Zm-16-12v4h4v-4Zm20-12v-4h-4v4Zm-4,8h4v-4h-4Zm-4,8v4h4v-4Zm8-4h4v-4h-4Zm0-8h4v-4h-4Zm0,12v4h4v-4Zm-16,0v4h4v-4Zm8-16v-4h-4v4Zm12,16h4v-4h-4Zm-8-12v-4h-4v4Zm8-8v4h4v-4Zm-8,16v4h4v-4Zm-4-8h-4v4h4Zm12,4h4v-4h-4Zm-16-8h-4v4h4Zm0,12v4h4v-4Z"/><line class="cls-5" x1="88" y1="237" x2="449" y2="237"/><path class="cls-4" d="M439.68,195.25h-5.11v-5.11a1.14,1.14,0,0,0-1.14-1.14h-1.22a1.14,1.14,0,0,0-1.14,1.14v5.11H426a1.14,1.14,0,0,0-1.14,1.14v1.22a1.14,1.14,0,0,0,1.14,1.14h5.11v5.11a1.14,1.14,0,0,0,1.14,1.14h1.22a1.14,1.14,0,0,0,1.14-1.14v-5.11h5.11a1.14,1.14,0,0,0,1.14-1.14v-1.22A1.14,1.14,0,0,0,439.68,195.25Z"/><path d="M161.36,268.57H164v14.2h-2.64Zm1,0h8.23v2.58h-8.23Zm0,6h7.17v2.57h-7.17Z"/><path d="M172.33,268.57H175v2.68h-2.63Zm0,4.06H175v10.14h-2.63Z"/><path d="M180.05,279.42a.74.74,0,0,0,.21.57.81.81,0,0,0,.59.2h.44v2.58h-1.35a2.46,2.46,0,0,1-1.86-.7,2.75,2.75,0,0,1-.67-2V268.57h2.64Z"/><path d="M183,272.63h2.64v10.14H183Zm5.82,4.29a2,2,0,0,0-.43-1.37,1.58,1.58,0,0,0-1.23-.49,1.5,1.5,0,0,0-1.13.42,1.65,1.65,0,0,0-.39,1.17l-.21-2.25a3.83,3.83,0,0,1,1.11-1.43,2.58,2.58,0,0,1,1.56-.48,3.16,3.16,0,0,1,1.81.51,3.22,3.22,0,0,1,1.15,1.52,6.54,6.54,0,0,1,.39,2.39v5.86h-2.63Zm5.82,0a2,2,0,0,0-.42-1.37,1.51,1.51,0,0,0-1.19-.49,1.48,1.48,0,0,0-1.17.47,1.94,1.94,0,0,0-.41,1.31L191,274.5a3.83,3.83,0,0,1,1.23-1.49,2.86,2.86,0,0,1,1.68-.52,3.23,3.23,0,0,1,1.84.51,3.17,3.17,0,0,1,1.16,1.52,6.33,6.33,0,0,1,.4,2.39v5.86h-2.63Z"/><path d="M205.49,282.14a3.16,3.16,0,0,1-.79-2.36,2.76,2.76,0,0,1,.89-2.25,4,4,0,0,1,2.67-.76h2.5l.13,2h-2.62a1.42,1.42,0,0,0-.9.24.89.89,0,0,0-.3.73.82.82,0,0,0,.38.74,2.13,2.13,0,0,0,1.13.24,3.76,3.76,0,0,0,1.58-.25.79.79,0,0,0,.51-.76l.2,1.48a1.38,1.38,0,0,1-.49.92,2.82,2.82,0,0,1-1.1.58,5.24,5.24,0,0,1-1.39.19A3.3,3.3,0,0,1,205.49,282.14Zm5.18-5.8a1.32,1.32,0,0,0-.46-1.08,2,2,0,0,0-1.31-.38,3.37,3.37,0,0,0-2.08.7L205.19,274a4,4,0,0,1,1.58-1.08,5.78,5.78,0,0,1,2.17-.38,5,5,0,0,1,2.23.44,3.16,3.16,0,0,1,1.41,1.29,4.05,4.05,0,0,1,.49,2v6.51h-2.4Z"/><path d="M215.66,272.63h2.64v10.14h-2.64Zm5.77,4a1.56,1.56,0,0,0-.42-1.16,1.63,1.63,0,0,0-1.18-.41,1.47,1.47,0,0,0-1.13.42,1.61,1.61,0,0,0-.4,1.17l-.2-2.25a3.78,3.78,0,0,1,1.08-1.44,2.58,2.58,0,0,1,1.58-.47,3,3,0,0,1,2.44,1.08,4.72,4.72,0,0,1,.87,3.05v6.15h-2.64Z"/><path d="M227.92,282.4a3.26,3.26,0,0,1-1.15-1.5,6.39,6.39,0,0,1-.39-2.37v-1.62a6.54,6.54,0,0,1,.39-2.39,3.22,3.22,0,0,1,1.15-1.52,3.16,3.16,0,0,1,1.81-.51,2.43,2.43,0,0,1,1.46.48,3.39,3.39,0,0,1,1.06,1.37l-.2,2.25a2.09,2.09,0,0,0-.17-.88,1.24,1.24,0,0,0-.51-.55,1.55,1.55,0,0,0-.8-.19,1.38,1.38,0,0,0-1.15.51,2.26,2.26,0,0,0-.41,1.44v1.61a2.17,2.17,0,0,0,.41,1.41,1.4,1.4,0,0,0,1.15.5,1.66,1.66,0,0,0,.8-.19,1.21,1.21,0,0,0,.51-.54,2,2,0,0,0,.17-.85l.13,2.32a2.58,2.58,0,0,1-.94,1.28,2.55,2.55,0,0,1-1.51.46A3.16,3.16,0,0,1,227.92,282.4Zm4.13-13.83h2.63v14.2h-2.63Z"/><path d="M241.32,268.57H244l3,9.47,3-9.47h2.71L248,282.77H246Z"/><path d="M254,268.57h2.63v2.68H254Zm0,4.06h2.63v10.14H254Z"/><path d="M260.33,282.4a3.26,3.26,0,0,1-1.15-1.5,6.39,6.39,0,0,1-.39-2.37v-1.62a6.54,6.54,0,0,1,.39-2.39,3.22,3.22,0,0,1,1.15-1.52,3.16,3.16,0,0,1,1.81-.51,2.43,2.43,0,0,1,1.46.48,3.39,3.39,0,0,1,1.06,1.37l-.2,2.25a2.09,2.09,0,0,0-.17-.88,1.24,1.24,0,0,0-.51-.55,1.55,1.55,0,0,0-.8-.19,1.39,1.39,0,0,0-1.15.51,2.26,2.26,0,0,0-.41,1.44v1.61a2.17,2.17,0,0,0,.41,1.41,1.41,1.41,0,0,0,1.15.5,1.66,1.66,0,0,0,.8-.19,1.21,1.21,0,0,0,.51-.54,2,2,0,0,0,.17-.85l.13,2.32a2.58,2.58,0,0,1-.94,1.28,2.53,2.53,0,0,1-1.51.46A3.16,3.16,0,0,1,260.33,282.4Zm4.13-13.83h2.64v14.2h-2.64Z"/><path d="M271.5,282.38a3.59,3.59,0,0,1-1.56-1.55,5.18,5.18,0,0,1-.54-2.45v-1.15a5.92,5.92,0,0,1,.52-2.57,3.58,3.58,0,0,1,1.5-1.62,4.79,4.79,0,0,1,2.38-.55,3.78,3.78,0,0,1,2.24.66,4.15,4.15,0,0,1,1.42,1.93,8.6,8.6,0,0,1,.48,3.05v.66h-6.82V277h4.42l0-.24a2.38,2.38,0,0,0-.54-1.35,1.5,1.5,0,0,0-1.17-.48,1.91,1.91,0,0,0-1.48.57,2.35,2.35,0,0,0-.52,1.63v1.29a2.18,2.18,0,0,0,.57,1.61,2.21,2.21,0,0,0,1.6.56,3,3,0,0,0,1-.19,3.24,3.24,0,0,0,.94-.54l1.72,1.55a5.57,5.57,0,0,1-1.75,1.12,5.2,5.2,0,0,1-2,.4A5.27,5.27,0,0,1,271.5,282.38Z"/><path d="M281.94,282.4a3.51,3.51,0,0,1-1.47-1.51,5.17,5.17,0,0,1-.51-2.39v-1.65a5.08,5.08,0,0,1,.51-2.36,3.47,3.47,0,0,1,1.47-1.49,5.58,5.58,0,0,1,4.66,0,3.44,3.44,0,0,1,1.48,1.49,5.2,5.2,0,0,1,.5,2.36v1.68a5.19,5.19,0,0,1-.5,2.37,3.51,3.51,0,0,1-1.48,1.5,5.48,5.48,0,0,1-4.66,0Zm3.56-2.54a1.85,1.85,0,0,0,.45-1.33v-1.68a1.85,1.85,0,0,0-.45-1.32,1.63,1.63,0,0,0-1.24-.47,1.6,1.6,0,0,0-1.22.47,1.85,1.85,0,0,0-.44,1.32v1.68a1.88,1.88,0,0,0,.43,1.33,1.58,1.58,0,0,0,1.23.48A1.6,1.6,0,0,0,285.5,279.86Z"/><line class="cls-5" x1="88" y1="317" x2="449" y2="317"/><path class="cls-4" d="M439.68,275.25h-5.11v-5.11a1.14,1.14,0,0,0-1.14-1.14h-1.22a1.14,1.14,0,0,0-1.14,1.14v5.11H426a1.14,1.14,0,0,0-1.14,1.14v1.22a1.14,1.14,0,0,0,1.14,1.14h5.11v5.11a1.14,1.14,0,0,0,1.14,1.14h1.22a1.14,1.14,0,0,0,1.14-1.14v-5.11h5.11a1.14,1.14,0,0,0,1.14-1.14v-1.22A1.14,1.14,0,0,0,439.68,275.25Z"/><path d="M170.16,348.57h3.47v14.2h-2.39v-11l.1.63-2.68,8.82h-2.33l-2.67-8.63.1-.82v11h-2.4v-14.2h3.47l2.67,9.57Z"/><path d="M179.15,358.79a1.54,1.54,0,0,0,.41,1.14,1.57,1.57,0,0,0,1.15.41,1.48,1.48,0,0,0,1.14-.42,1.61,1.61,0,0,0,.4-1.18l.14,2.21a3.2,3.2,0,0,1-.93,1.4,2.32,2.32,0,0,1-1.58.57,3.06,3.06,0,0,1-2.49-1.05,4.54,4.54,0,0,1-.87-3v-6.26h2.63Zm3.1-6.16h2.63v10.14h-2.63Z"/><path d="M189.55,362.75a7.5,7.5,0,0,1-1.59-.47,5.83,5.83,0,0,1-1.3-.75l1.62-2.06a6.52,6.52,0,0,0,1.51.72,4.93,4.93,0,0,0,1.5.26,3.85,3.85,0,0,0,1.43-.21c.34-.14.51-.34.51-.59a.6.6,0,0,0-.22-.51,1.26,1.26,0,0,0-.56-.25,7.36,7.36,0,0,0-1-.13l-.35,0-.36,0-.08,0h-.08a11.16,11.16,0,0,1-1.79-.36,2.32,2.32,0,0,1-1.14-.83,2.89,2.89,0,0,1-.47-1.77,2.9,2.9,0,0,1,1.88-2.84,5.84,5.84,0,0,1,2.21-.37,7.83,7.83,0,0,1,1.52.15,8.61,8.61,0,0,1,1.44.45,7.13,7.13,0,0,1,1.28.7L194,355.74a6.55,6.55,0,0,0-1.37-.58,5.22,5.22,0,0,0-1.37-.2,3.42,3.42,0,0,0-1.24.18c-.29.13-.44.3-.44.52a.45.45,0,0,0,.24.4,1.72,1.72,0,0,0,.58.2c.24,0,.58.09,1,.14l.17,0,.17,0h.18a12.18,12.18,0,0,1,1.89.35,2.53,2.53,0,0,1,1.25.86,3,3,0,0,1,.51,1.9,3.2,3.2,0,0,1-.5,1.8,3.09,3.09,0,0,1-1.46,1.15,6.14,6.14,0,0,1-2.32.4A9.09,9.09,0,0,1,189.55,362.75Z"/><path d="M197.54,348.57h2.64v2.68h-2.64Zm0,4.06h2.64v10.14h-2.64Z"/><path d="M204.41,362.36a3.61,3.61,0,0,1-1.54-1.6,5.67,5.67,0,0,1-.53-2.54v-1.09a5.51,5.51,0,0,1,.53-2.51,3.69,3.69,0,0,1,1.54-1.59,5.14,5.14,0,0,1,2.44-.54,6,6,0,0,1,1.55.19,4.59,4.59,0,0,1,1.3.55,3.52,3.52,0,0,1,1,.88l-1.7,1.68a2.73,2.73,0,0,0-.86-.54,2.94,2.94,0,0,0-1-.19,2.14,2.14,0,0,0-1.55.55,2.06,2.06,0,0,0-.54,1.52v1.09a1.9,1.9,0,0,0,2.09,2.12,2.58,2.58,0,0,0,1-.21,2.38,2.38,0,0,0,.85-.58l1.7,1.77a3.69,3.69,0,0,1-1,.87,4.57,4.57,0,0,1-1.3.54,6.31,6.31,0,0,1-1.54.19A5,5,0,0,1,204.41,362.36Z"/><line class="cls-5" x1="88" y1="717" x2="449" y2="717"/><path class="cls-4" d="M439.68,355.25h-5.11v-5.11a1.14,1.14,0,0,0-1.14-1.14h-1.22a1.14,1.14,0,0,0-1.14,1.14v5.11H426a1.14,1.14,0,0,0-1.14,1.14v1.22a1.14,1.14,0,0,0,1.14,1.14h5.11v5.11a1.14,1.14,0,0,0,1.14,1.14h1.22a1.14,1.14,0,0,0,1.14-1.14v-5.11h5.11a1.14,1.14,0,0,0,1.14-1.14v-1.22A1.14,1.14,0,0,0,439.68,355.25Z"/><path d="M159.44,748.57h10.25v2.58H159.44Zm3.81,1.16h2.63v13h-2.63Z"/><path d="M171.41,762.38a3.56,3.56,0,0,1-1.57-1.55,5.31,5.31,0,0,1-.53-2.45v-1.15a5.92,5.92,0,0,1,.51-2.57,3.63,3.63,0,0,1,1.5-1.62,4.79,4.79,0,0,1,2.38-.55,3.78,3.78,0,0,1,2.24.66,4.08,4.08,0,0,1,1.42,1.93,8.59,8.59,0,0,1,.49,3v.66H171V757h4.42l0-.24a2.35,2.35,0,0,0-.54-1.35,1.5,1.5,0,0,0-1.17-.48,1.92,1.92,0,0,0-1.48.57,2.4,2.4,0,0,0-.52,1.63v1.29a2.18,2.18,0,0,0,.57,1.61,2.21,2.21,0,0,0,1.6.56,2.91,2.91,0,0,0,1-.19,3.44,3.44,0,0,0,1-.54l1.72,1.55a5.8,5.8,0,0,1-1.75,1.12,5.29,5.29,0,0,1-2,.4A5.2,5.2,0,0,1,171.41,762.38Z"/><path d="M181.94,762.36a3.56,3.56,0,0,1-1.54-1.6,5.54,5.54,0,0,1-.53-2.54v-1.09a5.38,5.38,0,0,1,.53-2.51,3.64,3.64,0,0,1,1.54-1.59,5.11,5.11,0,0,1,2.44-.54,5.91,5.91,0,0,1,1.54.19,4.47,4.47,0,0,1,1.3.55,3.42,3.42,0,0,1,1,.88l-1.71,1.68a2.68,2.68,0,0,0-.85-.54,3,3,0,0,0-1-.19,2.12,2.12,0,0,0-1.55.55,2,2,0,0,0-.55,1.52v1.09a1.92,1.92,0,0,0,2.1,2.12,2.65,2.65,0,0,0,1-.21,2.35,2.35,0,0,0,.84-.58l1.71,1.77a3.73,3.73,0,0,1-1,.87,4.39,4.39,0,0,1-1.29.54,6.43,6.43,0,0,1-1.54.19A5,5,0,0,1,181.94,762.36Z"/><path d="M190,748.57h2.64v14.2H190Zm5.77,8.06a1.55,1.55,0,0,0-.41-1.16,1.65,1.65,0,0,0-1.19-.41,1.47,1.47,0,0,0-1.13.42,1.6,1.6,0,0,0-.4,1.17l-.2-2.25a3.78,3.78,0,0,1,1.08-1.44,2.6,2.6,0,0,1,1.58-.47,2.94,2.94,0,0,1,2.44,1.08,4.73,4.73,0,0,1,.87,3v6.15h-2.64Z"/><path d="M201,752.63h2.63v10.14H201Zm5.77,4a1.56,1.56,0,0,0-.42-1.16,1.65,1.65,0,0,0-1.19-.41,1.49,1.49,0,0,0-1.13.42,1.6,1.6,0,0,0-.4,1.17l-.2-2.25a3.78,3.78,0,0,1,1.08-1.44,2.6,2.6,0,0,1,1.58-.47,3,3,0,0,1,2.45,1.08,4.79,4.79,0,0,1,.86,3v6.15h-2.63Z"/><path d="M213.66,762.4a3.41,3.41,0,0,1-1.47-1.51,5.17,5.17,0,0,1-.51-2.39v-1.65a5.08,5.08,0,0,1,.51-2.36,3.36,3.36,0,0,1,1.47-1.49,5.58,5.58,0,0,1,4.66,0,3.36,3.36,0,0,1,1.47,1.49,5.08,5.08,0,0,1,.51,2.36v1.68a5.06,5.06,0,0,1-.51,2.37,3.44,3.44,0,0,1-1.47,1.5,5.48,5.48,0,0,1-4.66,0Zm3.56-2.54a1.89,1.89,0,0,0,.44-1.33v-1.68a1.9,1.9,0,0,0-.44-1.32,1.64,1.64,0,0,0-1.24-.47,1.6,1.6,0,0,0-1.23.47,1.9,1.9,0,0,0-.44,1.32v1.68a1.89,1.89,0,0,0,.44,1.33,1.58,1.58,0,0,0,1.23.48A1.61,1.61,0,0,0,217.22,759.86Z"/><path d="M225.34,759.42a.77.77,0,0,0,.2.57.84.84,0,0,0,.59.2h.45v2.58h-1.35a2.42,2.42,0,0,1-1.86-.7,2.75,2.75,0,0,1-.67-2V748.57h2.64Z"/><path d="M230.09,762.4a3.51,3.51,0,0,1-1.47-1.51,5.18,5.18,0,0,1-.5-2.39v-1.65a5.08,5.08,0,0,1,.5-2.36,3.47,3.47,0,0,1,1.47-1.49,5.6,5.6,0,0,1,4.67,0,3.47,3.47,0,0,1,1.47,1.49,5.2,5.2,0,0,1,.5,2.36v1.68a5.19,5.19,0,0,1-.5,2.37,3.55,3.55,0,0,1-1.47,1.5,5.5,5.5,0,0,1-4.67,0Zm3.57-2.54a1.89,1.89,0,0,0,.44-1.33v-1.68a1.9,1.9,0,0,0-.44-1.32,1.64,1.64,0,0,0-1.24-.47,1.6,1.6,0,0,0-1.23.47,1.9,1.9,0,0,0-.44,1.32v1.68a1.93,1.93,0,0,0,.43,1.33,1.58,1.58,0,0,0,1.24.48A1.61,1.61,0,0,0,233.66,759.86Z"/><path d="M240.39,762.4a3.33,3.33,0,0,1-1.15-1.5,6.39,6.39,0,0,1-.39-2.37v-1.62a6.54,6.54,0,0,1,.39-2.39,3.28,3.28,0,0,1,1.15-1.52,3.19,3.19,0,0,1,1.82-.51,2.4,2.4,0,0,1,1.45.48,3.4,3.4,0,0,1,1.07,1.37l-.21,2.25a2,2,0,0,0-.17-.88,1.17,1.17,0,0,0-.5-.55A1.59,1.59,0,0,0,243,755a1.41,1.41,0,0,0-1.15.51,2.26,2.26,0,0,0-.41,1.44v1.61a2.17,2.17,0,0,0,.41,1.41,1.43,1.43,0,0,0,1.15.5,1.7,1.7,0,0,0,.81-.19,1.14,1.14,0,0,0,.5-.54,1.82,1.82,0,0,0,.17-.85l.14,2.32a2.71,2.71,0,0,1-.94,1.28,2.57,2.57,0,0,1-1.51.46A3.19,3.19,0,0,1,240.39,762.4Zm.16,4.06a3.39,3.39,0,0,1-1.46-1.19l1.77-1.65a2.13,2.13,0,0,0,.81.57,2.53,2.53,0,0,0,1,.2,2,2,0,0,0,1.35-.46,1.6,1.6,0,0,0,.52-1.27v-10h2.64v9.84a5.05,5.05,0,0,1-.53,2.39,3.42,3.42,0,0,1-1.52,1.51,5.19,5.19,0,0,1-2.43.52A5,5,0,0,1,240.55,766.46Z"/><path d="M248.41,752.63h2.48l3.36,8.81-1.67,2.16Zm9.22,0-4.44,12.51a3.45,3.45,0,0,1-.62,1.1,2,2,0,0,1-.92.58,4.26,4.26,0,0,1-1.34.18h-.58v-2.6h.58a1.23,1.23,0,0,0,.71-.19,1.17,1.17,0,0,0,.43-.62l3.7-11Z"/><path d="M120,741h-4v4h4Zm-16,4v4h4v-4Zm8-4h-4v4h4Zm4,16v4h4v-4Zm-12-4v4h4v-4Zm24-12h-4v4h4Zm8,0h-4v4h4Zm-24,16h-4v4h4Zm24,12v-4h-4v4Zm0-8v-4h-4v4Zm-8,12h4v-4h-4Zm8-20v-4h-4v4Zm-24,20h4v-4h-4Zm-8,0h4v-4h-4Zm16,0h4v-4h-4Zm-16-12v4h4v-4Zm20-12v-4h-4v4Zm-4,8h4v-4h-4Zm-4,8v4h4v-4Zm8-4h4v-4h-4Zm0-8h4v-4h-4Zm0,12v4h4v-4Zm-16,0v4h4v-4Zm8-16v-4h-4v4Zm12,16h4v-4h-4Zm-8-12v-4h-4v4Zm8-8v4h4v-4Zm-8,16v4h4v-4Zm-4-8h-4v4h4Zm12,4h4v-4h-4Zm-16-8h-4v4h4Zm0,12v4h4v-4Z"/><line class="cls-5" x1="88" y1="797" x2="449" y2="797"/><path class="cls-4" d="M439.68,755.25h-5.11v-5.11a1.14,1.14,0,0,0-1.14-1.14h-1.22a1.14,1.14,0,0,0-1.14,1.14v5.11H426a1.14,1.14,0,0,0-1.14,1.14v1.22a1.14,1.14,0,0,0,1.14,1.14h5.11v5.11a1.14,1.14,0,0,0,1.14,1.14h1.22a1.14,1.14,0,0,0,1.14-1.14v-5.11h5.11a1.14,1.14,0,0,0,1.14-1.14v-1.22A1.14,1.14,0,0,0,439.68,755.25Z"/><path d="M161.36,828.57H164v14.2h-2.64Zm1.2,6.11H167a1.54,1.54,0,0,0,.83-.22,1.41,1.41,0,0,0,.56-.62,1.91,1.91,0,0,0,.2-.91,2.13,2.13,0,0,0-.19-.94,1.47,1.47,0,0,0-.56-.62,1.55,1.55,0,0,0-.84-.22h-4.48v-2.58H167a4.74,4.74,0,0,1,2.3.54,3.81,3.81,0,0,1,1.55,1.53,5.1,5.1,0,0,1,0,4.57,3.76,3.76,0,0,1-1.55,1.51,4.74,4.74,0,0,1-2.3.54h-4.41Z"/><path d="M173.43,828.57h2.64v14.2h-2.64Zm5.77,8.06a1.56,1.56,0,0,0-.42-1.16,1.63,1.63,0,0,0-1.18-.41,1.47,1.47,0,0,0-1.13.42,1.6,1.6,0,0,0-.4,1.17l-.2-2.25A3.78,3.78,0,0,1,177,833a2.58,2.58,0,0,1,1.58-.47,2.94,2.94,0,0,1,2.44,1.08,4.73,4.73,0,0,1,.87,3v6.15H179.2Z"/><path d="M186.12,842.4a3.51,3.51,0,0,1-1.47-1.51,5.18,5.18,0,0,1-.5-2.39v-1.65a5.08,5.08,0,0,1,.5-2.36,3.47,3.47,0,0,1,1.47-1.49,5.6,5.6,0,0,1,4.67,0,3.47,3.47,0,0,1,1.47,1.49,5.2,5.2,0,0,1,.5,2.36v1.68a5.19,5.19,0,0,1-.5,2.37,3.55,3.55,0,0,1-1.47,1.5,5.5,5.5,0,0,1-4.67,0Zm3.57-2.54a1.89,1.89,0,0,0,.44-1.33v-1.68a1.9,1.9,0,0,0-.44-1.32,1.65,1.65,0,0,0-1.25-.47,1.6,1.6,0,0,0-1.22.47,1.9,1.9,0,0,0-.44,1.32v1.68a1.93,1.93,0,0,0,.43,1.33,1.58,1.58,0,0,0,1.23.48A1.62,1.62,0,0,0,189.69,839.86Z"/><path d="M194.4,832.63h4.88v2.29H194.4Zm1.64,9.51a2.89,2.89,0,0,1-.61-2V829.68h2.63v9.79a.92.92,0,0,0,.15.57.48.48,0,0,0,.42.2h.65v2.58H198A2.45,2.45,0,0,1,196,842.14Z"/><path d="M203.28,842.4a3.46,3.46,0,0,1-1.47-1.51,5.17,5.17,0,0,1-.51-2.39v-1.65a5.08,5.08,0,0,1,.51-2.36,3.41,3.41,0,0,1,1.47-1.49,5.58,5.58,0,0,1,4.66,0,3.44,3.44,0,0,1,1.48,1.49,5.2,5.2,0,0,1,.5,2.36v1.68a5.19,5.19,0,0,1-.5,2.37,3.51,3.51,0,0,1-1.48,1.5,5.48,5.48,0,0,1-4.66,0Zm3.56-2.54a1.85,1.85,0,0,0,.45-1.33v-1.68a1.85,1.85,0,0,0-.45-1.32,1.63,1.63,0,0,0-1.24-.47,1.6,1.6,0,0,0-1.22.47,1.85,1.85,0,0,0-.44,1.32v1.68a1.88,1.88,0,0,0,.43,1.33,1.58,1.58,0,0,0,1.23.48A1.6,1.6,0,0,0,206.84,839.86Z"/><path d="M213.58,842.4a3.26,3.26,0,0,1-1.15-1.5,6.39,6.39,0,0,1-.39-2.37v-1.62a6.54,6.54,0,0,1,.39-2.39,3.22,3.22,0,0,1,1.15-1.52,3.16,3.16,0,0,1,1.81-.51,2.43,2.43,0,0,1,1.46.48,3.39,3.39,0,0,1,1.06,1.37l-.2,2.25a2.09,2.09,0,0,0-.17-.88,1.24,1.24,0,0,0-.51-.55,1.55,1.55,0,0,0-.8-.19,1.39,1.39,0,0,0-1.15.51,2.26,2.26,0,0,0-.41,1.44v1.61a2.17,2.17,0,0,0,.41,1.41,1.41,1.41,0,0,0,1.15.5,1.66,1.66,0,0,0,.8-.19,1.21,1.21,0,0,0,.51-.54,2,2,0,0,0,.17-.85l.13,2.32a2.58,2.58,0,0,1-.94,1.28,2.53,2.53,0,0,1-1.51.46A3.16,3.16,0,0,1,213.58,842.4Zm.15,4.06a3.36,3.36,0,0,1-1.45-1.19l1.77-1.65a2.17,2.17,0,0,0,.8.57,2.6,2.6,0,0,0,1,.2,2,2,0,0,0,1.36-.46,1.6,1.6,0,0,0,.52-1.27v-10h2.64v9.84a5.05,5.05,0,0,1-.53,2.39,3.49,3.49,0,0,1-1.53,1.51,5.19,5.19,0,0,1-2.43.52A5,5,0,0,1,213.73,846.46Z"/><path d="M222.94,832.63h2.83v10.14h-2.83Zm5.15,2.53a2.11,2.11,0,0,0-.65-.1,1.51,1.51,0,0,0-1.23.53,2.2,2.2,0,0,0-.44,1.45l-.2-2.64a3.48,3.48,0,0,1,1.07-1.41,2.3,2.3,0,0,1,1.45-.5,3,3,0,0,1,1.13.2,2.48,2.48,0,0,1,.88.59l-1.54,2.18A1.22,1.22,0,0,0,228.09,835.16Z"/><path d="M231.66,842.14a3.16,3.16,0,0,1-.79-2.36,2.76,2.76,0,0,1,.89-2.25,4,4,0,0,1,2.66-.76h2.51l.13,2h-2.63a1.41,1.41,0,0,0-.89.24.89.89,0,0,0-.3.73.82.82,0,0,0,.38.74,2.13,2.13,0,0,0,1.13.24,3.68,3.68,0,0,0,1.57-.25.79.79,0,0,0,.52-.76l.2,1.48a1.38,1.38,0,0,1-.49.92,2.74,2.74,0,0,1-1.1.57,4.86,4.86,0,0,1-1.39.2A3.3,3.3,0,0,1,231.66,842.14Zm5.18-5.8a1.32,1.32,0,0,0-.46-1.08,2,2,0,0,0-1.31-.38,3.58,3.58,0,0,0-1.11.18,3.47,3.47,0,0,0-1,.52L231.36,834a3.93,3.93,0,0,1,1.57-1.08,6.08,6.08,0,0,1,2.18-.38,5.07,5.07,0,0,1,2.23.44,3.27,3.27,0,0,1,1.41,1.29,4.05,4.05,0,0,1,.48,2v6.51h-2.39Z"/><path d="M241.83,832.63h2.64v14.26h-2.64Zm3.44,9.83a2.71,2.71,0,0,1-.94-1.28l.14-2.32a1.82,1.82,0,0,0,.17.85,1.14,1.14,0,0,0,.5.54,1.7,1.7,0,0,0,.81.19,1.43,1.43,0,0,0,1.15-.5,2.17,2.17,0,0,0,.4-1.41v-1.61a2.26,2.26,0,0,0-.4-1.44A1.41,1.41,0,0,0,246,835a1.59,1.59,0,0,0-.81.19,1.17,1.17,0,0,0-.5.55,2,2,0,0,0-.17.88l-.21-2.25a3.4,3.4,0,0,1,1.07-1.37,2.4,2.4,0,0,1,1.45-.48,3.19,3.19,0,0,1,1.82.51,3.28,3.28,0,0,1,1.15,1.52,6.54,6.54,0,0,1,.39,2.39v1.62a6.39,6.39,0,0,1-.39,2.37,3.33,3.33,0,0,1-1.15,1.5,3.19,3.19,0,0,1-1.82.52A2.57,2.57,0,0,1,245.27,842.46Z"/><path d="M252.54,828.57h2.64v14.2h-2.64Zm5.77,8.06a1.55,1.55,0,0,0-.41-1.16,1.65,1.65,0,0,0-1.19-.41,1.47,1.47,0,0,0-1.13.42,1.6,1.6,0,0,0-.4,1.17l-.2-2.25a3.78,3.78,0,0,1,1.08-1.44,2.6,2.6,0,0,1,1.58-.47,2.94,2.94,0,0,1,2.44,1.08,4.73,4.73,0,0,1,.87,3v6.15h-2.64Z"/><path d="M262.2,832.63h2.48l3.36,8.81-1.67,2.16Zm9.22,0L267,845.14a3.27,3.27,0,0,1-.62,1.1,2,2,0,0,1-.91.58,4.37,4.37,0,0,1-1.35.18h-.58v-2.6h.58a1.21,1.21,0,0,0,.71-.19,1.17,1.17,0,0,0,.43-.62l3.7-11Z"/><path class="cls-4" d="M439.68,835.25h-5.11v-5.11a1.14,1.14,0,0,0-1.14-1.14h-1.22a1.14,1.14,0,0,0-1.14,1.14v5.11H426a1.14,1.14,0,0,0-1.14,1.14v1.22a1.14,1.14,0,0,0,1.14,1.14h5.11v5.11a1.14,1.14,0,0,0,1.14,1.14h1.22a1.14,1.14,0,0,0,1.14-1.14v-5.11h5.11a1.14,1.14,0,0,0,1.14-1.14v-1.22A1.14,1.14,0,0,0,439.68,835.25Z"/><path d="M134.5,265H134v1.25a.76.76,0,0,1-.75.75h-2.5a.76.76,0,0,1-.75-.75V265H110v1.25a.76.76,0,0,1-.75.75h-2.5a.76.76,0,0,1-.75-.75V265h-.5a1.5,1.5,0,0,0-1.5,1.5v21a1.5,1.5,0,0,0,1.5,1.5h.5v-1.25a.76.76,0,0,1,.75-.75h2.5a.76.76,0,0,1,.75.75V289h20v-1.25a.76.76,0,0,1,.75-.75h2.5a.76.76,0,0,1,.75.75V289h.5a1.5,1.5,0,0,0,1.5-1.5v-21A1.5,1.5,0,0,0,134.5,265Zm-25.25,20h-2.5a.76.76,0,0,1-.75-.75v-2.5a.76.76,0,0,1,.75-.75h2.5a.76.76,0,0,1,.75.75v2.5A.76.76,0,0,1,109.25,285Zm0-6h-2.5a.76.76,0,0,1-.75-.75v-2.5a.76.76,0,0,1,.75-.75h2.5a.76.76,0,0,1,.75.75v2.5A.76.76,0,0,1,109.25,279Zm0-6h-2.5a.76.76,0,0,1-.75-.75v-2.5a.76.76,0,0,1,.75-.75h2.5a.76.76,0,0,1,.75.75v2.5A.76.76,0,0,1,109.25,273Zm17.33,12.67h-12.5a.76.76,0,0,1-.75-.75v-5.84a.76.76,0,0,1,.75-.75h12.5a.75.75,0,0,1,.75.75v5.84A.75.75,0,0,1,126.58,285.67Zm0-10.67h-12.5a.76.76,0,0,1-.75-.75v-5.83a.75.75,0,0,1,.75-.75h12.5a.74.74,0,0,1,.75.75v5.83A.75.75,0,0,1,126.58,275Zm6.67,10h-2.5a.76.76,0,0,1-.75-.75v-2.5a.76.76,0,0,1,.75-.75h2.5a.76.76,0,0,1,.75.75v2.5A.76.76,0,0,1,133.25,285Zm0-6h-2.5a.76.76,0,0,1-.75-.75v-2.5a.76.76,0,0,1,.75-.75h2.5a.76.76,0,0,1,.75.75v2.5A.76.76,0,0,1,133.25,279Zm0-6h-2.5a.76.76,0,0,1-.75-.75v-2.5a.76.76,0,0,1,.75-.75h2.5a.76.76,0,0,1,.75.75v2.5A.76.76,0,0,1,133.25,273Z"/><path d="M133.4,341.09l-20,5.91a2,2,0,0,0-1.4,1.9v16.34a8.42,8.42,0,0,0-2-.24c-3.31,0-6,1.79-6,4s2.69,4,6,4,6-1.79,6-4V354.39l16-4.69v11.54a8.42,8.42,0,0,0-2-.24c-3.31,0-6,1.79-6,4s2.69,4,6,4,6-1.79,6-4V343a2,2,0,0,0-2.6-1.91Z"/><path d="M129.85,824v26a3,3,0,0,1-3,3h-13.7a3,3,0,0,1-3-3V824a3,3,0,0,1,3-3h13.7A3,3,0,0,1,129.85,824Zm6.15,3.62v.76c0,.2-.17.37-.38,0h-.85v.74a6.49,6.49,0,0,1-.65.5h-1.81v-2.47h1.81c.21-.65.65-.27.65-.27v.27h.85A.58.58,0,0,1,136,827.62Zm0,6v.76c0,.2-.17.37-.38.16h-.85v.58a6.14,6.14,0,0,0-.65.65h-1.81v-2.46h1.81c.21-.81.65-.43.65-.43v.43h.85A.3.3,0,0,1,136,833.62Zm0,6v.76a.3.3,0,0,1-.38.31h-.85v.43s-.44.38-.65-.43h-1.81v-2.46h1.81a6.14,6.14,0,0,0,.65.65v.58h.85C135.83,839.25,136,839.42,136,839.62Zm0,6v.76a.58.58,0,0,1-.38.47h-.85v.27s-.44.38-.65-.27h-1.81v-2.47h1.81a6.49,6.49,0,0,1,.65.5v.74h.85C135.83,845.25,136,845.42,136,845.62Zm-30.12-1.24h1.81v2.47h-1.81c-.21.65-.65.27-.65.27v-.27h-.85a.58.58,0,0,1-.38-.47v-.76c0-.2.17-.37.38,0h.85v-.74A6.49,6.49,0,0,1,105.88,844.38Zm0-6.15h1.81v2.46h-1.81c-.21.81-.65.43-.65.43v-.43h-.85a.3.3,0,0,1-.38-.31v-.76c0-.2.17-.37.38-.16h.85v-.58A6.14,6.14,0,0,0,105.88,838.23Zm0-4.92h1.81v2.46h-1.81a6.14,6.14,0,0,0-.65-.65v-.58h-.85c-.21.21-.38,0-.38-.16v-.76a.3.3,0,0,1,.38-.31h.85v-.43S105.67,832.5,105.88,833.31Zm0-6.16h1.81v2.47h-1.81a6.49,6.49,0,0,1-.65-.5v-.74h-.85c-.21.37-.38.2-.38,0v-.76a.58.58,0,0,1,.38-.47h.85v-.27S105.67,826.5,105.88,827.15Z"/><path d="M180.81,414h1.5L187,426.77h-1.38l-4-11.45-4,11.45h-1.38Zm-2.5,8.5h6.62v1.18h-6.62Z"/><path d="M189.93,424.37a1.35,1.35,0,0,0,.28.9,1,1,0,0,0,.79.32h.83v1.18h-1a1.93,1.93,0,0,1-1.55-.63,2.64,2.64,0,0,1-.55-1.79V414h1.24Z"/><path d="M195.06,424.37a1.3,1.3,0,0,0,.29.9,1,1,0,0,0,.78.32H197v1.18h-1a1.93,1.93,0,0,1-1.55-.63,2.64,2.64,0,0,1-.55-1.79V414h1.24Z"/><path d="M203.71,417.65H205v9.12h-1.25Zm5.63,3.59a2.82,2.82,0,0,0-.57-1.88,2,2,0,0,0-1.61-.67,2.17,2.17,0,0,0-1.63.6A2.4,2.4,0,0,0,205,421l-.18-1.76a2.94,2.94,0,0,1,1.17-1.32,3.45,3.45,0,0,1,1.7-.41,2.83,2.83,0,0,1,1.59.44,2.68,2.68,0,0,1,1,1.27,5.28,5.28,0,0,1,.34,2v5.54h-1.24Zm5.62,0a2.82,2.82,0,0,0-.57-1.88,2,2,0,0,0-1.61-.67,2.05,2.05,0,0,0-1.62.65,2.71,2.71,0,0,0-.58,1.83l-.52-1.32a3.87,3.87,0,0,1,1.2-1.73,2.92,2.92,0,0,1,1.85-.61,3.14,3.14,0,0,1,1.68.44,2.79,2.79,0,0,1,1.06,1.27,5.08,5.08,0,0,1,.36,2v5.54H215Z"/><path d="M220.14,423.19a2.63,2.63,0,0,0,.61,1.87,2.26,2.26,0,0,0,1.74.66,2.36,2.36,0,0,0,1.73-.6,2.32,2.32,0,0,0,.61-1.72l.12,1.91a2.71,2.71,0,0,1-1.08,1.13,3.53,3.53,0,0,1-1.87.46,2.82,2.82,0,0,1-2.3-1,4.17,4.17,0,0,1-.81-2.74v-5.54h1.25Zm4.69-5.54h1.24v9.12h-1.24Z"/><path d="M230.43,426.76a5.75,5.75,0,0,1-1.27-.43,4.58,4.58,0,0,1-1.06-.68l.72-.88a6.46,6.46,0,0,0,1.53.77,4.34,4.34,0,0,0,1.49.28,3.73,3.73,0,0,0,2-.45,1.41,1.41,0,0,0,.7-1.26,1.13,1.13,0,0,0-.34-.9,1.81,1.81,0,0,0-.86-.4,13.16,13.16,0,0,0-1.45-.18h-.17l-.18,0h-.14a7.47,7.47,0,0,1-1.49-.26,2.05,2.05,0,0,1-1-.66,2.12,2.12,0,0,1-.4-1.4,2.59,2.59,0,0,1,.42-1.49,2.64,2.64,0,0,1,1.23-.94,5.15,5.15,0,0,1,1.94-.33,5.91,5.91,0,0,1,1.18.12,6.17,6.17,0,0,1,1.13.35,5.22,5.22,0,0,1,1,.54l-.72.87a5.81,5.81,0,0,0-1.33-.59,4.48,4.48,0,0,0-1.3-.2,3.05,3.05,0,0,0-1.76.43,1.39,1.39,0,0,0-.62,1.21,1,1,0,0,0,.34.81,1.83,1.83,0,0,0,.85.36c.34.06.82.1,1.42.14h.25a7.47,7.47,0,0,1,1.6.23,2.24,2.24,0,0,1,1.11.73,2.44,2.44,0,0,1,.45,1.58,2.52,2.52,0,0,1-.45,1.51,2.8,2.8,0,0,1-1.31.95,5.88,5.88,0,0,1-2.09.33A7.33,7.33,0,0,1,230.43,426.76Z"/><path d="M238.2,414h1.25v1.27H238.2Zm0,3.66h1.25v9.12H238.2Z"/><path d="M243.86,426.46a2.82,2.82,0,0,1-1.3-1.32,5.07,5.07,0,0,1-.43-2.2v-1.51a4.86,4.86,0,0,1,.44-2.18,2.85,2.85,0,0,1,1.29-1.3,4.77,4.77,0,0,1,2.16-.44,5.06,5.06,0,0,1,1.34.17,3.55,3.55,0,0,1,1.08.48,3.19,3.19,0,0,1,.83.81l-.92.84a2.93,2.93,0,0,0-1-.84,2.77,2.77,0,0,0-1.26-.28,2.7,2.7,0,0,0-2,.68,2.86,2.86,0,0,0-.66,2.06v1.51a2.89,2.89,0,0,0,.67,2.09,2.65,2.65,0,0,0,2,.69,3.1,3.1,0,0,0,2.42-1.06l.8.81a3.15,3.15,0,0,1-.83.8,3.31,3.31,0,0,1-1.08.47,5.08,5.08,0,0,1-1.34.16A4.74,4.74,0,0,1,243.86,426.46Z"/><path d="M256,417.65h1.25v9.12H256Zm4.59,1.19a2.86,2.86,0,0,0-1-.15,2.43,2.43,0,0,0-1.75.61,2.29,2.29,0,0,0-.62,1.7l-.18-1.76a3.49,3.49,0,0,1,1.29-1.27,3.55,3.55,0,0,1,1.75-.46,3.29,3.29,0,0,1,1.12.18,2.45,2.45,0,0,1,.87.54l-.81,1A1.78,1.78,0,0,0,260.57,418.84Z"/><path d="M264.92,426.42a3.19,3.19,0,0,1-1.34-1.4,4.81,4.81,0,0,1-.46-2.21v-1a5.43,5.43,0,0,1,.44-2.32,3.22,3.22,0,0,1,1.3-1.45,3.86,3.86,0,0,1,2-.51,3.56,3.56,0,0,1,1.92.5,3.08,3.08,0,0,1,1.22,1.43,5.59,5.59,0,0,1,.42,2.28v1H264v-1.14h5.34v-.09a3.12,3.12,0,0,0-.63-2.09,2.18,2.18,0,0,0-1.77-.75,2.44,2.44,0,0,0-1.94.78,3.26,3.26,0,0,0-.68,2.22v1.16A2.94,2.94,0,0,0,265,425a2.73,2.73,0,0,0,2.05.75,3,3,0,0,0,1.24-.26,3.33,3.33,0,0,0,1.08-.75l.85.83a4.65,4.65,0,0,1-1.49,1,4.16,4.16,0,0,1-1.68.36A4.41,4.41,0,0,1,264.92,426.42Z"/><path d="M274.13,424.37a1.29,1.29,0,0,0,.28.9,1,1,0,0,0,.78.32H276v1.18h-1a1.93,1.93,0,0,1-1.55-.63,2.64,2.64,0,0,1-.55-1.79V414h1.25Z"/><path d="M278.36,426.16a2.92,2.92,0,0,1-.08-4.08,3.27,3.27,0,0,1,2.24-.71h3l.12,1.18h-3.1a2,2,0,0,0-1.34.4,1.41,1.41,0,0,0-.47,1.13,1.39,1.39,0,0,0,.59,1.2,2.9,2.9,0,0,0,1.68.43,5.35,5.35,0,0,0,1.8-.24c.43-.16.64-.38.64-.67l.18,1.2a2.41,2.41,0,0,1-.69.48,3.73,3.73,0,0,1-1,.32,6.11,6.11,0,0,1-1.16.1A3.65,3.65,0,0,1,278.36,426.16Zm5.07-5.17a2.39,2.39,0,0,0-.58-1.72,2.19,2.19,0,0,0-1.66-.61,3.87,3.87,0,0,0-1.26.21,3.5,3.5,0,0,0-1.09.6l-.91-.64a3.4,3.4,0,0,1,1.35-1,4.85,4.85,0,0,1,1.86-.35,4.31,4.31,0,0,1,1.91.4,2.83,2.83,0,0,1,1.21,1.16,3.76,3.76,0,0,1,.42,1.84v5.86h-1.25Z"/><path d="M286.67,417.65h4.05v1.09h-4.05Zm1.43,8.55a2.76,2.76,0,0,1-.51-1.8V415h1.25v9.42a1.41,1.41,0,0,0,.26.91.94.94,0,0,0,.77.32h.85v1.17h-1A2,2,0,0,1,288.1,426.2Z"/><path d="M294.69,426.42a3.08,3.08,0,0,1-1.34-1.4,4.81,4.81,0,0,1-.47-2.21v-1a5.42,5.42,0,0,1,.45-2.32,3.2,3.2,0,0,1,1.29-1.45,3.91,3.91,0,0,1,2-.51,3.6,3.6,0,0,1,1.93.5,3.06,3.06,0,0,1,1.21,1.43,5.59,5.59,0,0,1,.42,2.28v1h-6.49v-1.14h5.33v-.09a3.12,3.12,0,0,0-.63-2.09,2.16,2.16,0,0,0-1.77-.75,2.42,2.42,0,0,0-1.93.78,3.26,3.26,0,0,0-.69,2.22v1.16a2.9,2.9,0,0,0,.73,2.12,2.72,2.72,0,0,0,2.05.75,3,3,0,0,0,1.23-.26,3.37,3.37,0,0,0,1.09-.75l.85.83a4.76,4.76,0,0,1-1.49,1,4.16,4.16,0,0,1-1.68.36A4.41,4.41,0,0,1,294.69,426.42Z"/><path d="M303.81,426.47a2.75,2.75,0,0,1-1.06-1.26,5,5,0,0,1-.36-2v-2a5.09,5.09,0,0,1,.35-2,2.69,2.69,0,0,1,1-1.27,2.94,2.94,0,0,1,1.63-.44,4,4,0,0,1,1.8.4,2.83,2.83,0,0,1,1.24,1.27l-.18,1.76a2.47,2.47,0,0,0-.27-1.13,2.21,2.21,0,0,0-.79-.87,2.26,2.26,0,0,0-1.22-.34,2.21,2.21,0,0,0-1.74.69,2.83,2.83,0,0,0-.62,1.95v2a2.74,2.74,0,0,0,.62,1.91,2.24,2.24,0,0,0,1.74.68,2.14,2.14,0,0,0,1.21-.34,2.33,2.33,0,0,0,.79-.89,2.47,2.47,0,0,0,.28-1.15l.12,1.91a2.22,2.22,0,0,1-1.07,1.2,4.14,4.14,0,0,1-1.83.36A3.13,3.13,0,0,1,303.81,426.47ZM308.27,414h1.25v12.78h-1.25Z"/><path d="M317,417.65h1.25v12.83H317Zm2.2,8.89a2.22,2.22,0,0,1-1.07-1.2l.12-1.91a2.47,2.47,0,0,0,.28,1.15,2.33,2.33,0,0,0,.79.89,2.14,2.14,0,0,0,1.21.34,2.24,2.24,0,0,0,1.74-.68,2.74,2.74,0,0,0,.62-1.91v-2a2.83,2.83,0,0,0-.62-1.95,2.45,2.45,0,0,0-3-.35,2.3,2.3,0,0,0-.79.88,2.33,2.33,0,0,0-.28,1.12l-.18-1.76a2.83,2.83,0,0,1,1.24-1.27,4,4,0,0,1,1.8-.4,3,3,0,0,1,1.64.44,2.73,2.73,0,0,1,1,1.27,5.09,5.09,0,0,1,.35,2v2a5,5,0,0,1-.36,2,2.75,2.75,0,0,1-1.06,1.26,3.13,3.13,0,0,1-1.68.43A4.14,4.14,0,0,1,319.16,426.54Z"/><path d="M326.6,417.65h1.25v9.12H326.6Zm4.6,1.19a2.93,2.93,0,0,0-1-.15,2.43,2.43,0,0,0-1.75.61,2.29,2.29,0,0,0-.62,1.7l-.18-1.76A3.49,3.49,0,0,1,329,418a3.55,3.55,0,0,1,1.76-.46,3.23,3.23,0,0,1,1.11.18,2.45,2.45,0,0,1,.87.54l-.81,1A1.74,1.74,0,0,0,331.2,418.84Z"/><path d="M335.44,426.44a3.15,3.15,0,0,1-1.27-1.36,4.88,4.88,0,0,1-.43-2.15v-1.49a4.77,4.77,0,0,1,.43-2.12,3,3,0,0,1,1.27-1.34,4.49,4.49,0,0,1,4,0,3,3,0,0,1,1.27,1.34,4.77,4.77,0,0,1,.44,2.12V423a4.79,4.79,0,0,1-.44,2.13,3.13,3.13,0,0,1-1.27,1.35,4.58,4.58,0,0,1-4,0Zm3.81-1.44a3,3,0,0,0,.65-2v-1.52a3,3,0,0,0-.65-2,2.65,2.65,0,0,0-3.63,0,3,3,0,0,0-.64,2V423a3,3,0,0,0,.64,2,2.65,2.65,0,0,0,3.63,0Z"/><path d="M342.44,429.3h1a1,1,0,0,0,.76-.32,1.34,1.34,0,0,0,.27-.9V417.65h1.25v10.41a2.7,2.7,0,0,1-.55,1.79,2,2,0,0,1-1.56.63h-1.16Zm2-15.31h1.26v1.27h-1.26Z"/><path d="M350,426.42a3.15,3.15,0,0,1-1.35-1.4,4.81,4.81,0,0,1-.46-2.21v-1a5.58,5.58,0,0,1,.44-2.32,3.22,3.22,0,0,1,1.3-1.45,3.86,3.86,0,0,1,2-.51,3.56,3.56,0,0,1,1.92.5,3.08,3.08,0,0,1,1.22,1.43,5.59,5.59,0,0,1,.42,2.28v1H349v-1.14h5.33v-.09a3.12,3.12,0,0,0-.63-2.09,2.18,2.18,0,0,0-1.77-.75,2.44,2.44,0,0,0-1.94.78,3.31,3.31,0,0,0-.68,2.22v1.16A2.9,2.9,0,0,0,350,425a2.7,2.7,0,0,0,2,.75,3,3,0,0,0,1.23-.26,3.37,3.37,0,0,0,1.09-.75l.84.83a4.61,4.61,0,0,1-1.48,1,4.24,4.24,0,0,1-1.68.36A4.41,4.41,0,0,1,350,426.42Z"/><path d="M359.37,426.46a2.85,2.85,0,0,1-1.29-1.32,4.93,4.93,0,0,1-.43-2.2v-1.51a5,5,0,0,1,.43-2.18,2.82,2.82,0,0,1,1.3-1.3,4.74,4.74,0,0,1,2.16-.44,5.06,5.06,0,0,1,1.34.17,3.78,3.78,0,0,1,1.08.48,3.19,3.19,0,0,1,.83.81l-.92.84a2.93,2.93,0,0,0-1-.84,2.79,2.79,0,0,0-1.27-.28,2.69,2.69,0,0,0-2,.68,2.86,2.86,0,0,0-.66,2.06v1.51a2.93,2.93,0,0,0,.66,2.09,2.68,2.68,0,0,0,2,.69,3.24,3.24,0,0,0,1.34-.26,3.3,3.3,0,0,0,1.09-.8l.8.81a3.15,3.15,0,0,1-.83.8,3.51,3.51,0,0,1-1.08.47,5.08,5.08,0,0,1-1.34.16A4.82,4.82,0,0,1,359.37,426.46Z"/><path d="M366.05,417.65h4.05v1.09h-4.05Zm1.43,8.55a2.76,2.76,0,0,1-.51-1.8V415h1.25v9.42a1.41,1.41,0,0,0,.26.91.94.94,0,0,0,.77.32h.85v1.17h-1A2,2,0,0,1,367.48,426.2Z"/><path d="M374.2,426.76a5.75,5.75,0,0,1-1.27-.43,4.58,4.58,0,0,1-1.06-.68l.72-.88a6.46,6.46,0,0,0,1.53.77,4.34,4.34,0,0,0,1.49.28,3.73,3.73,0,0,0,2-.45,1.41,1.41,0,0,0,.7-1.26,1.13,1.13,0,0,0-.34-.9,1.81,1.81,0,0,0-.86-.4,13.16,13.16,0,0,0-1.45-.18h-.17l-.18,0h-.14a7.47,7.47,0,0,1-1.49-.26,2.05,2.05,0,0,1-1-.66,2.12,2.12,0,0,1-.4-1.4,2.59,2.59,0,0,1,.42-1.49,2.64,2.64,0,0,1,1.23-.94,5.15,5.15,0,0,1,1.94-.33,5.91,5.91,0,0,1,1.18.12,6.17,6.17,0,0,1,1.13.35,5.22,5.22,0,0,1,1,.54l-.72.87a5.81,5.81,0,0,0-1.33-.59,4.48,4.48,0,0,0-1.3-.2,3.05,3.05,0,0,0-1.76.43,1.39,1.39,0,0,0-.62,1.21,1,1,0,0,0,.34.81,1.83,1.83,0,0,0,.85.36c.34.06.82.1,1.42.14h.25a7.47,7.47,0,0,1,1.6.23,2.24,2.24,0,0,1,1.11.73,2.44,2.44,0,0,1,.45,1.58,2.52,2.52,0,0,1-.45,1.51,2.8,2.8,0,0,1-1.31.95,5.88,5.88,0,0,1-2.09.33A7.33,7.33,0,0,1,374.2,426.76Z"/><path d="M177.38,462h1.25v12.78h-1.25Zm.86,0h7.23v1.18h-7.23Zm0,5.84h6.27V469h-6.27Zm0,5.76h7.23v1.18h-7.23Z"/><path d="M189.05,472.37a1.29,1.29,0,0,0,.28.9,1,1,0,0,0,.78.32h.83v1.18h-1a2,2,0,0,1-1.56-.63,2.7,2.7,0,0,1-.55-1.79V462h1.25Z"/><path d="M194.48,474.42a3.19,3.19,0,0,1-1.34-1.4,4.81,4.81,0,0,1-.46-2.21v-1a5.43,5.43,0,0,1,.44-2.32,3.22,3.22,0,0,1,1.3-1.45,3.86,3.86,0,0,1,2-.51,3.56,3.56,0,0,1,1.92.5,3.08,3.08,0,0,1,1.22,1.43,5.59,5.59,0,0,1,.42,2.28v1h-6.5v-1.14h5.34v-.09a3.12,3.12,0,0,0-.63-2.09,2.18,2.18,0,0,0-1.77-.75,2.44,2.44,0,0,0-1.94.78,3.26,3.26,0,0,0-.68,2.22v1.16a2.94,2.94,0,0,0,.72,2.12,2.73,2.73,0,0,0,2.05.75,3,3,0,0,0,1.24-.26,3.33,3.33,0,0,0,1.08-.75l.85.83a4.65,4.65,0,0,1-1.49,1,4.16,4.16,0,0,1-1.68.36A4.41,4.41,0,0,1,194.48,474.42Z"/><path d="M203.9,474.46a2.76,2.76,0,0,1-1.29-1.32,4.93,4.93,0,0,1-.43-2.2v-1.51a4.87,4.87,0,0,1,.43-2.18,2.82,2.82,0,0,1,1.3-1.3,4.74,4.74,0,0,1,2.16-.44,5.12,5.12,0,0,1,1.34.17,3.78,3.78,0,0,1,1.08.48,3.36,3.36,0,0,1,.83.81l-.93.84a2.9,2.9,0,0,0-1-.84,2.82,2.82,0,0,0-1.27-.28,2.69,2.69,0,0,0-2,.68,2.86,2.86,0,0,0-.66,2.06v1.51a2.93,2.93,0,0,0,.66,2.09,2.67,2.67,0,0,0,2,.69,3.24,3.24,0,0,0,1.34-.26,3.3,3.3,0,0,0,1.09-.8l.8.81a3.31,3.31,0,0,1-.83.8,3.51,3.51,0,0,1-1.08.47,5.13,5.13,0,0,1-1.34.16A4.82,4.82,0,0,1,203.9,474.46Z"/><path d="M210.58,465.65h4v1.09h-4ZM212,474.2a2.76,2.76,0,0,1-.51-1.8V463h1.25v9.42a1.35,1.35,0,0,0,.26.91.94.94,0,0,0,.77.32h.85v1.17h-1A2,2,0,0,1,212,474.2Z"/><path d="M217.05,465.65h1.25v9.12h-1.25Zm4.59,1.19a2.86,2.86,0,0,0-1-.15,2.42,2.42,0,0,0-1.75.61,2.25,2.25,0,0,0-.62,1.7l-.19-1.76a3.55,3.55,0,0,1,3-1.73,3.23,3.23,0,0,1,1.11.18,2.29,2.29,0,0,1,.87.54l-.8,1A1.86,1.86,0,0,0,221.64,466.84Z"/><path d="M225.89,474.44a3.1,3.1,0,0,1-1.27-1.36,4.88,4.88,0,0,1-.44-2.15v-1.49a4.77,4.77,0,0,1,.44-2.12,3,3,0,0,1,1.27-1.34,4.49,4.49,0,0,1,4,0,3,3,0,0,1,1.26,1.34,4.64,4.64,0,0,1,.44,2.12V471a4.65,4.65,0,0,1-.44,2.13,3.11,3.11,0,0,1-1.26,1.35,4.58,4.58,0,0,1-4,0ZM229.7,473a3,3,0,0,0,.65-2v-1.52a3,3,0,0,0-.65-2,2.65,2.65,0,0,0-3.63,0,2.94,2.94,0,0,0-.64,2V471a3,3,0,0,0,.64,2,2.65,2.65,0,0,0,3.63,0Z"/><path d="M234.1,465.65h1.25v9.12H234.1Zm6,3.59a2.68,2.68,0,0,0-.62-1.88,2.72,2.72,0,0,0-3.49-.07,2.21,2.21,0,0,0-.61,1.68l-.18-1.76a2.89,2.89,0,0,1,1.26-1.3,4.08,4.08,0,0,1,1.83-.4,2.76,2.76,0,0,1,2.26,1,4.2,4.2,0,0,1,.8,2.74v5.54h-1.25Z"/><path d="M244.26,462h1.25v1.27h-1.25Zm0,3.66h1.25v9.12h-1.25Z"/><path d="M249.92,474.46a2.82,2.82,0,0,1-1.3-1.32,5.07,5.07,0,0,1-.43-2.2v-1.51a4.86,4.86,0,0,1,.44-2.18,2.8,2.8,0,0,1,1.29-1.3,4.74,4.74,0,0,1,2.16-.44,5.06,5.06,0,0,1,1.34.17,3.55,3.55,0,0,1,1.08.48,3.19,3.19,0,0,1,.83.81l-.92.84a2.93,2.93,0,0,0-1-.84,2.77,2.77,0,0,0-1.26-.28,2.7,2.7,0,0,0-2,.68,2.86,2.86,0,0,0-.66,2.06v1.51a2.89,2.89,0,0,0,.67,2.09,2.65,2.65,0,0,0,2,.69,3.1,3.1,0,0,0,2.42-1.06l.8.81a3.15,3.15,0,0,1-.83.8,3.31,3.31,0,0,1-1.08.47,5.08,5.08,0,0,1-1.34.16A4.74,4.74,0,0,1,249.92,474.46Z"/><path d="M271.61,462h1.3v12.78h-1.24v-11l.13.56L268,473h-.89l-3.79-8.46.13-.74v11h-1.24V462h1.3l4,9.23Z"/><path d="M277.1,471.19a2.64,2.64,0,0,0,.62,1.87,2.26,2.26,0,0,0,1.74.66,2.11,2.11,0,0,0,2.33-2.32l.13,1.91a2.74,2.74,0,0,1-1.09,1.13,3.53,3.53,0,0,1-1.87.46,2.8,2.8,0,0,1-2.29-1,4.17,4.17,0,0,1-.81-2.74v-5.54h1.24Zm4.69-5.54H283v9.12h-1.24Z"/><path d="M287.39,474.76a5.75,5.75,0,0,1-1.27-.43,4.31,4.31,0,0,1-1.05-.68l.71-.88a6.46,6.46,0,0,0,1.53.77,4.35,4.35,0,0,0,1.5.28,3.69,3.69,0,0,0,2-.45,1.42,1.42,0,0,0,.71-1.26,1.13,1.13,0,0,0-.35-.9,1.76,1.76,0,0,0-.86-.4,12.61,12.61,0,0,0-1.44-.18h-.18l-.18,0h-.14a7.23,7.23,0,0,1-1.48-.26,2,2,0,0,1-1-.66,2.13,2.13,0,0,1-.41-1.4,2.59,2.59,0,0,1,.42-1.49,2.64,2.64,0,0,1,1.23-.94,5.16,5.16,0,0,1,1.95-.33,5.81,5.81,0,0,1,1.17.12,6.17,6.17,0,0,1,1.13.35,5.22,5.22,0,0,1,1,.54l-.72.87a5.63,5.63,0,0,0-1.33-.59,4.43,4.43,0,0,0-1.3-.2,3,3,0,0,0-1.75.43,1.37,1.37,0,0,0-.63,1.21,1,1,0,0,0,.34.81,1.88,1.88,0,0,0,.85.36c.35.06.82.1,1.42.14h.25a7.47,7.47,0,0,1,1.6.23,2.22,2.22,0,0,1,1.12.73,2.44,2.44,0,0,1,.45,1.58,2.52,2.52,0,0,1-.45,1.51,2.83,2.83,0,0,1-1.32.95,5.86,5.86,0,0,1-2.08.33A7.35,7.35,0,0,1,287.39,474.76Z"/><path d="M295.17,462h1.24v1.27h-1.24Zm0,3.66h1.24v9.12h-1.24Z"/><path d="M300.82,474.46a2.76,2.76,0,0,1-1.29-1.32,4.93,4.93,0,0,1-.43-2.2v-1.51a4.87,4.87,0,0,1,.43-2.18,2.85,2.85,0,0,1,1.29-1.3,4.8,4.8,0,0,1,2.16-.44,5.06,5.06,0,0,1,1.34.17,3.72,3.72,0,0,1,1.09.48,3.54,3.54,0,0,1,.83.81l-.93.84a2.9,2.9,0,0,0-1-.84,2.85,2.85,0,0,0-1.27-.28,2.67,2.67,0,0,0-2,.68,2.82,2.82,0,0,0-.67,2.06v1.51A2.93,2.93,0,0,0,301,473a2.65,2.65,0,0,0,2,.69,3.24,3.24,0,0,0,1.34-.26,3.17,3.17,0,0,0,1.08-.8l.81.81a3.27,3.27,0,0,1-1.92,1.27,5.08,5.08,0,0,1-1.34.16A4.8,4.8,0,0,1,300.82,474.46Z"/><path d="M177.38,510h1.25v12.78h-1.25Zm.84,5.85h7.51v1.23h-7.51Zm6.83-5.85h1.25v12.78h-1.25Z"/><path d="M189.5,510h1.25v1.27H189.5Zm0,3.66h1.25v9.12H189.5Z"/><path d="M193.69,513.65h1.25v12.83h-1.25Zm2.2,8.89a2.28,2.28,0,0,1-1.08-1.2l.13-1.91a2.59,2.59,0,0,0,.27,1.15,2.36,2.36,0,0,0,.8.89,2.12,2.12,0,0,0,1.21.34,2.24,2.24,0,0,0,1.74-.68,2.74,2.74,0,0,0,.61-1.91v-2a2.83,2.83,0,0,0-.61-2,2.45,2.45,0,0,0-3-.35,2.33,2.33,0,0,0-.8.88,2.43,2.43,0,0,0-.27,1.12l-.19-1.76a2.84,2.84,0,0,1,1.25-1.27,3.79,3.79,0,0,1,1.8-.4,3,3,0,0,1,1.63.44,2.75,2.75,0,0,1,1,1.27,5.28,5.28,0,0,1,.35,2v2a5,5,0,0,1-.36,2,2.77,2.77,0,0,1-1.07,1.26,3.09,3.09,0,0,1-1.68.43A4.13,4.13,0,0,1,195.89,522.54Z"/><path d="M209.15,517.6v1.18h-5.82V517.6Z"/><path d="M212,510h1.25v12.78H212Zm.84,5.85h7.51v1.23h-7.51Zm6.83-5.85h1.25v12.78h-1.25Z"/><path d="M225.31,522.44a3.1,3.1,0,0,1-1.27-1.36,4.88,4.88,0,0,1-.44-2.15v-1.49a4.77,4.77,0,0,1,.44-2.12,3,3,0,0,1,1.27-1.34,4.49,4.49,0,0,1,4,0,3,3,0,0,1,1.26,1.34,4.64,4.64,0,0,1,.44,2.12V519a4.65,4.65,0,0,1-.44,2.13,3.11,3.11,0,0,1-1.26,1.35,4.58,4.58,0,0,1-4,0Zm3.81-1.44a3,3,0,0,0,.65-2v-1.52a3,3,0,0,0-.65-2,2.65,2.65,0,0,0-3.63,0,2.94,2.94,0,0,0-.64,2V519a3,3,0,0,0,.64,2,2.65,2.65,0,0,0,3.63,0Z"/><path d="M233.52,513.65h1.25v12.83h-1.25Zm2.2,8.89a2.22,2.22,0,0,1-1.07-1.2l.12-1.91a2.59,2.59,0,0,0,.27,1.15,2.44,2.44,0,0,0,.8.89,2.14,2.14,0,0,0,1.21.34,2.24,2.24,0,0,0,1.74-.68,2.74,2.74,0,0,0,.62-1.91v-2a2.83,2.83,0,0,0-.62-2,2.45,2.45,0,0,0-2.95-.35,2.36,2.36,0,0,0-1.07,2l-.18-1.76a2.83,2.83,0,0,1,1.24-1.27,3.82,3.82,0,0,1,1.8-.4,2.94,2.94,0,0,1,1.63.44,2.69,2.69,0,0,1,1,1.27,5.09,5.09,0,0,1,.35,2v2a5,5,0,0,1-.36,2,2.75,2.75,0,0,1-1.06,1.26,3.13,3.13,0,0,1-1.68.43A4.14,4.14,0,0,1,235.72,522.54Z"/><path d="M178.89,570.77h-1.25V558h1.25Z"/><path d="M183.26,570.47a2.77,2.77,0,0,1-1.07-1.26,5,5,0,0,1-.36-2v-2a5.08,5.08,0,0,1,.36-2,2.68,2.68,0,0,1,1-1.27,3,3,0,0,1,1.63-.44,3.86,3.86,0,0,1,1.81.4,2.88,2.88,0,0,1,1.24,1.27l-.18,1.76a2.36,2.36,0,0,0-.28-1.13,2.13,2.13,0,0,0-.79-.87,2.46,2.46,0,0,0-3,.35,2.83,2.83,0,0,0-.61,2v2a2.74,2.74,0,0,0,.61,1.91,2.24,2.24,0,0,0,1.74.68,2.12,2.12,0,0,0,1.21-.34,2.36,2.36,0,0,0,.8-.89,2.6,2.6,0,0,0,.28-1.15l.12,1.91a2.28,2.28,0,0,1-1.08,1.2,4.13,4.13,0,0,1-1.82.36A3.13,3.13,0,0,1,183.26,570.47ZM187.72,558H189v12.78h-1.24Z"/><path d="M191.91,558h1.24v1.27h-1.24Zm0,3.66h1.24v9.12h-1.24Z"/><path d="M197.64,570.42A3.21,3.21,0,0,1,196.3,569a4.88,4.88,0,0,1-.47-2.22v-1a5.42,5.42,0,0,1,.45-2.32,3.22,3.22,0,0,1,1.3-1.45,3.86,3.86,0,0,1,2-.51,3.56,3.56,0,0,1,1.92.5,3.08,3.08,0,0,1,1.22,1.43,5.59,5.59,0,0,1,.42,2.28v1h-6.5v-1.14H202v-.09a3.12,3.12,0,0,0-.63-2.09,2.18,2.18,0,0,0-1.77-.75,2.43,2.43,0,0,0-1.94.78,3.26,3.26,0,0,0-.68,2.22v1.16a2.94,2.94,0,0,0,.72,2.12,2.73,2.73,0,0,0,2.05.75,3,3,0,0,0,1.24-.26,3.33,3.33,0,0,0,1.08-.75l.85.83a4.65,4.65,0,0,1-1.49,1,4.16,4.16,0,0,1-1.68.36A4.41,4.41,0,0,1,197.64,570.42Z"/><path d="M219.92,558h1.31v12.78H220v-11l.13.56L216.32,569h-.88l-3.79-8.46.13-.74v11h-1.25V558h1.31l4,9.23Z"/><path d="M225.42,567.19a2.63,2.63,0,0,0,.61,1.87,2.26,2.26,0,0,0,1.74.66,2.36,2.36,0,0,0,1.73-.6,2.32,2.32,0,0,0,.61-1.72l.12,1.91a2.71,2.71,0,0,1-1.08,1.13,3.53,3.53,0,0,1-1.87.46,2.82,2.82,0,0,1-2.3-1,4.17,4.17,0,0,1-.81-2.74v-5.54h1.25Zm4.69-5.54h1.24v9.12h-1.24Z"/><path d="M235.71,570.76a5.75,5.75,0,0,1-1.27-.43,4.58,4.58,0,0,1-1.06-.68l.72-.88a6.59,6.59,0,0,0,1.52.77,4.44,4.44,0,0,0,1.5.28,3.73,3.73,0,0,0,2-.45,1.41,1.41,0,0,0,.7-1.26,1.13,1.13,0,0,0-.34-.9,1.81,1.81,0,0,0-.86-.4,13.16,13.16,0,0,0-1.45-.18H237l-.18,0h-.14a7.47,7.47,0,0,1-1.49-.26,2.05,2.05,0,0,1-1-.66,2.12,2.12,0,0,1-.4-1.4,2.59,2.59,0,0,1,.42-1.49,2.64,2.64,0,0,1,1.23-.94,5.15,5.15,0,0,1,1.94-.33,5.91,5.91,0,0,1,1.18.12,6.17,6.17,0,0,1,1.13.35,4.72,4.72,0,0,1,1,.54l-.72.87a5.81,5.81,0,0,0-1.33-.59,4.48,4.48,0,0,0-1.3-.2,3.05,3.05,0,0,0-1.76.43,1.39,1.39,0,0,0-.62,1.21,1,1,0,0,0,.34.81,1.83,1.83,0,0,0,.85.36c.34.06.82.1,1.42.14h.25a7.47,7.47,0,0,1,1.6.23,2.24,2.24,0,0,1,1.11.73,2.44,2.44,0,0,1,.45,1.58,2.52,2.52,0,0,1-.45,1.51,2.8,2.8,0,0,1-1.31,1,5.88,5.88,0,0,1-2.09.33A7.33,7.33,0,0,1,235.71,570.76Z"/><path d="M243.48,558h1.25v1.27h-1.25Zm0,3.66h1.25v9.12h-1.25Z"/><path d="M249.14,570.46a2.82,2.82,0,0,1-1.3-1.32,5.07,5.07,0,0,1-.43-2.2v-1.51a4.86,4.86,0,0,1,.44-2.18,2.85,2.85,0,0,1,1.29-1.3,4.74,4.74,0,0,1,2.16-.44,5.06,5.06,0,0,1,1.34.17,3.55,3.55,0,0,1,1.08.48,3.36,3.36,0,0,1,.83.81l-.92.84a2.88,2.88,0,0,0-2.3-1.12,2.7,2.7,0,0,0-2,.68,2.86,2.86,0,0,0-.66,2.06v1.51a2.89,2.89,0,0,0,.67,2.09,2.65,2.65,0,0,0,2,.69,3.1,3.1,0,0,0,2.42-1.06l.8.81a3.15,3.15,0,0,1-.83.8,3.31,3.31,0,0,1-1.08.47,5.08,5.08,0,0,1-1.34.16A4.74,4.74,0,0,1,249.14,570.46Z"/><path d="M177.38,606h1.25v12.79h-1.25Zm.77,6.21h4.29a2.51,2.51,0,0,0,1.24-.31,2.14,2.14,0,0,0,.82-.89,3.05,3.05,0,0,0,.3-1.32,3,3,0,0,0-.29-1.32,2.11,2.11,0,0,0-.82-.88,2.42,2.42,0,0,0-1.25-.31h-4.29V606h4.23a3.83,3.83,0,0,1,1.91.46,3.18,3.18,0,0,1,1.28,1.29,4.32,4.32,0,0,1,0,3.88,3.2,3.2,0,0,1-1.28,1.3,4,4,0,0,1-1.91.45h-4.23Zm4,.78,1.15-.41,3.22,6.21h-1.49Z"/><path d="M187.64,609.65h1.28l3,8.46-.65,1.41Zm8,0-3.82,11.25a2.59,2.59,0,0,1-.55,1,1.86,1.86,0,0,1-.83.53,4.2,4.2,0,0,1-1.21.15h-.36v-1.19h.36a1.75,1.75,0,0,0,1.1-.32A2.49,2.49,0,0,0,191,620l3.32-10.31Z"/><path d="M196.63,609.65h4.05v1.09h-4.05Zm1.43,8.55a2.82,2.82,0,0,1-.5-1.8V607h1.24v9.42a1.41,1.41,0,0,0,.26.91,1,1,0,0,0,.77.32h.85v1.17h-1A2,2,0,0,1,198.06,618.2Z"/><path d="M203.11,606h1.24v12.78h-1.24Zm6,7.25a2.64,2.64,0,0,0-.63-1.88,2.72,2.72,0,0,0-3.49-.07,2.24,2.24,0,0,0-.61,1.68l-.18-1.76a3,3,0,0,1,1.26-1.3,4.11,4.11,0,0,1,1.83-.4,2.75,2.75,0,0,1,2.26,1,4.15,4.15,0,0,1,.8,2.74v5.54h-1.24Z"/><path d="M213,609.65h1.24v9.12H213Zm5.62,3.59a2.87,2.87,0,0,0-.56-1.88,2,2,0,0,0-1.62-.67,2.13,2.13,0,0,0-1.62.6,2.41,2.41,0,0,0-.58,1.71l-.18-1.76a3,3,0,0,1,1.18-1.32,3.42,3.42,0,0,1,1.7-.41,2.82,2.82,0,0,1,1.58.44,2.64,2.64,0,0,1,1,1.27,5.28,5.28,0,0,1,.34,2v5.54h-1.25Zm5.63,0a2.82,2.82,0,0,0-.57-1.88,2,2,0,0,0-1.61-.67,2.05,2.05,0,0,0-1.62.65,2.66,2.66,0,0,0-.58,1.83l-.53-1.32a3.88,3.88,0,0,1,1.21-1.73,2.86,2.86,0,0,1,1.85-.61,3.08,3.08,0,0,1,1.67.44,2.67,2.67,0,0,1,1.06,1.27,4.91,4.91,0,0,1,.37,2v5.54h-1.25Z"/><path d="M233.38,618.16a2.59,2.59,0,0,1-.86-2.08,2.53,2.53,0,0,1,.79-2,3.25,3.25,0,0,1,2.24-.71h3l.12,1.18h-3.09a2,2,0,0,0-1.34.4,1.55,1.55,0,0,0,.12,2.33,2.84,2.84,0,0,0,1.67.43,5.27,5.27,0,0,0,1.8-.24c.43-.16.65-.38.65-.67l.18,1.2a2.41,2.41,0,0,1-.69.48,3.73,3.73,0,0,1-1,.31,5.41,5.41,0,0,1-1.17.11A3.67,3.67,0,0,1,233.38,618.16Zm5.08-5.17a2.39,2.39,0,0,0-.59-1.72,2.17,2.17,0,0,0-1.66-.61,3.86,3.86,0,0,0-1.25.21,3.5,3.5,0,0,0-1.09.6l-.91-.64a3.4,3.4,0,0,1,1.35-1,4.77,4.77,0,0,1,1.85-.35,4.28,4.28,0,0,1,1.91.4,2.8,2.8,0,0,1,1.22,1.16,3.88,3.88,0,0,1,.41,1.84v5.86h-1.24Z"/><path d="M242.38,609.65h1.25v9.12h-1.25Zm6,3.59a2.64,2.64,0,0,0-.63-1.88,2.72,2.72,0,0,0-3.49-.07,2.21,2.21,0,0,0-.61,1.68l-.18-1.76a3,3,0,0,1,1.26-1.3,4.11,4.11,0,0,1,1.83-.4,2.76,2.76,0,0,1,2.26,1,4.15,4.15,0,0,1,.8,2.74v5.54h-1.24Z"/><path d="M253.46,618.47a2.71,2.71,0,0,1-1.07-1.26,5,5,0,0,1-.36-2v-2a5.28,5.28,0,0,1,.35-2,2.69,2.69,0,0,1,1-1.27,2.94,2.94,0,0,1,1.63-.44,3.82,3.82,0,0,1,1.8.4,2.9,2.9,0,0,1,1.25,1.27l-.19,1.76a2.47,2.47,0,0,0-.27-1.13,2.21,2.21,0,0,0-.79-.87,2.23,2.23,0,0,0-1.22-.34,2.21,2.21,0,0,0-1.74.69,2.83,2.83,0,0,0-.62,2v2a2.74,2.74,0,0,0,.62,1.91,2.24,2.24,0,0,0,1.74.68,2.14,2.14,0,0,0,1.21-.34,2.36,2.36,0,0,0,.8-.89,2.59,2.59,0,0,0,.27-1.15l.12,1.91a2.22,2.22,0,0,1-1.07,1.2,4.14,4.14,0,0,1-1.83.36A3.07,3.07,0,0,1,253.46,618.47ZM257.91,606h1.25v12.78h-1.25Z"/><path d="M266.78,606H268v12.78h-1.24Zm1,11.6h3.45a3.59,3.59,0,0,0,2.33-.61,2.11,2.11,0,0,0,.73-1.72v0a2.87,2.87,0,0,0-.27-1.3,1.8,1.8,0,0,0-.86-.84,3.28,3.28,0,0,0-1.5-.3h-3.88v-1.18h3.88a2.69,2.69,0,0,0,1.85-.55,2.47,2.47,0,0,0-.06-3.34,3.13,3.13,0,0,0-2-.56h-3.64V606h3.92a4.47,4.47,0,0,1,2,.42,2.75,2.75,0,0,1,1.23,1.2,3.9,3.9,0,0,1,.41,1.84,3,3,0,0,1-.26,1.23,2.59,2.59,0,0,1-.76,1,2.87,2.87,0,0,1-1.28.55,2.8,2.8,0,0,1,1.32.55,2.86,2.86,0,0,1,.85,1.09,3.44,3.44,0,0,1,.29,1.4v0a3.65,3.65,0,0,1-.45,1.83,3.1,3.1,0,0,1-1.29,1.22,4.32,4.32,0,0,1-2,.43h-4.06Z"/><path d="M279.29,616.37a1.35,1.35,0,0,0,.28.9,1,1,0,0,0,.79.32h.83v1.18h-1a1.93,1.93,0,0,1-1.55-.63,2.64,2.64,0,0,1-.55-1.79V606h1.24Z"/><path d="M284.34,615.19a2.63,2.63,0,0,0,.61,1.87,2.26,2.26,0,0,0,1.74.66,2.36,2.36,0,0,0,1.73-.6,2.32,2.32,0,0,0,.61-1.72l.12,1.91a2.68,2.68,0,0,1-1.09,1.13,3.47,3.47,0,0,1-1.86.46,2.82,2.82,0,0,1-2.3-1,4.17,4.17,0,0,1-.81-2.74v-5.54h1.25Zm4.69-5.54h1.24v9.12H289Z"/><path d="M294.5,618.42a3.18,3.18,0,0,1-1.35-1.39,5,5,0,0,1-.46-2.22v-1a5.42,5.42,0,0,1,.45-2.32,3.2,3.2,0,0,1,1.29-1.45,3.91,3.91,0,0,1,2-.51,3.62,3.62,0,0,1,1.93.5,3.06,3.06,0,0,1,1.21,1.43,5.59,5.59,0,0,1,.42,2.28v1h-6.49v-1.14h5.33v-.09a3.12,3.12,0,0,0-.63-2.09,2.16,2.16,0,0,0-1.77-.75,2.42,2.42,0,0,0-1.93.78,3.26,3.26,0,0,0-.69,2.22v1.16a2.9,2.9,0,0,0,.73,2.12,2.72,2.72,0,0,0,2.05.75,3,3,0,0,0,1.23-.26,3.37,3.37,0,0,0,1.09-.75l.85.83a4.76,4.76,0,0,1-1.49,1,4.16,4.16,0,0,1-1.68.36A4.41,4.41,0,0,1,294.5,618.42Z"/><path d="M304.13,618.76a5.75,5.75,0,0,1-1.27-.43,4.31,4.31,0,0,1-1.05-.68l.71-.88a6.46,6.46,0,0,0,1.53.77,4.35,4.35,0,0,0,1.5.28,3.69,3.69,0,0,0,2-.45,1.42,1.42,0,0,0,.71-1.26,1.13,1.13,0,0,0-.35-.9,1.76,1.76,0,0,0-.86-.4,12.92,12.92,0,0,0-1.44-.18h-.18l-.18,0h-.14a7.23,7.23,0,0,1-1.48-.26,2,2,0,0,1-1-.66,2.13,2.13,0,0,1-.41-1.4,2.59,2.59,0,0,1,.42-1.49,2.64,2.64,0,0,1,1.23-.94,5.16,5.16,0,0,1,1.95-.33,5.81,5.81,0,0,1,1.17.12,6.17,6.17,0,0,1,1.13.35,4.72,4.72,0,0,1,1,.54l-.72.87a5.63,5.63,0,0,0-1.33-.59,4.43,4.43,0,0,0-1.3-.2A3,3,0,0,0,304,611a1.37,1.37,0,0,0-.63,1.21,1,1,0,0,0,.34.81,1.88,1.88,0,0,0,.85.36c.35.06.82.1,1.42.14h.25a7.47,7.47,0,0,1,1.6.23,2.22,2.22,0,0,1,1.12.73,2.44,2.44,0,0,1,.45,1.58,2.52,2.52,0,0,1-.45,1.51,2.83,2.83,0,0,1-1.32,1,5.86,5.86,0,0,1-2.08.33A7.35,7.35,0,0,1,304.13,618.76Z"/><path d="M317.35,617.72a14.4,14.4,0,0,1,0-9.29,11.52,11.52,0,0,1,2.3-3.8l.84.75a10.26,10.26,0,0,0-2.06,3.46,12.43,12.43,0,0,0-.69,4.23,12.7,12.7,0,0,0,.68,4.24,10.13,10.13,0,0,0,2.07,3.46l-.84.75A11.52,11.52,0,0,1,317.35,617.72Z"/><path d="M322.6,606h1.24v12.79H322.6Zm.77,6.21h4.29a2.44,2.44,0,0,0,1.23-.31,2.16,2.16,0,0,0,.83-.89,3.05,3.05,0,0,0,.3-1.32,3,3,0,0,0-.29-1.32,2.14,2.14,0,0,0-.83-.88,2.38,2.38,0,0,0-1.24-.31h-4.29V606h4.22a3.84,3.84,0,0,1,1.92.46,3.18,3.18,0,0,1,1.28,1.29,4.41,4.41,0,0,1,0,3.88,3.17,3.17,0,0,1-1.29,1.3,3.93,3.93,0,0,1-1.91.45h-4.22Zm4,.78,1.15-.41,3.22,6.21h-1.49Z"/><path d="M335.64,613.31a2.52,2.52,0,0,0-.73,1.93,2.4,2.4,0,0,0,.77,1.9,3.15,3.15,0,0,0,2.15.68,3.65,3.65,0,0,0,2.14-.61,3.79,3.79,0,0,0,1.35-1.81,8.07,8.07,0,0,0,.47-2.93H343a10.15,10.15,0,0,1-.55,3.57,4.26,4.26,0,0,1-1.76,2.14,6.24,6.24,0,0,1-3.2.72,4.32,4.32,0,0,1-2-.43,2.9,2.9,0,0,1-1.27-1.25,4.19,4.19,0,0,1-.44-2,3.58,3.58,0,0,1,.85-2.51,3.52,3.52,0,0,1,2.4-1.09l.72,1A2.87,2.87,0,0,0,335.64,613.31Zm1.73.73a12.48,12.48,0,0,1-1.34-1.52,6,6,0,0,1-.8-1.48,4.67,4.67,0,0,1-.28-1.64,3.61,3.61,0,0,1,.88-2.6,3.86,3.86,0,0,1,5,0,3.37,3.37,0,0,1,.88,2.5h-1.24a2.19,2.19,0,0,0-.56-1.6,2.4,2.4,0,0,0-3.13,0,2.39,2.39,0,0,0-.56,1.69,3.12,3.12,0,0,0,.26,1.23,5.4,5.4,0,0,0,.72,1.19,18.11,18.11,0,0,0,1.22,1.35l5.5,5.6h-1.72Z"/><path d="M345.71,606H347v12.78h-1.24Zm1,11.6h3.45a3.59,3.59,0,0,0,2.33-.61,2.11,2.11,0,0,0,.73-1.72v0a2.87,2.87,0,0,0-.27-1.3,1.8,1.8,0,0,0-.86-.84,3.28,3.28,0,0,0-1.5-.3h-3.88v-1.18h3.88a2.69,2.69,0,0,0,1.85-.55,2.47,2.47,0,0,0-.06-3.34,3.13,3.13,0,0,0-2-.56h-3.64V606h3.92a4.47,4.47,0,0,1,2,.42,2.75,2.75,0,0,1,1.23,1.2,3.9,3.9,0,0,1,.41,1.84,3,3,0,0,1-.26,1.23,2.59,2.59,0,0,1-.76,1,.77.77,0,1,0,0,1.1,2.86,2.86,0,0,1,.85,1.09,3.44,3.44,0,0,1,.29,1.4v0a3.65,3.65,0,0,1-.45,1.83,3.1,3.1,0,0,1-1.29,1.22,4.32,4.32,0,0,1-2,.43h-4.06Z"/><path d="M356.15,620.77a10.26,10.26,0,0,0,2.06-3.46,13.53,13.53,0,0,0,0-8.47,10.6,10.6,0,0,0-2.06-3.46l.83-.75a11.52,11.52,0,0,1,2.3,3.8,14.4,14.4,0,0,1,0,9.29,11.52,11.52,0,0,1-2.3,3.8Z"/><path d="M177.38,654h1.25v12.78h-1.25Zm.91,6.64h4a2.4,2.4,0,0,0,1.3-.34,2.25,2.25,0,0,0,.87-1,3.06,3.06,0,0,0,.31-1.42,3.18,3.18,0,0,0-.31-1.44,2.25,2.25,0,0,0-.87-1,2.4,2.4,0,0,0-1.3-.34h-4V654h4a3.92,3.92,0,0,1,2,.49,3.29,3.29,0,0,1,1.32,1.37,4.29,4.29,0,0,1,.48,2.06,4.18,4.18,0,0,1-.48,2,3.29,3.29,0,0,1-1.32,1.37,3.92,3.92,0,0,1-2,.49h-4Z"/><path d="M188.91,666.44a3.15,3.15,0,0,1-1.27-1.36,4.88,4.88,0,0,1-.43-2.15v-1.49a4.77,4.77,0,0,1,.43-2.12,3,3,0,0,1,1.27-1.34,4.49,4.49,0,0,1,4,0,3,3,0,0,1,1.27,1.34,4.77,4.77,0,0,1,.43,2.12V663a4.79,4.79,0,0,1-.43,2.13,3.13,3.13,0,0,1-1.27,1.35,4.58,4.58,0,0,1-4,0Zm3.81-1.44a3,3,0,0,0,.65-2v-1.52a3,3,0,0,0-.65-2,2.65,2.65,0,0,0-3.63,0,3,3,0,0,0-.64,2V663a3,3,0,0,0,.64,2,2.65,2.65,0,0,0,3.63,0Z"/><path d="M197.12,657.65h1.25v12.83h-1.25Zm2.2,8.89a2.26,2.26,0,0,1-1.07-1.2l.12-1.91a2.47,2.47,0,0,0,.28,1.15,2.33,2.33,0,0,0,.79.89,2.15,2.15,0,0,0,1.22.34,2.24,2.24,0,0,0,1.74-.68,2.74,2.74,0,0,0,.61-1.91v-2a2.83,2.83,0,0,0-.61-2,2.21,2.21,0,0,0-1.74-.69,2.23,2.23,0,0,0-1.22.34,2.3,2.3,0,0,0-.79.88,2.33,2.33,0,0,0-.28,1.12l-.18-1.76a2.88,2.88,0,0,1,1.24-1.27,3.86,3.86,0,0,1,1.81-.4,3,3,0,0,1,1.63.44,2.68,2.68,0,0,1,1,1.27,5.08,5.08,0,0,1,.36,2v2a4.84,4.84,0,0,1-.37,2,2.69,2.69,0,0,1-1.06,1.26,3.13,3.13,0,0,1-1.68.43A4.14,4.14,0,0,1,199.32,666.54Z"/><path d="M221.09,654h1.31v12.78h-1.25v-11l.13.56L217.49,665h-.88l-3.79-8.46.13-.74v11H211.7V654H213l4,9.23Z"/><path d="M226.59,663.19a2.63,2.63,0,0,0,.61,1.87,2.26,2.26,0,0,0,1.74.66,2.36,2.36,0,0,0,1.73-.6,2.32,2.32,0,0,0,.61-1.72l.12,1.91a2.68,2.68,0,0,1-1.09,1.13,3.47,3.47,0,0,1-1.86.46,2.82,2.82,0,0,1-2.3-1,4.17,4.17,0,0,1-.81-2.74v-5.54h1.25Zm4.69-5.54h1.24v9.12h-1.24Z"/><path d="M236.88,666.76a5.84,5.84,0,0,1-1.28-.43,4.73,4.73,0,0,1-1-.68l.72-.88a6.59,6.59,0,0,0,1.52.77,4.44,4.44,0,0,0,1.5.28,3.73,3.73,0,0,0,2-.45,1.41,1.41,0,0,0,.7-1.26,1.13,1.13,0,0,0-.34-.9,1.85,1.85,0,0,0-.86-.4,13.16,13.16,0,0,0-1.45-.18h-.17l-.18,0h-.14a7.34,7.34,0,0,1-1.49-.26,2.05,2.05,0,0,1-1-.66,2.12,2.12,0,0,1-.4-1.4,2.59,2.59,0,0,1,.42-1.49,2.64,2.64,0,0,1,1.23-.94,5.11,5.11,0,0,1,1.94-.33,5.91,5.91,0,0,1,1.18.12,6.17,6.17,0,0,1,1.13.35,4.72,4.72,0,0,1,1,.54l-.72.87a5.81,5.81,0,0,0-1.33-.59,4.48,4.48,0,0,0-1.3-.2,3.05,3.05,0,0,0-1.76.43,1.39,1.39,0,0,0-.62,1.21,1,1,0,0,0,.34.81,1.79,1.79,0,0,0,.85.36c.34.06.81.1,1.41.14H239a7.58,7.58,0,0,1,1.61.23,2.24,2.24,0,0,1,1.11.73,2.44,2.44,0,0,1,.45,1.58,2.52,2.52,0,0,1-.45,1.51,2.85,2.85,0,0,1-1.31,1,5.91,5.91,0,0,1-2.09.33A7.33,7.33,0,0,1,236.88,666.76Z"/><path d="M244.65,654h1.25v1.27h-1.25Zm0,3.66h1.25v9.12h-1.25Z"/><path d="M250.31,666.46a2.82,2.82,0,0,1-1.3-1.32,5.07,5.07,0,0,1-.43-2.2v-1.51a4.86,4.86,0,0,1,.44-2.18,2.8,2.8,0,0,1,1.29-1.3,4.74,4.74,0,0,1,2.16-.44,5.06,5.06,0,0,1,1.34.17,3.66,3.66,0,0,1,1.08.48,3.36,3.36,0,0,1,.83.81l-.92.84a2.88,2.88,0,0,0-2.3-1.12,2.7,2.7,0,0,0-2,.68,2.86,2.86,0,0,0-.66,2.06v1.51a2.89,2.89,0,0,0,.67,2.09,2.65,2.65,0,0,0,2,.69,3.1,3.1,0,0,0,2.42-1.06l.8.81a3.15,3.15,0,0,1-.83.8,3.4,3.4,0,0,1-1.08.47,5.08,5.08,0,0,1-1.34.16A4.74,4.74,0,0,1,250.31,666.46Z"/><line class="cls-5" x1="142" y1="414" x2="142" y2="667"/></svg>