<svg id="Layer_1" data-name="Layer 1" xmlns="http://www.w3.org/2000/svg" xmlns:xlink="http://www.w3.org/1999/xlink" viewBox="0 0 549.87 1064.54"><defs><style>.cls-1,.cls-29{fill:#020001;}.cls-2{fill:url(#linear-gradient);}.cls-3{fill:url(#linear-gradient-2);}.cls-4{fill:url(#linear-gradient-3);}.cls-5{fill:url(#linear-gradient-4);}.cls-6{fill:url(#linear-gradient-5);}.cls-7{fill:url(#linear-gradient-6);}.cls-8{fill:url(#linear-gradient-7);}.cls-17,.cls-9{opacity:0.3;}.cls-9{fill:url(#linear-gradient-8);}.cls-10,.cls-16,.cls-29{font-size:61.66px;font-family:CenturyGothic-Bold, Century Gothic;font-weight:700;}.cls-10{fill:#fff;}.cls-11{font-family:CenturyGothic, Century Gothic;font-weight:400;}.cls-12{fill:url(#linear-gradient-9);}.cls-13{fill:url(#linear-gradient-10);}.cls-14{fill:url(#linear-gradient-11);}.cls-15{fill:url(#linear-gradient-12);}.cls-17{fill:url(#linear-gradient-13);}.cls-18{fill:url(#linear-gradient-14);}.cls-19{fill:url(#linear-gradient-15);}.cls-20{fill:url(#linear-gradient-16);}.cls-21{fill:url(#linear-gradient-17);}.cls-22{fill:url(#linear-gradient-18);}.cls-23{fill:url(#linear-gradient-19);}.cls-24{fill:url(#linear-gradient-20);}.cls-25{fill:url(#linear-gradient-21);}.cls-26{fill:url(#linear-gradient-22);}.cls-27{fill:url(#linear-gradient-23);}.cls-28{fill:url(#linear-gradient-24);}.cls-30{fill:url(#linear-gradient-25);}.cls-31{fill:url(#linear-gradient-26);}</style><linearGradient id="linear-gradient" x1="254.64" y1="186.98" x2="254.64" y2="104.75" gradientUnits="userSpaceOnUse"><stop offset="0" stop-color="#00a99d"/><stop offset="1" stop-color="#1b1464" stop-opacity="0.3"/></linearGradient><linearGradient id="linear-gradient-2" x1="163.64" y1="277.98" x2="163.64" y2="195.75" gradientTransform="translate(573.21 23.34) rotate(90)" xlink:href="#linear-gradient"/><linearGradient id="linear-gradient-3" x1="254.64" y1="368.98" x2="254.64" y2="286.75" gradientTransform="translate(549.87 596.54) rotate(180)" xlink:href="#linear-gradient"/><linearGradient id="linear-gradient-4" x1="345.64" y1="277.98" x2="345.64" y2="195.75" gradientTransform="translate(-23.34 573.21) rotate(-90)" xlink:href="#linear-gradient"/><linearGradient id="linear-gradient-5" x1="24.93" y1="57.27" x2="523.93" y2="57.27" xlink:href="#linear-gradient"/><linearGradient id="linear-gradient-6" x1="24.93" y1="75.27" x2="523.93" y2="75.27" xlink:href="#linear-gradient"/><linearGradient id="linear-gradient-7" x1="24.93" y1="391.27" x2="523.93" y2="391.27" xlink:href="#linear-gradient"/><linearGradient id="linear-gradient-8" x1="24.93" y1="-239.73" x2="523.93" y2="-239.73" gradientTransform="translate(0 630)" xlink:href="#linear-gradient"/><linearGradient id="linear-gradient-9" x1="84.68" y1="457.39" x2="84.68" y2="417.35" xlink:href="#linear-gradient"/><linearGradient id="linear-gradient-10" x1="434.05" y1="468.77" x2="434.05" y2="428.73" gradientTransform="translate(573.21 23.34) rotate(90)" xlink:href="#linear-gradient"/><linearGradient id="linear-gradient-11" x1="445.43" y1="119.39" x2="445.43" y2="79.35" gradientTransform="translate(549.87 596.54) rotate(180)" xlink:href="#linear-gradient"/><linearGradient id="linear-gradient-12" x1="96.05" y1="108.02" x2="96.05" y2="67.98" gradientTransform="translate(-23.34 573.21) rotate(-90)" xlink:href="#linear-gradient"/><linearGradient id="linear-gradient-13" x1="24.93" y1="543.27" x2="523.93" y2="543.27" xlink:href="#linear-gradient"/><linearGradient id="linear-gradient-14" x1="24.93" y1="-391.73" x2="523.93" y2="-391.73" gradientTransform="translate(0 934)" xlink:href="#linear-gradient"/><linearGradient id="linear-gradient-15" x1="84.68" y1="611.39" x2="84.68" y2="571.35" xlink:href="#linear-gradient"/><linearGradient id="linear-gradient-16" x1="588.05" y1="468.77" x2="588.05" y2="428.73" gradientTransform="translate(573.21 23.34) rotate(90)" xlink:href="#linear-gradient"/><linearGradient id="linear-gradient-17" x1="445.43" y1="-34.61" x2="445.43" y2="-74.65" gradientTransform="translate(549.87 596.54) rotate(180)" xlink:href="#linear-gradient"/><linearGradient id="linear-gradient-18" x1="-57.95" y1="108.02" x2="-57.95" y2="67.98" gradientTransform="translate(-23.34 573.21) rotate(-90)" xlink:href="#linear-gradient"/><linearGradient id="linear-gradient-19" x1="24.93" y1="697.27" x2="523.93" y2="697.27" xlink:href="#linear-gradient"/><linearGradient id="linear-gradient-20" x1="24.93" y1="-545.73" x2="523.93" y2="-545.73" gradientTransform="translate(0 1242)" xlink:href="#linear-gradient"/><linearGradient id="linear-gradient-21" x1="254.64" y1="804.98" x2="254.64" y2="722.75" xlink:href="#linear-gradient"/><linearGradient id="linear-gradient-22" x1="781.64" y1="277.98" x2="781.64" y2="195.75" gradientTransform="translate(573.21 23.34) rotate(90)" xlink:href="#linear-gradient"/><linearGradient id="linear-gradient-23" x1="254.64" y1="-249.02" x2="254.64" y2="-331.25" gradientTransform="translate(549.87 596.54) rotate(180)" xlink:href="#linear-gradient"/><linearGradient id="linear-gradient-24" x1="-272.36" y1="277.98" x2="-272.36" y2="195.75" gradientTransform="translate(-23.34 573.21) rotate(-90)" xlink:href="#linear-gradient"/><linearGradient id="linear-gradient-25" x1="24.93" y1="1007.27" x2="523.93" y2="1007.27" xlink:href="#linear-gradient"/><linearGradient id="linear-gradient-26" x1="24.93" y1="-856.73" x2="523.93" y2="-856.73" gradientTransform="translate(0 1864)" xlink:href="#linear-gradient"/></defs><title>Artboard2</title><rect class="cls-1" x="24.93" y="84.27" width="500" height="297"/><path class="cls-2" d="M254.64,104.59h0a41.19,41.19,0,0,0-41.19,41.19h0V187h41.19v-41.2h41.2V104.59Z"/><path class="cls-3" d="M377.62,187h0a41.2,41.2,0,0,0-41.2-41.2H295.23V187h41.19v41.2h41.2Z"/><path class="cls-4" d="M295.23,310h0a41.2,41.2,0,0,0,41.19-41.2h0v-41.2H295.23v41.2H254V310Z"/><path class="cls-5" d="M172.25,227.56h0a41.19,41.19,0,0,0,41.2,41.2h41.19v-41.2H213.45V186.37h-41.2Z"/><rect class="cls-6" x="24.93" y="48.27" width="500" height="18"/><rect class="cls-7" x="24.93" y="66.27" width="500" height="18" transform="translate(549.87 150.54) rotate(180)"/><rect class="cls-8" x="24.93" y="382.27" width="500" height="18"/><rect class="cls-9" x="24.93" y="381.27" width="500" height="18" transform="translate(549.87 780.54) rotate(180)"/><text class="cls-10" transform="translate(97.19 362.3)">ANGLE <tspan class="cls-11" x="219.44" y="0">PLUS</tspan></text><path class="cls-12" d="M84.68,417.27h0a20.06,20.06,0,0,0-20.06,20.06h0v20.06H84.68V437.33h20.06V417.27Z"/><path class="cls-13" d="M144.56,457.39h0a20.06,20.06,0,0,0-20.06-20.06H104.44v20.06H124.5v20.06h20.06Z"/><path class="cls-14" d="M104.44,517.27h0a20.06,20.06,0,0,0,20.06-20.06h0V477.15H104.44v20.06H84.38v20.06Z"/><path class="cls-15" d="M44.56,477.15h0a20.06,20.06,0,0,0,20.06,20.06H84.68V477.15H64.62V457.09H44.56Z"/><text class="cls-16" transform="translate(149.36 484.3)">ANGLE <tspan class="cls-11" x="219.44" y="0">PLUS</tspan></text><rect class="cls-17" x="24.93" y="534.27" width="500" height="18"/><rect class="cls-18" x="24.93" y="533.27" width="500" height="18" transform="translate(549.87 1084.54) rotate(180)"/><rect class="cls-1" x="24.93" y="551.27" width="500" height="136"/><path class="cls-19" d="M84.68,571.27h0a20.06,20.06,0,0,0-20.06,20.06h0v20.06H84.68V591.33h20.06V571.27Z"/><path class="cls-20" d="M144.56,611.39h0a20.06,20.06,0,0,0-20.06-20.06H104.44v20.06H124.5v20.06h20.06Z"/><path class="cls-21" d="M104.44,671.27h0a20.06,20.06,0,0,0,20.06-20.06h0V631.15H104.44v20.06H84.38v20.06Z"/><path class="cls-22" d="M44.56,631.15h0a20.06,20.06,0,0,0,20.06,20.06H84.68V631.15H64.62V611.09H44.56Z"/><text class="cls-10" transform="translate(149.36 638.3)">ANGLE <tspan class="cls-11" x="219.44" y="0">PLUS</tspan></text><rect class="cls-23" x="24.93" y="688.27" width="500" height="18"/><rect class="cls-24" x="24.93" y="687.27" width="500" height="18" transform="translate(549.87 1392.54) rotate(180)"/><path class="cls-25" d="M254.64,722.59h0a41.19,41.19,0,0,0-41.19,41.19h0V805h41.19v-41.2h41.2V722.59Z"/><path class="cls-26" d="M377.62,805h0a41.2,41.2,0,0,0-41.2-41.2H295.23V805h41.19v41.2h41.2Z"/><path class="cls-27" d="M295.23,928h0a41.2,41.2,0,0,0,41.19-41.2h0v-41.2H295.23v41.2H254V928Z"/><path class="cls-28" d="M172.25,845.56h0a41.19,41.19,0,0,0,41.2,41.2h41.19v-41.2H213.45V804.37h-41.2Z"/><text class="cls-29" transform="translate(97.19 980.3)">ANGLE <tspan class="cls-11" x="219.44" y="0">PLUS</tspan></text><rect class="cls-30" x="24.93" y="998.27" width="500" height="18"/><rect class="cls-31" x="24.93" y="998.27" width="500" height="18" transform="translate(549.87 2014.54) rotate(180)"/></svg>