<svg id="Layer_1" data-name="Layer 1" xmlns="http://www.w3.org/2000/svg" xmlns:xlink="http://www.w3.org/1999/xlink" viewBox="0 0 438.2 437.92"><defs><style>.cls-1,.cls-2{fill:#726658;}.cls-2{opacity:0.9;}.cls-3{fill:url(#radial-gradient);}.cls-4{fill:none;}.cls-5,.cls-6{fill:#fff;}.cls-5{opacity:0.3;}</style><radialGradient id="radial-gradient" cx="59.2" cy="55.82" r="374.83" gradientUnits="userSpaceOnUse"><stop offset="0" stop-color="#2484c6" stop-opacity="0"/><stop offset="1" stop-color="#2484c6"/></radialGradient></defs><title>Artboard 19</title><path class="cls-1" d="M428,285.21C400.5,372.08,320.28,435.49,224.9,437.92l3.37-5.34c9.49-8.26,34.6-7.91,34.6-7.91,14.66,2,96.66-51.67,102.66-68s-23.33-16-31.33-28,7-23.5,16-30.67-4-52-4-52S385.82,280.42,428,285.21Z"/><path class="cls-2" d="M365.53,356.67c-6,16.33-88,70-102.66,68,0,0-25.11-.35-34.6,7.91a9.87,9.87,0,0,0-3.37,5.34c-1.9.06-3.79.08-5.7.08C100.94,438,4.57,344.26.35,227c3,22.6,30.44,85.87,239.85,99,0,0,41-4.92,72.06-26.3L346.2,246s13,44.83,4,52-24,18.67-16,30.67S371.53,340.33,365.53,356.67Z"/><path class="cls-1" d="M228.27,432.58l-3.37,5.34A9.87,9.87,0,0,1,228.27,432.58Z"/><path class="cls-3" d="M438.2,219A218.75,218.75,0,0,1,428,285.21C385.82,280.42,346.2,246,346.2,246l-33.94,53.7C281.19,321.08,240.2,326,240.2,326,30.79,312.91,3.39,249.64.35,227q-.15-4-.15-8A217.9,217.9,0,0,1,37.29,97Q43,88.51,49.48,80.58a221.53,221.53,0,0,1,31.3-31.3A218.45,218.45,0,0,1,219.2,0C340.15,0,438.2,98.05,438.2,219Z"/><path class="cls-4" d="M.35,227a28.82,28.82,0,0,1-.15-8"/><path class="cls-1" d="M228.27,432.58l-3.37,5.34A9.87,9.87,0,0,1,228.27,432.58Z"/><path class="cls-5" d="M152.62,92.67A57.75,57.75,0,0,1,37.29,97Q43,88.51,49.48,80.58a221.53,221.53,0,0,1,31.3-31.3,218.73,218.73,0,0,1,19.36-14.12A57.75,57.75,0,0,1,152.62,92.67Z"/><path class="cls-6" d="M114.9,82a32.73,32.73,0,0,1-65.45,0c0-.47,0-.94,0-1.4a221.53,221.53,0,0,1,31.3-31.3c.46,0,.93,0,1.4,0A32.72,32.72,0,0,1,114.9,82Z"/><polygon class="cls-6" points="291.28 84.48 291.72 85.37 292.71 85.51 292 86.21 292.17 87.19 291.28 86.73 290.4 87.19 290.57 86.21 289.86 85.51 290.84 85.37 291.28 84.48"/><polygon class="cls-6" points="340.7 82.06 341.41 83.5 343 83.73 341.85 84.85 342.12 86.43 340.7 85.69 339.28 86.43 339.55 84.85 338.4 83.73 339.99 83.5 340.7 82.06"/><polygon class="cls-6" points="213.2 9 213.93 10.49 215.57 10.73 214.39 11.89 214.67 13.52 213.2 12.75 211.73 13.52 212.01 11.89 210.82 10.73 212.46 10.49 213.2 9"/><polygon class="cls-6" points="198.2 151.2 198.73 152.27 199.91 152.44 199.05 153.28 199.26 154.46 198.2 153.9 197.14 154.46 197.34 153.28 196.48 152.44 197.67 152.27 198.2 151.2"/><polygon class="cls-6" points="324.2 173.99 325.08 175.78 327.06 176.07 325.63 177.47 325.97 179.44 324.2 178.51 322.43 179.44 322.76 177.47 321.33 176.07 323.31 175.78 324.2 173.99"/><polygon class="cls-6" points="256.7 41.88 257.02 42.55 257.76 42.66 257.23 43.17 257.35 43.91 256.7 43.56 256.04 43.91 256.17 43.17 255.63 42.66 256.37 42.55 256.7 41.88"/><polygon class="cls-6" points="246.2 114.09 246.61 114.93 247.54 115.06 246.87 115.72 247.03 116.64 246.2 116.21 245.37 116.64 245.52 115.72 244.85 115.06 245.78 114.93 246.2 114.09"/><polygon class="cls-6" points="152.61 67.5 152.91 68.09 153.56 68.19 153.09 68.66 153.2 69.31 152.61 69 152.03 69.31 152.14 68.66 151.66 68.19 152.32 68.09 152.61 67.5"/><polygon class="cls-6" points="33.7 147 34.7 149.03 36.95 149.36 35.32 150.94 35.7 153.18 33.7 152.13 31.69 153.18 32.07 150.94 30.45 149.36 32.69 149.03 33.7 147"/><polygon class="cls-6" points="57.7 171.99 58.28 173.18 59.6 173.37 58.65 174.29 58.87 175.6 57.7 174.99 56.52 175.6 56.75 174.29 55.8 173.37 57.11 173.18 57.7 171.99"/><polygon class="cls-6" points="106.7 160.31 107.49 161.91 109.26 162.17 107.98 163.42 108.28 165.18 106.7 164.35 105.11 165.18 105.42 163.42 104.14 162.17 105.91 161.91 106.7 160.31"/><polygon class="cls-6" points="153.56 221.96 154.31 223.47 155.98 223.72 154.77 224.89 155.06 226.56 153.56 225.77 152.07 226.56 152.36 224.89 151.15 223.72 152.82 223.47 153.56 221.96"/><polygon class="cls-6" points="266.2 235.92 266.66 236.86 267.7 237.01 266.95 237.74 267.13 238.78 266.2 238.29 265.27 238.78 265.44 237.74 264.69 237.01 265.73 236.86 266.2 235.92"/><polygon class="cls-6" points="412.7 221.55 413.56 223.31 415.5 223.59 414.1 224.96 414.43 226.89 412.7 225.97 410.96 226.89 411.29 224.96 409.89 223.59 411.83 223.31 412.7 221.55"/><polygon class="cls-6" points="409.89 145.5 410.63 146.99 412.27 147.23 411.08 148.39 411.36 150.02 409.89 149.25 408.42 150.02 408.7 148.39 407.51 147.23 409.16 146.99 409.89 145.5"/></svg>