<svg id="Layer_1" data-name="Layer 1" xmlns="http://www.w3.org/2000/svg" xmlns:xlink="http://www.w3.org/1999/xlink" viewBox="0 0 333.61 420"><defs><style>.cls-1{fill:url(#linear-gradient);}.cls-2{fill:url(#linear-gradient-2);}.cls-3{fill:url(#linear-gradient-3);}.cls-4{fill:url(#linear-gradient-4);}.cls-5{fill:url(#linear-gradient-5);}.cls-6{fill:url(#linear-gradient-6);}.cls-7{fill:url(#linear-gradient-7);}.cls-8{fill:#3c2415;stroke:#231f20;}.cls-8,.cls-9{stroke-miterlimit:10;}.cls-9{fill:#754c29;stroke:#fff;}</style><linearGradient id="linear-gradient" x1="64.08" y1="345.01" x2="64.08" y2="58.99" gradientUnits="userSpaceOnUse"><stop offset="0" stop-color="#be1e2d"/><stop offset="0.15" stop-color="#c0222c"/><stop offset="0.3" stop-color="#c42e29"/><stop offset="0.46" stop-color="#cc4225"/><stop offset="0.61" stop-color="#d75f1f"/><stop offset="0.77" stop-color="#e58316"/><stop offset="0.92" stop-color="#f5b00d"/><stop offset="1" stop-color="#ffc907"/></linearGradient><linearGradient id="linear-gradient-2" x1="82.02" y1="337.9" x2="82.02" y2="44.29" xlink:href="#linear-gradient"/><linearGradient id="linear-gradient-3" x1="99.91" y1="312.27" x2="99.91" y2="28.31" xlink:href="#linear-gradient"/><linearGradient id="linear-gradient-4" x1="136.59" y1="260.8" x2="136.59" y2="0" xlink:href="#linear-gradient"/><linearGradient id="linear-gradient-5" x1="215.17" y1="280.31" x2="215.17" y2="6.06" xlink:href="#linear-gradient"/><linearGradient id="linear-gradient-6" x1="247.66" y1="330.42" x2="247.66" y2="47.36" xlink:href="#linear-gradient"/><linearGradient id="linear-gradient-7" x1="271.62" y1="345.02" x2="271.62" y2="60.2" xlink:href="#linear-gradient"/></defs><title>Artboard 27</title><path class="cls-1" d="M64,118.69c2.55-4.24,4.87-7.9,6.75-10.88s3.43-5.43,4.6-7.33,2-3.22,2.33-4,.37-1,0-.78a8.29,8.29,0,0,0-1.23,1c-.57.54-1.28,1.24-2.14,2.09,4.08-5.71,6.22-8.61,10.74-14.53q2.87-3.15,5.1-5.72c1.49-1.7,2.81-3.24,4-4.59s2.09-2.45,2.81-3.26,1.25-1.4,1.6-1.72c1-1,2.07-2,3.15-3.11s2.06-2.18,2.92-3.13,1.61-1.8,2.23-2.52,1-1.14,1.08-1.25c.28-.27-.26.81-1.57,3.24S102.9,68.6,100,73.84c-1.16,2.09-3.43,6.18-6.64,12.07s-6.78,12.52-10.57,19.77-7.6,14.68-11.34,22.22-7,14.32-9.83,20.44l-1.15,0c1.64-3.56,3.25-6.95,4.78-10.15s3-6.24,4.44-9.13c4.12-8.36,7.75-15.45,10.6-21S85.41,98.22,87,95.05a65.66,65.66,0,0,0,2.92-6.26c.34-1,.27-1.35-.2-1.12-.32.15-.66.3-1,.47a10.55,10.55,0,0,0-.94.56l-2.35,1.51-.42.26c-.14.09-.31.21-.5.36s-.39.32-.6.49-.48.37-.77.62a603.47,603.47,0,0,0-34.44,60.39c-16.12,32.59-28.68,69.6-23.62,106.61a11.42,11.42,0,0,0,3.15.33,7,7,0,0,0,2.33-.53,4.4,4.4,0,0,0,2.06-2,17.74,17.74,0,0,0,1.48-4.16c.46,4.68,1.07,8.67,1.68,12.12.5,2.85,1,5.2,1.3,7.12s.58,3.47.69,4.67a10,10,0,0,1,0,2.79A1.81,1.81,0,0,1,37,280.6c-.67.39-1.62.31-2.89-.27a33.73,33.73,0,0,1-4.45-2.56c4.45,10.65,9.34,20.78,16.65,29.65a115.89,115.89,0,0,0,22.54,20.71A145.19,145.19,0,0,0,89.68,340c5.73,2.64,9.64,4,10.5,4.47.51.26.71.36,1,.49h0A175.68,175.68,0,0,1,71.4,331.1c-17.77-10.37-31.49-25.88-41-43.83-13.24-24.89-11.93-55.36-5.4-81.82C32.4,175.25,47.5,146.18,64,118.69Z"/><path class="cls-2" d="M85.24,108.7c2.17-4.49,4.09-8.42,5.67-11.71S93.76,91,94.67,89a43,43,0,0,0,1.75-4.22c.25-.81.19-1.09-.19-.83a7.62,7.62,0,0,0-1.15,1.16c-.53.61-1.16,1.38-1.92,2.32,3.29-6.26,5-9.45,8.54-16,1.65-2.31,3.13-4.41,4.43-6.27s2.47-3.54,3.49-5,1.86-2.66,2.53-3.54a17,17,0,0,1,1.55-1.85q1.56-1.44,3.17-3.23c1.08-1.19,2-2.3,2.91-3.3s1.59-1.9,2.19-2.67,1-1.2,1.06-1.3c.3-.3,0,.87-.93,3.45s-2.47,6.73-4.68,12.28c-.89,2.22-2.62,6.55-5.16,12.78s-5.43,13.22-8.64,20.84S97.1,109.09,93.7,117s-6.5,14.91-9.32,21.26l-1.27.32c1.62-3.7,3.16-7.23,4.61-10.56s2.83-6.52,4.12-9.54c3.76-8.74,6.9-16.19,9.29-22S105.36,86,106.6,82.68a47.69,47.69,0,0,0,2.13-6.59c.18-1,0-1.41-.51-1.12-.75.43-1.41.86-2,1.22s-1.14.75-1.68,1.13l-.63.45c-.3.21-.62.45-1,.73a6.91,6.91,0,0,0-1.34,1.22c-5.54,7.7-9.93,20.71-14.78,31.07-5.18,11.06-10.3,22.23-15.29,33.36-7.64,17.07-15.18,34.55-20.12,52.15A216,216,0,0,0,43.81,246a8.17,8.17,0,0,0,2.69-.65A8.93,8.93,0,0,0,51,241.18a33.49,33.49,0,0,0,2.14-4.83c-.21,4.56-.25,8.46-.25,11.84,0,2.81,0,5.16,0,7.12s-.11,3.6-.25,5a16.34,16.34,0,0,1-.6,3.26,5.09,5.09,0,0,1-1,1.87,2.76,2.76,0,0,1-2.54.92,9.84,9.84,0,0,1-3.33-1.23,106.81,106.81,0,0,0,4.14,17.64,97.25,97.25,0,0,0,7.84,17.76A96,96,0,0,0,67.33,315a103.33,103.33,0,0,0,9.8,10c2.89,2.6,5.2,4.44,6.91,5.82s2.72,2.23,3.34,2.81c-.64-.82-1.22-1.62-1.72-2.4a23.73,23.73,0,0,1-1.2-2.1,24.84,24.84,0,0,1-1.09-2.45c-.3-.77-.6-1.6-.9-2.5-.21-.59-.43-1.23-.7-1.9a18.08,18.08,0,0,0-1.21-2.48c-.59-1-1.44-2.28-2.77-4.12s-3.28-4.35-5.91-8.36c.14-.45.22-.68.37-1.16,3.82,5.8,6.31,8.7,7.62,10.67s1.61,3,1.63,3.9a17.57,17.57,0,0,1-.28,2.19,4.6,4.6,0,0,0,.34,2.09,10.41,10.41,0,0,0,1,1.81c.41.62.86,1.27,1.33,1.94l1.46,2.06c.5.71,1,1.46,1.59,2.24s1,1.45,1.67,2.25,1.25,1.61,1.8,2.38l.18.14c.4-.44-.53-1.34-3.75-3.68a143.11,143.11,0,0,1-15.14-12.36,98.39,98.39,0,0,1-20.44-28.05c-7.52-15.37-10-32.65-10.31-50.49-.43-25.94,8.12-52.83,17.81-76.58C66.57,147.49,76,127.84,85.24,108.7Z"/><path class="cls-3" d="M109.22,94.88c1.8-4.64,3.3-8.73,4.53-12.14s2.17-6.22,2.83-8.35a33,33,0,0,0,1.19-4.55c.13-.89,0-1.18-.43-.89a21.82,21.82,0,0,0-3.2,4.24c2.4-6.31,3.62-9.54,6.07-16.13q2.28-4.05,4.73-8.53L129.56,40c1.46-2.7,2.76-5.08,3.93-7.11a21.49,21.49,0,0,1,2.83-4.14c1-1,1.48-.18,1.59,2.32s-.31,7.31-1.28,14.11S134.05,61,131.57,71.7a342.38,342.38,0,0,1-11.14,37.79c-5.27,14.71-12,29-17.89,43.31-5.11,12.46-10,25.22-14.53,38-3.74,10.46-6.62,18.95-9.14,26.12s-4.58,12.94-6.5,17.64c.5,9.62.9,19.22,3.93,28.43,1.93,5.86,3.93,9.23,5.56,11.3s2.94,2.89,3.94,3.16a2.48,2.48,0,0,0,2.36-.49,5.25,5.25,0,0,0,1.15-1.52c.32-.6.6-1.27.88-1.95s.59-1.43.92-2.2.72-1.57,1.16-2.43,1-1.83,1.47-2.68,1.09-1.79,1.74-2.83a3.49,3.49,0,0,0-.21-1.24c-2.25,3-4.18,5.44-5.7,7.62a31.9,31.9,0,0,0-3.25,5.51,12.27,12.27,0,0,0-.71,2.21,12,12,0,0,0-.28,2.12,17.32,17.32,0,0,0,0,2c0,.66.06,1.33,0,2a4,4,0,0,1-.68,2.66c-.55.55-1.61.61-3.48-1s-4.73-4.9-7.66-12.17c-5-12.52-5.59-25.54-5.95-38.93.07-.73.11-1.1.2-1.84,2-2.49,4.05-6.37,6.22-11.77s4.52-12.14,7.43-20.75c3.64-10.76,7.44-21.54,11.39-32.17,5.46-14.72,12.2-29.28,17.94-43.73a351.8,351.8,0,0,0,17.09-54.61c2.79-12.82,3.27-19.13,1.24-17.53a7.81,7.81,0,0,0-1.48,1.72c-.55.81-1.2,1.83-2,3.07-4,12.17-8.15,24.32-12.63,36.27-5.72,15.27-11.82,30.57-18.25,45.5-10.21,23.7-20.21,48.27-25,73.45-3.41,17.85-5.82,36.78-2.89,54.44,1.72,10.37,4.5,21,9.59,30.66,3.35,6.35,5.49,9.19,2.93,9.65-.29,2.26-.38,3.34-.49,5.41,0,.15,0,.23.07.38,3.73-.53-.64-4.63-5.28-13.22-7-12.93-9.82-26.68-11.26-40.81-2.56-25.18,4-52.06,11.66-75.82C83.54,153.22,97.87,124.12,109.22,94.88Z"/><path class="cls-4" d="M152.46,46.54C152,56,151.2,65.48,150.21,74.85s-2.08,18.9-3.88,27.9c-2.42,12-6.63,24.48-9.11,36.48a175,175,0,0,0-3.88,29.71c-.23,8,.43,14.11,1.67,18.55s3,7.11,5.06,8.51a7.19,7.19,0,0,0,6.48.8,18.62,18.62,0,0,0,6.36-3.85c-1.19.36-2.28-4.06-2-12,.39-11.18,2.51-22.35,4.66-33.19,3-15,7.4-30,11.49-44.73a158.44,158.44,0,0,0,6-32.52,240.93,240.93,0,0,0,.42-25.26c-.27-7.44-.83-14-1.37-19.29-.47-4.51-.93-8.43-1.29-11.64s-.67-5.88-.87-7.95a40.14,40.14,0,0,1-.25-4.59c0-1,.17-1.89.41-1.71.58.44,1.64,2.84,3.24,7,.19.73.29,1.09.47,1.81a246.48,246.48,0,0,1,4.5,28.8,206,206,0,0,1,.28,33.59c-.9,13.84-5.17,27-8.82,40.4-3.4,12.49-6.64,25.28-9.07,38.11a198.12,198.12,0,0,0-3.24,22.94,55.32,55.32,0,0,0,0,10.68,7.31,7.31,0,0,0,1,3.29c.38.48.8.39,1.2-.19a8.73,8.73,0,0,0,1-3.18,33.47,33.47,0,0,0,.39-6c-2.87,2.66-4.27,4-7,6.59l-1,1.12c-1,2.19-2.28,4.94-3.85,8a72.48,72.48,0,0,1-5.36,8.84,27,27,0,0,1-6.49,6.67c-2.3,1.52-4.63,2.11-6.79,1.35s-4.15-2.87-5.63-6.68-2.45-9.21-2.59-16.33a146.3,146.3,0,0,1,2.27-26,284.91,284.91,0,0,1,8-33.64c2.67-9,5.51-18.08,7.29-27.41,1.37-7.17,2.55-13.84,3.42-19.49-6,24-15.46,46.83-23.26,70-6.12,18.13-11.79,37.22-14.6,56.1-1.43,9.59-2.59,19.55-2.31,29.42.18,6.45.75,10.1.94,12.22.13,1.49,0,2.11-.19,2.45a1.65,1.65,0,0,1-1.16.47,7.21,7.21,0,0,0-1.61.33,5.56,5.56,0,0,0-1.71,1,10.62,10.62,0,0,0-1.72,2c-.57.83-1.2,1.83-1.88,3l-.61,1.07c-.12.21-.26.48-.43.8l-.65,1.23c0,.26,0,.4-.09.66,1.94-.34,3.35-.79,4.18-1.82s1.06-2.68,1-5.49-.39-6.78-.43-12.5a174.06,174.06,0,0,1,1.34-22.33,283.07,283.07,0,0,1,6.51-33.52,417.19,417.19,0,0,1,13.75-43.58c4.79-13.05,10.43-26.1,14.63-39.48,2.91-9.28,5.44-18.87,7.51-28.38,1-4.59,1.78-8.63,2.34-12s.92-6.14,1.1-8.26A19.91,19.91,0,0,0,146,49c-.15-.83-.47-1.07-1-.71a6.25,6.25,0,0,0-1.33,1.57c-.53.79-1.16,1.87-1.92,3.22,1.17-6.21,1.72-9.39,2.74-15.94,1.15-3,2.13-5.66,3-8s1.52-4.43,2.1-6.11,1.06-3,1.47-4a5.91,5.91,0,0,1,1-1.93c.3-.26.52.09.67,1.05a41.49,41.49,0,0,1,.33,5c.05,2.35.05,5.52,0,9.43S152.76,41.1,152.46,46.54Z"/><path class="cls-5" d="M247.21,270.56c-.17-.28-.25-.43-.43-.72-3.23.55-5.53-.21-7.36-2.19s-3.21-5.23-4.36-9.57a122.63,122.63,0,0,1-2.83-16.27c-.77-6.45-1.39-14-1.9-22.57-.79-13.31-1.19-26.66-1.39-40-.24-15.72-.18-31.46-.52-47.18l-.17-.16c-.82,15.08-2,30.13-3.38,45.16Q223.49,192.53,222,208c-.78,8.31-1.37,14.9-1.76,19.87s-.57,8.49-.51,10.46.36,2.43.83,1.24a43.38,43.38,0,0,0,1.72-8.69c-2.29-3.35-3.5-5.06-6.08-8.59l-.86-1c-20.9,15.32-22.69-45.11-22.9-51.55-1.18-34.55,5.92-68.39-.73-103.37-1.09-5.68-2.25-10.75-3.33-15s-2.15-8-3.11-11a65.7,65.7,0,0,0-2.59-7,10,10,0,0,0-2.08-3.28,1.46,1.46,0,0,0-1.22-.43,3.52,3.52,0,0,0-1.33.61c-1.12-5.87-1.77-8.89-3.25-15.13a43.42,43.42,0,0,0,1-7.13c.12-1.72.34-2.41.89-1.88a16.05,16.05,0,0,1,2.12,3.89c1,2.18,2.32,5.46,3.94,9.76s3.57,9.72,5.64,16.08,4.34,13.88,6.53,22.23a413.1,413.1,0,0,1,8.21,41.42c3,19.15-1.13,40.88-1.44,60.13-.26,16.92-.05,34.59,3.25,51.47,2.52,12.94,6.43,20.78,11.39,22.63l.24.29c-.35,1.36-.67,1.61-.78,0a91.49,91.49,0,0,1,.47-11c.47-6,1.3-14.43,2.5-26.06,1.52-14.72,3.06-29.48,4.49-44.18,1.77-18.26,1.48-34.24-2.1-51.9-4-19.74-11.31-39-19.08-57.95-1.07-2.48-1.8-4.22-2.15-5.21s-.44-1.38-.25-1.2a10,10,0,0,1,1.14,1.81,473.47,473.47,0,0,1,20.09,48.51c5.71,16.59,11.85,34.63,13.48,50.95,1.79,17.91.75,38.59,1.28,57.85.39,14.13.81,28.31,1.61,42.43a239.69,239.69,0,0,0,2.46,25.75c1.06,6.09,2.37,9.73,4.07,11.88l.08.16c-.56.06-.65-1.29-.26-4.72s1.26-8.86,2.36-16.56c1.42-9.92,2.54-20,3.5-29.9,1.33-13.84,2-28,2.37-41.82.36-14.88.38-29.39-3.09-44A293.84,293.84,0,0,0,237.37,102c-2.5-6.52-5.36-13.38-8.63-20.57s-6.72-14.25-10.24-21-7-13.21-10.39-19.13-6.26-10.8-8.52-14.5c-1.07-1.85-1.62-2.78-2.73-4.66-.16-.36-.28-.64-.35-.84s0-.23.08-.09c.35.37,1.41,1.92,3.15,4.61s4.25,6.69,7.38,11.88,6.95,11.77,11.16,19.44c4.71,8.57,9.18,17.44,13.28,26.29s8.16,18.37,11.39,27.69a358.34,358.34,0,0,1,10,34.68c3.22,13.51,2.72,27.46,2.25,41.15-.45,13.1-1.27,26.27-2.45,39.35-.9,9.91-2.24,19.93-3.79,29.77-1.26,8.05-2.34,14-2.93,18s-.69,5.94-.11,6.24,1.82-1.09,3.63-3.66C248.67,274.27,248.22,273.06,247.21,270.56Z"/><path class="cls-6" d="M247.75,113.08c-2.22-5.73-4.53-10.9-6.53-15.28s-3.8-8.07-5.28-11-2.71-5.15-3.62-6.7a16.59,16.59,0,0,0-2-3c-.28-.27-.47-.32-.57-.14a2.65,2.65,0,0,0-.2.94c-4.07-8.35-6.29-12.65-11.12-21.5-.5-1.59-1-3-1.39-4.23s-.79-2.28-1.09-3.14a4.62,4.62,0,0,1-.38-1.62c.05-.21.26-.11.66.3a37.12,37.12,0,0,0,2.7,2.57c.69.57,1.26,1,1.71,1.34a3.53,3.53,0,0,0,.93.56.82.82,0,0,1,.41.23c.3.32,1.81,2.48,4.4,6.42s6.39,9.83,10.92,17.4c1.81,3,5.29,8.92,9.83,17.21,4.89,8.94,9.53,18.24,13.72,27.5a309.41,309.41,0,0,1,11.76,29.86,246,246,0,0,1,7.22,26.35l-1.52-1.93c-1-4.53-2.1-8.9-3.27-13.06s-2.38-8.24-3.69-12c-3.32-9.62-7-19.29-11.25-28.63-3.49-7.73-6.73-14.21-9.3-19.06s-4.6-8.38-5.9-10.49a32.76,32.76,0,0,0-3-4.26c-.88-.94-1.67-1.76-2.33-2.44s-1.28-1.3-1.85-1.86l-.67-.65c-.31-.31-.62-.59-.91-.83a7.53,7.53,0,0,0-.91-.6c-.52.54,13,26.78,18.4,40.49a302.89,302.89,0,0,1,12.65,41.47c3.32,14,3.23,29.77,3.12,44.21-.1,13-.78,25.91-1.87,38.94,1.23,1.93,2.26,3.51,3.16,4.76a39.48,39.48,0,0,0,2.46,3.15,5.74,5.74,0,0,0,2.49,1.86,2.69,2.69,0,0,0,2.32-.48c-.45,3.89-1,7.15-1.55,9.87A38.31,38.31,0,0,1,275,271a10.88,10.88,0,0,1-1.4,2.82c-.46.59-.89.84-1.32.78a2.07,2.07,0,0,1-1.26-.93,22.52,22.52,0,0,1-2.37-4.7c-.86-2.16-1.83-4.66-3-7.55-.63,4.17-1.45,8.88-2.46,13.75s-2.11,9.51-3.24,13.75-2.24,7.95-3.21,11.11-1.72,5.57-2.21,7.46a16.57,16.57,0,0,0-.69,4.05,2.26,2.26,0,0,0,.5,1.64c-.15,1.19-.3,2.3-.46,3.37s-.32,2-.49,2.87c-.23,1.2-.48,2.3-.75,3.31s-.57,2-.89,2.83a10.11,10.11,0,0,1-.53,1.23c-.12.24-.17.27,0,0s.58-.88,1.46-2.08,2.3-3,4.5-6.21c-.07.53-.11.8-.19,1.31-3.5,4.89-5.48,7.25-6.4,8.65s-.91,1.87-.6,2a1.79,1.79,0,0,0,1.4-.52,4.9,4.9,0,0,0,1.31-1.58,9.28,9.28,0,0,0,.69-1.79c.18-.69.37-1.46.55-2.33s.38-1.84.57-2.92l.66-3.56c.22-1.14.47-2.43.75-3.9s.61-3.05,1-4.78c0-.16,0-.24,0-.41-1.44.18-2.67,0-3.17-1.39s-.23-3.84.77-8.44,2.66-11.27,4.54-21.12a364.64,364.64,0,0,0,5-39,456.63,456.63,0,0,0,.5-59.75C263.34,156.26,256,134.26,247.75,113.08Z"/><path class="cls-7" d="M270.69,129.29c3,6.38,6.64,14.42,10.2,23.55a280.44,280.44,0,0,1,9.93,31.79c3.3,12.88,4.16,26.38,4.13,39.74a177.09,177.09,0,0,1-5,42.28c1.23.61,2.43,1.21,3.57,1.81s2.29,1.19,3.42,1.8,2.28,1.22,3.44,1.86a27,27,0,0,0,3.64,2c2.08-.81,5-18.73,5.78-27.8a163.67,163.67,0,0,0-1.14-35.79c-2.18-16.14-8-32.36-14.16-47.64-9.79-24.31-24-47.09-38.65-69.17-2.67-3.9-5-7.24-7-10s-3.6-5-4.92-6.85L241.1,73c-.57-.78-.79-1.1-.65-1s.9,1.1,2.17,2.72,3,3.85,5.12,6.65c17.94,24.73,35.31,50.31,47.49,78,8.08,18.34,15.36,37.86,17.68,57.57,1.69,14.4,2.14,29.76-1.19,44a125.29,125.29,0,0,1-12.74,33c-4.77,8.63-12.36,17.44-19.76,24.14A134.58,134.58,0,0,1,257,334.33c-4.77,2.78-8.38,4.54-11,5.81s-4.49,2-5.78,2.59l-2.54,1.09a3.35,3.35,0,0,0-.77.39s0,.05.14,0A10.57,10.57,0,0,0,238,344c-1.16.38-1.66.53-2.41.75l-.94.2-.16,0,.2-.07a2.22,2.22,0,0,0,.3-.11,2.12,2.12,0,0,0,.41-.23,7.13,7.13,0,0,1,.86-.51c.52-.28,1.39-.7,3.12-1.52s4.4-2.06,8.59-4.32a111.26,111.26,0,0,0,13.88-8.6,124.92,124.92,0,0,0,10.39-8.23,116,116,0,0,0,9.65-9.56A109.84,109.84,0,0,0,290.47,301a107.07,107.07,0,0,0,7.36-12.29l-3.18-2c-1-.62-2-1.21-3.07-1.74s-2.07-1.05-3.14-1.52-2.18-1-3.33-1.42c-11.1,23.89-25.48,37-40.91,56.44.88-.69,1.35-1.07,2.32-1.91l.15-.19c-1.93-.92,3.33-4.8,10.05-12.27a132.62,132.62,0,0,0,22-34.44c8.65-19.15,11.93-40.93,12.63-61.73,1.06-31.9-6.56-60.87-19.07-90.87-2.83-6.8-5.89-13-8.52-18.2s-5-9.64-7-13.14-3.56-6.17-4.68-8a23.06,23.06,0,0,0-2.26-3.24c-.52-.5-.46.1.06,1.73-4.49-8.09-6.92-12.24-12.19-20.78-2.83-5.26-5.22-9.32-6.75-11.92s-2.18-3.73-1.75-3.27,1.86,2.4,4.24,5.8,5.69,8.26,9.67,14.39,8.53,13.47,13.29,21.7C261.45,111,266.31,120.11,270.69,129.29Z"/><path class="cls-8" d="M119.11,347.37l-113,31.44a4.07,4.07,0,0,0-2.74,5.35l5.84,15.62a4.11,4.11,0,0,0,5.5,2.31L121.87,355a4.08,4.08,0,0,0,2.15-5.25h0A4.11,4.11,0,0,0,119.11,347.37Z"/><ellipse class="cls-9" cx="6.28" cy="391.92" rx="3.93" ry="12.72" transform="translate(-137 27.08) rotate(-20.52)"/><path class="cls-8" d="M217.62,347.35l113,31.44a4.07,4.07,0,0,1,2.74,5.35l-5.84,15.62a4.11,4.11,0,0,1-5.5,2.31L214.86,355a4.08,4.08,0,0,1-2.15-5.25h0A4.11,4.11,0,0,1,217.62,347.35Z"/><ellipse class="cls-9" cx="330.45" cy="391.9" rx="12.72" ry="3.93" transform="translate(-152.43 563.98) rotate(-69.48)"/><path class="cls-8" d="M149.35,353,98.58,406.46c-1,1.09,0,2.54,2.31,3.15l15.93,4.2c2.25.59,4.74.11,5.44-1.06l34.83-57.69c.66-1.09-.5-2.37-2.62-2.89h0C152.47,351.67,150.26,352,149.35,353Z"/><path class="cls-8" d="M184.82,353.6,228,401.1c.88,1-.2,2.42-2.34,3.13l-14.93,5c-2.11.7-4.36.4-4.93-.65l-28.22-52.51c-.53-1,.62-2.28,2.6-2.92h0C182,352.57,184,352.75,184.82,353.6Z"/><ellipse class="cls-9" cx="219.28" cy="409.1" rx="12.93" ry="10.39" transform="translate(-76.06 51.02) rotate(-11.32)"/><ellipse class="cls-9" cx="109.22" cy="411.04" rx="12.93" ry="10.39" transform="translate(-78.58 29.45) rotate(-11.32)"/></svg>