<svg id="Layer_1" data-name="Layer 1" xmlns="http://www.w3.org/2000/svg" viewBox="0 0 500 363.23"><defs><style>.cls-1,.cls-2{fill:#231f20;}.cls-1,.cls-3{stroke:#231f20;}.cls-1,.cls-2,.cls-3{stroke-miterlimit:10;}.cls-2{stroke:#fff;}.cls-3{fill:none;}</style></defs><title>Artboard 10</title><path class="cls-1" d="M303,282.06s66.34-22.38-52.75-140.68c-119.09,118.3-52.75,140.68-52.75,140.68s-109.66-26.47-52-146.29C162.77,99.77,195.19,55.36,250.21.7,488.39,237.29,303,282.06,303,282.06Z"/><path class="cls-1" d="M195.8,296.24l-79.62,22.27a2.89,2.89,0,0,0-1.93,3.79l4.12,11.07a2.89,2.89,0,0,0,3.87,1.64l75.51-33.35a2.88,2.88,0,0,0,1.51-3.71h0A2.89,2.89,0,0,0,195.8,296.24Z"/><ellipse class="cls-2" cx="116.3" cy="327.81" rx="2.77" ry="9.01" transform="translate(-106.95 61.08) rotate(-20.39)"/><path class="cls-1" d="M232.82,279.47l-37.31,73.77a2.89,2.89,0,0,0,1.49,4l10.94,4.43a2.89,2.89,0,0,0,3.83-1.75l26.37-78.21a2.89,2.89,0,0,0-1.72-3.63h0A2.89,2.89,0,0,0,232.82,279.47Z"/><ellipse class="cls-2" cx="202.44" cy="360.33" rx="2.77" ry="9.01" transform="translate(-207.55 412.55) rotate(-67.93)"/><path class="cls-1" d="M268.15,280.82l37.31,73.77a2.89,2.89,0,0,1-1.49,4L293,363a2.88,2.88,0,0,1-3.82-1.75l-26.37-78.21a2.89,2.89,0,0,1,1.72-3.63h0A2.89,2.89,0,0,1,268.15,280.82Z"/><ellipse class="cls-2" cx="298.53" cy="360.78" rx="9.01" ry="2.77" transform="translate(-113.68 138.6) rotate(-22.07)"/><path class="cls-1" d="M305.62,295.71,385.23,318a2.89,2.89,0,0,1,1.93,3.79l-4.11,11.07a2.9,2.9,0,0,1-3.88,1.64l-75.5-33.35a2.9,2.9,0,0,1-1.52-3.72h0A2.9,2.9,0,0,1,305.62,295.71Z"/><ellipse class="cls-2" cx="385.12" cy="327.28" rx="9.01" ry="2.77" transform="translate(-55.86 574.2) rotate(-69.61)"/><line class="cls-3" x1="250.21" y1="0.71" x2="431.44" y2="176.73"/><line class="cls-3" x1="250.21" y1="0.71" x2="13.82" y2="279.23"/><path class="cls-1" d="M15.22,294.23h-13V274.12c0-1.13-1.33-1.3-1.33-2.43l4-.95,3.16.53,1.17-.53,3.33-.85s5.29,1.27,5.34,1.27c0,1.13-2.67,1.83-2.67,3Z"/><line class="cls-3" x1="249.96" y1="0.63" x2="486.35" y2="279.16"/><path class="cls-1" d="M486,294.15h13V274c0-1.12,1.33-1.3,1.33-2.42l-4-.95-3.16.52-1.17-.52-3.33-.85c-.05,0-5.29,1.27-5.34,1.27,0,1.12,2.67,1.83,2.67,3Z"/><path class="cls-1" d="M431.44,193.06h13V173c0-1.12,1.33-1.29,1.33-2.42l-4-.95-3.16.53-1.17-.53-3.33-.85c-.05,0-5.29,1.27-5.34,1.27,0,1.13,2.67,1.83,2.67,2.95Z"/><line class="cls-3" x1="250.21" y1="0.71" x2="68.26" y2="177.1"/><path class="cls-1" d="M68.26,193.44h-13V173.33c0-1.13-1.34-1.3-1.34-2.43l4-1,3.17.53s1.14-.53,1.17-.53l3.33-.85s5.29,1.27,5.33,1.27c0,1.13-2.66,1.83-2.66,3Z"/></svg>