<svg id="Layer_1" data-name="Layer 1" xmlns="http://www.w3.org/2000/svg" viewBox="0 0 373 462.45"><defs><style>.cls-1{fill:none;stroke-width:2px;}.cls-1,.cls-2{stroke:#231f20;stroke-miterlimit:10;}.cls-2,.cls-3{fill:#e6e7e8;}.cls-2{stroke-width:0.5px;}.cls-4{fill:#336667;}.cls-5{fill:#d1d3d4;}.cls-6{fill:#58595b;}.cls-7{fill:#6d6e71;}</style></defs><title>Artboard 7</title><polygon class="cls-1" points="361 297.42 361 304.09 355.17 297.42 361 297.42"/><polygon class="cls-2" points="84.67 0.42 84.67 85.09 48.67 85.09 45.17 20.44 84.67 0.42"/><polygon class="cls-2" points="222.67 80.42 193.83 81.84 189.33 0.42 221.25 16.6 222.67 80.42"/><path class="cls-3" d="M203.33,243.09v16h3.34v58H373v-74Zm157.67,61-5.83-6.67H361Z"/><polygon class="cls-1" points="361 297.42 361 304.09 355.17 297.42 361 297.42"/><path class="cls-4" d="M362,231.09a8,8,0,0,0,8,8,8.09,8.09,0,0,0,3-.58v4.58H227.33a8,8,0,1,0-8-8,8,8,0,0,0,8,8h-24v16H0l4.08-26.53L36,25.09l9.17-4.65,3.5,64.65h36V250.76l57-3.9,65-4.44V217.76h-5.34l-7.5-135.92,28.84-1.42L221.25,16.6,189.33.42l40,17.34,60.67,200h83v5.91a8.09,8.09,0,0,0-3-.58A8,8,0,0,0,362,231.09Z"/><path class="cls-4" d="M373,349.76V317.09H206.67v18.67H107.55q1.15,6.67,3.12,13.83c15,54.5,31.46,88.7,54.66,105.13v-93h41.34v8H373v-4a8,8,0,0,1,0-16Zm-139.83,16a8,8,0,1,1,8-8A8,8,0,0,1,233.17,365.76Z"/><path class="cls-5" d="M0,259.09v76.67H206.67V259.09Zm116.25,49.17c-1.79,0-3.25-2.24-3.25-5s1.46-5,3.25-5,3.25,2.24,3.25,5S118,308.26,116.25,308.26Z"/><ellipse class="cls-1" cx="116.25" cy="303.26" rx="3.25" ry="5"/><path class="cls-4" d="M93,349.59c0,47.63-9.46,92.41-32.33,112.86v-97H0V335.76H92.43Q93,342.57,93,349.59Z"/><path class="cls-6" d="M235.33,235.09a8,8,0,1,1-8-8A8,8,0,0,1,235.33,235.09Z"/><path class="cls-7" d="M373,223.67v14.84a8.09,8.09,0,0,1-3,.58,8,8,0,0,1,0-16A8.09,8.09,0,0,1,373,223.67Z"/><path class="cls-7" d="M373,349.76v16a8,8,0,0,1,0-16Z"/><circle class="cls-6" cx="233.17" cy="357.76" r="8"/><line class="cls-1" x1="359.33" y1="266.42" x2="359.33" y2="293.76"/><line class="cls-1" x1="296.66" y1="266.42" x2="296.66" y2="293.76"/><line class="cls-1" x1="235.33" y1="266.42" x2="235.33" y2="293.76"/><line class="cls-1" x1="174.66" y1="259.09" x2="174.66" y2="293.76"/><line class="cls-1" x1="114.66" y1="259.09" x2="114.66" y2="290.42"/><line class="cls-1" x1="365" y1="266.42" x2="365" y2="276.42"/><line class="cls-1" x1="352.83" y1="266.42" x2="352.83" y2="276.42"/><line class="cls-1" x1="346.5" y1="266.42" x2="346.5" y2="276.42"/><line class="cls-1" x1="339.83" y1="266.42" x2="339.83" y2="276.42"/><line class="cls-1" x1="334.5" y1="266.42" x2="334.5" y2="276.42"/><line class="cls-1" x1="322.16" y1="266.42" x2="322.16" y2="276.42"/><line class="cls-1" x1="315.83" y1="266.42" x2="315.83" y2="276.42"/><line class="cls-1" x1="309.16" y1="266.42" x2="309.16" y2="276.42"/><line class="cls-1" x1="303.83" y1="266.42" x2="303.83" y2="276.42"/><line class="cls-1" x1="328" y1="266.42" x2="328" y2="282.92"/><line class="cls-1" x1="291.16" y1="267.26" x2="291.16" y2="277.26"/><line class="cls-1" x1="284.83" y1="267.26" x2="284.83" y2="277.26"/><line class="cls-1" x1="278.16" y1="267.26" x2="278.16" y2="277.26"/><line class="cls-1" x1="272.83" y1="267.26" x2="272.83" y2="277.26"/><line class="cls-1" x1="260.5" y1="267.26" x2="260.5" y2="277.26"/><line class="cls-1" x1="254.16" y1="267.26" x2="254.16" y2="277.26"/><line class="cls-1" x1="247.5" y1="267.26" x2="247.5" y2="277.26"/><line class="cls-1" x1="242.16" y1="267.26" x2="242.16" y2="277.26"/><line class="cls-1" x1="229.33" y1="267.26" x2="229.33" y2="277.26"/><line class="cls-1" x1="223" y1="267.26" x2="223" y2="277.26"/><line class="cls-1" x1="216.33" y1="267.26" x2="216.33" y2="277.26"/><line class="cls-1" x1="211" y1="267.26" x2="211" y2="277.26"/><line class="cls-1" x1="199.33" y1="259.09" x2="199.33" y2="279.42"/><line class="cls-1" x1="193" y1="259.09" x2="193" y2="279.42"/><line class="cls-1" x1="186.33" y1="259.09" x2="186.33" y2="279.42"/><line class="cls-1" x1="181" y1="259.09" x2="181" y2="279.42"/><line class="cls-1" x1="168.83" y1="259.09" x2="168.83" y2="279.42"/><line class="cls-1" x1="162.5" y1="259.09" x2="162.5" y2="279.42"/><line class="cls-1" x1="155.83" y1="259.09" x2="155.83" y2="279.42"/><line class="cls-1" x1="150.5" y1="259.09" x2="150.5" y2="279.42"/><line class="cls-1" x1="144.66" y1="259.09" x2="144.66" y2="285.92"/><line class="cls-1" x1="138.83" y1="259.09" x2="138.83" y2="279.42"/><line class="cls-1" x1="132.5" y1="259.09" x2="132.5" y2="279.42"/><line class="cls-1" x1="125.83" y1="259.09" x2="125.83" y2="279.42"/><line class="cls-1" x1="120.5" y1="259.09" x2="120.5" y2="279.42"/><line class="cls-1" x1="266.33" y1="267.26" x2="266.33" y2="283.76"/><ellipse class="cls-1" cx="116.25" cy="303.26" rx="3.25" ry="5"/><polyline class="cls-1" points="177 295.92 177 307.42 173.33 304.59"/><path class="cls-1" d="M240.5,295.92h-7.34l7.34,6.67s-2,7.33-6.5.67"/><path class="cls-1" d="M294.5,298.26s.16-3.17,4.33-2.34,2.33,5.14,0,5.07,6.5,1.7.33,5.07c0,0-3.33,1.53-4.66-3.64"/><polyline class="cls-1" points="365 297.42 361 297.42 361 294.76"/></svg>