<svg id="Layer_1" data-name="Layer 1" xmlns="http://www.w3.org/2000/svg" xmlns:xlink="http://www.w3.org/1999/xlink" viewBox="0 0 1920 1080"><defs><style>.cls-1,.cls-8{fill:#0e621b;}.cls-10,.cls-2{fill:#829b44;}.cls-3{fill:#fae885;}.cls-4{opacity:0.3;}.cls-5{fill:url(#linear-gradient);}.cls-6{fill:url(#linear-gradient-2);}.cls-7{fill:url(#linear-gradient-3);}.cls-8{font-size:130.87px;}.cls-10,.cls-8{font-family:Rockwell-Bold, Rockwell;font-weight:700;}.cls-9{letter-spacing:-0.02em;}.cls-10{font-size:96.56px;}</style><linearGradient id="linear-gradient" x1="230.5" y1="501.09" x2="805.03" y2="501.09" gradientUnits="userSpaceOnUse"><stop offset="0" stop-color="#fff"/><stop offset="1" stop-color="#fae885" stop-opacity="0.6"/></linearGradient><linearGradient id="linear-gradient-2" x1="232.58" y1="577.41" x2="803.62" y2="577.41" xlink:href="#linear-gradient"/><linearGradient id="linear-gradient-3" x1="269.41" y1="540" x2="718.33" y2="540" xlink:href="#linear-gradient"/></defs><title>Artboard4</title><rect class="cls-1" x="34" y="31" width="69" height="69"/><rect class="cls-2" x="103" y="31" width="69" height="69"/><rect class="cls-3" x="172" y="31" width="69" height="69"/><path class="cls-2" d="M581.41,209.11q-9.66-.56-19.46-.56c-7,0-13.87.2-20.71.64A331.49,331.49,0,0,0,230.5,540a334.88,334.88,0,0,0,2.08,37.41,330.05,330.05,0,0,0,15.88,70.47C293.21,778,416.67,871.45,562,871.45q9.79,0,19.46-.56a329.46,329.46,0,0,0,136.92-38.57V739.71a252.55,252.55,0,0,1-136.92,53.2c-6.42.48-12.92.73-19.46.73q-9.18,0-18.19-.64C437,785.43,348.48,711.77,318.88,612.7A253.82,253.82,0,0,1,308.31,540c0-140.08,113.57-253.64,253.64-253.64,6.54,0,13,.25,19.46.73a252.49,252.49,0,0,1,136.92,53.2V247.68A329.42,329.42,0,0,0,581.41,209.11Zm222,483.52.19-.27V692C803.56,692.21,803.49,692.42,803.43,692.63Z"/><g class="cls-4"><path class="cls-5" d="M581.41,209.11q-9.66-.56-19.46-.56c-7,0-13.87.2-20.71.64q9.16.65,18.11,1.93a253.35,253.35,0,0,1,159,89.2V247.68A329.42,329.42,0,0,0,581.41,209.11ZM803.62,387.64V388c.48.5,1,1,1.41,1.5C804.57,388.88,804.12,388.25,803.62,387.64ZM318.88,612.7c-3.5-4.75-6.86-9.63-10-14.61A252,252,0,0,1,272,498.49a257,257,0,0,1-2.57-36.3c0-1.11,0-2.23,0-3.34a252.46,252.46,0,0,1,40.15-133.69A330,330,0,0,0,230.5,540a334.88,334.88,0,0,0,2.08,37.41l15.88,70.47a333,333,0,0,0,82.36,84.35c3.28,2.33,6.6,4.62,10,6.84a329.94,329.94,0,0,0,182.27,54.57q10.44,0,20.71-.64C437,785.43,348.48,711.77,318.88,612.7Z"/></g><g class="cls-4"><path class="cls-6" d="M562,286.36c6.54,0,13,.25,19.46.73a252.49,252.49,0,0,1,136.92,53.2V322.51a328.77,328.77,0,0,0-111.05-36.06A332.48,332.48,0,0,0,562,283.37c-112.87,0-212.56,56.41-272.4,142.59a329.66,329.66,0,0,0-57,151.45l15.88,70.47C293.21,778,416.67,871.45,562,871.45q9.79,0,19.46-.56a329.46,329.46,0,0,0,136.92-38.57v-17.8A252.52,252.52,0,0,1,562,868.46q-3.23,0-6.42-.09a253.22,253.22,0,0,1-197.75-103,257.14,257.14,0,0,1-17-26.26,252.45,252.45,0,0,1-32.47-124.25q0-8.45.54-16.73.7-10.46,2.2-20.68A255.09,255.09,0,0,1,308.31,540C308.31,399.92,421.88,286.36,562,286.36ZM803.43,692.63l.19-.27V692C803.56,692.21,803.49,692.42,803.43,692.63Z"/></g><g class="cls-4"><path class="cls-7" d="M562,286.36c6.54,0,13,.25,19.46.73q9.63-.72,19.45-.73,3.24,0,6.42.09a252.62,252.62,0,0,1,111.05,28.68V247.68a329.42,329.42,0,0,0-136.92-38.57q-11.13.63-22.06,2C434.64,226.7,331.46,311.56,289.55,426A329.16,329.16,0,0,0,272,498.49,331.57,331.57,0,0,0,555.53,868.37q12.79,1.77,25.88,2.52a329.46,329.46,0,0,0,136.92-38.57V764.84a252.34,252.34,0,0,1-117.47,28.8q-9.81,0-19.45-.73c-5.67-.44-11.3-1-16.85-1.84-6.87.85-13.8,1.51-20.8,1.93C437,785.43,348.48,711.77,318.88,612.7A253.82,253.82,0,0,1,308.31,540C308.31,399.92,421.88,286.36,562,286.36Z"/></g><path class="cls-1" d="M803.62,313.17V692c-.06.2-.13.41-.19.62l.19-.27v74.48a333.31,333.31,0,0,1-40.4,36.54V276.65A330,330,0,0,1,803.62,313.17Z"/><path class="cls-1" d="M803.62,692v.35l-.19.27C803.49,692.42,803.56,692.21,803.62,692Z"/><ellipse class="cls-1" cx="860.49" cy="397.84" rx="96.28" ry="34.42" transform="translate(16.5 829.59) rotate(-51.91)"/><ellipse class="cls-1" cx="623.8" cy="470.32" rx="60.94" ry="146.44" transform="translate(-103.83 754.71) rotate(-58.36)"/><text class="cls-8" transform="translate(929.92 537.23)">MEDI<tspan class="cls-9" x="384.44" y="0">C</tspan><tspan x="484" y="0">ARE</tspan></text><text class="cls-10" transform="translate(929.92 626.28)">natural practice</text></svg>