<svg id="Layer_1" data-name="Layer 1" xmlns="http://www.w3.org/2000/svg" viewBox="0 0 500 500"><defs><style>.cls-1{fill:#c2b59b;}.cls-2,.cls-5{fill:#fff;}.cls-2{opacity:0.25;}.cls-3{fill:#231f20;}.cls-4{fill:#f57f20;}.cls-6{fill:#0c8140;}.cls-7{fill:#3953a4;}</style></defs><title>Artboard 15</title><path class="cls-1" d="M445.51,417.22a3.07,3.07,0,0,0,0-.42c0-.23,0-.47-.07-.7s-.07-.45-.12-.68a10.11,10.11,0,0,0-.44-1.57,2.67,2.67,0,0,0-.09-.26c0-.1-.08-.18-.11-.27v9.05a12.17,12.17,0,0,0,.64-2.1c0-.23.09-.46.12-.68s0-.47.07-.7a3.07,3.07,0,0,0,0-.42c0-.21,0-.42,0-.62S445.52,417.43,445.51,417.22Zm0,0a3.07,3.07,0,0,0,0-.42c0-.23,0-.47-.07-.7s-.07-.45-.12-.68a10.11,10.11,0,0,0-.44-1.57,2.67,2.67,0,0,0-.09-.26c0-.1-.08-.18-.11-.27v9.05a12.17,12.17,0,0,0,.64-2.1c0-.23.09-.46.12-.68s0-.47.07-.7a3.07,3.07,0,0,0,0-.42c0-.21,0-.42,0-.62S445.52,417.43,445.51,417.22Zm0,0a3.07,3.07,0,0,0,0-.42c0-.23,0-.47-.07-.7s-.07-.45-.12-.68a10.11,10.11,0,0,0-.44-1.57,2.67,2.67,0,0,0-.09-.26c0-.1-.08-.18-.11-.27v9.05a12.17,12.17,0,0,0,.64-2.1c0-.23.09-.46.12-.68s0-.47.07-.7a3.07,3.07,0,0,0,0-.42c0-.21,0-.42,0-.62S445.52,417.43,445.51,417.22Zm0,0a3.07,3.07,0,0,0,0-.42c0-.23,0-.47-.07-.7s-.07-.45-.12-.68a10.11,10.11,0,0,0-.44-1.57,2.67,2.67,0,0,0-.09-.26c0-.1-.08-.18-.11-.27v9.05a12.17,12.17,0,0,0,.64-2.1c0-.23.09-.46.12-.68s0-.47.07-.7a3.07,3.07,0,0,0,0-.42c0-.21,0-.42,0-.62S445.52,417.43,445.51,417.22ZM233.21,474.8v15.29h36.9V474.77q-9.23.75-18.66.76Q242.24,475.53,233.21,474.8Zm212.3-57.58a3.07,3.07,0,0,0,0-.42c0-.23,0-.47-.07-.7s-.07-.45-.12-.68a10.11,10.11,0,0,0-.44-1.57,2.67,2.67,0,0,0-.09-.26c0-.1-.08-.18-.11-.27v9.05a12.17,12.17,0,0,0,.64-2.1c0-.23.09-.46.12-.68s0-.47.07-.7a3.07,3.07,0,0,0,0-.42c0-.21,0-.42,0-.62S445.52,417.43,445.51,417.22Zm0,0a3.07,3.07,0,0,0,0-.42c0-.23,0-.47-.07-.7s-.07-.45-.12-.68a10.11,10.11,0,0,0-.44-1.57,2.67,2.67,0,0,0-.09-.26c0-.1-.08-.18-.11-.27v9.05a12.17,12.17,0,0,0,.64-2.1c0-.23.09-.46.12-.68s0-.47.07-.7a3.07,3.07,0,0,0,0-.42c0-.21,0-.42,0-.62S445.52,417.43,445.51,417.22Zm0,0a3.07,3.07,0,0,0,0-.42c0-.23,0-.47-.07-.7s-.07-.45-.12-.68a10.11,10.11,0,0,0-.44-1.57,2.67,2.67,0,0,0-.09-.26c0-.1-.08-.18-.11-.27v9.05a12.17,12.17,0,0,0,.64-2.1c0-.23.09-.46.12-.68s0-.47.07-.7a3.07,3.07,0,0,0,0-.42c0-.21,0-.42,0-.62S445.52,417.43,445.51,417.22Z"/><path class="cls-1" d="M465,454.55V417.21h24.7v-36.9H465V343.42h24.7V306.53H465v-36.9h24.7V232.75H465V195.86h24.7V159H465v-36.9h24.7V85.19H465V48.3h24.7V11.41H452.78V37.73H415.52V11.41H378.63V37.73H341.74V11.41h-36.9V37.73H268V11.41H231.07V37.73H194.18V11.41h-36.9V37.73H120.39V11.41H83.51V37.73H46.62V11.41H9.72V48.3h23.1V85.65h-23v36.89H32.82v36.89h-23v36.89H32.82v36.89h-23V270.1H32.82V307h-23v36.9H32.82v36.88h-23v36.89H32.82v36.89h-23v36.9h36.9V469.87H83.92v21.58h36.9V469.87H157.7v21.58h36.89V469.87h36.89v6.29q9,.73,18.24.73,9.42,0,18.66-.76v-6.26h36.89v21.58h36.88V469.87H379v21.58h36.9V469.87h36.89v21.58h36.89v-36.9Zm-22.05-6.72h-388V59.77h388V414.68c0,.09.08.17.11.27a2.67,2.67,0,0,1,.09.26,10.11,10.11,0,0,1,.44,1.57c.05.23.09.46.12.68s.05.47.07.7a3.07,3.07,0,0,1,0,.42c0,.21,0,.42,0,.63s0,.41,0,.62a3.07,3.07,0,0,1,0,.42c0,.23,0,.47-.07.7s-.07.45-.12.68a12.17,12.17,0,0,1-.64,2.1Z"/><path class="cls-2" d="M292,329c27.59,7.62,30.45,11.06,33.53,13.07C317.16,337.06,303.83,332.49,292,329Z"/><path class="cls-2" d="M328,343.75c-.65-.46-1.35-.92-2.08-1.37a11.69,11.69,0,0,0,1.12.57,2.16,2.16,0,0,1,.95.79Z"/><path class="cls-3" d="M241.32,89c-34.25,8-152.75,24.79-138.17,160.6,0,0-2.94,5.76,38,31.19L99.94,257.23s-.53,21.68,9.91,32.39c0,0,63.44,36.67,113,38.81,0,0,35.07,14.73,143.48,76.56,0,0,9.9,10.44,44.43-65.05,0,0,0,45.24-36.94,81.92,0,0-77.18-45-130.71-66.12-48.18-19-47.94,17.85-121.45-43.9-79.42-66.73-36-203.32,68.71-222.7C190.33,89.14,231,84.42,241.32,89Z"/><path class="cls-3" d="M410.72,326.83V227.25L406,222.5s9-53.07-57.9-109.29c0,0,56.21,55.68,50.32,106.81l-61-18.86A65.93,65.93,0,0,1,320.33,193L301,180.14s-30.51-28.38-39.61,8S290.27,294.71,410.72,326.83Z"/><path class="cls-4" d="M390.72,217.64s.73-42.32-47.45-84.88-97.11-35.34-97.11-35.34-52.65,6-84.38,27.31-54.61,62.63-58.63,124.87L138.08,279,99.94,257.23s1.38,27.75,9.91,32.39,69.59,37.74,113,38.81L366.29,405s13.43.44,41-57.6c0,0-110.28-30.19-136.13-110.77s15-65.63,15-65.63l42,27.36Z"/><path class="cls-5" d="M111.27,290.11c-7.94-15.91-9.71-35.49-8.7-30.34.87,4.47,35.49,23.56,36.69,24.64,0,0,0,0,0,0-1.41-.35-28.57-7.15-30.14-14Z"/><path class="cls-5" d="M325.33,329.9a2.66,2.66,0,0,0-1.17-1,12.87,12.87,0,0,1-1.39-.71l-.54-.34c-3.81-2.48-7.35-6.75-41.53-16.19-15-4.36-28.1-7.26-30.7-7.83l-.22,0-.21-.05h0s-13.22-63.83-112.67-114C282.43,243.7,324.68,328.57,325.33,329.9Z"/><path class="cls-5" d="M322.23,327.87c-10.33-6.24-26.85-11.91-41.53-16.19C314.88,321.12,318.42,325.39,322.23,327.87Z"/><path class="cls-5" d="M325.34,329.91c-.8-.57-1.66-1.14-2.57-1.7a12.87,12.87,0,0,0,1.39.71,2.66,2.66,0,0,1,1.17,1A0,0,0,0,0,325.34,329.91Z"/><path class="cls-6" d="M364.69,390.28,260.07,327.5l-10.54-23.75h0l.21.05.22,0c12.33,3,22.42,5.55,30.7,7.83,14.68,4.28,31.2,9.95,41.53,16.19l.54.34c.91.56,1.77,1.13,2.57,1.7Z"/><circle class="cls-7" cx="283.29" cy="194.04" r="13.36"/><path d="M291.93,190.78H274.65a9.24,9.24,0,0,1,17.28,0Z"/><path d="M292.12,196.76a9.25,9.25,0,0,1-17.67,0Z"/><path class="cls-7" d="M292.52,194a9.37,9.37,0,0,1-.4,2.72H274.45a9.37,9.37,0,0,1-.4-2.72,9.07,9.07,0,0,1,.6-3.26h17.28A9.07,9.07,0,0,1,292.52,194Z"/><path class="cls-5" d="M389.88,226.79l5.57,2.4s-6.4,32.53-13.18,45.33Z"/></svg>