<svg id="Layer_1" data-name="Layer 1" xmlns="http://www.w3.org/2000/svg" viewBox="0 0 590.55 501.24"><defs><style>.cls-1,.cls-4{fill:#fff;}.cls-1{opacity:0.25;}.cls-2{fill:#231f20;}.cls-3{fill:#f57f20;}.cls-5{fill:#0c8140;}.cls-6{fill:#3953a4;}</style></defs><title>Artboard 22</title><g id="lOGO"><path class="cls-1" d="M333.23,215.72c21.33,5.89,23.54,8.55,25.92,10.1C352.7,221.92,342.39,218.39,333.23,215.72Z"/><path class="cls-1" d="M361.09,227.1c-.5-.36-1-.72-1.61-1.07a7.87,7.87,0,0,0,.87.44,1.69,1.69,0,0,1,.73.62Z"/><path class="cls-2" d="M294.06,30.14C267.58,36.29,176,49.3,187.24,154.3c0,0-2.28,4.45,29.39,24.11L184.76,160.2s-.42,16.77,7.65,25c0,0,49.05,28.36,87.34,30,0,0,27.11,11.38,110.93,59.19,0,0,7.66,8.07,34.35-50.29,0,0,0,35-28.56,63.33,0,0-59.67-34.82-101.05-51.12-37.26-14.67-37.07,13.8-93.9-33.94-61.41-51.59-27.85-157.19,53.12-172.17C254.64,30.25,286.05,26.6,294.06,30.14Z"/><path class="cls-2" d="M425,214V137l-3.66-3.67s7-41-44.77-84.49c0,0,43.47,43.05,38.91,82.58l-47.17-14.59a50.88,50.88,0,0,1-13.19-6.27l-15-10s-23.59-21.94-30.63,6.21S331.9,189.18,425,214Z"/><path class="cls-3" d="M409.57,129.6s.56-32.73-36.69-65.63S297.8,36.65,297.8,36.65s-40.7,4.68-65.24,21.11-42.22,48.42-45.32,96.54l27,22.75L184.76,160.2s1.07,21.46,7.65,25,53.81,29.18,87.34,30l110.93,59.19s10.38.34,31.68-44.53c0,0-85.26-23.34-105.24-85.64s11.56-50.74,11.56-50.74l32.51,21.15Z"/><path class="cls-4" d="M193.52,185.62c-6.14-12.3-7.51-27.44-6.73-23.45.67,3.46,27.44,18.21,28.37,19,0,0,0,0,0,0-1.09-.28-22.08-5.54-23.29-10.86Z"/><path class="cls-4" d="M359,216.38a2.06,2.06,0,0,0-.9-.75,12.09,12.09,0,0,1-1.08-.55l-.41-.26c-2.95-1.92-5.69-5.22-32.11-12.52-11.61-3.37-21.73-5.62-23.74-6.05l-.17,0-.16,0h0S290.19,146.82,213.3,108C325.85,149.74,358.51,215.36,359,216.38Z"/><path class="cls-4" d="M356.62,214.82c-8-4.83-20.76-9.21-32.11-12.52C350.93,209.6,353.67,212.9,356.62,214.82Z"/><path class="cls-4" d="M359,216.4c-.62-.44-1.29-.88-2-1.32a12.09,12.09,0,0,0,1.08.55,2.06,2.06,0,0,1,.9.75S359,216.39,359,216.4Z"/><path class="cls-5" d="M389.44,263.07l-80.88-48.54-8.15-18.36h0l.16,0,.17,0c9.54,2.28,17.33,4.29,23.74,6.05,11.35,3.31,24.12,7.69,32.11,12.52l.41.26c.7.44,1.37.88,2,1.32Z"/><circle class="cls-6" cx="326.51" cy="111.35" r="10.33"/><path d="M333.19,108.83H319.83a7.14,7.14,0,0,1,13.36,0Z"/><path d="M333.34,113.45a7.15,7.15,0,0,1-13.66,0Z"/><path class="cls-6" d="M333.65,111.35a7.26,7.26,0,0,1-.31,2.1H319.68a7.26,7.26,0,0,1-.31-2.1,7,7,0,0,1,.46-2.52h13.36A7,7,0,0,1,333.65,111.35Z"/><path class="cls-4" d="M408.92,136.67l4.31,1.85s-5,25.15-10.19,35"/><path class="cls-2" d="M107,308.52c-5.45.71-6.36,1.67-8.48,7.94-2.17,6.51-8,25.09-12.65,40H82.18c-3.93-11.33-8.56-23.86-12.78-35.27-4.14,12.11-8.2,23.94-11.93,35.27H53.7c-3.33-11.61-8-26.91-12.26-40.39-1.94-5.95-3-7.09-7.75-7.57v-2.59H55.31v2.59c-5.71.56-5.86,1.6-4.79,5.52,2.68,9.33,5.49,18.71,8.23,27.9,4-11.26,8-23.43,11.65-35.52h3.5c4.23,12.16,8.56,23.79,12.85,35.6,3-8.93,6.87-22,8.16-27.16,1.1-4.48.38-5.73-6.17-6.34v-2.59H107Z"/><path class="cls-2" d="M129.42,355.64v-2.59c4.87-.66,5.08-1.47,4-4.63-.84-2.53-2.17-6.11-3.48-9.78H114.47c-1,2.74-2.07,5.67-2.94,8.31-1.63,4.87-.07,5.49,6.06,6.1v2.59H99.13v-2.59c4.81-.61,6-1.24,8.66-7.83l15.88-39.75,3.25-.61c4.86,13.23,10.09,27.13,15,40.07,2.7,6.95,3.38,7.51,8.52,8.12v2.59Zm-7-38c-2.3,5.88-4.6,11.65-6.65,17.39h12.91Z"/><path class="cls-2" d="M206.5,308.52c-4.74.58-6.25,1.5-6.48,5-.18,2.79-.38,5.61-.38,12.42v30.52h-3.8l-32.19-38.86V335.5c0,6.73.18,9.88.39,12.1.25,3.55,2,5.09,7.57,5.45v2.59H152.78v-2.59c4.49-.38,6.37-1.53,6.78-5.18a114,114,0,0,0,.43-12.4v-18.6c0-2.39-.15-3.92-1.58-5.8s-3.16-2.22-6.56-2.55v-2.59h13.71l30.29,35.49V325.91c0-6.81-.1-9.61-.33-12.25-.23-3.34-1.64-4.76-7.91-5.14v-2.59H206.5Z"/><path class="cls-2" d="M234.41,305.93c10.14,0,17.2,2.09,22,6.65,3.84,3.62,6.75,9,6.75,16.57,0,8.85-3.67,15.76-9.56,20.2-5.72,4.31-13,6.29-22,6.29H211.71v-2.59c6.08-.51,6.64-1.15,6.64-7.47V316c0-6.47-.87-7-6.64-7.49v-2.59ZM227.58,345c0,5.54,1.76,7.29,7.39,7.29,11.53,0,17.87-8,17.87-22,0-7.64-2.28-14-6.68-17.41C242.84,310,238.7,309,233.58,309c-3.05,0-4.53.56-5.1,1.07s-.9,1.75-.9,4.24Z"/><path class="cls-2" d="M311.32,342.93c-.4,2-2.52,10.51-3.23,12.71H269.28V353.1c7-.63,7.5-1.12,7.5-7.49V316c0-6.6-.89-7-6.28-7.52v-2.59h24.34c7.74,0,10.52-.08,11.54-.15.08,1.56.43,7.65.74,12.15l-2.74.38a20.27,20.27,0,0,0-2.94-6.66c-1.33-1.88-2.59-2.36-6.73-2.36h-5.77c-2.72,0-3,.18-3,2.64v16.31h7.85c4.79,0,5.42-1.15,6.49-6.5h2.77v16.6H300.3c-1.15-5.6-1.76-6.47-6.57-6.47H286v13.88c0,5.3.69,6.51,5.11,6.58h6c4.42,0,5.43-.59,7.11-2.62a33.3,33.3,0,0,0,4.48-7.44Z"/><path class="cls-2" d="M363.25,356.15c-.65,0-1.54,0-2.48-.1-8.27-.43-11.15-2.28-13.82-6-3-4.1-5.39-8.82-7.93-13.17-1.28-2.2-2.33-2.65-5.28-2.65l-1.94-.05v11.46c0,6.3.8,6.78,6.67,7.44v2.59H316.11v-2.59c6-.64,6.63-1.14,6.63-7.44V315.89c0-6.2-.79-6.83-6.63-7.37v-2.59h21.24c6.38,0,10.22.74,13.28,2.8a11.58,11.58,0,0,1,5.15,10.14c0,6.73-4.41,10.51-9.67,12.66,1.23,2.32,4.32,7.35,6.62,10.84a63.07,63.07,0,0,0,5.89,7.92,9.92,9.92,0,0,0,5.08,3.42ZM334.43,331.2c3.53,0,6.06-.56,7.82-2.07,2.68-2.17,3.81-5.13,3.81-9.11,0-8.13-4.94-11.07-9.78-11.07-2.12,0-3.22.31-3.71.77s-.77,1.35-.77,3V331.2Z"/><path class="cls-2" d="M395.38,318.2c-1.45-4.95-3.59-10.32-10.68-10.32-5,0-7.58,3.57-7.58,7.74,0,4.58,3,7.16,9.61,10.5,8.53,4.29,13.31,8.11,13.31,15.57,0,8.68-7.31,15.1-17.87,15.1a39.25,39.25,0,0,1-12.45-2.43c-.51-1.89-1.68-8.88-2.21-12.66l2.76-.66c1.53,4.92,5.5,12.67,13.15,12.67,5,0,8-3.23,8-8.15s-2.89-7.46-9.42-11c-8-4.3-12.94-8.08-12.94-15.73s6.06-14,17-14a54.2,54.2,0,0,1,10.64,1.4c.3,2.81.76,6.46,1.37,11.33Z"/><path class="cls-2" d="M432.36,355.64v-2.59c4.87-.66,5.08-1.47,4-4.63-.84-2.53-2.18-6.11-3.48-9.78H417.41c-1,2.74-2.07,5.67-2.94,8.31-1.63,4.87-.07,5.49,6.06,6.1v2.59H402.06v-2.59c4.82-.61,6.05-1.24,8.67-7.83l15.88-39.75,3.25-.61c4.86,13.23,10.09,27.13,15,40.07,2.69,6.95,3.38,7.51,8.51,8.12v2.59Zm-7.06-38c-2.29,5.88-4.6,11.65-6.64,17.39h12.91Z"/><path class="cls-2" d="M509.44,308.52c-4.75.58-6.25,1.5-6.48,5-.18,2.79-.38,5.61-.38,12.42v30.52h-3.8l-32.19-38.86V335.5c0,6.73.18,9.88.39,12.1.25,3.55,2,5.09,7.57,5.45v2.59H455.71v-2.59c4.5-.38,6.38-1.53,6.79-5.18a114,114,0,0,0,.43-12.4v-18.6c0-2.39-.15-3.92-1.58-5.8s-3.16-2.22-6.56-2.55v-2.59H468.5l30.29,35.49V325.91c0-6.81-.1-9.61-.33-12.25-.23-3.34-1.64-4.76-7.91-5.14v-2.59h18.89Z"/><path class="cls-2" d="M555.83,342.93c-.41,2-2.52,10.51-3.24,12.71h-38.8V353.1c7-.63,7.49-1.12,7.49-7.49V316c0-6.6-.89-7-6.27-7.52v-2.59h24.34c7.74,0,10.52-.08,11.54-.15.07,1.56.43,7.65.74,12.15l-2.75.38a20.06,20.06,0,0,0-2.94-6.66c-1.32-1.88-2.58-2.36-6.72-2.36h-5.78c-2.71,0-3,.18-3,2.64v16.31h7.85c4.79,0,5.42-1.15,6.48-6.5h2.77v16.6H544.8c-1.14-5.6-1.75-6.47-6.56-6.47h-7.77v13.88c0,5.3.69,6.51,5.11,6.58h6c4.42,0,5.43-.59,7.11-2.62a33.67,33.67,0,0,0,4.48-7.44Z"/><path class="cls-2" d="M262.09,404c-5.43.76-6.12,2.06-9.41,9.78-3,7-10.17,24.94-15.83,39.93H235c-4.74-12.93-12.32-32.81-15.22-40.54-2.83-7.26-3.44-8.33-8.57-9.17v-1.15h22V404c-5.81,1-5.5,2.37-4.28,5.81,1.38,4.13,6.73,18.35,11.09,30,2.6-6.43,7.72-20.27,10.55-27.92,2.22-6,1.76-6.88-5.58-7.87v-1.15h17.13Z"/><path class="cls-2" d="M263.78,452.52v-1.23c4.05-.68,4.28-1.07,4.28-7V407.86c0-4.75-.23-5.21-4.06-6.12v-1.07a62.37,62.37,0,0,0,13.08-2.6c-.07,1.22-.3,4-.3,10.47v35.8c0,5.88.15,6.19,4.05,7v1.23Z"/><path class="cls-2" d="M302.09,419.25c9.94,0,16.44,7.88,16.44,16.6,0,11.7-8.33,17.59-16.21,17.59-12.39,0-17.36-9-17.36-16.83A17.13,17.13,0,0,1,302.09,419.25ZM301,421c-3.9,0-6,4.28-6,13.31,0,10.09,2.91,17.51,7.57,17.51,3,0,6-2.06,6-14.07C308.59,427.13,305.53,421,301,421Z"/><path class="cls-2" d="M333.45,442.65a4.56,4.56,0,0,0-1.3,3c0,1.3,1.22,3.13,4.66,3.13H345c5.73,0,11.08,2.68,11.08,9.18,0,8.33-9.4,15.52-19.5,15.52-9.17,0-13.38-5.2-13.38-9.4,0-1.61.69-2.68,2.22-3.9a54,54,0,0,1,6.27-4.06c-3.29-1.14-5.12-2.75-6.12-4.43a7.09,7.09,0,0,1-1-4c2.06-1.3,6-3.67,7.64-5.66Zm4.36.69c-7.42,0-13.16-4.66-13.16-11.47,0-8.18,7.42-12.62,13.84-12.62a16.14,16.14,0,0,1,7.58,1.91c1.83.31,7.42-.46,10.4-1.53l.23.23a15.61,15.61,0,0,1-2.76,4.59c-1.07,0-3.67-.08-4.89-.15a10.67,10.67,0,0,1,2.29,6.88C351.34,439.13,344.46,443.34,337.81,443.34Zm.46,12.77c-3.06,0-4.44.16-5,.54a6.45,6.45,0,0,0-3.37,5.5c0,4.13,3.9,8.19,10.79,8.19,7.34,0,9.17-3.37,9.17-7.34a6.27,6.27,0,0,0-4.28-6C343.77,456.34,341.86,456.11,338.27,456.11Zm-.69-35.18c-2.68,0-4.36,3.52-4.36,9.41,0,6.73,1.76,11.4,5.27,11.4,2.68,0,4.36-3.22,4.36-9.87C342.85,425.83,341.1,420.93,337.58,420.93Z"/><path class="cls-2" d="M378.42,428.58c-1.53-4.36-3.9-7.72-8.11-7.72a4.22,4.22,0,0,0-4.28,4.58c0,3.29,2.29,4.75,5.43,6.51,5.43,3,9.4,5.35,9.4,10.78,0,7.34-6.88,10.71-12.61,10.71a26.13,26.13,0,0,1-8.57-1.61c-.15-1.53-.69-5.89-1.07-8.87l1-.23c1.69,5,5,9.1,9.72,9.1a4.18,4.18,0,0,0,4.36-4.51c0-2.37-.77-4.44-5.74-7.34-3.06-1.76-8.72-4.75-8.72-10.63s4.67-10,12-10.1c3.13,0,5.89.77,7.34.84a77.14,77.14,0,0,0,.92,8.26Z"/></g></svg>