<svg id="Layer_1" data-name="Layer 1" xmlns="http://www.w3.org/2000/svg" viewBox="0 0 702 702"><defs><style>.cls-1{fill:#00aeef;}.cls-10,.cls-2{fill:none;}.cls-10,.cls-11,.cls-12,.cls-2{stroke:#231f20;stroke-miterlimit:10;}.cls-2{stroke-width:4px;}.cls-3{fill:#1b75bc;}.cls-4,.cls-7{fill:#fff;}.cls-4{opacity:0.25;}.cls-11,.cls-12,.cls-5{fill:#231f20;}.cls-6{fill:#f57f20;}.cls-8{fill:#0c8140;}.cls-9{fill:#3953a4;}.cls-10,.cls-11{stroke-width:0.25px;}.cls-12{stroke-width:0.75px;}</style></defs><title>Artboard 14</title><path class="cls-1" d="M115.94,606l-1.84.11.83-1Z"/><path class="cls-1" d="M78.16,627.9,76,628l1-1.15Z"/><path class="cls-2" d="M183,123.82c38.15-25.87,62.43,0,62.43,0s22.55-46.32,57.23-5.75"/><path class="cls-2" d="M54.26,79.28S64.67,67.14,71.6,72.34s28.43-17.8,26-7.15"/><path class="cls-2" d="M516.46,71.2c13.87-3.37,25.82,16.18,25.82,16.18s27.94-17.83,25.34-8.28"/><path class="cls-3" d="M506.78,638.34s-47.64,3.73-71.46,0Z"/><path class="cls-3" d="M656,636.68s-29.79,3.73-44.68,0Z"/><path class="cls-3" d="M324.76,637.51s-47.65,3.73-71.46,0Z"/><path class="cls-3" d="M80.73,640S56.91,643.73,45,640Z"/><path class="cls-3" d="M420.8,638.34s-47.65,3.73-71.47,0Z"/><path class="cls-3" d="M260.1,639.17s-47.65,3.73-71.46,0Z"/><path class="cls-4" d="M417.85,161c-8,2.22-8.87,3.22-9.77,3.81A45.56,45.56,0,0,1,417.85,161Z"/><path class="cls-4" d="M407.35,165.24a7.15,7.15,0,0,1,.61-.4l-.33.16a.7.7,0,0,0-.28.23Z"/><path class="cls-5" d="M432.62,91c10,2.32,44.51,7.22,40.26,46.8,0,0,.86,1.68-11.08,9.09l12-6.87s.15,6.32-2.89,9.44c0,0-18.49,10.69-32.92,11.31,0,0-10.22,4.29-41.81,22.31,0,0-2.89,3-12.95-19A36.63,36.63,0,0,0,394,188s22.49-13.13,38.09-19.27c14-5.53,14,5.2,35.39-12.79,23.14-19.45,10.49-59.25-20-64.9C447.48,91,435.64,89.67,432.62,91Z"/><path class="cls-5" d="M383.25,160.3v-29l1.38-1.39S382,114.44,401.5,98.06c0,0-16.38,16.22-14.66,31.12l17.78-5.5a19.06,19.06,0,0,0,5-2.36l5.64-3.76s8.9-8.27,11.55,2.34S418.35,150.94,383.25,160.3Z"/><path class="cls-6" d="M389.08,128.49s-.21-12.34,13.83-24.74,28.3-10.3,28.3-10.3,15.34,1.77,24.59,8,15.91,18.25,17.08,36.39l-10.18,8.57L473.82,140s-.41,8.09-2.89,9.44-20.28,11-32.92,11.31L396.2,183.08s-3.91.13-11.94-16.78c0,0,32.13-8.8,39.67-32.28s-4.36-19.13-4.36-19.13l-12.26,8Z"/><path class="cls-7" d="M470.51,149.6c2.32-4.63,2.83-10.34,2.54-8.84-.25,1.31-10.34,6.87-10.69,7.18h0c.41-.11,8.32-2.09,8.78-4.09Z"/><path class="cls-7" d="M408.14,161.2a.74.74,0,0,1,.34-.29l.4-.2.16-.1c1.11-.72,2.14-2,12.1-4.72,4.38-1.27,8.19-2.12,8.95-2.28h.06l.06,0h0s3.86-18.6,32.84-33.22C420.64,136.08,408.32,160.81,408.14,161.2Z"/><path class="cls-7" d="M409,160.61c3-1.82,7.82-3.47,12.1-4.72C411.18,158.64,410.15,159.89,409,160.61Z"/><path class="cls-7" d="M408.13,161.2l.75-.49-.4.2a.74.74,0,0,0-.34.29Z"/><path class="cls-8" d="M396.67,178.79l30.48-18.29,3.07-6.92h0l-.06,0h-.06c-3.6.86-6.54,1.62-8.95,2.28-4.28,1.25-9.09,2.9-12.1,4.72l-.16.1-.75.49Z"/><circle class="cls-9" cx="420.39" cy="121.61" r="3.89"/><path d="M417.87,120.66h5a2.69,2.69,0,0,0-5,0Z"/><path d="M417.81,122.4a2.69,2.69,0,0,0,5.15,0Z"/><path class="cls-9" d="M417.7,121.61a3,3,0,0,0,.11.79H423a2.61,2.61,0,0,0,.12-.79,2.71,2.71,0,0,0-.17-1h-5A2.71,2.71,0,0,0,417.7,121.61Z"/><path class="cls-7" d="M389.32,131.15l-1.62.7s1.87,9.48,3.84,13.21Z"/><line class="cls-10" x1="500.65" y1="133.6" x2="500.65" y2="133.58"/><path class="cls-11" d="M436.67,205.93,317.74,255.36s-8.68,11.94-4.33,18.46,14.11,7.61,14.11,7.61l118.39-50s8.68-6,6-16.29S436.67,205.93,436.67,205.93Z"/><path class="cls-11" d="M224.35,337c-1-29.88-32-27.29-32-27.29-2.07,2.2-22.42,29.81,1.63,54.56C193.93,364.22,225.31,367.22,224.35,337Z"/><path class="cls-11" d="M436.71,429.84,430.86,409l56.45-24.66h91.6l30.55,30.55h26.9v24.43H589.91C444.51,419.9,443.33,542.78,443.33,542.78l103.51,1.63v20.33H287.32l-19.27-49.42h71.27l5.51-5.51H265.92L253.9,479h42.91l-7.41-7.41H251l-9-23.08h78.23l4.89-8H238.91l-4.16-10.62-6.23-16-9.21,16L153.26,544.35l-19.49-9.71,57.51-104.8,78-142.09c2.3-11.79,15.5-12.3,15.5-12.3l20-8.14c-11.63,11.63,3.26,17.07,3.26,17.07l-17.19,8.15-28.14,53.13H380.43l6.46,18.08c-20.67,7.75-15.5,33.64-15.5,33.64l9.32,32.46,11.12,38.58a28.73,28.73,0,0,0,5.62,10.45c14.49,17,29.15,20.05,40.1,11.4,8.14-6.4,11.23-17.3,8.42-27.29l-9.26-33.14"/><path class="cls-11" d="M516.19,266.78c-37.49-76.28-48.63-82.73-48.63-82.73s-49.35-31.88-55.86,25.69l24.43-9.23s19-3.26,22.81,14.66-14.66,22.27-14.66,22.27l-23.9,10.85,36.93,84.58s-51.32,22-66.79,35.44-9.37,30.14-9.37,30.14l20.77,70c4.19,11,18.15,21.17,29,11.8a19.12,19.12,0,0,0,5.68-19.4l-14.79-55.75,77.58-36.2S553.69,343.07,516.19,266.78Z"/><line class="cls-10" x1="500.65" y1="133.6" x2="500.65" y2="133.58"/><path class="cls-12" d="M460.63,532.82c9.72-43.9,50.51-78.37,97.34-78.37a98,98,0,0,1,0,196.06c-43.84,0-82.58-33.66-95.12-73.35l34.93.33A65.17,65.17,0,1,0,558,487.32c-27,0-51.78,21.3-61.67,44.68Z"/><path class="cls-12" d="M208,476.79c35.09,28.12,44.73,76.68,24,118.69A98,98,0,1,1,56.11,508.86c19.36-39.32,66.68-60.84,107.83-54.55l-19,32.81C119.47,485.5,97.58,499,85.59,523.38A65.16,65.16,0,1,0,202.51,581c11.93-24.21,3.77-55.86-12.84-75.07Z"/></svg>