<svg id="Layer_1" data-name="Layer 1" xmlns="http://www.w3.org/2000/svg" xmlns:xlink="http://www.w3.org/1999/xlink" viewBox="0 0 444.95 512.55"><defs><style>.cls-1{fill:url(#radial-gradient);}.cls-2{fill:#594a42;}.cls-3{fill:none;stroke:#be1e2d;stroke-miterlimit:10;stroke-width:5px;}</style><radialGradient id="radial-gradient" cx="406.53" cy="222.74" r="227.5" gradientTransform="translate(629.01 502.89) rotate(180)" gradientUnits="userSpaceOnUse"><stop offset="0.21" stop-color="#fff33b"/><stop offset="0.24" stop-color="#fee72e"/><stop offset="0.3" stop-color="#fed51b"/><stop offset="0.36" stop-color="#fdca10"/><stop offset="0.42" stop-color="#fdc70c"/><stop offset="0.58" stop-color="#f59b39"/><stop offset="0.65" stop-color="#f4963c"/><stop offset="0.77" stop-color="#f3903f"/><stop offset="0.86" stop-color="#ed683c"/><stop offset="0.99" stop-color="#e93e3a"/></radialGradient></defs><title>Artboard 1</title><path class="cls-1" d="M283.89,78.21S366,237,368.67,275.14c11,155.93-147.42,163.24-147.42,163.24C72.54,423.76,76.3,309.25,72.65,275.14S156.89,78.21,156.89,78.21s-28.21,0-55-30.47c0,0,55.23,97.25-54.41,93,0,0-11.37,15.63-28.43,61.32,0,0,57.26,49.94-17,79.18,0,0-7.31,35.33,6.09,70.66,0,0,80.4-3.66,39,74.31,0,0,19.49,34.11,56,48.73,0,0,60.91-59.7,71.88,31.67,0,0,52.38,13.4,90.14,0,0,0,13.4-85.28,78-32.89,0,0,30.45-13.4,54.82-48.73,0,0-47.51-65.78,31.67-69.44,0,0,21.93-17.05,13.4-78,0,0-74.31-11-21.92-74.32,0,0,11-21.92-29.24-63.34,0,0-124.26,18.68-60.91-92.18C330.91,47.74,304.6,78.21,283.89,78.21Z"/><rect class="cls-2" x="164.98" y="60.09" width="114.99" height="20.49" rx="10.25"/><path class="cls-2" d="M269.72,58.78H175.23c-5.66-1-10.25-5.59-10.25-11.25h0a10.25,10.25,0,0,1,10.25-10.25h94.49A10.25,10.25,0,0,1,280,47.53h0C280,53.19,275.38,57.78,269.72,58.78Z"/><rect class="cls-2" x="186.98" width="73" height="29.58" rx="12.53"/><rect class="cls-2" x="164.98" y="15" width="114.99" height="20.49" rx="10.25"/><polyline class="cls-3" points="186.98 111.16 186.98 186.16 126.96 246.18"/><polyline class="cls-3" points="259.98 111.16 259.98 185.16 311.96 246.18"/><line class="cls-3" x1="156.97" y1="216.17" x2="259.97" y2="319.17"/><line class="cls-3" x1="286.39" y1="216.16" x2="258.17" y2="244.37"/><line class="cls-3" x1="223.48" y1="282.68" x2="157.49" y2="348.68"/><circle class="cls-3" cx="121.96" cy="252.15" r="7"/><circle class="cls-3" cx="254.98" cy="249.18" r="7"/><circle class="cls-3" cx="263.17" cy="323.68" r="7"/><circle class="cls-3" cx="155.49" cy="351.68" r="7"/><circle class="cls-3" cx="315.96" cy="253.16" r="7"/></svg>