<svg id="Layer_1" data-name="Layer 1" xmlns="http://www.w3.org/2000/svg" viewBox="0 0 611 845.74"><defs><style>.cls-1{fill:#2e3192;}.cls-2{fill:#be1e2d;}.cls-3{fill:#262262;}.cls-4{fill:#92278f;}.cls-5{fill:#ee2a7b;}.cls-6{fill:#603913;}</style></defs><title>Artboard 21</title><polygon class="cls-1" points="315.95 183.37 478.52 284.01 478.52 507.36 432.27 535.8 432.27 312.85 264.47 212.99 315.95 183.37"/><polygon class="cls-2" points="496.13 294.27 496.13 517.23 331.24 611.87 377.11 639.74 543.55 548 543.55 322.14 496.13 294.27"/><polygon class="cls-3" points="543.55 569.48 543.55 621.74 376.53 716.96 191.89 608.96 191.89 552.64 381.75 663.54 543.55 569.48"/><polygon class="cls-4" points="356.21 725.66 309.18 752.37 129.19 645.54 132.09 434.2 174.48 409.23 174.48 615.35 356.21 725.66"/><polygon class="cls-5" points="115.83 634.8 115.83 427.81 293.5 327.37 242.7 297.17 67.45 397.62 67.45 608.38 115.83 634.8"/><polygon class="cls-6" points="67.45 375.56 242.7 275.69 415.43 375.56 415.43 322.14 242.7 221.11 67.45 321.56 67.45 375.56"/><rect class="cls-1" x="67.61" y="41.26" width="62.89" height="62.89"/><rect class="cls-6" x="131.6" y="41.26" width="62.89" height="62.89"/><rect class="cls-2" x="195.59" y="41.26" width="62.89" height="62.89"/><rect class="cls-3" x="254.97" y="41.26" width="62.89" height="62.89"/><rect class="cls-4" x="318.96" y="41.26" width="62.89" height="62.89"/><rect class="cls-5" x="382.94" y="41.26" width="62.89" height="62.89"/></svg>