<svg id="Layer_1" data-name="Layer 1" xmlns="http://www.w3.org/2000/svg" viewBox="0 0 581.81 583.48"><defs><style>.cls-1{fill:#754c29;}.cls-2{fill:#3c2415;}.cls-3{fill:#6cc9c7;}.cls-4{opacity:0.8;}.cls-5{fill:#be1e2d;}.cls-6{fill:#ed1c24;}.cls-7{fill:#f15a29;}.cls-8{fill:#f7941d;}.cls-9{fill:#fbb040;}.cls-10{fill:#f9ed32;}.cls-11{fill:#fff200;}.cls-12{fill:#00aeef;}.cls-13{fill:none;stroke:#231f20;stroke-miterlimit:10;stroke-width:4px;}.cls-14{fill:#1b75bc;}.cls-15{fill:#2b3990;}.cls-16{fill:#262262;}</style></defs><title>Artboard 13</title><path class="cls-1" d="M274.91,541H79.74a38.68,38.68,0,0,1-24.89-9l-1-.88a38.7,38.7,0,0,1-12.93-28.92V453.35l4-8c5.33-3.33,59.33-40.32,63.33-41.16s31.93,15.16,54,41.16S182.3,492.69,204.27,488s33.23-15.33,41.94,8S274.91,541,274.91,541Z"/><path class="cls-2" d="M348.5,541H274.91s-20-21.67-28.7-45-20-12.67-41.94-8-20-16.67-42.06-42.67-50-42-54-41.16-58,37.83-63.33,41.16l-4,8V163.12s49.6,210,54.1,211.49,19.5-30,30-21,37.2,42,37.2,42l54.29,8.59s13.5,23.78,0,43.6c-11.19,16.42,74.24,5.83,103.77,1.72-34.2,6.08-54.78,22-60.27,31.59-6,10.5,7.5,24,7.5,24H305l1.5,16.5h30Z"/><path class="cls-3" d="M540.91,391.55V435c-41.12.34-74.93,1.27-102.64,2.5-94.59,4.22-118,12-118,12-29.53,4.11-115,14.7-103.77-1.72,13.5-19.82,0-43.6,0-43.6l-54.29-8.59s-26.7-33-37.2-42-25.5,22.5-30,21-54.1-211.49-54.1-211.49V79.85A38.84,38.84,0,0,1,79.74,41h90.38l-.24,1a296.54,296.54,0,0,0,1.71,144c33,124.65,145.76,216.67,280.49,218.15l3.8,0h2.29A293.78,293.78,0,0,0,540.91,391.55Z"/><g class="cls-4"><path class="cls-5" d="M540.91,80.85V393.4l-.5.15a293.74,293.74,0,0,1-85.53,12.64c-137,0-251.94-93.63-284.38-220.47A296.46,296.46,0,0,1,169.62,43c.08-.33.16-.67.25-1s.16-.67.25-1l-.24,1h332.2A38.84,38.84,0,0,1,540.91,80.85Z"/><path class="cls-6" d="M540.91,80.85V349.18a251.43,251.43,0,0,1-86,15.07c-117.49,0-216-80.33-243.8-189.13A253.85,253.85,0,0,1,213.29,42H502.08A38.84,38.84,0,0,1,540.91,80.85Z"/><path class="cls-7" d="M540.91,80.85V303.93A209.88,209.88,0,0,1,257.36,42H502.08A38.84,38.84,0,0,1,540.91,80.85Z"/><path class="cls-8" d="M540.91,80.85V256.69A167.86,167.86,0,0,1,302.64,42H502.08A38.84,38.84,0,0,1,540.91,80.85Z"/><path class="cls-9" d="M540.91,80.85v123.6A125.85,125.85,0,0,1,350.7,42H502.08A38.84,38.84,0,0,1,540.91,80.85Z"/><path class="cls-10" d="M538.75,112.61A83.87,83.87,0,1,1,409.52,42h90.72A83.77,83.77,0,0,1,538.75,112.61Z"/><ellipse class="cls-11" cx="454.88" cy="112.61" rx="41.93" ry="41.94"/></g><path class="cls-12" d="M54.85,532,53,532.1l.83-1Z"/><path class="cls-13" d="M132.5,194.49c33-22.37,54,0,54,0s19.5-40.06,49.5-5"/><path class="cls-13" d="M260,248.62s9-10.5,15-6,24.58-15.4,22.5-6.19"/><path class="cls-13" d="M140,277c12-2.91,22.34,14,22.34,14s24.16-15.42,21.91-7.16"/><path class="cls-14" d="M363.77,541H348.5l-12-19.42h-30L305,505.1H267.5s-13.5-13.5-7.5-24c5.49-9.61,26.07-25.51,60.27-31.59,0,0,23.41-7.77,118-12,0,0-102.36,17.17-108.19,32.5s-15.78,8.67-9.81,27.33,53.31,16.85,34.64,33.76C348.92,536.54,354.05,539.5,363.77,541Z"/><path class="cls-15" d="M438.27,541h-74.5c-9.72-1.52-14.85-4.48-8.86-9.91,18.67-16.91-28.67-15.09-34.64-33.76s4-12,9.81-27.33,108.19-32.5,108.19-32.5c27.71-1.23,61.52-2.16,102.64-2.5,0,0-99.33,4.33-115.33,33.67s-24.67,25.33-16,40S434.3,526,438.27,524s-2.69,11.33-12.69,11.33S438.27,541,438.27,541Z"/><path class="cls-14" d="M425.58,541s-41.21,3.23-61.81,0Z"/><path class="cls-16" d="M540.91,435v67.17A38.84,38.84,0,0,1,502.08,541H438.27s-22.69-5.67-12.69-5.67S442.24,522,438.27,524s-20-.67-28.69-15.33,0-10.67,16-40S540.91,435,540.91,435Z"/></svg>