<svg id="Layer_1" data-name="Layer 1" xmlns="http://www.w3.org/2000/svg" viewBox="0 0 491.8 591.1"><defs><style>.cls-1{fill:#2e3192;}.cls-2{fill:#ef4136;}.cls-3{fill:#f7941d;}.cls-4{fill:#bcbec0;}.cls-5{fill:#006838;}.cls-6{fill:#009444;}</style></defs><title>Artboard 25</title><path class="cls-1" d="M195.6,410.28c-117.11-269,74.34-267.82,74.34-267.82-8.07-7.94-65.91-58.38-107.51-62.59l-28.3,21.54-41-33.54L59.61,64.15,44.7,90.22,59.61,120l33.53,22.34L70.78,190.83,33.53,187.1,0,205.73v22.34L29.8,246.7h41l3.73,44.72L41,302.59,14.9,336.12l11.18,26.09h41l33.53-22.36,18.63,26.09L96.87,392.57l-4.29,36.15,25.57,18.11L150.61,433l18.72-26Z"/><path class="cls-2" d="M324.14,71.6l29.8,26.08,35.68-23.43,34-6.93,19.7,22.9-11.17,33.54-40.12,28,10.35,26.06s-20.85,71.07-59.63,86.77C312.08,92.11,167.81,76,167.81,76L155.13,38l8.8-29.75L195,0l21.08,23.16,11.17,33.53h37.26l9.91-39.61L297.5.81l25.83,9.34,1.6,27.32-8.57,26.68Z"/><path class="cls-3" d="M424.73,250.43,421,287.69l39.44,16,16.44,36.19-11.17,18.63H428.46L391.2,339.85l-18.63,18.63,24,38.89-1.63,39.35L372.57,447.9l-29.8-18.63-22.36-29.8-44.7,18.62,1.07,33-16,30.31H234.72l-17.05-28.17-1.58-42.62-12.21-.36c-25.2-53.16-31.78-98.2-31.78-98.2,167.6,75,235.51-129.31,235.51-129.31l9.67,8.06h48.44l26.08,14.9v29.8L462,250.43Z"/><ellipse class="cls-4" cx="245.9" cy="551.5" rx="159.03" ry="34.55"/><path class="cls-5" d="M249.69,311.48c13.5.33,28.17-5.84,28.17-5.84V285c74-62.5-3-112.5-3-112.5V228l-27,16Z"/><path class="cls-6" d="M221.69,172.48v55.16L247.9,244l1.79,67.5A81.45,81.45,0,0,1,217,307.31V284.48S142,228.48,221.69,172.48Z"/></svg>