<svg id="Layer_1" data-name="Layer 1" xmlns="http://www.w3.org/2000/svg" viewBox="0 0 485.12 549.7"><defs><style>.cls-1,.cls-5{fill:#006838;}.cls-1,.cls-2{stroke:#010101;stroke-miterlimit:10;stroke-width:0.75px;}.cls-2,.cls-4{fill:#00a79d;}.cls-3{fill:#594a42;}</style></defs><path class="cls-1" d="M207.33,234.61l1.53,5.7-4.25,3.07-3.1,6.46,2.22,2.6,5.78-.95,5.31-3.84,3.37,2.41-2,5.69.56,7,3.76,1.16,4.15-3.65,2.71-5.2,7.42,1.75.76,4.63,3.18,4.83,4.05-.67,1.45-5.59-.37-5.88,5.31-3.85,4.91,4.54,5.78,2.62,3.09-2.89-1.14-6.94-4-2.9,2.22-4.53,5.78,2.62,6.37-1.05,1.07-4.34-4.91-4.54-5.49-.88-.57-7,6.37-1.05,4.15-3.65-.57-3.47-5.68-2-5.7,1.53-4.71-6.95,4.64-4.33,1.55-5-3-3.67-5.11,1.44L248.66,204l-6.45-3.1.49-4.24-1-6.36-4.24-.5L233.93,194l-.88,5.5-5.79,1L225.34,196l-5.29-3.29-3.28,1.73,1.62,9.84-4,4.81-5.78-2.62-5.88.38-2.42,3.37,2.6,4.92,5.78,2.61L207,225.17l-7.52,1.23-3.67,3,.76,4.63,5,1.56ZM220.4,231a14.66,14.66,0,1,1,16.85,12.09A14.67,14.67,0,0,1,220.4,231Z"/><path class="cls-2" d="M206.54,233.41l1.53,5.69-4.25,3.08-3.1,6.45,2.21,2.61,5.79-1,5.31-3.85,3.37,2.42-2,5.68.57,7,3.76,1.17,4.15-3.66,2.71-5.2,7.42,1.75.76,4.63,3.17,4.83,4-.67,1.46-5.59L243,253l5.31-3.84,4.91,4.54,5.78,2.61,3.09-2.88L261,246.44l-4.05-2.9,2.23-4.53,5.78,2.62,6.36-1,1.07-4.33-4.9-4.55-5.5-.88-.56-7,6.36-1,4.16-3.66-.57-3.47-5.69-2L260,215.1l-4.71-6.95,4.64-4.33,1.55-5-3-3.67-5.11,1.44-5.51,6.25-6.46-3.09.5-4.25-1-6.36-4.24-.49-3.48,4.14-.88,5.49-5.79.95-1.92-4.44-5.29-3.29L216,193.22l1.62,9.84-4,4.81-5.78-2.61-5.88.37L199.55,209l2.59,4.92,5.78,2.62L206.17,224l-7.52,1.24-3.67,3,.76,4.63,5,1.55Zm13.07-3.64a14.66,14.66,0,1,1,16.85,12.09A14.67,14.67,0,0,1,219.61,229.77Z"/><path class="cls-1" d="M287.9,303.45l.66,6.65-5.31,2.65-4.66,6.65,2,3.33h6.64l6.65-3.33,3.33,3.33-3.33,6-.66,8,4,2,5.31-3.32,4-5.32,8,3.32v5.32l2.66,6h4.65l2.66-6,.66-6.65,6.65-3.32,4.65,6,6,4,4-2.66v-8l-4-4,3.32-4.65,6,4H359l2-4.65-4.65-6-6-2,.67-8h7.31l5.32-3.32v-4l-6-3.32-6.65.66-4-8.64,6-4,2.66-5.32L353,270.21l-6,.67-7.31,6-6.65-4.65,1.33-4.66v-7.31l-4.65-1.33-4.66,4-2,6h-6.65l-1.33-5.32-5.31-4.65-4,1.33v11.3l-5.32,4.65-6-4-6.65-.67-3.32,3.32,2,6,6,4-3.32,8h-8.64l-4.66,2.66v5.32l5.32,2.66Zm15.29-1.66a16.62,16.62,0,1,1,16.62,16.61A16.62,16.62,0,0,1,303.19,301.79Z"/><path class="cls-2" d="M287.23,302l.67,6.65-5.32,2.66-4.65,6.65,2,3.32h6.65l6.65-3.32,3.32,3.32-3.32,6-.67,8,4,2,5.32-3.32,4-5.32,8,3.33v5.31l2.66,6h4.66l2.65-6,.67-6.64,6.65-3.33,4.65,6,6,4,4-2.66v-8l-4-4,3.33-4.65,6,4h7.31l2-4.65-4.66-6-6-2,.66-8h7.32L363,298v-4l-6-3.33-6.65.67-4-8.65,6-4,2.66-5.32-2.66-4.65-6,.66-7.32,6-6.64-4.65,1.33-4.65v-7.32l-4.66-1.32-4.65,4-2,6h-6.65l-1.33-5.32-5.32-4.65-4,1.32v11.31l-5.32,4.65-6-4-6.65-.66-3.32,3.32,2,6,6,4-3.33,8h-8.64L275.27,294v5.31l5.32,2.66Zm15.29-1.66a16.62,16.62,0,1,1,16.62,16.62A16.62,16.62,0,0,1,302.52,300.29Z"/><path class="cls-1" d="M375.39,248l2,6.36L372.77,258l-3.18,7.47,2.64,2.83,6.51-1.38,5.81-4.63,3.94,2.57-2,6.54,1,7.94,4.31,1.12,4.51-4.35,2.8-6,8.49,1.59,1.11,5.2,3.84,5.31,4.55-1,1.36-6.4-.73-6.64,5.82-4.64,5.79,4.89L436,271.1l3.35-3.43-1.66-7.8L433,256.8l2.29-5.25,6.68,2.66,7.15-1.51,1-5-5.8-4.89-6.26-.7-1-7.95,7.16-1.51,4.51-4.36-.83-3.9-6.54-2-6.37,2-5.69-7.63,5-5.14,1.5-5.75-3.57-4-5.71,1.89-5.91,7.37L413.12,208l.34-4.83L411.94,196l-4.83-.34-3.72,4.87-.71,6.26-6.51,1.38-2.4-4.92-6.17-3.45L384,202l2.34,11-4.23,5.66L375.41,216l-6.64.73-2.57,3.94,3.2,5.44,6.68,2.66-1.6,8.49L366,239.06l-4,3.57,1.1,5.2,5.75,1.5Zm14.61-4.8A16.62,16.62,0,1,1,409.7,256,16.61,16.61,0,0,1,390,243.15Z"/><path class="cls-2" d="M374.43,246.62l2,6.37-4.65,3.7-3.18,7.47,2.64,2.84,6.51-1.38,5.81-4.63,3.94,2.56-2,6.54,1,7.94,4.32,1.13,4.51-4.36,2.8-6,8.49,1.6,1.11,5.2,3.84,5.3,4.55-1,1.36-6.4-.73-6.64,5.81-4.63,5.8,4.89,6.68,2.66,3.35-3.43-1.66-7.81L432,255.47l2.29-5.24,6.68,2.66,7.15-1.52,1-5-5.8-4.89-6.26-.71-1-7.94,7.16-1.52,4.51-4.35-.83-3.91-6.54-2-6.37,2-5.69-7.62,5-5.14,1.5-5.76-3.57-4-5.71,1.89-5.91,7.37-7.47-3.17.34-4.83L411,194.7l-4.83-.33-3.72,4.86-.71,6.27-6.51,1.38-2.4-4.93-6.17-3.45L383,200.63l2.34,11.06-4.23,5.65-6.69-2.66-6.64.73-2.56,3.94,3.2,5.44,6.68,2.66-1.6,8.49-8.45,1.8-4,3.56,1.1,5.21,5.75,1.49ZM389,241.83a16.62,16.62,0,1,1,19.7,12.8A16.61,16.61,0,0,1,389,241.83Z"/><path class="cls-1" d="M287.23,212.08l.67,6.65-5.32,2.66L277.93,228l2,3.32h6.65l6.64-3.32,3.33,3.32-3.33,6-.66,8,4,2,5.32-3.32,4-5.32,8,3.33v5.31l2.66,6h4.65l2.66-6,.67-6.64,6.64-3.33,4.66,6,6,4,4-2.66v-8l-4-4,3.32-4.65,6,4h7.31l2-4.65-4.65-6-6-2,.66-8h7.31l5.32-3.33v-4l-6-3.33-6.65.67-4-8.64,6-4L355,183.5l-2.65-4.65-6,.66-7.31,6-6.65-4.65,1.33-4.65v-7.31l-4.65-1.33-4.65,4-2,6h-6.64l-1.33-5.32-5.32-4.65-4,1.33v11.3l-5.32,4.65-6-4-6.65-.66-3.32,3.32,2,6,6,4-3.32,8h-8.64l-4.65,2.66v5.31l5.31,2.66Zm15.29-1.66A16.62,16.62,0,1,1,319.14,227,16.62,16.62,0,0,1,302.52,210.42Z"/><path class="cls-2" d="M286.57,210.59l.66,6.64-5.32,2.66-4.65,6.65,2,3.32h6.65l6.65-3.32,3.32,3.32-3.32,6-.67,8,4,2,5.32-3.33,4-5.31,8,3.32v5.32l2.66,6h4.65l2.66-6,.66-6.65,6.65-3.32,4.65,6,6,4,4-2.66v-8l-4-4,3.33-4.65,6,4h7.31l2-4.65-4.66-6-6-2,.67-8H357l5.32-3.32v-4l-6-3.32-6.64.66-4-8.64,6-4,2.66-5.32-2.66-4.65-6,.67-7.31,6-6.65-4.66,1.33-4.65v-7.31l-4.66-1.33-4.65,4-2,6h-6.65l-1.33-5.32-5.32-4.65-4,1.33v11.3l-5.31,4.65-6-4-6.64-.66L283.24,182l2,6,6,4-3.32,8h-8.65l-4.65,2.66v5.32l5.32,2.66Zm15.29-1.66a16.62,16.62,0,1,1,16.61,16.61A16.61,16.61,0,0,1,301.86,208.93Z"/><path class="cls-1" d="M338.09,139l.26,5.94-4.86,2.1L329,152.67l1.6,3.05,5.91.33,6.06-2.62,2.79,3.11-3.25,5.15-1,7.05,3.45,2L349.5,168l3.81-4.53,6.92,3.35-.27,4.72L362,177l4.13.23,2.66-5.18.92-5.87,6.06-2.62,3.84,5.54,5.12,3.83,3.67-2.16.39-7.08L385.48,160l3.18-4,5.11,3.84,6.5.36,2-4-3.84-5.54-5.21-2.07,1-7.05,6.49.36,4.89-2.69.19-3.54-5.14-3.25-5.94.27-3.12-7.87,5.51-3.25,2.63-4.59-2.14-4.26-5.34.29-6.79,5-5.67-4.46,1.41-4.06.36-6.5-4.07-1.41-4.33,3.32L371.07,110l-5.9-.33-.92-4.78-4.49-4.4-3.61,1-.56,10-4.95,3.87-5.11-3.83-5.87-.92-3.12,2.79,1.48,5.41,5.11,3.83-3.34,6.92-7.67-.42-4.27,2.13-.26,4.72,4.59,2.63Zm13.65-.72a14.78,14.78,0,1,1,13.94,15.58A14.79,14.79,0,0,1,351.74,138.24Z"/><path class="cls-2" d="M337.57,137.6l.26,5.94-4.85,2.1-4.46,5.67,1.61,3.05,5.9.33,6.07-2.62,2.78,3.11-3.24,5.15-1,7,3.45,2,4.88-2.69,3.81-4.53,6.92,3.35-.26,4.72,2.06,5.44,4.14.23,2.65-5.18.92-5.87,6.07-2.62,3.83,5.54,5.12,3.83,3.67-2.16.4-7.08L385,158.59l3.18-4,5.12,3.83,6.49.36,2-4-3.84-5.54-5.21-2.07,1-7,6.5.36,4.88-2.69.2-3.54L400.11,131l-5.94.27-3.11-7.87,5.51-3.25,2.62-4.59-2.13-4.27-5.35.3-6.79,5-5.67-4.46,1.41-4.06.36-6.5L377,100.11l-4.33,3.32-2.06,5.21-5.91-.33-.91-4.78-4.5-4.4-3.61,1-.55,10L350.13,114,345,110.19l-5.87-.92L336,112.06l1.48,5.41,5.12,3.83-3.35,6.92-7.67-.42-4.26,2.13-.27,4.72,4.6,2.63Zm13.66-.72a14.78,14.78,0,1,1,13.94,15.58A14.78,14.78,0,0,1,351.23,136.88Z"/><path class="cls-1" d="M234.69,135.09l.67,6.65L230,144.4,225.39,151l2,3.33H234l6.65-3.33,3.32,3.33-3.32,6-.67,8,4,2,5.32-3.32,4-5.32,8,3.32v5.32l2.66,6h4.66l2.65-6,.67-6.65,6.65-3.32,4.65,6,6,4,4-2.66v-8l-4-4,3.33-4.66,6,4h7.31l2-4.65-4.66-6-6-2,.66-8h7.32l5.31-3.33v-4l-6-3.32-6.65.67-4-8.65,6-4,2.66-5.32-2.66-4.66-6,.67-7.32,6-6.64-4.65,1.33-4.65V91.88l-4.66-1.33-4.65,4-2,6h-6.65L262,95.21l-5.32-4.66-4,1.33v11.3l-5.32,4.66-6-4-6.65-.67-3.32,3.33,2,6,6,4-3.33,8h-8.64l-4.65,2.65v5.32l5.32,2.66ZM250,133.43a16.62,16.62,0,1,1,16.62,16.62A16.62,16.62,0,0,1,250,133.43Z"/><path class="cls-2" d="M234,133.6l.66,6.64-5.31,2.66-4.66,6.65,2,3.32h6.64l6.65-3.32,3.33,3.32-3.33,6-.66,8,4,2,5.31-3.33,4-5.31,8,3.32v5.32l2.66,6h4.65l2.66-6,.66-6.65,6.65-3.32,4.66,6,6,4,4-2.66v-8l-4-4,3.32-4.65,6,4h7.32l2-4.66-4.65-6-6-2,.67-8h7.31l5.32-3.32v-4l-6-3.32-6.65.66-4-8.64,6-4,2.66-5.32-2.66-4.65-6,.66-7.31,6-6.65-4.66,1.33-4.65V90.39l-4.65-1.33-4.66,4-2,6h-6.65l-1.33-5.32L256,89.06l-4,1.33v11.3l-5.32,4.65-6-4-6.65-.66L230.71,105l2,6,6,4-3.32,8h-8.64l-4.66,2.66v5.32l5.32,2.66Zm15.29-1.67a16.62,16.62,0,1,1,16.62,16.62A16.61,16.61,0,0,1,249.32,131.93Z"/><path class="cls-3" d="M286.27,248.48s-113.5,166.67,118.5,258c0,0-54-1.33-112-33.33,0,0-72,19.33-24.66,33.33,0,0-53.79-1.44-16.12-39.33,0,0-153.88,44.67-216.55,46.67,0,0,157.33-16.67,172-90.67S219.11,313.15,286.27,248.48Z"/><rect class="cls-4" x="35.44" y="26.52" width="43.82" height="43.82"/><rect class="cls-5" x="80.02" y="26.52" width="43.82" height="43.82"/><rect class="cls-3" x="124.6" y="26.52" width="43.82" height="43.82"/></svg>