<svg id="Layer_1" data-name="Layer 1" xmlns="http://www.w3.org/2000/svg" viewBox="0 0 188.82 285.88"><defs><style>.cls-1{fill:#231f20;stroke:#231f20;stroke-miterlimit:10;stroke-width:0.75px;}</style></defs><title>Artboard 30</title><path class="cls-1" d="M62.6,208.1a.76.76,0,0,1,0-.15"/><path class="cls-1" d="M188.82,264.1s-42,49-171,0c0,0-24.67-5.67-15.33-27,0,0-10.67-52.67,66.66-174.67,0,0,.92-.58.17-8.83s11.75-27.75,80-52.25c0,0,10.75-4.63,12,6.25L178.2,28.48s5.24,5.37-7.5,14.74l8.87,6.13s4.25,5.37-3.37,9.13c0,0-53,4.74-59-.63S83.35,87.57,94.59,196a43.18,43.18,0,0,1,37.23-21.85,39.81,39.81,0,0,1,24,8c.76.57,1.5,1.17,2.21,1.79a47.38,47.38,0,0,0,0,60.42,55.32,55.32,0,0,0,30.6,19.17Z"/></svg>