<svg id="Layer_1" data-name="Layer 1" xmlns="http://www.w3.org/2000/svg" viewBox="0 0 559.6 559.6"><defs><style>.cls-1{fill:#58595b;}.cls-2{fill:#6d6e71;}.cls-3{fill:#808285;}.cls-4{fill:#939598;}.cls-5{fill:#bcbec0;}.cls-6{fill:#f1f2f2;}.cls-7{fill:#231f20;}.cls-8{fill:none;}.cls-9{fill:#fff200;}.cls-10{fill:#ffdf00;}</style></defs><title>Artboard 12</title><path class="cls-1" d="M559.6,138.41V421.19A138.23,138.23,0,0,1,543.52,486,387.63,387.63,0,0,1,376,530q-3.4.12-6.82.17t-6.92.07c-1.53,0-3.05,0-4.58,0-3.42,0-6.83-.12-10.23-.25-73.1-2.68-140.75-25.18-197-61.95q-3.28-2.15-6.53-4.36c-1.72-1.18-3.43-2.36-5.12-3.57h0q-5.64-4-11.1-8.19h0C68.52,406.65,24.51,344.63,3.76,273.49a3.31,3.31,0,0,1-.12-.42h0q-2-6.72-3.64-13.54V138.41A138.46,138.46,0,0,1,117.65,1.54,140.61,140.61,0,0,1,138.41,0H421.19A138.41,138.41,0,0,1,559.6,138.41Z"/><path class="cls-2" d="M559.6,138.41V405.28c-1.73,1.34-3.48,2.67-5.24,4q-6,4.49-12.24,8.67a317.75,317.75,0,0,1-109.47,46.51q-13,2.85-26.4,4.63a330.46,330.46,0,0,1-44,2.92,332.11,332.11,0,0,1-41.63-2.61h0q-11-1.38-21.68-3.48h0a318.1,318.1,0,0,1-112.65-45.4q-3.3-2.14-6.54-4.36c-77.17-53-127.27-138.74-127.27-235.61,0-67.5,24.33-129.61,65.19-179A140.61,140.61,0,0,1,138.41,0H421.19A138.41,138.41,0,0,1,559.6,138.41Z"/><path class="cls-3" d="M559.6,138.41V321.65a241.06,241.06,0,0,1-37.37,37,249.07,249.07,0,0,1-28.14,19.37h0a262,262,0,0,1-249.91,7.56h0a251.93,251.93,0,0,1-28.55-17c-61.38-42.42-101.19-110.83-101.19-188.06,0-72.81,35.38-137.78,90.87-180.52h215.9A138.41,138.41,0,0,1,559.6,138.41Z"/><ellipse class="cls-4" cx="362.25" cy="180.52" rx="185.87" ry="174.88"/><ellipse class="cls-5" cx="362.25" cy="180.52" rx="123.91" ry="116.58"/><ellipse class="cls-6" cx="362.25" cy="180.52" rx="61.96" ry="58.29"/><path class="cls-7" d="M3.64,273.06h0L0,279.23V259.52Q1.68,266.35,3.64,273.06Z"/><path class="cls-8" d="M559.6,138.41V421.19A138.31,138.31,0,0,1,421.19,559.6H138.41a137.91,137.91,0,0,1-50-9.33q-3.78-1.46-7.45-3.15A138.43,138.43,0,0,1,0,421.19v-142l3.64-6.16h0q-2-6.72-3.64-13.54V138.41A138.46,138.46,0,0,1,117.65,1.54,140.61,140.61,0,0,1,138.41,0H421.19A138.41,138.41,0,0,1,559.6,138.41Z"/><path class="cls-9" d="M187,559.6H138.41a137.91,137.91,0,0,1-50-9.33q-3.78-1.46-7.45-3.15A138.43,138.43,0,0,1,0,421.19v-142l3.64-6.16h0L28,231.79,138.73,460.11h0l3.06,6.31,3.84,7.92Z"/><path class="cls-9" d="M559.6,417.49v3.7A138.31,138.31,0,0,1,421.19,559.6H318.87L347.44,530l5.14-5.32,9.52-9.86,44.15-45.75,87.83-91h0l24.39-25.28,3.75,5.91,32.13,50.57Z"/><path class="cls-9" d="M403,559.6H138.41a137.91,137.91,0,0,1-50-9.33q-3.78-1.46-7.45-3.15l56.54-74.94,4.35-5.76,2.06-2.74,35.87-47.55,35.88-47.55,5.88-7.8,22.67,24.84h0l76.44,83.75h0l41.48,45.44,10.65,11.68L376,530Z"/><path class="cls-10" d="M384.47,559.6H138.41a137.91,137.91,0,0,1-50-9.33l52.93-70.17,4.35-5.76,4.75-6.3,35.88-47.55,32.22-42.71,80.43,88.11h0l53.65,58.78,5.09,5.57,5.57,6.1Z"/><path class="cls-10" d="M557.92,442.8A138.31,138.31,0,0,1,421.19,559.6H340.8l22.44-23.26,5.93-6.14,3.58-3.71,59.9-62.06,83.83-86.86,25.64,40.35Z"/><path class="cls-10" d="M179.85,559.6H138.41a137.91,137.91,0,0,1-50-9.33q-3.78-1.46-7.45-3.15A138.43,138.43,0,0,1,0,421.19V279.86l3.76-6.37,20.49-34.71L127.62,451.91h0l9.82,20.26,3.84,7.92Z"/></svg>