<svg id="Layer_1" data-name="Layer 1" xmlns="http://www.w3.org/2000/svg" viewBox="0 0 500 500"><defs><style>.cls-1{fill:#8ba653;}.cls-2{fill:#9ec17d;}.cls-3{fill:#04890b;}.cls-4{font-size:82.32px;font-family:PalatinoLinotype-Bold, Palatino Linotype;font-weight:700;}.cls-5{font-size:34.85px;font-family:PalatinoLinotype-Roman, Palatino Linotype;letter-spacing:0.02em;}</style></defs><polygon class="cls-1" points="306.03 391.16 220.99 275.89 169.49 389.88 219.35 111.5 220.17 108.84 306.03 391.16"/><polygon class="cls-1" points="169.17 390.35 168.67 391.43 119.89 275.63 32.49 390.9 118.36 108.57 119.17 111.23 169.17 390.35"/><polygon class="cls-2" points="219.35 110.44 169.49 388.83 169.17 389.56 119.17 110.44 169.26 275.17 219.35 110.44"/><polygon class="cls-3" points="169.17 390.61 169.49 389.88 169.26 391.16 169.17 390.61"/><text class="cls-4" transform="translate(321.15 262.73)">MV</text><text class="cls-5" transform="translate(320.92 297.73)">EVENTS</text><rect class="cls-2" x="56" y="12" width="45" height="45"/><rect x="101" y="12" width="45" height="45"/><rect class="cls-1" x="11" y="12" width="45" height="45"/></svg>