<svg id="Layer_1" data-name="Layer 1" xmlns="http://www.w3.org/2000/svg" viewBox="0 0 459.07 547.05"><defs><style>.cls-1{fill:#2e3192;}.cls-2{fill:#ef4136;}.cls-3{fill:#f7941d;}.cls-4{fill:#bcbec0;}</style></defs><title>Artboard 23</title><path class="cls-1" d="M182.58,383C73.27,131.91,252,133,252,133c-7.53-7.42-61.53-54.5-100.36-58.42L125.2,94.66,86.94,63.36l-31.3-3.48L41.73,84.22l13.91,27.83,31.3,20.86L66.07,178.13,31.3,174.65,0,192V212.9l27.82,17.39H66.07L69.55,272l-31.3,10.43-24.34,31.3,10.43,24.35H62.6l31.3-20.87,17.39,24.35L90.42,366.45l-4,33.74,23.87,16.91,30.3-12.87L158.06,380Z"/><path class="cls-2" d="M302.57,66.84l27.82,24.34,33.3-21.87,31.78-6.47,18.39,21.38-10.43,31.31L366,141.65,375.64,166S356.18,232.32,320,247C291.31,86,156.64,71,156.64,71l-11.83-35.5L153,7.71,182,0l19.68,21.62,10.43,31.3h34.78l9.25-37L277.7.76l24.11,8.72,1.5,25.5-8,24.9Z"/><path class="cls-3" d="M396.47,233.77,393,268.55l36.82,14.91,15.35,33.78-10.43,17.39H400l-34.78-17.39-17.39,17.39,22.39,36.3-1.52,36.73L347.78,418.1,320,400.71l-20.87-27.82-41.73,17.38,1,30.83-14.92,28.3H219.1l-15.91-26.3-1.48-39.78-11.4-.34c-23.52-49.62-29.67-91.67-29.67-91.67,156.45,70,219.85-120.7,219.85-120.7l9,7.52h45.22L459.07,192v27.82l-27.82,13.91Z"/><ellipse class="cls-4" cx="229.54" cy="514.81" rx="148.45" ry="32.25"/></svg>