<svg id="Layer_1" data-name="Layer 1" xmlns="http://www.w3.org/2000/svg" xmlns:xlink="http://www.w3.org/1999/xlink" viewBox="0 0 526.42 637.34"><defs><style>.cls-1,.cls-2{fill:#726658;}.cls-2{opacity:0.9;}.cls-3{fill:url(#radial-gradient);}.cls-4,.cls-9{fill:none;}.cls-5,.cls-6,.cls-8{fill:#fff;}.cls-5,.cls-8{opacity:0.3;}.cls-7{fill:url(#radial-gradient-2);}.cls-8,.cls-9{stroke:#010101;stroke-miterlimit:10;}</style><radialGradient id="radial-gradient" cx="103.31" cy="201.83" r="374.83" gradientUnits="userSpaceOnUse"><stop offset="0" stop-color="#2484c6" stop-opacity="0"/><stop offset="1" stop-color="#2484c6"/></radialGradient><radialGradient id="radial-gradient-2" cx="66.37" cy="69.77" r="21.91" xlink:href="#radial-gradient"/></defs><title>Artboard 19</title><path class="cls-1" d="M472.12,431.22C444.61,518.09,364.39,581.5,269,583.93l3.37-5.34c9.49-8.26,34.6-7.91,34.6-7.91,14.66,2,96.66-51.67,102.66-68s-23.33-16-31.33-28,7-23.5,16-30.67-4-52-4-52S429.93,426.43,472.12,431.22Z"/><path class="cls-2" d="M409.64,502.68c-6,16.33-88,70-102.66,68,0,0-25.11-.35-34.6,7.91a9.87,9.87,0,0,0-3.37,5.34c-1.9.06-3.79.08-5.7.08-118.26,0-214.63-93.74-218.85-211,3,22.6,30.44,85.87,239.85,99,0,0,41-4.92,72.06-26.3L390.31,392s13,44.83,4,52-24,18.67-16,30.67S415.64,486.34,409.64,502.68Z"/><path class="cls-1" d="M272.38,578.59,269,583.93A9.87,9.87,0,0,1,272.38,578.59Z"/><path class="cls-3" d="M482.31,365a218.75,218.75,0,0,1-10.19,66.21C429.93,426.43,390.31,392,390.31,392l-33.94,53.7C325.3,467.09,284.31,472,284.31,472,74.9,458.92,47.5,395.65,44.46,373.05q-.15-4-.15-8A217.9,217.9,0,0,1,81.4,243q5.7-8.52,12.19-16.45a221.53,221.53,0,0,1,31.3-31.3A218.45,218.45,0,0,1,263.31,146C384.26,146,482.31,244.06,482.31,365Z"/><path class="cls-4" d="M44.46,373.05a28.82,28.82,0,0,1-.15-8"/><path class="cls-1" d="M272.38,578.59,269,583.93A9.87,9.87,0,0,1,272.38,578.59Z"/><path class="cls-5" d="M196.73,238.68A57.75,57.75,0,0,1,81.4,243q5.7-8.52,12.19-16.45a221.53,221.53,0,0,1,31.3-31.3,218.73,218.73,0,0,1,19.36-14.12A57.75,57.75,0,0,1,196.73,238.68Z"/><path class="cls-6" d="M159,228a32.73,32.73,0,0,1-65.45,0c0-.47,0-.94,0-1.4a221.53,221.53,0,0,1,31.3-31.3c.46,0,.93,0,1.4,0A32.72,32.72,0,0,1,159,228Z"/><polygon class="cls-6" points="335.39 230.49 335.84 231.38 336.82 231.52 336.11 232.22 336.28 233.2 335.39 232.74 334.51 233.2 334.68 232.22 333.97 231.52 334.95 231.38 335.39 230.49"/><polygon class="cls-6" points="384.81 228.07 385.52 229.51 387.11 229.74 385.96 230.86 386.23 232.44 384.81 231.7 383.39 232.44 383.66 230.86 382.51 229.74 384.1 229.51 384.81 228.07"/><polygon class="cls-6" points="257.31 155.01 258.04 156.5 259.69 156.74 258.5 157.9 258.78 159.53 257.31 158.76 255.84 159.53 256.12 157.9 254.93 156.74 256.57 156.5 257.31 155.01"/><polygon class="cls-6" points="242.31 297.21 242.84 298.28 244.02 298.45 243.17 299.29 243.37 300.47 242.31 299.91 241.25 300.47 241.45 299.29 240.59 298.45 241.78 298.28 242.31 297.21"/><polygon class="cls-6" points="368.31 320 369.19 321.79 371.18 322.08 369.74 323.48 370.08 325.45 368.31 324.52 366.54 325.45 366.88 323.48 365.44 322.08 367.42 321.79 368.31 320"/><polygon class="cls-6" points="300.81 187.89 301.14 188.56 301.87 188.66 301.34 189.18 301.47 189.91 300.81 189.57 300.15 189.91 300.28 189.18 299.75 188.66 300.48 188.56 300.81 187.89"/><polygon class="cls-6" points="290.31 260.1 290.73 260.94 291.65 261.07 290.98 261.73 291.14 262.65 290.31 262.22 289.48 262.65 289.64 261.73 288.96 261.07 289.89 260.94 290.31 260.1"/><polygon class="cls-6" points="196.73 213.51 197.02 214.11 197.68 214.2 197.2 214.66 197.31 215.32 196.73 215.01 196.14 215.32 196.25 214.66 195.77 214.2 196.43 214.11 196.73 213.51"/><polygon class="cls-6" points="77.81 293.01 78.81 295.05 81.06 295.37 79.43 296.96 79.82 299.19 77.81 298.14 75.8 299.19 76.18 296.96 74.56 295.37 76.81 295.05 77.81 293.01"/><polygon class="cls-6" points="101.81 318 102.4 319.19 103.71 319.38 102.76 320.31 102.98 321.62 101.81 321 100.63 321.62 100.86 320.31 99.91 319.38 101.22 319.19 101.81 318"/><polygon class="cls-6" points="150.81 306.32 151.6 307.92 153.37 308.18 152.09 309.43 152.39 311.19 150.81 310.36 149.23 311.19 149.53 309.43 148.25 308.18 150.02 307.92 150.81 306.32"/><polygon class="cls-6" points="197.68 367.97 198.42 369.48 200.09 369.73 198.88 370.9 199.17 372.57 197.68 371.78 196.18 372.57 196.47 370.9 195.26 369.73 196.93 369.48 197.68 367.97"/><polygon class="cls-6" points="310.31 381.93 310.77 382.87 311.81 383.02 311.06 383.75 311.24 384.79 310.31 384.3 309.38 384.79 309.56 383.75 308.81 383.02 309.84 382.87 310.31 381.93"/><polygon class="cls-6" points="456.81 367.56 457.68 369.32 459.61 369.6 458.21 370.97 458.54 372.9 456.81 371.99 455.07 372.9 455.41 370.97 454 369.6 455.94 369.32 456.81 367.56"/><polygon class="cls-6" points="454 291.51 454.74 293 456.38 293.24 455.19 294.4 455.47 296.03 454 295.26 452.53 296.03 452.81 294.4 451.63 293.24 453.27 293 454 291.51"/><rect class="cls-7" x="44.46" y="47.86" width="43.82" height="43.82"/><rect class="cls-8" x="89.04" y="47.86" width="43.82" height="43.82"/><rect class="cls-9" x="133.62" y="47.86" width="43.82" height="43.82"/><rect class="cls-2" x="177.53" y="47.86" width="43.82" height="43.82"/><rect class="cls-1" x="222.11" y="47.86" width="43.82" height="43.82"/></svg>