<svg id="Layer_1" data-name="Layer 1" xmlns="http://www.w3.org/2000/svg" viewBox="0 0 415.06 425.18"><defs><style>.cls-1{fill:#006838;}.cls-1,.cls-2{stroke:#010101;stroke-miterlimit:10;stroke-width:0.75px;}.cls-2{fill:#00a79d;}.cls-3{fill:#594a42;}</style></defs><title>Artboard 9</title><path class="cls-1" d="M249,146.93l5-1.55.76-4.63-3.67-3-7.53-1.24-1.75-7.42,5.78-2.62,2.6-4.92-2.42-3.37-5.88-.37-5.78,2.61-4-4.81,1.62-9.84-3.28-1.72-5.3,3.28-1.92,4.44-5.78-1-.88-5.49-3.48-4.14-4.24.49-1,6.37.49,4.24-6.45,3.1-5.51-6.26-5.11-1.44-3,3.68,1.56,5,4.63,4.32-4.7,7-5.7-1.53-5.68,2-.57,3.47,4.15,3.66,6.37,1.05-.57,7-5.49.88-4.91,4.54,1.07,4.33,6.37,1,5.78-2.61,2.22,4.52-4,2.9-1.14,7,3.09,2.88,5.78-2.61,4.91-4.54,5.31,3.84-.38,5.88,1.46,5.59,4.05.67,3.17-4.83.77-4.63,7.42-1.75,2.71,5.2,4.15,3.66,3.76-1.17.56-7-2-5.68,3.37-2.42,5.31,3.85,5.78.95L249,161.2l-3.1-6.45-4.25-3.08,1.53-5.69Zm-35.71,7.5a14.66,14.66,0,1,1,16.85-12.09A14.66,14.66,0,0,1,213.25,154.43Z"/><path class="cls-2" d="M249.75,145.73l5-1.56.76-4.63-3.67-3-7.52-1.24-1.75-7.42,5.78-2.61,2.59-4.93L248.53,117l-5.88-.38-5.78,2.62-4-4.82,1.61-9.83-3.28-1.73L226,106.15,224,110.59l-5.79-1-.88-5.49L213.88,100l-4.24.49-1,6.37.49,4.24-6.45,3.1-5.51-6.26L192,106.51l-3,3.67,1.55,5,4.64,4.33-4.71,7-5.69-1.53-5.69,2-.57,3.47,4.15,3.65,6.37,1.05-.56,7-5.5.88-4.91,4.54,1.07,4.34,6.37,1,5.78-2.61,2.23,4.53-4.05,2.9-1.14,6.94,3.09,2.89,5.78-2.62,4.91-4.54,5.31,3.85-.37,5.88,1.45,5.59,4.06.66,3.17-4.82.76-4.63,7.42-1.75,2.71,5.2,4.15,3.65,3.76-1.16.57-7-2-5.69,3.37-2.42,5.31,3.85,5.79.95,2.21-2.61-3.1-6.45-4.25-3.08,1.53-5.69ZM214,153.22a14.66,14.66,0,1,1,16.85-12.08A14.66,14.66,0,0,1,214,153.22Z"/><path class="cls-1" d="M169.25,214.81l5.31-2.66v-5.31l-4.65-2.66h-8.64l-3.32-8,6-4,2-6-3.32-3.32-6.65.66-6,4-5.32-4.65v-11.3l-4-1.33-5.31,4.65L134,180.25h-6.65l-2-6-4.65-4-4.65,1.33v7.31l1.33,4.65-6.65,4.65-7.31-6-6-.66-2.66,4.65,2.66,5.32,6,4-4,8.64-6.65-.67-6,3.33v4l5.32,3.33h7.31l.66,8-6,2-4.65,6,2,4.65h7.32l6-4,3.32,4.65-4,4v8l4,2.66,6-4,4.66-6,6.64,3.33L126,250l2.66,6h4.65l2.66-6v-5.31l8-3.33,4,5.32,5.31,3.32,4-2-.66-8-3.33-6,3.33-3.32,6.64,3.32h6.65l2-3.32-4.66-6.65-5.32-2.66.67-6.65Zm-38.56,15a16.62,16.62,0,1,1,16.62-16.62A16.62,16.62,0,0,1,130.69,229.77Z"/><path class="cls-2" d="M169.91,213.32l5.32-2.66v-5.32l-4.65-2.66h-8.65l-3.32-8,6-4,2-6-3.33-3.32-6.64.66-6,4-5.31-4.65v-11.3l-4-1.33L136,173.43l-1.33,5.32H128l-2-6-4.65-4-4.66,1.33v7.31l1.33,4.65-6.64,4.66-7.32-6-6-.67-2.66,4.65,2.66,5.32,6,4-4,8.64L93.47,202l-6,3.32v4l5.32,3.32h7.31l.67,8-6,2-4.66,6,2,4.65h7.31l6-4,3.33,4.65-4,4v8l4,2.66,6-4,4.65-6L126,241.9l.66,6.65,2.66,6H134l2.66-6v-5.32l8-3.32,4,5.31,5.32,3.33,4-2-.67-8-3.32-6,3.32-3.32,6.65,3.32h6.65l2-3.32-4.65-6.65L162.6,220l.66-6.64Zm-38.55,15A16.62,16.62,0,1,1,148,211.66,16.61,16.61,0,0,1,131.36,228.27Z"/><path class="cls-1" d="M81.62,160.69l5.75-1.49,1.1-5.21-4-3.56L76,148.63l-1.6-8.49,6.68-2.66L84.3,132l-2.57-3.94-6.64-.73L68.41,130l-4.23-5.65,2.34-11.06-3.62-2.13-6.17,3.45-2.41,4.93-6.5-1.38-.71-6.27-3.72-4.86-4.83.33L37,114.54l.34,4.83-7.47,3.17L24,115.17l-5.72-1.89-3.56,4L16.21,123l5,5.14-5.7,7.63-6.36-2-6.54,2-.83,3.9L6.32,144l7.16,1.52-1,7.94-6.27.71L.41,159.1l1,5,7.15,1.52,6.68-2.66,2.28,5.24-4.72,3.07L11.13,179l3.35,3.43,6.68-2.66L27,174.92l5.82,4.63L32,186.19l1.36,6.41,4.55,1,3.84-5.3,1.1-5.2,8.5-1.6,2.8,6,4.51,4.36L63,190.72l1-7.94-2-6.54L66,173.68l5.81,4.63,6.51,1.38,2.64-2.84-3.18-7.47-4.65-3.7,2-6.37ZM40.8,167.32a16.62,16.62,0,1,1,19.7-12.8A16.61,16.61,0,0,1,40.8,167.32Z"/><path class="cls-2" d="M82.58,159.37l5.75-1.5,1.1-5.2-4-3.57L77,147.31l-1.6-8.49,6.68-2.66,3.2-5.44-2.57-3.94-6.64-.73-6.68,2.66-4.23-5.66,2.34-11-3.62-2.13-6.17,3.45-2.41,4.92-6.5-1.38-.71-6.26-3.72-4.87-4.83.34L38,113.22l.34,4.83-7.47,3.17L25,113.85,19.24,112l-3.56,4,1.5,5.75,5,5.14-5.69,7.63-6.37-2-6.54,2-.83,3.9,4.51,4.36,7.16,1.51-1,7.94-6.27.71-5.79,4.89,1,5,7.15,1.51,6.68-2.66,2.29,5.25-4.73,3.07-1.66,7.8,3.35,3.43,6.68-2.66,5.79-4.89,5.82,4.64L33,184.87l1.36,6.4,4.55,1,3.84-5.31,1.11-5.2,8.49-1.59,2.8,6,4.51,4.35L64,189.4l1-7.94-2-6.54,3.94-2.57L72.72,177l6.51,1.38,2.64-2.83-3.18-7.47L74,164.35l2-6.36ZM41.76,166a16.62,16.62,0,1,1,19.7-12.81A16.62,16.62,0,0,1,41.76,166Z"/><path class="cls-1" d="M169.91,123.45l5.32-2.66v-5.32l-4.65-2.66h-8.64l-3.33-8,6-4,2-6-3.32-3.32-6.65.67-6,4-5.32-4.65V80.24l-4-1.33L136,83.56l-1.33,5.32H128l-2-6-4.65-4-4.65,1.33v7.31l1.33,4.66-6.65,4.65-7.31-6-6-.67-2.66,4.65,2.66,5.32,6,4-4,8.64-6.65-.66-6,3.32v4l5.32,3.32h7.31l.66,8-6,2-4.65,6,2,4.65h7.31l6-4,3.32,4.65-4,4v8l4,2.66,6-4,4.65-6L126,152l.67,6.65,2.66,6H134l2.66-6v-5.32l8-3.32,4,5.32,5.32,3.32,4-2-.67-8-3.32-6,3.32-3.33,6.65,3.33h6.65l2-3.33-4.65-6.65-5.32-2.65.67-6.65Zm-38.55,15A16.62,16.62,0,1,1,148,121.79,16.61,16.61,0,0,1,131.36,138.4Z"/><path class="cls-2" d="M170.58,122l5.32-2.66V114l-4.66-2.66H162.6l-3.32-8,6-4,2-6-3.33-3.32-6.65.66-6,4L146,90.05V78.74l-4-1.32-5.32,4.65-1.33,5.32H128.7l-2-6-4.66-4-4.65,1.32v7.32l1.33,4.65-6.65,4.65-7.31-6-6-.66-2.66,4.65,2.66,5.32,6,4-4,8.65-6.64-.67-6,3.33v4l5.32,3.33h7.31l.67,8-6,2-4.65,6,2,4.65h7.31l6-4,3.32,4.65-4,4v8l4,2.66,6-4,4.65-6,6.65,3.33.66,6.64,2.66,6h4.65l2.66-6v-5.31l8-3.33,4,5.32,5.32,3.32,4-2-.66-8-3.32-6,3.32-3.32,6.65,3.32h6.64l2-3.32-4.65-6.65-5.32-2.66.66-6.65Zm-38.56,15a16.62,16.62,0,1,1,16.62-16.62A16.61,16.61,0,0,1,132,136.91Z"/><path class="cls-1" d="M118.32,50l4.59-2.62-.26-4.72-4.27-2.14-7.67.43L107.37,34l5.11-3.84L114,24.78,110.84,22l-5.87.92-5.11,3.84-5-3.87-.55-10-3.61-1-4.49,4.39L85.33,21l-5.91.33-2.06-5.22L73,12.84,69,14.25l.36,6.49,1.41,4.07-5.67,4.46-6.79-4.95L52.93,24l-2.14,4.26,2.63,4.59,5.51,3.25L55.81,44l-5.94-.26L44.72,47l.2,3.54,4.89,2.69,6.49-.36,1,7L52.07,62l-3.84,5.55,2,4,6.49-.36,5.12-3.84,3.18,4-3.34,3.74.39,7.08,3.67,2.17,5.12-3.84,3.84-5.54,6.06,2.63.92,5.87,2.66,5.18,4.13-.23,2.07-5.44-.27-4.73,6.92-3.34L101,79.38l4.88,2.69,3.45-2-1-7-3.24-5.15,2.79-3.12L114,67.42l5.91-.33,1.6-3L117,58.36l-4.85-2.09.26-5.94ZM84.81,65.18A14.78,14.78,0,1,1,98.75,49.61,14.78,14.78,0,0,1,84.81,65.18Z"/><path class="cls-2" d="M118.83,48.64l4.6-2.62-.27-4.72-4.26-2.14-7.67.43-3.35-6.92L113,28.83l1.47-5.41-3.11-2.79-5.87.92-5.12,3.84-5-3.87-.56-10-3.6-1-4.5,4.39-.92,4.79-5.9.33-2.06-5.22-4.33-3.31-4.07,1.41.36,6.49,1.41,4.07-5.67,4.46-6.79-5-5.35-.29-2.13,4.26,2.62,4.59,5.51,3.25-3.11,7.87-5.94-.26-5.15,3.25.2,3.54,4.88,2.69,6.5-.36,1,7L52.59,60.6l-3.84,5.55,2,4,6.49-.36L62.36,66l3.18,4-3.35,3.74.4,7.08,3.67,2.17,5.11-3.84,3.84-5.54,6.07,2.62.92,5.88,2.65,5.18L89,87l2.06-5.45-.26-4.72,6.92-3.34,3.8,4.52,4.89,2.69,3.44-2-1-7-3.25-5.15,2.79-3.12,6.07,2.62,5.9-.32L122,62.68,117.52,57l-4.85-2.1.26-5.93ZM85.33,63.82A14.78,14.78,0,1,1,99.27,48.25,14.79,14.79,0,0,1,85.33,63.82Z"/><path class="cls-1" d="M222.45,46.46l5.32-2.66V38.48l-4.65-2.66h-8.65l-3.32-8,6-4,2-6-3.33-3.32-6.64.66-6,4-5.31-4.65V3.25l-4-1.33-5.32,4.65-1.33,5.32h-6.65l-2-6-4.65-4-4.66,1.33v7.31l1.33,4.65L164,19.87l-7.32-6-6-.66L148,17.87l2.66,5.32,6,4-4,8.64L146,35.16l-6,3.32v4l5.32,3.32h7.31l.67,8-6,2-4.66,6,2,4.65H152l6-4,3.33,4.65-4,4v8l4,2.66,6-4,4.65-6L178.58,75l.66,6.65,2.66,6h4.66l2.66-6V76.37l8-3.32,4,5.31,5.32,3.33,4-2-.67-8-3.32-6,3.32-3.32,6.65,3.32h6.65l2-3.32-4.65-6.65-5.32-2.66.66-6.64ZM183.9,61.41a16.62,16.62,0,1,1,16.62-16.62A16.62,16.62,0,0,1,183.9,61.41Z"/><path class="cls-2" d="M223.12,45l5.31-2.66V37l-4.65-2.65h-8.64l-3.32-8,6-4,2-6-3.32-3.33-6.65.67-6,4-5.32-4.66V1.75l-4-1.33-5.31,4.66-1.33,5.31h-6.65l-2-6-4.65-4-4.65,1.33V9.07l1.33,4.65-6.65,4.65-7.31-6-6-.67-2.66,4.66,2.66,5.32,6,4-4,8.65-6.65-.67-6,3.32v4L146,44.3h7.31l.66,8-6,2-4.65,6,2,4.65h7.31l6-4L162,65.57l-4,4v8l4,2.66,6-4,4.66-6,6.64,3.32.67,6.65,2.66,6h4.65l2.66-6V74.87l8-3.32,4,5.32,5.32,3.32,4-2-.66-8-3.33-6,3.33-3.33,6.64,3.33h6.65l2-3.33-4.66-6.64-5.32-2.66.67-6.65Zm-38.56,15A16.62,16.62,0,1,1,201.18,43.3,16.62,16.62,0,0,1,184.56,59.92Z"/><path class="cls-3" d="M164.23,159.85s113.5,166.67-118.5,258c0,0,54-1.33,112-33.33,0,0,72,19.33,24.66,33.33,0,0,53.79-1.44,16.12-39.33,0,0,153.88,44.66,216.55,46.66,0,0-157.33-16.66-172-90.66S231.39,224.52,164.23,159.85Z"/></svg>