<svg id="Layer_1" data-name="Layer 1" xmlns="http://www.w3.org/2000/svg" viewBox="0 0 426.33 456.59"><defs><style>.cls-1{fill:#231f20;}.cls-2{fill:#fff;}.cls-3,.cls-4{fill:#efe7ce;}.cls-10,.cls-11,.cls-12,.cls-13,.cls-15,.cls-3,.cls-5,.cls-6,.cls-7,.cls-8,.cls-9{stroke:#231f20;}.cls-10,.cls-11,.cls-12,.cls-13,.cls-14,.cls-15,.cls-3,.cls-5,.cls-6,.cls-7,.cls-8,.cls-9{stroke-miterlimit:10;}.cls-10,.cls-11,.cls-12,.cls-13,.cls-15,.cls-3,.cls-5,.cls-8,.cls-9{stroke-width:5px;}.cls-14,.cls-5,.cls-6,.cls-7{fill:none;}.cls-6{stroke-width:4px;}.cls-8{fill:#dd9dc6;}.cls-9{fill:#9e80ba;}.cls-10{fill:#da9cc6;}.cls-11{fill:#ea844e;}.cls-12{fill:#f7c01d;}.cls-13{fill:#f5c11b;}.cls-14{stroke:#fff;stroke-width:2px;}.cls-15{fill:#99d9ec;}</style></defs><title>Artboard 8</title><path class="cls-1" d="M95.85,429.8s-8.87,2.64-9.2,20.48c0,0,2.16,3.33,4.16,4s6.5,2.31,37,2.31c0,0,4.67-3.65,5.84-4.81s6.16-10.84,7.16-15c0,0-1.16-6.67-4.66-6.95C122.9,428.57,97.39,428.1,95.85,429.8Z"/><path class="cls-2" d="M105.33,440.11s-3.12-2.25.88-3.63c0,0,1.37-1.18-.56-1.87a7.15,7.15,0,0,0-4.07,0s-2.25,1.87-.75,3.06S97.4,439,97.4,439s2.75,4.19-1.44,5.19c0,0,1.19,1.56-1.31,4s6.56,2.13,6.56,1.94-3.38-4.25,1.81-5.25C103,444.86,100.21,441.48,105.33,440.11Z"/><path class="cls-1" d="M332.15,428.84s30.08.1,35.08-3.15c0,0,5.75,3.75,7.33,7.09s3.59,10.58,3.5,15.41-22.25,5.92-36.25,4c0,0-6.08-1.41-6.83-2.33s-2.75-2.92-5.83-15.5L324,429.23Z"/><path class="cls-2" d="M345.27,433.48c.14-.22-4.81-.75-6.06,0s-4.06,3.63.5,4.82c0,0-2.56,4.37,2.31,4.75,0,0-5.08,6.25,9,4.43,0,0-3.72-2.81,0-5.25,0,0-5.39-2.06-1.46-4.87C349.58,437.36,343.27,436.73,345.27,433.48Z"/><path class="cls-1" d="M349,67.44s-3.83-.33-6.17.67-13,8-13,8-4.56,8.17,7.39,35.5c0,0,20.61-7.83,22.61-15.5C363.71,81.17,349,67.44,349,67.44Z"/><path class="cls-2" d="M333.48,83.28l12.17-7.84V71.78S330.31,76.61,333.48,83.28Z"/><path class="cls-3" d="M94.19,179.55c-32.43,32.19-34.37,44.56-34.37,44.56,5.66,21.33,13.33,26.33,13.33,26.33s12,2.34,23.33-.33,25.34-10.33,25.34-10.33c27.66,60.33,34.33,53.33,6.66,117.33s-28,71.59-28,71.59l35.7,1.13c2.33-16.39,5.92-17,72.13-52.51,0,0,77.54-10.21,119.87,51.71,0,0,32.86-1.23,38.93-3.29-.85.26-5.26,1.29-8.18-3.88-3.25-5.75-47.25-87-47.25-87L293.9,300.61c-.09-.33-19.65-31.85-35-104.56,0,0,53.32-62.94,78.26-84.44,0,0-11.55-23-8.05-34.5,0,0-88.7,52.88-99.2,65.38l-13.13-23.05s10.33-16.33-34.34-64.66c0,0-2.33-12.67-7-22.67,0,0-4.33-11.33-4-16.67s-12.66-14-18-3.66-20,36.33-11.33,45.33c0,0-6.67,32.33,19.67,48.33,0,0-13.34,9.34-24.67,4.67,0,0,3.33,17.67,29.67,23.5,0,0-29,19.16-45.33,0,.27.83,10.29,31.48,7.33,31.48a88.47,88.47,0,0,1-14.35-1.91Z"/><path class="cls-3" d="M114.07,220.61c7.6-6,37.45-26.55,74.75-14.5,0,0,5-24.33,8-29.33"/><path class="cls-3" d="M94.19,179.55c-1.5-2.22-2.89-3.61-4-3.77-6.92-.94-15.67-13.67-13.33-19.67,1.2-3.09.54-11.13-.37-18.2a30.92,30.92,0,0,1-2-12.47s1.1,5.8,2,12.47c5.69,14.85,22.55,21.68,35.65,24.76l2.37.53"/><line class="cls-4" x1="94.19" y1="179.55" x2="112.1" y2="162.67"/><path class="cls-1" d="M92.47,177.73a23.66,23.66,0,0,0,5.8-2.82,37,37,0,0,0,4.87-3.81,32.26,32.26,0,0,0,4.14-4.58,21.29,21.29,0,0,0,3.1-5.67l3.43,3.64a21.19,21.19,0,0,0-5.85,2.76,32.28,32.28,0,0,0-4.81,3.86,37.62,37.62,0,0,0-4.09,4.63,23.64,23.64,0,0,0-3.16,5.63Z"/><path class="cls-5" d="M93.48,170.44s3,14.67,17,1.67"/><line class="cls-6" x1="186.48" y1="381.11" x2="208.28" y2="377.32"/><path class="cls-5" d="M208.48,147.78s7.31-23.64,8.33-28.34c0,0,3.4-31.83-35.13-62.33"/><polyline class="cls-7" points="216.81 119.44 229.95 142.49 226.15 147.78"/><path class="cls-5" d="M142.15,57.11c1.95,14.14,8,18.33,8,18.33"/><path class="cls-5" d="M161.48,161.11s12,16,15.67-3.33"/><path class="cls-5" d="M171.65,75.44s4-13,0-20.66-10.17-7.17-10.17-7.17-10,4.33-7.67,13.91,7.67,13.92,7.67,13.92"/><path class="cls-8" d="M189,353.61l41-3.5,18.2-10,7-9.5s2-18,2.5-19.5.5-40-24-75.5-47.17-14.72-47.17-14.72,0,23.89-40.33,25.06c0,0-6,11.66,12,36.16C158.15,282.11,156.76,349.61,189,353.61Z"/><path class="cls-9" d="M293.9,300.61s34.89,46.5,66.57,19.5l-5.82,11s39-2.5,42.5-30.5c0,0,5,4.5,4,18,0,0,13.76-11.5.13-38,0,0,44.18,33.5,6,71.5,0,0,7.21,5,15.53-4.5,0,0,4.15,26.28-50.68,12,0,0,2.83,7,5.92,10.5,0,0-3.92,2-24.92-12,0,0-33.79-8.82-38.83-18.32S293.9,300.61,293.9,300.61Z"/><path class="cls-10" d="M186.48,220.89c-24.35,16.55-36.83,21.22-40.33,25.06s0,12.84,0,12.84c13-12.31,31,28.32,31,28.32,37.5,48,72-21.49,72-21.49S224.31,195.18,186.48,220.89Z"/><path class="cls-11" d="M74.45,123.11s8.7,38.5-2.8,42.5c0,0-9.67-17.5-11.84-36,0,0-5.16,5.29-4.66,8.64,0,0-6.57-2.31,0-55l2-5.75s-2,14.58,7.76,15.08c0,0,3.15,14.5,12.69,14s21.65-.72,22.85-17.11-9.3-27.39-17.8-24.39c0,0-2-14.5-13-13,0,0,7.6-22,30.8-30v7.5s17.53-13.5,33.36-15l-1.1,8.5s12.44-6.87,17.44-4.93c0,0-15.17,27.76-9.59,36.6s-7.25,31.33,20.92,48.33c0,0,3.67,9-24.33,7a39,39,0,0,0,29.66,23.5s-27,18-45.33,0l7.33,31.5S74.76,165.61,74.45,123.11Z"/><path class="cls-12" d="M17.15,30.11S5.15,23.28,2.65,7,30.65,24.11,17.15,30.11Z"/><path class="cls-12" d="M30.15,47.6s14.42-14.49-9.54-29.49c0,0,2,12-3.46,12C17.15,30.11,20.15,46.6,30.15,47.6Z"/><path class="cls-12" d="M42.15,61.52s15-6.74,3.5-26.41c-8.82-15.08-12.87-5-12.87-5S38.15,40.6,30.15,47.6C30.15,47.6,35.15,64.44,42.15,61.52Z"/><path class="cls-12" d="M57.15,77.53S74.32,48.11,50,41.61c0,0,2.66,18.83-7.84,19.91C42.15,61.52,49.65,82.94,57.15,77.53Z"/><path class="cls-12" d="M64.91,92.61s17.61,4.76,17.74-27.5c0,0-.05-20.4-19.62-10.33,0,0-1.64,22.24-5.88,22.75C57.15,77.53,56.3,94.13,64.91,92.61Z"/><path class="cls-12" d="M74.45,106.19s10.31,3.16,16.56-1.67,21.14-36.41-8.36-39.41c0,0,2,30.5-17.74,27.5C64.91,92.61,67.76,106.77,74.45,106.19Z"/><path class="cls-3" d="M44.09,66.28c-.68-2.89-14.94-9.84-29.44-4.76s19.8,21.76,19.8,21.76-4.16,2.53,17.77,23.93c0,0,.67-19.69,4.93-29.68C57.15,77.53,47.54,80.94,44.09,66.28Z"/><path class="cls-5" d="M40.07,80.61S49.61,82,54.63,86.16"/><path class="cls-13" d="M292.3,157.78A64.06,64.06,0,0,0,324,177.48c20.13,5.13-26.06,7.38-31.72,0s8.1,21.6,31.72,37.37c0,0-21.37,2.26-30.12-3.74,0,0,5.75,26.69,3.75,34.84s12.4,23.66,12.4,23.66c1.06-.11-33.95,6.56-48.15-76.75Z"/><path class="cls-2" d="M93.48,96.86S90.9,84.36,82.65,80.61V72.42S105.56,82.61,93.48,96.86Z"/><path class="cls-2" d="M65.9,66.28V59.71s16.75,5.23,12,17.82C77.9,77.53,70.4,65,65.9,66.28Z"/><path class="cls-2" d="M59.81,65.11C61.64,46.9,52.22,47.6,52.22,47.6V52S59.52,68.08,59.81,65.11Z"/><path class="cls-2" d="M45.4,52c.89-15.84-9-17.87-9-17.87v7.5Z"/><path class="cls-2" d="M30.15,39.61s5.5-8.25-8-16.25v5S28.65,33.36,30.15,39.61Z"/><path class="cls-2" d="M8.9,16.3s7.75,5.56,8.25,9.06c0,0-2-12-10.5-14Z"/><path class="cls-1" d="M142.15,136.44s-7.09-1.51-11.67,4.05-16.67,18.62-16.67,18.62,13.34,40.33,21,34.33,19-21.48,19-21.48-.66-18.56-10-35.71"/><path class="cls-14" d="M138.15,165.15c-1.34-.71-4.71-11.14-4.34-19.37"/><path class="cls-2" d="M133.78,162.78l-4.3-10.34s-1,3.17-3,1.71c0,0-.79,7.17-4.75,3.46l-.92,5.79s2.63-3.62,5.5.21C126.27,163.61,125.71,154.48,133.78,162.78Z"/><path class="cls-10" d="M181.72,235.22s-28.67,22.34-59.33,5.67c0,0-9.58-7.56-9.63-17.61,0,0,35.79-29.56,76.63-16.06C189.39,207.22,191.22,215.22,181.72,235.22Z"/><ellipse class="cls-1" cx="164.3" cy="228.05" rx="5.58" ry="2.67"/><ellipse class="cls-1" cx="133.29" cy="233.72" rx="5.43" ry="3"/><path class="cls-3" d="M133.29,193.44S119.48,214.65,101,225.38"/><path class="cls-15" d="M182.48,54.78C231.06,100.19,218,119.44,218,119.44L230,142.49l33.67-24.66L247.15,95.11l16.47,4.5L226.15,71.78s-16.17-17.34-9.34-17a33.47,33.47,0,0,1,11.24,2.33s-20.94-22-30.67-21,12.56,0,12.56,0-25.21-18.87-37.5-13.67c0,0,11.87,27.53,10,32.37-4.26,11.24-1.33,18.33-1.33,20.66"/></svg>