<svg id="Comet_Styleguide_using_vue" data-name="Comet Styleguide using vue" xmlns="http://www.w3.org/2000/svg" viewBox="0 0 400 400"><defs><style>.cls-1{fill:#4dba87;}.cls-2{fill:#003a65;}.cls-3{fill:#435466;}</style></defs><title>Artboard 29</title><path id="path14" class="cls-1" d="M246.2,346.5l-46.2-80-46.2,80H0L199.9,0,400,346.5Z"/><polygon class="cls-2" points="360.5 243.1 319.95 243.1 340.22 207.96 360.5 243.1"/><polygon class="cls-2" points="199.8 120 176.78 159.98 156.5 124.8 127.91 124.8 199.9 0 271.93 124.8 243.2 124.8 222.89 159.95 199.8 120"/><polygon class="cls-2" points="79.91 243.2 39.3 243.2 59.6 208 79.91 243.2"/><polygon class="cls-3" points="311.95 235.1 283.2 235.1 262.89 199.95 283.2 164.8 311.93 164.8 332.22 199.96 311.95 235.1"/><polygon class="cls-3" points="340.22 191.96 319.93 156.8 360.5 156.8 340.22 191.96"/><polygon class="cls-3" points="127.91 275.2 156.5 275.2 176.78 239.98 199.8 279.9 222.89 239.95 243.2 275.1 271.95 275.1 199.9 400 127.91 275.2"/><polygon class="cls-3" points="116.5 235.2 87.91 235.2 67.6 200 87.91 164.8 116.5 164.8 136.78 199.98 116.5 235.2"/><polygon class="cls-3" points="59.6 192 39.3 156.8 79.91 156.8 59.6 192"/></svg>