<svg id="Layer_1" data-name="Layer 1" xmlns="http://www.w3.org/2000/svg" viewBox="0 0 556.33 571.83"><defs><style>.cls-1{fill:#594a42;}</style></defs><title>Artboard 18</title><path class="cls-1" d="M73.16,80.58c-41,41,17.6,166,130.82,279.19S442.2,531.56,483.17,490.58s-17.6-166-130.82-279.18S114.13,39.61,73.16,80.58Zm383,354.61c-32.74,32.74-132.63-14.06-223.1-104.52S95.81,140.3,128.55,107.57,261.17,121.63,351.64,212.1,488.91,402.45,456.18,435.19Z"/><path class="cls-1" d="M22.73,422.05c27.41,51.06,164,31,305.06-44.7S561,198.83,533.6,147.77s-164-31-305.06,44.71S-4.68,371,22.73,422.05Zm450-264.41c21.9,40.79-51.73,122.93-164.45,183.45S86.45,417.6,64.55,376.81,116.28,253.89,229,193.36,450.87,116.85,472.77,157.64Z"/><path class="cls-1" d="M226.59,571.21c57,10.31,126.33-109.06,154.82-266.63s5.35-293.65-51.68-304S203.41,109.7,174.92,267.25,169.57,560.9,226.59,571.21Zm73-516.83c45.56,8.24,64.05,117,41.29,242.88s-78.15,221.3-123.71,213.06-64-117-41.28-242.89S254.05,46.14,299.61,54.38Z"/><path class="cls-1" d="M554.48,373.68c17.54-55.23-92-139.29-244.56-187.76s-290.53-43-308.08,12.24,92,139.29,244.57,187.75S536.94,428.9,554.48,373.68ZM51.29,234.94c14-44.13,124.24-48.51,246.17-9.79s209.44,105.91,195.43,150S368.66,423.69,246.71,385,37.28,279.07,51.29,234.94Z"/></svg>