<svg id="Layer_1" data-name="Layer 1" xmlns="http://www.w3.org/2000/svg" viewBox="0 0 370.12 470.23"><defs><style>.cls-1{fill:#231f20;stroke:#231f20;stroke-miterlimit:10;stroke-width:0.25px;}</style></defs><title>Artboard 28</title><path class="cls-1" d="M347.85,234.08s17.83,39.8-10.3,69.1c0,0-11.89,8.46-7.28,29.92,4.46,20.77,0,137.13,0,137.13H318.34l2.15-6.7-4.31-102.88-13.06-19.52,6.05,20.11-24,109H273.62l3.53-6.73,15.9-94.06-36.61-43.65-118.11,9.07V470.23H123.41l2.44-10.48-3-126.43L46.34,371l14.24,32.22,11-1.17-4,11.14-11.72-1.18L32.31,368.1,80,323s-47.7-25.34,12.25-152l-83-22.06A6.34,6.34,0,0,1,8,137.09l38.47-20-.83-.2h0l-.82-.21c-11.18-2.94-21.9-9.84-30.46-19.79,1.67-2.32,3.2-4.7,4.67-7.12C29.94,103.18,46.11,111,60.79,109.64L82.68,98.25h0a45.82,45.82,0,0,0,7.13-9.92c-22.65,2.9-49.52-6.11-71.12-26.13A106.3,106.3,0,0,1,.16,39.66L6,33.83A92.79,92.79,0,0,0,24.6,57.64a96.21,96.21,0,0,0,10.92,8.75c0-.14,0-.29.07-.43a92,92,0,0,0-1.4-32.77h8.38a105.5,105.5,0,0,1,.64,32.52c-.23,1.68-.48,3.33-.79,5h0c17,9.56,35.38,12.66,50.81,8.84,3.35-11.91,2.55-26-3.16-39.43-6.59-15.48-18.28-26.8-31.23-32A24.17,24.17,0,0,0,59.66.19,63.83,63.83,0,0,1,84.94,19.12,68,68,0,0,0,113.17,4.21l3.08,6.93A78.85,78.85,0,0,1,89.91,25.9,75.67,75.67,0,0,1,96,37.47c9.07,21.34,7.51,44-2.36,59.92a63.11,63.11,0,0,1,37.74-6.62,66.66,66.66,0,0,1-10.74,8.55c-8.44,5.47-16.93,8.59-22.62,8.72l71.7,107.65s4.08,6.33,20.41,7.47l149.47.72,30.48-24.38S368.36,224.12,347.85,234.08Z"/></svg>