<svg id="Layer_1" data-name="Layer 1" xmlns="http://www.w3.org/2000/svg" viewBox="0 0 523.18 444.05"><defs><style>.cls-1,.cls-4{fill:#fff;}.cls-1{opacity:0.25;}.cls-2{fill:#231f20;}.cls-3{fill:#f57f20;}.cls-5{fill:#0c8140;}.cls-6{fill:#3953a4;}</style></defs><title>Artboard 22</title><g id="lOGO"><path class="cls-1" d="M299.54,187.13c21.33,5.89,23.54,8.55,25.92,10.1C319,193.33,308.7,189.79,299.54,187.13Z"/><path class="cls-1" d="M327.4,198.5c-.5-.35-1-.71-1.6-1.06a6.93,6.93,0,0,0,.86.44,1.76,1.76,0,0,1,.74.61Z"/><path class="cls-2" d="M260.37,1.55C233.89,7.7,142.28,20.71,153.55,125.71c0,0-2.27,4.45,29.39,24.11l-31.87-18.21s-.42,16.76,7.66,25c0,0,49,28.35,87.33,30,0,0,27.11,11.38,110.93,59.19,0,0,7.66,8.07,34.35-50.29,0,0,0,35-28.56,63.33,0,0-59.67-34.82-101-51.12-37.26-14.68-37.07,13.8-93.9-33.94C106.43,122.24,140,16.63,221,1.65,221,1.65,252.37-2,260.37,1.55Z"/><path class="cls-2" d="M391.34,185.42v-77l-3.66-3.67s7-41-44.76-84.49c0,0,43.46,43,38.9,82.57L334.66,88.26A50.82,50.82,0,0,1,321.46,82l-15-10s-23.59-21.94-30.63,6.2S298.21,160.58,391.34,185.42Z"/><path class="cls-3" d="M375.88,101s.56-32.72-36.69-65.63S264.11,8.06,264.11,8.06s-40.7,4.67-65.23,21.11-42.22,48.42-45.33,96.54l27,22.75-29.49-16.85s1.07,21.46,7.66,25,53.8,29.18,87.33,30L357,245.85s10.38.34,31.68-44.54c0,0-85.25-23.33-105.24-85.63S295,64.93,295,64.93L327.5,86.09Z"/><path class="cls-4" d="M159.83,157c-6.14-12.3-7.51-27.44-6.73-23.46.67,3.46,27.44,18.22,28.37,19.05,0,0,0,0,0,0-1.1-.27-22.09-5.53-23.3-10.85Z"/><path class="cls-4" d="M325.33,187.79a2.17,2.17,0,0,0-.91-.76,9.88,9.88,0,0,1-1.08-.54l-.41-.26c-2.95-1.92-5.69-5.23-32.11-12.52-11.61-3.37-21.73-5.62-23.74-6.05l-.17,0-.16,0h0s-10.22-49.36-87.11-88.13C292.16,121.15,324.82,186.77,325.33,187.79Z"/><path class="cls-4" d="M322.93,186.23c-8-4.83-20.76-9.22-32.11-12.52C317.24,181,320,184.31,322.93,186.23Z"/><path class="cls-4" d="M325.33,187.8c-.62-.44-1.28-.88-2-1.31a9.88,9.88,0,0,0,1.08.54,2.17,2.17,0,0,1,.91.76Z"/><path class="cls-5" d="M355.75,234.47l-80.88-48.53-8.15-18.36h0l.16,0,.17,0c9.54,2.28,17.34,4.29,23.74,6.05,11.35,3.3,24.12,7.69,32.11,12.52l.41.26c.71.43,1.37.87,2,1.31Z"/><circle class="cls-6" cx="292.82" cy="82.76" r="10.33"/><path d="M299.5,80.24H286.14a7.14,7.14,0,0,1,13.36,0Z"/><path d="M299.65,84.86a7.15,7.15,0,0,1-13.66,0Z"/><path class="cls-6" d="M300,82.76a7.31,7.31,0,0,1-.31,2.1H286a7.31,7.31,0,0,1-.31-2.1,7,7,0,0,1,.46-2.52H299.5A7,7,0,0,1,300,82.76Z"/><path class="cls-4" d="M375.23,108.08l4.31,1.85s-5,25.15-10.19,35"/><path class="cls-2" d="M73.31,279.93c-5.45.71-6.36,1.67-8.48,7.94-2.17,6.51-8,25.09-12.65,40H48.49c-3.93-11.34-8.55-23.86-12.78-35.28-4.14,12.11-8.2,23.95-11.93,35.28H20C16.69,316.28,12,301,7.75,287.5c-1.94-5.95-3-7.09-7.75-7.57v-2.59H21.62v2.59c-5.71.56-5.86,1.6-4.79,5.52,2.69,9.33,5.5,18.71,8.23,27.9,4-11.27,8-23.43,11.66-35.52h3.49c4.23,12.15,8.56,23.79,12.85,35.6,3-8.93,6.87-22,8.16-27.16,1.1-4.49.39-5.73-6.16-6.34v-2.59H73.31Z"/><path class="cls-2" d="M95.73,327.05v-2.59c4.87-.66,5.09-1.48,4-4.63-.84-2.54-2.17-6.11-3.48-9.79H80.79c-1,2.75-2.08,5.68-3,8.32-1.63,4.87-.06,5.48,6.06,6.1v2.59H65.44v-2.59c4.82-.61,6-1.25,8.67-7.83L90,276.87l3.24-.6c4.87,13.22,10.09,27.13,15,40.06,2.7,6.95,3.39,7.52,8.52,8.13v2.59Zm-7-38c-2.3,5.88-4.6,11.65-6.65,17.39H94.94Z"/><path class="cls-2" d="M172.81,279.93c-4.74.58-6.25,1.49-6.48,5-.17,2.8-.38,5.61-.38,12.43v30.51h-3.8L130,289v17.93c0,6.73.18,9.87.38,12.09.25,3.55,2,5.1,7.57,5.46v2.59H119.09v-2.59c4.49-.38,6.38-1.53,6.78-5.18a114.15,114.15,0,0,0,.43-12.4V288.27c0-2.39-.15-3.91-1.58-5.79s-3.16-2.22-6.55-2.55v-2.59h13.7l30.29,35.48v-15.5c0-6.82-.1-9.61-.33-12.25-.23-3.34-1.64-4.76-7.91-5.14v-2.59h18.89Z"/><path class="cls-2" d="M200.73,277.34c10.13,0,17.19,2.09,22,6.65,3.85,3.62,6.75,9,6.75,16.57,0,8.84-3.67,15.76-9.56,20.2-5.71,4.31-13,6.29-22,6.29H178v-2.59c6.08-.51,6.64-1.15,6.64-7.47V287.42c0-6.48-.87-7-6.64-7.49v-2.59Zm-6.83,39.09c0,5.53,1.75,7.29,7.38,7.29,11.53,0,17.87-8,17.87-22,0-7.64-2.28-14-6.68-17.41-3.32-2.87-7.46-3.86-12.58-3.86-3,0-4.53.56-5.1,1.07s-.89,1.75-.89,4.23Z"/><path class="cls-2" d="M277.64,314.34c-.41,2-2.53,10.51-3.24,12.71H235.59v-2.54c7-.64,7.5-1.13,7.5-7.5V287.45c0-6.61-.89-7-6.28-7.52v-2.59h24.35c7.73,0,10.51-.08,11.53-.16.08,1.57.43,7.65.74,12.15l-2.74.38a20.11,20.11,0,0,0-2.94-6.65c-1.33-1.88-2.59-2.37-6.73-2.37h-5.77c-2.72,0-3,.18-3,2.65v16.31h7.84c4.79,0,5.42-1.15,6.49-6.5h2.77v16.6h-2.77c-1.15-5.61-1.76-6.47-6.57-6.47h-7.76v13.87c0,5.31.68,6.51,5.11,6.59h6c4.42,0,5.43-.59,7.12-2.63a33.57,33.57,0,0,0,4.47-7.43Z"/><path class="cls-2" d="M329.56,327.56c-.65,0-1.54,0-2.48-.1-8.27-.44-11.15-2.29-13.82-6-3-4.1-5.38-8.82-7.93-13.17-1.28-2.2-2.33-2.66-5.28-2.66l-1.93-.05V317c0,6.3.79,6.79,6.66,7.45v2.59H282.42v-2.59c6-.64,6.63-1.15,6.63-7.45V287.29c0-6.2-.79-6.83-6.63-7.36v-2.59h21.24c6.38,0,10.23.74,13.28,2.8a11.57,11.57,0,0,1,5.15,10.14c0,6.73-4.4,10.51-9.67,12.66,1.23,2.32,4.32,7.34,6.62,10.83a63.61,63.61,0,0,0,5.89,7.93,10,10,0,0,0,5.08,3.42Zm-28.82-25c3.53,0,6.06-.56,7.82-2.06,2.68-2.17,3.81-5.13,3.81-9.11,0-8.14-4.93-11.07-9.78-11.07-2.12,0-3.22.31-3.71.77s-.76,1.35-.76,3V302.6Z"/><path class="cls-2" d="M361.69,289.61c-1.45-4.95-3.59-10.32-10.68-10.32-5,0-7.58,3.56-7.58,7.74,0,4.58,3,7.16,9.61,10.5,8.54,4.29,13.31,8.11,13.31,15.57,0,8.68-7.31,15.09-17.87,15.09A39.6,39.6,0,0,1,336,325.77c-.51-1.89-1.68-8.88-2.21-12.66l2.77-.67c1.53,4.93,5.49,12.68,13.14,12.68,5,0,8-3.23,8-8.15s-2.89-7.47-9.42-11c-8-4.31-12.94-8.08-12.94-15.74s6.06-14,17-14a53.42,53.42,0,0,1,10.64,1.4c.31,2.8.76,6.46,1.37,11.33Z"/><path class="cls-2" d="M398.67,327.05v-2.59c4.87-.66,5.08-1.48,4-4.63-.84-2.54-2.17-6.11-3.48-9.79H383.72c-1,2.75-2.07,5.68-2.94,8.32-1.63,4.87-.07,5.48,6.06,6.1v2.59H368.38v-2.59c4.81-.61,6-1.25,8.66-7.83l15.88-39.76,3.25-.6c4.87,13.22,10.09,27.13,15,40.06,2.7,6.95,3.38,7.52,8.52,8.13v2.59Zm-7.05-38c-2.3,5.88-4.6,11.65-6.65,17.39h12.91Z"/><path class="cls-2" d="M475.75,279.93c-4.74.58-6.25,1.49-6.48,5-.18,2.8-.38,5.61-.38,12.43v30.51h-3.8L432.9,289v17.93c0,6.73.18,9.87.39,12.09.25,3.55,2,5.1,7.57,5.46v2.59H422v-2.59c4.49-.38,6.37-1.53,6.78-5.18a114.15,114.15,0,0,0,.43-12.4V288.27c0-2.39-.15-3.91-1.58-5.79s-3.16-2.22-6.56-2.55v-2.59h13.71l30.29,35.48v-15.5c0-6.82-.1-9.61-.33-12.25-.23-3.34-1.64-4.76-7.91-5.14v-2.59h18.89Z"/><path class="cls-2" d="M522.14,314.34c-.4,2-2.52,10.51-3.23,12.71H480.1v-2.54c7-.64,7.5-1.13,7.5-7.5V287.45c0-6.61-.89-7-6.28-7.52v-2.59h24.34c7.74,0,10.52-.08,11.54-.16.08,1.57.43,7.65.74,12.15l-2.74.38a20.11,20.11,0,0,0-2.94-6.65c-1.33-1.88-2.59-2.37-6.73-2.37h-5.77c-2.72,0-3,.18-3,2.65v16.31h7.85c4.79,0,5.42-1.15,6.49-6.5h2.76v16.6h-2.76c-1.15-5.61-1.76-6.47-6.57-6.47h-7.77v13.87c0,5.31.69,6.51,5.11,6.59h6c4.42,0,5.43-.59,7.11-2.63a33.23,33.23,0,0,0,4.48-7.43Z"/><path class="cls-2" d="M228.4,375.36c-5.43.77-6.12,2.07-9.4,9.79-3,7-10.18,24.93-15.83,39.92h-1.84c-4.74-12.92-12.31-32.81-15.22-40.53-2.83-7.27-3.44-8.34-8.57-9.18v-1.15h22v1.15c-5.81,1-5.5,2.37-4.28,5.81,1.38,4.13,6.73,18.36,11.09,30,2.6-6.42,7.72-20.26,10.55-27.91,2.22-6,1.76-6.88-5.58-7.88v-1.15H228.4Z"/><path class="cls-2" d="M230.09,423.92V422.7c4-.69,4.28-1.07,4.28-7V379.26c0-4.74-.23-5.2-4.05-6.12v-1.07a61.16,61.16,0,0,0,13.07-2.6c-.07,1.23-.3,4-.3,10.48v35.79c0,5.89.15,6.2,4,7v1.22Z"/><path class="cls-2" d="M268.4,390.66c10,0,16.45,7.87,16.45,16.59,0,11.7-8.34,17.59-16.22,17.59-12.39,0-17.36-9-17.36-16.82A17.13,17.13,0,0,1,268.4,390.66Zm-1.07,1.76c-3.9,0-6,4.28-6,13.3,0,10.1,2.91,17.52,7.57,17.52,3,0,6-2.07,6-14.07C274.9,398.53,271.84,392.42,267.33,392.42Z"/><path class="cls-2" d="M299.76,414.06a4.55,4.55,0,0,0-1.3,3c0,1.3,1.22,3.14,4.67,3.14h8.18c5.73,0,11.09,2.67,11.09,9.17,0,8.34-9.41,15.53-19.5,15.53-9.18,0-13.39-5.2-13.39-9.41,0-1.6.69-2.67,2.22-3.9a54.21,54.21,0,0,1,6.27-4.05c-3.29-1.15-5.12-2.75-6.12-4.44a7.13,7.13,0,0,1-1-4c2.06-1.3,6-3.67,7.65-5.66Zm4.36.69c-7.42,0-13.16-4.67-13.16-11.47,0-8.19,7.42-12.62,13.85-12.62a16.13,16.13,0,0,1,7.57,1.91c1.83.31,7.42-.46,10.4-1.53l.23.23a15.82,15.82,0,0,1-2.75,4.59c-1.08,0-3.68-.08-4.9-.15a10.64,10.64,0,0,1,2.3,6.88C317.66,410.54,310.77,414.75,304.12,414.75Zm.46,12.77c-3.06,0-4.44.15-5.05.53a6.46,6.46,0,0,0-3.36,5.51c0,4.13,3.9,8.18,10.78,8.18,7.34,0,9.18-3.36,9.18-7.34a6.26,6.26,0,0,0-4.29-6C310.08,427.75,308.17,427.52,304.58,427.52Zm-.69-35.18c-2.68,0-4.36,3.52-4.36,9.41,0,6.73,1.76,11.39,5.28,11.39,2.67,0,4.36-3.21,4.36-9.86C309.17,397.23,307.41,392.34,303.89,392.34Z"/><path class="cls-2" d="M344.73,400c-1.53-4.36-3.9-7.73-8.11-7.73a4.22,4.22,0,0,0-4.28,4.59c0,3.29,2.29,4.74,5.43,6.5,5.43,3,9.41,5.36,9.41,10.79,0,7.34-6.89,10.7-12.62,10.7a26.18,26.18,0,0,1-8.57-1.6c-.15-1.53-.69-5.89-1.07-8.87l1-.23c1.68,5,5,9.1,9.71,9.1a4.18,4.18,0,0,0,4.36-4.52c0-2.37-.77-4.43-5.74-7.34-3.06-1.76-8.72-4.74-8.72-10.63s4.67-10,12-10.09c3.14,0,5.89.76,7.34.84a80.15,80.15,0,0,0,.92,8.26Z"/></g></svg>