<svg id="Layer_1" data-name="Layer 1" xmlns="http://www.w3.org/2000/svg" viewBox="0 0 1080 1080"><defs><style>.cls-1,.cls-11,.cls-9{fill:#14abbd;}.cls-2{fill:#fa0;}.cls-3{fill:#ff6000;}.cls-4{fill:#ff3800;}.cls-10,.cls-5{fill:#287682;}.cls-6{opacity:0.2;}.cls-7{opacity:0.4;}.cls-8{opacity:0.3;}.cls-9{font-size:171px;}.cls-10,.cls-9{font-family:Rockwell;}.cls-10{font-size:100px;}.cls-11{letter-spacing:-0.02em;}</style></defs><rect class="cls-1" x="112" y="38" width="71" height="71"/><rect class="cls-2" x="183" y="38" width="71" height="71"/><rect class="cls-3" x="254" y="38" width="71" height="71"/><rect class="cls-4" x="325" y="38" width="71" height="71"/><rect class="cls-5" x="41" y="38" width="71" height="71"/><g class="cls-6"><path class="cls-2" d="M619.41,730.15c32.92-53.78,36.35-157.43,37.35-209.62a58,58,0,0,1,12-34.15c9.85-12.85,18.69-32.15,25.25-51.35a71.53,71.53,0,0,0-32-85c-40.2-23.23-97.19-42.37-121.65,15.22-39.73,93.55-51.76,95.23,0,148.66,30.76,31.75,17,144.19,28.79,207C573.8,745.72,606.26,751.65,619.41,730.15Z"/></g><g class="cls-7"><path class="cls-4" d="M439,739.65c-40.9-49.95-50.22-163.82-51.29-219.38a58.87,58.87,0,0,0-12.19-34.44c-9.75-12.82-18.49-31.94-25-51a71.55,71.55,0,0,1,31.94-85.05c40.21-23.23,97.2-42.37,121.66,15.22,39.73,93.55,51.76,95.23,0,148.66-32.31,33.35-10.37,155.7-23.8,216.08C476.05,748.9,451.39,754.81,439,739.65Z"/></g><g class="cls-8"><path class="cls-5" d="M411.26,409.13c15.88,38.31,54.15,62.68,95.54,60.13,32.14-2,68-11.26,86.08-39.89,37.17-58.95,74.33-170.45,25.63-183.26s-164-65.36-217.86-15.38C365.15,263.7,387.07,350.75,411.26,409.13Z"/></g><g class="cls-7"><path class="cls-1" d="M348.53,381.85c19.38,41.8,66.12,68.38,116.67,65.61,39.25-2.16,83.08-12.29,105.13-43.53,45.39-64.33,90.77-186,31.3-200S401.3,132.64,335.57,187.18C292.21,223.15,319,318.14,348.53,381.85Z"/></g><g class="cls-8"><path class="cls-3" d="M546.33,441.4c46.72,25,135.14,10.17,158.83-28.26s85-165,52.94-197.8-197.45-61.47-235.7-39.72C457,212.79,423.72,375.84,546.33,441.4Z"/></g><text class="cls-9" transform="translate(313 891.91)">DENT</text><text class="cls-10" transform="translate(313.58 974.98)">ART<tspan class="cls-1" x="187.55" y="0">IST</tspan><tspan class="cls-11" x="329.25" y="0">R</tspan><tspan class="cls-1" x="387.65" y="0">Y</tspan></text></svg>