<svg id="Layer_1" data-name="Layer 1" xmlns="http://www.w3.org/2000/svg" viewBox="0 0 589.38 554.49"><defs><style>.cls-1{fill:none;}.cls-1,.cls-2,.cls-3{stroke:#231f20;stroke-miterlimit:10;}.cls-1,.cls-2{stroke-width:0.25px;}.cls-2,.cls-3{fill:#231f20;}.cls-3{stroke-width:0.75px;}</style></defs><title>Artboard 20</title><line class="cls-1" x1="204.6" y1="55.37" x2="204.6" y2="55.36"/><path class="cls-2" d="M212.15,125.22,327,172.94s8.38,11.53,4.18,17.83-13.62,7.34-13.62,7.34L203.23,149.87s-8.38-5.78-5.77-15.73S212.15,125.22,212.15,125.22Z"/><path class="cls-2" d="M204.6,55.37l49.11,30.21A36.76,36.76,0,0,1,204.6,55.37Z"/><path class="cls-2" d="M417.17,251.72c.93-28.85,30.94-26.35,30.94-26.35,2,2.13,21.65,28.79-1.57,52.68C446.54,278.05,416.24,281,417.17,251.72Z"/><path class="cls-2" d="M504.63,442.58,485.79,452,413.13,326l-56.79,145.7H105.8V452l99.94-1.58S204.6,331.82,64.18,350.56H19.34V327h26l29.49-29.5h88.47l54.51,23.82-14.59,52.13c-2.7,9.62.29,20.15,8.12,26.34,10.57,8.35,24.75,5.44,38.73-11a27.29,27.29,0,0,0,5.4-10.08l19.77-68.59s5-25-15-32.46l6.25-17.47h113.6l-27.18-51.3L336.3,201s14.34-5.26,3.14-16.5l19.35,7.87s12.76.52,15,11.89Z"/><path class="cls-2" d="M135.37,184c36.2-73.65,47-79.88,47-79.88S230,73.31,236.27,128.9L212.67,120s-18.35-3.15-22,14.16,14.16,21.5,14.16,21.5l23.07,10.48-35.66,81.67S241.77,269,256.72,282s9,29.1,9,29.1l-20,67.63c-4.05,10.6-17.53,20.44-28,11.39a18.47,18.47,0,0,1-5.47-18.73l14.27-53.84L151.59,282.6S99.16,257.64,135.37,184Z"/><line class="cls-1" x1="204.6" y1="55.37" x2="204.6" y2="55.36"/><path class="cls-2" d="M256.48,54.43l3.15-15.2,16-.53,15.72-.52C277.77,6.72,232.6-9,213.73,5.66S197,45,197,45l7.44,4.36,56.16,32.84L280.91,94.1l3.6-22.37-9.76-6Z"/><path class="cls-2" d="M263.53,53.39l12.66,8.39a36.92,36.92,0,0,0,1.58-10.67,36.39,36.39,0,0,0-1-8.48H265.64Z"/><path class="cls-3" d="M189,440.85c-9.39-42.39-48.77-75.67-94-75.67a94.66,94.66,0,0,0,0,189.31c42.33,0,79.74-32.5,91.85-70.83l-33.73.32A62.93,62.93,0,1,1,95,396.91c26.06,0,50,20.57,59.55,43.15Z"/><path class="cls-3" d="M433,386.75c-33.88,27.15-43.19,74-23.22,114.61a94.65,94.65,0,0,0,169.83-83.64c-18.7-38-64.38-58.75-104.12-52.68l18.34,31.69c24.6-1.57,45.74,11.51,57.32,35a62.92,62.92,0,1,1-112.9,55.6c-11.51-23.38-3.64-53.94,12.4-72.49Z"/></svg>