<svg id="Layer_1" data-name="Layer 1" xmlns="http://www.w3.org/2000/svg" xmlns:xlink="http://www.w3.org/1999/xlink" viewBox="0 0 545.21 545.28"><defs><style>.cls-1{fill:#726658;opacity:0.9;}.cls-2{fill:url(#radial-gradient);}.cls-3{fill:#fff;}.cls-4{fill:#67b4de;}.cls-17,.cls-4,.cls-5,.cls-6,.cls-7,.cls-8,.cls-9{stroke:#231f20;}.cls-17,.cls-18,.cls-4,.cls-5,.cls-6,.cls-7,.cls-8,.cls-9{stroke-miterlimit:10;}.cls-5{fill:#6d6e71;}.cls-6{fill:#414042;}.cls-19,.cls-7,.cls-9{fill:none;}.cls-8{fill:#808285;}.cls-9{stroke-width:2px;}.cls-10{fill:url(#linear-gradient);}.cls-11{fill:url(#linear-gradient-2);}.cls-12{fill:url(#linear-gradient-3);}.cls-13{fill:url(#linear-gradient-4);}.cls-14{fill:url(#linear-gradient-5);}.cls-15{fill:url(#linear-gradient-6);}.cls-16{fill:url(#linear-gradient-7);}.cls-17{fill:#3c2415;}.cls-18{fill:#754c29;stroke:#fff;}</style><radialGradient id="radial-gradient" cx="87.87" cy="71.66" r="366.62" gradientUnits="userSpaceOnUse"><stop offset="0" stop-color="#2484c6" stop-opacity="0"/><stop offset="1" stop-color="#2484c6"/></radialGradient><linearGradient id="linear-gradient" x1="191.07" y1="485.89" x2="191.07" y2="384.02" gradientUnits="userSpaceOnUse"><stop offset="0" stop-color="#be1e2d"/><stop offset="0.15" stop-color="#c0222c"/><stop offset="0.3" stop-color="#c42e29"/><stop offset="0.46" stop-color="#cc4225"/><stop offset="0.61" stop-color="#d75f1f"/><stop offset="0.77" stop-color="#e58316"/><stop offset="0.92" stop-color="#f5b00d"/><stop offset="1" stop-color="#ffc907"/></linearGradient><linearGradient id="linear-gradient-2" x1="197.42" y1="483.36" x2="197.42" y2="378.78" xlink:href="#linear-gradient"/><linearGradient id="linear-gradient-3" x1="203.83" y1="474.23" x2="203.83" y2="373.09" xlink:href="#linear-gradient"/><linearGradient id="linear-gradient-4" x1="216.87" y1="455.89" x2="216.87" y2="363.01" xlink:href="#linear-gradient"/><linearGradient id="linear-gradient-5" x1="244.81" y1="462.84" x2="244.81" y2="365.16" xlink:href="#linear-gradient"/><linearGradient id="linear-gradient-6" x1="256.42" y1="480.69" x2="256.42" y2="379.88" xlink:href="#linear-gradient"/><linearGradient id="linear-gradient-7" x1="264.94" y1="485.89" x2="264.94" y2="384.45" xlink:href="#linear-gradient"/></defs><title>Artboard 11</title><path class="cls-1" d="M519.27,77.38V467.9a51.58,51.58,0,0,1-51.43,51.43H77.32A51.57,51.57,0,0,1,25.94,467.9V293a1163,1163,0,0,0,115.65-25.74c21.84-6.06,45.27-13.24,69.65-21.67,26.26-9.17,53.59-19.81,81.09-32.09,20.14-9.11,40.34-19.06,60.2-30,9.84-5.38,19.63-11.09,29.31-17q14.76-9.09,29.08-18.9l74.8-118.37A51.66,51.66,0,0,1,519.27,77.38Z"/><path class="cls-2" d="M467.84,25.94a50.93,50.93,0,0,1,17.88,3.23l-74.8,118.37q-14.34,9.84-29.08,18.9c-9.68,5.88-19.47,11.59-29.31,17-19.86,11-40.06,20.93-60.2,30-27.5,12.28-54.83,22.92-81.09,32.09h-.05c-24.39,8.43-47.76,15.61-69.6,21.67A1163,1163,0,0,1,25.94,293V77.38A51.61,51.61,0,0,1,77.32,25.94Z"/><polygon class="cls-3" points="195.13 80.59 197.49 85.35 202.74 86.11 198.94 89.82 199.84 95.06 195.13 92.59 190.43 95.06 191.33 89.82 187.52 86.11 192.78 85.35 195.13 80.59"/><polygon class="cls-3" points="168.83 196.45 170.5 199.82 174.22 200.36 171.52 202.99 172.16 206.69 168.83 204.94 165.51 206.69 166.14 202.99 163.45 200.36 167.17 199.82 168.83 196.45"/><polygon class="cls-3" points="51.78 40.31 55.11 47.05 62.55 48.13 57.17 53.38 58.44 60.78 51.78 57.29 45.13 60.78 46.4 53.38 41.02 48.13 48.46 47.05 51.78 40.31"/><polygon class="cls-3" points="393.33 42.46 395.96 47.78 401.83 48.64 397.58 52.78 398.58 58.64 393.33 55.88 388.07 58.64 389.07 52.78 384.82 48.64 390.7 47.78 393.33 42.46"/><path class="cls-4" d="M328.08,301a1.38,1.38,0,0,1-.05.45,3.32,3.32,0,0,1-.11.68v.22c-.12.46-.17.74-.23,1v.17l-.06,0h65.69s-.39-1.81-1.24-5c-.11-.57-.28-1.19-.4-1.81-.28-1.08-.62-2.27-1-3.63-.28-1.18-.62-2.43-1-3.79s-.74-2.88-1.19-4.41c-.28-1.13-.62-2.32-1-3.51-.51-2-1.08-4.13-1.7-6.28-.51-1.75-1-3.62-1.53-5.49-.45-1.47-.9-3-1.35-4.52s-.8-2.83-1.25-4.3c-4.07-13.7-9.11-29.26-14.82-44.31q-.85-2.2-1.7-4.41c-2.66-6.68-5.38-13.24-8.26-19.41-.45-1-1-2-1.42-3-1-2.1-2-4.13-3.05-6.17a165.64,165.64,0,0,0-9-15.5c-1-1.47-2-2.83-3-4.19a61.78,61.78,0,0,0-8.71-9.45c-.85-.68-1.7-1.3-2.55-1.92-.56-.34-1.07-.68-1.64-1a136,136,0,0,0-13.86-2c-20.48-1.81-44.36,8.37-68.35,25.86l38.47,33.49c1.08-.06,2.1-.06,3.12-.06l5.32,4.81,10.75,9.68s.17,1,.51,2.66v.06c1.3,1.69,2.6,3.39,3.79,5.09.9,1.24,1.75,2.54,2.6,3.79a119.12,119.12,0,0,1,11.94,23c.28.68.51,1.3.73,2s.57,1.47.8,2.21c.33,1.07.67,2.09,1,3.11s.68,2.26,1,3.39c.22.85.45,1.76.62,2.61.05.17.11.34.17.56.17.8.34,1.59.51,2.44a87,87,0,0,1,1.92,18.89v.8A61.61,61.61,0,0,1,328.08,301Z"/><path class="cls-5" d="M245.41,175.18l38.5,33.53q1.56-.06,3.12-.06l16.06,14.46s.18,1,.48,2.7h0c37.31,32.49,78.58,68.43,85,74a45.14,45.14,0,0,0,4.79,3.69s-30.61-131.77-65.67-152.24q-6.82-1.31-13.91-1.94C293.27,147.55,269.41,157.74,245.41,175.18Z"/><path class="cls-6" d="M178.21,309.48a43.49,43.49,0,0,0,6.14,23.13c5,8.17,12.94,14.69,23.53,19.71a106.43,106.43,0,0,0,17.59,6.39L294.64,353c.33-5.55.84-12.36,1.63-19.37q0-.29.06-.6c1.63-14.93,9-94.16,7.3-106.8l-.06-.36h0c-.3-1.72-.48-2.7-.48-2.7L287,208.65q-1.56,0-3.12.06C230.05,210.55,194.7,260,182.73,290.9,179.74,298.59,178.21,305.13,178.21,309.48Z"/><path class="cls-6" d="M225.47,358.71c18.31,5,41.48,7.33,68.6,7.33,0,0,.06-3,.29-7.85.07-1.57.16-3.34.28-5.24Z"/><path class="cls-4" d="M114,323.73s4.56.89,12.78,2.19a337.55,337.55,0,0,1,16.85-33.06c1.06-1.84,2.14-3.67,3.24-5.51h0l35.87,3.55c12-30.86,47.32-80.35,101.18-82.19l-38.5-33.53L240.64,171C140.77,231.17,114,323.73,114,323.73Z"/><path class="cls-7" d="M114,323.73q5.83,2.53,11.63,4.87"/><path class="cls-4" d="M240.64,171l4.77,4.15c24-17.44,47.86-27.63,68.34-25.81q7.1.65,13.91,1.94c35.06,20.47,65.67,152.24,65.67,152.24,9.88,6.65,17.6,5.91,17.6,5.91l59.85-21.74c.24.51.49,1,.72,1.55q4,8.49,7.62,17.27c6.41-3.66,9.8-5.94,9.8-5.94l-7.55-16.73c-9.51-29.09-68.22-134.7-169.59-136.79C278.25,146.39,240.61,168.47,240.64,171Z"/><path class="cls-7" d="M490.7,336.59l-89.85,58.48S209.93,361.62,114,368"/><path class="cls-4" d="M111.35,385.86v.68l285.39,31.17,2,7.21L423,419l-3-12.46,77.42-49.87q-3.21-10.12-6.74-20.1h0c-3.6-10.2-7.46-20.24-11.58-30q-3.66-8.78-7.62-17.27c-.23-.52-.48-1-.72-1.55l-59.85,21.74s-7.72.74-17.6-5.91H327.66l-4.19,27.59-2,13.09-1,6.56-.84,5.59-.28,1.81S295.44,369.07,298,369.77s-1.7,3.16,23.53,5.13c11.23.88,16,1.94,17.89,2.86,0,.3,0,.58,0,.86.15,4.17.19,6.81.19,6.81C278.33,375.8,294.07,366,294.07,366c-27.12,0-50.29-2.29-68.6-7.33a106.43,106.43,0,0,1-17.59-6.39c-10.59-5-18.54-11.54-23.53-19.71a43.49,43.49,0,0,1-6.14-23.13c0-4.35,1.53-10.89,4.52-18.58l-35.87-3.55h0c-1.1,1.84-2.18,3.67-3.24,5.51a337.55,337.55,0,0,0-16.85,33.06c-.4.9-.78,1.79-1.15,2.68-6.11,14.35-10.5,28.08-12.67,40.52A96.06,96.06,0,0,0,111.35,385.86Z"/><path class="cls-4" d="M339.45,379.8s2.24-.9-.08-2"/><path class="cls-8" d="M296.33,333c1.51-13.22,4-27.11,8.07-34.84v0c.31-.43,6.61-9.21,24.23-4.41,0-.27,0-.55,0-.82A87.87,87.87,0,0,0,326.74,274c-.16-.8-.34-1.6-.54-2.43,0-.19-.08-.38-.13-.57-.2-.85-.42-1.71-.66-2.59q-.44-1.65-1-3.36c-.32-1-.65-2.08-1-3.13-.25-.74-.52-1.48-.79-2.23s-.47-1.3-.73-2a119.36,119.36,0,0,0-12-23c-.82-1.26-1.69-2.52-2.59-3.79-1.21-1.7-2.47-3.41-3.81-5.12l.06.36C305.36,238.82,298,318.05,296.33,333Z"/><path class="cls-8" d="M296.27,333.58q13.44-.91,27.2-2.44l4.19-27.59a.28.28,0,0,1,0-.06.15.15,0,0,0,0-.08v0a.44.44,0,0,1,0-.1c0-.2.1-.51.17-.94a2.4,2.4,0,0,1,0-.24c0-.21.07-.43.1-.67s.05-.3.07-.46a63,63,0,0,0,.54-7.27c-17.62-4.8-23.92,4-24.23,4.41v0c-4.07,7.73-6.56,21.62-8.07,34.84Q296.29,333.29,296.27,333.58Z"/><path class="cls-6" d="M339.59,385.43s0-2.64-.19-6.81c0-.28,0-.56,0-.86-1.86-.92-6.66-2-17.89-2.86-25.23-2-21-4.43-23.53-5.13s21.41-11.58,21.41-11.58l.28-1.81.84-5.59,1-6.56,2-13.09q-13.74,1.53-27.2,2.44c-.79,7-1.3,13.82-1.63,19.37-.12,1.9-.21,3.67-.28,5.24-.23,4.83-.29,7.85-.29,7.85S278.33,375.8,339.59,385.43Z"/><path class="cls-6" d="M114,368S265.53,372,400.85,395.07l89.85-58.48,6.75,20.1L420,406.56,423,419l-24.28,5.9-2-7.21L111.35,386.54S111,368.5,114,368Z"/><line class="cls-9" x1="488.92" y1="300.6" x2="515.49" y2="356.13"/><line class="cls-9" x1="113.98" y1="323.73" x2="91.64" y2="396.66"/><path class="cls-10" d="M191,405.28c.92-1.5,1.73-2.81,2.4-3.87l1.64-2.62c.42-.67.7-1.14.83-1.41s.13-.36,0-.28a3.48,3.48,0,0,0-.44.37l-.76.75c1.45-2,2.22-3.07,3.83-5.18.68-.74,1.28-1.43,1.81-2l1.42-1.64c.41-.48.74-.87,1-1.16a8,8,0,0,1,.57-.61c.36-.34.74-.71,1.12-1.11l1-1.12.79-.89.39-.45c.1-.1-.09.29-.56,1.16s-1.23,2.25-2.27,4.12c-.41.74-1.22,2.2-2.36,4.29s-2.41,4.46-3.77,7-2.7,5.22-4,7.91-2.49,5.1-3.5,7.28l-.42,0c.59-1.27,1.16-2.48,1.71-3.62S192.52,410,193,409c1.47-3,2.76-5.5,3.77-7.47s1.83-3.53,2.4-4.66.92-1.87,1-2.23.09-.48-.08-.4l-.34.17a2.9,2.9,0,0,0-.33.2l-.84.54-.15.09-.18.13-.21.17-.28.22a220.79,220.79,0,0,0-12.26,21.51c-5.74,11.59-10.1,24.8-8.42,38a4,4,0,0,0,1.13.12,2.59,2.59,0,0,0,.83-.19,1.55,1.55,0,0,0,.73-.71,6,6,0,0,0,.53-1.48c.16,1.66.38,3.09.6,4.31.17,1,.34,1.85.46,2.54s.21,1.24.25,1.66a3.92,3.92,0,0,1,0,1,.66.66,0,0,1-.26.47,1.15,1.15,0,0,1-1-.1,12.29,12.29,0,0,1-1.59-.91,34.65,34.65,0,0,0,5.93,10.56,40.25,40.25,0,0,0,8,7.37,49,49,0,0,0,7.41,4.25c2,.94,3.43,1.42,3.74,1.59l.35.17h0a56.91,56.91,0,0,1-10.62-5A40,40,0,0,1,179,465.32C174.33,456,175,445,177.1,436.18,179.62,425.86,184.87,415.19,191,405.28Z"/><path class="cls-11" d="M198.57,401.72c.77-1.6,1.45-3,2-4.17s1-2.12,1.34-2.83.53-1.22.62-1.5.07-.39-.07-.3a3,3,0,0,0-.41.41l-.68.83c1.17-2.23,1.78-3.37,3-5.68l1.58-2.24,1.24-1.78c.37-.53.66-.95.9-1.26a5.18,5.18,0,0,1,.56-.66c.36-.34.74-.73,1.12-1.15s.73-.82,1-1.18.57-.67.78-.95a4.71,4.71,0,0,1,.38-.46c.1-.11,0,.31-.33,1.23s-.89,2.39-1.67,4.37c-.32.79-.94,2.34-1.84,4.55s-1.93,4.71-3.07,7.43-2.33,5.48-3.54,8.29-2.32,5.31-3.32,7.57l-.45.11c.58-1.32,1.13-2.57,1.64-3.76s1-2.32,1.47-3.39c1.34-3.12,2.45-5.77,3.31-7.84s1.5-3.72,1.94-4.91a17.42,17.42,0,0,0,.77-2.34c.06-.37,0-.51-.19-.4s-.5.3-.7.44-.41.26-.6.4l-.23.15-.34.27a2.26,2.26,0,0,0-.47.43c-1.85,2.57-3.44,7.17-5.27,11.07s-3.66,7.88-5.45,11.88a156.22,156.22,0,0,0-7.16,18.57,65.57,65.57,0,0,0-2.72,17.71,3.07,3.07,0,0,0,1-.23,3.41,3.41,0,0,0,.79-.48,3.73,3.73,0,0,0,.81-1,11.69,11.69,0,0,0,.76-1.72c-.07,1.62-.09,3-.09,4.21,0,1,0,1.84,0,2.54s0,1.28-.09,1.76a5.55,5.55,0,0,1-.22,1.17,1.7,1.7,0,0,1-.35.66,1,1,0,0,1-.9.33,3.36,3.36,0,0,1-1.19-.44,38.61,38.61,0,0,0,1.48,6.29,33.9,33.9,0,0,0,6.42,11.5,37.8,37.8,0,0,0,3.49,3.58c1,.92,1.85,1.58,2.46,2.07s1,.79,1.19,1c-.23-.29-.43-.58-.61-.86a6.87,6.87,0,0,1-.43-.74,9.2,9.2,0,0,1-.39-.88c-.1-.27-.21-.57-.32-.89s-.15-.43-.25-.67a6.23,6.23,0,0,0-.43-.89,16.62,16.62,0,0,0-1-1.46c-.47-.66-1.16-1.55-2.1-3l.13-.41c1.36,2.06,2.25,3.09,2.72,3.8a2.72,2.72,0,0,1,.58,1.38c0,.31-.09.54-.1.78a1.54,1.54,0,0,0,.12.75,4,4,0,0,0,.34.64c.15.22.31.46.48.69l.52.74.56.8.6.8.64.84.06.06c.14-.16-.19-.48-1.33-1.32a45.42,45.42,0,0,1-5.4-4.4,34.2,34.2,0,0,1-7.27-10,39.8,39.8,0,0,1-3.68-18c.1-8.89,2.93-19.27,6.34-27.28C193.61,411.89,195.48,408.09,198.57,401.72Z"/><path class="cls-12" d="M207.11,396.8c.63-1.66,1.18-3.11,1.61-4.33s.77-2.21,1-3a10.73,10.73,0,0,0,.42-1.62c0-.31,0-.42-.15-.31a7.38,7.38,0,0,0-1.14,1.51c.86-2.25,1.29-3.4,2.16-5.75.54-1,1.11-2,1.69-3l1.64-3.05c.52-1,1-1.81,1.4-2.53a8.12,8.12,0,0,1,1-1.48c.35-.34.53-.06.57.83a32.46,32.46,0,0,1-.46,5c-.35,2.42-.92,5.65-1.8,9.45a120,120,0,0,1-4,13.46c-1.67,4.66-4.15,10-6.37,15.43s-3.84,9.8-5.17,13.53-2.36,6.74-3.26,9.3-1.63,4.61-2.32,6.28a32.21,32.21,0,0,0,1.4,10.13,12.83,12.83,0,0,0,2,4,2.91,2.91,0,0,0,1.41,1.13.89.89,0,0,0,.84-.18,2.08,2.08,0,0,0,.41-.54c.11-.21.21-.45.31-.69s.21-.51.33-.79.26-.56.41-.86.35-.65.53-1l.61-1a1.13,1.13,0,0,0-.07-.44c-.8,1-1.49,1.93-2,2.71a11.43,11.43,0,0,0-1.16,2,4.23,4.23,0,0,0-.25.79,3.86,3.86,0,0,0-.1.75c0,.25,0,.49,0,.73s0,.47,0,.7a1.43,1.43,0,0,1-.24.95c-.2.19-.57.21-1.24-.36a10.93,10.93,0,0,1-2.73-4.33c-1.06-2.6-2.28-6.66-2.12-13.87,0-.26,0-.39.07-.65a16.42,16.42,0,0,0,2.22-4.2c.77-1.92,1.6-4.32,2.64-7.39s2.3-6.77,4.06-11.45,4.74-11.43,6.39-15.58a128.42,128.42,0,0,0,6.09-19.45c1-4.57,1.16-6.81.44-6.24a2.87,2.87,0,0,0-.53.61c-.19.29-.42.65-.69,1.09-1.11,3.4-2.61,7.82-4.5,12.92s-4.09,10.61-6.5,16.21-7.3,18.31-8.92,26.16a57.63,57.63,0,0,0-1,19.39,33.45,33.45,0,0,0,3.42,10.92c1.18,2.29,2,3.27,1,3.44a19.22,19.22,0,0,0-.17,1.92c0,.06,0,.08,0,.14,1.33-.19-.23-1.65-1.88-4.71a35.38,35.38,0,0,1-4-14.54c-.47-6.74.26-16,4.15-27C198.24,417.68,203.12,407.24,207.11,396.8Z"/><path class="cls-13" d="M222.51,379.58c-.18,3.24-.44,6.65-.8,10.09s-.83,6.78-1.39,9.93-2.37,8.78-3.24,13a63.06,63.06,0,0,0-1.38,10.59,22.49,22.49,0,0,0,.59,6.6,5.25,5.25,0,0,0,1.8,3,2.54,2.54,0,0,0,2.31.29,6.73,6.73,0,0,0,2.27-1.37c-.43.13-.81-1.44-.71-4.29a73.39,73.39,0,0,1,1.66-11.82c1-4.82,2.44-10.35,4.09-15.93a46.71,46.71,0,0,0,2.13-11.59,79.23,79.23,0,0,0,.15-9c-.1-2.65-.29-5-.49-6.88-.16-1.6-.33-3-.46-4.14s-.24-2.09-.3-2.83a12.72,12.72,0,0,1-.09-1.64c0-.35.06-.67.14-.6a9.71,9.71,0,0,1,1.16,2.47c.06.26.1.39.16.65a90.38,90.38,0,0,1,1.61,10.26,68.06,68.06,0,0,1,.1,12c-.34,4.15-1.64,8.89-3.15,14.39s-2.54,10-3.23,13.57a71,71,0,0,0-1.15,8.17,19.49,19.49,0,0,0,0,3.8,2.54,2.54,0,0,0,.35,1.18c.13.17.29.14.43-.07a3.09,3.09,0,0,0,.36-1.13,12.68,12.68,0,0,0,.14-2.16l-2.5,2.35-.35.4c-.36.78-.82,1.76-1.37,2.83a24.76,24.76,0,0,1-1.92,3.15,9.51,9.51,0,0,1-2.31,2.37,2.71,2.71,0,0,1-2.42.48,3.72,3.72,0,0,1-2-2.37,17.41,17.41,0,0,1-.92-5.82,51.14,51.14,0,0,1,.81-9.28,103.46,103.46,0,0,1,2.84-12c1.27-4.29,2.09-7.19,2.6-9.76s.9-4.93,1.21-6.94c-1.86,8.1-5.34,16.22-8.28,24.91a121.93,121.93,0,0,0-5.2,20,54.92,54.92,0,0,0-.82,10.47,42.73,42.73,0,0,0,.33,4.35c.05.53,0,.76-.07.88a.59.59,0,0,1-.41.16,3.23,3.23,0,0,0-.57.12,2,2,0,0,0-.61.36,4.07,4.07,0,0,0-.61.71,12.13,12.13,0,0,0-.67,1.07l-.22.38-.16.28c-.06.11-.13.26-.23.44a1.81,1.81,0,0,1,0,.23,2.35,2.35,0,0,0,1.49-.64,3,3,0,0,0,.36-2c0-1-.14-2.42-.16-4.45a62.81,62.81,0,0,1,.48-8A96.58,96.58,0,0,1,206.19,429a161.12,161.12,0,0,1,4.9-15.53c2.07-5.64,4.08-10.42,5.21-14.06s2-7.05,2.67-10.1c.36-1.64.64-3.08.84-4.28s.32-2.18.39-2.94a7.52,7.52,0,0,0,0-1.59c-.05-.29-.17-.38-.35-.25a2.51,2.51,0,0,0-.47.56q-.28.42-.69,1.14c.42-2.21.62-3.34,1-5.67.41-1.06.76-2,1-2.87s.55-1.57.75-2.17.38-1.08.53-1.44a2,2,0,0,1,.36-.69c.11-.09.18,0,.24.37a12.58,12.58,0,0,1,.11,1.78c0,.83,0,2,0,3.35S222.62,377.65,222.51,379.58Z"/><path class="cls-14" d="M256.26,459.37l-.16-.26a2.64,2.64,0,0,1-2.62-.78,8.17,8.17,0,0,1-1.55-3.4,43,43,0,0,1-1-5.8c-.27-2.3-.49-5-.68-8-.25-4.26-.41-9.11-.49-14.24s.57-12.2-.19-16.81l-.06-.06c.42,4.77-.81,11.66-1.2,16.09s-.74,8.06-1,11-.49,5.3-.63,7.08-.2,3-.18,3.72.13.87.3.44a16.06,16.06,0,0,0,.61-3.09c-.82-1.19-1.25-1.8-2.16-3.06l-.31-.34c-4.46,3-8-4.6-8.16-18.36-.13-12.51,2.2-24.33-.26-36.82-.39-2-.8-3.83-1.18-5.35s-.77-2.83-1.11-3.9a23.44,23.44,0,0,0-.92-2.48,3.44,3.44,0,0,0-.75-1.17.48.48,0,0,0-.43-.15,1.27,1.27,0,0,0-.47.21c-.4-2.09-.63-3.16-1.16-5.39a15.19,15.19,0,0,0,.35-2.54c0-.61.12-.85.32-.66a6.22,6.22,0,0,1,.75,1.38c.35.78.83,1.95,1.4,3.48s1.28,3.46,2,5.72,1.55,4.95,2.33,7.92a118.05,118.05,0,0,1,2.92,14.75c.7,5.42-.39,14.12-.51,21.42a93.75,93.75,0,0,0,1.16,18.33c.89,4.62,2.29,7.4,4,8.06l.09.11c-.12.48-.24.57-.28,0a32.88,32.88,0,0,1,.17-3.92c.17-2.12.46-5.13.89-9.28s1-9.34,1.6-15.73A58.45,58.45,0,0,0,247,399a112.09,112.09,0,0,0-6.79-20.64c-.38-.88-.65-1.5-.77-1.85s-.16-.5-.09-.43a3.72,3.72,0,0,1,.41.64A172.07,172.07,0,0,1,246.89,394a115.56,115.56,0,0,1,4.8,18.15c1,5.84.3,14.5.46,20.6s.34,11.09.57,15.11a84.91,84.91,0,0,0,.88,9.17,9.63,9.63,0,0,0,1.45,4.24l0,.05c-.2,0-.24-.46-.09-1.68s.45-3.15.84-5.9.84-6.28,1.24-10.64.71-9.4.85-14.9a65.74,65.74,0,0,0-1.11-15.67,97.77,97.77,0,0,0-4.06-13.15q-1.33-3.5-3.07-7.33c-1.17-2.57-2.4-5.07-3.65-7.5s-2.5-4.7-3.7-6.81-2.23-3.85-3-5.16c-.39-.66-.58-1-1-1.66a2.28,2.28,0,0,1-.12-.3c0-.07,0-.09,0,0a19.7,19.7,0,0,1,1.13,1.65c.62,1,1.51,2.38,2.63,4.23s2.48,4.18,4,6.92,3.13,5.9,4.73,9.36c1.22,2.64,2.67,6,4.06,9.87a91.5,91.5,0,0,1,3.54,12.35,65.75,65.75,0,0,1,.8,14.65c-.14,5.13-.46,9.85-.87,14s-.9,7.73-1.35,10.6-.83,5-1,6.41-.25,2.11,0,2.22.65-.39,1.29-1.3C256.78,460.69,256.61,460.26,256.26,459.37Z"/><path class="cls-15" d="M256.45,403.28c-.82-2-1.61-3.88-2.33-5.44s-1.35-2.88-1.88-3.91-1-1.83-1.29-2.39a5.9,5.9,0,0,0-.72-1.05c-.1-.1-.17-.11-.2-.05a.92.92,0,0,0-.08.33c-1.44-3-2.23-4.5-4-7.65-.17-.57-.34-1.08-.49-1.51l-.39-1.12a1.6,1.6,0,0,1-.13-.58c0-.07.09,0,.23.11a10.21,10.21,0,0,0,1,.91c.25.21.45.37.61.48a1.09,1.09,0,0,0,.33.2.32.32,0,0,1,.15.09c.11.11.64.88,1.57,2.28s2.27,3.5,3.88,6.2c.65,1.08,1.89,3.17,3.51,6.13s3.29,6.26,4.88,9.79a111.6,111.6,0,0,1,4.19,10.64,85.48,85.48,0,0,1,2.57,9.38l-.54-.69c-.35-1.61-.75-3.17-1.16-4.65s-.86-2.91-1.32-4.28a109.43,109.43,0,0,0-4-10.2c-1.24-2.76-2.4-5.06-3.32-6.78s-1.63-3-2.1-3.74a11.93,11.93,0,0,0-1.06-1.52c-.31-.34-.59-.63-.83-.87s-.45-.46-.66-.66l-.23-.23-.33-.3A2.24,2.24,0,0,0,252,392c-.18.19,4.63,9.44,6.55,14.42a101,101,0,0,1,4.51,14.77c1.05,4.82,1.11,10.62,1.11,15.75a136.61,136.61,0,0,1-.67,13.86c.44.69.81,1.25,1.13,1.7a12.61,12.61,0,0,0,.88,1.12,1.92,1.92,0,0,0,.88.66,1,1,0,0,0,.83-.17c-.16,1.39-.36,2.55-.56,3.52a12.82,12.82,0,0,1-.51,1.89,3.9,3.9,0,0,1-.5,1c-.16.21-.31.3-.47.28a.75.75,0,0,1-.44-.34,7.4,7.4,0,0,1-.85-1.67c-.31-.77-.65-1.66-1.06-2.69-.22,1.49-.51,3.16-.87,4.9s-.75,3.39-1.16,4.9-.8,2.83-1.14,4-.61,2-.79,2.66a5.72,5.72,0,0,0-.24,1.44.84.84,0,0,0,.17.59c-.05.42-.1.81-.16,1.19s-.11.72-.17,1-.17.82-.27,1.18-.2.69-.32,1a2.22,2.22,0,0,1-.19.44c0,.09-.06.1,0,0s.21-.32.52-.74.82-1.08,1.6-2.21c0,.19,0,.28-.07.46-1.24,1.74-1.95,2.59-2.28,3.08s-.32.67-.21.71a.65.65,0,0,0,.5-.18,1.86,1.86,0,0,0,.46-.57,3,3,0,0,0,.25-.64c.07-.24.13-.52.2-.83s.13-.65.2-1,.15-.8.24-1.26.16-.87.26-1.39.22-1.09.37-1.7c0-.06,0-.09,0-.15-.51.06-.95,0-1.13-.5a6.59,6.59,0,0,1,.27-3c.36-1.64,1-4,1.62-7.52A121.42,121.42,0,0,0,262.24,448a182.49,182.49,0,0,0,.18-21.28C262,418.32,259.69,411.44,256.45,403.28Z"/><path class="cls-16" d="M264.62,409.06c1.09,2.27,2.37,5.11,3.63,8.38a88.15,88.15,0,0,1,3.54,11.33,62.49,62.49,0,0,1,1.47,14.15A63.5,63.5,0,0,1,271.47,458l1.27.64,1.22.64,1.22.67a9.06,9.06,0,0,0,1.3.7c.69-.27,1.73-6.25,2.06-9.9a50.49,50.49,0,0,0-.41-12.75,76.23,76.23,0,0,0-5-17,130.42,130.42,0,0,0-13.76-24.64c-1-1.39-1.79-2.58-2.48-3.55l-1.76-2.45-1-1.39c-.2-.28-.28-.39-.23-.34s.32.39.77,1,1.07,1.37,1.83,2.37c6.23,8.92,12.43,17.83,16.91,27.77,3.54,7.85,5.52,14.51,6.29,20.5a47.13,47.13,0,0,1-.42,15.66,37.35,37.35,0,0,1-4.54,11.75,38.67,38.67,0,0,1-7,8.6,45.3,45.3,0,0,1-7.93,5.81c-1.7,1-3,1.62-3.93,2.07s-1.6.73-2.06.92l-.91.39a1.25,1.25,0,0,0-.27.14s0,0,0,0l.38-.08-.86.27-.33.07h-.06l.07,0,.11,0a.55.55,0,0,0,.14-.09c.06,0,.12-.08.31-.18s.49-.25,1.11-.54,1.57-.73,3.06-1.54a38.53,38.53,0,0,0,4.94-3.06,44,44,0,0,0,3.7-2.93,39.5,39.5,0,0,0,3.44-3.41,38.46,38.46,0,0,0,3.05-3.87,36.22,36.22,0,0,0,2.62-4.38l-1.13-.7c-.36-.22-.73-.43-1.09-.62s-.74-.37-1.12-.54l-1.19-.51c-6.51,17.24-15.22,19.08-14.57,20.1.32-.24.48-.38.83-.68l.05-.06c-.69-.33,1.19-1.71,3.58-4.37a44.77,44.77,0,0,0,7.83-12.27c2.4-5.59,4-13.07,4.49-22,.6-11.16-2.78-22.27-6.79-32.36-.95-2.4-2.09-4.62-3-6.48s-1.79-3.43-2.49-4.68-1.27-2.2-1.67-2.84a8,8,0,0,0-.81-1.15c-.18-.18-.16,0,0,.62-1.6-2.88-2.47-4.36-4.34-7.41-1-1.87-1.87-3.31-2.41-4.24s-.78-1.33-.62-1.17.66.86,1.51,2.07,2,2.94,3.44,5.13,3,4.78,4.73,7.72S263,405.59,264.62,409.06Z"/><path class="cls-17" d="M210.63,486.73l-40.24,11.19a1.45,1.45,0,0,0-1,1.91l2.08,5.56a1.47,1.47,0,0,0,2,.83l38.16-16.77a1.44,1.44,0,0,0,.77-1.86h0A1.46,1.46,0,0,0,210.63,486.73Z"/><ellipse class="cls-18" cx="170.45" cy="502.59" rx="1.4" ry="4.53" transform="translate(-165.38 91.65) rotate(-20.52)"/><path class="cls-17" d="M245.72,486.72,286,497.92a1.46,1.46,0,0,1,1,1.9l-2.09,5.57a1.46,1.46,0,0,1-2,.82l-38.17-16.76a1.44,1.44,0,0,1-.76-1.87h0A1.46,1.46,0,0,1,245.72,486.72Z"/><ellipse class="cls-18" cx="285.9" cy="502.59" rx="4.53" ry="1.4" transform="translate(-285.02 594.15) rotate(-69.48)"/><path class="cls-17" d="M221.4,488.72l-18.08,19c-.37.39,0,.91.82,1.12l5.68,1.5a1.88,1.88,0,0,0,1.93-.38l12.41-20.54c.23-.39-.18-.85-.93-1h0A2.07,2.07,0,0,0,221.4,488.72Z"/><path class="cls-17" d="M234,489l15.37,16.91c.32.35-.07.86-.83,1.12l-5.32,1.78c-.75.26-1.55.15-1.75-.23l-10.05-18.7c-.19-.35.22-.81.92-1h0A1.74,1.74,0,0,1,234,489Z"/><ellipse class="cls-18" cx="246.31" cy="508.71" rx="4.61" ry="3.7" transform="translate(-95.09 58.27) rotate(-11.32)"/><ellipse class="cls-18" cx="207.11" cy="509.4" rx="4.61" ry="3.7" transform="translate(-95.99 50.58) rotate(-11.32)"/><path class="cls-19" d="M519.27,77.38V467.9a51.58,51.58,0,0,1-51.43,51.43H77.32A51.57,51.57,0,0,1,25.94,467.9V77.38A51.61,51.61,0,0,1,77.32,25.94H467.84a50.93,50.93,0,0,1,17.88,3.23A51.66,51.66,0,0,1,519.27,77.38Z"/></svg>