<svg id="Layer_1" data-name="Layer 1" xmlns="http://www.w3.org/2000/svg" viewBox="0 0 214.28 446.31"><defs><style>.cls-1{fill:#b28dc1;}.cls-2{fill:#7f52a1;}.cls-3{fill:#f0566d;}.cls-4{fill:#9f1c27;}.cls-5{fill:#a0d8d1;}.cls-6{fill:#55bf9c;}.cls-7{fill:#b3852d;}.cls-8{fill:#935e25;}.cls-9{fill:#a4d8f5;}.cls-10{fill:#5a87c5;}.cls-11{fill:#f5da2c;}.cls-12{fill:#005a27;}.cls-13{fill:#008a94;}.cls-14{fill:#f9a560;}.cls-15{fill:#f9bebf;}.cls-16{fill:#a94298;}.cls-17{fill:#f78d1e;}</style></defs><title>Artboard 2</title><path class="cls-1" d="M214.28,128.54a40.41,40.41,0,0,1-39.38,40.4h-.29a22.9,22.9,0,0,0,3.73-.43l.54-.11.54-.13c.36-.09.71-.19,1.06-.3A22.65,22.65,0,0,0,182,125.16l-.52-.19a16.84,16.84,0,1,1,14.42-30.33c1,.62,1.88,1.28,2.78,2A40.33,40.33,0,0,1,214.28,128.54Z"/><path class="cls-2" d="M196.48,146.31a22.65,22.65,0,0,1-16,21.66c-.35.11-.71.21-1.06.3l-.54.13-.54.11-.46.09-.46.08a23.66,23.66,0,0,1-2.81.26h-1.2a22.65,22.65,0,0,1-19-11.07,22.65,22.65,0,1,1-27.62-32.72,16.82,16.82,0,1,0,24.69,17.75c0-.19.07-.38.1-.57a21.77,21.77,0,0,1,.78-3.11l.06-.18a2.13,2.13,0,0,1,4,0,1.34,1.34,0,0,1,.07.18,24.18,24.18,0,0,1,.77,3.07h0c0,.22.07.43.11.65A16.82,16.82,0,1,0,182,125.18,22.64,22.64,0,0,1,196.48,146.31Z"/><path class="cls-3" d="M214.28,221a40.41,40.41,0,0,1-39.38,40.4h-.29a22.9,22.9,0,0,0,3.73-.43l.54-.11.54-.13c.36-.09.71-.19,1.06-.3A22.65,22.65,0,0,0,182,217.61l-.52-.19a16.84,16.84,0,1,1,14.42-30.33c1,.62,1.88,1.28,2.78,2A40.33,40.33,0,0,1,214.28,221Z"/><path class="cls-4" d="M196.48,238.76a22.65,22.65,0,0,1-16,21.66c-.35.11-.71.21-1.06.3l-.54.13-.54.11-.46.09-.46.08a23.66,23.66,0,0,1-2.81.26h-1.2a22.65,22.65,0,0,1-19-11.07,22.65,22.65,0,1,1-27.62-32.72,16.82,16.82,0,1,0,24.69,17.75c0-.19.07-.38.1-.57a21.77,21.77,0,0,1,.78-3.11l.06-.18a2.13,2.13,0,0,1,4,0,1.34,1.34,0,0,1,.07.18,24.18,24.18,0,0,1,.77,3.07h0c0,.22.07.44.11.66A16.82,16.82,0,1,0,182,217.62,22.67,22.67,0,0,1,196.48,238.76Z"/><path class="cls-5" d="M214.28,313.44a40.4,40.4,0,0,1-39.38,40.39h-.29a22.9,22.9,0,0,0,3.73-.43l.54-.11.54-.13c.36-.09.71-.19,1.06-.3A22.65,22.65,0,0,0,182,310.06l-.52-.19a16.84,16.84,0,1,1,14.42-30.33c1,.62,1.88,1.28,2.78,2A40.33,40.33,0,0,1,214.28,313.44Z"/><path class="cls-6" d="M196.48,331.21a22.65,22.65,0,0,1-16,21.66c-.35.11-.71.2-1.06.3l-.54.13-.54.11-.46.09-.46.07a21.74,21.74,0,0,1-2.81.27h.29l-.48,0h-1a22.68,22.68,0,0,1-19-11.07,22.1,22.1,0,0,1-3.14,4.12,22.65,22.65,0,1,1-24.48-36.84,16.82,16.82,0,1,0,24.69,17.75c0-.19.07-.38.1-.57a21.44,21.44,0,0,1,.78-3.11l.06-.18a2.13,2.13,0,0,1,4,0,1.34,1.34,0,0,1,.07.18,23.76,23.76,0,0,1,.77,3.07h0c0,.22.07.44.11.66A16.82,16.82,0,1,0,182,310.07,22.67,22.67,0,0,1,196.48,331.21Z"/><path class="cls-7" d="M214.28,405.89a40.4,40.4,0,0,1-39.38,40.39h-.29a22.9,22.9,0,0,0,3.73-.43l.54-.12.54-.13c.36-.08.71-.18,1.06-.29A22.65,22.65,0,0,0,182,402.51l-.52-.19A16.84,16.84,0,1,1,195.87,372c1,.62,1.88,1.28,2.78,2A40.33,40.33,0,0,1,214.28,405.89Z"/><path class="cls-8" d="M196.48,423.66a22.65,22.65,0,0,1-16,21.66c-.35.11-.71.2-1.06.29l-.54.13-.54.12-.46.09-.46.07a21.74,21.74,0,0,1-2.81.27h.29l-.48,0h-1a22.68,22.68,0,0,1-19-11.07,22.1,22.1,0,0,1-3.14,4.12,22.65,22.65,0,1,1-24.48-36.84,16.82,16.82,0,1,0,24.69,17.75c0-.19.07-.38.1-.57a21.44,21.44,0,0,1,.78-3.11l.06-.18a2.13,2.13,0,0,1,4,0,1.34,1.34,0,0,1,.07.18,23.76,23.76,0,0,1,.77,3.07h0c0,.22.07.44.11.66A16.82,16.82,0,1,0,182,402.52,22.66,22.66,0,0,1,196.48,423.66Z"/><path class="cls-9" d="M214.28,36.09a40.41,40.41,0,0,1-39.38,40.4h-.29a21.85,21.85,0,0,0,3.73-.43l.54-.11.54-.13c.36-.09.71-.19,1.06-.3A22.65,22.65,0,0,0,182,32.71l-.52-.19A16.84,16.84,0,1,1,195.87,2.19c1,.63,1.88,1.28,2.78,2A40.33,40.33,0,0,1,214.28,36.09Z"/><path class="cls-10" d="M196.48,53.86a22.65,22.65,0,0,1-16,21.66c-.35.11-.71.21-1.06.3l-.54.13-.54.11c-.15,0-.3.06-.46.09l-.46.08a23.66,23.66,0,0,1-2.81.26h-1.2a22.65,22.65,0,0,1-19-11.07,22.65,22.65,0,1,1-27.62-32.72,16.82,16.82,0,1,0,24.69,17.75c0-.19.07-.38.1-.57a21.77,21.77,0,0,1,.78-3.11l.06-.18a2.13,2.13,0,0,1,4,0,1.34,1.34,0,0,1,.07.18,24.18,24.18,0,0,1,.77,3.07h0c0,.22.07.43.11.65A16.82,16.82,0,1,0,182,32.73,22.64,22.64,0,0,1,196.48,53.86Z"/><path class="cls-11" d="M102,128.54a40.41,40.41,0,0,1-39.38,40.4h-.3a22.89,22.89,0,0,0,3.74-.43l.54-.11.53-.13c.36-.09.72-.19,1.07-.3a22.65,22.65,0,0,0,1.48-42.81l-.51-.19A16.84,16.84,0,1,1,83.63,94.64c1,.62,1.88,1.28,2.78,2A40.33,40.33,0,0,1,102,128.54Z"/><path class="cls-2" d="M84.24,146.31a22.66,22.66,0,0,1-16,21.66c-.35.11-.71.21-1.07.3l-.53.13-.54.11-.46.09-.46.08a23.63,23.63,0,0,1-2.82.26H61.17a22.64,22.64,0,0,1-19.05-11.07A22.65,22.65,0,1,1,14.5,125.17a16.82,16.82,0,1,0,24.69,17.75,5.62,5.62,0,0,0,.09-.57,21.79,21.79,0,0,1,.79-3.11c0-.06,0-.12,0-.18a2.16,2.16,0,0,1,2-1.38,2.13,2.13,0,0,1,2,1.37l.06.18A22.62,22.62,0,0,1,45,142.3h0c0,.22.06.43.11.65a16.82,16.82,0,1,0,24.69-17.78A22.64,22.64,0,0,1,84.24,146.31Z"/><path class="cls-12" d="M102,221a40.41,40.41,0,0,1-39.38,40.4h-.3A22.89,22.89,0,0,0,66.1,261l.54-.11.53-.13c.36-.09.72-.19,1.07-.3a22.65,22.65,0,0,0,1.48-42.81l-.51-.19a16.84,16.84,0,1,1,14.42-30.33c1,.62,1.88,1.28,2.78,2A40.33,40.33,0,0,1,102,221Z"/><path class="cls-4" d="M84.24,238.76a22.66,22.66,0,0,1-16,21.66c-.35.11-.71.21-1.07.3l-.53.13-.54.11-.46.09-.46.08a23.63,23.63,0,0,1-2.82.26H61.17a22.64,22.64,0,0,1-19.05-11.07A22.65,22.65,0,1,1,14.5,217.62a16.82,16.82,0,1,0,24.69,17.75,5.62,5.62,0,0,0,.09-.57,21.79,21.79,0,0,1,.79-3.11c0-.06,0-.12,0-.18a2.13,2.13,0,0,1,4,0l.06.18a22.62,22.62,0,0,1,.78,3.07h0c0,.22.06.44.11.66a16.82,16.82,0,1,0,24.69-17.79A22.67,22.67,0,0,1,84.24,238.76Z"/><path class="cls-13" d="M102,313.44a40.4,40.4,0,0,1-39.38,40.39h-.3a22.89,22.89,0,0,0,3.74-.43l.54-.11.53-.13c.36-.09.72-.19,1.07-.3a22.65,22.65,0,0,0,1.48-42.81l-.51-.19a16.84,16.84,0,1,1,14.42-30.33c1,.62,1.88,1.28,2.78,2A40.33,40.33,0,0,1,102,313.44Z"/><path class="cls-14" d="M84.24,331.21a22.66,22.66,0,0,1-16,21.66c-.35.11-.71.2-1.07.3l-.53.13-.54.11-.46.09-.46.07a21.72,21.72,0,0,1-2.82.27h.3l-.48,0h-1a22.66,22.66,0,0,1-19.05-11.07A22.16,22.16,0,0,1,39,346.91,22.65,22.65,0,1,1,14.5,310.07a16.82,16.82,0,1,0,24.69,17.75,5.62,5.62,0,0,0,.09-.57,21.46,21.46,0,0,1,.79-3.11c0-.06,0-.12,0-.18a2.13,2.13,0,0,1,4,0l.06.18A22.26,22.26,0,0,1,45,327.2h0c0,.22.06.44.11.66a16.82,16.82,0,1,0,24.69-17.79A22.67,22.67,0,0,1,84.24,331.21Z"/><path class="cls-15" d="M102,405.89a40.4,40.4,0,0,1-39.38,40.39h-.3a22.89,22.89,0,0,0,3.74-.43l.54-.12.53-.13c.36-.08.72-.18,1.07-.29a22.65,22.65,0,0,0,1.48-42.81l-.51-.19A16.84,16.84,0,1,1,83.63,372c1,.62,1.88,1.28,2.78,2A40.33,40.33,0,0,1,102,405.89Z"/><path class="cls-16" d="M84.24,423.66a22.66,22.66,0,0,1-16,21.66c-.35.11-.71.2-1.07.29l-.53.13-.54.12-.46.09-.46.07a21.72,21.72,0,0,1-2.82.27h.3l-.48,0h-1a22.66,22.66,0,0,1-19.05-11.07A22.16,22.16,0,0,1,39,439.36,22.65,22.65,0,1,1,14.5,402.52a16.82,16.82,0,1,0,24.69,17.75,5.62,5.62,0,0,0,.09-.57,21.46,21.46,0,0,1,.79-3.11c0-.06,0-.12,0-.18a2.13,2.13,0,0,1,4,0l.06.18a22.26,22.26,0,0,1,.78,3.07h0c0,.22.06.44.11.66a16.82,16.82,0,1,0,24.69-17.79A22.66,22.66,0,0,1,84.24,423.66Z"/><path class="cls-17" d="M102,36.09a40.41,40.41,0,0,1-39.38,40.4h-.3a21.85,21.85,0,0,0,3.74-.43l.54-.11.53-.13c.36-.09.72-.19,1.07-.3a22.65,22.65,0,0,0,1.48-42.81l-.51-.19A16.84,16.84,0,1,1,83.63,2.19c1,.63,1.88,1.28,2.78,2A40.33,40.33,0,0,1,102,36.09Z"/><path class="cls-10" d="M84.24,53.86a22.66,22.66,0,0,1-16,21.66c-.35.11-.71.21-1.07.3l-.53.13-.54.11-.46.09-.46.08a23.63,23.63,0,0,1-2.82.26H61.17A22.64,22.64,0,0,1,42.12,65.44,22.65,22.65,0,1,1,14.5,32.72,16.82,16.82,0,1,0,39.19,50.47a5.62,5.62,0,0,0,.09-.57,21.79,21.79,0,0,1,.79-3.11c0-.06,0-.12,0-.18a2.15,2.15,0,0,1,2-1.37,2.13,2.13,0,0,1,2,1.36l.06.18A22.62,22.62,0,0,1,45,49.85h0c0,.22.06.43.11.65A16.82,16.82,0,1,0,69.75,32.73,22.64,22.64,0,0,1,84.24,53.86Z"/></svg>