<svg id="Layer_1" data-name="Layer 1" xmlns="http://www.w3.org/2000/svg" viewBox="0 0 443 638.03"><defs><style>.cls-1{fill:none;stroke-width:2px;}.cls-1,.cls-2{stroke:#231f20;stroke-miterlimit:10;}.cls-2,.cls-3{fill:#e6e7e8;}.cls-2{stroke-width:0.5px;}.cls-4{fill:#336667;}.cls-5{fill:#d1d3d4;}.cls-6{fill:#58595b;}.cls-7{fill:#6d6e71;}</style></defs><title>Artboard 7</title><polygon class="cls-1" points="396 422.42 396 429.09 390.17 422.42 396 422.42"/><polygon class="cls-2" points="119.67 125.42 119.67 210.09 83.67 210.09 80.17 145.44 119.67 125.42"/><polygon class="cls-2" points="257.67 205.42 228.83 206.84 224.33 125.42 256.25 141.6 257.67 205.42"/><path class="cls-3" d="M238.33,368.09v16h3.34v58H408v-74Zm157.67,61-5.83-6.67H396Z"/><polygon class="cls-1" points="396 422.42 396 429.09 390.17 422.42 396 422.42"/><path class="cls-4" d="M397,356.09a8,8,0,0,0,8,8,8.09,8.09,0,0,0,3-.58v4.58H262.33a8,8,0,1,0-8-8,8,8,0,0,0,8,8h-24v16H35l4.08-26.53L71,150.09l9.17-4.65,3.5,64.65h36V375.76l57-3.9,65-4.44V342.76h-5.34l-7.5-135.92,28.84-1.42-1.42-63.82-31.92-16.18,40,17.34,60.67,200h83v5.91a8.09,8.09,0,0,0-3-.58A8,8,0,0,0,397,356.09Z"/><path class="cls-4" d="M408,474.76V442.09H241.67v18.67H142.55q1.15,6.67,3.12,13.83c15,54.5,31.46,88.7,54.66,105.13v-93h41.34v8H408v-4a8,8,0,0,1,0-16Zm-139.83,16a8,8,0,1,1,8-8A8,8,0,0,1,268.17,490.76Z"/><path class="cls-5" d="M35,384.09v76.67H241.67V384.09Zm116.25,49.17c-1.79,0-3.25-2.24-3.25-5s1.46-5,3.25-5,3.25,2.24,3.25,5S153,433.26,151.25,433.26Z"/><ellipse class="cls-1" cx="151.25" cy="428.26" rx="3.25" ry="5"/><path class="cls-4" d="M128,474.59c0,47.63-9.46,92.41-32.33,112.86v-97H35V460.76h92.43Q128,467.57,128,474.59Z"/><path class="cls-6" d="M270.33,360.09a8,8,0,1,1-8-8A8,8,0,0,1,270.33,360.09Z"/><path class="cls-7" d="M408,348.67v14.84a8.09,8.09,0,0,1-3,.58,8,8,0,0,1,0-16A8.09,8.09,0,0,1,408,348.67Z"/><path class="cls-7" d="M408,474.76v16a8,8,0,0,1,0-16Z"/><circle class="cls-6" cx="268.17" cy="482.76" r="8"/><line class="cls-1" x1="394.33" y1="391.42" x2="394.33" y2="418.76"/><line class="cls-1" x1="331.66" y1="391.42" x2="331.66" y2="418.76"/><line class="cls-1" x1="270.33" y1="391.42" x2="270.33" y2="418.76"/><line class="cls-1" x1="209.66" y1="384.09" x2="209.66" y2="418.76"/><line class="cls-1" x1="149.66" y1="384.09" x2="149.66" y2="415.42"/><line class="cls-1" x1="400" y1="391.42" x2="400" y2="401.42"/><line class="cls-1" x1="387.83" y1="391.42" x2="387.83" y2="401.42"/><line class="cls-1" x1="381.5" y1="391.42" x2="381.5" y2="401.42"/><line class="cls-1" x1="374.83" y1="391.42" x2="374.83" y2="401.42"/><line class="cls-1" x1="369.5" y1="391.42" x2="369.5" y2="401.42"/><line class="cls-1" x1="357.16" y1="391.42" x2="357.16" y2="401.42"/><line class="cls-1" x1="350.83" y1="391.42" x2="350.83" y2="401.42"/><line class="cls-1" x1="344.16" y1="391.42" x2="344.16" y2="401.42"/><line class="cls-1" x1="338.83" y1="391.42" x2="338.83" y2="401.42"/><line class="cls-1" x1="363" y1="391.42" x2="363" y2="407.92"/><line class="cls-1" x1="326.16" y1="392.26" x2="326.16" y2="402.26"/><line class="cls-1" x1="319.83" y1="392.26" x2="319.83" y2="402.26"/><line class="cls-1" x1="313.16" y1="392.26" x2="313.16" y2="402.26"/><line class="cls-1" x1="307.83" y1="392.26" x2="307.83" y2="402.26"/><line class="cls-1" x1="295.5" y1="392.26" x2="295.5" y2="402.26"/><line class="cls-1" x1="289.16" y1="392.26" x2="289.16" y2="402.26"/><line class="cls-1" x1="282.5" y1="392.26" x2="282.5" y2="402.26"/><line class="cls-1" x1="277.16" y1="392.26" x2="277.16" y2="402.26"/><line class="cls-1" x1="264.33" y1="392.26" x2="264.33" y2="402.26"/><line class="cls-1" x1="258" y1="392.26" x2="258" y2="402.26"/><line class="cls-1" x1="251.33" y1="392.26" x2="251.33" y2="402.26"/><line class="cls-1" x1="246" y1="392.26" x2="246" y2="402.26"/><line class="cls-1" x1="234.33" y1="384.09" x2="234.33" y2="404.42"/><line class="cls-1" x1="228" y1="384.09" x2="228" y2="404.42"/><line class="cls-1" x1="221.33" y1="384.09" x2="221.33" y2="404.42"/><line class="cls-1" x1="216" y1="384.09" x2="216" y2="404.42"/><line class="cls-1" x1="203.83" y1="384.09" x2="203.83" y2="404.42"/><line class="cls-1" x1="197.5" y1="384.09" x2="197.5" y2="404.42"/><line class="cls-1" x1="190.83" y1="384.09" x2="190.83" y2="404.42"/><line class="cls-1" x1="185.5" y1="384.09" x2="185.5" y2="404.42"/><line class="cls-1" x1="179.66" y1="384.09" x2="179.66" y2="410.92"/><line class="cls-1" x1="173.83" y1="384.09" x2="173.83" y2="404.42"/><line class="cls-1" x1="167.5" y1="384.09" x2="167.5" y2="404.42"/><line class="cls-1" x1="160.83" y1="384.09" x2="160.83" y2="404.42"/><line class="cls-1" x1="155.5" y1="384.09" x2="155.5" y2="404.42"/><line class="cls-1" x1="301.33" y1="392.26" x2="301.33" y2="408.76"/><ellipse class="cls-1" cx="151.25" cy="428.26" rx="3.25" ry="5"/><polyline class="cls-1" points="212 420.92 212 432.42 208.33 429.59"/><path class="cls-1" d="M275.5,420.92h-7.34l7.34,6.67s-2,7.33-6.5.67"/><path class="cls-1" d="M329.5,423.26s.16-3.17,4.33-2.34,2.33,5.14,0,5.07,6.5,1.7.33,5.07c0,0-3.33,1.53-4.66-3.64"/><polyline class="cls-1" points="400 422.42 396 422.42 396 419.76"/><rect class="cls-4" x="35" y="21.41" width="43.41" height="43.41"/><rect class="cls-3" x="79.17" y="21.41" width="43.41" height="43.41"/><rect class="cls-5" x="123.34" y="21.41" width="43.41" height="43.41"/><rect class="cls-6" x="166.75" y="21.41" width="43.41" height="43.41"/></svg>