<svg id="Layer_1" data-name="Layer 1" xmlns="http://www.w3.org/2000/svg" viewBox="0 0 419.88 533.44"><defs><style>.cls-1{fill:#231f20;stroke:#231f20;stroke-miterlimit:10;stroke-width:0.25px;}</style></defs><title>Artboard 28</title><path class="cls-1" d="M372.72,265.69s17.84,39.79-10.29,69.1c0,0-11.9,8.45-7.28,29.92,4.45,20.77,0,137.13,0,137.13H343.21l2.16-6.71-4.31-102.87L328,372.73l6.05,20.11-24,109H298.5L302,495.1l15.9-94.05L281.31,357.4l-118.1,9.07V501.84H148.28l2.44-10.48-3-126.43L71.21,402.64l14.25,32.23,11-1.18-4,11.14-11.72-1.17-23.58-44,47.7-45.15s-47.7-25.33,12.24-152l-83-22.06a6.34,6.34,0,0,1-1.3-11.76l38.47-20-.83-.19h0l-.82-.22c-11.18-2.93-21.9-9.83-30.46-19.78,1.67-2.32,3.21-4.71,4.67-7.12,10.92,13.4,27.1,21.23,41.77,19.86l21.9-11.39h0a45.57,45.57,0,0,0,7.13-9.92C92,122.82,65.17,113.81,43.57,93.8A106.7,106.7,0,0,1,25,71.26l5.84-5.83A92.62,92.62,0,0,0,49.48,89.25,95.24,95.24,0,0,0,60.4,98l.06-.43a91.8,91.8,0,0,0-1.4-32.77h8.39a105.81,105.81,0,0,1,.64,32.52c-.23,1.69-.49,3.34-.79,5v0c17,9.56,35.38,12.65,50.81,8.84,3.35-11.92,2.55-26-3.16-39.43-6.59-15.49-18.28-26.81-31.23-32a24.23,24.23,0,0,0,.82-8,63.73,63.73,0,0,1,25.27,18.93c9.79-2.3,19.52-7.44,28.23-14.91l3.08,6.94a78.83,78.83,0,0,1-26.34,14.76,76.6,76.6,0,0,1,6.14,11.57c9.07,21.33,7.5,44-2.36,59.91a63.25,63.25,0,0,1,37.74-6.62,66.55,66.55,0,0,1-10.74,8.55c-8.45,5.48-16.93,8.59-22.62,8.72l71.7,107.65s4.07,6.33,20.41,7.47l149.47.73L395,231.11S393.23,255.72,372.72,265.69Z"/></svg>