<svg id="Layer_1" data-name="Layer 1" xmlns="http://www.w3.org/2000/svg" viewBox="0 0 500 500"><defs><style>.cls-1{fill:#8ba653;}.cls-2{fill:#9ec17d;}.cls-3{fill:#04890b;}.cls-4{font-size:70.03px;font-family:PalatinoLinotype-Bold, Palatino Linotype;font-weight:700;}.cls-5{font-size:29.65px;font-family:PalatinoLinotype-Roman, Palatino Linotype;letter-spacing:0.02em;}</style></defs><title>Artboard5</title><polygon class="cls-1" points="297.66 370.07 225.32 272.02 181.51 368.99 223.93 132.19 224.62 129.93 297.66 370.07"/><polygon class="cls-1" points="181.24 369.38 180.82 370.3 139.32 271.8 64.98 369.85 138.02 129.7 138.71 131.96 181.24 369.38"/><polygon class="cls-2" points="223.93 131.29 181.51 368.09 181.24 368.71 138.71 131.29 181.32 271.41 223.93 131.29"/><polygon class="cls-3" points="181.24 369.61 181.51 368.99 181.32 370.07 181.24 369.61"/><text class="cls-4" transform="translate(310.52 260.83)">MV</text><text class="cls-5" transform="translate(310.32 290.6)">EVENTS</text><rect class="cls-2" x="56" y="12" width="45" height="45"/><rect x="101" y="12" width="45" height="45"/><rect class="cls-1" x="11" y="12" width="45" height="45"/></svg>