<svg id="Layer_1" data-name="Layer 1" xmlns="http://www.w3.org/2000/svg" xmlns:xlink="http://www.w3.org/1999/xlink" viewBox="0 0 493.33 493.39"><defs><style>.cls-1{fill:#726658;opacity:0.9;}.cls-2{fill:url(#radial-gradient);}.cls-3{fill:#fff;}.cls-4{fill:#67b4de;}.cls-17,.cls-4,.cls-5,.cls-6,.cls-7,.cls-8,.cls-9{stroke:#231f20;}.cls-17,.cls-18,.cls-4,.cls-5,.cls-6,.cls-7,.cls-8,.cls-9{stroke-miterlimit:10;}.cls-5{fill:#6d6e71;}.cls-6{fill:#414042;}.cls-19,.cls-7,.cls-9{fill:none;}.cls-8{fill:#808285;}.cls-9{stroke-width:2px;}.cls-10{fill:url(#linear-gradient);}.cls-11{fill:url(#linear-gradient-2);}.cls-12{fill:url(#linear-gradient-3);}.cls-13{fill:url(#linear-gradient-4);}.cls-14{fill:url(#linear-gradient-5);}.cls-15{fill:url(#linear-gradient-6);}.cls-16{fill:url(#linear-gradient-7);}.cls-17{fill:#3c2415;}.cls-18{fill:#754c29;stroke:#fff;}</style><radialGradient id="radial-gradient" cx="61.93" cy="45.72" r="366.62" gradientUnits="userSpaceOnUse"><stop offset="0" stop-color="#2484c6" stop-opacity="0"/><stop offset="1" stop-color="#2484c6"/></radialGradient><linearGradient id="linear-gradient" x1="165.13" y1="459.94" x2="165.13" y2="358.07" gradientUnits="userSpaceOnUse"><stop offset="0" stop-color="#be1e2d"/><stop offset="0.15" stop-color="#c0222c"/><stop offset="0.3" stop-color="#c42e29"/><stop offset="0.46" stop-color="#cc4225"/><stop offset="0.61" stop-color="#d75f1f"/><stop offset="0.77" stop-color="#e58316"/><stop offset="0.92" stop-color="#f5b00d"/><stop offset="1" stop-color="#ffc907"/></linearGradient><linearGradient id="linear-gradient-2" x1="171.48" y1="457.41" x2="171.48" y2="352.84" xlink:href="#linear-gradient"/><linearGradient id="linear-gradient-3" x1="177.89" y1="448.28" x2="177.89" y2="347.15" xlink:href="#linear-gradient"/><linearGradient id="linear-gradient-4" x1="190.93" y1="429.95" x2="190.93" y2="337.06" xlink:href="#linear-gradient"/><linearGradient id="linear-gradient-5" x1="218.87" y1="436.9" x2="218.87" y2="339.22" xlink:href="#linear-gradient"/><linearGradient id="linear-gradient-6" x1="230.48" y1="454.75" x2="230.48" y2="353.93" xlink:href="#linear-gradient"/><linearGradient id="linear-gradient-7" x1="239" y1="459.95" x2="239" y2="358.5" xlink:href="#linear-gradient"/></defs><title>Artboard 11</title><path class="cls-1" d="M493.33,51.43V442a51.58,51.58,0,0,1-51.43,51.43H51.38A51.57,51.57,0,0,1,0,442V267a1160.78,1160.78,0,0,0,115.65-25.75c21.84-6,45.27-13.24,69.65-21.67,26.26-9.16,53.59-19.8,81.09-32.08,20.14-9.11,40.34-19.07,60.2-30,9.84-5.38,19.63-11.09,29.31-17q14.76-9.08,29.08-18.9L459.78,3.23A51.63,51.63,0,0,1,493.33,51.43Z"/><path class="cls-2" d="M441.9,0a50.71,50.71,0,0,1,17.88,3.23L385,121.59q-14.34,9.85-29.08,18.9c-9.68,5.89-19.47,11.6-29.31,17-19.86,11-40.06,20.93-60.2,30-27.5,12.28-54.83,22.92-81.09,32.08h-.05c-24.39,8.43-47.76,15.62-69.6,21.67A1160.78,1160.78,0,0,1,0,267V51.43A51.59,51.59,0,0,1,51.38,0Z"/><polygon class="cls-3" points="169.19 54.64 171.54 59.41 176.8 60.17 173 63.88 173.9 69.12 169.19 66.64 164.49 69.12 165.39 63.88 161.58 60.17 166.84 59.41 169.19 54.64"/><polygon class="cls-3" points="142.89 170.51 144.56 173.88 148.27 174.42 145.58 177.04 146.22 180.75 142.89 179 139.57 180.75 140.2 177.04 137.51 174.42 141.23 173.88 142.89 170.51"/><polygon class="cls-3" points="25.84 14.37 29.17 21.11 36.61 22.19 31.23 27.43 32.5 34.84 25.84 31.34 19.19 34.84 20.46 27.43 15.08 22.19 22.52 21.11 25.84 14.37"/><polygon class="cls-3" points="367.39 16.51 370.01 21.84 375.89 22.69 371.64 26.84 372.64 32.7 367.39 29.93 362.13 32.7 363.13 26.84 358.88 22.69 364.76 21.84 367.39 16.51"/><path class="cls-4" d="M302.14,275a1.35,1.35,0,0,1-.05.45,2.62,2.62,0,0,1-.12.68v.23c-.11.45-.16.74-.22,1v.17l-.06.06h65.69s-.39-1.81-1.24-5c-.11-.56-.28-1.19-.4-1.81-.28-1.07-.62-2.26-1-3.62-.28-1.19-.62-2.43-1-3.79s-.74-2.89-1.19-4.41c-.28-1.14-.62-2.32-1-3.51-.51-2-1.08-4.13-1.7-6.28-.51-1.76-1-3.62-1.53-5.49-.45-1.47-.9-3-1.35-4.53s-.8-2.83-1.25-4.3c-4.07-13.69-9.11-29.25-14.82-44.3q-.86-2.2-1.7-4.41c-2.66-6.68-5.38-13.24-8.26-19.41-.45-1-1-2-1.42-3.06-1-2.09-2-4.13-3.05-6.16a167.17,167.17,0,0,0-9-15.51c-1-1.47-2-2.83-3-4.18a61.78,61.78,0,0,0-8.71-9.45c-.85-.68-1.7-1.3-2.55-1.93-.56-.34-1.07-.68-1.64-1-4.52-.9-9.16-1.52-13.86-2-20.48-1.81-44.36,8.38-68.35,25.86,7.07,6.17,21.44,18.67,38.47,33.5,1.08-.06,2.1-.06,3.12-.06l5.32,4.81,10.75,9.68s.17,1,.51,2.66v.05c1.3,1.7,2.6,3.4,3.79,5.09.9,1.25,1.75,2.55,2.6,3.8a119.68,119.68,0,0,1,11.94,23c.28.68.51,1.3.73,2s.57,1.47.79,2.2c.34,1.08.68,2.1,1,3.12s.68,2.26,1,3.39c.22.85.45,1.76.62,2.6.05.17.11.34.17.57.17.79.34,1.58.51,2.43a87.17,87.17,0,0,1,1.92,18.9v.79A61.61,61.61,0,0,1,302.14,275Z"/><path class="cls-5" d="M219.47,149.23,258,182.76q1.56-.06,3.12-.06l16.06,14.47s.18,1,.48,2.7h0c37.31,32.49,78.58,68.43,85,74a45.14,45.14,0,0,0,4.79,3.69s-30.61-131.77-65.67-152.24a136.94,136.94,0,0,0-13.91-1.94C267.33,121.61,243.47,131.8,219.47,149.23Z"/><path class="cls-6" d="M152.27,283.53a43.51,43.51,0,0,0,6.14,23.14c5,8.17,12.94,14.68,23.53,19.7a106.42,106.42,0,0,0,17.59,6.4L268.7,327c.33-5.54.84-12.35,1.62-19.37,0-.18,0-.38.07-.6,1.63-14.92,9-94.15,7.3-106.79,0-.13,0-.26-.06-.36h0c-.3-1.73-.48-2.7-.48-2.7L261.09,182.7q-1.56,0-3.12.06C204.1,184.6,168.76,234.09,156.79,265,153.8,272.65,152.27,279.18,152.27,283.53Z"/><path class="cls-6" d="M199.53,332.77c18.31,5,41.48,7.33,68.6,7.33,0,0,.06-3,.29-7.85.07-1.58.16-3.34.28-5.25Z"/><path class="cls-4" d="M88,297.78s4.56.9,12.78,2.2a336.56,336.56,0,0,1,16.85-33.07c1.06-1.84,2.14-3.67,3.24-5.51h0L156.79,265c12-30.86,47.31-80.35,101.18-82.19l-38.5-33.53-4.77-4.14C114.83,205.23,88,297.78,88,297.78Z"/><path class="cls-7" d="M88,297.78q5.83,2.55,11.63,4.88"/><path class="cls-4" d="M214.7,145.09l4.77,4.14c24-17.43,47.86-27.62,68.34-25.8a136.94,136.94,0,0,1,13.91,1.94c35.06,20.47,65.67,152.24,65.67,152.24,9.88,6.64,17.6,5.9,17.6,5.9l59.84-21.73c.25.51.5,1,.73,1.55q4,8.49,7.62,17.26c6.41-3.65,9.8-5.93,9.8-5.93l-7.55-16.73c-9.51-29.09-68.22-134.71-169.59-136.79C252.31,120.45,214.67,142.52,214.7,145.09Z"/><path class="cls-7" d="M464.76,310.65,374.9,369.13S184,335.67,88,342.07"/><path class="cls-4" d="M85.41,359.92v.68L370.8,391.77l2,7.21,24.28-5.91-3-12.45,77.42-49.87q-3.21-10.12-6.74-20.1h0c-3.6-10.2-7.46-20.25-11.58-30.06q-3.66-8.76-7.62-17.26c-.23-.52-.48-1-.73-1.55L385,283.51s-7.72.74-17.6-5.9H301.72l-4.19,27.58-2,13.09-1,6.57-.84,5.59-.28,1.81S269.5,343.13,272,343.83s-1.7,3.16,23.53,5.13c11.23.87,16,1.94,17.89,2.86,0,.3,0,.58,0,.86.15,4.17.18,6.81.18,6.81-61.25-9.64-45.51-19.39-45.51-19.39-27.12,0-50.29-2.29-68.6-7.33a106.42,106.42,0,0,1-17.59-6.4c-10.59-5-18.54-11.53-23.53-19.7a43.51,43.51,0,0,1-6.14-23.14c0-4.35,1.53-10.88,4.52-18.58l-35.87-3.55h0c-1.1,1.84-2.18,3.67-3.24,5.51A336.56,336.56,0,0,0,100.82,300c-.4.89-.78,1.79-1.15,2.68C93.56,317,89.17,330.74,87,343.18A96,96,0,0,0,85.41,359.92Z"/><path class="cls-4" d="M313.51,353.86s2.24-.91-.08-2"/><path class="cls-8" d="M270.39,307c1.51-13.21,4-27.11,8.07-34.83v0c.31-.44,6.61-9.21,24.23-4.41,0-.28,0-.55,0-.83A87.78,87.78,0,0,0,300.8,248c-.17-.8-.34-1.61-.54-2.43,0-.19-.08-.39-.13-.57-.2-.85-.42-1.72-.66-2.59-.29-1.1-.61-2.23-1-3.37s-.65-2.07-1-3.13c-.25-.73-.52-1.47-.79-2.22s-.47-1.3-.73-1.95a120,120,0,0,0-12-23c-.82-1.26-1.69-2.52-2.59-3.79-1.21-1.69-2.47-3.4-3.81-5.11,0,.1,0,.23.06.36C279.42,212.88,272,292.11,270.39,307Z"/><path class="cls-8" d="M270.32,307.63q13.46-.92,27.21-2.44l4.19-27.58a.28.28,0,0,1,0-.06.2.2,0,0,0,0-.09v0a.44.44,0,0,1,0-.1c0-.19.09-.51.17-.93,0-.08,0-.16,0-.25s.07-.42.1-.67.05-.29.07-.46a62.61,62.61,0,0,0,.54-7.26c-17.62-4.8-23.92,4-24.23,4.41v0c-4.07,7.72-6.56,21.62-8.07,34.83C270.36,307.25,270.34,307.45,270.32,307.63Z"/><path class="cls-6" d="M313.64,359.49s0-2.64-.18-6.81c0-.28,0-.56,0-.86-1.86-.92-6.66-2-17.89-2.86-25.23-2-21-4.43-23.53-5.13s21.41-11.58,21.41-11.58l.28-1.81.84-5.59,1-6.57,2-13.09q-13.74,1.55-27.21,2.44c-.78,7-1.29,13.83-1.62,19.37-.12,1.91-.21,3.67-.28,5.25-.23,4.83-.29,7.85-.29,7.85S252.39,349.85,313.64,359.49Z"/><path class="cls-6" d="M88,342.07S239.59,346,374.9,369.13l89.86-58.48,6.75,20.1-77.42,49.87,3,12.45L372.77,399l-2-7.21L85.41,360.6S85.09,342.56,88,342.07Z"/><line class="cls-9" x1="462.98" y1="274.66" x2="489.55" y2="330.19"/><line class="cls-9" x1="88.04" y1="297.78" x2="65.7" y2="370.71"/><path class="cls-10" d="M165.08,379.34c.92-1.5,1.73-2.82,2.4-3.88s1.22-1.93,1.64-2.61.7-1.15.83-1.41.13-.36,0-.28a3.48,3.48,0,0,0-.44.37l-.76.74c1.45-2,2.22-3.06,3.83-5.17.68-.75,1.28-1.43,1.81-2l1.42-1.63c.41-.49.74-.88,1-1.17a7.91,7.91,0,0,1,.57-.61c.36-.33.74-.7,1.12-1.11s.73-.77,1-1.11.57-.64.79-.9.35-.4.39-.44-.09.29-.56,1.15-1.23,2.26-2.27,4.12c-.41.75-1.22,2.2-2.36,4.3s-2.41,4.46-3.77,7-2.7,5.23-4,7.92-2.49,5.1-3.5,7.28l-.42,0c.59-1.27,1.16-2.48,1.71-3.62s1.07-2.22,1.58-3.25c1.47-3,2.76-5.51,3.77-7.47s1.83-3.54,2.4-4.66.92-1.88,1-2.23.09-.48-.08-.4l-.34.17a2.49,2.49,0,0,0-.34.2l-.83.53-.15.1-.18.13-.21.17-.28.22a220.79,220.79,0,0,0-12.26,21.51c-5.74,11.58-10.1,24.79-8.42,38a4,4,0,0,0,1.13.11,2.6,2.6,0,0,0,.83-.18,1.63,1.63,0,0,0,.73-.72,6.46,6.46,0,0,0,.53-1.48c.16,1.67.38,3.09.59,4.32.18,1,.35,1.85.47,2.54s.21,1.23.24,1.66a3.49,3.49,0,0,1,0,1,.62.62,0,0,1-.26.47,1.14,1.14,0,0,1-1-.09,11.4,11.4,0,0,1-1.59-.92,34.53,34.53,0,0,0,5.93,10.56,40.32,40.32,0,0,0,8,7.38,48.32,48.32,0,0,0,7.41,4.24c2,.94,3.43,1.43,3.74,1.6l.35.17h0A55.76,55.76,0,0,1,167.7,455a40,40,0,0,1-14.62-15.61c-4.69-9.28-4.06-20.37-1.92-29.14C153.68,399.91,158.93,389.25,165.08,379.34Z"/><path class="cls-11" d="M172.63,375.78c.77-1.6,1.45-3,2-4.17s1-2.12,1.34-2.83.53-1.22.62-1.51.07-.38-.07-.29a3,3,0,0,0-.41.41c-.19.22-.41.49-.68.83,1.17-2.23,1.78-3.37,3-5.69.59-.82,1.11-1.57,1.58-2.23s.88-1.26,1.24-1.79.66-.94.9-1.25a5.44,5.44,0,0,1,.55-.66c.37-.35.75-.73,1.13-1.16s.73-.81,1-1.17.57-.68.78-.95a4.71,4.71,0,0,1,.38-.46c.1-.11,0,.3-.33,1.22s-.89,2.4-1.67,4.38L182.25,363c-.9,2.22-1.93,4.71-3.07,7.42s-2.33,5.49-3.54,8.29-2.32,5.32-3.32,7.58l-.45.11c.58-1.32,1.12-2.58,1.64-3.76s1-2.32,1.47-3.4c1.34-3.11,2.45-5.76,3.31-7.83s1.5-3.72,1.94-4.91a16.29,16.29,0,0,0,.76-2.34c.07-.37,0-.51-.18-.4l-.7.43-.6.4-.23.16-.34.26a2.34,2.34,0,0,0-.47.44c-1.85,2.56-3.44,7.16-5.27,11.06s-3.66,7.89-5.45,11.89A155.55,155.55,0,0,0,160.59,407a65.52,65.52,0,0,0-2.72,17.71,3.07,3.07,0,0,0,1-.23,4.27,4.27,0,0,0,.79-.48,3.64,3.64,0,0,0,.81-1,11.23,11.23,0,0,0,.76-1.72c-.07,1.63-.09,3-.09,4.22,0,1,0,1.84,0,2.54s0,1.28-.09,1.76a5.44,5.44,0,0,1-.22,1.16,1.68,1.68,0,0,1-.35.67,1,1,0,0,1-.9.33,3.72,3.72,0,0,1-1.19-.44,37.28,37.28,0,0,0,1.48,6.28,33.82,33.82,0,0,0,6.42,11.51,36.4,36.4,0,0,0,3.49,3.57c1,.93,1.85,1.58,2.46,2.08s1,.79,1.19,1a8.5,8.5,0,0,1-.61-.85,8,8,0,0,1-.43-.75c-.16-.31-.28-.6-.39-.87s-.21-.57-.32-.89-.15-.44-.25-.68A5.72,5.72,0,0,0,171,451c-.21-.36-.51-.81-1-1.47s-1.16-1.55-2.1-3c0-.16.08-.24.13-.41,1.36,2.07,2.25,3.1,2.71,3.8a2.66,2.66,0,0,1,.59,1.39c0,.31-.09.54-.1.78a1.56,1.56,0,0,0,.12.75,4,4,0,0,0,.34.64l.48.69c.16.24.34.48.52.73l.56.8.6.81.64.84.06.05c.14-.16-.19-.48-1.33-1.31a46.48,46.48,0,0,1-5.4-4.4,34.39,34.39,0,0,1-7.28-10,40,40,0,0,1-3.67-18c.1-8.89,2.93-19.28,6.34-27.28C167.67,386,169.54,382.14,172.63,375.78Z"/><path class="cls-12" d="M181.17,370.86c.63-1.66,1.17-3.11,1.61-4.33s.77-2.21,1-3a11,11,0,0,0,.42-1.62c0-.32,0-.42-.15-.32a7.71,7.71,0,0,0-1.14,1.51c.86-2.25,1.29-3.4,2.16-5.74.54-1,1.11-2,1.69-3l1.64-3.05c.52-1,1-1.81,1.4-2.53a7.76,7.76,0,0,1,1-1.48c.35-.35.53-.06.57.83a32.46,32.46,0,0,1-.46,5c-.35,2.42-.92,5.64-1.8,9.45a120.66,120.66,0,0,1-4,13.46c-1.67,4.66-4.15,10-6.37,15.43s-3.84,9.8-5.18,13.52-2.35,6.75-3.25,9.31-1.63,4.6-2.32,6.28a32.14,32.14,0,0,0,1.4,10.12,12.69,12.69,0,0,0,2,4,2.88,2.88,0,0,0,1.41,1.12.89.89,0,0,0,.84-.17,2.08,2.08,0,0,0,.41-.54c.11-.21.21-.45.31-.7s.21-.51.33-.78.26-.56.41-.87.35-.65.53-.95.38-.64.61-1a1.18,1.18,0,0,0-.07-.44c-.8,1-1.49,1.94-2,2.71a11.84,11.84,0,0,0-1.16,2,4.39,4.39,0,0,0-.25.78,4.07,4.07,0,0,0-.1.76,5.93,5.93,0,0,0,0,.73c0,.23,0,.47,0,.7a1.45,1.45,0,0,1-.24.95c-.2.19-.58.21-1.24-.36a10.91,10.91,0,0,1-2.73-4.34c-1.06-2.59-2.28-6.65-2.12-13.86,0-.26,0-.39.07-.66a16.32,16.32,0,0,0,2.22-4.19c.77-1.92,1.6-4.32,2.64-7.39s2.3-6.77,4.06-11.46,4.74-11.43,6.39-15.57a128.42,128.42,0,0,0,6.09-19.45c1-4.57,1.16-6.82.44-6.24a2.64,2.64,0,0,0-.53.61l-.7,1.09c-1.1,3.4-2.6,7.82-4.49,12.92s-4.09,10.61-6.5,16.2-7.3,18.32-8.92,26.17a57.58,57.58,0,0,0-1,19.38,33.29,33.29,0,0,0,3.42,10.92c1.18,2.3,2,3.27,1,3.44-.1.81-.14,1.19-.17,1.93,0,.05,0,.08,0,.13,1.33-.19-.23-1.65-1.88-4.71a35.27,35.27,0,0,1-4-14.53c-.47-6.74.26-16,4.15-27C172.3,391.74,177.18,381.3,181.17,370.86Z"/><path class="cls-13" d="M196.57,353.64c-.18,3.23-.44,6.64-.8,10.08s-.83,6.79-1.39,9.94-2.37,8.78-3.24,13a62.83,62.83,0,0,0-1.38,10.58,22.56,22.56,0,0,0,.59,6.61,5.29,5.29,0,0,0,1.8,3,2.57,2.57,0,0,0,2.31.29,6.6,6.6,0,0,0,2.27-1.38c-.43.13-.81-1.44-.71-4.29a73.39,73.39,0,0,1,1.66-11.82c1-4.82,2.44-10.34,4.09-15.93a46.58,46.58,0,0,0,2.13-11.58,79.4,79.4,0,0,0,.15-9c-.1-2.65-.29-5-.49-6.87-.16-1.6-.33-3-.46-4.14s-.24-2.1-.3-2.84a12.5,12.5,0,0,1-.09-1.63c0-.35.06-.67.14-.61a9.88,9.88,0,0,1,1.16,2.48c.06.26.1.39.16.64a91.11,91.11,0,0,1,1.61,10.26,68.18,68.18,0,0,1,.1,12c-.34,4.15-1.64,8.89-3.15,14.39s-2.54,10-3.23,13.57a68.56,68.56,0,0,0-1.15,8.17,19.51,19.51,0,0,0,0,3.8,2.49,2.49,0,0,0,.35,1.17c.13.17.28.14.43-.06a3.09,3.09,0,0,0,.36-1.14,12.47,12.47,0,0,0,.14-2.15l-2.5,2.35-.35.4c-.36.77-.82,1.76-1.38,2.83a25.4,25.4,0,0,1-1.91,3.15,9.51,9.51,0,0,1-2.31,2.37,2.72,2.72,0,0,1-2.42.48,3.72,3.72,0,0,1-2-2.38,17.3,17.3,0,0,1-.92-5.81,51.14,51.14,0,0,1,.81-9.28,102.5,102.5,0,0,1,2.84-12c1.27-4.3,2.09-7.2,2.6-9.76s.9-4.93,1.21-6.94c-1.86,8.09-5.34,16.22-8.28,24.91a122.12,122.12,0,0,0-5.2,20A55.06,55.06,0,0,0,179,421a42.73,42.73,0,0,0,.33,4.35c0,.53,0,.75-.07.87a.56.56,0,0,1-.41.17,2.53,2.53,0,0,0-.57.12,2,2,0,0,0-.61.36,3.73,3.73,0,0,0-.61.71c-.21.29-.43.65-.67,1.06-.09.16-.14.23-.22.38s-.1.17-.16.29-.13.26-.23.43a1.75,1.75,0,0,1,0,.24,2.3,2.3,0,0,0,1.49-.65,3,3,0,0,0,.36-1.95c0-1-.14-2.42-.16-4.46a60.94,60.94,0,0,1,.48-7.95A96.69,96.69,0,0,1,180.25,403a159.09,159.09,0,0,1,4.9-15.52c2.07-5.64,4.08-10.43,5.21-14.06s2-7.06,2.67-10.11c.36-1.63.63-3.07.84-4.27s.32-2.19.39-2.94a7.52,7.52,0,0,0,0-1.59c-.05-.3-.17-.38-.35-.25a2.29,2.29,0,0,0-.47.56q-.28.42-.69,1.14c.42-2.21.62-3.34,1-5.67.41-1.06.76-2,1-2.87s.55-1.58.75-2.17.38-1.08.53-1.45a2.05,2.05,0,0,1,.36-.68c.1-.1.18,0,.24.37a12.52,12.52,0,0,1,.11,1.77c0,.84,0,2,0,3.36S196.68,351.7,196.57,353.64Z"/><path class="cls-14" d="M230.32,433.43l-.16-.26a2.64,2.64,0,0,1-2.62-.78A8.23,8.23,0,0,1,226,429a42.85,42.85,0,0,1-1-5.79c-.27-2.3-.49-5-.68-8-.25-4.26-.41-9.11-.49-14.25s.57-12.2-.19-16.8l-.06-.06c.42,4.77-.81,11.66-1.2,16.09s-.74,8.05-1,11-.49,5.3-.63,7.07-.2,3-.18,3.73.13.87.3.44a16,16,0,0,0,.61-3.1c-.82-1.19-1.25-1.8-2.16-3.05l-.31-.35c-4.46,3-8-4.6-8.16-18.36-.13-12.51,2.2-24.32-.26-36.81-.39-2-.8-3.83-1.19-5.35s-.76-2.84-1.1-3.9a24,24,0,0,0-.92-2.48,3.44,3.44,0,0,0-.75-1.17.52.52,0,0,0-.43-.16,1.23,1.23,0,0,0-.47.22c-.4-2.09-.63-3.17-1.16-5.39a15.47,15.47,0,0,0,.35-2.54c0-.61.12-.86.32-.67a6.14,6.14,0,0,1,.75,1.39c.35.77.83,1.94,1.4,3.47s1.28,3.47,2,5.73,1.55,4.94,2.33,7.92a117.69,117.69,0,0,1,2.92,14.75c.7,5.41-.39,14.11-.51,21.42a93.81,93.81,0,0,0,1.16,18.33c.89,4.61,2.29,7.4,4,8.06l.09.1c-.12.49-.24.57-.28,0a32.88,32.88,0,0,1,.17-3.92c.17-2.13.46-5.14.89-9.28s1-9.34,1.6-15.74A58.69,58.69,0,0,0,221,373a111.85,111.85,0,0,0-6.79-20.64c-.38-.88-.65-1.51-.77-1.85s-.16-.5-.09-.43a3.32,3.32,0,0,1,.41.64A172.07,172.07,0,0,1,221,368a115.45,115.45,0,0,1,4.8,18.14c1,5.85.3,14.51.46,20.61s.34,11.09.57,15.11a84.91,84.91,0,0,0,.88,9.17,9.45,9.45,0,0,0,1.45,4.23l0,.06c-.19,0-.23-.46-.09-1.68s.46-3.15.84-5.9.85-6.28,1.25-10.65.71-9.39.84-14.89a65.21,65.21,0,0,0-1.1-15.67,97.92,97.92,0,0,0-4.06-13.16c-.89-2.32-1.91-4.76-3.08-7.32s-2.39-5.08-3.64-7.5-2.5-4.71-3.7-6.82-2.23-3.84-3-5.16l-1-1.66a2.28,2.28,0,0,1-.12-.3c0-.07,0-.08,0,0a17.05,17.05,0,0,1,1.13,1.64c.62,1,1.51,2.38,2.63,4.24s2.47,4.18,4,6.92,3.13,5.9,4.73,9.36c1.22,2.64,2.67,6,4.06,9.86A93.13,93.13,0,0,1,232.34,389a65.71,65.71,0,0,1,.8,14.65c-.14,5.12-.46,9.85-.87,14s-.9,7.73-1.35,10.6-.83,5-1,6.4-.25,2.12,0,2.23.65-.39,1.29-1.31C230.84,434.75,230.67,434.32,230.32,433.43Z"/><path class="cls-15" d="M230.51,377.34c-.82-2-1.62-3.88-2.33-5.44S226.83,369,226.3,368s-1-1.84-1.29-2.39a5.9,5.9,0,0,0-.72-1.05c-.1-.1-.17-.12-.2-.05a.87.87,0,0,0-.08.33c-1.45-3-2.23-4.5-4-7.66-.17-.56-.34-1.07-.49-1.5s-.28-.82-.39-1.12A1.6,1.6,0,0,1,219,354c0-.07.09,0,.23.11a11.73,11.73,0,0,0,1,.91c.25.21.45.36.61.48a1.38,1.38,0,0,0,.33.2.36.36,0,0,1,.15.08c.11.11.64.89,1.57,2.29s2.27,3.5,3.88,6.19c.65,1.08,1.89,3.17,3.51,6.13s3.29,6.26,4.88,9.8a111.6,111.6,0,0,1,4.19,10.64,84.28,84.28,0,0,1,2.57,9.38c-.22-.27-.32-.41-.54-.69-.35-1.61-.75-3.17-1.16-4.65s-.86-2.92-1.32-4.28a108.33,108.33,0,0,0-4-10.2c-1.25-2.76-2.4-5.06-3.32-6.79s-1.63-3-2.1-3.74a10.92,10.92,0,0,0-1.06-1.51c-.31-.34-.59-.63-.83-.87s-.45-.47-.66-.67l-.23-.23a4,4,0,0,0-.33-.29,2.68,2.68,0,0,0-.32-.22c-.18.19,4.63,9.45,6.55,14.43a100.85,100.85,0,0,1,4.51,14.76c1,4.83,1.11,10.63,1.11,15.75a136.82,136.82,0,0,1-.67,13.87c.44.69.81,1.25,1.13,1.7s.61.82.87,1.12a2.15,2.15,0,0,0,.89.66,1,1,0,0,0,.83-.17c-.16,1.39-.36,2.55-.56,3.52a12.82,12.82,0,0,1-.51,1.89,3.9,3.9,0,0,1-.5,1c-.16.2-.31.29-.47.27a.69.69,0,0,1-.44-.33,7.63,7.63,0,0,1-.85-1.67c-.31-.77-.65-1.66-1.06-2.69-.22,1.48-.51,3.16-.87,4.9s-.76,3.38-1.16,4.89-.8,2.83-1.14,4-.61,2-.79,2.65a5.85,5.85,0,0,0-.24,1.45.79.79,0,0,0,.17.58c0,.42-.1.82-.16,1.2s-.11.72-.17,1-.17.81-.27,1.17a10.06,10.06,0,0,1-.32,1,2.54,2.54,0,0,1-.19.44c0,.08-.06.09,0,0a8.39,8.39,0,0,1,.52-.74c.31-.43.82-1.09,1.6-2.22,0,.19,0,.29-.07.47-1.24,1.74-2,2.58-2.28,3.08s-.32.67-.21.71a.67.67,0,0,0,.5-.19,1.71,1.71,0,0,0,.46-.56,3.41,3.41,0,0,0,.25-.64c.07-.24.13-.52.2-.83s.13-.66.2-1,.15-.8.23-1.27.17-.86.27-1.39.22-1.08.37-1.7c0-.06,0-.09,0-.14-.51.06-1,0-1.13-.5a6.63,6.63,0,0,1,.27-3c.36-1.64,1-4,1.62-7.52A121.12,121.12,0,0,0,236.3,422a182.46,182.46,0,0,0,.18-21.28C236.09,392.38,233.75,385.5,230.51,377.34Z"/><path class="cls-16" d="M238.68,383.11c1.09,2.28,2.37,5.12,3.63,8.39a88,88,0,0,1,3.54,11.32A62.58,62.58,0,0,1,247.32,417a63.36,63.36,0,0,1-1.79,15l1.27.65c.41.21.82.42,1.22.64l1.22.66a10.71,10.71,0,0,0,1.3.71c.69-.27,1.73-6.25,2.06-9.9a50.48,50.48,0,0,0-.41-12.75,76.29,76.29,0,0,0-5-17,130.14,130.14,0,0,0-13.77-24.63c-.95-1.39-1.78-2.58-2.47-3.56l-1.76-2.44-1-1.39c-.2-.28-.28-.4-.23-.34s.32.39.77,1,1.07,1.37,1.83,2.36c6.23,8.92,12.43,17.84,16.91,27.77,3.54,7.85,5.52,14.52,6.29,20.51a47.07,47.07,0,0,1-.42,15.65,37.41,37.41,0,0,1-4.54,11.76,38.67,38.67,0,0,1-7,8.6,45.82,45.82,0,0,1-7.93,5.81c-1.7,1-3,1.62-3.93,2.07s-1.6.73-2.06.92l-.91.39a1.25,1.25,0,0,0-.27.14s0,0,0,0l.38-.07c-.42.13-.59.19-.86.26l-.33.08h-.06l.07,0,.11,0a.5.5,0,0,0,.14-.08,2.92,2.92,0,0,1,.31-.18c.18-.1.49-.25,1.11-.54s1.57-.74,3.06-1.54a39.69,39.69,0,0,0,4.94-3.06,44.13,44.13,0,0,0,3.7-2.94,42.39,42.39,0,0,0,3.44-3.4,39.62,39.62,0,0,0,3.05-3.87,36.22,36.22,0,0,0,2.62-4.38l-1.13-.7c-.36-.23-.73-.43-1.09-.62s-.74-.38-1.12-.55-.78-.33-1.19-.5c-6.51,17.24-15.22,19.08-14.57,20.1.32-.24.48-.38.83-.68l.05-.07c-.69-.33,1.19-1.7,3.58-4.37a44.7,44.7,0,0,0,7.83-12.26c2.4-5.59,4-13.07,4.49-22,.6-11.16-2.78-22.28-6.79-32.36-.95-2.4-2.09-4.62-3-6.48s-1.79-3.44-2.49-4.68-1.27-2.2-1.67-2.84a8.34,8.34,0,0,0-.81-1.16c-.18-.17-.16,0,0,.62-1.6-2.88-2.47-4.36-4.34-7.4-1-1.87-1.87-3.32-2.41-4.25s-.78-1.32-.62-1.16.66.85,1.51,2.07,2,2.94,3.44,5.12,3,4.79,4.73,7.73S237,379.65,238.68,383.11Z"/><path class="cls-17" d="M184.69,460.78,144.45,472a1.45,1.45,0,0,0-1,1.91l2.08,5.56a1.46,1.46,0,0,0,2,.82l38.16-16.76a1.45,1.45,0,0,0,.77-1.87h0A1.46,1.46,0,0,0,184.69,460.78Z"/><ellipse class="cls-18" cx="144.51" cy="476.65" rx="1.4" ry="4.53" transform="translate(-157.93 80.91) rotate(-20.52)"/><path class="cls-17" d="M219.78,460.78,260,472a1.45,1.45,0,0,1,1,1.91l-2.08,5.56a1.47,1.47,0,0,1-2,.83L218.79,463.5a1.43,1.43,0,0,1-.76-1.86h0A1.46,1.46,0,0,1,219.78,460.78Z"/><ellipse class="cls-18" cx="259.96" cy="476.64" rx="4.53" ry="1.4" transform="translate(-277.57 553.01) rotate(-69.48)"/><path class="cls-17" d="M195.46,462.78l-18.08,19.05c-.37.39,0,.91.82,1.12l5.68,1.5a1.88,1.88,0,0,0,1.93-.38l12.41-20.55c.23-.38-.18-.84-.93-1h0A2.07,2.07,0,0,0,195.46,462.78Z"/><path class="cls-17" d="M208.09,463l15.37,16.92c.32.34-.07.86-.83,1.12l-5.32,1.78c-.75.25-1.55.15-1.75-.23l-10.05-18.7c-.19-.35.22-.81.92-1h0A1.74,1.74,0,0,1,208.09,463Z"/><ellipse class="cls-18" cx="220.37" cy="482.77" rx="4.61" ry="3.7" transform="translate(-90.5 52.67) rotate(-11.32)"/><ellipse class="cls-18" cx="181.17" cy="483.46" rx="4.61" ry="3.7" transform="translate(-91.4 44.98) rotate(-11.32)"/><path class="cls-19" d="M493.33,51.43V442a51.58,51.58,0,0,1-51.43,51.43H51.38A51.57,51.57,0,0,1,0,442V51.43A51.59,51.59,0,0,1,51.38,0H441.9a50.71,50.71,0,0,1,17.88,3.23A51.63,51.63,0,0,1,493.33,51.43Z"/></svg>