<svg id="Layer_1" data-name="Layer 1" xmlns="http://www.w3.org/2000/svg" viewBox="0 0 1920 1080"><defs><style>.cls-1,.cls-13,.cls-9{fill:#14abbd;}.cls-2{fill:#fa0;}.cls-3{fill:#ff6000;}.cls-4{fill:#ff3800;}.cls-10,.cls-5{fill:#287682;}.cls-6{opacity:0.2;}.cls-7{opacity:0.4;}.cls-8{opacity:0.3;}.cls-9{font-size:168.7px;}.cls-10,.cls-9{font-family:OpenSans-Bold, OpenSans Bold;font-weight:700;}.cls-10{font-size:97.17px;}.cls-11{letter-spacing:0.01em;}.cls-12{letter-spacing:0em;}.cls-13{letter-spacing:-0.01em;}</style></defs><title>Artboard1</title><rect class="cls-1" x="112.5" y="38.5" width="70" height="70"/><path d="M182,39v69H113V39h69m1-1H112v71h71V38Z"/><rect class="cls-2" x="183.5" y="38.5" width="70" height="70"/><path d="M253,39v69H184V39h69m1-1H183v71h71V38Z"/><rect class="cls-3" x="254.5" y="38.5" width="70" height="70"/><path d="M324,39v69H255V39h69m1-1H254v71h71V38Z"/><rect class="cls-4" x="325.5" y="38.5" width="70" height="70"/><path d="M395,39v69H326V39h69m1-1H325v71h71V38Z"/><rect class="cls-5" x="41.5" y="38.5" width="70" height="70"/><path d="M111,39v69H42V39h69m1-1H41v71h71V38Z"/><g class="cls-6"><path class="cls-2" d="M1039.41,674.06c32.92-53.78,36.35-157.43,37.35-209.62a58,58,0,0,1,12-34.15c9.85-12.84,18.69-32.15,25.25-51.35a71.54,71.54,0,0,0-32-85c-40.2-23.23-97.19-42.36-121.65,15.22-39.73,93.56-51.76,95.23,0,148.66,30.76,31.76,17,144.19,28.79,207C993.8,689.63,1026.26,695.56,1039.41,674.06Z"/></g><g class="cls-7"><path class="cls-4" d="M859,683.56c-40.9-49.95-50.22-163.82-51.29-219.38a58.82,58.82,0,0,0-12.19-34.43c-9.75-12.83-18.49-31.94-25-51a71.56,71.56,0,0,1,31.94-85.06c40.21-23.23,97.2-42.37,121.66,15.22,39.73,93.56,51.76,95.23,0,148.66C891.79,491,913.73,613.3,900.3,673.69,896.05,692.81,871.39,698.72,859,683.56Z"/></g><g class="cls-8"><path class="cls-5" d="M831.26,353c15.88,38.31,54.15,62.68,95.54,60.13,32.14-2,68-11.26,86.08-39.89,37.17-58.95,74.33-170.45,25.63-183.26s-164-65.36-217.86-15.38C785.15,207.61,807.07,294.66,831.26,353Z"/></g><g class="cls-7"><path class="cls-1" d="M768.53,325.76c19.38,41.8,66.12,68.39,116.67,65.61,39.25-2.16,83.08-12.28,105.13-43.53,45.39-64.32,90.77-186,31.3-200S821.3,76.55,755.57,131.09C712.21,167.06,739,262.05,768.53,325.76Z"/></g><g class="cls-8"><path class="cls-3" d="M966.33,385.31c46.72,25,135.14,10.17,158.83-28.26s85-165,52.94-197.8S980.65,97.79,942.4,119.53C877,156.7,843.72,319.75,966.33,385.31Z"/></g><text class="cls-9" transform="translate(732.96 858.58)">DENT</text><text class="cls-10" transform="translate(732.96 943.53)">A<tspan class="cls-11" x="59.47" y="0">R</tspan><tspan class="cls-12" x="112.62" y="0">T</tspan><tspan class="cls-1" x="160.92" y="0">IST</tspan><tspan class="cls-13" x="280.34" y="0">R</tspan><tspan class="cls-1" x="331.55" y="0">Y</tspan></text></svg>