<svg id="Layer_1" data-name="Layer 1" xmlns="http://www.w3.org/2000/svg" viewBox="0 0 500 325.65"><defs><style>.cls-1,.cls-6{fill:#67b4de;}.cls-1,.cls-2,.cls-3,.cls-4,.cls-5,.cls-6{stroke:#231f20;stroke-miterlimit:10;}.cls-2{fill:#6d6e71;}.cls-3{fill:#414042;}.cls-4{fill:none;}.cls-5{fill:#808285;}.cls-6{stroke-width:2px;}</style></defs><title>Artboard 31</title><path class="cls-1" d="M237,3.2q-8.29.75-16.27,2.27c-41,24-76.85,178.15-76.85,178.15h76.85a.42.42,0,0,0,0-.07.2.2,0,0,1,0-.1v0a.6.6,0,0,0,0-.12c0-.23-.12-.6-.21-1.09,0-.09,0-.19,0-.29s-.08-.49-.12-.78-.06-.35-.08-.54a73.29,73.29,0,0,1-.63-8.5c0-.32,0-.65,0-1A103.14,103.14,0,0,1,221.78,149c.2-.94.4-1.88.63-2.85l.15-.67c.25-1,.5-2,.77-3,.35-1.29.72-2.61,1.13-3.94s.76-2.43,1.18-3.67c.29-.86.6-1.72.92-2.6s.55-1.52.85-2.28a140.39,140.39,0,0,1,14-26.9q1.46-2.2,3-4.43c1.41-2,2.89-4,4.46-6h0l.55-3.16,18.8-16.93c1.22,0,2.44,0,3.65.07L317,33.4C288.87,13,261,1.07,237,3.2Z"/><path class="cls-2" d="M317,33.4,271.9,72.63c-1.21,0-2.43-.07-3.65-.07l-18.8,16.93-.55,3.16h0c-43.67,38-92,80.08-99.44,86.65a53.42,53.42,0,0,1-5.6,4.31S179.68,29.42,220.71,5.47q8-1.53,16.27-2.27C261,1.07,288.87,13,317,33.4Z"/><path class="cls-3" d="M395.59,190.56c0,10.35-2.46,19.34-7.18,27.07-5.84,9.56-15.15,17.18-27.54,23.06a124.38,124.38,0,0,1-20.58,7.48l-80.94-6.75c-.38-6.48-1-14.45-1.9-22.66,0-.22-.05-.45-.09-.7-1.9-17.47-10.56-110.19-8.53-125,0-.15,0-.29.07-.42h0l.55-3.16,18.8-16.93c1.22,0,2.44,0,3.65.07,63,2.16,104.4,60.07,118.41,96.18C393.81,177.82,395.59,185.47,395.59,190.56Z"/><path class="cls-3" d="M340.29,248.17c-21.43,5.9-48.54,8.58-80.28,8.58,0,0-.07-3.53-.33-9.19-.09-1.84-.2-3.9-.33-6.14Z"/><path class="cls-1" d="M470.76,207.23s-5.33,1.05-15,2.57a389.69,389.69,0,0,0-19.72-38.69c-1.24-2.16-2.5-4.3-3.79-6.45h0l-42,4.15c-14-36.11-55.37-94-118.41-96.18L317,33.4l5.57-4.85C439.41,98.92,470.76,207.23,470.76,207.23Z"/><path class="cls-1" d="M470.76,207.23q-6.83,3-13.61,5.7"/><path class="cls-1" d="M322.53,28.55,317,33.4C288.87,13,261,1.07,237,3.2q-8.29.75-16.27,2.27c-41,24-76.85,178.15-76.85,178.15-11.56,7.78-20.6,6.91-20.6,6.91l-70-25.44c-.29.6-.57,1.21-.85,1.82q-4.64,9.94-8.91,20.2C36,182.84,32,180.17,32,180.17l8.83-19.58C52,126.55,120.67,3,239.28.52,278.53-.29,322.57,25.54,322.53,28.55Z"/><path class="cls-4" d="M29.91,222.28l105.15,68.44s223.42-39.15,335.7-31.67"/><path class="cls-1" d="M473.83,279.94v.8l-334,36.47-2.31,8.44-28.41-6.91,3.46-14.58L22,245.81Q25.78,234,29.9,222.28h0c4.22-11.93,8.73-23.69,13.56-35.17q4.28-10.26,8.91-20.2c.28-.61.56-1.22.85-1.82l70,25.44s9,.87,20.6-6.91h76.85l4.91,32.28,2.32,15.32,1.16,7.68,1,6.54.33,2.12s28,12.74,25.06,13.56,2,3.69-27.54,6c-13.14,1-18.76,2.26-20.93,3.35,0,.34,0,.68,0,1-.17,4.88-.22,8-.22,8C278.43,268.16,260,256.75,260,256.75c31.74,0,58.85-2.68,80.28-8.58a124.38,124.38,0,0,0,20.58-7.48c12.39-5.88,21.7-13.5,27.54-23.06,4.72-7.73,7.18-16.72,7.18-27.07,0-5.09-1.78-12.74-5.28-21.75l42-4.15h0c1.29,2.15,2.55,4.29,3.79,6.45A389.69,389.69,0,0,1,455.8,209.8c.47,1,.92,2.1,1.35,3.13,7.15,16.79,12.28,32.87,14.83,47.43A113,113,0,0,1,473.83,279.94Z"/><path class="cls-1" d="M206.91,272.85s-2.62-1.06.1-2.38"/><path class="cls-5" d="M257.36,218.06c-1.76-15.47-4.67-31.73-9.44-40.77v0c-.36-.51-7.73-10.78-28.35-5.16,0-.32,0-.65,0-1A103.14,103.14,0,0,1,221.78,149c.2-.94.4-1.88.63-2.85l.15-.67c.25-1,.5-2,.77-3,.35-1.29.72-2.61,1.13-3.94s.76-2.43,1.18-3.67c.29-.86.6-1.72.92-2.6s.55-1.52.85-2.28a140.39,140.39,0,0,1,14-26.9q1.46-2.2,3-4.43c1.41-2,2.89-4,4.46-6,0,.13-.05.27-.07.42C246.8,107.87,255.46,200.59,257.36,218.06Z"/><path class="cls-5" d="M257.45,218.76c-10.5-.71-21.13-1.66-31.83-2.86l-4.91-32.28a.42.42,0,0,0,0-.07.2.2,0,0,1,0-.1v0a.6.6,0,0,0,0-.12c0-.23-.12-.6-.21-1.09,0-.09,0-.19,0-.29s-.08-.49-.12-.78-.06-.35-.08-.54a73.29,73.29,0,0,1-.63-8.5c20.62-5.62,28,4.65,28.35,5.16v0c4.77,9,7.68,25.3,9.44,40.77C257.4,218.31,257.42,218.54,257.45,218.76Z"/><path class="cls-3" d="M206.75,279.44s.05-3.09.22-8c0-.32,0-.66,0-1,2.17-1.09,7.79-2.33,20.93-3.35,29.53-2.31,24.59-5.19,27.54-6s-25.06-13.56-25.06-13.56l-.33-2.12-1-6.54-1.16-7.68-2.32-15.32c10.7,1.2,21.33,2.15,31.83,2.86.92,8.21,1.52,16.18,1.9,22.66.13,2.24.24,4.3.33,6.14.26,5.66.33,9.19.33,9.19S278.43,268.16,206.75,279.44Z"/><path class="cls-3" d="M470.76,259.05s-177.35,4.61-335.7,31.67L29.91,222.28,22,245.81l90.6,58.35-3.46,14.58,28.41,6.91,2.31-8.44,334-36.47S474.21,259.63,470.76,259.05Z"/><line class="cls-6" x1="32" y1="180.17" x2="0.9" y2="245.15"/><line class="cls-6" x1="470.76" y1="207.23" x2="496.9" y2="292.57"/></svg>