<svg id="Layer_1" data-name="Layer 1" xmlns="http://www.w3.org/2000/svg" viewBox="0 0 500 501.44"><defs><style>.cls-1{fill:#754c29;}.cls-2{fill:#3c2415;}.cls-3{fill:#6cc9c7;}.cls-4{opacity:0.8;}.cls-5{fill:#be1e2d;}.cls-6{fill:#ed1c24;}.cls-7{fill:#f15a29;}.cls-8{fill:#f7941d;}.cls-9{fill:#fbb040;}.cls-10{fill:#f9ed32;}.cls-11{fill:#fff200;}.cls-12{fill:#00aeef;}.cls-13{fill:none;stroke:#231f20;stroke-miterlimit:10;stroke-width:4px;}.cls-14{fill:#1b75bc;}.cls-15{fill:#2b3990;}.cls-16{fill:#262262;}</style></defs><title>Artboard 13</title><path class="cls-1" d="M234,500H38.83a38.68,38.68,0,0,1-24.89-9l-1-.88A38.7,38.7,0,0,1,0,461.17V412.33l4-8C9.33,401,63.33,364,67.33,363.17s31.93,15.16,54,41.16,20.09,47.34,42.06,42.67,33.23-15.33,41.94,8S234,500,234,500Z"/><path class="cls-2" d="M307.59,500H234s-20-21.67-28.7-45-20-12.67-41.94-8-20-16.67-42.06-42.67-50-42-54-41.16S9.33,401,4,404.33l-4,8V122.1s49.6,210,54.1,211.49,19.5-30,30-21,37.2,42,37.2,42l54.29,8.59s13.5,23.78,0,43.6c-11.19,16.42,74.24,5.83,103.77,1.72-34.2,6.08-54.78,22-60.27,31.59-6,10.5,7.5,24,7.5,24h37.5l1.5,16.5h30Z"/><path class="cls-3" d="M500,350.53V394c-41.12.34-74.93,1.27-102.64,2.5-94.59,4.22-118,12-118,12-29.53,4.11-115,14.7-103.77-1.72,13.5-19.82,0-43.6,0-43.6l-54.29-8.59s-26.7-33-37.2-42-25.5,22.5-30,21S0,122.1,0,122.1V38.83A38.84,38.84,0,0,1,38.83,0h90.38L129,1a296.54,296.54,0,0,0,1.71,144c33,124.65,145.76,216.67,280.49,218.15l3.8,0h2.29A293.78,293.78,0,0,0,500,350.53Z"/><g class="cls-4"><path class="cls-5" d="M500,39.83V352.38l-.5.15A293.74,293.74,0,0,1,414,365.17c-137,0-251.94-93.63-284.38-220.47A296.46,296.46,0,0,1,128.71,2c.08-.33.16-.67.25-1s.16-.67.25-1L129,1h332.2A38.84,38.84,0,0,1,500,39.83Z"/><path class="cls-6" d="M500,39.83V308.16a251.43,251.43,0,0,1-86,15.07c-117.49,0-216.05-80.33-243.8-189.13A253.85,253.85,0,0,1,172.38,1H461.17A38.84,38.84,0,0,1,500,39.83Z"/><path class="cls-7" d="M500,39.83V262.91A209.68,209.68,0,0,1,204.3,71.59,209.62,209.62,0,0,1,216.45,1H461.17A38.84,38.84,0,0,1,500,39.83Z"/><path class="cls-8" d="M500,39.83V215.67A167.82,167.82,0,0,1,246.23,71.59,167.29,167.29,0,0,1,261.73,1H461.17A38.84,38.84,0,0,1,500,39.83Z"/><path class="cls-9" d="M500,39.83v123.6A125.85,125.85,0,0,1,309.79,1H461.17A38.84,38.84,0,0,1,500,39.83Z"/><path class="cls-10" d="M497.84,71.59A83.87,83.87,0,1,1,368.61,1h90.72A83.77,83.77,0,0,1,497.84,71.59Z"/><ellipse class="cls-11" cx="413.97" cy="71.59" rx="41.93" ry="41.94"/></g><path class="cls-12" d="M13.94,491l-1.84.11.83-1Z"/><path class="cls-13" d="M91.6,153.47c33-22.37,54,0,54,0s19.49-40.07,49.49-5"/><path class="cls-13" d="M219.09,207.59s9-10.5,15-6,24.59-15.39,22.5-6.18"/><path class="cls-13" d="M99.1,236c12-2.91,22.33,14,22.33,14s24.17-15.43,21.92-7.17"/><path class="cls-14" d="M322.86,500H307.59l-12-19.42h-30l-1.5-16.5h-37.5s-13.5-13.5-7.5-24c5.49-9.61,26.07-25.51,60.27-31.59,0,0,23.41-7.77,118-12,0,0-102.36,17.17-108.19,32.5s-15.78,8.67-9.81,27.33,53.31,16.85,34.64,33.76C308,495.52,313.14,498.48,322.86,500Z"/><path class="cls-15" d="M397.36,500h-74.5c-9.72-1.52-14.85-4.48-8.86-9.91,18.67-16.91-28.67-15.09-34.64-33.76s4-12,9.81-27.33,108.19-32.5,108.19-32.5c27.71-1.23,61.52-2.16,102.64-2.5,0,0-99.33,4.33-115.33,33.67s-24.67,25.33-16,40S393.39,485,397.36,483s-2.69,11.33-12.69,11.33S397.36,500,397.36,500Z"/><path class="cls-14" d="M384.67,500s-41.21,3.23-61.81,0Z"/><path class="cls-16" d="M500,394v67.17A38.84,38.84,0,0,1,461.17,500H397.36s-22.69-5.67-12.69-5.67S401.33,481,397.36,483s-20-.67-28.69-15.33,0-10.67,16-40S500,394,500,394Z"/></svg>