<svg id="Layer_1" data-name="Layer 1" xmlns="http://www.w3.org/2000/svg" viewBox="0 0 536.47 481.43"><defs><style>.cls-1{fill:#2e3192;}.cls-2{fill:#ef4136;}.cls-3{fill:#f7941d;}.cls-4{fill:#009444;}.cls-5{fill:none;stroke:#009444;stroke-miterlimit:10;stroke-width:18px;}</style></defs><title>Artboard 24</title><path class="cls-1" d="M216.56,410.28c-117.1-269,74.35-267.82,74.35-267.82C282.84,134.52,225,84.08,183.4,79.87l-28.31,21.54-41-33.54L80.57,64.15,65.67,90.22,80.57,120l33.53,22.34L91.75,190.83,54.5,187.1,21,205.73v22.34l29.8,18.63h41l3.72,44.72L61.94,302.59,35.87,336.12,47,362.21H88l33.53-22.36,18.63,26.09-22.36,26.63-4.28,36.15,25.57,18.11L171.58,433l18.71-26Z"/><path class="cls-2" d="M345.11,71.6l29.8,26.08,35.67-23.43,34.05-6.93,19.7,22.9-11.17,33.54-40.12,28,10.34,26.06s-20.85,71.07-59.63,86.77C333,92.11,188.77,76,188.77,76L176.1,38l8.79-29.75L216,0l21.09,23.16,11.17,33.53h37.26l9.91-39.61L318.46.81l25.83,9.34,1.61,27.32-8.57,26.68Z"/><path class="cls-3" d="M445.7,250.43,442,287.69l39.45,16,16.44,36.19-11.17,18.63H449.43l-37.26-18.63-18.63,18.63,24,38.89-1.62,39.35L393.54,447.9l-29.8-18.63-22.36-29.8-44.71,18.62,1.07,33-16,30.31H255.69l-17.05-28.17-1.58-42.62-12.22-.36c-25.19-53.16-31.78-98.2-31.78-98.2,167.6,75,235.52-129.31,235.52-129.31l9.66,8.06h48.45l26.07,14.9v29.8L483,250.43Z"/><path class="cls-4" d="M512.76,176.2C-155,826,21,237.69,21,237.69l25.17,18.92s-148.67,504.93,448.3-83.41Z"/><circle class="cls-5" cx="508.8" cy="162.95" r="21.12"/></svg>