<svg id="Layer_1" data-name="Layer 1" xmlns="http://www.w3.org/2000/svg" viewBox="0 0 668.63 629.05"><defs><style>.cls-1{fill:none;}.cls-1,.cls-2,.cls-3{stroke:#231f20;stroke-miterlimit:10;}.cls-1,.cls-2{stroke-width:0.25px;}.cls-2,.cls-3{fill:#231f20;}.cls-3{stroke-width:0.75px;}</style></defs><title>Artboard 20</title><line class="cls-1" x1="244.23" y1="92.65" x2="244.23" y2="92.64"/><path class="cls-2" d="M251.78,162.5l114.83,47.72s8.39,11.53,4.19,17.83-13.63,7.34-13.63,7.34L242.86,187.15s-8.39-5.78-5.77-15.73S251.78,162.5,251.78,162.5Z"/><path class="cls-2" d="M244.23,92.65l49.11,30.21a36.76,36.76,0,0,1-49.11-30.21Z"/><path class="cls-2" d="M456.79,289c.93-28.85,30.95-26.35,30.95-26.35,2,2.13,21.64,28.79-1.58,52.68C486.16,315.33,455.87,318.23,456.79,289Z"/><path class="cls-2" d="M544.26,479.86l-18.85,9.41-72.66-126L396,509H145.42V489.3l99.94-1.58S244.23,369.1,103.8,387.84H59V364.26h26l29.5-29.5h88.47l54.5,23.82L242.8,410.71c-2.69,9.61.29,20.15,8.13,26.34,10.56,8.34,24.74,5.44,38.72-11a27.29,27.29,0,0,0,5.4-10.08l19.78-68.59s5-25-15-32.46l6.24-17.47H419.69l-27.19-51.3-16.58-7.87s14.35-5.27,3.15-16.5l19.35,7.87s12.76.52,15,11.89Z"/><path class="cls-2" d="M175,221.25C211.19,147.6,222,141.37,222,141.37s47.65-30.78,53.94,24.81l-23.59-8.92s-18.36-3.15-22,14.16,14.16,21.5,14.16,21.5l23.08,10.48-35.66,81.67s49.55,21.23,64.49,34.21,9.05,29.1,9.05,29.1L285.33,416c-4.05,10.6-17.52,20.44-28,11.39a18.47,18.47,0,0,1-5.48-18.73l14.27-53.84-74.9-34.95S138.79,294.92,175,221.25Z"/><line class="cls-1" x1="244.23" y1="92.65" x2="244.23" y2="92.64"/><path class="cls-2" d="M296.11,91.71l3.14-15.2,16-.53L331,75.46C317.39,44,272.23,28.27,253.35,42.94s-16.77,39.33-16.77,39.33L244,86.63l56.16,32.84,20.36,11.91,3.6-22.37-9.77-6Z"/><path class="cls-2" d="M303.15,90.67l12.67,8.39a36.94,36.94,0,0,0,.58-19.15H305.26Z"/><path class="cls-3" d="M228.64,478.13c-9.38-42.39-48.77-75.67-94-75.67a94.66,94.66,0,0,0,0,189.31c42.33,0,79.75-32.5,91.85-70.83l-33.72.32a62.93,62.93,0,1,1-58.13-87.07c26.07,0,50,20.57,59.55,43.15Z"/><path class="cls-3" d="M472.62,424c-33.88,27.15-43.19,74-23.21,114.61A94.65,94.65,0,0,0,619.24,455c-18.7-38-64.39-58.75-104.12-52.68L533.45,434c24.61-1.57,45.75,11.51,57.32,35a62.92,62.92,0,1,1-112.89,55.6c-11.52-23.39-3.64-53.94,12.4-72.49Z"/></svg>