<svg id="Layer_1" data-name="Layer 1" xmlns="http://www.w3.org/2000/svg" viewBox="0 0 656.86 702.43"><defs><style>.cls-1{fill:#2e3192;}.cls-2{fill:#ef4136;}.cls-3{fill:#f7941d;}.cls-4{fill:#009444;}.cls-5{fill:none;stroke:#009444;stroke-miterlimit:10;stroke-width:18px;}</style></defs><title>Artboard 24</title><path class="cls-1" d="M276.76,568.28c-117.11-269,74.34-267.82,74.34-267.82-8.06-7.94-65.91-58.38-107.51-62.59l-28.3,21.54-41-33.53-33.53-3.73-14.9,26.07L140.77,278l33.53,22.34-22.36,48.45-37.25-3.73L81.16,363.73v22.35L111,404.71h41l3.73,44.71-33.53,11.17L96.06,494.13l11.18,26.08h41l33.54-22.36,18.62,26.09L178,550.57l-4.29,36.15,25.57,18.11,32.46-13.78,18.72-26Z"/><path class="cls-2" d="M405.3,229.6l29.8,26.08,35.68-23.43,34-6.93,19.7,22.9-11.17,33.54-40.12,28,10.35,26.06S462.73,406.88,424,422.59C393.24,250.11,249,234,249,234l-12.68-38,8.8-29.75L276.17,158l21.08,23.16,11.17,33.53h37.26l9.91-39.61,23.07-16.27,25.83,9.34,1.6,27.32-8.57,26.68Z"/><path class="cls-3" d="M505.89,408.43l-3.72,37.26,39.44,16,16.45,36.18-11.18,18.63H509.62l-37.26-18.63-18.63,18.63,24,38.89-1.63,39.35L453.73,605.9l-29.8-18.63-22.36-29.8-44.7,18.62,1.07,33-16,30.32H315.88l-17-28.18-1.59-42.62L285,568.28c-25.2-53.16-31.78-98.2-31.78-98.2,167.6,75,235.52-129.31,235.52-129.31l9.66,8.06h48.44L573,363.73v29.8l-29.81,14.9Z"/><path class="cls-4" d="M573,334.2C-94.83,984,81.16,395.7,81.16,395.7l25.18,18.92S-42.33,919.54,554.64,331.2Z"/><circle class="cls-5" cx="569" cy="320.95" r="21.12"/><rect class="cls-4" x="60.35" y="31.81" width="61.42" height="66.61"/><rect class="cls-1" x="122.83" y="31.81" width="61.42" height="66.61"/><rect class="cls-2" x="185.32" y="31.81" width="61.42" height="66.61"/><rect class="cls-3" x="245.76" y="31.81" width="61.42" height="66.61"/></svg>