<svg id="Layer_1" data-name="Layer 1" xmlns="http://www.w3.org/2000/svg" viewBox="0 0 627.6 645.1"><defs><style>.cls-1{fill:#594a42;}</style></defs><title>Artboard 18</title><path class="cls-1" d="M108.8,117.21c-41,41,17.6,166,130.82,279.19S477.83,568.19,518.81,527.22,501.2,361.24,388,248,149.77,76.24,108.8,117.21Zm383,354.61c-32.73,32.74-132.62-14.06-223.09-104.52S131.45,176.94,164.19,144.2s132.62,14.06,223.09,104.54S524.55,439.08,491.81,471.82Z"/><path class="cls-1" d="M58.37,458.69c27.41,51.05,164,31,305.06-44.71S596.65,235.46,569.23,184.4s-164-31-305,44.71S31,407.64,58.37,458.69Zm450-264.42C530.31,235.06,456.68,317.2,344,377.72s-221.87,76.51-243.77,35.72S151.92,290.52,264.65,230,486.5,153.48,508.41,194.27Z"/><path class="cls-1" d="M262.22,607.84c57,10.31,126.34-109.06,154.83-266.63s5.35-293.65-51.68-304S239,146.33,210.56,303.89,205.21,597.54,262.22,607.84ZM335.25,91c45.56,8.24,64.05,117,41.29,242.88S298.39,555.19,252.83,547s-64.05-117-41.28-242.89S289.69,82.77,335.25,91Z"/><path class="cls-1" d="M590.12,410.31C607.66,355.08,498.17,271,345.56,222.56S55,179.56,37.48,234.8s92,139.28,244.57,187.74S572.58,465.53,590.12,410.31ZM86.93,271.57c14-44.13,124.23-48.51,246.17-9.79s209.44,105.91,195.43,150-124.23,48.5-246.18,9.77S72.92,315.7,86.93,271.57Z"/></svg>