<svg id="Layer_1" data-name="Layer 1" xmlns="http://www.w3.org/2000/svg" viewBox="0 0 578.95 797.12"><defs><style>.cls-1{fill:#2e3192;}.cls-2{fill:#ef4136;}.cls-3{fill:#f7941d;}.cls-4{fill:#bcbec0;}.cls-5{fill:#006838;}.cls-6{fill:#009444;}</style></defs><title>Artboard 25</title><path class="cls-1" d="M239.17,556.29c-117.1-269,74.35-267.82,74.35-267.82-8.07-7.94-65.91-58.38-107.52-62.58l-28.3,21.53-41-33.53-33.53-3.73-14.9,26.08,14.9,29.81,33.53,22.35-22.35,48.44-37.25-3.73L43.58,351.74v22.35l29.8,18.63h41l3.72,44.71L84.55,448.61,58.48,482.14l11.17,26.09h41l33.53-22.36L162.8,512l-22.36,26.64-4.28,36.14,25.57,18.12,32.46-13.79,18.71-26Z"/><path class="cls-2" d="M367.72,217.62l29.8,26.07,35.67-23.43,34.05-6.93,19.7,22.91-11.17,33.54-40.12,28L446,323.82s-20.85,71.07-59.63,86.78c-30.71-172.48-175-188.55-175-188.55l-12.67-38,8.79-29.75L238.58,146l21.09,23.15,11.17,33.53H308.1L318,163.09l23.06-16.26,25.83,9.34,1.61,27.32-8.57,26.67Z"/><path class="cls-3" d="M468.31,396.45l-3.73,37.26,39.45,16,16.44,36.19L509.3,504.5H472l-37.26-18.63L416.15,504.5l24,38.89-1.62,39.34-22.36,11.19-29.8-18.63L364,545.48,319.28,564.1l1.07,33-16,30.32H278.29l-17-28.18-1.58-42.61-12.22-.37c-25.19-53.15-31.78-98.2-31.78-98.2,167.6,75,235.52-129.31,235.52-129.31l9.66,8.06H509.3l26.07,14.9v29.81l-29.8,14.9Z"/><ellipse class="cls-4" cx="289.47" cy="697.52" rx="159.03" ry="34.55"/><path class="cls-5" d="M293.27,457.49c13.5.34,28.16-5.83,28.16-5.83V431c74-62.5-3-112.5-3-112.5V374l-27,16Z"/><path class="cls-6" d="M265.27,318.49v55.17L291.47,390l1.8,67.5a81.32,81.32,0,0,1-32.67-4.16V430.49S185.6,374.49,265.27,318.49Z"/><rect class="cls-4" x="43.7" y="43.73" width="57.97" height="57.97"/><rect class="cls-6" x="102.68" y="43.73" width="57.97" height="57.97"/><rect class="cls-5" x="161.65" y="43.73" width="57.97" height="57.97"/><rect class="cls-1" x="219.62" y="43.73" width="57.97" height="57.97"/><rect class="cls-2" x="278.6" y="43.73" width="57.97" height="57.97"/><rect class="cls-3" x="337.58" y="43.73" width="57.97" height="57.97"/></svg>