<svg id="Layer_1" data-name="Layer 1" xmlns="http://www.w3.org/2000/svg" xmlns:xlink="http://www.w3.org/1999/xlink" viewBox="0 0 513.36 685.43"><defs><style>.cls-1{fill:url(#radial-gradient);}.cls-2{fill:#594a42;}.cls-3{fill:none;stroke:#be1e2d;stroke-miterlimit:10;stroke-width:5px;}.cls-4{fill:url(#radial-gradient-2);}</style><radialGradient id="radial-gradient" cx="440.74" cy="349.95" r="227.5" gradientTransform="translate(697.42 757.3) rotate(180)" gradientUnits="userSpaceOnUse"><stop offset="0.21" stop-color="#fff33b"/><stop offset="0.24" stop-color="#fee72e"/><stop offset="0.3" stop-color="#fed51b"/><stop offset="0.36" stop-color="#fdca10"/><stop offset="0.42" stop-color="#fdc70c"/><stop offset="0.58" stop-color="#f59b39"/><stop offset="0.65" stop-color="#f4963c"/><stop offset="0.77" stop-color="#f3903f"/><stop offset="0.86" stop-color="#ed683c"/><stop offset="0.99" stop-color="#e93e3a"/></radialGradient><radialGradient id="radial-gradient-2" cx="56.11" cy="51.76" r="21.91" gradientTransform="matrix(1, 0, 0, 1, 0, 0)" xlink:href="#radial-gradient"/></defs><title>Artboard 32</title><path class="cls-1" d="M318.1,205.42s82.09,158.76,84.78,196.92c11,155.93-147.43,163.24-147.43,163.24C106.75,551,110.51,436.45,106.85,402.34S191.1,205.42,191.1,205.42s-28.21,0-55-30.48c0,0,55.22,97.26-54.42,93,0,0-11.37,15.64-28.42,61.32,0,0,57.26,49.95-17.06,79.18,0,0-7.3,35.33,6.1,70.66,0,0,80.4-3.65,39,74.31,0,0,19.49,34.11,56,48.73,0,0,60.91-59.69,71.87,31.67,0,0,52.38,13.4,90.15,0,0,0,13.4-85.27,78-32.89,0,0,30.46-13.4,54.82-48.73,0,0-47.51-65.78,31.68-69.43,0,0,21.93-17.06,13.4-78,0,0-74.31-11-21.93-74.31,0,0,11-21.93-29.24-63.35,0,0-124.26,18.68-60.91-92.18C365.11,174.94,338.81,205.42,318.1,205.42Z"/><rect class="cls-2" x="199.19" y="187.29" width="114.99" height="20.49" rx="10.25"/><path class="cls-2" d="M303.93,186h-94.5c-5.65-1-10.24-5.59-10.24-11.25h0a10.25,10.25,0,0,1,10.24-10.24h94.5a10.24,10.24,0,0,1,10.24,10.24h0C314.17,180.39,309.59,185,303.93,186Z"/><rect class="cls-2" x="221.19" y="127.2" width="73" height="29.58" rx="12.53"/><rect class="cls-2" x="199.19" y="142.2" width="114.99" height="20.49" rx="10.25"/><polyline class="cls-3" points="221.19 238.36 221.19 313.36 161.17 373.39"/><polyline class="cls-3" points="294.19 238.36 294.19 312.36 346.17 373.39"/><line class="cls-3" x1="191.18" y1="343.38" x2="294.18" y2="446.38"/><line class="cls-3" x1="320.59" y1="343.36" x2="292.38" y2="371.58"/><line class="cls-3" x1="257.69" y1="409.89" x2="191.69" y2="475.88"/><circle class="cls-3" cx="156.17" cy="379.35" r="7"/><circle class="cls-3" cx="289.19" cy="376.39" r="7"/><circle class="cls-3" cx="297.38" cy="450.88" r="7"/><circle class="cls-3" cx="189.69" cy="478.88" r="7"/><circle class="cls-3" cx="350.17" cy="380.36" r="7"/><rect class="cls-4" x="34.2" y="29.85" width="43.82" height="43.82"/><rect class="cls-2" x="78.78" y="29.85" width="43.82" height="43.82"/><rect class="cls-3" x="123.36" y="29.85" width="43.82" height="43.82"/></svg>