<svg id="Layer_1" data-name="Layer 1" xmlns="http://www.w3.org/2000/svg" viewBox="0 0 612 792"><defs><style>.cls-1{fill:#fbce51;}.cls-2{fill:#f1ba45;}</style></defs><title>Artboard 1</title><path class="cls-1" d="M299,739H325V725.42c173-26.06,234.48-198,234.48-198-24,25-124,70.87-124,70.87,31.27-27.1,41.69-58.36,36.48-45.85s-33.35,8.33-33.35,8.33C516.75,475.31,551.14,370.06,522,403.4s-77.12,65.66-77.12,65.66l11.47-31.27-28.14,15.63c61.48-86.49,62.53-187.58,47.94-150.06S425,360.68,425,360.68l5.21-30.23-25,21.89c36.48-65.65,30.22-169.87,30.22-169.87L384.4,272.1l2.08-31.27-39.6,37.52C343.76,143.92,300,147,300,147s15.63,33.35-2.09,56.28S282.27,270,282.27,270l-61.48-71.9,13.55,52.1c-47.94-79.2-55.24-71.9-55.24-71.9C165,235.75,192,299.18,200.6,317.14c1.53,3.22,2.47,5,2.47,5Z"/><path class="cls-2" d="M278.66,700.47C88,619.18,52.52,466,52.52,466c28.14,40.65,102.13,76.08,102.13,76.08L128.6,508.72l28.14,14.59C69.2,418.06,84.83,378.46,84.83,378.46c28.14,34.38,66.7,58.35,66.7,58.35l-9.38-25,24,14.59c-53.14-74-54.19-152.15-54.19-152.15,24,26.06,59.41,61.49,59.41,61.49L160.9,299.25l33.46,29.51Z"/><rect class="cls-1" x="119.08" y="28" width="83.08" height="83.08"/><rect class="cls-2" x="36" y="28" width="83.08" height="83.08"/></svg>