<svg id="Layer_1" data-name="Layer 1" xmlns="http://www.w3.org/2000/svg" viewBox="0 0 538.9 649.24"><defs><style>.cls-1{fill:#010101;stroke:#010101;stroke-miterlimit:10;stroke-width:1.22px;}.cls-2{fill:#fbce51;}.cls-3{fill:#f1ba45;}</style></defs><title>Artboard 3</title><circle class="cls-1" cx="269.45" cy="387.55" r="216"/><path class="cls-2" d="M261.86,574.16h16.49v-8.58c109.49-16.49,148.4-125.31,148.4-125.31-15.17,15.83-78.49,44.85-78.49,44.85,19.79-17.15,26.39-36.94,23.09-29s-21.11,5.27-21.11,5.27c49.47-54.08,71.23-120.69,52.77-99.59s-48.81,41.55-48.81,41.55l7.25-19.78-17.8,9.89c38.91-54.74,39.57-118.72,30.34-95s-32.32,36.27-32.32,36.27l3.3-19.12-15.83,13.85C352.22,287.92,348.26,222,348.26,222L316,278.68l1.32-19.78L292.2,282.64c-2-85.08-29.68-83.1-29.68-83.1s9.9,21.1-1.32,35.61-9.89,42.21-9.89,42.21L212.4,231.85l8.57,33C190.63,214.71,186,219.32,186,219.32c-9,36.36,8.18,76.5,13.6,87.87,1,2,1.57,3.15,1.57,3.15"/><path class="cls-3" d="M195.32,314.5l-21.18-18.67,6.6,23.08S158.32,296.49,143.15,280c0,0,.66,49.47,34.29,96.29l-15.17-9.23,5.94,15.83S143.81,367.72,126,346c0,0-9.9,25.07,45.51,91.68L153.7,428.4l16.49,21.1s-46.83-22.42-64.64-48.14c0,0,22.43,96.95,143.12,148.39"/><rect class="cls-2" x="103.69" y="28" width="67.69" height="67.69"/><rect class="cls-3" x="36" y="28" width="67.69" height="67.69"/><rect class="cls-1" x="171.38" y="28" width="67.69" height="67.69"/></svg>