<svg id="Layer_1" data-name="Layer 1" xmlns="http://www.w3.org/2000/svg" xmlns:xlink="http://www.w3.org/1999/xlink" viewBox="0 0 1529 1080"><defs><style>.cls-1,.cls-8{fill:#0e621b;}.cls-10,.cls-2{fill:#829b44;}.cls-3{fill:#fae885;}.cls-4{opacity:0.3;}.cls-5{fill:url(#linear-gradient);}.cls-6{fill:url(#linear-gradient-2);}.cls-7{fill:url(#linear-gradient-3);}.cls-8{font-size:130.87px;}.cls-10,.cls-8{font-family:Rockwell-Bold, Rockwell;font-weight:700;}.cls-9{letter-spacing:-0.02em;}.cls-10{font-size:96.56px;}</style><linearGradient id="linear-gradient" x1="34" y1="501.09" x2="608.53" y2="501.09" gradientUnits="userSpaceOnUse"><stop offset="0" stop-color="#fff"/><stop offset="1" stop-color="#fae885" stop-opacity="0.6"/></linearGradient><linearGradient id="linear-gradient-2" x1="36.08" y1="577.41" x2="607.13" y2="577.41" xlink:href="#linear-gradient"/><linearGradient id="linear-gradient-3" x1="72.91" y1="540" x2="521.83" y2="540" xlink:href="#linear-gradient"/></defs><rect class="cls-1" x="34" y="31" width="69" height="69"/><rect class="cls-2" x="103" y="31" width="69" height="69"/><rect class="cls-3" x="172" y="31" width="69" height="69"/><path class="cls-2" d="M384.91,209.11q-9.66-.56-19.46-.56c-6.95,0-13.87.2-20.71.64A331.49,331.49,0,0,0,34,540a334.88,334.88,0,0,0,2.08,37.41A330.05,330.05,0,0,0,52,647.88C96.71,778,220.17,871.45,365.45,871.45q9.8,0,19.46-.56a329.46,329.46,0,0,0,136.92-38.57V739.71a252.55,252.55,0,0,1-136.92,53.2c-6.42.48-12.92.73-19.46.73q-9.18,0-18.19-.64C240.49,785.43,152,711.77,122.38,612.7A253.82,253.82,0,0,1,111.81,540c0-140.08,113.57-253.64,253.64-253.64,6.54,0,13,.25,19.46.73a252.49,252.49,0,0,1,136.92,53.2V247.68A329.42,329.42,0,0,0,384.91,209.11Zm222,483.52.2-.27V692C607.07,692.21,607,692.42,606.93,692.63Z"/><g class="cls-4"><path class="cls-5" d="M384.91,209.11q-9.66-.56-19.46-.56c-6.95,0-13.87.2-20.71.64q9.17.65,18.11,1.93a253.35,253.35,0,0,1,159,89.2V247.68A329.42,329.42,0,0,0,384.91,209.11ZM607.13,387.64V388c.47.5.94,1,1.4,1.5C608.07,388.88,607.62,388.25,607.13,387.64ZM122.38,612.7c-3.5-4.75-6.86-9.63-10-14.61a252,252,0,0,1-36.87-99.6,257,257,0,0,1-2.57-36.3c0-1.11,0-2.23,0-3.34a252.55,252.55,0,0,1,40.15-133.69A330,330,0,0,0,34,540a334.88,334.88,0,0,0,2.08,37.41L52,647.88a333,333,0,0,0,82.36,84.35c3.28,2.33,6.6,4.62,10,6.84a329.88,329.88,0,0,0,182.26,54.57q10.44,0,20.71-.64C240.49,785.43,152,711.77,122.38,612.7Z"/></g><g class="cls-4"><path class="cls-6" d="M365.45,286.36c6.54,0,13,.25,19.46.73a252.49,252.49,0,0,1,136.92,53.2V322.51a328.77,328.77,0,0,0-111.05-36.06,332.48,332.48,0,0,0-45.33-3.08c-112.87,0-212.56,56.41-272.4,142.59a329.66,329.66,0,0,0-57,151.45L52,647.88C96.71,778,220.17,871.45,365.45,871.45q9.8,0,19.46-.56a329.46,329.46,0,0,0,136.92-38.57v-17.8a252.52,252.52,0,0,1-156.38,53.94q-3.22,0-6.41-.09A253.53,253.53,0,0,1,111.81,614.82q0-8.45.54-16.73.7-10.46,2.2-20.68A255.09,255.09,0,0,1,111.81,540C111.81,399.92,225.38,286.36,365.45,286.36ZM606.93,692.63l.2-.27V692C607.07,692.21,607,692.42,606.93,692.63Z"/></g><g class="cls-4"><path class="cls-7" d="M365.45,286.36c6.54,0,13,.25,19.46.73q9.63-.72,19.45-.73,3.24,0,6.42.09a252.62,252.62,0,0,1,111.05,28.68V247.68a329.42,329.42,0,0,0-136.92-38.57q-11.13.63-22.06,2C238.14,226.7,135,311.56,93.05,426a329.16,329.16,0,0,0-17.57,72.53A331.57,331.57,0,0,0,359,868.37q12.78,1.77,25.87,2.52a329.46,329.46,0,0,0,136.92-38.57V764.84a252.34,252.34,0,0,1-117.47,28.8q-9.81,0-19.45-.73c-5.67-.44-11.3-1-16.85-1.84-6.87.85-13.8,1.51-20.8,1.93C240.49,785.43,152,711.77,122.38,612.7A253.82,253.82,0,0,1,111.81,540C111.81,399.92,225.38,286.36,365.45,286.36Z"/></g><path class="cls-1" d="M607.13,313.17V692c-.06.2-.14.41-.2.62l.2-.27v74.48a334.15,334.15,0,0,1-40.41,36.54V276.65A330.85,330.85,0,0,1,607.13,313.17Z"/><path class="cls-1" d="M607.13,692v.35l-.2.27C607,692.42,607.07,692.21,607.13,692Z"/><ellipse class="cls-1" cx="663.99" cy="397.84" rx="96.28" ry="34.42" transform="translate(-58.76 674.95) rotate(-51.91)"/><ellipse class="cls-1" cx="427.3" cy="470.32" rx="60.94" ry="146.44" transform="matrix(0.52, -0.85, 0.85, 0.52, -197.26, 587.41)"/><text class="cls-8" transform="translate(733.42 537.23)">MEDI<tspan class="cls-9" x="384.44" y="0">C</tspan><tspan x="484" y="0">ARE</tspan></text><text class="cls-10" transform="translate(733.42 626.28)">natural practice</text></svg>