<svg id="Layer_1" data-name="Layer 1" xmlns="http://www.w3.org/2000/svg" viewBox="0 0 625.31 625.31"><defs><style>.cls-1{fill:#58595b;}.cls-2{fill:#6d6e71;}.cls-3{fill:#808285;}.cls-4{fill:#939598;}.cls-5{fill:#bcbec0;}.cls-6{fill:#f1f2f2;}.cls-7{fill:#231f20;}.cls-8{fill:none;}.cls-9{fill:#fff200;}.cls-10{fill:#ffdf00;}</style></defs><title>Artboard 12</title><path class="cls-1" d="M592.45,171.26V454a138.23,138.23,0,0,1-16.08,64.83,387.63,387.63,0,0,1-167.53,44q-3.4.12-6.82.17t-6.92.07c-1.53,0-3.05,0-4.58,0-3.42,0-6.83-.12-10.23-.25-73.1-2.68-140.75-25.18-197-62q-3.28-2.14-6.53-4.36c-1.72-1.18-3.43-2.36-5.12-3.57h0q-5.64-4-11.1-8.19h0C101.37,439.5,57.36,377.48,36.61,306.34a3.31,3.31,0,0,1-.12-.42h0q-2-6.72-3.64-13.54V171.26A138.46,138.46,0,0,1,150.5,34.39a140.61,140.61,0,0,1,20.76-1.54H454A138.41,138.41,0,0,1,592.45,171.26Z"/><path class="cls-2" d="M592.45,171.26V438.13c-1.73,1.34-3.48,2.67-5.24,4q-6,4.48-12.24,8.67A317.75,317.75,0,0,1,465.5,497.28q-13,2.85-26.4,4.63a333.13,333.13,0,0,1-85.63.31h0q-11-1.38-21.68-3.48h0a318.1,318.1,0,0,1-112.65-45.4q-3.3-2.14-6.54-4.36C135.41,396,85.31,310.24,85.31,213.37c0-67.5,24.33-129.61,65.19-179a140.61,140.61,0,0,1,20.76-1.54H454A138.41,138.41,0,0,1,592.45,171.26Z"/><path class="cls-3" d="M592.45,171.26V354.5a241.06,241.06,0,0,1-37.37,37,249.07,249.07,0,0,1-28.14,19.37h0A262,262,0,0,1,277,418.47h0a251.93,251.93,0,0,1-28.55-17C187.08,359,147.27,290.6,147.27,213.37c0-72.81,35.38-137.78,90.87-180.52H454A138.41,138.41,0,0,1,592.45,171.26Z"/><ellipse class="cls-4" cx="395.1" cy="213.37" rx="185.87" ry="174.88"/><ellipse class="cls-5" cx="395.1" cy="213.37" rx="123.91" ry="116.58"/><ellipse class="cls-6" cx="395.1" cy="213.37" rx="61.96" ry="58.29"/><path class="cls-7" d="M36.49,305.91h0l-3.64,6.16V292.37Q34.53,299.2,36.49,305.91Z"/><path class="cls-8" d="M592.45,171.26V454A138.31,138.31,0,0,1,454,592.45H171.26a137.91,137.91,0,0,1-50-9.33q-3.78-1.46-7.45-3.15A138.43,138.43,0,0,1,32.85,454v-142l3.64-6.16h0q-2-6.72-3.64-13.54V171.26A138.46,138.46,0,0,1,150.5,34.39a140.61,140.61,0,0,1,20.76-1.54H454A138.41,138.41,0,0,1,592.45,171.26Z"/><path class="cls-9" d="M219.84,592.45H171.26a137.91,137.91,0,0,1-50-9.33q-3.78-1.46-7.45-3.15A138.43,138.43,0,0,1,32.85,454v-142l3.64-6.16h0l24.36-41.27L171.58,493h0l3.06,6.31,3.84,7.92Z"/><path class="cls-9" d="M592.45,450.34V454A138.31,138.31,0,0,1,454,592.45H351.72l28.57-29.61,5.14-5.32,9.52-9.86,44.15-45.75,87.83-91h0l24.39-25.28,3.75,5.91,32.13,50.57Z"/><path class="cls-9" d="M435.83,592.45H171.26a137.91,137.91,0,0,1-50-9.33q-3.78-1.46-7.45-3.15L170.3,505l4.35-5.76,2.06-2.74L212.58,449l35.88-47.55,5.88-7.8L277,418.47h0l76.44,83.75h0L395,547.66l10.65,11.68,3.24,3.54Z"/><path class="cls-10" d="M417.32,592.45H171.26a137.91,137.91,0,0,1-50-9.33L174.14,513l4.35-5.76,4.75-6.3,35.88-47.55,32.22-42.71,80.43,88.11h0l53.65,58.78,5.09,5.57,5.57,6.1Z"/><path class="cls-10" d="M590.77,475.65A138.31,138.31,0,0,1,454,592.45H373.65l22.44-23.26,5.93-6.14,3.58-3.71,59.9-62.06,83.83-86.86L575,450.77Z"/><path class="cls-10" d="M212.7,592.45H171.26a137.91,137.91,0,0,1-50-9.33q-3.78-1.46-7.45-3.15A138.43,138.43,0,0,1,32.85,454V312.71l3.76-6.37L57.1,271.63,160.47,484.76h0L170.3,505l3.84,7.92Z"/></svg>