<svg id="Layer_1" data-name="Layer 1" xmlns="http://www.w3.org/2000/svg" viewBox="0 0 516.46 637.86"><defs><style>.cls-1{fill:#231f20;}.cls-17,.cls-2{fill:#fff;}.cls-3,.cls-4{fill:#efe7ce;}.cls-10,.cls-11,.cls-12,.cls-13,.cls-15,.cls-17,.cls-3,.cls-5,.cls-6,.cls-7,.cls-8,.cls-9{stroke:#231f20;}.cls-10,.cls-11,.cls-12,.cls-13,.cls-14,.cls-15,.cls-17,.cls-3,.cls-5,.cls-6,.cls-7,.cls-8,.cls-9{stroke-miterlimit:10;}.cls-10,.cls-11,.cls-12,.cls-13,.cls-15,.cls-3,.cls-5,.cls-8,.cls-9{stroke-width:5px;}.cls-14,.cls-5,.cls-6,.cls-7{fill:none;}.cls-6{stroke-width:4px;}.cls-8{fill:#dd9dc6;}.cls-21,.cls-9{fill:#9e80ba;}.cls-10,.cls-20{fill:#da9cc6;}.cls-11,.cls-18{fill:#ea844e;}.cls-12,.cls-16{fill:#f7c01d;}.cls-13{fill:#f5c11b;}.cls-14{stroke:#fff;stroke-width:2px;}.cls-15,.cls-19{fill:#99d9ec;}.cls-17{stroke-width:0.25px;}</style></defs><path class="cls-1" d="M140.91,555.41s-8.87,2.65-9.2,20.48c0,0,2.16,3.33,4.16,4s6.5,2.31,37,2.31c0,0,4.67-3.64,5.84-4.81s6.16-10.83,7.16-15c0,0-1.16-6.67-4.66-6.94C168,554.18,142.45,553.72,140.91,555.41Z"/><path class="cls-2" d="M150.4,565.72s-3.13-2.25.87-3.62c0,0,1.38-1.19-.56-1.88a7.21,7.21,0,0,0-4.06,0s-2.25,1.88-.75,3.07-3.44,1.31-3.44,1.31,2.75,4.19-1.44,5.19c0,0,1.19,1.56-1.31,4s6.56,2.12,6.56,1.93-3.37-4.25,1.81-5.25C148.08,570.47,145.27,567.1,150.4,565.72Z"/><path class="cls-1" d="M377.21,554.45s30.08.11,35.08-3.14c0,0,5.75,3.75,7.33,7.08s3.59,10.58,3.5,15.42-22.25,5.91-36.25,4c0,0-6.08-1.42-6.83-2.34s-2.75-2.91-5.83-15.5l-5.13-5.12Z"/><path class="cls-2" d="M390.33,559.1c.14-.22-4.81-.75-6.06,0s-4.06,3.62.5,4.81c0,0-2.56,4.38,2.31,4.75,0,0-5.08,6.25,9,4.44,0,0-3.73-2.81,0-5.25,0,0-5.4-2.06-1.46-4.88C394.65,563,388.33,562.35,390.33,559.1Z"/><path class="cls-1" d="M394,193.06s-3.83-.34-6.17.66-13,8-13,8-4.55,8.17,7.39,35.5c0,0,20.61-7.83,22.61-15.5C408.77,206.78,394,193.06,394,193.06Z"/><path class="cls-2" d="M378.54,208.89l12.17-7.83v-3.67S375.37,202.22,378.54,208.89Z"/><path class="cls-3" d="M139.25,305.16c-32.43,32.19-34.37,44.56-34.37,44.56,5.66,21.33,13.33,26.33,13.33,26.33s12,2.34,23.33-.33,25.34-10.33,25.34-10.33c27.66,60.33,34.33,53.33,6.66,117.33s-28,71.59-28,71.59l35.7,1.13c2.33-16.39,5.92-17,72.13-52.51,0,0,77.54-10.21,119.87,51.71,0,0,32.86-1.23,38.93-3.29-.85.26-5.26,1.29-8.18-3.88-3.25-5.75-47.25-87-47.25-87L339,426.22c-.09-.33-19.65-31.85-35-104.56,0,0,53.32-62.94,78.26-84.44,0,0-11.55-23-8.05-34.5,0,0-88.7,52.88-99.2,65.38l-13.13-23.05s10.33-16.33-34.34-64.66c0,0-2.33-12.67-7-22.67,0,0-4.33-11.33-4-16.67s-12.66-14-18-3.66-20,36.33-11.33,45.33c0,0-6.67,32.33,19.67,48.33,0,0-13.34,9.34-24.67,4.67,0,0,3.33,17.67,29.67,23.5,0,0-29,19.16-45.33,0,.27.83,10.29,31.48,7.33,31.48a88.47,88.47,0,0,1-14.35-1.91Z"/><path class="cls-3" d="M159.13,346.22c7.6-6,37.45-26.55,74.75-14.5,0,0,5-24.33,8-29.33"/><path class="cls-3" d="M139.25,305.16c-1.5-2.22-2.89-3.61-4-3.77-6.92-.94-15.67-13.67-13.33-19.67,1.2-3.09.54-11.13-.37-18.2a30.92,30.92,0,0,1-2-12.47s1.1,5.8,2,12.47c5.69,14.85,22.55,21.68,35.65,24.76l2.37.53"/><line class="cls-4" x1="139.25" y1="305.16" x2="157.16" y2="288.28"/><path class="cls-1" d="M137.53,303.34a23.47,23.47,0,0,0,5.8-2.81,37,37,0,0,0,4.87-3.81,32.26,32.26,0,0,0,4.14-4.58,21.08,21.08,0,0,0,3.1-5.68l3.43,3.64a21.49,21.49,0,0,0-5.85,2.77,31.06,31.06,0,0,0-4.81,3.86,36.9,36.9,0,0,0-4.09,4.63A23.38,23.38,0,0,0,141,307Z"/><path class="cls-5" d="M138.54,296.06s3,14.66,17,1.66"/><line class="cls-6" x1="231.54" y1="506.72" x2="253.34" y2="502.93"/><path class="cls-5" d="M253.54,273.39s7.31-23.64,8.33-28.33c0,0,3.4-31.84-35.13-62.34"/><polyline class="cls-7" points="261.88 245.06 275.01 268.1 271.21 273.39"/><path class="cls-5" d="M187.21,182.72c1.95,14.14,8,18.34,8,18.34"/><path class="cls-5" d="M206.54,286.72s12,16,15.67-3.33"/><path class="cls-5" d="M216.71,201.06s4-13,0-20.67-10.17-7.17-10.17-7.17-10,4.33-7.67,13.92,7.67,13.92,7.67,13.92"/><path class="cls-8" d="M234,479.22l41-3.5,18.2-10,7-9.5s2-18,2.5-19.5.5-40-24-75.5-47.17-14.71-47.17-14.71,0,23.89-40.33,25.06c0,0-6,11.65,12,36.15C203.21,407.72,201.83,475.22,234,479.22Z"/><path class="cls-9" d="M339,426.22s34.89,46.5,66.57,19.5l-5.82,11s39-2.5,42.5-30.5c0,0,5,4.5,4,18,0,0,13.76-11.5.13-38,0,0,44.18,33.5,6,71.5,0,0,7.21,5,15.53-4.5,0,0,4.15,26.28-50.68,12,0,0,2.84,7,5.92,10.5,0,0-3.92,2-24.92-12,0,0-33.79-8.81-38.83-18.32S339,426.22,339,426.22Z"/><path class="cls-10" d="M231.54,346.51c-24.35,16.55-36.83,21.21-40.33,25.06s0,12.84,0,12.84c13-12.32,31,28.31,31,28.31,37.5,48,72-21.49,72-21.49S269.37,320.79,231.54,346.51Z"/><path class="cls-11" d="M119.52,248.72s8.69,38.5-2.81,42.5c0,0-9.67-17.5-11.84-36,0,0-5.16,5.3-4.66,8.65,0,0-6.57-2.31,0-55l2-5.75s-2,14.58,7.76,15.08c0,0,3.15,14.5,12.69,14s21.65-.72,22.85-17.11-9.3-27.39-17.8-24.39c0,0-2-14.5-13-13,0,0,7.6-22,30.8-30v7.5s17.53-13.5,33.36-15l-1.1,8.5s12.44-6.86,17.44-4.93c0,0-15.17,27.77-9.59,36.6s-7.25,31.33,20.92,48.33c0,0,3.67,9-24.33,7a39,39,0,0,0,29.66,23.5s-27,18-45.33,0l7.33,31.5S119.82,291.22,119.52,248.72Z"/><path class="cls-12" d="M62.21,155.72s-12-6.82-14.5-23.16S75.71,149.72,62.21,155.72Z"/><path class="cls-12" d="M75.21,173.22s14.42-14.5-9.54-29.5c0,0,2,12-3.46,12C62.21,155.72,65.21,172.21,75.21,173.22Z"/><path class="cls-12" d="M87.21,187.14s15-6.75,3.5-26.42c-8.82-15.07-12.87-5-12.87-5s5.37,10.49-2.63,17.5C75.21,173.22,80.21,190.05,87.21,187.14Z"/><path class="cls-12" d="M102.21,203.14s17.18-29.42-7.16-35.92c0,0,2.66,18.83-7.84,19.92C87.21,187.14,94.71,208.56,102.21,203.14Z"/><path class="cls-12" d="M110,218.22s17.61,4.77,17.74-27.5c0,0,0-20.39-19.62-10.33,0,0-1.64,22.25-5.88,22.75C102.21,203.14,101.36,219.74,110,218.22Z"/><path class="cls-12" d="M119.52,231.81s10.3,3.16,16.55-1.67,21.14-36.42-8.36-39.42c0,0,2,30.5-17.74,27.5C110,218.22,112.82,232.39,119.52,231.81Z"/><path class="cls-3" d="M89.15,191.89c-.67-2.89-14.94-9.84-29.44-4.75s19.8,21.75,19.8,21.75-4.16,2.53,17.77,23.93c0,0,.67-19.68,4.93-29.68C102.21,203.14,92.6,206.56,89.15,191.89Z"/><path class="cls-5" d="M85.13,206.22s9.54,1.37,14.56,5.55"/><path class="cls-13" d="M337.37,283.39a64.05,64.05,0,0,0,31.71,19.71c20.13,5.12-26.06,7.37-31.71,0s8.09,21.6,31.71,37.36c0,0-21.37,2.26-30.12-3.74,0,0,5.75,26.69,3.75,34.85s12.4,23.65,12.4,23.65c1.06-.11-33.95,6.57-48.15-76.75Z"/><path class="cls-2" d="M138.54,222.47S136,210,127.71,206.22V198S150.62,208.22,138.54,222.47Z"/><path class="cls-2" d="M111,191.89v-6.56s16.75,5.23,12,17.81C123,203.14,115.46,190.62,111,191.89Z"/><path class="cls-2" d="M104.87,190.72c1.83-18.2-7.59-17.5-7.59-17.5v4.38S104.58,193.69,104.87,190.72Z"/><path class="cls-2" d="M90.46,177.6c.89-15.84-9-17.88-9-17.88v7.5Z"/><path class="cls-2" d="M75.21,165.22s5.5-8.25-8-16.25v5S73.71,159,75.21,165.22Z"/><path class="cls-2" d="M54,141.92s7.75,5.55,8.25,9.05c0,0-2-12-10.5-14Z"/><path class="cls-1" d="M187.21,262.06s-7.08-1.51-11.67,4-16.67,18.62-16.67,18.62,13.34,40.34,21,34.34,19-21.48,19-21.48-.66-18.56-10-35.71"/><path class="cls-14" d="M183.21,290.77c-1.34-.71-4.71-11.14-4.34-19.38"/><path class="cls-2" d="M178.85,288.39l-4.31-10.33s-1,3.16-3,1.71c0,0-.79,7.16-4.75,3.45l-.92,5.8s2.63-3.63,5.5.2C171.33,289.22,170.78,280.1,178.85,288.39Z"/><path class="cls-10" d="M226.78,360.84s-28.66,22.33-59.33,5.67c0,0-9.58-7.57-9.63-17.62,0,0,35.8-29.55,76.63-16.05C234.45,332.84,236.28,340.84,226.78,360.84Z"/><ellipse class="cls-1" cx="209.37" cy="353.67" rx="5.58" ry="2.67"/><ellipse class="cls-1" cx="178.35" cy="359.34" rx="5.43" ry="3"/><path class="cls-3" d="M178.35,319.06S164.54,340.27,146,351"/><path class="cls-15" d="M227.54,180.39c48.58,45.42,35.55,64.67,35.55,64.67l11.92,23,33.67-24.66-16.47-22.72,16.47,4.5-37.47-27.83s-16.17-17.33-9.34-17a33.47,33.47,0,0,1,11.24,2.33s-20.94-22-30.67-21,12.56,0,12.56,0S229.79,142.83,217.5,148c0,0,11.87,27.53,10,32.36-4.26,11.24-1.33,18.33-1.33,20.67"/><rect class="cls-16" x="38.61" y="23.44" width="39.06" height="39.06"/><rect class="cls-17" x="78.35" y="23.44" width="39.06" height="39.06"/><rect class="cls-18" x="118.09" y="23.44" width="39.06" height="39.06"/><rect class="cls-4" x="157.15" y="23.44" width="39.06" height="39.06"/><rect class="cls-19" x="196.21" y="23.44" width="39.06" height="39.06"/><rect class="cls-20" x="235.95" y="23.44" width="39.06" height="39.06"/><rect class="cls-1" x="275.69" y="23.44" width="39.06" height="39.06"/><rect class="cls-21" x="314.75" y="23.44" width="39.06" height="39.06"/></svg>