<svg id="Layer_1" data-name="Layer 1" xmlns="http://www.w3.org/2000/svg" viewBox="0 0 517.41 800.55"><defs><style>.cls-1{fill:#2e3192;}.cls-2{fill:#ef4136;}.cls-3{fill:#f7941d;}.cls-4{fill:#bcbec0;}</style></defs><title>Artboard 23</title><path class="cls-1" d="M211.75,534.2c-109.31-251.07,69.39-250,69.39-250-7.52-7.41-61.52-54.49-100.35-58.42l-26.42,20.1-38.26-31.3-31.3-3.48L70.9,235.44l13.91,27.83,31.3,20.86L95.24,329.35l-34.77-3.48-31.3,17.39v20.86L57,381.51H95.24l3.48,41.74-31.3,10.43L43.08,465l10.43,24.35H91.77l31.3-20.87,17.39,24.35-20.87,24.86-4,33.74,23.87,16.91,30.3-12.87,17.47-24.25Z"/><path class="cls-2" d="M331.74,218.06l27.82,24.34,33.3-21.87,31.78-6.47L443,235.44,432.6,266.75l-37.45,26.12,9.66,24.33s-19.47,66.34-55.67,81c-28.66-161-163.33-176-163.33-176L174,186.7l8.21-27.77,29-7.7,19.68,21.61,10.43,31.3h34.78l9.25-37L306.87,152,331,160.7l1.5,25.5-8,24.9Z"/><path class="cls-3" d="M425.64,385l-3.48,34.78L459,434.68l15.35,33.78L463.9,485.85H429.12l-34.78-17.39L377,485.85l22.39,36.3-1.52,36.73L377,569.32l-27.82-17.39-20.87-27.82-41.73,17.38,1,30.83-14.92,28.3H248.27l-15.91-26.3-1.48-39.78-11.4-.34c-23.52-49.62-29.67-91.66-29.67-91.66,156.45,70,219.85-120.71,219.85-120.71l9,7.52H463.9l24.34,13.91v27.82L460.42,385Z"/><ellipse class="cls-4" cx="258.7" cy="666.03" rx="148.45" ry="32.25"/><rect class="cls-3" x="41" y="27.98" width="43.82" height="43.82"/><rect class="cls-1" x="85.58" y="27.98" width="43.82" height="43.82"/><rect class="cls-2" x="130.16" y="27.98" width="43.82" height="43.82"/><rect class="cls-4" x="173.98" y="27.98" width="43.82" height="43.82"/></svg>