<svg id="Layer_1" data-name="Layer 1" xmlns="http://www.w3.org/2000/svg" viewBox="0 0 620.51 450.77"><defs><style>.cls-1,.cls-2{fill:#231f20;}.cls-1,.cls-3{stroke:#231f20;}.cls-1,.cls-2,.cls-3{stroke-miterlimit:10;}.cls-2{stroke:#fff;}.cls-3{fill:none;}</style></defs><title>Artboard 10</title><path class="cls-1" d="M363.21,325.84s66.34-22.38-52.75-140.68c-119.09,118.3-52.75,140.68-52.75,140.68s-109.66-26.47-52-146.29c17.31-36,49.73-80.41,104.75-135.07C548.64,281.07,363.21,325.84,363.21,325.84Z"/><path class="cls-1" d="M256.05,340l-79.61,22.28a2.88,2.88,0,0,0-1.93,3.79l4.11,11.07a2.89,2.89,0,0,0,3.88,1.63L258,345.44a2.91,2.91,0,0,0,1.52-3.72h0A2.89,2.89,0,0,0,256.05,340Z"/><ellipse class="cls-2" cx="176.55" cy="371.58" rx="2.77" ry="9.01" transform="translate(-118.42 84.82) rotate(-20.39)"/><path class="cls-1" d="M293.08,323.24,255.76,397a2.9,2.9,0,0,0,1.49,4l10.95,4.43a2.88,2.88,0,0,0,3.82-1.75l26.38-78.21a2.9,2.9,0,0,0-1.72-3.63h0A2.89,2.89,0,0,0,293.08,323.24Z"/><ellipse class="cls-2" cx="262.69" cy="404.1" rx="2.77" ry="9.01" transform="translate(-210.5 495.71) rotate(-67.93)"/><path class="cls-1" d="M328.4,324.59l37.32,73.78a2.89,2.89,0,0,1-1.5,4l-10.94,4.44a2.9,2.9,0,0,1-3.83-1.76l-26.37-78.21a2.89,2.89,0,0,1,1.72-3.63h0A2.9,2.9,0,0,1,328.4,324.59Z"/><ellipse class="cls-2" cx="358.79" cy="404.55" rx="9.01" ry="2.77" transform="translate(-125.72 164.45) rotate(-22.07)"/><path class="cls-1" d="M365.87,339.48l79.62,22.28a2.89,2.89,0,0,1,1.93,3.79l-4.12,11.07a2.89,2.89,0,0,1-3.87,1.64l-75.51-33.35a2.89,2.89,0,0,1-1.51-3.72h0A2.9,2.9,0,0,1,365.87,339.48Z"/><ellipse class="cls-2" cx="445.37" cy="371.05" rx="9.01" ry="2.77" transform="translate(-57.63 659.2) rotate(-69.61)"/><line class="cls-3" x1="310.46" y1="44.48" x2="491.69" y2="220.5"/><line class="cls-3" x1="310.46" y1="44.48" x2="74.07" y2="323.01"/><path class="cls-1" d="M75.48,338h-13V317.89c0-1.13-1.34-1.3-1.34-2.43l4-.95,3.17.53,1.16-.53,3.34-.84s5.28,1.27,5.33,1.27c0,1.12-2.66,1.82-2.66,2.95Z"/><line class="cls-3" x1="310.22" y1="44.41" x2="546.61" y2="322.93"/><path class="cls-1" d="M546.21,337.92h13V317.81c0-1.12,1.33-1.29,1.33-2.42l-4-.95-3.17.53-1.16-.53-3.34-.85s-5.28,1.27-5.33,1.27c0,1.13,2.67,1.83,2.67,2.95Z"/><path class="cls-1" d="M491.69,236.84h13V216.73c0-1.13,1.34-1.3,1.34-2.43l-4-1-3.17.53s-1.14-.53-1.17-.53l-3.33-.85L489,213.77c0,1.13,2.66,1.83,2.66,3Z"/><line class="cls-3" x1="310.46" y1="44.48" x2="128.51" y2="220.88"/><path class="cls-1" d="M128.51,237.21h-13V217.1c0-1.13-1.33-1.3-1.33-2.42l4-1,3.17.53,1.16-.53,3.34-.84s5.28,1.27,5.33,1.27c0,1.12-2.67,1.82-2.67,2.95Z"/></svg>