<svg id="Layer_1" data-name="Layer 1" xmlns="http://www.w3.org/2000/svg" viewBox="0 0 574.35 574.35"><defs><style>.cls-1{fill:#c2b59b;}.cls-2,.cls-5{fill:#fff;}.cls-2{opacity:0.25;}.cls-3{fill:#231f20;}.cls-4{fill:#f57f20;}.cls-6{fill:#0c8140;}.cls-7{fill:#3953a4;}</style></defs><title>Artboard 15</title><path class="cls-1" d="M482.69,454.4a3.07,3.07,0,0,0,0-.42c0-.23,0-.47-.07-.7s-.07-.45-.12-.68A10.11,10.11,0,0,0,482,451a2.67,2.67,0,0,0-.09-.26c0-.1-.08-.18-.11-.27v9.05a12.17,12.17,0,0,0,.64-2.1c0-.23.09-.46.12-.68s.05-.47.07-.7a3.07,3.07,0,0,0,0-.42c0-.21,0-.42,0-.62S482.7,454.61,482.69,454.4Zm0,0a3.07,3.07,0,0,0,0-.42c0-.23,0-.47-.07-.7s-.07-.45-.12-.68A10.11,10.11,0,0,0,482,451a2.67,2.67,0,0,0-.09-.26c0-.1-.08-.18-.11-.27v9.05a12.17,12.17,0,0,0,.64-2.1c0-.23.09-.46.12-.68s.05-.47.07-.7a3.07,3.07,0,0,0,0-.42c0-.21,0-.42,0-.62S482.7,454.61,482.69,454.4Zm0,0a3.07,3.07,0,0,0,0-.42c0-.23,0-.47-.07-.7s-.07-.45-.12-.68A10.11,10.11,0,0,0,482,451a2.67,2.67,0,0,0-.09-.26c0-.1-.08-.18-.11-.27v9.05a12.17,12.17,0,0,0,.64-2.1c0-.23.09-.46.12-.68s.05-.47.07-.7a3.07,3.07,0,0,0,0-.42c0-.21,0-.42,0-.62S482.7,454.61,482.69,454.4Zm0,0a3.07,3.07,0,0,0,0-.42c0-.23,0-.47-.07-.7s-.07-.45-.12-.68A10.11,10.11,0,0,0,482,451a2.67,2.67,0,0,0-.09-.26c0-.1-.08-.18-.11-.27v9.05a12.17,12.17,0,0,0,.64-2.1c0-.23.09-.46.12-.68s.05-.47.07-.7a3.07,3.07,0,0,0,0-.42c0-.21,0-.42,0-.62S482.7,454.61,482.69,454.4ZM270.39,512v15.29h36.9V512q-9.23.75-18.66.76Q279.42,512.71,270.39,512Zm212.3-57.58a3.07,3.07,0,0,0,0-.42c0-.23,0-.47-.07-.7s-.07-.45-.12-.68A10.11,10.11,0,0,0,482,451a2.67,2.67,0,0,0-.09-.26c0-.1-.08-.18-.11-.27v9.05a12.17,12.17,0,0,0,.64-2.1c0-.23.09-.46.12-.68s.05-.47.07-.7a3.07,3.07,0,0,0,0-.42c0-.21,0-.42,0-.62S482.7,454.61,482.69,454.4Zm0,0a3.07,3.07,0,0,0,0-.42c0-.23,0-.47-.07-.7s-.07-.45-.12-.68A10.11,10.11,0,0,0,482,451a2.67,2.67,0,0,0-.09-.26c0-.1-.08-.18-.11-.27v9.05a12.17,12.17,0,0,0,.64-2.1c0-.23.09-.46.12-.68s.05-.47.07-.7a3.07,3.07,0,0,0,0-.42c0-.21,0-.42,0-.62S482.7,454.61,482.69,454.4Zm0,0a3.07,3.07,0,0,0,0-.42c0-.23,0-.47-.07-.7s-.07-.45-.12-.68A10.11,10.11,0,0,0,482,451a2.67,2.67,0,0,0-.09-.26c0-.1-.08-.18-.11-.27v9.05a12.17,12.17,0,0,0,.64-2.1c0-.23.09-.46.12-.68s.05-.47.07-.7a3.07,3.07,0,0,0,0-.42c0-.21,0-.42,0-.62S482.7,454.61,482.69,454.4Z"/><path class="cls-1" d="M502.15,491.72V454.38h24.7v-36.9h-24.7V380.59h24.7V343.7h-24.7V306.8h24.7V269.92h-24.7V233h24.7V196.14h-24.7v-36.9h24.7V122.36h-24.7V85.47h24.7V48.58H490V74.9H452.7V48.58H415.81V74.9H378.92V48.58H342V74.9H305.14V48.58H268.25V74.9H231.36V48.58h-36.9V74.9H157.57V48.58H120.69V74.9H83.8V48.58H46.9V85.47H70v37.35H47v36.89H70V196.6H47v36.89H70v36.89H47v36.89H70v36.89H47v36.9H70v36.88H47v36.89H70v36.89H47v36.9h36.9V507H121.1v21.58H158V507h36.88v21.58h36.89V507h36.89v6.29q9,.74,18.24.73,9.42,0,18.66-.76V507h36.89v21.58h36.88V507h36.89v21.58h36.9V507H490v21.58H526.9v-36.9Zm-22-6.72h-388V96.94h388V451.85c0,.09.08.17.11.27a2.67,2.67,0,0,1,.09.26,10.11,10.11,0,0,1,.44,1.57c.05.23.09.46.12.68s.05.47.07.7a3.07,3.07,0,0,1,0,.42c0,.21,0,.42,0,.63s0,.41,0,.62a3.07,3.07,0,0,1,0,.42c0,.23,0,.47-.07.7s-.07.45-.12.68a12.17,12.17,0,0,1-.64,2.1Z"/><path class="cls-2" d="M329.16,366.21c27.59,7.62,30.44,11.07,33.52,13.07C354.34,374.24,341,369.66,329.16,366.21Z"/><path class="cls-2" d="M365.19,380.93q-1-.69-2.07-1.38a8.38,8.38,0,0,0,1.12.57,2.15,2.15,0,0,1,.94.8Z"/><path class="cls-3" d="M278.49,126.18C244.24,134.13,125.75,151,140.33,286.77c0,0-3,5.76,38,31.19L137.12,294.4s-.54,21.69,9.9,32.39c0,0,63.44,36.68,113,38.82,0,0,35.07,14.72,143.48,76.56,0,0,9.91,10.44,44.44-65.05,0,0,0,45.24-36.94,81.91,0,0-77.19-45-130.71-66.12-48.19-19-47.95,17.85-121.45-43.9-79.43-66.72-36-203.32,68.7-222.69C227.5,126.32,268.14,121.6,278.49,126.18Z"/><path class="cls-3" d="M447.9,364V264.42l-4.73-4.75s9-53.07-57.91-109.28c0,0,56.21,55.68,50.33,106.81l-61-18.87a65.83,65.83,0,0,1-17.06-8.11l-19.36-12.91s-30.52-28.37-39.62,8S327.44,331.88,447.9,364Z"/><path class="cls-4" d="M427.9,254.82s.73-42.33-47.46-84.89-97.11-35.33-97.11-35.33-52.64,6.05-84.38,27.3-54.61,62.64-58.62,124.87l34.93,29.43-38.14-21.8s1.38,27.76,9.9,32.39,69.6,37.75,113,38.82l143.48,76.56s13.43.43,41-57.6c0,0-110.27-30.19-136.12-110.77s15-65.63,15-65.63l42.05,27.36Z"/><path class="cls-5" d="M148.45,327.29c-7.94-15.91-9.72-35.49-8.71-30.34.88,4.47,35.49,23.56,36.7,24.63,0,0,0,0,0,0-1.41-.35-28.57-7.16-30.13-14Z"/><path class="cls-5" d="M362.51,367.07a2.73,2.73,0,0,0-1.17-1,11.27,11.27,0,0,1-1.39-.7l-.54-.34c-3.82-2.48-7.36-6.75-41.54-16.19-15-4.36-28.1-7.27-30.7-7.83l-.21,0-.21-.05h0s-13.22-63.84-112.68-114C319.61,280.87,361.86,365.75,362.51,367.07Z"/><path class="cls-5" d="M359.41,365.05c-10.34-6.25-26.86-11.92-41.54-16.19C352.05,358.3,355.59,362.57,359.41,365.05Z"/><path class="cls-5" d="M362.52,367.09c-.81-.57-1.67-1.14-2.57-1.7a11.27,11.27,0,0,0,1.39.7,2.73,2.73,0,0,1,1.17,1Z"/><path class="cls-6" d="M401.87,427.46,297.24,364.68l-10.53-23.75h0l.21.05.21,0c12.34,3,22.42,5.55,30.7,7.83,14.68,4.27,31.2,9.94,41.54,16.19l.54.34c.9.56,1.76,1.13,2.57,1.7Z"/><circle class="cls-7" cx="320.46" cy="231.22" r="13.36"/><path d="M329.11,228H311.82a9.24,9.24,0,0,1,17.29,0Z"/><path d="M329.3,233.93a9.25,9.25,0,0,1-17.67,0Z"/><path class="cls-7" d="M329.7,231.22a9.35,9.35,0,0,1-.4,2.71H311.63a9.35,9.35,0,0,1-.4-2.71,9,9,0,0,1,.59-3.26h17.29A9.25,9.25,0,0,1,329.7,231.22Z"/><path class="cls-5" d="M427.06,264l5.57,2.39s-6.4,32.53-13.18,45.33Z"/></svg>