<svg id="Layer_1" data-name="Layer 1" xmlns="http://www.w3.org/2000/svg" viewBox="0 0 446.6 538.52"><defs><style>.cls-1{fill:#b28dc1;}.cls-2{fill:#7f52a1;}.cls-3{fill:#f0566d;}.cls-4{fill:#9f1c27;}.cls-5{fill:#a0d8d1;}.cls-6{fill:#55bf9c;}.cls-7{fill:#b3852d;}.cls-8{fill:#935e25;}.cls-9{fill:#a4d8f5;}.cls-10{fill:#5a87c5;}.cls-11{fill:#f5da2c;}.cls-12{fill:#005a27;}.cls-13{fill:#008a94;}.cls-14{fill:#f9a560;}.cls-15{fill:#f9bebf;}.cls-16{fill:#a94298;}.cls-17{fill:#f78d1e;}</style></defs><title>Artboard 2</title><path class="cls-1" d="M408.58,238.73a40.4,40.4,0,0,1-39.38,40.39h-.3a22.77,22.77,0,0,0,3.73-.43l.55-.11.53-.13c.36-.09.71-.19,1.06-.3a22.65,22.65,0,0,0,1.49-42.81l-.51-.19a16.84,16.84,0,1,1,14.42-30.33c.95.62,1.88,1.28,2.78,2A40.33,40.33,0,0,1,408.58,238.73Z"/><path class="cls-2" d="M390.78,256.5a22.66,22.66,0,0,1-16,21.66c-.35.11-.7.2-1.06.3l-.53.13-.55.11-.45.09-.46.08a23.63,23.63,0,0,1-2.82.26h.3l-.49,0h-1a22.66,22.66,0,0,1-19-11.07A22.65,22.65,0,1,1,321,235.36a16.82,16.82,0,1,0,24.69,17.75,5.62,5.62,0,0,0,.09-.57,21.46,21.46,0,0,1,.79-3.11,1.21,1.21,0,0,1,.05-.18,2.13,2.13,0,0,1,4,0l.06.18a22.62,22.62,0,0,1,.78,3.07h0c0,.22.06.44.1.66a16.82,16.82,0,1,0,24.69-17.79A22.66,22.66,0,0,1,390.78,256.5Z"/><path class="cls-3" d="M271.2,351.85a40.41,40.41,0,0,1-39.38,40.39h-.3a22.89,22.89,0,0,0,3.74-.42l.54-.12.54-.13,1.06-.29a22.65,22.65,0,0,0,1.49-42.81l-.52-.19A16.84,16.84,0,1,1,252.79,318c1,.62,1.88,1.28,2.78,2A40.33,40.33,0,0,1,271.2,351.85Z"/><path class="cls-4" d="M253.4,369.62a22.67,22.67,0,0,1-16,21.66l-1.06.29-.54.13-.54.12-.46.08-.46.08a23.63,23.63,0,0,1-2.82.26h.3l-.48,0h-1a22.62,22.62,0,0,1-19.05-11.07,22.65,22.65,0,1,1-27.62-32.71,16.82,16.82,0,1,0,24.69,17.74c0-.18.07-.37.1-.56a20.34,20.34,0,0,1,.78-3.12l.06-.17a2.13,2.13,0,0,1,4,0l.07.19a23.76,23.76,0,0,1,.77,3.07h0c0,.22.07.44.11.66a16.82,16.82,0,1,0,24.69-17.79A22.65,22.65,0,0,1,253.4,369.62Z"/><path class="cls-5" d="M408.58,351.85a40.41,40.41,0,0,1-39.38,40.39h-.3a22.77,22.77,0,0,0,3.73-.42l.55-.12.53-.13,1.06-.29a22.65,22.65,0,0,0,1.49-42.81l-.51-.19A16.84,16.84,0,1,1,390.17,318c.95.62,1.88,1.28,2.78,2A40.33,40.33,0,0,1,408.58,351.85Z"/><path class="cls-6" d="M390.78,369.62a22.67,22.67,0,0,1-16,21.66l-1.06.29-.53.13-.55.12-.45.08-.46.08a23.63,23.63,0,0,1-2.82.26h.3l-.49,0h-1a22.62,22.62,0,0,1-19-11.07A22.65,22.65,0,1,1,321,348.48a16.82,16.82,0,1,0,24.69,17.74,5,5,0,0,0,.09-.56,21.59,21.59,0,0,1,.79-3.12.84.84,0,0,1,.05-.17,2.14,2.14,0,0,1,4,0l.06.19a22.26,22.26,0,0,1,.78,3.07h0c0,.22.06.44.1.66a16.82,16.82,0,1,0,24.69-17.79A22.64,22.64,0,0,1,390.78,369.62Z"/><path class="cls-7" d="M271.2,465a40.41,40.41,0,0,1-39.38,40.39h-.3a21.85,21.85,0,0,0,3.74-.43l.54-.11.54-.13c.35-.09.71-.19,1.06-.3a22.65,22.65,0,0,0,1.49-42.81l-.52-.19a16.84,16.84,0,1,1,14.42-30.33c1,.63,1.88,1.29,2.78,2A40.35,40.35,0,0,1,271.2,465Z"/><path class="cls-8" d="M253.4,482.73a22.66,22.66,0,0,1-16,21.66c-.35.11-.71.21-1.06.3l-.54.13-.54.11c-.15,0-.31.06-.46.09l-.46.08a23.63,23.63,0,0,1-2.82.26h.3l-.48,0h-1a22.64,22.64,0,0,1-19.05-11.07,22.65,22.65,0,1,1-27.62-32.72,16.82,16.82,0,1,0,24.69,17.75c0-.19.07-.38.1-.57a20.51,20.51,0,0,1,.78-3.11l.06-.18a2.13,2.13,0,0,1,4,0l.07.18a24.18,24.18,0,0,1,.77,3.07h0c0,.22.07.44.11.65a16.82,16.82,0,1,0,24.69-17.78A22.64,22.64,0,0,1,253.4,482.73Z"/><path class="cls-9" d="M271.2,238.73a40.4,40.4,0,0,1-39.38,40.39h-.3a22.89,22.89,0,0,0,3.74-.43l.54-.11.54-.13c.35-.09.71-.19,1.06-.3a22.65,22.65,0,0,0,1.49-42.81l-.52-.19a16.84,16.84,0,1,1,14.42-30.33c1,.62,1.88,1.28,2.78,2A40.33,40.33,0,0,1,271.2,238.73Z"/><path class="cls-10" d="M253.4,256.5a22.66,22.66,0,0,1-16,21.66c-.35.11-.71.2-1.06.3l-.54.13-.54.11-.46.09-.46.08a23.63,23.63,0,0,1-2.82.26h.3l-.48,0h-1a22.66,22.66,0,0,1-19.05-11.07,22.65,22.65,0,1,1-27.62-32.72,16.82,16.82,0,1,0,24.69,17.75c0-.19.07-.38.1-.57a20.21,20.21,0,0,1,.78-3.11l.06-.18a2.13,2.13,0,0,1,4,0l.07.18a24.18,24.18,0,0,1,.77,3.07h0c0,.22.07.44.11.66a16.82,16.82,0,1,0,24.69-17.79A22.67,22.67,0,0,1,253.4,256.5Z"/><path class="cls-11" d="M133.82,238.73a40.4,40.4,0,0,1-39.38,40.39h-.29a22.9,22.9,0,0,0,3.73-.43l.54-.11.54-.13c.36-.09.71-.19,1.06-.3a22.65,22.65,0,0,0,1.49-42.81l-.52-.19a16.84,16.84,0,1,1,14.42-30.33c1,.62,1.88,1.28,2.78,2A40.33,40.33,0,0,1,133.82,238.73Z"/><path class="cls-2" d="M116,256.5a22.66,22.66,0,0,1-16,21.66c-.35.11-.7.2-1.06.3l-.54.13-.54.11-.46.09-.45.08a24,24,0,0,1-2.82.26h.29l-.48,0H93a22.65,22.65,0,0,1-19-11.07,22.65,22.65,0,1,1-27.62-32.72A16.82,16.82,0,1,0,71,253.11l.09-.57a22.81,22.81,0,0,1,.78-3.11l.06-.18a2.13,2.13,0,0,1,4,0l.06.18a21.21,21.21,0,0,1,.77,3.07h0c0,.22.07.44.11.66a16.82,16.82,0,1,0,24.69-17.79A22.68,22.68,0,0,1,116,256.5Z"/><path class="cls-12" d="M133.82,351.85a40.41,40.41,0,0,1-39.38,40.39h-.29a22.9,22.9,0,0,0,3.73-.42l.54-.12.54-.13,1.06-.29a22.65,22.65,0,0,0,1.49-42.81l-.52-.19A16.84,16.84,0,1,1,115.41,318c1,.62,1.88,1.28,2.78,2A40.33,40.33,0,0,1,133.82,351.85Z"/><path class="cls-4" d="M116,369.62a22.67,22.67,0,0,1-16,21.66l-1.06.29-.54.13-.54.12-.46.08L97,392a24,24,0,0,1-2.82.26h.29l-.48,0H93a22.6,22.6,0,0,1-19-11.07,22.65,22.65,0,1,1-27.62-32.71A16.82,16.82,0,1,0,71,366.22l.09-.56a23,23,0,0,1,.78-3.12l.06-.17a2.14,2.14,0,0,1,4,0l.06.19a20.89,20.89,0,0,1,.77,3.07h0c0,.22.07.44.11.66a16.82,16.82,0,1,0,24.69-17.79A22.66,22.66,0,0,1,116,369.62Z"/><path class="cls-13" d="M133.82,465a40.41,40.41,0,0,1-39.38,40.39h-.29a21.85,21.85,0,0,0,3.73-.43l.54-.11.54-.13c.36-.09.71-.19,1.06-.3a22.65,22.65,0,0,0,1.49-42.81l-.52-.19a16.84,16.84,0,1,1,14.42-30.33c1,.63,1.88,1.29,2.78,2A40.35,40.35,0,0,1,133.82,465Z"/><path class="cls-14" d="M116,482.73a22.66,22.66,0,0,1-16,21.66c-.35.11-.7.21-1.06.3l-.54.13-.54.11c-.15,0-.3.06-.46.09l-.45.08a24,24,0,0,1-2.82.26h.29l-.48,0H93a22.63,22.63,0,0,1-19-11.07,22.65,22.65,0,1,1-27.62-32.72A16.82,16.82,0,1,0,71,479.34l.09-.57a23.19,23.19,0,0,1,.78-3.11l.06-.18a2.14,2.14,0,0,1,4,0l.06.18a21.21,21.21,0,0,1,.77,3.07h0c0,.22.07.44.11.65a16.82,16.82,0,1,0,24.69-17.78A22.65,22.65,0,0,1,116,482.73Z"/><path class="cls-15" d="M276.79,125.62A40.41,40.41,0,0,1,237.41,166h-.3a22.77,22.77,0,0,0,3.73-.42l.55-.12.53-.13c.36-.09.71-.19,1.06-.3a22.64,22.64,0,0,0,1.49-42.8,5.27,5.27,0,0,0-.51-.19,16.84,16.84,0,1,1,14.42-30.34c.95.63,1.88,1.29,2.78,2A40.37,40.37,0,0,1,276.79,125.62Z"/><path class="cls-16" d="M259,143.38A22.65,22.65,0,0,1,243,165c-.35.11-.7.21-1.06.3l-.53.13-.55.12-.45.08-.46.08a23.63,23.63,0,0,1-2.82.26h.3l-.49,0h-1a22.64,22.64,0,0,1-19-11.07,22.65,22.65,0,1,1-27.62-32.71A16.81,16.81,0,1,0,213.94,140c0-.19.07-.38.09-.56a21.59,21.59,0,0,1,.79-3.12,1.21,1.21,0,0,1,.05-.18,2.15,2.15,0,0,1,2-1.37,2.13,2.13,0,0,1,2,1.36l.06.18a22.62,22.62,0,0,1,.78,3.07h0c0,.22.06.44.1.65a16.82,16.82,0,1,0,24.69-17.78A22.64,22.64,0,0,1,259,143.38Z"/><path class="cls-17" d="M408.58,465a40.41,40.41,0,0,1-39.38,40.39h-.3a21.73,21.73,0,0,0,3.73-.43l.55-.11.53-.13c.36-.09.71-.19,1.06-.3a22.65,22.65,0,0,0,1.49-42.81l-.51-.19a16.84,16.84,0,1,1,14.42-30.33c.95.63,1.88,1.29,2.78,2A40.35,40.35,0,0,1,408.58,465Z"/><path class="cls-10" d="M390.78,482.73a22.66,22.66,0,0,1-16,21.66c-.35.11-.7.21-1.06.3l-.53.13-.55.11c-.15,0-.3.06-.45.09l-.46.08a23.63,23.63,0,0,1-2.82.26h.3l-.49,0h-1a22.64,22.64,0,0,1-19-11.07A22.65,22.65,0,1,1,321,461.59a16.82,16.82,0,0,0,8.15,31.53,16.82,16.82,0,0,0,16.54-13.78,5.62,5.62,0,0,0,.09-.57,21.79,21.79,0,0,1,.79-3.11,1.21,1.21,0,0,1,.05-.18,2.15,2.15,0,0,1,2-1.37,2.13,2.13,0,0,1,2,1.36l.06.18a22.62,22.62,0,0,1,.78,3.07h0c0,.22.06.44.1.65a16.82,16.82,0,1,0,24.69-17.78A22.64,22.64,0,0,1,390.78,482.73Z"/><rect class="cls-15" x="38.41" y="25.32" width="32.16" height="32.16"/><rect class="cls-16" x="70.57" y="25.32" width="32.16" height="32.16"/><rect class="cls-11" x="117.06" y="25.32" width="32.16" height="32.16"/><rect class="cls-2" x="149.22" y="25.32" width="32.16" height="32.16"/><rect class="cls-9" x="195.71" y="25.32" width="32.16" height="32.16"/><rect class="cls-10" x="227.87" y="25.32" width="32.16" height="32.16"/><rect class="cls-1" x="274.36" y="25.32" width="32.16" height="32.16"/><rect class="cls-2" x="306.52" y="25.32" width="32.16" height="32.16"/><rect class="cls-12" x="353.01" y="25.32" width="32.16" height="32.16"/><rect class="cls-4" x="385.17" y="25.32" width="32.16" height="32.16"/><rect class="cls-3" x="38.41" y="73.44" width="32.16" height="32.16"/><rect class="cls-4" x="70.57" y="73.44" width="32.16" height="32.16"/><rect class="cls-5" x="117.06" y="73.44" width="32.16" height="32.16"/><rect class="cls-6" x="149.22" y="73.44" width="32.16" height="32.16"/><rect class="cls-13" x="353.01" y="73.44" width="32.16" height="32.16"/><rect class="cls-14" x="385.17" y="73.44" width="32.16" height="32.16"/><rect class="cls-7" x="38.41" y="121.57" width="32.16" height="32.16"/><rect class="cls-8" x="70.57" y="121.57" width="32.16" height="32.16"/><rect class="cls-17" x="353.01" y="121.57" width="32.16" height="32.16"/><rect class="cls-10" x="385.17" y="121.57" width="32.16" height="32.16"/></svg>