<svg id="Layer_1" data-name="Layer 1" xmlns="http://www.w3.org/2000/svg" xmlns:xlink="http://www.w3.org/1999/xlink" viewBox="0 0 392.39 494"><defs><style>.cls-1{fill:url(#linear-gradient);}.cls-2{fill:url(#linear-gradient-2);}.cls-3{fill:url(#linear-gradient-3);}.cls-4{fill:url(#linear-gradient-4);}.cls-5{fill:url(#linear-gradient-5);}.cls-6{fill:url(#linear-gradient-6);}.cls-7{fill:url(#linear-gradient-7);}.cls-8{fill:#3c2415;stroke:#231f20;}.cls-8,.cls-9{stroke-miterlimit:10;}.cls-9{fill:#754c29;stroke:#fff;}</style><linearGradient id="linear-gradient" x1="93.47" y1="382.01" x2="93.47" y2="95.99" gradientUnits="userSpaceOnUse"><stop offset="0" stop-color="#be1e2d"/><stop offset="0.15" stop-color="#c0222c"/><stop offset="0.3" stop-color="#c42e29"/><stop offset="0.46" stop-color="#cc4225"/><stop offset="0.61" stop-color="#d75f1f"/><stop offset="0.77" stop-color="#e58316"/><stop offset="0.92" stop-color="#f5b00d"/><stop offset="1" stop-color="#ffc907"/></linearGradient><linearGradient id="linear-gradient-2" x1="111.41" y1="374.9" x2="111.41" y2="81.29" xlink:href="#linear-gradient"/><linearGradient id="linear-gradient-3" x1="129.3" y1="349.28" x2="129.3" y2="65.31" xlink:href="#linear-gradient"/><linearGradient id="linear-gradient-4" x1="165.98" y1="297.8" x2="165.98" y2="37" xlink:href="#linear-gradient"/><linearGradient id="linear-gradient-5" x1="244.56" y1="317.31" x2="244.56" y2="43.06" xlink:href="#linear-gradient"/><linearGradient id="linear-gradient-6" x1="277.05" y1="367.42" x2="277.05" y2="84.37" xlink:href="#linear-gradient"/><linearGradient id="linear-gradient-7" x1="301.01" y1="382.02" x2="301.01" y2="97.2" xlink:href="#linear-gradient"/></defs><title>Artboard 27</title><path class="cls-1" d="M93.43,155.69c2.55-4.24,4.88-7.9,6.75-10.88s3.43-5.43,4.6-7.33,2-3.22,2.33-4,.37-1,0-.78a8.29,8.29,0,0,0-1.23,1c-.57.55-1.28,1.24-2.14,2.09,4.08-5.71,6.23-8.61,10.74-14.52q2.87-3.16,5.1-5.73c1.49-1.7,2.81-3.24,4-4.59s2.09-2.45,2.81-3.26,1.25-1.39,1.61-1.72c1-1,2.06-2,3.14-3.11s2.06-2.18,2.93-3.13,1.6-1.8,2.22-2.52,1-1.14,1.08-1.24c.28-.28-.26.81-1.57,3.23s-3.46,6.33-6.36,11.57c-1.16,2.09-3.43,6.18-6.64,12.07s-6.77,12.52-10.57,19.77-7.6,14.68-11.34,22.22-7,14.32-9.83,20.44l-1.15,0c1.64-3.56,3.25-6.95,4.78-10.14s3-6.25,4.44-9.14c4.12-8.36,7.76-15.45,10.6-21s5.12-9.92,6.71-13.09a64.48,64.48,0,0,0,2.92-6.26c.34-1,.27-1.35-.2-1.12-.32.15-.66.3-1,.47s-.62.35-.94.56l-2.35,1.51-.42.27a3.74,3.74,0,0,0-.49.36l-.61.48c-.22.17-.48.37-.77.62a604.59,604.59,0,0,0-34.44,60.39C62,221.92,49.45,258.93,54.51,295.94a11.42,11.42,0,0,0,3.15.33,7.12,7.12,0,0,0,2.34-.53,4.42,4.42,0,0,0,2-2,17.57,17.57,0,0,0,1.48-4.16c.46,4.68,1.07,8.68,1.68,12.12.5,2.85,1,5.2,1.3,7.12s.58,3.47.69,4.68a10,10,0,0,1,0,2.79,1.81,1.81,0,0,1-.75,1.31c-.67.39-1.62.31-2.89-.27a33.73,33.73,0,0,1-4.45-2.56c4.45,10.66,9.34,20.79,16.65,29.65a115.58,115.58,0,0,0,22.54,20.71A145.19,145.19,0,0,0,119.07,377c5.73,2.64,9.64,4,10.5,4.47.51.26.71.36,1,.49h0a176.78,176.78,0,0,1-29.82-13.9c-17.77-10.38-31.49-25.89-41-43.83-13.23-24.9-11.93-55.37-5.4-81.83C61.79,212.25,76.89,183.18,93.43,155.69Z"/><path class="cls-2" d="M114.63,145.7c2.17-4.49,4.09-8.42,5.67-11.7s2.85-6,3.76-8a43,43,0,0,0,1.75-4.22c.25-.81.19-1.09-.19-.83a7.62,7.62,0,0,0-1.15,1.16c-.52.61-1.16,1.38-1.92,2.32,3.29-6.26,5-9.45,8.54-16q2.47-3.47,4.43-6.27c1.31-1.86,2.47-3.54,3.49-5s1.86-2.66,2.53-3.54a15.73,15.73,0,0,1,1.55-1.84q1.56-1.45,3.17-3.24t2.91-3.3c.86-1,1.59-1.9,2.19-2.66s.95-1.21,1.06-1.31c.3-.29,0,.87-.93,3.45s-2.47,6.73-4.68,12.28c-.89,2.23-2.62,6.55-5.16,12.78s-5.43,13.22-8.63,20.84-6.53,15.41-9.93,23.28-6.5,14.92-9.32,21.26l-1.27.32c1.62-3.7,3.16-7.23,4.61-10.56s2.83-6.52,4.12-9.53c3.77-8.75,6.9-16.2,9.29-22S134.75,123,136,119.68a47.25,47.25,0,0,0,2.13-6.59c.18-1,0-1.41-.51-1.12-.75.43-1.41.86-2,1.23s-1.13.74-1.68,1.12l-.63.45c-.3.21-.62.45-1,.73a7.63,7.63,0,0,0-1.34,1.22c-5.54,7.7-9.93,20.71-14.78,31.08-5.18,11-10.3,22.22-15.29,33.36-7.64,17.06-15.18,34.55-20.12,52.14A216.14,216.14,0,0,0,73.2,283a8.43,8.43,0,0,0,2.69-.64A10.08,10.08,0,0,0,78.1,281a9.84,9.84,0,0,0,2.28-2.85,33.81,33.81,0,0,0,2.14-4.82c-.21,4.55-.25,8.45-.25,11.83,0,2.81,0,5.16,0,7.12s-.11,3.61-.25,5a16.34,16.34,0,0,1-.6,3.26,5,5,0,0,1-1,1.87,2.73,2.73,0,0,1-2.54.92,9.63,9.63,0,0,1-3.33-1.23,106.81,106.81,0,0,0,4.14,17.64,95.18,95.18,0,0,0,18,32.3,102.15,102.15,0,0,0,9.81,10c2.88,2.6,5.19,4.44,6.9,5.83s2.72,2.22,3.34,2.8c-.64-.82-1.22-1.62-1.72-2.4a25.37,25.37,0,0,1-2.29-4.55c-.3-.77-.6-1.6-.9-2.5-.2-.59-.43-1.23-.7-1.9a17.51,17.51,0,0,0-1.21-2.47c-.59-1-1.44-2.28-2.77-4.13s-3.28-4.34-5.91-8.36c.14-.45.22-.68.37-1.16,3.82,5.8,6.31,8.7,7.62,10.67s1.62,3,1.63,3.9a17.33,17.33,0,0,1-.28,2.19,4.6,4.6,0,0,0,.34,2.09,10.06,10.06,0,0,0,1,1.81c.41.62.86,1.27,1.33,1.94s1,1.35,1.46,2.06,1,1.46,1.59,2.24,1,1.46,1.67,2.26,1.25,1.6,1.8,2.37l.18.14c.4-.44-.53-1.34-3.75-3.68a143.11,143.11,0,0,1-15.14-12.36,98.49,98.49,0,0,1-20.44-28c-7.52-15.38-10-32.65-10.31-50.5-.43-25.93,8.12-52.83,17.81-76.58C96,184.49,105.4,164.84,114.63,145.7Z"/><path class="cls-3" d="M138.61,131.89c1.8-4.65,3.3-8.74,4.53-12.15s2.17-6.22,2.84-8.35a33.67,33.67,0,0,0,1.18-4.55c.13-.89,0-1.18-.43-.89a22.18,22.18,0,0,0-3.2,4.24c2.4-6.31,3.62-9.54,6.07-16.13q2.28-4.05,4.73-8.53T159,77c1.46-2.7,2.76-5.08,3.93-7.11a21.49,21.49,0,0,1,2.83-4.14c1-1,1.48-.18,1.59,2.32S167,75.35,166,82.16,163.45,98,161,108.7a342.38,342.38,0,0,1-11.14,37.79c-5.27,14.71-12,29-17.89,43.32-5.11,12.45-10,25.21-14.53,38-3.74,10.45-6.62,18.94-9.14,26.11s-4.58,12.94-6.5,17.64c.5,9.62.9,19.22,3.93,28.43,1.93,5.86,3.93,9.23,5.56,11.3s2.94,2.9,4,3.16a2.47,2.47,0,0,0,2.35-.49,5.25,5.25,0,0,0,1.15-1.52c.32-.6.6-1.27.88-1.95s.59-1.43.92-2.19.73-1.58,1.17-2.44,1-1.82,1.47-2.68,1.08-1.79,1.73-2.83a3.41,3.41,0,0,0-.21-1.23c-2.25,2.94-4.18,5.43-5.7,7.61a32.28,32.28,0,0,0-3.25,5.51,12.44,12.44,0,0,0-1,4.33,17.32,17.32,0,0,0,0,2c0,.66.06,1.33,0,2a3.94,3.94,0,0,1-.68,2.65c-.55.55-1.61.61-3.48-1s-4.73-4.89-7.66-12.17c-5-12.52-5.58-25.54-5.95-38.93.07-.73.11-1.1.2-1.83,2-2.5,4.05-6.38,6.22-11.78s4.52-12.14,7.43-20.75c3.64-10.76,7.44-21.54,11.39-32.17,5.46-14.72,12.2-29.28,17.94-43.73a350.73,350.73,0,0,0,17.09-54.61c2.79-12.82,3.27-19.13,1.24-17.53A7.91,7.91,0,0,0,157,90.45c-.54.8-1.2,1.82-2,3.06-4,12.17-8.15,24.32-12.63,36.27-5.72,15.27-11.82,30.57-18.25,45.5C114,199,104,223.55,99.17,248.74c-3.41,17.84-5.82,36.77-2.89,54.44,1.72,10.36,4.5,21,9.59,30.65,3.35,6.35,5.49,9.19,2.93,9.65-.29,2.26-.38,3.34-.49,5.41l.07.39c3.73-.54-.64-4.64-5.28-13.23-7-12.93-9.82-26.68-11.26-40.81-2.56-25.18,4-52.06,11.66-75.82C112.93,190.22,127.26,161.12,138.61,131.89Z"/><path class="cls-4" d="M181.85,83.54c-.49,9.44-1.26,18.94-2.25,28.31s-2.08,18.91-3.88,27.91c-2.42,12-6.63,24.47-9.11,36.47a174,174,0,0,0-3.87,29.71c-.24,8,.42,14.11,1.66,18.55s3,7.11,5.06,8.51a7.19,7.19,0,0,0,6.48.8A18.62,18.62,0,0,0,182.3,230c-1.19.36-2.28-4.06-2-12,.39-11.18,2.51-22.35,4.66-33.19,3-15,7.4-30,11.49-44.72a158.69,158.69,0,0,0,6-32.52,241.16,241.16,0,0,0,.42-25.27c-.27-7.44-.83-14-1.37-19.29-.47-4.51-.93-8.43-1.29-11.64s-.67-5.87-.87-8a40,40,0,0,1-.25-4.59c0-1,.17-1.89.41-1.71.58.44,1.64,2.85,3.24,7,.19.72.29,1.08.47,1.8a246.48,246.48,0,0,1,4.5,28.8,206.06,206.06,0,0,1,.28,33.6c-.9,13.83-5.17,27-8.82,40.39-3.4,12.49-6.64,25.28-9.07,38.11a198.12,198.12,0,0,0-3.24,22.94,55.32,55.32,0,0,0,0,10.68,7.21,7.21,0,0,0,1,3.29c.38.48.8.39,1.2-.19a8.73,8.73,0,0,0,1-3.18,33.47,33.47,0,0,0,.39-6c-2.87,2.67-4.27,4-7,6.59l-1,1.12c-1,2.19-2.28,5-3.85,8a72.6,72.6,0,0,1-5.36,8.85,27,27,0,0,1-6.49,6.66c-2.3,1.52-4.62,2.11-6.79,1.35s-4.15-2.87-5.63-6.68-2.45-9.21-2.59-16.33a146.3,146.3,0,0,1,2.27-26A284.91,284.91,0,0,1,162,164c2.67-9,5.51-18.08,7.29-27.41,1.37-7.17,2.55-13.84,3.42-19.49-6,24-15.46,46.83-23.26,70-6.12,18.13-11.79,37.22-14.6,56.11-1.43,9.58-2.59,19.54-2.31,29.41.18,6.46.75,10.1.94,12.22.13,1.49.05,2.11-.19,2.45a1.63,1.63,0,0,1-1.16.47,7.82,7.82,0,0,0-1.61.33,5.56,5.56,0,0,0-1.71,1,10.62,10.62,0,0,0-1.72,2c-.57.83-1.2,1.83-1.88,3l-.61,1.07c-.12.21-.26.47-.43.79l-.65,1.23c0,.27,0,.4-.09.66,1.94-.34,3.36-.78,4.18-1.82s1.06-2.68,1-5.49-.39-6.78-.43-12.5a174.06,174.06,0,0,1,1.34-22.33A283.07,283.07,0,0,1,136,222.14a417.94,417.94,0,0,1,13.75-43.58c4.79-13,10.43-26.1,14.63-39.48,2.91-9.27,5.44-18.87,7.51-28.37,1-4.6,1.78-8.64,2.34-12s.92-6.15,1.1-8.27a19.81,19.81,0,0,0,0-4.45c-.15-.84-.47-1.08-1-.72a6.25,6.25,0,0,0-1.33,1.57c-.53.8-1.16,1.87-1.92,3.22,1.17-6.21,1.72-9.39,2.74-15.93,1.15-3,2.13-5.66,3-8s1.52-4.43,2.1-6.1,1.06-3,1.47-4.06a5.87,5.87,0,0,1,1-1.93q.43-.39.66,1a41.49,41.49,0,0,1,.33,5c0,2.35,0,5.52-.05,9.43S182.15,78.1,181.85,83.54Z"/><path class="cls-5" d="M276.6,307.57l-.42-.73c-3.24.55-5.54-.2-7.37-2.19s-3.21-5.23-4.36-9.57a122.63,122.63,0,0,1-2.83-16.27c-.77-6.44-1.39-14-1.9-22.56-.79-13.32-1.19-26.67-1.39-40-.24-15.72-.18-31.45-.52-47.18l-.17-.16c-.82,15.08-2,30.13-3.38,45.16q-1.38,15.47-2.83,30.94c-.78,8.32-1.37,14.9-1.76,19.87s-.57,8.49-.51,10.47.36,2.43.83,1.23a43.38,43.38,0,0,0,1.72-8.69c-2.29-3.34-3.5-5.06-6.07-8.59l-.87-1c-20.9,15.32-22.68-45.1-22.9-51.54-1.17-34.56,5.92-68.4-.73-103.38-1.09-5.68-2.25-10.75-3.33-15s-2.15-8-3.11-10.94a65.18,65.18,0,0,0-2.59-7A10,10,0,0,0,210,67.19a1.45,1.45,0,0,0-1.22-.42,3.49,3.49,0,0,0-1.33.6c-1.12-5.86-1.77-8.89-3.25-15.13a43.29,43.29,0,0,0,1-7.13c.12-1.72.34-2.41.89-1.88a16.05,16.05,0,0,1,2.12,3.89c1,2.18,2.32,5.46,3.94,9.76S215.73,66.6,217.8,73s4.34,13.88,6.53,22.23a413.66,413.66,0,0,1,8.21,41.42c3,19.16-1.13,40.88-1.43,60.13-.27,16.92-.06,34.59,3.24,51.47,2.53,12.94,6.43,20.79,11.39,22.63.1.12.14.18.24.29-.35,1.36-.67,1.61-.78,0a91.49,91.49,0,0,1,.47-11c.47-6,1.3-14.43,2.5-26.06,1.52-14.72,3.06-29.48,4.49-44.18,1.77-18.26,1.48-34.24-2.1-51.9-4-19.74-11.31-39-19.08-57.94-1.07-2.49-1.8-4.23-2.15-5.22s-.44-1.38-.25-1.2a10,10,0,0,1,1.14,1.81,475.8,475.8,0,0,1,20.1,48.51c5.7,16.59,11.84,34.63,13.47,50.95,1.79,17.91.75,38.59,1.28,57.85.39,14.13.81,28.31,1.61,42.43a239.69,239.69,0,0,0,2.46,25.75c1.06,6.1,2.37,9.73,4.07,11.88l.08.16c-.56.06-.65-1.29-.25-4.72s1.25-8.86,2.35-16.56c1.42-9.92,2.54-19.95,3.5-29.9,1.33-13.84,2-28,2.37-41.82.36-14.88.38-29.38-3.09-44A293.84,293.84,0,0,0,266.76,139c-2.5-6.52-5.36-13.37-8.63-20.57s-6.72-14.24-10.24-21-7-13.21-10.39-19.13-6.26-10.8-8.52-14.5c-1.07-1.85-1.62-2.78-2.72-4.66q-.25-.54-.36-.84c-.08-.2-.05-.23.08-.09.35.38,1.41,1.92,3.15,4.61s4.25,6.69,7.38,11.88,7,11.78,11.16,19.44c4.71,8.57,9.18,17.44,13.28,26.29a299.41,299.41,0,0,1,11.39,27.69,360.62,360.62,0,0,1,10,34.69c3.21,13.5,2.71,27.45,2.24,41.14-.45,13.1-1.27,26.28-2.45,39.36-.9,9.9-2.24,19.92-3.79,29.77-1.26,8.05-2.34,14-2.93,18s-.69,6-.11,6.24,1.82-1.09,3.63-3.66C278.06,311.27,277.61,310.06,276.6,307.57Z"/><path class="cls-6" d="M277.14,150.08c-2.22-5.73-4.53-10.9-6.53-15.28s-3.8-8.07-5.28-11-2.71-5.15-3.62-6.7a16.59,16.59,0,0,0-2-3c-.28-.27-.47-.32-.57-.14a2.65,2.65,0,0,0-.2.94c-4.07-8.35-6.29-12.64-11.12-21.5-.5-1.59-1-3-1.39-4.23s-.79-2.28-1.09-3.14a4.58,4.58,0,0,1-.38-1.62c0-.21.26-.11.66.3a35,35,0,0,0,2.7,2.57c.69.57,1.26,1,1.71,1.34a3.53,3.53,0,0,0,.93.56.82.82,0,0,1,.41.23c.3.32,1.81,2.48,4.4,6.42s6.39,9.83,10.92,17.4c1.81,3,5.3,8.92,9.83,17.21,4.89,8.94,9.53,18.24,13.72,27.5A311.47,311.47,0,0,1,302,187.86a246,246,0,0,1,7.22,26.35l-1.52-1.93c-1-4.53-2.1-8.9-3.26-13.06s-2.39-8.24-3.7-12c-3.32-9.61-7-19.29-11.25-28.63-3.49-7.73-6.73-14.21-9.3-19.06s-4.6-8.38-5.9-10.49a30.82,30.82,0,0,0-3-4.25c-.88-1-1.67-1.77-2.33-2.45s-1.28-1.3-1.85-1.86l-.67-.65c-.31-.31-.62-.59-.91-.83a7.53,7.53,0,0,0-.91-.6c-.52.54,13,26.78,18.4,40.5a303.78,303.78,0,0,1,12.66,41.46c3.32,14,3.22,29.77,3.11,44.21-.1,13-.77,25.91-1.87,38.94,1.23,1.93,2.26,3.51,3.16,4.76a39.48,39.48,0,0,0,2.46,3.15,5.74,5.74,0,0,0,2.49,1.86,2.69,2.69,0,0,0,2.32-.48c-.45,3.89-1,7.15-1.55,9.87a38.91,38.91,0,0,1-1.44,5.33,11.22,11.22,0,0,1-1.4,2.82c-.46.58-.89.83-1.32.77a2.07,2.07,0,0,1-1.26-.93,22.1,22.1,0,0,1-2.36-4.7c-.87-2.15-1.84-4.65-3-7.54-.63,4.16-1.45,8.87-2.45,13.74s-2.12,9.51-3.25,13.75-2.24,7.95-3.21,11.11-1.72,5.57-2.21,7.46a16.56,16.56,0,0,0-.69,4.06,2.3,2.3,0,0,0,.5,1.63c-.15,1.19-.3,2.3-.46,3.37s-.32,2-.49,2.87c-.22,1.2-.48,2.3-.75,3.31s-.57,2-.89,2.83a9.44,9.44,0,0,1-.53,1.23c-.12.24-.17.27,0,0s.58-.88,1.46-2.08,2.3-3,4.5-6.21c-.07.54-.11.8-.19,1.31-3.5,4.89-5.48,7.26-6.4,8.65s-.91,1.87-.6,2a1.87,1.87,0,0,0,1.4-.52,5.06,5.06,0,0,0,1.31-1.59,9,9,0,0,0,.69-1.79c.19-.69.37-1.46.55-2.33s.38-1.84.57-2.92l.66-3.55c.22-1.15.47-2.44.75-3.91s.61-3.05,1-4.78l-.05-.41c-1.44.18-2.67,0-3.17-1.39s-.23-3.84.77-8.44,2.66-11.27,4.54-21.11a365.14,365.14,0,0,0,5-39.06,456.61,456.61,0,0,0,.5-59.75C292.73,193.27,285.36,171.26,277.14,150.08Z"/><path class="cls-7" d="M300.08,166.29c3,6.38,6.64,14.42,10.2,23.55a280.44,280.44,0,0,1,9.93,31.79c3.3,12.88,4.16,26.39,4.13,39.74a177.09,177.09,0,0,1-5,42.28c1.23.61,2.43,1.21,3.58,1.81s2.28,1.19,3.41,1.8,2.28,1.22,3.44,1.87a27.82,27.82,0,0,0,3.64,2c2.08-.81,5-18.72,5.78-27.8A163.67,163.67,0,0,0,338,247.52c-2.18-16.14-8-32.35-14.16-47.64-9.79-24.3-24-47.09-38.65-69.17-2.67-3.9-5-7.24-7-10s-3.6-5-4.92-6.86-2.29-3.13-2.85-3.92-.79-1.1-.65-1,.9,1.1,2.17,2.72,3,3.85,5.12,6.65c17.94,24.73,35.31,50.31,47.49,78,8.08,18.34,15.36,37.86,17.68,57.57,1.69,14.4,2.14,29.76-1.19,44a125.29,125.29,0,0,1-12.74,33C323.6,339.51,316,348.31,308.61,355a134.58,134.58,0,0,1-22.27,16.32c-4.77,2.78-8.38,4.55-11,5.81s-4.49,2-5.77,2.59L267,380.82a3.64,3.64,0,0,0-.77.39s0,.05.14,0a10.57,10.57,0,0,0,1.06-.21c-1.16.38-1.66.53-2.4.75l-.95.2c-.15,0-.18,0-.16,0l.2-.06c.09,0,.2-.07.3-.12a2.12,2.12,0,0,0,.41-.23,7.13,7.13,0,0,1,.86-.51c.52-.28,1.39-.7,3.12-1.52s4.4-2.06,8.59-4.32a110.08,110.08,0,0,0,13.88-8.6,124.92,124.92,0,0,0,10.39-8.23,116,116,0,0,0,9.65-9.56A110.89,110.89,0,0,0,319.86,338a107.21,107.21,0,0,0,7.36-12.3l-3.18-2c-1-.63-2-1.21-3.07-1.75s-2.07-1-3.14-1.52-2.18-1-3.33-1.42c-11.1,23.89-25.47,37-40.91,56.44.88-.69,1.35-1.07,2.32-1.91l.15-.19c-1.93-.92,3.33-4.8,10.05-12.27a132.62,132.62,0,0,0,22-34.44c8.65-19.15,11.94-40.93,12.63-61.73,1.06-31.9-6.56-60.87-19.07-90.87-2.83-6.8-5.89-13-8.52-18.19s-5-9.64-7-13.15-3.56-6.17-4.68-8a23.06,23.06,0,0,0-2.26-3.24c-.52-.5-.46.1.06,1.73-4.49-8.08-6.92-12.24-12.18-20.78-2.84-5.26-5.23-9.32-6.76-11.92s-2.18-3.73-1.75-3.27,1.86,2.4,4.24,5.8,5.7,8.26,9.67,14.39S281,131,285.75,139.19C290.84,148,295.7,157.12,300.08,166.29Z"/><path class="cls-8" d="M148.5,384.37l-113,31.44a4.07,4.07,0,0,0-2.74,5.35l5.84,15.62a4.11,4.11,0,0,0,5.5,2.31L151.26,392a4.08,4.08,0,0,0,2.15-5.25h0A4.11,4.11,0,0,0,148.5,384.37Z"/><ellipse class="cls-9" cx="35.67" cy="428.92" rx="3.93" ry="12.72" transform="translate(-148.11 39.73) rotate(-20.52)"/><path class="cls-8" d="M247,384.35l113,31.44a4.07,4.07,0,0,1,2.74,5.35l-5.84,15.62a4.11,4.11,0,0,1-5.5,2.31L244.25,392a4.08,4.08,0,0,1-2.15-5.25h0A4.11,4.11,0,0,1,247,384.35Z"/><ellipse class="cls-9" cx="359.84" cy="428.9" rx="12.72" ry="3.93" transform="translate(-167.99 615.54) rotate(-69.48)"/><path class="cls-8" d="M178.74,390,128,443.46c-1,1.09,0,2.54,2.31,3.15l15.93,4.2c2.25.59,4.74.11,5.44-1.05l34.83-57.7c.66-1.08-.5-2.36-2.62-2.89h0C181.86,388.67,179.65,389,178.74,390Z"/><path class="cls-8" d="M214.21,390.6l43.15,47.5c.88,1-.2,2.42-2.34,3.13l-14.93,5c-2.1.7-4.36.41-4.93-.65l-28.22-52.51c-.53-1,.62-2.28,2.6-2.92h0C211.43,389.57,213.44,389.75,214.21,390.6Z"/><ellipse class="cls-9" cx="248.67" cy="446.1" rx="12.93" ry="10.39" transform="translate(-82.75 57.51) rotate(-11.32)"/><ellipse class="cls-9" cx="138.61" cy="448.04" rx="12.93" ry="10.39" transform="translate(-85.28 35.94) rotate(-11.32)"/></svg>