<svg id="Comet_Styleguide_using_vue" data-name="Comet Styleguide using vue" xmlns="http://www.w3.org/2000/svg" viewBox="0 0 483.1 575.52"><defs><style>.cls-1{fill:#4dba87;}.cls-2{fill:#003a65;}.cls-3{fill:#435466;}</style></defs><title>Artboard 29</title><path id="path14" class="cls-1" d="M287.75,472.52l-46.2-80-46.2,80H41.55L241.45,126l200.1,346.5Z"/><polygon class="cls-2" points="402.05 369.12 361.5 369.12 381.77 333.98 402.05 369.12"/><polygon class="cls-2" points="241.35 246.02 218.33 286 198.05 250.82 169.46 250.82 241.45 126.02 313.48 250.82 284.75 250.82 264.44 285.97 241.35 246.02"/><polygon class="cls-2" points="121.46 369.22 80.85 369.22 101.15 334.02 121.46 369.22"/><polygon class="cls-3" points="353.5 361.12 324.75 361.12 304.44 325.97 324.75 290.82 353.48 290.82 373.77 325.98 353.5 361.12"/><polygon class="cls-3" points="381.77 317.98 361.48 282.82 402.05 282.82 381.77 317.98"/><polygon class="cls-3" points="169.46 401.22 198.05 401.22 218.33 366 241.35 405.92 264.44 365.97 284.75 401.12 313.5 401.12 241.45 526.02 169.46 401.22"/><polygon class="cls-3" points="158.05 361.22 129.46 361.22 109.15 326.02 129.46 290.82 158.05 290.82 178.33 326 158.05 361.22"/><polygon class="cls-3" points="101.15 318.02 80.85 282.82 121.46 282.82 101.15 318.02"/><rect class="cls-2" x="42.73" y="36.66" width="51.98" height="51.98"/><rect class="cls-1" x="95.62" y="36.66" width="51.98" height="51.98"/><rect class="cls-3" x="148.5" y="36.66" width="51.98" height="51.98"/></svg>