<svg xmlns="http://www.w3.org/2000/svg" xmlns:xlink="http://www.w3.org/1999/xlink" viewBox="0 0 1920 1080"><defs><style>.cls-1,.cls-12{fill:none;}.cls-2{clip-path:url(#clip-path);}.cls-3{fill:#003a65;}.cls-4,.cls-5{fill:#fafbfc;}.cls-5{font-size:16px;font-family:ArialNarrow-Bold, Arial;}.cls-106,.cls-109,.cls-5{font-weight:700;}.cls-6{clip-path:url(#clip-path-4);}.cls-7{fill:#52a2d9;}.cls-11,.cls-8,.cls-92{fill:#fff;}.cls-9{fill:#f2f2f2;}.cls-10,.cls-13,.cls-99{isolation:isolate;}.cls-10{font-size:31.98px;}.cls-10,.cls-101,.cls-11,.cls-13,.cls-16,.cls-17,.cls-87,.cls-89,.cls-91,.cls-92,.cls-96,.cls-97{font-family:ArialMT, Arial;}.cls-106,.cls-107,.cls-109,.cls-11,.cls-13{font-size:24px;}.cls-12{stroke:#e6e6e6;stroke-miterlimit:10;}.cls-109,.cls-13{fill:gray;}.cls-14{fill:#e6e6e6;}.cls-15{clip-path:url(#clip-path-5);}.cls-16,.cls-17,.cls-87,.cls-91,.cls-92{font-size:18px;}.cls-16,.cls-96{fill:#999;}.cls-18{letter-spacing:-0.02em;}.cls-19{letter-spacing:-0.07em;}.cls-20{letter-spacing:-0.02em;}.cls-21{letter-spacing:-0.05em;}.cls-22{letter-spacing:-0.07em;}.cls-23{clip-path:url(#clip-path-6);}.cls-24{clip-path:url(#clip-path-7);}.cls-25{fill:#1e0000;}.cls-26{clip-path:url(#clip-path-8);}.cls-27{fill:url(#radial-gradient);}.cls-28{fill:#c86e14;}.cls-29{clip-path:url(#clip-path-10);}.cls-30{fill:url(#radial-gradient-2);}.cls-31{clip-path:url(#clip-path-11);}.cls-32{fill:url(#linear-gradient);}.cls-33{clip-path:url(#clip-path-12);}.cls-34{fill:url(#linear-gradient-2);}.cls-35{clip-path:url(#clip-path-13);}.cls-36{fill:url(#linear-gradient-3);}.cls-37{clip-path:url(#clip-path-14);}.cls-38{fill:url(#linear-gradient-4);}.cls-39{clip-path:url(#clip-path-15);}.cls-40{fill:url(#linear-gradient-5);}.cls-41{clip-path:url(#clip-path-16);}.cls-42{fill:url(#linear-gradient-6);}.cls-43{clip-path:url(#clip-path-17);}.cls-44{fill:url(#linear-gradient-7);}.cls-45{clip-path:url(#clip-path-18);}.cls-46{fill:url(#linear-gradient-8);}.cls-47{clip-path:url(#clip-path-19);}.cls-48{fill:url(#linear-gradient-9);}.cls-49{clip-path:url(#clip-path-20);}.cls-50{fill:url(#linear-gradient-10);}.cls-51{clip-path:url(#clip-path-21);}.cls-52{fill:url(#linear-gradient-11);}.cls-53{clip-path:url(#clip-path-22);}.cls-54{fill:url(#linear-gradient-12);}.cls-55{clip-path:url(#clip-path-23);}.cls-56{fill:url(#linear-gradient-13);}.cls-57{clip-path:url(#clip-path-24);}.cls-58{fill:url(#linear-gradient-14);}.cls-59{clip-path:url(#clip-path-25);}.cls-60{fill:url(#linear-gradient-15);}.cls-61{clip-path:url(#clip-path-26);}.cls-62{fill:url(#linear-gradient-16);}.cls-63{clip-path:url(#clip-path-27);}.cls-64{fill:url(#linear-gradient-17);}.cls-65{fill:#8f4a02;}.cls-66{clip-path:url(#clip-path-28);}.cls-67{fill:url(#linear-gradient-18);}.cls-68{clip-path:url(#clip-path-29);}.cls-69{fill:url(#linear-gradient-19);}.cls-70{clip-path:url(#clip-path-30);}.cls-71{fill:url(#linear-gradient-20);}.cls-72{clip-path:url(#clip-path-31);}.cls-73{fill:url(#linear-gradient-21);}.cls-74{fill:#ffc20e;}.cls-75{fill:#d78817;}.cls-76{fill:#d89016;}.cls-77{clip-path:url(#clip-path-32);}.cls-78{fill:url(#linear-gradient-22);}.cls-79{clip-path:url(#clip-path-33);}.cls-80{fill:url(#linear-gradient-23);}.cls-81{clip-path:url(#clip-path-34);}.cls-82{fill:url(#linear-gradient-24);}.cls-83{clip-path:url(#clip-path-35);}.cls-84{fill:url(#linear-gradient-25);}.cls-85{fill:#bf7312;}.cls-86{clip-path:url(#clip-path-36);}.cls-87{fill:#3c763d;}.cls-88{clip-path:url(#clip-path-37);}.cls-89{font-size:120px;}.cls-90,.cls-91{fill:#00b6a8;}.cls-93{letter-spacing:-0.04em;}.cls-94{clip-path:url(#clip-path-42);}.cls-95{clip-path:url(#clip-path-44);}.cls-96,.cls-97{font-size:18.06px;}.cls-98{letter-spacing:-0.11em;}.cls-100{clip-path:url(#clip-path-46);}.cls-101{font-size:32.1px;}.cls-102{fill:#8b87b9;}.cls-103{fill:#415fff;}.cls-104{fill:#97bee5;}.cls-105{fill:#a8d0ec;}.cls-106,.cls-109{font-family:Arial-BoldMT, Arial;}.cls-107{fill:#666;font-family:MyriadPro-Regular, Myriad Pro;}.cls-108{letter-spacing:0.01em;}.cls-110{letter-spacing:-0.07em;}</style><clipPath id="clip-path"><rect class="cls-1" width="1920" height="80"/></clipPath><clipPath id="clip-path-4"><rect class="cls-1" x="13.88" y="24.96" width="84.23" height="30.08"/></clipPath><clipPath id="clip-path-5"><rect class="cls-1" x="1035.17" y="707.47" width="141.7" height="141.7"/></clipPath><clipPath id="clip-path-6"><rect class="cls-1" x="1176.87" y="707.47" width="87.57" height="87.58"/></clipPath><clipPath id="clip-path-7"><rect class="cls-1" x="1181.82" y="707.47" width="77.68" height="87.58"/></clipPath><clipPath id="clip-path-8"><path class="cls-1" d="M1220.12,718.61c-10.35.07-19.39,2.11-26.88,6.08V757c0,6.79,2.55,12.47,7.37,16.42,4.41,3.62,18.43,9.77,20.05,10.47h0c1.62-.7,15.63-6.85,20-10.47,4.82-3.95,7.37-9.63,7.37-16.42V724.69c-7.48-4-16.53-6-26.88-6.08Z"/></clipPath><radialGradient id="radial-gradient" cx="982.58" cy="564.32" r="1" gradientTransform="matrix(0, 91.09, 45.54, 0, -24500.02, -88771.87)" gradientUnits="userSpaceOnUse"><stop offset="0" stop-color="#ffdc00"/><stop offset="0.35" stop-color="#ffbe00"/><stop offset="1" stop-color="#c86e14"/></radialGradient><clipPath id="clip-path-10"><path class="cls-1" d="M1219.72,743.76h0v14.65a4.43,4.43,0,0,0,1.54.29c2.75,0,4.06-2.52,4.06-7.73s-1.15-7.56-3.92-7.56a4.12,4.12,0,0,0-1.68.35m-12,14.27h0v-18h4.76v20.69a12.63,12.63,0,0,1-7.18,1.91c-4.72,0-7.12-2.56-7.12-7.61v-15H1203v15.2c0,1.35.33,3.36,2.52,3.36a4,4,0,0,0,2.25-.59m7.21-16.76h0a11.5,11.5,0,0,1,6.43-1.7c5.69,0,8.82,4.32,8.82,11.28s-3,11.73-8.33,11.73a7.6,7.6,0,0,1-2.15-.27v10h-4.77Zm21,11.26c-3.93-2.31-4.64-4.2-4.65-6.74a6.34,6.34,0,0,1,6.4-6.22,8.22,8.22,0,0,1,5.24,1.55v4.15a6.39,6.39,0,0,0-4.28-2c-1.35,0-2.75.58-2.8,2.28s1.36,2.42,3.14,3.46c4,2.34,4.75,4.45,4.66,7.23-.09,3.05-2.19,6.38-6.9,6.38a10.45,10.45,0,0,1-5.25-1.48v-4.39a7.57,7.57,0,0,0,4.56,1.94h0a2.53,2.53,0,0,0,2.84-2.66h0c0-1.49-.88-2.31-3-3.54m-40.16-14h0V757c0,6,2.23,11,6.45,14.48,3.73,3,15.21,8.23,18.45,9.66,3.19-1.41,14.64-6.54,18.44-9.66,4.25-3.51,6.46-8.41,6.46-14.48v-31.6c-3.39-.31-6.91-.52-10.49-.52-13.29,0-27.53,2.86-39.31,13.66"/></clipPath><radialGradient id="radial-gradient-2" cx="982.6" cy="564.36" r="1" gradientTransform="matrix(0, 90.38, 45.19, 0, -24302.84, -88081.69)" gradientUnits="userSpaceOnUse"><stop offset="0" stop-color="#4b3333"/><stop offset="0.35" stop-color="#351a1a"/><stop offset="0.85" stop-color="#1e0000"/><stop offset="1" stop-color="#1e0000"/></radialGradient><clipPath id="clip-path-11"><path class="cls-1" d="M1195.76,757h0c0,6,2.22,11,6.45,14.48,3.73,3,15.21,8.23,18.45,9.66h0v-.37c-2.69-1.19-14.46-6.48-18.23-9.56-4.14-3.37-6.33-8.28-6.33-14.21Z"/></clipPath><linearGradient id="linear-gradient" x1="971.21" y1="559.07" x2="972.21" y2="559.07" gradientTransform="translate(-18179.98 34467.39) rotate(-90) scale(34.68)" gradientUnits="userSpaceOnUse"><stop offset="0" stop-color="#e49f15"/><stop offset="0.02" stop-color="#e39c15"/><stop offset="0.18" stop-color="#dc9116"/><stop offset="0.4" stop-color="#d88a17"/><stop offset="1" stop-color="#d78817"/></linearGradient><clipPath id="clip-path-12"><path class="cls-1" d="M1245.21,757c0,6-2.13,10.75-6.33,14.21-3.65,3-14.69,8-18.22,9.56v.37h0c3.19-1.41,14.64-6.54,18.44-9.66,4.25-3.51,6.46-8.41,6.46-14.48h-.35Z"/></clipPath><linearGradient id="linear-gradient-2" x1="979.38" y1="568.82" x2="980.38" y2="568.82" gradientTransform="translate(-32748.48 -18957.32) scale(34.68)" gradientUnits="userSpaceOnUse"><stop offset="0" stop-color="#ffc20e"/><stop offset="1" stop-color="#d89016"/></linearGradient><clipPath id="clip-path-13"><path class="cls-1" d="M1195.76,738.51l.34.15c9.94-9.06,22.69-13.47,39-13.47,3.18,0,6.5.17,10.14.5l.35-.32c-3.39-.31-6.91-.52-10.49-.52-13.29,0-27.53,2.86-39.31,13.66"/></clipPath><linearGradient id="linear-gradient-3" x1="982.12" y1="565.58" x2="983.12" y2="565.58" gradientTransform="translate(-49230.32 -28307.33) scale(51.34)" gradientUnits="userSpaceOnUse"><stop offset="0" stop-color="#e49f15"/><stop offset="0.97" stop-color="#8f4a02"/><stop offset="1" stop-color="#8f4a02"/></linearGradient><clipPath id="clip-path-14"><path class="cls-1" d="M1225,751c0,4.21-.83,7.39-3.72,7.39v.34h0c2.75,0,4.06-2.52,4.06-7.73Z"/></clipPath><linearGradient id="linear-gradient-4" x1="966.08" y1="592.24" x2="967.08" y2="592.24" gradientTransform="translate(-7217.06 -4416.67) scale(8.73)" gradientUnits="userSpaceOnUse"><stop offset="0" stop-color="#ffc20e"/><stop offset="0.05" stop-color="#ffc20e"/><stop offset="0.95" stop-color="#bf7312"/><stop offset="1" stop-color="#bf7312"/></linearGradient><clipPath id="clip-path-15"><path class="cls-1" d="M1219.72,758.41a4.38,4.38,0,0,0,1.54.29h0v-.34a4,4,0,0,1-1.2-.19Z"/></clipPath><linearGradient id="linear-gradient-5" x1="837.46" y1="426.84" x2="838.46" y2="426.84" gradientTransform="translate(549.55 2075.61) rotate(-90) scale(1.57)" gradientUnits="userSpaceOnUse"><stop offset="0" stop-color="#ffc20e"/><stop offset="0.05" stop-color="#ffc20e"/><stop offset="0.95" stop-color="#f0af13"/><stop offset="1" stop-color="#f0af13"/></linearGradient><clipPath id="clip-path-16"><path class="cls-1" d="M1219.72,743.76h0l.34.22a4.18,4.18,0,0,1,1.35-.22v-.34h0a4.12,4.12,0,0,0-1.68.35"/></clipPath><linearGradient id="linear-gradient-6" x1="1055.99" y1="721.13" x2="1056.99" y2="721.13" gradientTransform="translate(-597.75 -497.45) scale(1.72)" gradientUnits="userSpaceOnUse"><stop offset="0" stop-color="#a65e0c"/><stop offset="0.05" stop-color="#a65e0c"/><stop offset="0.95" stop-color="#8f4a02"/><stop offset="1" stop-color="#8f4a02"/></linearGradient><clipPath id="clip-path-17"><path class="cls-1" d="M1221.4,743.41v.35h0c2.82,0,3.58,2.62,3.58,7.21h.34C1225.32,745.62,1224.17,743.41,1221.4,743.41Z"/></clipPath><linearGradient id="linear-gradient-7" x1="944.89" y1="568.14" x2="945.89" y2="568.14" gradientTransform="translate(-3610.05 8790.08) rotate(-90) scale(8.51)" gradientUnits="userSpaceOnUse"><stop offset="0" stop-color="#bf7312"/><stop offset="0.05" stop-color="#bf7312"/><stop offset="0.95" stop-color="#8f4a02"/><stop offset="1" stop-color="#8f4a02"/></linearGradient><clipPath id="clip-path-18"><path class="cls-1" d="M1230.93,745.79h.35a6.33,6.33,0,0,1,6.39-6.22v-.34a6.67,6.67,0,0,0-6.73,6.56"/></clipPath><linearGradient id="linear-gradient-8" x1="981.23" y1="527.38" x2="982.23" y2="527.38" gradientTransform="translate(10455.71 5696.24) rotate(180) scale(9.39)" gradientUnits="userSpaceOnUse"><stop offset="0" stop-color="#ffc20e"/><stop offset="0.05" stop-color="#ffc20e"/><stop offset="0.95" stop-color="#d89016"/><stop offset="1" stop-color="#d89016"/></linearGradient><clipPath id="clip-path-19"><path class="cls-1" d="M1238.6,743.31c-1.34,0-2.72.6-2.77,2.28h.34c0-.46.23-2,2.42-2l.05-.34Z"/></clipPath><linearGradient id="linear-gradient-9" x1="978.44" y1="644.86" x2="979.44" y2="644.86" gradientTransform="translate(-2299.07 -1585.03) scale(3.61)" gradientUnits="userSpaceOnUse"><stop offset="0" stop-color="#d78817"/><stop offset="0.05" stop-color="#d78817"/><stop offset="0.95" stop-color="#8f4a02"/><stop offset="1" stop-color="#8f4a02"/></linearGradient><clipPath id="clip-path-20"><path class="cls-1" d="M1238.59,743.65h0a6.46,6.46,0,0,1,4.66,2.46l-.34-.84a6.36,6.36,0,0,0-4.27-2Z"/></clipPath><linearGradient id="linear-gradient-10" x1="927.45" y1="538.18" x2="928.45" y2="538.18" gradientTransform="translate(-1659.04 5744.98) rotate(-90) scale(5.39)" gradientUnits="userSpaceOnUse"><stop offset="0" stop-color="#bf7312"/><stop offset="0.95" stop-color="#8f4a02"/><stop offset="1" stop-color="#8f4a02"/></linearGradient><clipPath id="clip-path-21"><path class="cls-1" d="M1237.67,739.23h0v.34a8.18,8.18,0,0,1,5.23,1.55l.34-.17a8.51,8.51,0,0,0-5.28-1.73h-.3"/></clipPath><linearGradient id="linear-gradient-11" x1="1024.41" y1="587.91" x2="1025.41" y2="587.91" gradientTransform="translate(4677.31 -5251.33) rotate(90) scale(5.85)" gradientUnits="userSpaceOnUse"><stop offset="0" stop-color="#ffc20e"/><stop offset="0.05" stop-color="#ffc20e"/><stop offset="0.95" stop-color="#e49f15"/><stop offset="1" stop-color="#e49f15"/></linearGradient><clipPath id="clip-path-22"><path class="cls-1" d="M1236.73,762.66Zm0,0V763h0c4.32,0,7.13-2.88,7.25-6.72h-.35c-.09,3.05-2.19,6.38-6.9,6.38"/></clipPath><linearGradient id="linear-gradient-12" x1="982.41" y1="590.93" x2="983.41" y2="590.93" gradientTransform="matrix(-9.88, 0, 0, 9.88, 10954.58, -5080.6)" xlink:href="#linear-gradient-9"/><clipPath id="clip-path-23"><path class="cls-1" d="M1231.14,761.38a10.81,10.81,0,0,0,5.59,1.63h0v-.35a10.38,10.38,0,0,1-5.25-1.48Z"/></clipPath><linearGradient id="linear-gradient-13" x1="1023.71" y1="530.57" x2="1024.71" y2="530.57" gradientTransform="matrix(0, 5.82, 5.82, 0, -1853.39, -5197.59)" xlink:href="#linear-gradient-10"/><clipPath id="clip-path-24"><path class="cls-1" d="M1231.48,756.79h0a7.57,7.57,0,0,0,4.56,1.94v-.34a7.73,7.73,0,0,1-4.9-2.36Z"/></clipPath><linearGradient id="linear-gradient-14" x1="929.99" y1="537.58" x2="930.99" y2="537.58" gradientTransform="translate(-1774 5963.24) rotate(-90) scale(5.59)" gradientUnits="userSpaceOnUse"><stop offset="0" stop-color="#ffc20e"/><stop offset="0.05" stop-color="#ffc20e"/><stop offset="1" stop-color="#f0af13"/></linearGradient><clipPath id="clip-path-25"><path class="cls-1" d="M1238.56,756.08h0c0,1.53-1,2.32-2.52,2.31v.34a2.53,2.53,0,0,0,2.86-2.66Z"/></clipPath><linearGradient id="linear-gradient-15" x1="976.37" y1="638.45" x2="977.37" y2="638.45" gradientTransform="translate(-2576.11 -1735.06) scale(3.9)" xlink:href="#linear-gradient-8"/><clipPath id="clip-path-26"><path class="cls-1" d="M1230.93,745.79h0c0,2.67.8,4.68,4.82,7,2.15,1.26,2.78,2,2.81,3.25h.34c0-1.51-.88-2.32-3-3.55-3.93-2.31-4.64-4.2-4.64-6.74Z"/></clipPath><linearGradient id="linear-gradient-16" x1="1003.46" y1="557.89" x2="1004.46" y2="557.89" gradientTransform="translate(8497.75 -12319.04) rotate(90) scale(13.02)" gradientUnits="userSpaceOnUse"><stop offset="0" stop-color="#d89016"/><stop offset="0.4" stop-color="#bf7312"/><stop offset="0.6" stop-color="#bf7312"/><stop offset="1" stop-color="#d89016"/></linearGradient><clipPath id="clip-path-27"><path class="cls-1" d="M1239,749.05h0c4,2.35,4.75,4.45,4.66,7.23h.34c.1-2.84-.68-5.09-4.83-7.53-1.69-1-3-1.58-3-3.16h-.34c0,1.73,1.36,2.42,3.14,3.46"/></clipPath><linearGradient id="linear-gradient-17" x1="1002.75" y1="558.51" x2="1003.75" y2="558.51" gradientTransform="translate(8751.22 -12741.58) rotate(90) scale(13.45)" gradientUnits="userSpaceOnUse"><stop offset="0" stop-color="#d78817"/><stop offset="0.4" stop-color="#e49f15"/><stop offset="0.6" stop-color="#e49f15"/><stop offset="1" stop-color="#d78817"/></linearGradient><clipPath id="clip-path-28"><path class="cls-1" d="M1220.06,762.75h0a8.31,8.31,0,0,0,1.8.18h0v-.34a7.47,7.47,0,0,1-2.14-.27Z"/></clipPath><linearGradient id="linear-gradient-18" x1="1084.07" y1="468.73" x2="1085.07" y2="468.73" gradientTransform="matrix(0, 2.21, 2.21, 0, 182.58, -1639.64)" xlink:href="#linear-gradient-6"/><clipPath id="clip-path-29"><path class="cls-1" d="M1230.19,750.85c0,7-3,11.73-8.33,11.73v.35c6.15,0,8.68-5.88,8.68-12.08h-.35Z"/></clipPath><linearGradient id="linear-gradient-19" x1="985.14" y1="540.04" x2="986.14" y2="540.04" gradientTransform="translate(15885.18 8788.58) rotate(180) scale(14.87)" xlink:href="#linear-gradient-6"/><clipPath id="clip-path-30"><path class="cls-1" d="M1214.6,741.08l.34.19a11.5,11.5,0,0,1,6.43-1.7v-.34a11.89,11.89,0,0,0-6.77,1.85"/></clipPath><linearGradient id="linear-gradient-20" x1="961.23" y1="520.56" x2="962.23" y2="520.56" gradientTransform="translate(7969.42 4394.62) rotate(180) scale(7.02)" xlink:href="#linear-gradient-5"/><clipPath id="clip-path-31"><path class="cls-1" d="M1221.37,739.57c5.7,0,8.82,4.32,8.82,11.28h.35c0-6.15-2.58-11.61-9.17-11.61Z"/></clipPath><linearGradient id="linear-gradient-21" x1="1000.71" y1="559.33" x2="1001.71" y2="559.33" gradientTransform="translate(9501.11 -14067.63) rotate(90) scale(14.79)" gradientUnits="userSpaceOnUse"><stop offset="0" stop-color="#ffc20e"/><stop offset="0.05" stop-color="#ffc20e"/><stop offset="0.95" stop-color="#a65e0c"/><stop offset="1" stop-color="#a65e0c"/></linearGradient><clipPath id="clip-path-32"><path class="cls-1" d="M1197.85,755.05h0c0,5.05,2.37,8,7.46,8h0v-.35c-4.72,0-7.11-2.56-7.11-7.61Z"/></clipPath><linearGradient id="linear-gradient-22" x1="1008.08" y1="561.45" x2="1009.08" y2="561.45" gradientTransform="translate(7324.69 -10240.44) rotate(90) scale(10.91)" gradientUnits="userSpaceOnUse"><stop offset="0" stop-color="#d89016"/><stop offset="0.05" stop-color="#d89016"/><stop offset="0.95" stop-color="#8f4a02"/><stop offset="1" stop-color="#8f4a02"/></linearGradient><clipPath id="clip-path-33"><path class="cls-1" d="M1205.31,762.66h0V763a13,13,0,0,0,7.53-2.08l-.35-.18a12.63,12.63,0,0,1-7.18,1.91"/></clipPath><linearGradient id="linear-gradient-23" x1="963.13" y1="595.45" x2="964.13" y2="595.45" gradientTransform="matrix(-7.81, 0, 0, 7.81, 8734.54, -3888.31)" xlink:href="#linear-gradient-6"/><clipPath id="clip-path-34"><path class="cls-1" d="M1205.48,758.27v.35a3.92,3.92,0,0,0,2.25-.59l-.34-.19a3.86,3.86,0,0,1-1.91.43"/></clipPath><linearGradient id="linear-gradient-24" x1="1037.98" y1="441.89" x2="1038.98" y2="441.89" gradientTransform="matrix(2.33, 0, 0, -2.33, -1213.36, 1787.94)" xlink:href="#linear-gradient-5"/><clipPath id="clip-path-35"><path class="cls-1" d="M1203,755.26h0c0,1.35.33,3.36,2.52,3.36v-.35c-1.68,0-2.17-1.35-2.17-3Z"/></clipPath><linearGradient id="linear-gradient-25" x1="907.04" y1="564.78" x2="908.04" y2="564.78" gradientTransform="matrix(0, -4.19, 4.19, 0, -1164.16, 4562.66)" gradientUnits="userSpaceOnUse"><stop offset="0" stop-color="#ffc20e"/><stop offset="0.05" stop-color="#ffc20e"/><stop offset="0.95" stop-color="#d78817"/><stop offset="1" stop-color="#d78817"/></linearGradient><clipPath id="clip-path-36"><rect class="cls-1" x="1176.87" y="795.05" width="87.57" height="53.71"/></clipPath><clipPath id="clip-path-37"><rect class="cls-1" x="1264.44" y="707.47" width="370.97" height="370.97"/></clipPath><clipPath id="clip-path-42"><rect class="cls-1" x="1035.17" y="849.18" width="229.28" height="230.82"/></clipPath><clipPath id="clip-path-44"><rect class="cls-1" x="1035.17" y="107.24" width="600.23" height="600.23"/></clipPath><clipPath id="clip-path-46"><rect class="cls-1" x="1050.6" y="122.27" width="82.51" height="37.97"/></clipPath></defs><title>Artboard 14 copy 7</title><g id="Layer_2" data-name="Layer 2"><g class="cls-2"><polygon class="cls-3" points="0 0 0 80 1919.98 80 1920 0 0 0"/><g class="cls-2"><path class="cls-4" d="M1872,40a16,16,0,1,0,16-16,16,16,0,0,0-16,16"/></g><text class="cls-5" transform="translate(1835.24 44.41)">JDoe</text><g class="cls-2"><path d="M1888,32a5,5,0,1,1-5,5,5,5,0,0,1,5-5m5.73,10.43-2.23-.56a6,6,0,0,1-7,0l-2.23.56a3,3,0,0,0-2.27,2.91V46.5a1.5,1.5,0,0,0,1.5,1.5h13a1.5,1.5,0,0,0,1.5-1.5V45.34a3,3,0,0,0-2.27-2.91"/></g><text class="cls-5" transform="translate(1745.36 44.41)">LogOut</text><g class="cls-6"><path class="cls-7" d="M29.61,26.56l-6.07,3,1.55,3.09q1.25,2.49.48,4.13a5.62,5.62,0,0,1-2.78,2.64A5.67,5.67,0,0,1,19.9,40a3.62,3.62,0,0,1-2.26-1,8.33,8.33,0,0,1-1.48-2.23l-2.28-4.55L28.8,25ZM16.45,33,18,36.07a5.07,5.07,0,0,0,1.1,1.61,2.22,2.22,0,0,0,1.27.37,3.54,3.54,0,0,0,1.69-.4A3,3,0,0,0,23.75,36a3.3,3.3,0,0,0-.41-2.49L21.8,30.37Z"/><path class="cls-8" d="M28.81,55,13.89,47.77l2.28-4.55A8,8,0,0,1,17.64,41a3.56,3.56,0,0,1,2.27-1,6.35,6.35,0,0,1,5.67,3.24q.74,1.64-.49,4.14l-1.55,3.09,6.07,3Zm-7-5.41,1.56-3.13a3.23,3.23,0,0,0,.4-2.49,3,3,0,0,0-1.7-1.67,3.54,3.54,0,0,0-1.68-.41,2.13,2.13,0,0,0-1.27.38A4.81,4.81,0,0,0,18,43.92L16.46,47Z"/><path class="cls-8" d="M28,53.44l6.07-3-1.55-3.09c-.83-1.66-1-3-.49-4.13A6.34,6.34,0,0,1,37.7,40,3.62,3.62,0,0,1,40,41a8.14,8.14,0,0,1,1.49,2.23l2.28,4.55L28.82,55ZM41.16,47l-1.55-3.09a4.88,4.88,0,0,0-1.09-1.61A2.23,2.23,0,0,0,37.24,42a3.53,3.53,0,0,0-1.68.4A3,3,0,0,0,33.86,44a3.3,3.3,0,0,0,.41,2.49l1.56,3.12Z"/><path class="cls-7" d="M28.8,25l14.92,7.27-2.28,4.55A8,8,0,0,1,40,39a3.61,3.61,0,0,1-2.27,1,5.49,5.49,0,0,1-2.89-.63A5.64,5.64,0,0,1,32,36.72c-.5-1.09-.33-2.47.49-4.14L34,29.49l-6.06-3Zm7,5.41L34.26,33.5a3.28,3.28,0,0,0-.4,2.49,3,3,0,0,0,1.7,1.67,3.55,3.55,0,0,0,1.69.41,2.15,2.15,0,0,0,1.27-.38,4.93,4.93,0,0,0,1.09-1.61L41.16,33Z"/><path class="cls-8" d="M50,50.89,51,50.75a4.48,4.48,0,0,0,.35,1.51,2.19,2.19,0,0,0,.85,1,2.42,2.42,0,0,0,1.3.36,2.3,2.3,0,0,0,1.13-.27,1.78,1.78,0,0,0,.73-.76,2.31,2.31,0,0,0,.24-1,2.15,2.15,0,0,0-.23-1,1.85,1.85,0,0,0-.76-.73,11.26,11.26,0,0,0-1.51-.6,6.11,6.11,0,0,1-1.63-.76,2.83,2.83,0,0,1-.91-1.15,3.9,3.9,0,0,1-.29-1.53A4.24,4.24,0,0,1,50.67,44a2.7,2.7,0,0,1,1.06-1.22,3.21,3.21,0,0,1,3.21,0,2.83,2.83,0,0,1,1.11,1.29A5,5,0,0,1,56.47,46l-1.08.12a3.06,3.06,0,0,0-.58-1.76,2.21,2.21,0,0,0-3-.06,1.93,1.93,0,0,0-.46,1.3,1.71,1.71,0,0,0,.33,1.09,3.63,3.63,0,0,0,1.68.88,9.18,9.18,0,0,1,1.88.78,3.07,3.07,0,0,1,1.09,1.26,4.12,4.12,0,0,1,.35,1.74,4.45,4.45,0,0,1-.39,1.85,3,3,0,0,1-1.11,1.35,2.86,2.86,0,0,1-1.63.48,3.57,3.57,0,0,1-1.92-.48,3.26,3.26,0,0,1-1.22-1.47,5.5,5.5,0,0,1-.47-2.2"/><polygon class="cls-8" points="60.4 54.83 60.4 44 57.61 44 57.61 42.55 64.32 42.55 64.32 44 61.52 44 61.52 54.83 60.4 54.83"/><path class="cls-8" d="M63.66,54.83l3.25-12.28h1.21l3.47,12.28H70.31l-1-3.72H65.78l-.93,3.72Zm2.45-5H69l-.89-3.4q-.41-1.56-.6-2.55A23,23,0,0,1,67,46.18Z"/><polygon class="cls-8" points="73.75 54.83 73.75 44 70.97 44 70.97 42.55 77.67 42.55 77.67 44 74.88 44 74.88 54.83 73.75 54.83"/><rect class="cls-8" x="79.01" y="42.55" width="1.12" height="12.29"/><path class="cls-8" d="M81.77,48.85a8.64,8.64,0,0,1,1.13-4.79,3.39,3.39,0,0,1,2.92-1.73,3.14,3.14,0,0,1,2.11.81,5.06,5.06,0,0,1,1.44,2.27,10.22,10.22,0,0,1,.49,3.3,9.92,9.92,0,0,1-.52,3.34,4.7,4.7,0,0,1-1.47,2.23,3.23,3.23,0,0,1-2.06.76,3.12,3.12,0,0,1-2.13-.84,5.25,5.25,0,0,1-1.43-2.28,9.72,9.72,0,0,1-.48-3.07m1.15,0a6.4,6.4,0,0,0,.83,3.5,2.31,2.31,0,0,0,4.14,0,6.89,6.89,0,0,0,.82-3.66,8.89,8.89,0,0,0-.35-2.62,4,4,0,0,0-1-1.74,2.19,2.19,0,0,0-1.51-.61,2.47,2.47,0,0,0-2,1.18,7,7,0,0,0-.86,4"/><polygon class="cls-8" points="91.29 54.83 91.29 42.55 92.44 42.55 96.89 52.19 96.89 42.55 97.96 42.55 97.96 54.83 96.81 54.83 92.37 45.18 92.37 54.83 91.29 54.83"/><path class="cls-7" d="M50,41.15V25H55a17.85,17.85,0,0,1,3.74.24A4.09,4.09,0,0,1,61,26.79a5.16,5.16,0,0,1,.9,3.15,5.45,5.45,0,0,1-.52,2.51,4.47,4.47,0,0,1-3,2.36,17.72,17.72,0,0,1-3.26.23h-2v6.11ZM53.13,27.7v4.59h1.72A7.82,7.82,0,0,0,57.33,32a2.12,2.12,0,0,0,1-.8A2.29,2.29,0,0,0,58.67,30a2.13,2.13,0,0,0-.5-1.45,2.07,2.07,0,0,0-1.26-.72,15.08,15.08,0,0,0-2.26-.11Z"/><path class="cls-7" d="M66.27,33l-2.71-.51A4.43,4.43,0,0,1,65.13,30a5.61,5.61,0,0,1,3.31-.82,6.9,6.9,0,0,1,3,.5,2.94,2.94,0,0,1,1.37,1.24,6.57,6.57,0,0,1,.4,2.78l0,3.62a13.74,13.74,0,0,0,.14,2.28,7.22,7.22,0,0,0,.54,1.58h-3c-.07-.21-.17-.51-.28-.92,0-.18-.09-.3-.11-.36A5.5,5.5,0,0,1,68.86,41a4.65,4.65,0,0,1-1.86.38,3.79,3.79,0,0,1-2.75-1,3.33,3.33,0,0,1-1-2.49,3.39,3.39,0,0,1,.46-1.77A3,3,0,0,1,65,35a9.21,9.21,0,0,1,2.37-.72,15.22,15.22,0,0,0,2.9-.77v-.31a1.61,1.61,0,0,0-.43-1.27,2.47,2.47,0,0,0-1.6-.38,2,2,0,0,0-1.24.33A2.16,2.16,0,0,0,66.27,33m4,2.52a17.8,17.8,0,0,1-1.82.47,5,5,0,0,0-1.62.54,1.32,1.32,0,0,0-.59,1.1,1.54,1.54,0,0,0,.47,1.12,1.59,1.59,0,0,0,1.19.48,2.52,2.52,0,0,0,1.54-.56,1.93,1.93,0,0,0,.71-1,6.26,6.26,0,0,0,.12-1.52Z"/><path class="cls-7" d="M86,32.89l-3,.55a2.26,2.26,0,0,0-.67-1.38A2,2,0,0,0,81,31.59a2.17,2.17,0,0,0-1.77.81,4.14,4.14,0,0,0-.67,2.67,4.88,4.88,0,0,0,.68,3,2.16,2.16,0,0,0,1.81.86,2,2,0,0,0,1.39-.5,3.07,3.07,0,0,0,.76-1.73l2.93.52a5.38,5.38,0,0,1-1.75,3.17,5.29,5.29,0,0,1-3.47,1.07,5.08,5.08,0,0,1-4-1.62,6.45,6.45,0,0,1-1.47-4.5A6.45,6.45,0,0,1,77,30.77a5.12,5.12,0,0,1,4-1.62,5.28,5.28,0,0,1,3.28.93A5.15,5.15,0,0,1,86,32.89"/><polygon class="cls-7" points="87.69 41.15 87.69 24.96 90.67 24.96 90.67 33.55 94.17 29.42 97.84 29.42 93.98 33.7 98.12 41.15 94.9 41.15 92.06 35.88 90.67 37.39 90.67 41.15 87.69 41.15"/></g></g><g id="Rectangle_10" data-name="Rectangle 10"><path class="cls-9" d="M1034.22,109.78v969.27H65V109.78h969.27m1-1H64V1080h971.17V108.83Z"/></g><text class="cls-10" transform="translate(80 152.28)">Product(s)</text><rect class="cls-3" x="64" y="845.61" width="973.59" height="232.8"/><text class="cls-11" transform="translate(96 897.35)">Instructions</text><line class="cls-12" x1="98.42" y1="787.55" x2="1005.59" y2="787.55"/><text class="cls-13" transform="translate(98.42 782.69)">Shipment(s)</text><path class="cls-4" d="M976,840.2h29.6v-45H976a2.4,2.4,0,0,0-2.4,2.41V837.8A2.39,2.39,0,0,0,976,840.2Z"/><path class="cls-14" d="M1001.08,818.29l-17.8,6.43a5.32,5.32,0,0,1-3.11,0l-2.08-.75c-.85-.31-.86-.81,0-1.12l14.11-5.12-14.11-5.12c-.86-.31-.85-.81,0-1.12l2.08-.75a5.32,5.32,0,0,1,3.11,0l17.8,6.43C1001.94,817.48,1001.94,818,1001.08,818.29Z"/><path class="cls-4" d="M128,840.57H98.42v-45H128a2.41,2.41,0,0,1,2.41,2.41v40.14A2.4,2.4,0,0,1,128,840.57Z"/><path class="cls-14" d="M102.92,817.54l17.81-6.43a5.32,5.32,0,0,1,3.11,0l2.07.75c.86.31.86.81,0,1.12l-14.11,5.12,14.1,5.12c.86.31.86.81,0,1.12l-2.08.75a5.28,5.28,0,0,1-3.1,0l-17.81-6.43C102.07,818.35,102.07,817.85,102.92,817.54Z"/><g id="Order"><g class="cls-15"><path class="cls-14" d="M1035.31,707.61h141.42V849H1035.31Zm-.14,141.57h141.7V707.47h-141.7Z"/><text class="cls-16" transform="translate(1050.79 738.92)">Service Level</text><text class="cls-17" transform="translate(1058.78 770.9)">UPS NEX<tspan class="cls-18" x="79.02" y="0">T</tspan><tspan x="89.71" y="0"> </tspan></text><text class="cls-17" transform="translate(1058.78 792.5)">D<tspan class="cls-19" x="13" y="0">A</tspan><tspan class="cls-20" x="23.69" y="0">Y</tspan><tspan class="cls-21" x="35.37" y="0"> </tspan><tspan x="39.4" y="0">AIR </tspan></text><text class="cls-17" transform="translate(1058.78 814.1)">S<tspan class="cls-22" x="12.01" y="0">A</tspan><tspan x="22.68" y="0">VER</tspan></text></g><g class="cls-23"><path class="cls-14" d="M1177,707.56h87.4V795H1177Zm-.09,87.49h87.57V707.47h-87.57Z"/><g class="cls-24"><path class="cls-25" d="M1220.66,718c-11,0-20,2.09-28,6.31V757c0,7,2.62,12.8,7.58,16.87,4.47,3.66,18.79,9.94,20.41,10.64,1.62-.7,15.93-7,20.4-10.64,5-4.07,7.58-9.9,7.58-16.87V724.35c-8-4.22-17-6.31-28-6.31"/></g><g class="cls-26"><rect class="cls-27" x="1193.24" y="718.61" width="54.83" height="65.25"/></g><g class="cls-24"><path class="cls-28" d="M1238.16,780.16V783h.5v-1.17h.08l.76,1.17h.61l-.84-1.23a.75.75,0,0,0,.62-.75c0-.4-.25-.82-.94-.82Zm.74.41c.42,0,.48.21.48.39s-.11.44-.65.44h-.06v-.83Zm2,1a1.9,1.9,0,1,1-1.9-1.9,1.89,1.89,0,0,1,1.9,1.9m-1.9-2.31a2.31,2.31,0,1,0,2.31,2.31,2.31,2.31,0,0,0-2.31-2.31"/></g><g class="cls-29"><rect class="cls-30" x="1195.76" y="724.85" width="49.8" height="56.26"/></g><g class="cls-31"><rect class="cls-32" x="1190.88" y="751.7" width="34.66" height="34.68" transform="translate(-184.29 1103.93) rotate(-46)"/></g><g class="cls-33"><rect class="cls-34" x="1215.77" y="751.71" width="34.68" height="34.66" transform="translate(-188.14 1072.43) rotate(-44)"/></g><g class="cls-35"><rect class="cls-36" x="1194.88" y="717.05" width="51.57" height="29.42" transform="translate(-172.75 442.14) rotate(-19.2)"/></g><g class="cls-37"><rect class="cls-38" x="1218.93" y="751.29" width="8.73" height="7.1" transform="translate(-0.7 1508.53) rotate(-63.3)"/></g><g class="cls-39"><rect class="cls-40" x="1220.13" y="757.63" width="0.72" height="1.6" transform="translate(318.97 1877.4) rotate(-83)"/></g><g class="cls-41"><rect class="cls-42" x="1219.67" y="743.21" width="1.78" height="0.98" transform="translate(-148.77 334.07) rotate(-14.7)"/></g><g class="cls-43"><rect class="cls-44" x="1219.91" y="742.94" width="6.91" height="8.51" transform="translate(-205.68 634.34) rotate(-26.9)"/></g><g class="cls-45"><rect class="cls-46" x="1229.59" y="737.81" width="9.42" height="9.4" transform="translate(-179.32 1019.09) rotate(-42.1)"/></g><g class="cls-47"><rect class="cls-48" x="1235.43" y="742.67" width="3.62" height="3.57" transform="translate(-184.92 994.31) rotate(-41)"/></g><g class="cls-49"><rect class="cls-50" x="1238.6" y="742" width="4.64" height="5.43" transform="translate(7.36 1501.55) rotate(-62.5)"/></g><g class="cls-51"><rect class="cls-52" x="1238.7" y="737.22" width="3.52" height="5.9" transform="translate(154.85 1693.09) rotate(-72.1)"/></g><g class="cls-53"><rect class="cls-54" x="1235.41" y="754.71" width="9.88" height="9.88" transform="translate(-177.34 1084.73) rotate(-44.4)"/></g><g class="cls-55"><rect class="cls-56" x="1232.28" y="759.16" width="3.3" height="5.87" transform="translate(159.52 1736.28) rotate(-73.9)"/></g><g class="cls-57"><rect class="cls-58" x="1231.3" y="754.58" width="4.57" height="5.59" transform="translate(13.45 1536.24) rotate(-64.1)"/></g><g class="cls-59"><rect class="cls-60" x="1235.52" y="755.45" width="3.94" height="3.92" transform="translate(-186.09 1037.51) rotate(-42.6)"/></g><g class="cls-61"><rect class="cls-62" x="1228.71" y="744.44" width="12.42" height="13" transform="translate(-207.7 839.09) rotate(-34.8)"/></g><g class="cls-63"><rect class="cls-64" x="1233.42" y="744.18" width="13.01" height="13.53" transform="translate(-204.16 877.27) rotate(-36.2)"/></g><polygon class="cls-65" points="1214.94 772.36 1214.6 772.7 1220.06 772.7 1219.72 772.36 1214.94 772.36"/><g class="cls-66"><rect class="cls-67" x="1220.32" y="761.51" width="0.93" height="2.21" transform="translate(280.35 1852.34) rotate(-81.2)"/></g><g class="cls-68"><rect class="cls-69" x="1218.76" y="749.84" width="14.87" height="14.09" transform="translate(-103.02 1313.31) rotate(-54.4)"/></g><g class="cls-70"><rect class="cls-71" x="1214.45" y="738.42" width="7.07" height="3.67" transform="translate(-146.55 328.54) rotate(-14.5)"/></g><g class="cls-72"><rect class="cls-73" x="1218.77" y="737.64" width="14.38" height="14.8" transform="translate(-198.51 915.2) rotate(-38.1)"/></g><path class="cls-74" d="M1197.85,739.71l.34.35H1203l.34-.35Zm9.54,0,.34.35h4.77l.34-.35Z"/><path class="cls-75" d="M1195.76,757V738.51l.35.15V757Zm47.49-10.86V741l-.34.17v4.15l.34.84Zm-39.94,9.15V739.71l-.35.35v15.2Z"/><path class="cls-76" d="M1245.21,757V725.69l.34-.32V757Zm-14.07-.94v5.35l.34-.2v-4.39l-.34-.76Zm-23.41,2v-18l-.34-.35v18.14Zm-9.53-3v-15l-.35-.35v15.34Z"/><g class="cls-77"><rect class="cls-78" x="1196.14" y="753.58" width="10.88" height="10.91" transform="translate(-195.32 1020.95) rotate(-42.9)"/></g><g class="cls-79"><rect class="cls-80" x="1205.14" y="759.84" width="7.86" height="4.07" transform="translate(-152.25 327) rotate(-14.5)"/></g><g class="cls-81"><rect class="cls-82" x="1205.42" y="757.59" width="2.38" height="1.29" transform="translate(-146.05 309.76) rotate(-13.8)"/></g><g class="cls-83"><rect class="cls-84" x="1202.22" y="754.84" width="4.01" height="4.19" transform="translate(-214.59 857.34) rotate(-36.2)"/></g><polygon class="cls-75" points="1214.6 772.7 1214.94 772.36 1214.94 741.27 1214.6 741.08 1214.6 772.7"/><path class="cls-85" d="M1220.06,758.17V744l-.34-.22v14.65Zm0,4.58v10l-.34-.34V762.31Zm-7.22-1.82V739.71l-.34.35v20.69"/></g><g class="cls-86"><path class="cls-14" d="M1176.94,795.12h87.44V848.7h-87.44Zm-.07,53.64h87.57V795.05h-87.57Z"/><text class="cls-87" transform="translate(1192.87 826.5)">$ </text><text class="cls-17" transform="translate(1207.88 826.5)">5.19</text></g><g class="cls-88"><path class="cls-4" d="M1265.44,708.47h369v369h-369Zm-1,370h371v-371h-371Z"/><text class="cls-16" transform="translate(1280.44 738.95)">BOX</text><text class="cls-89" transform="translate(1280.44 843.98)">1</text><g class="cls-88"><path class="cls-90" d="M1608.56,752.29a3,3,0,0,1,3,3v24a3,3,0,0,1-3,3H1354a3,3,0,0,1-3-3v-24a3,3,0,0,1,3-3h254.54m0-1H1354a4,4,0,0,0-4,4v24a4,4,0,0,0,4,4h254.54a4,4,0,0,0,4-4v-24a4,4,0,0,0-4-4"/></g><text class="cls-91" transform="translate(1366.02 772.09)">16 x 12 x 16 box</text><g class="cls-88"><path class="cls-90" d="M1591.41,763.29h12.2a1,1,0,0,1,.67,1.62l-6.1,6.1a1,1,0,0,1-1.34,0l-6.1-6.1a1,1,0,0,1,.67-1.62"/></g><text class="cls-17" transform="translate(1350.02 855.45)">Quantity</text><g class="cls-88"><path class="cls-90" d="M1604.56,865.85h-16a8,8,0,0,1-8-8v-16a8,8,0,0,1,8-8h16a8,8,0,0,1,8,8v16a8,8,0,0,1-8,8"/></g><text class="cls-92" transform="translate(1591.56 855.45)">1</text><g class="cls-88"><path class="cls-90" d="M1604.56,825.85h-16a8,8,0,0,1-8-8v-16a8,8,0,0,1,8-8h16a8,8,0,0,1,8,8v16a8,8,0,0,1-8,8"/></g><text class="cls-92" transform="translate(1591.56 815.45)">1</text><text class="cls-17" transform="translate(1350.01 815.45)">Line Item(s)</text><text class="cls-16" transform="translate(1280.44 896.61)"><tspan class="cls-93">T</tspan><tspan x="10.33" y="0">racking #</tspan></text><text class="cls-17" transform="translate(1280.44 924.87)">USPS124Z1231243424</text></g><g class="cls-94"><path class="cls-14" d="M1035.39,849.4h228.83v228.83H1035.39Zm-.22,229.05h229.27V849.18H1035.17Z"/><g class="cls-94"><text class="cls-16" transform="translate(1050.79 864.62)"><tspan class="cls-20">W</tspan><tspan x="16.67" y="0">eight</tspan></text></g><text class="cls-16" transform="translate(1050.79 944.62)">Dimensions</text><text class="cls-17" transform="translate(1058.78 980.89)">13 x 9 x 16 inches</text><text class="cls-17" transform="translate(1058.78 900.9)">12.6 Lb</text></g><g class="cls-95"><rect class="cls-4" x="1035.17" y="107.24" width="599.23" height="599.22"/><text class="cls-96" transform="translate(1066.27 183.38)">Order #</text><text class="cls-97" transform="translate(1074.29 215.49)">NZXT12345-4345-01</text><text class="cls-96" transform="translate(1066.27 255.62)">Line Items</text><text class="cls-97" transform="translate(1074.29 287.73)">1</text><text class="cls-96" transform="translate(1066.27 335.89)">Quantity</text><text class="cls-97" transform="translate(1074.29 368)">1</text><text class="cls-96" transform="translate(1066.27 416.16)">Ship<tspan class="cls-98" x="36.14" y="0">T</tspan><tspan x="45.19" y="0">o</tspan></text><text class="cls-97" transform="translate(1074.29 448.2)">John Doe,</text><text class="cls-97" transform="translate(1074.29 469.87)">Rochester NY</text><text class="cls-97" transform="translate(1074.29 491.54)">14623</text><g class="cls-95"><g class="cls-99"><g class="cls-100"><text class="cls-101" transform="translate(1050.6 149.82)">Order</text></g></g><path class="cls-102" d="M1579.78,175.47c-5.58,9.56-16,16.45-28,16.45a33.74,33.74,0,0,1,0-67.47c4.66,0,11,3,11,3.45,0,0,1.07,2.42-1.53,1.92a48.37,48.37,0,0,0-8-1.13,28.88,28.88,0,0,0-28.92,28.85c0,.44,0,.88,0,1.33.75,17.13,16.6,29.9,33.54,27.25a28.93,28.93,0,0,0,19.68-12.58,4.81,4.81,0,0,1,1-.07c.42.09,1.67,1.15,1.17,2"/><path class="cls-102" d="M1557.05,139.75a32.8,32.8,0,0,1,28-16.45,33.73,33.73,0,0,1,1.17,67.45H1585c-4.66,0-11-3-11-3.46,0,0-1.07-2.42,1.54-1.92a47.21,47.21,0,0,0,8,1.14,28.89,28.89,0,1,0-24.34-44.86,4.82,4.82,0,0,1-1,.08c-.4-.09-1.66-1.15-1.18-2"/><path class="cls-102" d="M1393.91,685.65a11.5,11.5,0,0,1-9.82,5.77,11.84,11.84,0,1,1,0-23.68A8,8,0,0,1,1388,669s.38.84-.53.67a17.9,17.9,0,0,0-2.82-.4,10.15,10.15,0,0,0-10.15,10.13c0,.15,0,.31,0,.46a10.2,10.2,0,0,0,18.67,5.15,1.45,1.45,0,0,1,.36,0c.14,0,.58.4.41.7"/><path class="cls-102" d="M1385.93,673.11a11.52,11.52,0,0,1,9.82-5.77,11.84,11.84,0,0,1,.41,23.67h-.41a8,8,0,0,1-3.87-1.21s-.38-.85.54-.68a15.72,15.72,0,0,0,2.81.4,10.14,10.14,0,1,0-8.54-15.74,2,2,0,0,1-.35,0c-.14,0-.58-.4-.41-.7"/><path class="cls-103" d="M1538.35,687.4h-7.91a4.79,4.79,0,1,1,0-9.57h7.91a4.79,4.79,0,1,1,0,9.57m.16-13.57h-7.93c-8.26,0-9,6.74-9,8.8s.73,8.79,9,8.79h7.94c8.25,0,9-6.74,9-8.79s-.74-8.8-9-8.8"/><path class="cls-103" d="M1520,674.44h-2.57c-1.1,0-1.33.19-1.76.81L1507.87,687a.91.91,0,0,1-.79.48.94.94,0,0,1-.8-.48l-7.79-11.72c-.43-.62-.65-.81-1.76-.81h-2.57c-.6,0-.87.46-.49,1l8.8,13.18c1.36,2,2.36,2.78,4.61,2.78s3.24-.8,4.61-2.78l8.8-13.18c.37-.56.1-1-.49-1m-33.92,1.08c0-.77.3-1.08,1.06-1.08h1.9c.76,0,1.06.31,1.06,1.08v14.82c0,.77-.3,1.08-1.06,1.08h-1.9c-.76,0-1.06-.31-1.06-1.08Zm-.14-4.7a1,1,0,0,1,0-1.71l1.31-1.31a1,1,0,0,1,1.71,0l1.31,1.31a1,1,0,0,1,0,1.71l-1.31,1.31a1,1,0,0,1-1.71,0l-1.31-1.31Zm-3.93,3.62h-2.57c-1.1,0-1.33.19-1.75.81S1469.9,687,1469.9,687a.89.89,0,0,1-1.58,0s-7.36-11.1-7.79-11.72-.65-.81-1.75-.81h-2.58c-.66,0-.86.46-.49,1l8.79,13.18c1.37,2,2.37,2.78,4.61,2.78s3.24-.8,4.61-2.78l8.79-13.18c.37-.56.17-1-.49-1"/><path class="cls-104" d="M1607.3,667.34a12.05,12.05,0,0,0-12,12c0,3.26,3.4,8.39,3.4,8.39,1.22-5.14,9.59-8.76,20.34-11.29a12.06,12.06,0,0,0-11.69-9.15m-3.51,23.56a22,22,0,0,0,3.51.52,12,12,0,0,0,12-12c-10.85,3-18.23,6.89-15.55,11.52Z"/><path class="cls-90" d="M1430.43,673.43l.81-.81a.88.88,0,0,1,1.25,0l7.14,7.14a.88.88,0,0,1,0,1.25l-7.14,7.14a.88.88,0,0,1-1.25,0l-.81-.82a.87.87,0,0,1,0-1.25l4.43-4.22h-10.56a.89.89,0,0,1-.89-.89V679.8a.89.89,0,0,1,.89-.89h10.56l-4.43-4.22a.87.87,0,0,1,0-1.26"/><path class="cls-90" d="M1570.14,673.43l.82-.81a.88.88,0,0,1,1.25,0l7.14,7.14a.88.88,0,0,1,0,1.25l-7.14,7.14a.88.88,0,0,1-1.25,0l-.82-.82a.87.87,0,0,1,0-1.25l4.43-4.22H1564a.89.89,0,0,1-.88-.89V679.8a.89.89,0,0,1,.88-.89h10.57l-4.43-4.22a.88.88,0,0,1,0-1.26"/></g></g></g><rect class="cls-4" x="1699.41" y="77.17" width="222.64" height="1002.83"/><rect class="cls-105" x="1703.41" y="84" width="212.59" height="241.61"/><path class="cls-9" d="M1912,88V321.61H1707.41V88H1912m8-8H1699.41V329.61H1920V80Z"/><text class="cls-106" transform="translate(1774.98 208.33)">BACK</text><rect class="cls-4" x="1703.41" y="333.61" width="212.59" height="241.61"/><path class="cls-9" d="M1912,337.61V571.22H1707.41V337.61H1912m8-8H1699.41V579.22H1920V329.61Z"/><text class="cls-107" transform="translate(1764.04 457.94)">RE-PRINT</text><rect class="cls-4" x="1703.41" y="583.22" width="212.59" height="241.61"/><path class="cls-9" d="M1912,587.22V820.83H1707.41V587.22H1912m8-8H1699.41V828.83H1920V579.22Z"/><text class="cls-107" transform="translate(1775 707.55)">ABO<tspan class="cls-108" x="44.23" y="0">R</tspan><tspan x="57.36" y="0">T</tspan></text><rect class="cls-4" x="1703.41" y="832.83" width="212.59" height="241.61"/><path class="cls-9" d="M1912,836.83v233.61H1707.41V836.83H1912m8-8H1699.41v249.61H1920V828.83Z"/><text class="cls-109" transform="translate(1731.2 957.16)">HOSPI<tspan class="cls-110" x="74.68" y="0">T</tspan><tspan x="87.56" y="0">ALIZE</tspan></text><rect class="cls-4" x="1070.26" y="267.91" width="181.89" height="29.56"/><rect class="cls-4" x="1070.26" y="193.55" width="181.89" height="29.56"/><rect class="cls-4" x="1070.26" y="342.27" width="181.89" height="29.56"/><rect class="cls-4" x="1070.26" y="424.86" width="181.89" height="86.67"/><rect class="cls-4" x="1277.89" y="107.36" width="353.94" height="86.67"/><rect class="cls-8" x="1049.8" y="751.26" width="107.13" height="71.98"/><rect class="cls-8" x="1184.71" y="715.27" width="71.98" height="71.98"/><rect class="cls-8" x="1184.67" y="808.62" width="71.98" height="30.93"/><rect class="cls-8" x="1054.31" y="881.38" width="71.98" height="30.93"/><rect class="cls-8" x="1054.31" y="956.16" width="153.13" height="30.93"/><rect class="cls-8" x="1277.89" y="904.84" width="216.04" height="30.93"/><rect class="cls-8" x="1359.74" y="756.33" width="216.04" height="22"/><rect class="cls-8" x="1575.78" y="828.83" width="39.16" height="39.16"/><rect class="cls-8" x="1575.78" y="789.67" width="39.16" height="39.16"/></g></svg>