<svg xmlns="http://www.w3.org/2000/svg" xmlns:xlink="http://www.w3.org/1999/xlink" viewBox="0 0 1920 1080"><defs><style>.cls-1,.cls-20{fill:none;}.cls-2{clip-path:url(#clip-path);}.cls-3{fill:#003a65;}.cls-4,.cls-5{fill:#fafbfc;}.cls-24,.cls-5{font-size:16px;}.cls-5{font-family:ArialNarrow-Bold, Arial;}.cls-11,.cls-117,.cls-12,.cls-5{font-weight:700;}.cls-6{clip-path:url(#clip-path-4);}.cls-7{fill:#52a2d9;}.cls-10,.cls-104,.cls-11,.cls-12,.cls-8{fill:#fff;}.cls-9{fill:#f2f2f2;}.cls-10,.cls-117,.cls-12,.cls-14,.cls-21{font-size:24px;}.cls-10,.cls-101,.cls-103,.cls-104,.cls-108,.cls-109,.cls-113,.cls-14,.cls-15,.cls-16,.cls-17,.cls-21,.cls-24,.cls-26,.cls-28,.cls-29,.cls-99{font-family:ArialMT, Arial;}.cls-11,.cls-26{font-size:48px;}.cls-11,.cls-117,.cls-12{font-family:Arial-BoldMT, Arial;}.cls-13{fill:#a94442;}.cls-15{font-size:60px;}.cls-16{font-size:14px;}.cls-108,.cls-16,.cls-28{fill:#999;}.cls-111,.cls-17,.cls-21{isolation:isolate;}.cls-17{font-size:31.98px;}.cls-18{clip-path:url(#clip-path-5);}.cls-19{clip-path:url(#clip-path-7);}.cls-20{stroke:#e6e6e6;stroke-miterlimit:10;}.cls-117,.cls-21{fill:gray;}.cls-22{fill:#b3b3b3;}.cls-23{fill:#e6e6e6;}.cls-25{letter-spacing:-0.04em;}.cls-27{clip-path:url(#clip-path-9);}.cls-103,.cls-104,.cls-28,.cls-29,.cls-99{font-size:18px;}.cls-30{letter-spacing:-0.02em;}.cls-31{letter-spacing:-0.07em;}.cls-32{letter-spacing:-0.02em;}.cls-33{letter-spacing:-0.05em;}.cls-34{letter-spacing:-0.07em;}.cls-35{clip-path:url(#clip-path-10);}.cls-36{clip-path:url(#clip-path-11);}.cls-37{fill:#1e0000;}.cls-38{clip-path:url(#clip-path-12);}.cls-39{fill:url(#radial-gradient);}.cls-40{fill:#c86e14;}.cls-41{clip-path:url(#clip-path-14);}.cls-42{fill:url(#radial-gradient-2);}.cls-43{clip-path:url(#clip-path-15);}.cls-44{fill:url(#linear-gradient);}.cls-45{clip-path:url(#clip-path-16);}.cls-46{fill:url(#linear-gradient-2);}.cls-47{clip-path:url(#clip-path-17);}.cls-48{fill:url(#linear-gradient-3);}.cls-49{clip-path:url(#clip-path-18);}.cls-50{fill:url(#linear-gradient-4);}.cls-51{clip-path:url(#clip-path-19);}.cls-52{fill:url(#linear-gradient-5);}.cls-53{clip-path:url(#clip-path-20);}.cls-54{fill:url(#linear-gradient-6);}.cls-55{clip-path:url(#clip-path-21);}.cls-56{fill:url(#linear-gradient-7);}.cls-57{clip-path:url(#clip-path-22);}.cls-58{fill:url(#linear-gradient-8);}.cls-59{clip-path:url(#clip-path-23);}.cls-60{fill:url(#linear-gradient-9);}.cls-61{clip-path:url(#clip-path-24);}.cls-62{fill:url(#linear-gradient-10);}.cls-63{clip-path:url(#clip-path-25);}.cls-64{fill:url(#linear-gradient-11);}.cls-65{clip-path:url(#clip-path-26);}.cls-66{fill:url(#linear-gradient-12);}.cls-67{clip-path:url(#clip-path-27);}.cls-68{fill:url(#linear-gradient-13);}.cls-69{clip-path:url(#clip-path-28);}.cls-70{fill:url(#linear-gradient-14);}.cls-71{clip-path:url(#clip-path-29);}.cls-72{fill:url(#linear-gradient-15);}.cls-73{clip-path:url(#clip-path-30);}.cls-74{fill:url(#linear-gradient-16);}.cls-75{clip-path:url(#clip-path-31);}.cls-76{fill:url(#linear-gradient-17);}.cls-77{fill:#8f4a02;}.cls-78{clip-path:url(#clip-path-32);}.cls-79{fill:url(#linear-gradient-18);}.cls-80{clip-path:url(#clip-path-33);}.cls-81{fill:url(#linear-gradient-19);}.cls-82{clip-path:url(#clip-path-34);}.cls-83{fill:url(#linear-gradient-20);}.cls-84{clip-path:url(#clip-path-35);}.cls-85{fill:url(#linear-gradient-21);}.cls-86{fill:#ffc20e;}.cls-87{fill:#d78817;}.cls-88{fill:#d89016;}.cls-89{clip-path:url(#clip-path-36);}.cls-90{fill:url(#linear-gradient-22);}.cls-91{clip-path:url(#clip-path-37);}.cls-92{fill:url(#linear-gradient-23);}.cls-93{clip-path:url(#clip-path-38);}.cls-94{fill:url(#linear-gradient-24);}.cls-95{clip-path:url(#clip-path-39);}.cls-96{fill:url(#linear-gradient-25);}.cls-97{fill:#bf7312;}.cls-98{clip-path:url(#clip-path-40);}.cls-99{fill:#3c763d;}.cls-100{clip-path:url(#clip-path-41);}.cls-101{font-size:120px;}.cls-102,.cls-103{fill:#00b6a8;}.cls-105{letter-spacing:-0.04em;}.cls-106{clip-path:url(#clip-path-46);}.cls-107{clip-path:url(#clip-path-48);}.cls-108,.cls-109{font-size:18.06px;}.cls-110{letter-spacing:-0.11em;}.cls-112{clip-path:url(#clip-path-50);}.cls-113{font-size:32.1px;}.cls-114{fill:#8b87b9;}.cls-115{fill:#415fff;}.cls-116{fill:#97bee5;}.cls-118{letter-spacing:-0.07em;}</style><clipPath id="clip-path"><rect class="cls-1" width="1920" height="80"/></clipPath><clipPath id="clip-path-4"><rect class="cls-1" x="13.88" y="24.96" width="84.23" height="30.08"/></clipPath><clipPath id="clip-path-5"><rect class="cls-1" x="442.42" y="171.25" width="320" height="141.77"/></clipPath><clipPath id="clip-path-7"><rect class="cls-1" x="98.42" y="339.25" width="320" height="141.77"/></clipPath><clipPath id="clip-path-9"><rect class="cls-1" x="1037.59" y="707.47" width="141.7" height="141.7"/></clipPath><clipPath id="clip-path-10"><rect class="cls-1" x="1179.29" y="707.47" width="87.57" height="87.58"/></clipPath><clipPath id="clip-path-11"><rect class="cls-1" x="1184.24" y="707.47" width="77.68" height="87.58"/></clipPath><clipPath id="clip-path-12"><path class="cls-1" d="M1222.54,718.61c-10.35.07-19.39,2.11-26.88,6.08V757c0,6.79,2.55,12.47,7.37,16.42,4.41,3.62,18.42,9.77,20,10.47h0c1.62-.7,15.63-6.85,20-10.47,4.82-3.95,7.37-9.63,7.37-16.42V724.69c-7.48-4-16.53-6-26.88-6.08Z"/></clipPath><radialGradient id="radial-gradient" cx="-952.83" cy="-1632.59" r="1" gradientTransform="matrix(0, 91.09, 45.54, 0, 75559.07, 87521.54)" gradientUnits="userSpaceOnUse"><stop offset="0" stop-color="#ffdc00"/><stop offset="0.35" stop-color="#ffbe00"/><stop offset="1" stop-color="#c86e14"/></radialGradient><clipPath id="clip-path-14"><path class="cls-1" d="M1222.13,743.76h0v14.65a4.49,4.49,0,0,0,1.55.29c2.75,0,4.06-2.52,4.06-7.73s-1.15-7.56-3.92-7.56a4.21,4.21,0,0,0-1.69.35m-12,14.27h0v-18h4.76v20.69a12.63,12.63,0,0,1-7.18,1.91c-4.72,0-7.12-2.56-7.12-7.61v-15h4.77v15.2c0,1.35.33,3.36,2.51,3.36a4,4,0,0,0,2.26-.59m7.21-16.76h0a11.5,11.5,0,0,1,6.43-1.7c5.69,0,8.82,4.32,8.82,11.28s-3,11.73-8.33,11.73a7.6,7.6,0,0,1-2.15-.27v10h-4.77Zm21,11.26c-3.93-2.31-4.64-4.2-4.65-6.74a6.33,6.33,0,0,1,6.4-6.22,8.22,8.22,0,0,1,5.24,1.55v4.15a6.39,6.39,0,0,0-4.28-2c-1.35,0-2.75.58-2.8,2.28s1.36,2.42,3.14,3.46c4,2.34,4.75,4.45,4.66,7.23-.09,3.05-2.19,6.38-6.91,6.38a10.44,10.44,0,0,1-5.24-1.48v-4.39a7.57,7.57,0,0,0,4.56,1.94h0a2.53,2.53,0,0,0,2.84-2.66h0c0-1.49-.88-2.31-3-3.54m-40.16-14h0V757c0,6,2.22,11,6.45,14.48,3.73,3,15.21,8.23,18.45,9.66,3.19-1.41,14.64-6.54,18.44-9.66,4.25-3.51,6.45-8.41,6.45-14.48v-31.6c-3.38-.31-6.9-.52-10.48-.52-13.29,0-27.53,2.86-39.31,13.66"/></clipPath><radialGradient id="radial-gradient-2" cx="-952.62" cy="-1632.22" r="1" gradientTransform="matrix(0, 90.38, 45.19, 0, 74967.63, 86831.46)" gradientUnits="userSpaceOnUse"><stop offset="0" stop-color="#4b3333"/><stop offset="0.35" stop-color="#351a1a"/><stop offset="0.85" stop-color="#1e0000"/><stop offset="1" stop-color="#1e0000"/></radialGradient><clipPath id="clip-path-15"><path class="cls-1" d="M1198.18,757h0c0,6,2.22,11,6.45,14.48,3.73,3,15.21,8.23,18.45,9.66h0v-.37c-2.69-1.19-14.46-6.48-18.23-9.56-4.14-3.37-6.33-8.28-6.33-14.21Z"/></clipPath><linearGradient id="linear-gradient" x1="-1074.37" y1="-1688.09" x2="-1073.37" y2="-1688.09" gradientTransform="translate(59752.62 -36472.1) rotate(-90) scale(34.68)" gradientUnits="userSpaceOnUse"><stop offset="0" stop-color="#e49f15"/><stop offset="0.02" stop-color="#e39c15"/><stop offset="0.18" stop-color="#dc9116"/><stop offset="0.4" stop-color="#d88a17"/><stop offset="1" stop-color="#d78817"/></linearGradient><clipPath id="clip-path-16"><path class="cls-1" d="M1247.63,757c0,6-2.13,10.75-6.33,14.21-3.65,3-14.69,8-18.22,9.56v.37h0c3.19-1.41,14.64-6.54,18.44-9.66,4.25-3.51,6.45-8.41,6.45-14.48h-.34Z"/></clipPath><linearGradient id="linear-gradient-2" x1="-984.79" y1="-1585.41" x2="-983.79" y2="-1585.41" gradientTransform="translate(35370.15 55750.23) scale(34.68)" gradientUnits="userSpaceOnUse"><stop offset="0" stop-color="#ffc20e"/><stop offset="1" stop-color="#d89016"/></linearGradient><clipPath id="clip-path-17"><path class="cls-1" d="M1198.18,738.51l.34.15c9.94-9.06,22.69-13.47,39-13.47,3.18,0,6.5.17,10.14.5l.34-.32c-3.38-.31-6.9-.52-10.48-.52-13.29,0-27.53,2.86-39.31,13.66"/></clipPath><linearGradient id="linear-gradient-3" x1="-956.14" y1="-1620.64" x2="-955.14" y2="-1620.64" gradientTransform="translate(50288.76 83941.34) scale(51.34)" gradientUnits="userSpaceOnUse"><stop offset="0" stop-color="#e49f15"/><stop offset="0.97" stop-color="#8f4a02"/><stop offset="1" stop-color="#8f4a02"/></linearGradient><clipPath id="clip-path-18"><path class="cls-1" d="M1227.39,751c0,4.21-.83,7.39-3.71,7.39v.34h0c2.75,0,4.06-2.52,4.06-7.73Z"/></clipPath><linearGradient id="linear-gradient-4" x1="-1122.11" y1="-1331.73" x2="-1121.11" y2="-1331.73" gradientTransform="translate(11019.79 12383.74) scale(8.73)" gradientUnits="userSpaceOnUse"><stop offset="0" stop-color="#ffc20e"/><stop offset="0.05" stop-color="#ffc20e"/><stop offset="0.95" stop-color="#bf7312"/><stop offset="1" stop-color="#bf7312"/></linearGradient><clipPath id="clip-path-19"><path class="cls-1" d="M1222.13,758.41a4.49,4.49,0,0,0,1.55.29h0v-.34a4,4,0,0,1-1.2-.19Z"/></clipPath><linearGradient id="linear-gradient-5" x1="-2535.38" y1="-3075.45" x2="-2534.38" y2="-3075.45" gradientTransform="translate(6057.09 -3226) rotate(-90) scale(1.57)" gradientUnits="userSpaceOnUse"><stop offset="0" stop-color="#ffc20e"/><stop offset="0.05" stop-color="#ffc20e"/><stop offset="0.95" stop-color="#f0af13"/><stop offset="1" stop-color="#f0af13"/></linearGradient><clipPath id="clip-path-20"><path class="cls-1" d="M1222.13,743.76h0l.35.22a4.11,4.11,0,0,1,1.34-.22v-.34h0a4.21,4.21,0,0,0-1.69.35"/></clipPath><linearGradient id="linear-gradient-6" x1="-131.4" y1="29.34" x2="-130.4" y2="29.34" gradientTransform="translate(1448.3 693.21) scale(1.72)" gradientUnits="userSpaceOnUse"><stop offset="0" stop-color="#a65e0c"/><stop offset="0.05" stop-color="#a65e0c"/><stop offset="0.95" stop-color="#8f4a02"/><stop offset="1" stop-color="#8f4a02"/></linearGradient><clipPath id="clip-path-21"><path class="cls-1" d="M1223.82,743.41v.35h0c2.81,0,3.57,2.62,3.57,7.21h.35C1227.74,745.62,1226.59,743.41,1223.82,743.41Z"/></clipPath><linearGradient id="linear-gradient-7" x1="-1354.28" y1="-1585.28" x2="-1353.28" y2="-1585.28" gradientTransform="translate(14712.49 -10770.07) rotate(-90) scale(8.51)" gradientUnits="userSpaceOnUse"><stop offset="0" stop-color="#bf7312"/><stop offset="0.05" stop-color="#bf7312"/><stop offset="0.95" stop-color="#8f4a02"/><stop offset="1" stop-color="#8f4a02"/></linearGradient><clipPath id="clip-path-22"><path class="cls-1" d="M1233.35,745.79h.34a6.34,6.34,0,0,1,6.4-6.22v-.34a6.67,6.67,0,0,0-6.73,6.56"/></clipPath><linearGradient id="linear-gradient-8" x1="-973.91" y1="-2029.63" x2="-972.91" y2="-2029.63" gradientTransform="translate(-7906.58 -18321.91) rotate(180) scale(9.39)" gradientUnits="userSpaceOnUse"><stop offset="0" stop-color="#ffc20e"/><stop offset="0.05" stop-color="#ffc20e"/><stop offset="0.95" stop-color="#d89016"/><stop offset="1" stop-color="#d89016"/></linearGradient><clipPath id="clip-path-23"><path class="cls-1" d="M1241,743.31c-1.33,0-2.71.6-2.76,2.28h.34c0-.46.23-2,2.42-2l0-.34Z"/></clipPath><linearGradient id="linear-gradient-9" x1="-978.38" y1="-770.75" x2="-977.38" y2="-770.75" gradientTransform="translate(4772.12 3528.68) scale(3.61)" gradientUnits="userSpaceOnUse"><stop offset="0" stop-color="#d78817"/><stop offset="0.05" stop-color="#d78817"/><stop offset="0.95" stop-color="#8f4a02"/><stop offset="1" stop-color="#8f4a02"/></linearGradient><clipPath id="clip-path-24"><path class="cls-1" d="M1241,743.65h0a6.46,6.46,0,0,1,4.66,2.46l-.34-.84a6.39,6.39,0,0,0-4.27-2Z"/></clipPath><linearGradient id="linear-gradient-10" x1="-1547.54" y1="-1902.39" x2="-1546.54" y2="-1902.39" gradientTransform="translate(11494.34 -7591.45) rotate(-90) scale(5.39)" gradientUnits="userSpaceOnUse"><stop offset="0" stop-color="#bf7312"/><stop offset="0.95" stop-color="#8f4a02"/><stop offset="1" stop-color="#8f4a02"/></linearGradient><clipPath id="clip-path-25"><path class="cls-1" d="M1240.08,739.23h0v.34a8.22,8.22,0,0,1,5.24,1.55l.34-.17a8.51,8.51,0,0,0-5.28-1.73h-.31"/></clipPath><linearGradient id="linear-gradient-11" x1="-498.38" y1="-1390.64" x2="-497.38" y2="-1390.64" gradientTransform="translate(-6886.62 3650.68) rotate(90) scale(5.85)" gradientUnits="userSpaceOnUse"><stop offset="0" stop-color="#ffc20e"/><stop offset="0.05" stop-color="#ffc20e"/><stop offset="0.95" stop-color="#e49f15"/><stop offset="1" stop-color="#e49f15"/></linearGradient><clipPath id="clip-path-26"><path class="cls-1" d="M1239.15,762.66Zm0,0V763h0c4.32,0,7.13-2.88,7.24-6.72h-.34c-.09,3.05-2.19,6.38-6.9,6.38"/></clipPath><linearGradient id="linear-gradient-12" x1="-960.88" y1="-1348.21" x2="-959.88" y2="-1348.21" gradientTransform="matrix(-9.88, 0, 0, 9.88, -8248.82, 14084.2)" xlink:href="#linear-gradient-9"/><clipPath id="clip-path-27"><path class="cls-1" d="M1233.56,761.38a10.78,10.78,0,0,0,5.58,1.63h0v-.35a10.35,10.35,0,0,1-5.25-1.48Z"/></clipPath><linearGradient id="linear-gradient-13" x1="-505.51" y1="-1985.75" x2="-504.51" y2="-1985.75" gradientTransform="matrix(0, 5.82, 5.82, 0, 12791.15, 3700.69)" xlink:href="#linear-gradient-10"/><clipPath id="clip-path-28"><path class="cls-1" d="M1233.9,756.79h0a7.57,7.57,0,0,0,4.56,1.94v-.34a7.73,7.73,0,0,1-4.9-2.36Z"/></clipPath><linearGradient id="linear-gradient-14" x1="-1520.42" y1="-1909.37" x2="-1519.42" y2="-1909.37" gradientTransform="translate(11918.41 -7746.16) rotate(-90) scale(5.59)" gradientUnits="userSpaceOnUse"><stop offset="0" stop-color="#ffc20e"/><stop offset="0.05" stop-color="#ffc20e"/><stop offset="1" stop-color="#f0af13"/></linearGradient><clipPath id="clip-path-29"><path class="cls-1" d="M1241,756.08h0c0,1.53-1,2.32-2.52,2.31v.34a2.53,2.53,0,0,0,2.86-2.66Z"/></clipPath><linearGradient id="linear-gradient-15" x1="-1001.99" y1="-838.93" x2="-1000.99" y2="-838.93" gradientTransform="translate(5149.62 4032.51) scale(3.9)" xlink:href="#linear-gradient-8"/><clipPath id="clip-path-30"><path class="cls-1" d="M1233.35,745.79h0c0,2.67.8,4.68,4.82,7,2.15,1.26,2.78,2,2.81,3.25h.34c0-1.51-.88-2.32-3-3.55-3.93-2.31-4.64-4.2-4.64-6.74Z"/></clipPath><linearGradient id="linear-gradient-16" x1="-729.22" y1="-1707.7" x2="-728.22" y2="-1707.7" gradientTransform="translate(-20994.26 10237.81) rotate(90) scale(13.02)" gradientUnits="userSpaceOnUse"><stop offset="0" stop-color="#d89016"/><stop offset="0.4" stop-color="#bf7312"/><stop offset="0.6" stop-color="#bf7312"/><stop offset="1" stop-color="#d89016"/></linearGradient><clipPath id="clip-path-31"><path class="cls-1" d="M1241.39,749.05h0c4,2.35,4.75,4.45,4.66,7.23h.34c.1-2.84-.68-5.09-4.83-7.53-1.69-1-3-1.58-3-3.16h-.34c0,1.73,1.36,2.42,3.14,3.46"/></clipPath><linearGradient id="linear-gradient-17" x1="-736.67" y1="-1700.87" x2="-735.67" y2="-1700.87" gradientTransform="translate(-21632.35 10651.48) rotate(90) scale(13.45)" gradientUnits="userSpaceOnUse"><stop offset="0" stop-color="#d78817"/><stop offset="0.4" stop-color="#e49f15"/><stop offset="0.6" stop-color="#e49f15"/><stop offset="1" stop-color="#d78817"/></linearGradient><clipPath id="clip-path-32"><path class="cls-1" d="M1222.48,762.75h0a8.25,8.25,0,0,0,1.8.18h0v-.34a7.6,7.6,0,0,1-2.15-.27Z"/></clipPath><linearGradient id="linear-gradient-18" x1="154.38" y1="-2635.11" x2="155.38" y2="-2635.11" gradientTransform="matrix(0, 2.21, 2.21, 0, 7059.81, 419.58)" xlink:href="#linear-gradient-6"/><clipPath id="clip-path-33"><path class="cls-1" d="M1232.61,750.85c0,7-3,11.73-8.33,11.73v.35c6.15,0,8.68-5.88,8.68-12.08h-.35Z"/></clipPath><linearGradient id="linear-gradient-19" x1="-929.2" y1="-1894.93" x2="-928.2" y2="-1894.93" gradientTransform="translate(-12583.51 -27425.41) rotate(180) scale(14.87)" xlink:href="#linear-gradient-6"/><clipPath id="clip-path-34"><path class="cls-1" d="M1217,741.08l.34.19a11.5,11.5,0,0,1,6.43-1.7v-.34a11.89,11.89,0,0,0-6.77,1.85"/></clipPath><linearGradient id="linear-gradient-20" x1="-1189.52" y1="-2098.35" x2="-1188.52" y2="-2098.35" gradientTransform="translate(-7126.52 -13990.28) rotate(180) scale(7.02)" xlink:href="#linear-gradient-5"/><clipPath id="clip-path-35"><path class="cls-1" d="M1223.79,739.57c5.7,0,8.82,4.32,8.82,11.28h.35c0-6.15-2.58-11.61-9.17-11.61Z"/></clipPath><linearGradient id="linear-gradient-21" x1="-758.29" y1="-1691.63" x2="-757.29" y2="-1691.63" gradientTransform="translate(-23798.78 11956.4) rotate(90) scale(14.79)" gradientUnits="userSpaceOnUse"><stop offset="0" stop-color="#ffc20e"/><stop offset="0.05" stop-color="#ffc20e"/><stop offset="0.95" stop-color="#a65e0c"/><stop offset="1" stop-color="#a65e0c"/></linearGradient><clipPath id="clip-path-36"><path class="cls-1" d="M1200.27,755.05h0c0,5.05,2.37,8,7.46,8h0v-.35c-4.72,0-7.12-2.56-7.12-7.61Z"/></clipPath><linearGradient id="linear-gradient-22" x1="-678.98" y1="-1670.55" x2="-677.98" y2="-1670.55" gradientTransform="translate(-17014.91 8158.41) rotate(90) scale(10.91)" gradientUnits="userSpaceOnUse"><stop offset="0" stop-color="#d89016"/><stop offset="0.05" stop-color="#d89016"/><stop offset="0.95" stop-color="#8f4a02"/><stop offset="1" stop-color="#8f4a02"/></linearGradient><clipPath id="clip-path-37"><path class="cls-1" d="M1207.73,762.66h0V763a13,13,0,0,0,7.53-2.08l-.35-.18a12.63,12.63,0,0,1-7.18,1.91"/></clipPath><linearGradient id="linear-gradient-23" x1="-1168.33" y1="-1303.94" x2="-1167.33" y2="-1303.94" gradientTransform="matrix(-7.81, 0, 0, 7.81, -7908.74, 10944.99)" xlink:href="#linear-gradient-6"/><clipPath id="clip-path-38"><path class="cls-1" d="M1207.9,758.27v.35a4,4,0,0,0,2.25-.59l-.34-.19a3.88,3.88,0,0,1-1.91.43"/></clipPath><linearGradient id="linear-gradient-24" x1="-333.52" y1="-2932.54" x2="-332.52" y2="-2932.54" gradientTransform="matrix(2.33, 0, 0, -2.33, 1985.02, -6075.33)" xlink:href="#linear-gradient-5"/><clipPath id="clip-path-39"><path class="cls-1" d="M1205.38,755.26h0c0,1.35.33,3.36,2.51,3.36v-.35c-1.68,0-2.17-1.35-2.17-3Z"/></clipPath><linearGradient id="linear-gradient-25" x1="-1760.4" y1="-1613.07" x2="-1759.4" y2="-1613.07" gradientTransform="matrix(0, -4.19, 4.19, 0, 7970.95, -6623.1)" gradientUnits="userSpaceOnUse"><stop offset="0" stop-color="#ffc20e"/><stop offset="0.05" stop-color="#ffc20e"/><stop offset="0.95" stop-color="#d78817"/><stop offset="1" stop-color="#d78817"/></linearGradient><clipPath id="clip-path-40"><rect class="cls-1" x="1179.29" y="795.05" width="87.57" height="53.71"/></clipPath><clipPath id="clip-path-41"><rect class="cls-1" x="1266.86" y="707.47" width="370.97" height="370.97"/></clipPath><clipPath id="clip-path-46"><rect class="cls-1" x="1037.59" y="849.18" width="229.28" height="230.82"/></clipPath><clipPath id="clip-path-48"><rect class="cls-1" x="1037.59" y="107.24" width="600.23" height="600.23"/></clipPath><clipPath id="clip-path-50"><rect class="cls-1" x="1053.02" y="122.27" width="82.51" height="37.97"/></clipPath></defs><title>Artboard 14 copy 10</title><g id="Layer_7" data-name="Layer 7"><g class="cls-2"><polygon class="cls-3" points="0 0 0 80 1919.98 80 1920 0 0 0"/><g class="cls-2"><path class="cls-4" d="M1872,40a16,16,0,1,0,16-16,16,16,0,0,0-16,16"/></g><text class="cls-5" transform="translate(1835.24 44.41)">JDoe</text><g class="cls-2"><path d="M1888,32a5,5,0,1,1-5,5,5,5,0,0,1,5-5m5.73,10.43-2.23-.56a6,6,0,0,1-7,0l-2.23.56a3,3,0,0,0-2.27,2.91V46.5a1.5,1.5,0,0,0,1.5,1.5h13a1.5,1.5,0,0,0,1.5-1.5V45.34a3,3,0,0,0-2.27-2.91"/></g><text class="cls-5" transform="translate(1745.36 44.41)">LogOut</text><g class="cls-6"><path class="cls-7" d="M29.61,26.56l-6.07,3,1.55,3.09q1.25,2.49.48,4.13a5.62,5.62,0,0,1-2.78,2.64A5.67,5.67,0,0,1,19.9,40a3.62,3.62,0,0,1-2.26-1,8.33,8.33,0,0,1-1.48-2.23l-2.28-4.55L28.8,25ZM16.45,33,18,36.07a5.07,5.07,0,0,0,1.1,1.61,2.22,2.22,0,0,0,1.27.37,3.54,3.54,0,0,0,1.69-.4A3,3,0,0,0,23.75,36a3.3,3.3,0,0,0-.41-2.49L21.8,30.37Z"/><path class="cls-8" d="M28.81,55,13.89,47.77l2.28-4.55A8,8,0,0,1,17.64,41a3.56,3.56,0,0,1,2.27-1,6.35,6.35,0,0,1,5.67,3.24q.74,1.64-.49,4.14l-1.55,3.09,6.07,3Zm-7-5.41,1.56-3.13a3.23,3.23,0,0,0,.4-2.49,3,3,0,0,0-1.7-1.67,3.54,3.54,0,0,0-1.68-.41,2.13,2.13,0,0,0-1.27.38A4.81,4.81,0,0,0,18,43.92L16.46,47Z"/><path class="cls-8" d="M28,53.44l6.07-3-1.55-3.09c-.83-1.66-1-3-.49-4.13A6.34,6.34,0,0,1,37.7,40,3.62,3.62,0,0,1,40,41a8.14,8.14,0,0,1,1.49,2.23l2.28,4.55L28.82,55ZM41.16,47l-1.55-3.09a4.88,4.88,0,0,0-1.09-1.61A2.23,2.23,0,0,0,37.24,42a3.53,3.53,0,0,0-1.68.4A3,3,0,0,0,33.86,44a3.3,3.3,0,0,0,.41,2.49l1.56,3.12Z"/><path class="cls-7" d="M28.8,25l14.92,7.27-2.28,4.55A8,8,0,0,1,40,39a3.61,3.61,0,0,1-2.27,1,5.49,5.49,0,0,1-2.89-.63A5.64,5.64,0,0,1,32,36.72c-.5-1.09-.33-2.47.49-4.14L34,29.49l-6.06-3Zm7,5.41L34.26,33.5a3.28,3.28,0,0,0-.4,2.49,3,3,0,0,0,1.7,1.67,3.55,3.55,0,0,0,1.69.41,2.15,2.15,0,0,0,1.27-.38,4.93,4.93,0,0,0,1.09-1.61L41.16,33Z"/><path class="cls-8" d="M50,50.89,51,50.75a4.48,4.48,0,0,0,.35,1.51,2.19,2.19,0,0,0,.85,1,2.42,2.42,0,0,0,1.3.36,2.3,2.3,0,0,0,1.13-.27,1.78,1.78,0,0,0,.73-.76,2.31,2.31,0,0,0,.24-1,2.15,2.15,0,0,0-.23-1,1.85,1.85,0,0,0-.76-.73,11.26,11.26,0,0,0-1.51-.6,6.11,6.11,0,0,1-1.63-.76,2.83,2.83,0,0,1-.91-1.15,3.9,3.9,0,0,1-.29-1.53A4.24,4.24,0,0,1,50.67,44a2.7,2.7,0,0,1,1.06-1.22,3.21,3.21,0,0,1,3.21,0,2.83,2.83,0,0,1,1.11,1.29A5,5,0,0,1,56.47,46l-1.08.12a3.06,3.06,0,0,0-.58-1.76,2.21,2.21,0,0,0-3-.06,1.93,1.93,0,0,0-.46,1.3,1.71,1.71,0,0,0,.33,1.09,3.63,3.63,0,0,0,1.68.88,9.18,9.18,0,0,1,1.88.78,3.07,3.07,0,0,1,1.09,1.26,4.12,4.12,0,0,1,.35,1.74,4.45,4.45,0,0,1-.39,1.85,3,3,0,0,1-1.11,1.35,2.86,2.86,0,0,1-1.63.48,3.57,3.57,0,0,1-1.92-.48,3.26,3.26,0,0,1-1.22-1.47,5.5,5.5,0,0,1-.47-2.2"/><polygon class="cls-8" points="60.4 54.83 60.4 44 57.61 44 57.61 42.55 64.32 42.55 64.32 44 61.52 44 61.52 54.83 60.4 54.83"/><path class="cls-8" d="M63.66,54.83l3.25-12.28h1.21l3.47,12.28H70.31l-1-3.72H65.78l-.93,3.72Zm2.45-5H69l-.89-3.4q-.41-1.56-.6-2.55A23,23,0,0,1,67,46.18Z"/><polygon class="cls-8" points="73.75 54.83 73.75 44 70.97 44 70.97 42.55 77.67 42.55 77.67 44 74.88 44 74.88 54.83 73.75 54.83"/><rect class="cls-8" x="79.01" y="42.55" width="1.12" height="12.29"/><path class="cls-8" d="M81.77,48.85a8.64,8.64,0,0,1,1.13-4.79,3.39,3.39,0,0,1,2.92-1.73,3.14,3.14,0,0,1,2.11.81,5.06,5.06,0,0,1,1.44,2.27,10.22,10.22,0,0,1,.49,3.3,9.92,9.92,0,0,1-.52,3.34,4.7,4.7,0,0,1-1.47,2.23,3.23,3.23,0,0,1-2.06.76,3.12,3.12,0,0,1-2.13-.84,5.25,5.25,0,0,1-1.43-2.28,9.72,9.72,0,0,1-.48-3.07m1.15,0a6.4,6.4,0,0,0,.83,3.5,2.31,2.31,0,0,0,4.14,0,6.89,6.89,0,0,0,.82-3.66,8.89,8.89,0,0,0-.35-2.62,4,4,0,0,0-1-1.74,2.19,2.19,0,0,0-1.51-.61,2.47,2.47,0,0,0-2,1.18,7,7,0,0,0-.86,4"/><polygon class="cls-8" points="91.29 54.83 91.29 42.55 92.44 42.55 96.89 52.19 96.89 42.55 97.96 42.55 97.96 54.83 96.81 54.83 92.37 45.18 92.37 54.83 91.29 54.83"/><path class="cls-7" d="M50,41.15V25H55a17.85,17.85,0,0,1,3.74.24A4.09,4.09,0,0,1,61,26.79a5.16,5.16,0,0,1,.9,3.15,5.45,5.45,0,0,1-.52,2.51,4.47,4.47,0,0,1-3,2.36,17.72,17.72,0,0,1-3.26.23h-2v6.11ZM53.13,27.7v4.59h1.72A7.82,7.82,0,0,0,57.33,32a2.12,2.12,0,0,0,1-.8A2.29,2.29,0,0,0,58.67,30a2.13,2.13,0,0,0-.5-1.45,2.07,2.07,0,0,0-1.26-.72,15.08,15.08,0,0,0-2.26-.11Z"/><path class="cls-7" d="M66.27,33l-2.71-.51A4.43,4.43,0,0,1,65.13,30a5.61,5.61,0,0,1,3.31-.82,6.9,6.9,0,0,1,3,.5,2.94,2.94,0,0,1,1.37,1.24,6.57,6.57,0,0,1,.4,2.78l0,3.62a13.74,13.74,0,0,0,.14,2.28,7.22,7.22,0,0,0,.54,1.58h-3c-.07-.21-.17-.51-.28-.92,0-.18-.09-.3-.11-.36A5.5,5.5,0,0,1,68.86,41a4.65,4.65,0,0,1-1.86.38,3.79,3.79,0,0,1-2.75-1,3.33,3.33,0,0,1-1-2.49,3.39,3.39,0,0,1,.46-1.77A3,3,0,0,1,65,35a9.21,9.21,0,0,1,2.37-.72,15.22,15.22,0,0,0,2.9-.77v-.31a1.61,1.61,0,0,0-.43-1.27,2.47,2.47,0,0,0-1.6-.38,2,2,0,0,0-1.24.33A2.16,2.16,0,0,0,66.27,33m4,2.52a17.8,17.8,0,0,1-1.82.47,5,5,0,0,0-1.62.54,1.32,1.32,0,0,0-.59,1.1,1.54,1.54,0,0,0,.47,1.12,1.59,1.59,0,0,0,1.19.48,2.52,2.52,0,0,0,1.54-.56,1.93,1.93,0,0,0,.71-1,6.26,6.26,0,0,0,.12-1.52Z"/><path class="cls-7" d="M86,32.89l-3,.55a2.26,2.26,0,0,0-.67-1.38A2,2,0,0,0,81,31.59a2.17,2.17,0,0,0-1.77.81,4.14,4.14,0,0,0-.67,2.67,4.88,4.88,0,0,0,.68,3,2.16,2.16,0,0,0,1.81.86,2,2,0,0,0,1.39-.5,3.07,3.07,0,0,0,.76-1.73l2.93.52a5.38,5.38,0,0,1-1.75,3.17,5.29,5.29,0,0,1-3.47,1.07,5.08,5.08,0,0,1-4-1.62,6.45,6.45,0,0,1-1.47-4.5A6.45,6.45,0,0,1,77,30.77a5.12,5.12,0,0,1,4-1.62,5.28,5.28,0,0,1,3.28.93A5.15,5.15,0,0,1,86,32.89"/><polygon class="cls-7" points="87.69 41.15 87.69 24.96 90.67 24.96 90.67 33.55 94.17 29.42 97.84 29.42 93.98 33.7 98.12 41.15 94.9 41.15 92.06 35.88 90.67 37.39 90.67 41.15 87.69 41.15"/></g></g><g id="Rectangle_10" data-name="Rectangle 10"><path class="cls-9" d="M1036.64,108.19v969.28H67.36V108.19h969.28m.95-1H66.42v971.17h971.17V107.24Z"/></g><rect class="cls-3" x="64" y="707.47" width="973.59" height="370.94"/><text class="cls-10" transform="translate(96 783.22)">Instructions</text><path class="cls-8" d="M861.59,887.87v-80h3.75v80Zm5.59,0v-80h1.91v80Zm5.66,0v-80h1.84v80Zm9.34,0v-80H884v80Zm7.5,0v-80h3.69v80Zm9.35,0v-80h1.84v80Zm3.75,0v-80h1.84v80Zm3.75,0v-80h1.84v80Zm7.44,0v-80h3.75v80Zm9.34,0v-80h3.75v80Zm7.5,0v-80h3.75v80Zm7.5,0v-80h3.75v80Zm5.6,0v-80h3.75v80Zm9.4,0v-80h5.6v80Zm7.44,0v-80h1.91v80Zm3.75,0v-80h3.75v80Z"/><text class="cls-11" transform="translate(152 859.27)">RE-SCAN UPC CODE</text><text class="cls-12" transform="translate(112 935.01)">SCAN Serial Number (SN)</text><path class="cls-13" d="M144,839.87a16,16,0,1,1-16-16A16,16,0,0,1,144,839.87Zm-16,3.23a3,3,0,1,0,3,3A3,3,0,0,0,128,843.1Zm-2.82-10.67.48,8.78a.77.77,0,0,0,.77.73h3.14a.77.77,0,0,0,.77-.73l.48-8.78a.78.78,0,0,0-.78-.81H126a.78.78,0,0,0-.78.81Z"/><text class="cls-12" transform="translate(113 998.41)">Note:</text><text class="cls-12" transform="translate(208.05 998.41)">If the error persists<tspan x="0" y="28.8">1. Put the box in hospital</tspan><tspan x="0" y="57.6">2. mark the box as hospitalized by clicking on te red hospital button</tspan></text><rect class="cls-8" x="98.92" y="171.75" width="319" height="140.77" rx="3.5"/><path d="M414.42,172.24a3,3,0,0,1,3,3V309a3,3,0,0,1-3,3h-312a3,3,0,0,1-3-3V175.24a3,3,0,0,1,3-3h312m0-1h-312a4,4,0,0,0-4,4V309a4,4,0,0,0,4,4h312a4,4,0,0,0,4-4V175.24a4,4,0,0,0-4-4Z"/><text class="cls-14" transform="translate(114.42 220.43)">Girl Scount cookies <tspan x="0" y="28.8">Blue Ribbon</tspan></text><text class="cls-15" transform="translate(331.71 275.78)">1</text><text class="cls-16" transform="translate(331.71 213.27)">Quantity</text><text class="cls-16" transform="translate(114.42 277.27)">AKU12345</text><text class="cls-17" transform="translate(82.42 150.69)">Product(s)</text><g class="cls-18"><g class="cls-18"><rect class="cls-8" x="442.92" y="171.74" width="319" height="140.77" rx="3.5"/><path d="M758.42,172.24a3,3,0,0,1,3,3V309a3,3,0,0,1-3,3h-312a3,3,0,0,1-3-3V175.24a3,3,0,0,1,3-3h312m0-1h-312a4,4,0,0,0-4,4V309a4,4,0,0,0,4,4h312a4,4,0,0,0,4-4V175.24a4,4,0,0,0-4-4"/></g><text class="cls-14" transform="translate(458.42 220.43)">Girl Scount cookies </text><text class="cls-14" transform="translate(458.42 249.23)">Blue Ribbon</text><text class="cls-15" transform="translate(675.71 275.78)">1</text><text class="cls-16" transform="translate(675.71 213.27)">Quantity</text><text class="cls-16" transform="translate(458.41 277.26)">AKU12345</text></g><g class="cls-19"><g class="cls-19"><rect class="cls-8" x="98.92" y="339.74" width="319" height="140.77" rx="3.5"/><path d="M414.42,340.24a3,3,0,0,1,3,3V477a3,3,0,0,1-3,3h-312a3,3,0,0,1-3-3V343.24a3,3,0,0,1,3-3h312m0-1h-312a4,4,0,0,0-4,4V477a4,4,0,0,0,4,4h312a4,4,0,0,0,4-4V343.24a4,4,0,0,0-4-4"/></g><text class="cls-14" transform="translate(114.42 388.43)">Girl Scount cookies </text><text class="cls-14" transform="translate(114.42 417.23)">Blue Ribbon</text><text class="cls-15" transform="translate(331.71 443.78)">1</text><text class="cls-16" transform="translate(331.71 381.27)">Quantity</text><text class="cls-16" transform="translate(114.41 445.26)">AKU12345</text></g><line class="cls-20" x1="98.42" y1="563.55" x2="1005.59" y2="563.55"/><text class="cls-21" transform="translate(98.42 558.69)">Shipment(s)</text><rect class="cls-4" x="146.92" y="571.55" width="191" height="119" rx="3.5"/><path class="cls-22" d="M334.42,572.05a3,3,0,0,1,3,3v112a3,3,0,0,1-3,3h-184a3,3,0,0,1-3-3v-112a3,3,0,0,1,3-3h184m0-1h-184a4,4,0,0,0-4,4v112a4,4,0,0,0,4,4h184a4,4,0,0,0,4-4v-112a4,4,0,0,0-4-4Z"/><path class="cls-4" d="M977.59,695.55h28V571.05h-28a4,4,0,0,0-4,4v116.5A4,4,0,0,0,977.59,695.55Z"/><path class="cls-23" d="M1001.08,634.85l-17.8,17.8a2.2,2.2,0,0,1-3.11,0l-2.08-2.07a2.21,2.21,0,0,1,0-3.11L992.2,633.3l-14.11-14.18a2.19,2.19,0,0,1,0-3.1l2.08-2.08a2.2,2.2,0,0,1,3.11,0l17.8,17.8A2.2,2.2,0,0,1,1001.08,634.85Z"/><path class="cls-4" d="M126.42,696.57h-28V572.07h28a4,4,0,0,1,4,4v116.5A4,4,0,0,1,126.42,696.57Z"/><path class="cls-23" d="M102.92,632.77,120.73,615a2.2,2.2,0,0,1,3.11,0l2.07,2.07a2.21,2.21,0,0,1,0,3.11l-14.11,14.17,14.1,14.18a2.18,2.18,0,0,1,0,3.1l-2.08,2.08a2.18,2.18,0,0,1-3.1,0l-17.81-17.8A2.22,2.22,0,0,1,102.92,632.77Z"/><text class="cls-24" transform="translate(154.42 600.78)"><tspan class="cls-25">T</tspan><tspan x="9.18" y="0">racking #</tspan></text><text class="cls-16" transform="translate(271.18 628.35)">Quantity</text><text class="cls-26" transform="translate(281.81 674.38)">1</text><text class="cls-16" transform="translate(154.42 628.35)">SKU(s)</text><g id="Order"><g class="cls-27"><path class="cls-23" d="M1037.72,707.61h141.43V849H1037.72Zm-.13,141.57h141.7V707.47h-141.7Z"/><text class="cls-28" transform="translate(1053.21 738.92)">Service Level</text><text class="cls-29" transform="translate(1061.2 770.9)">UPS NEX<tspan class="cls-30" x="79.02" y="0">T</tspan><tspan x="89.71" y="0"> </tspan></text><text class="cls-29" transform="translate(1061.2 792.5)">D<tspan class="cls-31" x="13" y="0">A</tspan><tspan class="cls-32" x="23.69" y="0">Y</tspan><tspan class="cls-33" x="35.37" y="0"> </tspan><tspan x="39.4" y="0">AIR </tspan></text><text class="cls-29" transform="translate(1061.2 814.1)">S<tspan class="cls-34" x="12.01" y="0">A</tspan><tspan x="22.68" y="0">VER</tspan></text></g><g class="cls-35"><path class="cls-23" d="M1179.38,707.56h87.4V795h-87.4Zm-.09,87.49h87.57V707.47h-87.57Z"/><g class="cls-36"><path class="cls-37" d="M1223.08,718c-11,0-20,2.09-28,6.31V757c0,7,2.62,12.8,7.58,16.87,4.47,3.66,18.78,9.94,20.41,10.64,1.62-.7,15.93-7,20.4-10.64,5-4.07,7.58-9.9,7.58-16.87V724.35c-8-4.22-17-6.31-28-6.31"/></g><g class="cls-38"><rect class="cls-39" x="1195.66" y="718.61" width="54.83" height="65.25"/></g><g class="cls-36"><path class="cls-40" d="M1240.58,780.16V783h.5v-1.17h.08c0,.06.76,1.17.76,1.17h.61l-.84-1.23a.74.74,0,0,0,.61-.75.81.81,0,0,0-.93-.82Zm.73.41c.43,0,.49.21.49.39s-.11.44-.66.44h-.06v-.83Zm2,1a1.9,1.9,0,1,1-1.9-1.9,1.9,1.9,0,0,1,1.9,1.9m-1.9-2.31a2.31,2.31,0,1,0,2.31,2.31,2.31,2.31,0,0,0-2.31-2.31"/></g><g class="cls-41"><rect class="cls-42" x="1198.18" y="724.85" width="49.8" height="56.26"/></g><g class="cls-43"><rect class="cls-44" x="1193.3" y="751.7" width="34.66" height="34.68" transform="translate(-183.55 1105.67) rotate(-46)"/></g><g class="cls-45"><rect class="cls-46" x="1218.19" y="751.71" width="34.68" height="34.66" transform="translate(-187.46 1074.11) rotate(-44)"/></g><g class="cls-47"><rect class="cls-48" x="1197.29" y="717.05" width="51.57" height="29.42" transform="translate(-172.62 442.93) rotate(-19.2)"/></g><g class="cls-49"><rect class="cls-50" x="1221.34" y="751.29" width="8.73" height="7.1" transform="translate(0.63 1510.69) rotate(-63.3)"/></g><g class="cls-51"><rect class="cls-52" x="1222.55" y="757.63" width="0.72" height="1.6" transform="translate(321.09 1879.8) rotate(-83)"/></g><g class="cls-53"><rect class="cls-54" x="1222.09" y="743.21" width="1.78" height="0.98" transform="translate(-148.69 334.69) rotate(-14.7)"/></g><g class="cls-55"><rect class="cls-56" x="1222.33" y="742.94" width="6.91" height="8.51" transform="translate(-205.42 635.43) rotate(-26.9)"/></g><g class="cls-57"><rect class="cls-58" x="1232" y="737.81" width="9.42" height="9.4" transform="translate(-178.7 1020.71) rotate(-42.1)"/></g><g class="cls-59"><rect class="cls-60" x="1237.84" y="742.67" width="3.62" height="3.57" transform="translate(-184.33 995.89) rotate(-41)"/></g><g class="cls-61"><rect class="cls-62" x="1241.02" y="742" width="4.64" height="5.43" transform="translate(8.66 1503.7) rotate(-62.5)"/></g><g class="cls-63"><rect class="cls-64" x="1241.12" y="737.22" width="3.52" height="5.9" transform="translate(156.53 1695.39) rotate(-72.1)"/></g><g class="cls-65"><rect class="cls-66" x="1237.83" y="754.71" width="9.88" height="9.88" transform="translate(-176.65 1086.42) rotate(-44.4)"/></g><g class="cls-67"><rect class="cls-68" x="1234.7" y="759.16" width="3.3" height="5.87" transform="translate(161.27 1738.6) rotate(-73.9)"/></g><g class="cls-69"><rect class="cls-70" x="1233.72" y="754.58" width="4.57" height="5.59" transform="translate(14.81 1538.42) rotate(-64.1)"/></g><g class="cls-71"><rect class="cls-72" x="1237.94" y="755.45" width="3.94" height="3.92" transform="translate(-185.45 1039.15) rotate(-42.6)"/></g><g class="cls-73"><rect class="cls-74" x="1231.13" y="744.44" width="12.42" height="13" transform="translate(-207.27 840.47) rotate(-34.8)"/></g><g class="cls-75"><rect class="cls-76" x="1235.84" y="744.18" width="13.01" height="13.53" transform="translate(-203.69 878.7) rotate(-36.2)"/></g><polygon class="cls-77" points="1217.36 772.36 1217.02 772.7 1222.48 772.7 1222.13 772.36 1217.36 772.36"/><g class="cls-78"><rect class="cls-79" x="1222.74" y="761.51" width="0.93" height="2.21" transform="translate(282.4 1854.73) rotate(-81.2)"/></g><g class="cls-80"><rect class="cls-81" x="1221.18" y="749.84" width="14.87" height="14.09" transform="translate(-102.01 1315.28) rotate(-54.4)"/></g><g class="cls-82"><rect class="cls-83" x="1216.87" y="738.42" width="7.07" height="3.67" transform="translate(-146.47 329.14) rotate(-14.5)"/></g><g class="cls-84"><rect class="cls-85" x="1221.18" y="737.64" width="14.38" height="14.8" transform="translate(-197.99 916.69) rotate(-38.1)"/></g><path class="cls-86" d="M1200.27,739.71l.34.35h4.77l.34-.35Zm9.54,0,.34.35h4.76l.35-.35Z"/><path class="cls-87" d="M1198.18,757V738.51l.34.15V757Zm47.49-10.86V741l-.34.17v4.15l.34.84Zm-40,9.15V739.71l-.34.35v15.2Z"/><path class="cls-88" d="M1247.63,757V725.69l.34-.32V757Zm-14.07-.94v5.35l.34-.2v-4.39l-.34-.76Zm-23.41,2v-18l-.34-.35v18.14Zm-9.54-3v-15l-.34-.35v15.34Z"/><g class="cls-89"><rect class="cls-90" x="1198.56" y="753.58" width="10.88" height="10.91" transform="translate(-194.67 1022.59) rotate(-42.9)"/></g><g class="cls-91"><rect class="cls-92" x="1207.56" y="759.84" width="7.86" height="4.07" transform="translate(-152.17 327.61) rotate(-14.5)"/></g><g class="cls-93"><rect class="cls-94" x="1207.84" y="757.59" width="2.38" height="1.29" transform="translate(-145.98 310.34) rotate(-13.8)"/></g><g class="cls-95"><rect class="cls-96" x="1204.63" y="754.84" width="4.01" height="4.19" transform="translate(-214.12 858.77) rotate(-36.2)"/></g><polygon class="cls-87" points="1217.02 772.7 1217.36 772.36 1217.36 741.27 1217.02 741.08 1217.02 772.7"/><path class="cls-97" d="M1222.48,758.17V744l-.35-.22v14.65Zm0,4.58v10l-.35-.34V762.31Zm-7.22-1.82V739.71l-.35.35v20.69"/></g><g class="cls-98"><path class="cls-23" d="M1179.36,795.12h87.44V848.7h-87.44Zm-.07,53.64h87.57V795.05h-87.57Z"/><text class="cls-99" transform="translate(1195.29 826.5)">$ </text><text class="cls-29" transform="translate(1210.3 826.5)">5.19</text></g><g class="cls-100"><path class="cls-4" d="M1267.86,708.47h369v369h-369Zm-1,370h371v-371h-371Z"/><text class="cls-28" transform="translate(1282.86 738.95)">BOX</text><text class="cls-101" transform="translate(1282.86 843.98)">1</text><g class="cls-100"><path class="cls-102" d="M1611,752.29a3,3,0,0,1,3,3v24a3,3,0,0,1-3,3H1356.44a3,3,0,0,1-3-3v-24a3,3,0,0,1,3-3H1611m0-1H1356.44a4,4,0,0,0-4,4v24a4,4,0,0,0,4,4H1611a4,4,0,0,0,4-4v-24a4,4,0,0,0-4-4"/></g><text class="cls-103" transform="translate(1368.44 772.09)">16 x 12 x 16 box</text><g class="cls-100"><path class="cls-102" d="M1593.82,763.29H1606a1,1,0,0,1,.67,1.62l-6.1,6.1a1,1,0,0,1-1.34,0l-6.1-6.1a1,1,0,0,1,.66-1.62"/></g><text class="cls-29" transform="translate(1352.44 855.45)">Quantity</text><g class="cls-100"><path class="cls-102" d="M1607,865.85h-16a8,8,0,0,1-8-8v-16a8,8,0,0,1,8-8h16a8,8,0,0,1,8,8v16a8,8,0,0,1-8,8"/></g><text class="cls-104" transform="translate(1593.98 855.45)">1</text><g class="cls-100"><path class="cls-102" d="M1607,825.85h-16a8,8,0,0,1-8-8v-16a8,8,0,0,1,8-8h16a8,8,0,0,1,8,8v16a8,8,0,0,1-8,8"/></g><text class="cls-104" transform="translate(1593.97 815.45)">1</text><text class="cls-29" transform="translate(1352.43 815.45)">Line Item(s)</text><text class="cls-28" transform="translate(1282.86 896.61)"><tspan class="cls-105">T</tspan><tspan x="10.33" y="0">racking #</tspan></text><text class="cls-29" transform="translate(1282.86 924.87)">USPS124Z1231243424</text></g><g class="cls-106"><path class="cls-23" d="M1037.81,849.4h228.83v228.83H1037.81Zm-.22,229.05h229.27V849.18H1037.59Z"/><g class="cls-106"><text class="cls-28" transform="translate(1053.21 864.62)"><tspan class="cls-32">W</tspan><tspan x="16.67" y="0">eight</tspan></text></g><text class="cls-28" transform="translate(1053.21 944.62)">Dimensions</text><text class="cls-29" transform="translate(1061.2 980.89)">13 x 9 x 16 inches</text><text class="cls-29" transform="translate(1061.2 900.9)">12.6 Lb</text></g><g class="cls-107"><rect class="cls-4" x="1037.59" y="107.24" width="599.23" height="599.22"/><text class="cls-108" transform="translate(1068.69 183.38)">Order #</text><text class="cls-109" transform="translate(1076.71 215.49)">NZXT12345-4345-01</text><text class="cls-108" transform="translate(1068.69 255.62)">Line Items</text><text class="cls-109" transform="translate(1076.71 287.73)">1</text><text class="cls-108" transform="translate(1068.69 335.89)">Quantity</text><text class="cls-109" transform="translate(1076.71 368)">1</text><text class="cls-108" transform="translate(1068.69 416.16)">Ship<tspan class="cls-110" x="36.14" y="0">T</tspan><tspan x="45.19" y="0">o</tspan></text><text class="cls-109" transform="translate(1076.71 448.2)">John Doe,</text><text class="cls-109" transform="translate(1076.71 469.87)">Rochester NY</text><text class="cls-109" transform="translate(1076.71 491.54)">14623</text><g class="cls-107"><g class="cls-111"><g class="cls-112"><text class="cls-113" transform="translate(1053.02 149.83)">Order</text></g></g><path class="cls-114" d="M1582.2,175.47c-5.58,9.56-16,16.45-28,16.45a33.74,33.74,0,0,1,0-67.47c4.66,0,11,3,11,3.45,0,0,1.07,2.42-1.54,1.92a48.25,48.25,0,0,0-8-1.13,28.89,28.89,0,0,0-28.93,28.85c0,.44,0,.88,0,1.33.74,17.13,16.6,29.9,33.54,27.25A28.93,28.93,0,0,0,1580,173.54a4.76,4.76,0,0,1,1-.07c.42.09,1.66,1.15,1.17,2"/><path class="cls-114" d="M1559.47,139.75a32.8,32.8,0,0,1,28-16.45,33.73,33.73,0,1,1,1.16,67.45h-1.16c-4.67,0-11-3-11-3.46,0,0-1.06-2.42,1.55-1.92a47.21,47.21,0,0,0,8,1.14,28.89,28.89,0,1,0-24.34-44.86,4.86,4.86,0,0,1-1,.08c-.39-.09-1.65-1.15-1.17-2"/><path class="cls-114" d="M1396.32,685.65a11.49,11.49,0,0,1-9.81,5.77,11.84,11.84,0,1,1,0-23.68,8,8,0,0,1,3.87,1.22s.38.84-.54.67a17.61,17.61,0,0,0-2.81-.4,10.15,10.15,0,0,0-10.15,10.13c0,.15,0,.31,0,.46a10.2,10.2,0,0,0,18.67,5.15,1.4,1.4,0,0,1,.35,0c.15,0,.59.4.41.7"/><path class="cls-114" d="M1388.35,673.11a11.51,11.51,0,0,1,9.82-5.77,11.84,11.84,0,0,1,.4,23.67h-.4a8.06,8.06,0,0,1-3.88-1.21s-.37-.85.55-.68a15.6,15.6,0,0,0,2.81.4,10.14,10.14,0,1,0-8.54-15.74,2,2,0,0,1-.35,0c-.14,0-.58-.4-.41-.7"/><path class="cls-115" d="M1540.77,687.4h-7.91a4.79,4.79,0,1,1,0-9.57h7.91a4.79,4.79,0,1,1,0,9.57m.16-13.57H1533c-8.26,0-9,6.74-9,8.8s.73,8.79,9,8.79h7.94c8.25,0,9-6.74,9-8.79s-.73-8.8-9-8.8"/><path class="cls-115" d="M1522.4,674.44h-2.56c-1.11,0-1.33.19-1.76.81L1510.29,687a.94.94,0,0,1-.8.48.93.93,0,0,1-.79-.48l-7.79-11.72c-.43-.62-.66-.81-1.76-.81h-2.57c-.6,0-.87.46-.5,1l8.8,13.18c1.37,2,2.37,2.78,4.61,2.78s3.25-.8,4.62-2.78l8.8-13.18c.37-.56.1-1-.5-1m-33.91,1.08c0-.77.3-1.08,1.06-1.08h1.9c.76,0,1.06.31,1.06,1.08v14.82c0,.77-.3,1.08-1.06,1.08h-1.9c-.76,0-1.06-.31-1.06-1.08Zm-.14-4.7a1,1,0,0,1,0-1.71l1.31-1.31a1,1,0,0,1,1.71,0l1.31,1.31a1,1,0,0,1,0,1.71l-1.31,1.31a1,1,0,0,1-1.71,0l-1.31-1.31Zm-3.93,3.62h-2.57c-1.1,0-1.33.19-1.75.81s-7.79,11.72-7.79,11.72a.91.91,0,0,1-.79.48.94.94,0,0,1-.8-.48s-7.36-11.1-7.78-11.72-.65-.81-1.75-.81h-2.58c-.66,0-.86.46-.49,1l8.79,13.18c1.36,2,2.37,2.78,4.61,2.78s3.24-.8,4.6-2.78l8.79-13.18c.38-.56.17-1-.49-1"/><path class="cls-116" d="M1609.71,667.34a12,12,0,0,0-12,12c0,3.26,3.4,8.39,3.4,8.39,1.22-5.14,9.59-8.76,20.34-11.29a12.07,12.07,0,0,0-11.7-9.15m-3.5,23.56a22,22,0,0,0,3.5.52,12,12,0,0,0,12-12c-10.86,3-18.23,6.89-15.55,11.52Z"/><path class="cls-102" d="M1432.84,673.43l.82-.81a.88.88,0,0,1,1.25,0l7.14,7.14a.88.88,0,0,1,0,1.25l-7.14,7.14a.88.88,0,0,1-1.25,0l-.82-.82a.87.87,0,0,1,0-1.25l4.43-4.22h-10.57a.89.89,0,0,1-.88-.89V679.8a.89.89,0,0,1,.88-.89h10.57l-4.43-4.22a.88.88,0,0,1,0-1.26"/><path class="cls-102" d="M1572.56,673.43l.82-.81a.88.88,0,0,1,1.25,0l7.14,7.14a.88.88,0,0,1,0,1.25l-7.14,7.14a.88.88,0,0,1-1.25,0l-.82-.82a.87.87,0,0,1,0-1.25l4.43-4.22h-10.57a.89.89,0,0,1-.88-.89V679.8a.89.89,0,0,1,.88-.89H1577l-4.43-4.22a.88.88,0,0,1,0-1.26"/></g></g></g><rect class="cls-4" x="1699.41" y="77.17" width="222.64" height="1002.83"/><rect class="cls-4" x="1703.41" y="84" width="212.59" height="241.61"/><path class="cls-9" d="M1912,88V321.61H1707.41V88H1912m8-8H1699.41V329.61H1920V80Z"/><text class="cls-117" transform="translate(1774.98 208.33)">BACK</text><rect class="cls-13" x="1703.41" y="333.61" width="212.59" height="241.61"/><path class="cls-9" d="M1912,337.61V571.22H1707.41V337.61H1912m8-8H1699.41V579.22H1920V329.61Z"/><text class="cls-12" transform="translate(1731.2 457.94)">HOSPI<tspan class="cls-118" x="74.68" y="0">T</tspan><tspan x="87.56" y="0">ALIZE</tspan></text><rect class="cls-8" x="1184.67" y="808.62" width="71.98" height="30.93"/><rect class="cls-8" x="1054.31" y="881.38" width="71.98" height="30.93"/><rect class="cls-8" x="1054.31" y="956.16" width="153.13" height="30.93"/><rect class="cls-8" x="1277.89" y="904.84" width="216.04" height="30.93"/><rect class="cls-8" x="1575.78" y="828.83" width="47.66" height="39.16"/><rect class="cls-8" x="1575.78" y="789.67" width="47.66" height="39.16"/></g></svg>