<svg xmlns="http://www.w3.org/2000/svg" viewBox="0 0 699.58 143.84"><defs><style>.cls-1{fill:#231f20;}.cls-2{fill:#ae1a1e;}.cls-3{fill:#fffeff;}.cls-4{fill:#fefffd;}.cls-5{fill:#fff;}.cls-6{fill:#fefffa;}.cls-7{fill:#eeb111;}.cls-8{fill:#808285;}</style></defs><g id="Layer_2" data-name="Layer 2"><g id="Layer_1-2" data-name="Layer 1"><polygon class="cls-1" points="28.34 0 0 115.66 405.03 115.66 434.69 0 28.34 0"/><polygon class="cls-2" points="433.77 0 404.12 115.66 637.08 115.66 665.94 0 433.77 0"/><path class="cls-3" d="M500.28,82.89l-2.47,3.42a6.7,6.7,0,0,0-7-1.18s-4,1.29-5.89,6.6c0,0-1.3,5.89,4.6,6.24,0,0,3.53-.47,5.18-1.65l.59,3.54s-10,5.77-14.37-2.12c0,0-4-8.84,7.89-15.91C488.85,81.83,495.57,78.53,500.28,82.89Z"/><path class="cls-4" d="M561.1,81.47a13.8,13.8,0,0,0-12.73,1.89c-6.36,4.48-6,10.14-6,10.14-1.06,8.72,8.72,8.4,8.72,8.4a15.29,15.29,0,0,0,10-5.11C569.23,86.31,561.1,81.47,561.1,81.47Zm-2.71,12.26s-3.18,5.66-9.19,3.65c0,0-5.9-2.59,0-9.78,0,0,1.65-2.83,6.36-3.06C555.56,84.54,563.93,85.13,558.39,93.73Z"/><polygon class="cls-5" points="520.79 81.06 519.67 84.83 523.74 84.83 518.85 101.79 523.03 101.79 528.1 84.95 532.16 84.95 534.35 81.06 520.79 81.06"/><polygon class="cls-5" points="427.98 81.06 421.85 101.79 433.4 101.79 435.4 98.15 427.21 98.09 428.62 92.67 435.75 92.67 436.99 89.49 429.74 89.49 431.39 84.18 438.7 84.18 440.52 81.06 427.98 81.06"/><path class="cls-3" d="M451.66,81.06h-7.48l-6.07,20.73h6.95s8.61-1.4,11.61-8.65C456.67,93.14,461.33,83.48,451.66,81.06Zm.54,11.55a10.77,10.77,0,0,1-6.75,5.13h-1.92l3.83-13.2h2.53C455.38,86.6,452.2,92.61,452.2,92.61Z"/><path class="cls-5" d="M464,81.06l-4.18,13.79s-1.3,5.13,2.59,6.13a10.55,10.55,0,0,0,4,.81,13,13,0,0,0,4.46-1.05,10.08,10.08,0,0,0,4.53-4.24l4.72-15.44h-4.36L472,94.44s-1.47,3.77-4.77,3.3c0,0-3.65.06-3-2.89l4.24-13.79Z"/><polygon class="cls-5" points="537.29 81.06 531.4 101.9 535.88 101.9 542.01 81.06 537.29 81.06"/><polygon class="cls-6" points="564.99 101.9 571 81.06 576.07 81.06 581.13 95.97 585.38 81.06 589.74 81.06 583.38 101.9 578.78 101.9 573.59 86.66 569.47 101.9 564.99 101.9"/><path class="cls-5" d="M516.55,101.79l-1.3-20.73h-4.6l-13.08,20.73h4.72l3.42-5.94h6.12v5.94Zm-9.49-9,4.77-7.55v7.55Z"/><path class="cls-5" d="M453.12,50.79l-2.5,3.46a6.75,6.75,0,0,0-7-1.19s-4.05,1.31-6,6.66c0,0-1.31,6,4.65,6.31,0,0,3.57-.47,5.24-1.66l.59,3.57S438,73.77,433.6,65.79c0,0-4.05-8.92,8-16.07C441.57,49.72,448.36,46.39,453.12,50.79Z"/><path class="cls-4" d="M472.05,49.37a13.92,13.92,0,0,0-12.86,1.9c-6.42,4.52-6.07,10.24-6.07,10.24-1.07,8.81,8.81,8.49,8.81,8.49a15.48,15.48,0,0,0,10.12-5.16C480.27,54.25,472.05,49.37,472.05,49.37Zm-2.74,12.38s-3.21,5.71-9.28,3.69c0,0-6-2.62,0-9.88,0,0,1.66-2.86,6.43-3.1C466.46,52.46,474.91,53.06,469.31,61.75Z"/><polygon class="cls-5" points="475.03 69.37 483.95 48.95 488.36 48.95 488.6 63.83 498.36 48.95 502.59 48.95 499.19 69.61 495.09 69.61 497.88 55.68 488.81 69.61 485.26 69.61 484.85 55.44 479.01 69.61 475.03 69.61 475.03 69.37"/><path class="cls-5" d="M518.24,49h-9.4L502.59,69.6h4.22l2.62-8.09h5.72c4.28-.6,5.77-5.3,5.77-5.3C523.66,50.08,518.24,49,518.24,49Zm-1.13,6.67c-1.55,2.79-3.15,2.74-3.15,2.74h-3.63l1.81-6.2h3C518.18,52.64,517.11,55.62,517.11,55.62Z"/><path class="cls-5" d="M526.22,49h4.46l-4,13s-1.3,4.22,2.51,4.16c0,0,2.38.42,4.46-2.38L538.19,49h4.34L538,64s-1.91,3.81-4.83,4.88c0,0-3,1.31-4.88,1,0,0-4.7-.47-6.13-3.27a10.08,10.08,0,0,1,.78-6.43Z"/><polygon class="cls-5" points="545.27 48.95 544.14 52.76 548.24 52.76 543.3 69.89 547.53 69.89 552.65 52.88 556.75 52.88 558.96 48.95 545.27 48.95"/><polygon class="cls-5" points="561.16 48.95 554.97 69.89 566.64 69.89 568.66 66.21 560.39 66.15 561.81 60.68 569.02 60.68 570.27 57.46 562.95 57.46 564.61 52.1 572 52.1 573.84 48.95 561.16 48.95"/><path class="cls-5" d="M588.66,50A6.33,6.33,0,0,0,586.88,49h-9.47l-6.13,20.94h4.23L578.25,61l3.09,8.92h5.36l-4.76-9.57a8.53,8.53,0,0,0,6-3.1S591,52.76,588.66,50Zm-3.39,5.3c-1.73,2.74-3.16,2.68-3.16,2.68H579l1.78-6h3C586.1,52.76,585.27,55.32,585.27,55.32Z"/><path class="cls-7" d="M88.4,87.25H73.19L72.62,74H56.45l-7,13.21H34.05l34.35-58H83.19ZM73.3,63.89l-.36-22.8L61.09,63.89Z"/><path class="cls-7" d="M140.45,67.21a29.5,29.5,0,0,1-9.35,15.64q-6.51,5.58-14,5.57a12.91,12.91,0,0,1-6.44-1.49,12.7,12.7,0,0,1-3.87-3.66l-3.51,14.06-14.48,6.13,14.21-56.79h12.38l-1.19,4.74a19.8,19.8,0,0,1,6.12-4.12,18.58,18.58,0,0,1,7.42-1.54c5.4,0,9.27,1.9,11.64,5.7S142.13,60.51,140.45,67.21Zm-13.51.34c.91-3.61.75-6.33-.46-8.16s-3.23-2.74-6-2.74a7.74,7.74,0,0,0-5.75,2.83,18.19,18.19,0,0,0-3.92,8.07q-1.3,5.16,0,7.9t4.89,2.74a10,10,0,0,0,7-3A15.31,15.31,0,0,0,126.94,67.55Z"/><path class="cls-7" d="M176.33,46.67l-6,10.48h-5l-7.53,30.1H144.83l7.53-30.1h-6.07l25.64-26.47-4,16Z"/><path class="cls-7" d="M215.48,62,186.12,75.53a12,12,0,0,0,1.47,1.58,6.2,6.2,0,0,0,4.13,1.58,10.85,10.85,0,0,0,6.48-2.33A20.47,20.47,0,0,0,200.75,74L208,79.28q-8.82,9.39-20.06,9.4-8.9,0-13.4-5.92-4.69-6.18-2.24-15.92a27.78,27.78,0,0,1,10-15.26q7.68-6.15,16.25-6.16,7.53,0,12.09,4.52T215.48,62Zm-12.07-3.51a4.36,4.36,0,0,0-2.2-2.67,8.32,8.32,0,0,0-4.31-1.06A12.06,12.06,0,0,0,189,58a13.5,13.5,0,0,0-4.71,6.82,6.36,6.36,0,0,0-.14,1.17l0,1.33Z"/><path class="cls-7" d="M257.39,48.75l-5.84,10.06c-.4-.33-.76-.61-1.08-.83a11,11,0,0,0-6.38-2,11.5,11.5,0,0,0-7.61,3.28,15.08,15.08,0,0,0-4.86,7.78,8.38,8.38,0,0,0,1.17,7.44,7.67,7.67,0,0,0,6.56,3,16.5,16.5,0,0,0,5.52-1.08,21.51,21.51,0,0,0,2.54-1.09l.84,9.24a44.34,44.34,0,0,1-4.21,2,30.46,30.46,0,0,1-10.77,2,14.68,14.68,0,0,1-12.69-6.36q-4.5-6.37-2.28-15.26a28.81,28.81,0,0,1,9.95-15.35q7.71-6.45,16.69-6.45a23.6,23.6,0,0,1,9.1,1.75A23,23,0,0,1,257.39,48.75Z"/><path class="cls-7" d="M293.51,87.25H280.56l5.94-23.71A5.71,5.71,0,0,0,286,58.8,4.57,4.57,0,0,0,281.91,57a9.79,9.79,0,0,0-6,1.87A8.9,8.9,0,0,0,272.54,64l-5.81,23.22h-13L266.9,34.58l14.72-6.82-5.87,23.49a17.48,17.48,0,0,1,6.09-4.15,18.71,18.71,0,0,1,7.5-1.68q6.71,0,9.73,3.74c2,2.48,2.5,5.89,1.41,10.21Z"/><path class="cls-7" d="M351.36,100.23l1.12-.82c8.53-5.56,7.73-8.5,7.83-9.64-.41-19.32-16.45-20-16.45-20-4.75,0-6.08,6.23-6.08,6.23-.94,4.42,1.71,10.82,1.71,10.82a6.37,6.37,0,0,1-.94,5.46S344.12,93,347,97C347,97,349.38,99.59,351.36,100.23Z"/><path class="cls-8" d="M363.58,32.68c-2,8.73-8,14.78-13.44,13.5s-8.26-9.41-6.28-18.13,8-14.77,13.43-13.49S365.55,24,363.58,32.68Z"/><path class="cls-8" d="M384.88,47c-5.54,7-13.65,9.65-18.11,6s-3.61-12.34,1.92-19.31,13.64-9.64,18.12-6S390.41,40.06,384.88,47Z"/><path class="cls-8" d="M388.78,78c-5.48,6.15-13.26,8-17.39,4.17s-3-11.9,2.45-18,13.26-8,17.39-4.18S394.25,71.92,388.78,78Z"/><path class="cls-8" d="M339.16,43c.39,8.08-3.82,14.84-9.39,15.13S319.36,52.08,319,44s3.82-14.85,9.39-15.12S338.78,34.94,339.16,43Z"/><path class="cls-8" d="M362.92,68c-5.51-14.09-17.51-10.24-17.51-10.24C328.5,62.72,321,73.26,321,73.26c-11.5,16.39,15.92,18.92,15.92,18.92.52.06.86,0,1.64.06a6.37,6.37,0,0,0,.94-5.46s-2.65-6.4-1.71-10.82c0,0,1.33-6.22,6.08-6.23,0,0,16,.72,16.45,20-.1,1.14.7,4.08-7.83,9.64l-1.12.82c12.5,5.35,15.58-7,15.58-7C369.81,80.88,362.92,68,362.92,68Z"/><path class="cls-7" d="M352.2,60.41c-1.66-1.3-4.41-.44-6.15,1.89s-1.82,5.27-.17,6.56,4.42.43,6.16-1.9S353.86,61.69,352.2,60.41Z"/><path class="cls-7" d="M358.56,70.59c1.34-1.77,1.44-4,.22-4.94s-3.28-.26-4.61,1.53-1.44,4-.23,4.93S357.23,72.38,358.56,70.59Z"/><path class="cls-7" d="M362.06,76.16c1.15-1.55,1.24-3.48.15-4.32s-2.88-.26-4,1.29S357,76.6,358,77.44,360.9,77.7,362.06,76.16Z"/><path class="cls-7" d="M363.83,82.09c1.16-1.15,1.43-2.78.61-3.63s-2.42-.63-3.57.52-1.43,2.76-.6,3.62S362.68,83.22,363.83,82.09Z"/><path class="cls-7" d="M365.41,84.76c-.65-.82-2.06-.77-3.13.12a2.35,2.35,0,0,0-.76,3.11c.66.83,2.06.78,3.14-.12S366.07,85.57,365.41,84.76Z"/><path class="cls-1" d="M40,122l-3.36,11.33a8.1,8.1,0,0,1-3.11,4.39,9,9,0,0,1-5.32,1.63,5.88,5.88,0,0,1-4-1.22A3.75,3.75,0,0,1,23,134.79a4.14,4.14,0,0,1,.14-.82l.15-.62L26.61,122H30.1l-3.29,11.13a1.91,1.91,0,0,0-.11.47,3.24,3.24,0,0,0-.07.46c-.13,1.53.67,2.3,2.42,2.3a4,4,0,0,0,2.57-.86,4.59,4.59,0,0,0,1.56-2.37L36.48,122Z"/><path class="cls-1" d="M52.09,131.09l-2.4,8H46.52l2.14-7.1a5,5,0,0,0,.14-.76c.1-1.12-.49-1.69-1.78-1.69a3.38,3.38,0,0,0-2.13.81,3.88,3.88,0,0,0-1.36,2l-2,6.78H38.34l3.2-10.85,3.51-1.56-.58,2a6.06,6.06,0,0,1,2-1.35,5.85,5.85,0,0,1,2.36-.46,4.17,4.17,0,0,1,2.6.71,2.49,2.49,0,0,1,.88,2.37,3.05,3.05,0,0,1-.07.56A3.9,3.9,0,0,1,52.09,131.09Z"/><path class="cls-1" d="M61.51,121.57l-5.2,17.53H53.14l4.75-16Z"/><path class="cls-1" d="M73.92,131.34l-9.67,4.31a3,3,0,0,0,.5.68,2.31,2.31,0,0,0,1.69.69,4.21,4.21,0,0,0,2.38-.83,9.43,9.43,0,0,0,1-.86l1.78,1.32a12.59,12.59,0,0,1-1.72,1.43,8.16,8.16,0,0,1-4.49,1.41,4.72,4.72,0,0,1-3.58-1.39,4.35,4.35,0,0,1-1.13-3.56,5.55,5.55,0,0,1,.26-1.3,9.08,9.08,0,0,1,3-4.47,8,8,0,0,1,5.21-2A4.64,4.64,0,0,1,72.53,128,4.79,4.79,0,0,1,73.92,131.34Zm-3.09-.82a1.92,1.92,0,0,0-.81-1,2.59,2.59,0,0,0-1.47-.38,4.43,4.43,0,0,0-2.81,1.12,5,5,0,0,0-1.76,2.4,2,2,0,0,0-.08.38,1.55,1.55,0,0,0,0,.26c0,.13,0,.21,0,.25v.05Z"/><path class="cls-1" d="M89.14,127.16,85.58,139.1h-3l.4-1.37A5.88,5.88,0,0,1,81.07,139a6,6,0,0,1-2.38.49,3.69,3.69,0,0,1-3.11-1.32,4.56,4.56,0,0,1-.76-3.27,9.5,9.5,0,0,1,.34-1.74,9,9,0,0,1,2.93-4.42,6.89,6.89,0,0,1,4.43-1.78,4.22,4.22,0,0,1,2,.43,2.51,2.51,0,0,1,1.16,1.16l.41-1.34Zm-5,5.91a8.34,8.34,0,0,0,.21-.86c.06-.31.1-.57.13-.81a1.85,1.85,0,0,0-.38-1.51,2.18,2.18,0,0,0-1.57-.46,3.66,3.66,0,0,0-2.44,1,5.51,5.51,0,0,0-1.63,2.72,7.05,7.05,0,0,0-.22,1.1,2.29,2.29,0,0,0,.53,1.9,2.25,2.25,0,0,0,1.7.64,3.06,3.06,0,0,0,2.21-.88A6.31,6.31,0,0,0,84.17,133.07Z"/><path class="cls-1" d="M100.52,127.74l-1.41,2.18a7.9,7.9,0,0,0-.83-.51,4,4,0,0,0-1.89-.52,2.61,2.61,0,0,0-1.42.41,1.75,1.75,0,0,0-.81.94,1.29,1.29,0,0,0,0,.29c0,.51.76,1,2.42,1.57s2.43,1.39,2.34,2.57l0,.39a3.4,3.4,0,0,0-.14.44,5,5,0,0,1-2.14,2.81,7.4,7.4,0,0,1-4.27,1.23,8,8,0,0,1-3-.57,5.26,5.26,0,0,1-1.06-.58l1.56-2.47a3.57,3.57,0,0,0,2.83,1.27,3.56,3.56,0,0,0,1.82-.45,1.86,1.86,0,0,0,1-1.14c0-.08,0-.19,0-.32,0-.54-.75-1.05-2.39-1.52s-2.41-1.28-2.31-2.42c0-.15,0-.3,0-.47a3.67,3.67,0,0,1,.13-.36,4.87,4.87,0,0,1,2-2.6,6.76,6.76,0,0,1,4-1.19,7,7,0,0,1,2.72.51A6.23,6.23,0,0,1,100.52,127.74Z"/><path class="cls-1" d="M114.14,130.83l-2.46,8.27H108.5l2.18-7.34a.84.84,0,0,0,.08-.29,2.06,2.06,0,0,1,0-.27c.09-1.12-.52-1.68-1.82-1.68a3.58,3.58,0,0,0-2.15.68,3.24,3.24,0,0,0-1.24,1.73l-2.12,7.17h-3.18L105,123.16l3.65-1.57-2.09,7a8.43,8.43,0,0,1,1.22-.91,6,6,0,0,1,3.16-.92,3.79,3.79,0,0,1,2.61.81,2.57,2.57,0,0,1,.79,2.25A5.62,5.62,0,0,1,114.14,130.83Z"/><path class="cls-1" d="M137.32,127.18l-11.66,16.17h-3.61l3.5-4.54-1.4-11.63h3.45l.63,8.15,5.6-8.15Z"/><path class="cls-1" d="M149.25,133.16a9,9,0,0,1-3.08,4.42,8.24,8.24,0,0,1-5.26,2,4.81,4.81,0,0,1-3.66-1.43,4.45,4.45,0,0,1-1.17-3.65,6.24,6.24,0,0,1,.26-1.27,8.77,8.77,0,0,1,3.29-4.56,8.35,8.35,0,0,1,5.05-1.86,4.72,4.72,0,0,1,3.59,1.45,4.54,4.54,0,0,1,1.21,3.68c0,.17,0,.38-.08.6S149.31,133,149.25,133.16Zm-3.05-.07a4.44,4.44,0,0,0,.17-.81,2.56,2.56,0,0,0-.59-1.95,2.4,2.4,0,0,0-1.9-.78,4.27,4.27,0,0,0-2.72,1,5.13,5.13,0,0,0-1.74,2.64,1.91,1.91,0,0,0-.11.47,3.63,3.63,0,0,0-.07.51,2.28,2.28,0,0,0,.58,1.95,2.51,2.51,0,0,0,1.86.68,4.34,4.34,0,0,0,2.74-1A5.25,5.25,0,0,0,146.2,133.09Z"/><path class="cls-1" d="M165.16,127.18l-2.29,7.72a6,6,0,0,1-2.44,3.41,8.11,8.11,0,0,1-4.6,1.18,5.81,5.81,0,0,1-3.45-.84,2.73,2.73,0,0,1-1-2.58c0-.18,0-.37.07-.56a5.4,5.4,0,0,1,.15-.61l2.3-7.72h3.18l-2.16,7.23a5.68,5.68,0,0,0-.16.73c-.1,1.11.53,1.66,1.87,1.66a3.05,3.05,0,0,0,3.19-2.39l2.15-7.23Z"/><path class="cls-1" d="M176.26,127l-1.6,3.06a.72.72,0,0,0-.19,0,4.93,4.93,0,0,0-.66-.13,3.51,3.51,0,0,0-2.11.76,4.37,4.37,0,0,0-1.63,2.32l-1.82,6.15h-3.17l3.22-10.82,3.5-1.59-.65,2.15a5.82,5.82,0,0,1,1.92-1.43,5.73,5.73,0,0,1,2.45-.55l.35,0Z"/><path class="cls-1" d="M195.44,133.15a9.24,9.24,0,0,1-2.89,4.53,6.84,6.84,0,0,1-4.49,1.71,3.65,3.65,0,0,1-2.36-.76,4.16,4.16,0,0,1-.66-.76l-1.37,4.55-3.58,1.42,5-16.68h3l-.44,1.42a6.71,6.71,0,0,1,1.91-1.25,5.59,5.59,0,0,1,2.24-.47,4,4,0,0,1,3,1.12,4.23,4.23,0,0,1,1,3.41A12,12,0,0,1,195.44,133.15Zm-3.34.17a3.56,3.56,0,0,0,.15-.56c0-.2.06-.4.08-.61a2.67,2.67,0,0,0-.47-2,2.17,2.17,0,0,0-1.79-.71c-1.71,0-2.95,1.27-3.68,3.8a7,7,0,0,0-.3,1.46c-.13,1.45.46,2.18,1.75,2.18a3.91,3.91,0,0,0,2.41-.81A5.11,5.11,0,0,0,192.1,133.32Z"/><path class="cls-1" d="M210.64,133.16a9,9,0,0,1-3.07,4.42,8.24,8.24,0,0,1-5.27,2,4.81,4.81,0,0,1-3.65-1.43,4.52,4.52,0,0,1-1.17-3.65,6.24,6.24,0,0,1,.26-1.27,8.82,8.82,0,0,1,3.29-4.56,8.35,8.35,0,0,1,5.05-1.86,4.72,4.72,0,0,1,3.59,1.45,4.47,4.47,0,0,1,1.2,3.68c0,.17,0,.38-.07.6A5,5,0,0,1,210.64,133.16Zm-3-.07a3.23,3.23,0,0,0,.16-.81,2.48,2.48,0,0,0-.58-1.95,2.4,2.4,0,0,0-1.9-.78,4.27,4.27,0,0,0-2.72,1,5.13,5.13,0,0,0-1.74,2.64,5.34,5.34,0,0,0-.18,1,2.31,2.31,0,0,0,.58,1.95,2.5,2.5,0,0,0,1.85.68,4.34,4.34,0,0,0,2.75-1A5.25,5.25,0,0,0,207.6,133.09Z"/><path class="cls-1" d="M221.23,127.18l-1.58,2.54h-1.6l-2.81,9.38h-3.17l2.8-9.38h-1.7l6.93-7-1.29,4.41Z"/><path class="cls-1" d="M233.33,131.34l-9.66,4.31a3.34,3.34,0,0,0,.49.68,2.33,2.33,0,0,0,1.69.69,4.16,4.16,0,0,0,2.38-.83,8.44,8.44,0,0,0,1-.86l1.78,1.32a12.58,12.58,0,0,1-1.73,1.43,8.15,8.15,0,0,1-4.48,1.41,4.7,4.7,0,0,1-3.58-1.39,4.35,4.35,0,0,1-1.13-3.56,5.52,5.52,0,0,1,.25-1.3,9.1,9.1,0,0,1,3-4.47,8,8,0,0,1,5.21-2A4.68,4.68,0,0,1,232,128,4.74,4.74,0,0,1,233.33,131.34Zm-3.08-.82a1.92,1.92,0,0,0-.81-1,2.62,2.62,0,0,0-1.47-.38,4.47,4.47,0,0,0-2.82,1.12,4.92,4.92,0,0,0-1.75,2.4,1.48,1.48,0,0,0-.09.38c0,.13,0,.21,0,.26s0,.21,0,.25v.05Z"/><path class="cls-1" d="M247.15,131.09l-2.4,8h-3.17l2.14-7.1a5,5,0,0,0,.14-.76c.1-1.12-.49-1.69-1.78-1.69a3.4,3.4,0,0,0-2.13.81,3.94,3.94,0,0,0-1.36,2l-2,6.78h-3.18l3.19-10.85,3.51-1.56-.58,2a6.17,6.17,0,0,1,2-1.35,5.88,5.88,0,0,1,2.36-.46,4.15,4.15,0,0,1,2.6.71,2.52,2.52,0,0,1,.89,2.37c0,.17,0,.35-.07.56A3.92,3.92,0,0,1,247.15,131.09Z"/><path class="cls-1" d="M257.67,127.18l-1.58,2.54h-1.6l-2.8,9.38h-3.17l2.79-9.38h-1.69l6.93-7-1.3,4.41Z"/><path class="cls-1" d="M262.35,126.72l-3.7,12.38h-3.17l3.21-10.79Zm1.07-2.62a2.72,2.72,0,0,1-.88,1.28,2.19,2.19,0,0,1-1.44.58,1.4,1.4,0,0,1-1.08-.4,1.2,1.2,0,0,1-.32-1,1.88,1.88,0,0,1,.07-.37,2.79,2.79,0,0,1,.89-1.35,2.31,2.31,0,0,1,1.45-.54,1.36,1.36,0,0,1,1.05.41,1.19,1.19,0,0,1,.34,1A3.1,3.1,0,0,1,263.42,124.1Z"/><path class="cls-1" d="M277.15,127.16l-3.56,11.94h-3l.42-1.37a6.36,6.36,0,0,1-4.27,1.71,3.66,3.66,0,0,1-3.11-1.32,4.51,4.51,0,0,1-.76-3.27,8.72,8.72,0,0,1,.34-1.74,9,9,0,0,1,2.94-4.42,6.82,6.82,0,0,1,4.41-1.78,4.29,4.29,0,0,1,2,.43,2.51,2.51,0,0,1,1.16,1.16l.41-1.34Zm-5,5.91a6.31,6.31,0,0,0,.23-.86c.05-.31.09-.57.11-.81a1.85,1.85,0,0,0-.38-1.51,2.14,2.14,0,0,0-1.55-.46,3.71,3.71,0,0,0-2.46,1,5.66,5.66,0,0,0-1.63,2.72,5.9,5.9,0,0,0-.21,1.1,2.2,2.2,0,0,0,.53,1.9,2.27,2.27,0,0,0,1.7.64,3.09,3.09,0,0,0,2.21-.88A6.31,6.31,0,0,0,272.17,133.07Z"/><path class="cls-1" d="M285.41,121.57l-5.2,17.53H277l4.74-16Z"/><path class="cls-1" d="M680.27,2.46h-5.12V15.67H673V2.46H667.8V.27h12.47Zm19.31,13.21h-2.19V2.46h-.08l-5.26,13.21h-1.43L685.5,2.46h-.08V15.67h-2.19V.27h3.7l4.42,11.08L695.93.27h3.65Z"/></g></g></svg>