<svg xmlns="http://www.w3.org/2000/svg" viewBox="0 0 192.76 192.76"><defs><style>.cls-1{fill:#fff;}.cls-1,.cls-2{fill-rule:evenodd;}.cls-2{fill:#231f20;}</style></defs><g id="Layer_2" data-name="Layer 2"><g id="Layer_1-2" data-name="Layer 1"><polygon class="cls-1" points="0 0 192.76 0 192.76 192.76 0 192.76 0 0 0 0"/><path class="cls-2" d="M96.13,2.83A69.14,69.14,0,0,0,67.11,9,68,68,0,0,0,43.25,25a75.81,75.81,0,0,0-16,23.61,71.07,71.07,0,0,0-6.15,29.27,73,73,0,0,0,6.15,29.51,75.69,75.69,0,0,0,16,23.61,67.9,67.9,0,0,0,23.86,16,82.87,82.87,0,0,0,29,6.15A85.62,85.62,0,0,0,125.65,147a74.81,74.81,0,0,0,39.84-39.6,77.28,77.28,0,0,0,6.15-29.51,75.15,75.15,0,0,0-6.15-29.27A73,73,0,0,0,149.5,25,75.43,75.43,0,0,0,125.65,9,71.42,71.42,0,0,0,96.13,2.83Zm15.25,9.84c-9.59,0-17,3.2-22.63,9.35-3.19,3.69-5.65,9.1-7.87,15.49l-2.46,1.23L77,41H73.5v1.47h3a5.51,5.51,0,0,0,2,3.69l.5.49a97.92,97.92,0,0,0-.74,19.19,69.25,69.25,0,0,0,.74,12c.73,3.2,2,5.66,3.68,6.89,2.46,2,6.15,3.19,11.56,3.19l21.16.49,1.23,1.23a7,7,0,0,1-3.2,4.43l-.74,1.72c-10.33,4.18-15.74,7.38-16.48,9.35L90.48,115,85.06,91.38l-2.46.24-3.19-2.7L68.59,90.15,56,91.62l-6.15,2.46-1.23,1V93.84c-.49-2.22-1-3.69-2.21-4.92L42,86l-3.69-.74-3.69,1.23-2-1.72,8.61,39.35a76.7,76.7,0,0,1-11.07-18,63,63,0,0,1-5.91-28.28,62.67,62.67,0,0,1,5.91-28,75.32,75.32,0,0,1,15-22.87A78.62,78.62,0,0,1,68.34,11.69,69,69,0,0,1,96.13,5.54a70.47,70.47,0,0,1,28.29,6.15,72.31,72.31,0,0,1,38.12,38.12,74.13,74.13,0,0,1,5.66,28A82.89,82.89,0,0,1,165,100l-7.87-3-2.71-4.18-4.18-3.69-3.69-.24v-.5h5.66a8.94,8.94,0,0,0,7.13-3c2.46-2,3.69-5.65,3.2-10.08,0-4.67-1.23-9.84-3.2-16.48a105.13,105.13,0,0,0-9.1-20.9,62.92,62.92,0,0,0-16-17.71,37.57,37.57,0,0,0-22.87-7.63Zm13.53,27.8-1-2c-9.83-3.45-17.21-10.82-21.64-22.63C92.93,23.25,87,30.13,84.57,37.27a11.62,11.62,0,0,1,3.69,1.47l1,1,.73-.49a3.89,3.89,0,0,1,3.69-1.73,5.4,5.4,0,0,1,4.18,1.73l.25.49,1.23-1c1.23-1.23,3-1.47,4.92-1.47a6.3,6.3,0,0,1,4.67,1.47l2,2.22h3v1.47h-3a5.52,5.52,0,0,1-2,3.69,6.49,6.49,0,0,1-4.67,1.72,6.7,6.7,0,0,1-4.92-1.72c-1.48-1.23-2.46-2.46-2-3.69v-.74c-.49-1.72-1.72-2.45-3.69-2.45s-3,.73-3.19,2.95l-1.23,3.69-1,.24a6.33,6.33,0,0,1-4.92,1.72H83.1a32.71,32.71,0,0,0,3.19,13l2,4.67,2.22,3.69L91.21,72l.5,3.44a6.34,6.34,0,0,0,5.65,3.93l7.87,1,2-.49,2.46-1.23c2-.49,8.61-4.92,18.94-12.79L120,75.64l-7.13,6.14,16,20.91,17.71-11.31-2-3H129.34l-.5-30.25c1.23.74,2.46,1.23,3.69.74,1-.49,1.23-2,1.23-4.92,1.23-5.41.49-9.1-1.47-10.57h-2.22l1.23,2-2.46,4.92-.73,1.23v2.95c.49,1.48-.5,2.71-2.46,3.2a4.88,4.88,0,0,0-.74-2.46l-1.72-1.72c-.5-.74,0-1.48.49-2.71l1.47-2.21a7.16,7.16,0,0,0,1-5.16v-1h-8.36V41h7.37l-.24-.49Zm-17-.74a4.3,4.3,0,0,0-3.69-1,4.62,4.62,0,0,0-3.94,1V40L99.08,41.2v1.23a3.31,3.31,0,0,0,1.23,3,10.06,10.06,0,0,0,3.94.74,9.72,9.72,0,0,0,3.69-.74l1.23-2h-3.69a1.89,1.89,0,0,1-1.23.24c-.74,0-1.23,0-1.23-.24h-1.48V41.69h7.63l-1.23-2Zm9.59,51.89-3,3.69c-.74.49-.74,2.46.49,6.15a56.78,56.78,0,0,0,3.2,10.33l9.34-7.87-9.83-13v.5l-.25.24Zm15.49-31-1.23.74-.73,1.23.73,1.72,1.23.25,1.23-.25L135,62.6l-.74-1.23L133,60.63Zm16.73,30.75-19.68,13,4.18,10.33L149,104.9c4.43-3.69,6.89-5.9,6.64-7.13l-.49-1.23-2-2.7-3.44-3v.5ZM79.65,39.73a2.64,2.64,0,0,0-1.47,2.7,3,3,0,0,0,1.47,3l3.69.74A9.72,9.72,0,0,0,87,45.38l1.72-2H84.33l-1,.24c-.74,0-1.23,0-1.23-.24H80.64V41.69h8.11l-1.72-2a4.3,4.3,0,0,0-3.69-1l-3.69,1ZM38.33,86.46l-2.46,1.23L46.94,98.26V96.54c.49-3.2,0-5.66-1.23-6.89a22.81,22.81,0,0,0-3.69-2l-3.69-1.23Zm8.61,11.8L48.17,97c2.95-2,5.41-3.69,7.87-4.18l12.55-1.47,9.83-1,2.22,1.72-33.7,6.15Z"/><path class="cls-2" d="M99.33,69.49a6.16,6.16,0,0,1-4.43,1L92,70c-1.23-.49-1.47-1.23-1.23-2l1,.74,2,.49h2.46l3.2-1,2.21-.25-2.21,1.48Z"/><path class="cls-2" d="M100.31,66.78l-.49.25-1.23.49H92.44l-.73-.74L90,66.29l1.73-2,1.22.74,1.23-.74c3.69,1.23,5.66,2,6.15,2.46Z"/><path class="cls-2" d="M131.79,55.22l-1.22-.74c-.5-.49-.5-1.23,0-2.95a12.49,12.49,0,0,0,1.22,3.69Z"/><path class="cls-2" d="M88.75,60.14a33.37,33.37,0,0,1-3-3l9.84,2.46-6.89.49Z"/><polygon class="cls-2" points="15.32 153.78 15.32 181.37 19.82 181.37 19.82 153.78 15.32 153.78 15.32 153.78"/><polygon class="cls-2" points="23.76 189.92 28.84 189.92 41.7 165.42 36.62 165.42 32.19 174.48 27.26 165.42 22.03 165.42 29.61 178.97 23.76 189.92 23.76 189.92"/><path class="cls-2" d="M43.91,181.37H48.4v-8.14a5.53,5.53,0,0,1,.7-3.1,3.09,3.09,0,0,1,2.77-1.4,2.91,2.91,0,0,1,2.1.81,4.57,4.57,0,0,1,.84,3.13v8.7h4.5v-10a6.72,6.72,0,0,0-1.26-4.5,6.11,6.11,0,0,0-4.71-1.95,5.87,5.87,0,0,0-4.94,2.58v-2.06H43.91v16Z"/><path class="cls-2" d="M75.81,167.48a5.78,5.78,0,0,0-5.12-2.58c-4.72,0-7.92,3.76-7.92,8.47s3.24,8.52,8.14,8.52a5.73,5.73,0,0,0,4.9-2.58v2.06H80.3V153.78H75.81v13.7Zm-4,10.43a4.52,4.52,0,1,1,4.42-4.54,4.37,4.37,0,0,1-4.42,4.54Z"/><path class="cls-2" d="M96.81,167.48a5.78,5.78,0,0,0-5.12-2.58c-4.72,0-7.92,3.76-7.92,8.47s3.24,8.52,8.14,8.52a5.73,5.73,0,0,0,4.9-2.58v2.06h4.49v-16H96.81v2.06Zm-4,10.43a4.52,4.52,0,1,1,4.42-4.54,4.37,4.37,0,0,1-4.42,4.54Z"/><path class="cls-2" d="M105.21,179a2.87,2.87,0,1,0,2.87-2.87,2.83,2.83,0,0,0-2.87,2.87Z"/><path class="cls-2" d="M130.65,164.44a9.08,9.08,0,0,0-5.33-1.65,9,9,0,1,0,0,18.05,9.11,9.11,0,0,0,5.45-1.78v-3.55a7.34,7.34,0,0,1-5.53,2.68,6,6,0,0,1-6-6.36c0-4.17,2.89-6.4,6.07-6.4a6.92,6.92,0,0,1,5.37,2.56v-3.55Z"/><path class="cls-2" d="M143.32,180.84a9,9,0,1,0-9.08-9,8.8,8.8,0,0,0,9.08,9Zm0-15.41c3.14,0,6,2.19,6,6.4a6,6,0,1,1-12.06,0c0-4.17,2.89-6.4,6-6.4Z"/><path class="cls-2" d="M157,180.34h3V171c0-2.07.37-5.58,3.74-5.58,3.11,0,3.11,3.55,3.11,4.75v10.16h3V170.8c0-2.07.37-5.37,3.79-5.37,2.81,0,3.06,2.56,3.06,4.5v10.41h3V169.48a7.82,7.82,0,0,0-.95-4.38,5.06,5.06,0,0,0-4.62-2.31,5.72,5.72,0,0,0-5.16,2.77,5.21,5.21,0,0,0-4.7-2.77,4.94,4.94,0,0,0-4.22,2.23V163.2h-3v17.14Z"/></g></g></svg>