<svg id="Layer_1" data-name="Layer 1" xmlns="http://www.w3.org/2000/svg" viewBox="0 0 192.76 192.76"><defs><style>.cls-1{fill:#fff;}.cls-1,.cls-2{fill-rule:evenodd;}.cls-2{fill:#ef3e28;}</style></defs><polygon class="cls-1" points="0 0 192.76 0 192.76 192.76 0 192.76 0 0 0 0"/><polygon class="cls-2" points="137.66 84.8 133.83 84.8 133.83 108.25 151.83 108.25 154.26 104.41 137.66 104.41 137.66 84.8 137.66 84.8 137.66 84.8"/><path class="cls-2" d="M948.14,530l-14,22.28h4.65l4.24-6.73h9l2.38-3.83h-9l4.93-7.72,11.55,18.28h4.64L952.32,529.9h0a2.52,2.52,0,0,0-4.18.06Z" transform="translate(-863 -444)"/><path class="cls-2" d="M975.36,532.62h16.11l2.38-3.83h-18.6c-6.47,0-10.73,5.25-10.73,11.72s4.26,11.72,10.73,11.72h0l15.73,0,2.46-3.8H975.36c-4.36,0-6.91-3.54-6.91-7.9s2.55-7.9,6.91-7.9Z" transform="translate(-863 -444)"/><path class="cls-2" d="M893.17,528.8h-16.6c-6.48,0-10.74,5.25-10.74,11.72s4.26,11.72,10.74,11.72h16.6c6.47,0,10.73-5.25,10.73-11.72s-4.26-11.72-10.73-11.72Zm0,19.62h-16.6c-4.37,0-6.92-3.54-6.92-7.9s2.55-7.9,6.92-7.9h16.6c4.36,0,6.91,3.54,6.91,7.9s-2.55,7.9-6.91,7.9Z" transform="translate(-863 -444)"/><path class="cls-2" d="M1028.22,532.62h16.1l2.38-3.83h-18.6c-6.47,0-10.73,5.25-10.73,11.72s4.26,11.72,10.73,11.72h0l15.73,0,2.47-3.8h-18.08c-3.73,0-6.11-2.57-6.74-6h20.29l2.44-3.83h-22.73c.67-3.4,3.06-5.93,6.74-5.93Z" transform="translate(-863 -444)"/><path class="cls-2" d="M925.73,542.72a7,7,0,0,0,0-13.92H906.2v23.44h4.29V532.62h15.24a3.14,3.14,0,0,1,0,6.28H913.51l13.78,13.32h5.55L923,542.73Z" transform="translate(-863 -444)"/><path class="cls-2" d="M1050.81,528.51a2.1,2.1,0,1,0,2.11,2.09,2.1,2.1,0,0,0-2.11-2.09Zm0,3.84a1.75,1.75,0,1,1,1.69-1.75,1.69,1.69,0,0,1-1.69,1.75Z" transform="translate(-863 -444)"/><path class="cls-2" d="M1051.14,530.75a.64.64,0,0,0,.63-.67c0-.47-.28-.68-.85-.68H1050v2.41h.36v-1h.42l.64,1h.41l-.69-1.06Zm-.78-.3v-.74h.5c.26,0,.53,0,.53.35s-.28.39-.59.39h-.44Z" transform="translate(-863 -444)"/></svg>