<svg id="Angry_-_selected" data-name="Angry - selected" xmlns="http://www.w3.org/2000/svg" width="96" height="89.499" viewBox="0 0 96 89.499">
  <g id="Group_2316" data-name="Group 2316">
    <rect id="Rectangle_521" data-name="Rectangle 521" width="96" height="89.499" fill="#ff7b7c"/>
  </g>
  <g id="Group_2317" data-name="Group 2317" transform="translate(32.197 54.905)">
    <path id="Path_4048" data-name="Path 4048" d="M357.081,661.9c1.238.255,2.081-1.588,1.265-2.793-3.6-5.3-9.192-8.719-15.48-8.719s-11.878,3.414-15.48,8.719c-.816,1.206.028,3.048,1.266,2.793a74.692,74.692,0,0,1,28.428,0Z" transform="translate(-327.064 -650.383)" fill="#424242"/>
  </g>
  <g id="Group_2320" data-name="Group 2320" transform="translate(21.948 19.539)">
    <g id="Group_2318" data-name="Group 2318" transform="translate(0 0.001)">
      <path id="Path_4049" data-name="Path 4049" d="M339.094,654.374a1.342,1.342,0,0,1-1.289-.959c-1.433-4.875-6.311-8.592-12.133-9.252a1.33,1.33,0,0,1-1.174-1.48,1.347,1.347,0,0,1,1.48-1.178c6.872.776,12.658,5.257,14.4,11.155a1.335,1.335,0,0,1-1.285,1.715Z" transform="translate(-324.489 -641.496)" fill="#424242"/>
    </g>
    <g id="Group_2319" data-name="Group 2319" transform="translate(35.783)">
      <path id="Path_4050" data-name="Path 4050" d="M334.823,654.374a1.334,1.334,0,0,1-1.289-1.715c1.735-5.894,7.525-10.378,14.405-11.154a1.338,1.338,0,0,1,.3,2.658c-5.826.66-10.7,4.377-12.133,9.252A1.341,1.341,0,0,1,334.823,654.374Z" transform="translate(-333.481 -641.495)" fill="#424242"/>
    </g>
  </g>
  <g id="Group_2321" data-name="Group 2321" transform="translate(23.132 32.163)">
    <path id="Path_4051" data-name="Path 4051" d="M344.795,649.686a5.016,5.016,0,1,1-5.018-5.018A5.018,5.018,0,0,1,344.795,649.686Z" transform="translate(-295.061 -644.668)" fill="#424242"/>
    <path id="Path_4052" data-name="Path 4052" d="M334.822,649.686a5.018,5.018,0,1,1-5.018-5.018A5.02,5.02,0,0,1,334.822,649.686Z" transform="translate(-324.786 -644.668)" fill="#424242"/>
  </g>
</svg>
