<svg id="Sad_-_selected" data-name="Sad  - selected" xmlns="http://www.w3.org/2000/svg" width="96" height="89.499" viewBox="0 0 96 89.499">
  <g id="Group_2311" data-name="Group 2311">
    <rect id="Rectangle_520" data-name="Rectangle 520" width="96" height="89.499" fill="#fdaa24"/>
  </g>
  <g id="Group_2313" data-name="Group 2313" transform="translate(36.271 59.762)">
    <g id="Group_2312" data-name="Group 2312">
      <path id="Path_4045" data-name="Path 4045" d="M376.259,659.556a2.151,2.151,0,0,1-1.472-.577,11.82,11.82,0,0,0-7.648-3.048,11.471,11.471,0,0,0-8.524,3.028,2.16,2.16,0,1,1-2.984-3.124,16.563,16.563,0,0,1,22.1-.016,2.158,2.158,0,0,1,.1,3.052A2.133,2.133,0,0,1,376.259,659.556Z" transform="translate(-354.961 -651.603)" fill="#424242"/>
    </g>
  </g>
  <g id="Group_2314" data-name="Group 2314" transform="translate(23.132 32.163)">
    <path id="Path_4046" data-name="Path 4046" d="M371.668,649.686a5.016,5.016,0,1,1-5.018-5.018A5.018,5.018,0,0,1,371.668,649.686Z" transform="translate(-321.934 -644.668)" fill="#424242"/>
    <path id="Path_4047" data-name="Path 4047" d="M361.695,649.686a5.018,5.018,0,1,1-5.018-5.018A5.02,5.02,0,0,1,361.695,649.686Z" transform="translate(-351.659 -644.668)" fill="#424242"/>
  </g>
</svg>
