<svg id="Neutral_-_selected" data-name="Neutral - selected" xmlns="http://www.w3.org/2000/svg" width="96" height="89.499" viewBox="0 0 96 89.499">
  <g id="Group_2307" data-name="Group 2307">
    <rect id="Rectangle_519" data-name="Rectangle 519" width="96" height="89.499" fill="#ffca00"/>
  </g>
  <g id="Group_2308" data-name="Group 2308" transform="translate(23.987 59.346)">
    <path id="Path_4042" data-name="Path 4042" d="M424.45,656.147H381.071a2.324,2.324,0,1,1,0-4.648H424.45a2.324,2.324,0,1,1,0,4.648Z" transform="translate(-378.747 -651.499)" fill="#424242"/>
  </g>
  <g id="Group_2309" data-name="Group 2309" transform="translate(23.132 32.163)">
    <path id="Path_4043" data-name="Path 4043" d="M398.541,649.686a5.016,5.016,0,1,1-5.018-5.018A5.017,5.017,0,0,1,398.541,649.686Z" transform="translate(-348.807 -644.668)" fill="#424242"/>
    <path id="Path_4044" data-name="Path 4044" d="M388.568,649.686a5.018,5.018,0,1,1-5.018-5.018A5.02,5.02,0,0,1,388.568,649.686Z" transform="translate(-378.532 -644.668)" fill="#424242"/>
  </g>
</svg>
