<svg id="Happy_-_selected" data-name="Happy - selected" xmlns="http://www.w3.org/2000/svg" width="96" height="89.499" viewBox="0 0 96 89.499">
  <g id="Group_2299" data-name="Group 2299">
    <rect id="Rectangle_518" data-name="Rectangle 518" width="96" height="89.499" fill="#7de3db"/>
  </g>
  <g id="Group_2302" data-name="Group 2302" transform="translate(19.315 31.71)">
    <g id="Group_2300" data-name="Group 2300" transform="translate(44.812)">
      <path id="Path_4039" data-name="Path 4039" d="M427.124,651.466a.745.745,0,0,0,1.142-.621v-.012a6.279,6.279,0,0,0-12.559,0v.012a.749.749,0,0,0,1.146.621,9.782,9.782,0,0,1,10.271,0Z" transform="translate(-415.707 -644.554)" fill="#424242"/>
    </g>
    <g id="Group_2301" data-name="Group 2301">
      <path id="Path_4040" data-name="Path 4040" d="M415.859,651.466a.745.745,0,0,0,1.142-.621v-.012a6.277,6.277,0,1,0-12.555,0v.012a.745.745,0,0,0,1.142.621,9.782,9.782,0,0,1,10.271,0Z" transform="translate(-404.446 -644.554)" fill="#424242"/>
    </g>
  </g>
  <g id="Group_2305" data-name="Group 2305" transform="translate(25.923 53.937)">
    <g id="Group_2304" data-name="Group 2304">
      <g id="Group_2303" data-name="Group 2303">
        <path id="Path_4041" data-name="Path 4041" d="M428.444,662.6a32.018,32.018,0,0,1-21.6-8.436,2.323,2.323,0,1,1,3.164-3.4,27.215,27.215,0,0,0,36.383.43,2.324,2.324,0,1,1,3.08,3.482A31.7,31.7,0,0,1,428.444,662.6Z" transform="translate(-406.107 -650.14)" fill="#424242"/>
      </g>
    </g>
  </g>
</svg>
