<svg id="Very_Happy_-_selected" data-name="Very Happy - selected" xmlns="http://www.w3.org/2000/svg" width="96" height="89.499" viewBox="0 0 96 89.499">
  <g id="Group_2290" data-name="Group 2290">
    <rect id="Rectangle_517" data-name="Rectangle 517" width="96" height="89.499" fill="#75d6a2"/>
  </g>
  <g id="Group_2293" data-name="Group 2293" transform="translate(15.439 31.71)">
    <g id="Group_2291" data-name="Group 2291" transform="translate(52.563)">
      <path id="Path_4034" data-name="Path 4034" d="M454.967,651.466a.749.749,0,0,0,1.146-.621v-.012a6.279,6.279,0,1,0-12.559,0v.012a.746.746,0,0,0,1.142.621,9.782,9.782,0,0,1,10.271,0Z" transform="translate(-443.554 -644.554)" fill="#424242"/>
    </g>
    <g id="Group_2292" data-name="Group 2292">
      <path id="Path_4035" data-name="Path 4035" d="M441.762,651.466a.746.746,0,0,0,1.142-.621v-.012a6.279,6.279,0,1,0-12.559,0v.012a.746.746,0,0,0,1.142.621,9.789,9.789,0,0,1,10.275,0Z" transform="translate(-430.345 -644.554)" fill="#424242"/>
    </g>
  </g>
  <g id="Group_2297" data-name="Group 2297" transform="translate(21.719 48.224)">
    <g id="Group_2294" data-name="Group 2294">
      <path id="Path_4036" data-name="Path 4036" d="M433.9,652.428a2.82,2.82,0,0,0-1.795,3.661c3.542,8.957,13.916,16.5,26.093,16.5s22.555-7.545,26.1-16.5a2.819,2.819,0,0,0-1.795-3.661C467.828,647.462,448.58,647.462,433.9,652.428Z" transform="translate(-431.923 -648.704)" fill="#424242"/>
    </g>
    <g id="Group_2295" data-name="Group 2295" transform="translate(9.251 0.013)">
      <path id="Path_4037" data-name="Path 4037" d="M434.248,650.453a76.555,76.555,0,0,0,34.059,0A83.922,83.922,0,0,0,434.248,650.453Z" transform="translate(-434.248 -648.707)" fill="#fff"/>
    </g>
    <g id="Group_2296" data-name="Group 2296" transform="translate(13.211 16.478)">
      <path id="Path_4038" data-name="Path 4038" d="M435.243,657.186a29.372,29.372,0,0,0,26.141,0,21.846,21.846,0,0,0-26.141,0Z" transform="translate(-435.243 -652.845)" fill="#ff7b7c"/>
    </g>
  </g>
</svg>
