<svg id="Layer_1" data-name="Layer 1" xmlns="http://www.w3.org/2000/svg" viewBox="0 0 433.22 433.22"><defs><style>.cls-1{fill:#010101;stroke:#010101;stroke-miterlimit:10;stroke-width:1.22px;}.cls-2{fill:#fbce51;}.cls-3{fill:#f1ba45;}</style></defs><title>Logo(bg)</title><circle class="cls-1" cx="216.61" cy="216.61" r="216"/><path class="cls-2" d="M208.42,402.6H224.9V394c109.49-16.49,148.4-125.31,148.4-125.31-15.17,15.83-78.48,44.85-78.48,44.85,19.78-17.15,26.38-36.94,23.08-29s-21.11,5.27-21.11,5.27c49.47-54.08,71.23-120.69,52.77-99.59s-48.81,41.55-48.81,41.55L308,212l-17.81,9.89c38.91-54.74,39.57-118.72,30.34-95s-32.32,36.27-32.32,36.27l3.3-19.13-15.83,13.85c23.08-41.55,19.13-107.5,19.13-107.5L262.5,107.13l1.32-19.79-25.07,23.75C236.78,26,209.07,28,209.07,28s9.9,21.11-1.31,35.62-9.9,42.21-9.9,42.21L159,60.3l8.57,33c-30.34-50.13-35-45.51-35-45.51-8.95,36.35,8.19,76.5,13.6,87.87,1,2,1.57,3.15,1.57,3.15" transform="translate(0.61 0.61)"/><path class="cls-3" d="M141.87,143,120.7,124.28l6.59,23.08s-22.42-22.42-37.59-38.91c0,0,.66,49.46,34.29,96.29l-15.17-9.23,5.94,15.83s-24.4-15.17-42.21-36.94c0,0-9.89,25.07,45.51,91.68l-17.81-9.23L116.74,278S69.91,255.53,52.1,229.8c0,0,22.43,97,143.12,148.4" transform="translate(0.61 0.61)"/></svg>