<?xml version="1.0" encoding="utf-8"?>
<!-- Generator: Illustrator 23.0.2, SVG Export Plug-In . SVG Version: 6.00 Build 0)  -->
<svg version="1.1" id="Layer_1" xmlns="http://www.w3.org/2000/svg" xmlns:xlink="http://www.w3.org/1999/xlink" x="0px" y="0px"
	 viewBox="0 0 295.8 345.4" style="enable-background:new 0 0 295.8 345.4;" xml:space="preserve">
<style type="text/css">
	.st0{fill:#F1BA45;}
	.st1{fill:#FBCE51;}
</style>
<title>Logo</title>
<g>
	<g id="Layer_1-2_1_">
		<path class="st0" d="M132,323C20.7,275.5,0,186.1,0,186.1c16.4,23.7,59.6,44.4,59.6,44.4L44.4,211l16.4,8.5
			c-51.1-61.4-42-84.5-42-84.5c16.4,20.1,38.9,34.1,38.9,34.1l-5.4-14.6l14,8.5c-31-43.2-31.6-88.8-31.6-88.8
			c14,15.2,34.7,35.9,34.7,35.9l-6.1-21.3L82.8,106L132,323z"/>
		<path class="st1" d="M143.8,345.4H159v-7.9C260,322.3,295.8,222,295.8,222c-14,14.6-72.4,41.4-72.4,41.4
			c18.2-15.8,24.3-34.1,21.3-26.8s-19.5,4.9-19.5,4.9c45.6-49.9,65.7-111.3,48.6-91.8s-45,38.3-45,38.3l6.7-18.2l-16.4,9.1
			c35.9-50.5,36.5-109.5,28-87.6s-29.8,33.5-29.8,33.5l3-17.6L205.7,120c21.3-38.3,17.6-99.1,17.6-99.1L193.7,73l1.2-18.3
			l-23.1,21.9C170-1.8,144.4,0,144.4,0s9.1,19.5-1.2,32.8s-9.1,38.9-9.1,38.9l-35.9-42l7.9,30.4c-28-46.2-32.2-42-32.2-42
			c-8.3,33.5,7.6,70.5,12.6,81c0.9,1.9,1.4,2.9,1.4,2.9L143.8,345.4z"/>
	</g>
</g>
</svg>
